<?xml version="1.0" encoding="UTF-8" standalone="no"?>
<!DOCTYPE svg PUBLIC "-//W3C//DTD SVG 1.1//EN"
 "http://www.w3.org/Graphics/SVG/1.1/DTD/svg11.dtd">
<!-- Generated by graphviz version 2.42.1 (20190717.1914)
 -->
<!-- Title: HAsfc81 Pages: 1 -->
<svg width="2137pt" height="484pt"
 viewBox="0.00 0.00 2137.29 483.77" xmlns="http://www.w3.org/2000/svg" xmlns:xlink="http://www.w3.org/1999/xlink">
<g id="graph0" class="graph" transform="scale(1 1) rotate(0) translate(4 479.77)">
<title>HAsfc81</title>
<polygon fill="white" stroke="transparent" points="-4,4 -4,-479.77 2133.29,-479.77 2133.29,4 -4,4"/>
<g id="clust1" class="cluster">
<title>cluster2</title>
<path fill="none" stroke="black" d="M184.15,-249.98C184.15,-249.98 514.15,-249.98 514.15,-249.98 520.15,-249.98 526.15,-255.98 526.15,-261.98 526.15,-261.98 526.15,-455.77 526.15,-455.77 526.15,-461.77 520.15,-467.77 514.15,-467.77 514.15,-467.77 184.15,-467.77 184.15,-467.77 178.15,-467.77 172.15,-461.77 172.15,-455.77 172.15,-455.77 172.15,-261.98 172.15,-261.98 172.15,-255.98 178.15,-249.98 184.15,-249.98"/>
<text text-anchor="middle" x="514.65" y="-258.18" font-family="Times,serif" font-size="14.00">2</text>
</g>
<g id="clust2" class="cluster">
<title>cluster11</title>
<path fill="none" stroke="black" d="M1077.15,-249.98C1077.15,-249.98 1407.15,-249.98 1407.15,-249.98 1413.15,-249.98 1419.15,-255.98 1419.15,-261.98 1419.15,-261.98 1419.15,-455.77 1419.15,-455.77 1419.15,-461.77 1413.15,-467.77 1407.15,-467.77 1407.15,-467.77 1077.15,-467.77 1077.15,-467.77 1071.15,-467.77 1065.15,-461.77 1065.15,-455.77 1065.15,-455.77 1065.15,-261.98 1065.15,-261.98 1065.15,-255.98 1071.15,-249.98 1077.15,-249.98"/>
<text text-anchor="middle" x="1404.15" y="-258.18" font-family="Times,serif" font-size="14.00">11</text>
</g>
<g id="clust3" class="cluster">
<title>cluster140</title>
<path fill="none" stroke="black" d="M1614.15,-249.98C1614.15,-249.98 1944.15,-249.98 1944.15,-249.98 1950.15,-249.98 1956.15,-255.98 1956.15,-261.98 1956.15,-261.98 1956.15,-455.77 1956.15,-455.77 1956.15,-461.77 1950.15,-467.77 1944.15,-467.77 1944.15,-467.77 1614.15,-467.77 1614.15,-467.77 1608.15,-467.77 1602.15,-461.77 1602.15,-455.77 1602.15,-455.77 1602.15,-261.98 1602.15,-261.98 1602.15,-255.98 1608.15,-249.98 1614.15,-249.98"/>
<text text-anchor="middle" x="1937.65" y="-258.18" font-family="Times,serif" font-size="14.00">140</text>
</g>
<g id="clust4" class="cluster">
<title>cluster280</title>
<path fill="none" stroke="black" d="M1056.15,-8C1056.15,-8 1162.15,-8 1162.15,-8 1168.15,-8 1174.15,-14 1174.15,-20 1174.15,-20 1174.15,-225.89 1174.15,-225.89 1174.15,-231.89 1168.15,-237.89 1162.15,-237.89 1162.15,-237.89 1056.15,-237.89 1056.15,-237.89 1050.15,-237.89 1044.15,-231.89 1044.15,-225.89 1044.15,-225.89 1044.15,-20 1044.15,-20 1044.15,-14 1050.15,-8 1056.15,-8"/>
<text text-anchor="middle" x="1155.65" y="-16.2" font-family="Times,serif" font-size="14.00">280</text>
</g>
<!-- HAsfc81_b1_dist -->
<g id="node1" class="node">
<title>HAsfc81_b1_dist</title>
<ellipse fill="none" stroke="black" cx="81.15" cy="-418.48" rx="81.29" ry="41.09"/>
<text text-anchor="middle" x="81.15" y="-431.08" font-family="Times,serif" font-size="14.00">HAsfc81_b1_dist</text>
<text text-anchor="middle" x="81.15" y="-414.28" font-family="Times,serif" font-size="14.00">~</text>
<text text-anchor="middle" x="81.15" y="-397.48" font-family="Times,serif" font-size="14.00">Normal</text>
</g>
<!-- HAsfc81_b1 -->
<g id="node12" class="node">
<title>HAsfc81_b1</title>
<polygon fill="none" stroke="black" points="396.35,-341.38 303.95,-341.38 303.95,-282.58 396.35,-282.58 396.35,-341.38"/>
<text text-anchor="middle" x="350.15" y="-324.58" font-family="Times,serif" font-size="14.00">HAsfc81_b1</text>
<text text-anchor="middle" x="350.15" y="-307.78" font-family="Times,serif" font-size="14.00">~</text>
<text text-anchor="middle" x="350.15" y="-290.98" font-family="Times,serif" font-size="14.00">Deterministic</text>
</g>
<!-- HAsfc81_b1_dist&#45;&gt;HAsfc81_b1 -->
<g id="edge6" class="edge">
<title>HAsfc81_b1_dist&#45;&gt;HAsfc81_b1</title>
<path fill="none" stroke="black" d="M139.31,-389.61C148.88,-385.3 158.74,-381.01 168.15,-377.18 209.71,-360.27 257.59,-343.48 293.8,-331.32"/>
<polygon fill="black" stroke="black" points="295.32,-334.5 303.69,-328.02 293.1,-327.86 295.32,-334.5"/>
</g>
<!-- HAsfc81_nuY -->
<g id="node2" class="node">
<title>HAsfc81_nuY</title>
<ellipse fill="none" stroke="black" cx="1251.15" cy="-200.69" rx="69.08" ry="41.09"/>
<text text-anchor="middle" x="1251.15" y="-213.29" font-family="Times,serif" font-size="14.00">HAsfc81_nuY</text>
<text text-anchor="middle" x="1251.15" y="-196.49" font-family="Times,serif" font-size="14.00">~</text>
<text text-anchor="middle" x="1251.15" y="-179.69" font-family="Times,serif" font-size="14.00">Exponential</text>
</g>
<!-- HAsfc81_y -->
<g id="node19" class="node">
<title>HAsfc81_y</title>
<ellipse fill="lightgrey" stroke="black" cx="1109.15" cy="-82.1" rx="56.89" ry="41.09"/>
<text text-anchor="middle" x="1109.15" y="-94.7" font-family="Times,serif" font-size="14.00">HAsfc81_y</text>
<text text-anchor="middle" x="1109.15" y="-77.9" font-family="Times,serif" font-size="14.00">~</text>
<text text-anchor="middle" x="1109.15" y="-61.1" font-family="Times,serif" font-size="14.00">StudentT</text>
</g>
<!-- HAsfc81_nuY&#45;&gt;HAsfc81_y -->
<g id="edge17" class="edge">
<title>HAsfc81_nuY&#45;&gt;HAsfc81_y</title>
<path fill="none" stroke="black" d="M1211.21,-166.9C1193.57,-152.41 1172.74,-135.31 1154.52,-120.35"/>
<polygon fill="black" stroke="black" points="1156.3,-117.28 1146.35,-113.64 1151.85,-122.69 1156.3,-117.28"/>
</g>
<!-- HAsfc81_b3_dist -->
<g id="node3" class="node">
<title>HAsfc81_b3_dist</title>
<ellipse fill="none" stroke="black" cx="2048.15" cy="-418.48" rx="81.29" ry="41.09"/>
<text text-anchor="middle" x="2048.15" y="-431.08" font-family="Times,serif" font-size="14.00">HAsfc81_b3_dist</text>
<text text-anchor="middle" x="2048.15" y="-414.28" font-family="Times,serif" font-size="14.00">~</text>
<text text-anchor="middle" x="2048.15" y="-397.48" font-family="Times,serif" font-size="14.00">Normal</text>
</g>
<!-- HAsfc81_b3 -->
<g id="node16" class="node">
<title>HAsfc81_b3</title>
<polygon fill="none" stroke="black" points="1826.35,-341.38 1733.95,-341.38 1733.95,-282.58 1826.35,-282.58 1826.35,-341.38"/>
<text text-anchor="middle" x="1780.15" y="-324.58" font-family="Times,serif" font-size="14.00">HAsfc81_b3</text>
<text text-anchor="middle" x="1780.15" y="-307.78" font-family="Times,serif" font-size="14.00">~</text>
<text text-anchor="middle" x="1780.15" y="-290.98" font-family="Times,serif" font-size="14.00">Deterministic</text>
</g>
<!-- HAsfc81_b3_dist&#45;&gt;HAsfc81_b3 -->
<g id="edge10" class="edge">
<title>HAsfc81_b3_dist&#45;&gt;HAsfc81_b3</title>
<path fill="none" stroke="black" d="M1989.28,-389.67C1979.61,-385.35 1969.64,-381.04 1960.15,-377.18 1919.13,-360.51 1871.96,-343.77 1836.2,-331.57"/>
<polygon fill="black" stroke="black" points="1837.03,-328.15 1826.43,-328.25 1834.77,-334.78 1837.03,-328.15"/>
</g>
<!-- HAsfc81_sigma0 -->
<g id="node4" class="node">
<title>HAsfc81_sigma0</title>
<ellipse fill="none" stroke="black" cx="617.15" cy="-418.48" rx="80.68" ry="41.09"/>
<text text-anchor="middle" x="617.15" y="-431.08" font-family="Times,serif" font-size="14.00">HAsfc81_sigma0</text>
<text text-anchor="middle" x="617.15" y="-414.28" font-family="Times,serif" font-size="14.00">~</text>
<text text-anchor="middle" x="617.15" y="-397.48" font-family="Times,serif" font-size="14.00">HalfNormal</text>
</g>
<!-- HAsfc81_b0 -->
<g id="node6" class="node">
<title>HAsfc81_b0</title>
<polygon fill="none" stroke="black" points="932.35,-341.38 839.95,-341.38 839.95,-282.58 932.35,-282.58 932.35,-341.38"/>
<text text-anchor="middle" x="886.15" y="-324.58" font-family="Times,serif" font-size="14.00">HAsfc81_b0</text>
<text text-anchor="middle" x="886.15" y="-307.78" font-family="Times,serif" font-size="14.00">~</text>
<text text-anchor="middle" x="886.15" y="-290.98" font-family="Times,serif" font-size="14.00">Deterministic</text>
</g>
<!-- HAsfc81_sigma0&#45;&gt;HAsfc81_b0 -->
<g id="edge3" class="edge">
<title>HAsfc81_sigma0&#45;&gt;HAsfc81_b0</title>
<path fill="none" stroke="black" d="M676.42,-390.17C686.61,-385.69 697.14,-381.21 707.15,-377.18 747.88,-360.79 794.6,-344.1 830.1,-331.85"/>
<polygon fill="black" stroke="black" points="831.48,-335.07 839.79,-328.51 829.2,-328.45 831.48,-335.07"/>
</g>
<!-- HAsfc81_b0_dist -->
<g id="node5" class="node">
<title>HAsfc81_b0_dist</title>
<ellipse fill="none" stroke="black" cx="797.15" cy="-418.48" rx="81.29" ry="41.09"/>
<text text-anchor="middle" x="797.15" y="-431.08" font-family="Times,serif" font-size="14.00">HAsfc81_b0_dist</text>
<text text-anchor="middle" x="797.15" y="-414.28" font-family="Times,serif" font-size="14.00">~</text>
<text text-anchor="middle" x="797.15" y="-397.48" font-family="Times,serif" font-size="14.00">Normal</text>
</g>
<!-- HAsfc81_b0_dist&#45;&gt;HAsfc81_b0 -->
<g id="edge1" class="edge">
<title>HAsfc81_b0_dist&#45;&gt;HAsfc81_b0</title>
<path fill="none" stroke="black" d="M828.78,-380.34C837.37,-370.25 846.67,-359.34 855.22,-349.29"/>
<polygon fill="black" stroke="black" points="858.08,-351.34 861.9,-341.45 852.75,-346.8 858.08,-351.34"/>
</g>
<!-- HAsfc81_mu -->
<g id="node20" class="node">
<title>HAsfc81_mu</title>
<polygon fill="none" stroke="black" points="1155.35,-230.09 1062.95,-230.09 1062.95,-171.28 1155.35,-171.28 1155.35,-230.09"/>
<text text-anchor="middle" x="1109.15" y="-213.29" font-family="Times,serif" font-size="14.00">HAsfc81_mu</text>
<text text-anchor="middle" x="1109.15" y="-196.49" font-family="Times,serif" font-size="14.00">~</text>
<text text-anchor="middle" x="1109.15" y="-179.69" font-family="Times,serif" font-size="14.00">Deterministic</text>
</g>
<!-- HAsfc81_b0&#45;&gt;HAsfc81_mu -->
<g id="edge13" class="edge">
<title>HAsfc81_b0&#45;&gt;HAsfc81_mu</title>
<path fill="none" stroke="black" d="M932.35,-288.33C967.63,-271.04 1016.38,-247.15 1053.76,-228.83"/>
<polygon fill="black" stroke="black" points="1055.56,-231.85 1063,-224.3 1052.48,-225.56 1055.56,-231.85"/>
</g>
<!-- HAsfc81_mu_b0 -->
<g id="node7" class="node">
<title>HAsfc81_mu_b0</title>
<ellipse fill="none" stroke="black" cx="976.15" cy="-418.48" rx="79.49" ry="41.09"/>
<text text-anchor="middle" x="976.15" y="-431.08" font-family="Times,serif" font-size="14.00">HAsfc81_mu_b0</text>
<text text-anchor="middle" x="976.15" y="-414.28" font-family="Times,serif" font-size="14.00">~</text>
<text text-anchor="middle" x="976.15" y="-397.48" font-family="Times,serif" font-size="14.00">Normal</text>
</g>
<!-- HAsfc81_mu_b0&#45;&gt;HAsfc81_b0 -->
<g id="edge2" class="edge">
<title>HAsfc81_mu_b0&#45;&gt;HAsfc81_b0</title>
<path fill="none" stroke="black" d="M944.16,-380.34C935.47,-370.25 926.07,-359.34 917.42,-349.29"/>
<polygon fill="black" stroke="black" points="919.85,-346.75 910.67,-341.45 914.54,-351.32 919.85,-346.75"/>
</g>
<!-- HAsfc81_sigmaY -->
<g id="node8" class="node">
<title>HAsfc81_sigmaY</title>
<ellipse fill="none" stroke="black" cx="1421.15" cy="-200.69" rx="82.58" ry="41.09"/>
<text text-anchor="middle" x="1421.15" y="-213.29" font-family="Times,serif" font-size="14.00">HAsfc81_sigmaY</text>
<text text-anchor="middle" x="1421.15" y="-196.49" font-family="Times,serif" font-size="14.00">~</text>
<text text-anchor="middle" x="1421.15" y="-179.69" font-family="Times,serif" font-size="14.00">Gamma</text>
</g>
<!-- HAsfc81_sigmaY&#45;&gt;HAsfc81_y -->
<g id="edge18" class="edge">
<title>HAsfc81_sigmaY&#45;&gt;HAsfc81_y</title>
<path fill="none" stroke="black" d="M1360.56,-172.34C1350.14,-167.87 1339.38,-163.4 1329.15,-159.39 1276.13,-138.62 1214.86,-117.61 1170.46,-102.91"/>
<polygon fill="black" stroke="black" points="1171.28,-99.5 1160.69,-99.69 1169.09,-106.15 1171.28,-99.5"/>
</g>
<!-- HAsfc81_b2_dist -->
<g id="node9" class="node">
<title>HAsfc81_b2_dist</title>
<ellipse fill="none" stroke="black" cx="1511.15" cy="-418.48" rx="81.29" ry="41.09"/>
<text text-anchor="middle" x="1511.15" y="-431.08" font-family="Times,serif" font-size="14.00">HAsfc81_b2_dist</text>
<text text-anchor="middle" x="1511.15" y="-414.28" font-family="Times,serif" font-size="14.00">~</text>
<text text-anchor="middle" x="1511.15" y="-397.48" font-family="Times,serif" font-size="14.00">Normal</text>
</g>
<!-- HAsfc81_b2 -->
<g id="node14" class="node">
<title>HAsfc81_b2</title>
<polygon fill="none" stroke="black" points="1289.35,-341.38 1196.95,-341.38 1196.95,-282.58 1289.35,-282.58 1289.35,-341.38"/>
<text text-anchor="middle" x="1243.15" y="-324.58" font-family="Times,serif" font-size="14.00">HAsfc81_b2</text>
<text text-anchor="middle" x="1243.15" y="-307.78" font-family="Times,serif" font-size="14.00">~</text>
<text text-anchor="middle" x="1243.15" y="-290.98" font-family="Times,serif" font-size="14.00">Deterministic</text>
</g>
<!-- HAsfc81_b2_dist&#45;&gt;HAsfc81_b2 -->
<g id="edge8" class="edge">
<title>HAsfc81_b2_dist&#45;&gt;HAsfc81_b2</title>
<path fill="none" stroke="black" d="M1452.28,-389.67C1442.61,-385.35 1432.64,-381.04 1423.15,-377.18 1382.13,-360.51 1334.96,-343.77 1299.2,-331.57"/>
<polygon fill="black" stroke="black" points="1300.03,-328.15 1289.43,-328.25 1297.77,-334.78 1300.03,-328.15"/>
</g>
<!-- HAsfc81_mu_b1 -->
<g id="node10" class="node">
<title>HAsfc81_mu_b1</title>
<ellipse fill="none" stroke="black" cx="439.15" cy="-418.48" rx="79.49" ry="41.09"/>
<text text-anchor="middle" x="439.15" y="-431.08" font-family="Times,serif" font-size="14.00">HAsfc81_mu_b1</text>
<text text-anchor="middle" x="439.15" y="-414.28" font-family="Times,serif" font-size="14.00">~</text>
<text text-anchor="middle" x="439.15" y="-397.48" font-family="Times,serif" font-size="14.00">Normal</text>
</g>
<!-- HAsfc81_mu_b1&#45;&gt;HAsfc81_b1 -->
<g id="edge4" class="edge">
<title>HAsfc81_mu_b1&#45;&gt;HAsfc81_b1</title>
<path fill="none" stroke="black" d="M407.52,-380.34C398.92,-370.25 389.63,-359.34 381.07,-349.29"/>
<polygon fill="black" stroke="black" points="383.55,-346.8 374.4,-341.45 378.22,-351.34 383.55,-346.8"/>
</g>
<!-- HAsfc81_sigma1 -->
<g id="node11" class="node">
<title>HAsfc81_sigma1</title>
<ellipse fill="none" stroke="black" cx="261.15" cy="-418.48" rx="80.68" ry="41.09"/>
<text text-anchor="middle" x="261.15" y="-431.08" font-family="Times,serif" font-size="14.00">HAsfc81_sigma1</text>
<text text-anchor="middle" x="261.15" y="-414.28" font-family="Times,serif" font-size="14.00">~</text>
<text text-anchor="middle" x="261.15" y="-397.48" font-family="Times,serif" font-size="14.00">HalfNormal</text>
</g>
<!-- HAsfc81_sigma1&#45;&gt;HAsfc81_b1 -->
<g id="edge5" class="edge">
<title>HAsfc81_sigma1&#45;&gt;HAsfc81_b1</title>
<path fill="none" stroke="black" d="M292.78,-380.34C301.37,-370.25 310.67,-359.34 319.22,-349.29"/>
<polygon fill="black" stroke="black" points="322.08,-351.34 325.9,-341.45 316.75,-346.8 322.08,-351.34"/>
</g>
<!-- HAsfc81_b1&#45;&gt;HAsfc81_mu -->
<g id="edge16" class="edge">
<title>HAsfc81_b1&#45;&gt;HAsfc81_mu</title>
<path fill="none" stroke="black" d="M396.48,-304.31C528.97,-285.23 909.05,-230.5 1052.99,-209.77"/>
<polygon fill="black" stroke="black" points="1053.54,-213.23 1062.94,-208.34 1052.54,-206.3 1053.54,-213.23"/>
</g>
<!-- HAsfc81_mu_b2 -->
<g id="node13" class="node">
<title>HAsfc81_mu_b2</title>
<ellipse fill="none" stroke="black" cx="1332.15" cy="-418.48" rx="79.49" ry="41.09"/>
<text text-anchor="middle" x="1332.15" y="-431.08" font-family="Times,serif" font-size="14.00">HAsfc81_mu_b2</text>
<text text-anchor="middle" x="1332.15" y="-414.28" font-family="Times,serif" font-size="14.00">~</text>
<text text-anchor="middle" x="1332.15" y="-397.48" font-family="Times,serif" font-size="14.00">Normal</text>
</g>
<!-- HAsfc81_mu_b2&#45;&gt;HAsfc81_b2 -->
<g id="edge7" class="edge">
<title>HAsfc81_mu_b2&#45;&gt;HAsfc81_b2</title>
<path fill="none" stroke="black" d="M1300.52,-380.34C1291.92,-370.25 1282.63,-359.34 1274.07,-349.29"/>
<polygon fill="black" stroke="black" points="1276.55,-346.8 1267.4,-341.45 1271.22,-351.34 1276.55,-346.8"/>
</g>
<!-- HAsfc81_b2&#45;&gt;HAsfc81_mu -->
<g id="edge15" class="edge">
<title>HAsfc81_b2&#45;&gt;HAsfc81_mu</title>
<path fill="none" stroke="black" d="M1208.29,-282.55C1191.07,-268.51 1170.15,-251.44 1151.97,-236.61"/>
<polygon fill="black" stroke="black" points="1153.79,-233.58 1143.83,-229.97 1149.37,-239.01 1153.79,-233.58"/>
</g>
<!-- HAsfc81_sigma2 -->
<g id="node15" class="node">
<title>HAsfc81_sigma2</title>
<ellipse fill="none" stroke="black" cx="1154.15" cy="-418.48" rx="80.68" ry="41.09"/>
<text text-anchor="middle" x="1154.15" y="-431.08" font-family="Times,serif" font-size="14.00">HAsfc81_sigma2</text>
<text text-anchor="middle" x="1154.15" y="-414.28" font-family="Times,serif" font-size="14.00">~</text>
<text text-anchor="middle" x="1154.15" y="-397.48" font-family="Times,serif" font-size="14.00">HalfNormal</text>
</g>
<!-- HAsfc81_sigma2&#45;&gt;HAsfc81_b2 -->
<g id="edge9" class="edge">
<title>HAsfc81_sigma2&#45;&gt;HAsfc81_b2</title>
<path fill="none" stroke="black" d="M1185.78,-380.34C1194.37,-370.25 1203.67,-359.34 1212.22,-349.29"/>
<polygon fill="black" stroke="black" points="1215.08,-351.34 1218.9,-341.45 1209.75,-346.8 1215.08,-351.34"/>
</g>
<!-- HAsfc81_b3&#45;&gt;HAsfc81_mu -->
<g id="edge14" class="edge">
<title>HAsfc81_b3&#45;&gt;HAsfc81_mu</title>
<path fill="none" stroke="black" d="M1733.93,-300.99C1666.14,-286.82 1535.6,-261.33 1423.15,-249.98 1395.5,-247.19 1199.72,-250.11 1173.15,-241.98 1167.21,-240.16 1161.29,-237.65 1155.58,-234.75"/>
<polygon fill="black" stroke="black" points="1157.25,-231.67 1146.8,-229.92 1153.88,-237.81 1157.25,-231.67"/>
</g>
<!-- HAsfc81_mu_b3 -->
<g id="node17" class="node">
<title>HAsfc81_mu_b3</title>
<ellipse fill="none" stroke="black" cx="1869.15" cy="-418.48" rx="79.49" ry="41.09"/>
<text text-anchor="middle" x="1869.15" y="-431.08" font-family="Times,serif" font-size="14.00">HAsfc81_mu_b3</text>
<text text-anchor="middle" x="1869.15" y="-414.28" font-family="Times,serif" font-size="14.00">~</text>
<text text-anchor="middle" x="1869.15" y="-397.48" font-family="Times,serif" font-size="14.00">Normal</text>
</g>
<!-- HAsfc81_mu_b3&#45;&gt;HAsfc81_b3 -->
<g id="edge11" class="edge">
<title>HAsfc81_mu_b3&#45;&gt;HAsfc81_b3</title>
<path fill="none" stroke="black" d="M1837.52,-380.34C1828.92,-370.25 1819.63,-359.34 1811.07,-349.29"/>
<polygon fill="black" stroke="black" points="1813.55,-346.8 1804.4,-341.45 1808.22,-351.34 1813.55,-346.8"/>
</g>
<!-- HAsfc81_sigma3 -->
<g id="node18" class="node">
<title>HAsfc81_sigma3</title>
<ellipse fill="none" stroke="black" cx="1691.15" cy="-418.48" rx="80.68" ry="41.09"/>
<text text-anchor="middle" x="1691.15" y="-431.08" font-family="Times,serif" font-size="14.00">HAsfc81_sigma3</text>
<text text-anchor="middle" x="1691.15" y="-414.28" font-family="Times,serif" font-size="14.00">~</text>
<text text-anchor="middle" x="1691.15" y="-397.48" font-family="Times,serif" font-size="14.00">HalfNormal</text>
</g>
<!-- HAsfc81_sigma3&#45;&gt;HAsfc81_b3 -->
<g id="edge12" class="edge">
<title>HAsfc81_sigma3&#45;&gt;HAsfc81_b3</title>
<path fill="none" stroke="black" d="M1722.78,-380.34C1731.37,-370.25 1740.67,-359.34 1749.22,-349.29"/>
<polygon fill="black" stroke="black" points="1752.08,-351.34 1755.9,-341.45 1746.75,-346.8 1752.08,-351.34"/>
</g>
<!-- HAsfc81_mu&#45;&gt;HAsfc81_y -->
<g id="edge19" class="edge">
<title>HAsfc81_mu&#45;&gt;HAsfc81_y</title>
<path fill="none" stroke="black" d="M1109.15,-171.46C1109.15,-160.08 1109.15,-146.6 1109.15,-133.63"/>
<polygon fill="black" stroke="black" points="1112.65,-133.4 1109.15,-123.4 1105.65,-133.4 1112.65,-133.4"/>
</g>
</g>
</svg>
