<?xml version="1.0" encoding="UTF-8" standalone="no"?>
<!DOCTYPE svg PUBLIC "-//W3C//DTD SVG 1.1//EN"
 "http://www.w3.org/Graphics/SVG/1.1/DTD/svg11.dtd">
<!-- Generated by graphviz version 2.42.1 (20190717.1914)
 -->
<!-- Title: HAsfc81 Pages: 1 -->
<svg width="2154pt" height="484pt"
 viewBox="0.00 0.00 2153.59 483.77" xmlns="http://www.w3.org/2000/svg" xmlns:xlink="http://www.w3.org/1999/xlink">
<g id="graph0" class="graph" transform="scale(1 1) rotate(0) translate(4 479.77)">
<title>HAsfc81</title>
<polygon fill="white" stroke="transparent" points="-4,4 -4,-479.77 2149.59,-479.77 2149.59,4 -4,4"/>
<g id="clust1" class="cluster">
<title>cluster2</title>
<path fill="none" stroke="black" d="M20,-249.98C20,-249.98 350,-249.98 350,-249.98 356,-249.98 362,-255.98 362,-261.98 362,-261.98 362,-455.77 362,-455.77 362,-461.77 356,-467.77 350,-467.77 350,-467.77 20,-467.77 20,-467.77 14,-467.77 8,-461.77 8,-455.77 8,-455.77 8,-261.98 8,-261.98 8,-255.98 14,-249.98 20,-249.98"/>
<text text-anchor="middle" x="350.5" y="-258.18" font-family="Times,serif" font-size="14.00">2</text>
</g>
<g id="clust2" class="cluster">
<title>cluster11</title>
<path fill="none" stroke="black" d="M557,-249.98C557,-249.98 887,-249.98 887,-249.98 893,-249.98 899,-255.98 899,-261.98 899,-261.98 899,-455.77 899,-455.77 899,-461.77 893,-467.77 887,-467.77 887,-467.77 557,-467.77 557,-467.77 551,-467.77 545,-461.77 545,-455.77 545,-455.77 545,-261.98 545,-261.98 545,-255.98 551,-249.98 557,-249.98"/>
<text text-anchor="middle" x="884" y="-258.18" font-family="Times,serif" font-size="14.00">11</text>
</g>
<g id="clust3" class="cluster">
<title>cluster140</title>
<path fill="none" stroke="black" d="M1094,-249.98C1094,-249.98 1424,-249.98 1424,-249.98 1430,-249.98 1436,-255.98 1436,-261.98 1436,-261.98 1436,-455.77 1436,-455.77 1436,-461.77 1430,-467.77 1424,-467.77 1424,-467.77 1094,-467.77 1094,-467.77 1088,-467.77 1082,-461.77 1082,-455.77 1082,-455.77 1082,-261.98 1082,-261.98 1082,-255.98 1088,-249.98 1094,-249.98"/>
<text text-anchor="middle" x="1417.5" y="-258.18" font-family="Times,serif" font-size="14.00">140</text>
</g>
<g id="clust4" class="cluster">
<title>cluster280</title>
<path fill="none" stroke="black" d="M999,-8C999,-8 1105,-8 1105,-8 1111,-8 1117,-14 1117,-20 1117,-20 1117,-225.89 1117,-225.89 1117,-231.89 1111,-237.89 1105,-237.89 1105,-237.89 999,-237.89 999,-237.89 993,-237.89 987,-231.89 987,-225.89 987,-225.89 987,-20 987,-20 987,-14 993,-8 999,-8"/>
<text text-anchor="middle" x="1098.5" y="-16.2" font-family="Times,serif" font-size="14.00">280</text>
</g>
<!-- HAsfc81_b0 -->
<g id="node1" class="node">
<title>HAsfc81_b0</title>
<polygon fill="none" stroke="black" points="1843.2,-341.38 1750.8,-341.38 1750.8,-282.58 1843.2,-282.58 1843.2,-341.38"/>
<text text-anchor="middle" x="1797" y="-324.58" font-family="Times,serif" font-size="14.00">HAsfc81_b0</text>
<text text-anchor="middle" x="1797" y="-307.78" font-family="Times,serif" font-size="14.00">~</text>
<text text-anchor="middle" x="1797" y="-290.98" font-family="Times,serif" font-size="14.00">Deterministic</text>
</g>
<!-- HAsfc81_mu -->
<g id="node19" class="node">
<title>HAsfc81_mu</title>
<polygon fill="none" stroke="black" points="1098.2,-230.09 1005.8,-230.09 1005.8,-171.28 1098.2,-171.28 1098.2,-230.09"/>
<text text-anchor="middle" x="1052" y="-213.29" font-family="Times,serif" font-size="14.00">HAsfc81_mu</text>
<text text-anchor="middle" x="1052" y="-196.49" font-family="Times,serif" font-size="14.00">~</text>
<text text-anchor="middle" x="1052" y="-179.69" font-family="Times,serif" font-size="14.00">Deterministic</text>
</g>
<!-- HAsfc81_b0&#45;&gt;HAsfc81_mu -->
<g id="edge13" class="edge">
<title>HAsfc81_b0&#45;&gt;HAsfc81_mu</title>
<path fill="none" stroke="black" d="M1750.79,-300.88C1683.02,-286.57 1552.49,-260.92 1440,-249.98 1404.16,-246.49 1150.47,-252.39 1116,-241.98 1110.06,-240.19 1104.13,-237.68 1098.42,-234.79"/>
<polygon fill="black" stroke="black" points="1100.09,-231.71 1089.63,-229.98 1096.72,-237.85 1100.09,-231.71"/>
</g>
<!-- HAsfc81_b1_dist -->
<g id="node2" class="node">
<title>HAsfc81_b1_dist</title>
<ellipse fill="none" stroke="black" cx="454" cy="-418.48" rx="81.29" ry="41.09"/>
<text text-anchor="middle" x="454" y="-431.08" font-family="Times,serif" font-size="14.00">HAsfc81_b1_dist</text>
<text text-anchor="middle" x="454" y="-414.28" font-family="Times,serif" font-size="14.00">~</text>
<text text-anchor="middle" x="454" y="-397.48" font-family="Times,serif" font-size="14.00">Normal</text>
</g>
<!-- HAsfc81_b1 -->
<g id="node11" class="node">
<title>HAsfc81_b1</title>
<polygon fill="none" stroke="black" points="337.2,-341.38 244.8,-341.38 244.8,-282.58 337.2,-282.58 337.2,-341.38"/>
<text text-anchor="middle" x="291" y="-324.58" font-family="Times,serif" font-size="14.00">HAsfc81_b1</text>
<text text-anchor="middle" x="291" y="-307.78" font-family="Times,serif" font-size="14.00">~</text>
<text text-anchor="middle" x="291" y="-290.98" font-family="Times,serif" font-size="14.00">Deterministic</text>
</g>
<!-- HAsfc81_b1_dist&#45;&gt;HAsfc81_b1 -->
<g id="edge5" class="edge">
<title>HAsfc81_b1_dist&#45;&gt;HAsfc81_b1</title>
<path fill="none" stroke="black" d="M404.21,-385.56C385.04,-373.27 363.11,-359.21 343.68,-346.75"/>
<polygon fill="black" stroke="black" points="345.54,-343.79 335.23,-341.34 341.76,-349.68 345.54,-343.79"/>
</g>
<!-- HAsfc81_b3_dist -->
<g id="node3" class="node">
<title>HAsfc81_b3_dist</title>
<ellipse fill="none" stroke="black" cx="1528" cy="-418.48" rx="81.29" ry="41.09"/>
<text text-anchor="middle" x="1528" y="-431.08" font-family="Times,serif" font-size="14.00">HAsfc81_b3_dist</text>
<text text-anchor="middle" x="1528" y="-414.28" font-family="Times,serif" font-size="14.00">~</text>
<text text-anchor="middle" x="1528" y="-397.48" font-family="Times,serif" font-size="14.00">Normal</text>
</g>
<!-- HAsfc81_b3 -->
<g id="node18" class="node">
<title>HAsfc81_b3</title>
<polygon fill="none" stroke="black" points="1306.2,-341.38 1213.8,-341.38 1213.8,-282.58 1306.2,-282.58 1306.2,-341.38"/>
<text text-anchor="middle" x="1260" y="-324.58" font-family="Times,serif" font-size="14.00">HAsfc81_b3</text>
<text text-anchor="middle" x="1260" y="-307.78" font-family="Times,serif" font-size="14.00">~</text>
<text text-anchor="middle" x="1260" y="-290.98" font-family="Times,serif" font-size="14.00">Deterministic</text>
</g>
<!-- HAsfc81_b3_dist&#45;&gt;HAsfc81_b3 -->
<g id="edge11" class="edge">
<title>HAsfc81_b3_dist&#45;&gt;HAsfc81_b3</title>
<path fill="none" stroke="black" d="M1469.14,-389.67C1459.46,-385.35 1449.5,-381.04 1440,-377.18 1398.98,-360.51 1351.81,-343.77 1316.05,-331.57"/>
<polygon fill="black" stroke="black" points="1316.88,-328.15 1306.28,-328.25 1314.63,-334.78 1316.88,-328.15"/>
</g>
<!-- HAsfc81_b2_dist -->
<g id="node4" class="node">
<title>HAsfc81_b2_dist</title>
<ellipse fill="none" stroke="black" cx="991" cy="-418.48" rx="81.29" ry="41.09"/>
<text text-anchor="middle" x="991" y="-431.08" font-family="Times,serif" font-size="14.00">HAsfc81_b2_dist</text>
<text text-anchor="middle" x="991" y="-414.28" font-family="Times,serif" font-size="14.00">~</text>
<text text-anchor="middle" x="991" y="-397.48" font-family="Times,serif" font-size="14.00">Normal</text>
</g>
<!-- HAsfc81_b2 -->
<g id="node14" class="node">
<title>HAsfc81_b2</title>
<polygon fill="none" stroke="black" points="874.2,-341.38 781.8,-341.38 781.8,-282.58 874.2,-282.58 874.2,-341.38"/>
<text text-anchor="middle" x="828" y="-324.58" font-family="Times,serif" font-size="14.00">HAsfc81_b2</text>
<text text-anchor="middle" x="828" y="-307.78" font-family="Times,serif" font-size="14.00">~</text>
<text text-anchor="middle" x="828" y="-290.98" font-family="Times,serif" font-size="14.00">Deterministic</text>
</g>
<!-- HAsfc81_b2_dist&#45;&gt;HAsfc81_b2 -->
<g id="edge8" class="edge">
<title>HAsfc81_b2_dist&#45;&gt;HAsfc81_b2</title>
<path fill="none" stroke="black" d="M941.21,-385.56C922.04,-373.27 900.11,-359.21 880.68,-346.75"/>
<polygon fill="black" stroke="black" points="882.54,-343.79 872.23,-341.34 878.76,-349.68 882.54,-343.79"/>
</g>
<!-- HAsfc81_b0_dist -->
<g id="node5" class="node">
<title>HAsfc81_b0_dist</title>
<ellipse fill="none" stroke="black" cx="1708" cy="-418.48" rx="81.29" ry="41.09"/>
<text text-anchor="middle" x="1708" y="-431.08" font-family="Times,serif" font-size="14.00">HAsfc81_b0_dist</text>
<text text-anchor="middle" x="1708" y="-414.28" font-family="Times,serif" font-size="14.00">~</text>
<text text-anchor="middle" x="1708" y="-397.48" font-family="Times,serif" font-size="14.00">Normal</text>
</g>
<!-- HAsfc81_b0_dist&#45;&gt;HAsfc81_b0 -->
<g id="edge2" class="edge">
<title>HAsfc81_b0_dist&#45;&gt;HAsfc81_b0</title>
<path fill="none" stroke="black" d="M1739.63,-380.34C1748.22,-370.25 1757.52,-359.34 1766.07,-349.29"/>
<polygon fill="black" stroke="black" points="1768.93,-351.34 1772.75,-341.45 1763.6,-346.8 1768.93,-351.34"/>
</g>
<!-- HAsfc81_mu_b0 -->
<g id="node6" class="node">
<title>HAsfc81_mu_b0</title>
<ellipse fill="none" stroke="black" cx="1887" cy="-418.48" rx="79.49" ry="41.09"/>
<text text-anchor="middle" x="1887" y="-431.08" font-family="Times,serif" font-size="14.00">HAsfc81_mu_b0</text>
<text text-anchor="middle" x="1887" y="-414.28" font-family="Times,serif" font-size="14.00">~</text>
<text text-anchor="middle" x="1887" y="-397.48" font-family="Times,serif" font-size="14.00">Normal</text>
</g>
<!-- HAsfc81_mu_b0&#45;&gt;HAsfc81_b0 -->
<g id="edge1" class="edge">
<title>HAsfc81_mu_b0&#45;&gt;HAsfc81_b0</title>
<path fill="none" stroke="black" d="M1855.02,-380.34C1846.32,-370.25 1836.93,-359.34 1828.27,-349.29"/>
<polygon fill="black" stroke="black" points="1830.7,-346.75 1821.52,-341.45 1825.4,-351.32 1830.7,-346.75"/>
</g>
<!-- HAsfc81_nuY -->
<g id="node7" class="node">
<title>HAsfc81_nuY</title>
<ellipse fill="none" stroke="black" cx="910" cy="-200.69" rx="69.08" ry="41.09"/>
<text text-anchor="middle" x="910" y="-213.29" font-family="Times,serif" font-size="14.00">HAsfc81_nuY</text>
<text text-anchor="middle" x="910" y="-196.49" font-family="Times,serif" font-size="14.00">~</text>
<text text-anchor="middle" x="910" y="-179.69" font-family="Times,serif" font-size="14.00">Exponential</text>
</g>
<!-- HAsfc81_y -->
<g id="node20" class="node">
<title>HAsfc81_y</title>
<ellipse fill="lightgrey" stroke="black" cx="1052" cy="-82.1" rx="56.89" ry="41.09"/>
<text text-anchor="middle" x="1052" y="-94.7" font-family="Times,serif" font-size="14.00">HAsfc81_y</text>
<text text-anchor="middle" x="1052" y="-77.9" font-family="Times,serif" font-size="14.00">~</text>
<text text-anchor="middle" x="1052" y="-61.1" font-family="Times,serif" font-size="14.00">StudentT</text>
</g>
<!-- HAsfc81_nuY&#45;&gt;HAsfc81_y -->
<g id="edge19" class="edge">
<title>HAsfc81_nuY&#45;&gt;HAsfc81_y</title>
<path fill="none" stroke="black" d="M949.93,-166.9C967.57,-152.41 988.4,-135.31 1006.63,-120.35"/>
<polygon fill="black" stroke="black" points="1009.29,-122.69 1014.8,-113.64 1004.85,-117.28 1009.29,-122.69"/>
</g>
<!-- HAsfc81_sigmaY -->
<g id="node8" class="node">
<title>HAsfc81_sigmaY</title>
<ellipse fill="none" stroke="black" cx="1208" cy="-200.69" rx="82.58" ry="41.09"/>
<text text-anchor="middle" x="1208" y="-213.29" font-family="Times,serif" font-size="14.00">HAsfc81_sigmaY</text>
<text text-anchor="middle" x="1208" y="-196.49" font-family="Times,serif" font-size="14.00">~</text>
<text text-anchor="middle" x="1208" y="-179.69" font-family="Times,serif" font-size="14.00">Gamma</text>
</g>
<!-- HAsfc81_sigmaY&#45;&gt;HAsfc81_y -->
<g id="edge17" class="edge">
<title>HAsfc81_sigmaY&#45;&gt;HAsfc81_y</title>
<path fill="none" stroke="black" d="M1162.88,-165.96C1142.95,-151.07 1119.51,-133.55 1099.33,-118.47"/>
<polygon fill="black" stroke="black" points="1101.3,-115.57 1091.2,-112.39 1097.11,-121.18 1101.3,-115.57"/>
</g>
<!-- HAsfc81_sigma0 -->
<g id="node9" class="node">
<title>HAsfc81_sigma0</title>
<ellipse fill="none" stroke="black" cx="2065" cy="-418.48" rx="80.68" ry="41.09"/>
<text text-anchor="middle" x="2065" y="-431.08" font-family="Times,serif" font-size="14.00">HAsfc81_sigma0</text>
<text text-anchor="middle" x="2065" y="-414.28" font-family="Times,serif" font-size="14.00">~</text>
<text text-anchor="middle" x="2065" y="-397.48" font-family="Times,serif" font-size="14.00">HalfNormal</text>
</g>
<!-- HAsfc81_sigma0&#45;&gt;HAsfc81_b0 -->
<g id="edge3" class="edge">
<title>HAsfc81_sigma0&#45;&gt;HAsfc81_b0</title>
<path fill="none" stroke="black" d="M2005.72,-390.18C1995.53,-385.71 1985,-381.22 1975,-377.18 1934.62,-360.89 1888.34,-344.26 1853.09,-332"/>
<polygon fill="black" stroke="black" points="1854.05,-328.63 1843.46,-328.67 1851.76,-335.25 1854.05,-328.63"/>
</g>
<!-- HAsfc81_mu_b1 -->
<g id="node10" class="node">
<title>HAsfc81_mu_b1</title>
<ellipse fill="none" stroke="black" cx="275" cy="-418.48" rx="79.49" ry="41.09"/>
<text text-anchor="middle" x="275" y="-431.08" font-family="Times,serif" font-size="14.00">HAsfc81_mu_b1</text>
<text text-anchor="middle" x="275" y="-414.28" font-family="Times,serif" font-size="14.00">~</text>
<text text-anchor="middle" x="275" y="-397.48" font-family="Times,serif" font-size="14.00">Normal</text>
</g>
<!-- HAsfc81_mu_b1&#45;&gt;HAsfc81_b1 -->
<g id="edge4" class="edge">
<title>HAsfc81_mu_b1&#45;&gt;HAsfc81_b1</title>
<path fill="none" stroke="black" d="M281.19,-377.07C282.49,-368.58 283.85,-359.65 285.14,-351.24"/>
<polygon fill="black" stroke="black" points="288.61,-351.72 286.66,-341.3 281.69,-350.66 288.61,-351.72"/>
</g>
<!-- HAsfc81_b1&#45;&gt;HAsfc81_mu -->
<g id="edge16" class="edge">
<title>HAsfc81_b1&#45;&gt;HAsfc81_mu</title>
<path fill="none" stroke="black" d="M337.41,-296.38C387.17,-281.5 468.78,-259.32 541,-249.98 590.26,-243.61 940.4,-256.18 988,-241.98 993.95,-240.21 999.88,-237.72 1005.59,-234.83"/>
<polygon fill="black" stroke="black" points="1007.29,-237.89 1014.38,-230.02 1003.93,-231.75 1007.29,-237.89"/>
</g>
<!-- HAsfc81_sigma1 -->
<g id="node12" class="node">
<title>HAsfc81_sigma1</title>
<ellipse fill="none" stroke="black" cx="97" cy="-418.48" rx="80.68" ry="41.09"/>
<text text-anchor="middle" x="97" y="-431.08" font-family="Times,serif" font-size="14.00">HAsfc81_sigma1</text>
<text text-anchor="middle" x="97" y="-414.28" font-family="Times,serif" font-size="14.00">~</text>
<text text-anchor="middle" x="97" y="-397.48" font-family="Times,serif" font-size="14.00">HalfNormal</text>
</g>
<!-- HAsfc81_sigma1&#45;&gt;HAsfc81_b1 -->
<g id="edge6" class="edge">
<title>HAsfc81_sigma1&#45;&gt;HAsfc81_b1</title>
<path fill="none" stroke="black" d="M151.81,-387.95C178.07,-373.81 209.46,-356.9 235.77,-342.73"/>
<polygon fill="black" stroke="black" points="237.71,-345.66 244.85,-337.84 234.39,-339.5 237.71,-345.66"/>
</g>
<!-- HAsfc81_mu_b2 -->
<g id="node13" class="node">
<title>HAsfc81_mu_b2</title>
<ellipse fill="none" stroke="black" cx="812" cy="-418.48" rx="79.49" ry="41.09"/>
<text text-anchor="middle" x="812" y="-431.08" font-family="Times,serif" font-size="14.00">HAsfc81_mu_b2</text>
<text text-anchor="middle" x="812" y="-414.28" font-family="Times,serif" font-size="14.00">~</text>
<text text-anchor="middle" x="812" y="-397.48" font-family="Times,serif" font-size="14.00">Normal</text>
</g>
<!-- HAsfc81_mu_b2&#45;&gt;HAsfc81_b2 -->
<g id="edge7" class="edge">
<title>HAsfc81_mu_b2&#45;&gt;HAsfc81_b2</title>
<path fill="none" stroke="black" d="M818.19,-377.07C819.49,-368.58 820.85,-359.65 822.14,-351.24"/>
<polygon fill="black" stroke="black" points="825.61,-351.72 823.66,-341.3 818.69,-350.66 825.61,-351.72"/>
</g>
<!-- HAsfc81_b2&#45;&gt;HAsfc81_mu -->
<g id="edge14" class="edge">
<title>HAsfc81_b2&#45;&gt;HAsfc81_mu</title>
<path fill="none" stroke="black" d="M874.4,-293.19C906.82,-280.23 950.79,-261.57 988,-241.98 992.03,-239.86 996.14,-237.57 1000.24,-235.2"/>
<polygon fill="black" stroke="black" points="1002.34,-238.03 1009.16,-229.92 998.77,-232.01 1002.34,-238.03"/>
</g>
<!-- HAsfc81_sigma2 -->
<g id="node15" class="node">
<title>HAsfc81_sigma2</title>
<ellipse fill="none" stroke="black" cx="634" cy="-418.48" rx="80.68" ry="41.09"/>
<text text-anchor="middle" x="634" y="-431.08" font-family="Times,serif" font-size="14.00">HAsfc81_sigma2</text>
<text text-anchor="middle" x="634" y="-414.28" font-family="Times,serif" font-size="14.00">~</text>
<text text-anchor="middle" x="634" y="-397.48" font-family="Times,serif" font-size="14.00">HalfNormal</text>
</g>
<!-- HAsfc81_sigma2&#45;&gt;HAsfc81_b2 -->
<g id="edge9" class="edge">
<title>HAsfc81_sigma2&#45;&gt;HAsfc81_b2</title>
<path fill="none" stroke="black" d="M688.81,-387.95C715.07,-373.81 746.46,-356.9 772.77,-342.73"/>
<polygon fill="black" stroke="black" points="774.71,-345.66 781.85,-337.84 771.39,-339.5 774.71,-345.66"/>
</g>
<!-- HAsfc81_mu_b3 -->
<g id="node16" class="node">
<title>HAsfc81_mu_b3</title>
<ellipse fill="none" stroke="black" cx="1349" cy="-418.48" rx="79.49" ry="41.09"/>
<text text-anchor="middle" x="1349" y="-431.08" font-family="Times,serif" font-size="14.00">HAsfc81_mu_b3</text>
<text text-anchor="middle" x="1349" y="-414.28" font-family="Times,serif" font-size="14.00">~</text>
<text text-anchor="middle" x="1349" y="-397.48" font-family="Times,serif" font-size="14.00">Normal</text>
</g>
<!-- HAsfc81_mu_b3&#45;&gt;HAsfc81_b3 -->
<g id="edge10" class="edge">
<title>HAsfc81_mu_b3&#45;&gt;HAsfc81_b3</title>
<path fill="none" stroke="black" d="M1317.37,-380.34C1308.78,-370.25 1299.48,-359.34 1290.93,-349.29"/>
<polygon fill="black" stroke="black" points="1293.4,-346.8 1284.25,-341.45 1288.07,-351.34 1293.4,-346.8"/>
</g>
<!-- HAsfc81_sigma3 -->
<g id="node17" class="node">
<title>HAsfc81_sigma3</title>
<ellipse fill="none" stroke="black" cx="1171" cy="-418.48" rx="80.68" ry="41.09"/>
<text text-anchor="middle" x="1171" y="-431.08" font-family="Times,serif" font-size="14.00">HAsfc81_sigma3</text>
<text text-anchor="middle" x="1171" y="-414.28" font-family="Times,serif" font-size="14.00">~</text>
<text text-anchor="middle" x="1171" y="-397.48" font-family="Times,serif" font-size="14.00">HalfNormal</text>
</g>
<!-- HAsfc81_sigma3&#45;&gt;HAsfc81_b3 -->
<g id="edge12" class="edge">
<title>HAsfc81_sigma3&#45;&gt;HAsfc81_b3</title>
<path fill="none" stroke="black" d="M1202.63,-380.34C1211.22,-370.25 1220.52,-359.34 1229.07,-349.29"/>
<polygon fill="black" stroke="black" points="1231.93,-351.34 1235.75,-341.45 1226.6,-346.8 1231.93,-351.34"/>
</g>
<!-- HAsfc81_b3&#45;&gt;HAsfc81_mu -->
<g id="edge15" class="edge">
<title>HAsfc81_b3&#45;&gt;HAsfc81_mu</title>
<path fill="none" stroke="black" d="M1213.6,-290.39C1185.04,-277.32 1147.91,-259.6 1116,-241.98 1112.08,-239.82 1108.07,-237.51 1104.06,-235.15"/>
<polygon fill="black" stroke="black" points="1105.69,-232.05 1095.32,-229.9 1102.09,-238.05 1105.69,-232.05"/>
</g>
<!-- HAsfc81_mu&#45;&gt;HAsfc81_y -->
<g id="edge18" class="edge">
<title>HAsfc81_mu&#45;&gt;HAsfc81_y</title>
<path fill="none" stroke="black" d="M1052,-171.46C1052,-160.08 1052,-146.6 1052,-133.63"/>
<polygon fill="black" stroke="black" points="1055.5,-133.4 1052,-123.4 1048.5,-133.4 1055.5,-133.4"/>
</g>
</g>
</svg>
