<?xml version="1.0" encoding="UTF-8" standalone="no"?>
<!DOCTYPE svg PUBLIC "-//W3C//DTD SVG 1.1//EN"
 "http://www.w3.org/Graphics/SVG/1.1/DTD/svg11.dtd">
<!-- Generated by graphviz version 2.42.1 (20190717.1914)
 -->
<!-- Title: Smfc Pages: 1 -->
<svg width="1795pt" height="484pt"
 viewBox="0.00 0.00 1794.66 483.77" xmlns="http://www.w3.org/2000/svg" xmlns:xlink="http://www.w3.org/1999/xlink">
<g id="graph0" class="graph" transform="scale(1 1) rotate(0) translate(4 479.77)">
<title>Smfc</title>
<polygon fill="white" stroke="transparent" points="-4,4 -4,-479.77 1790.66,-479.77 1790.66,4 -4,4"/>
<g id="clust1" class="cluster">
<title>cluster2</title>
<path fill="none" stroke="black" d="M20,-249.98C20,-249.98 291,-249.98 291,-249.98 297,-249.98 303,-255.98 303,-261.98 303,-261.98 303,-455.77 303,-455.77 303,-461.77 297,-467.77 291,-467.77 291,-467.77 20,-467.77 20,-467.77 14,-467.77 8,-461.77 8,-455.77 8,-455.77 8,-261.98 8,-261.98 8,-255.98 14,-249.98 20,-249.98"/>
<text text-anchor="middle" x="291.5" y="-258.18" font-family="Times,serif" font-size="14.00">2</text>
</g>
<g id="clust2" class="cluster">
<title>cluster11</title>
<path fill="none" stroke="black" d="M467,-249.98C467,-249.98 738,-249.98 738,-249.98 744,-249.98 750,-255.98 750,-261.98 750,-261.98 750,-455.77 750,-455.77 750,-461.77 744,-467.77 738,-467.77 738,-467.77 467,-467.77 467,-467.77 461,-467.77 455,-461.77 455,-455.77 455,-455.77 455,-261.98 455,-261.98 455,-255.98 461,-249.98 467,-249.98"/>
<text text-anchor="middle" x="735" y="-258.18" font-family="Times,serif" font-size="14.00">11</text>
</g>
<g id="clust3" class="cluster">
<title>cluster140</title>
<path fill="none" stroke="black" d="M914,-249.98C914,-249.98 1185,-249.98 1185,-249.98 1191,-249.98 1197,-255.98 1197,-261.98 1197,-261.98 1197,-455.77 1197,-455.77 1197,-461.77 1191,-467.77 1185,-467.77 1185,-467.77 914,-467.77 914,-467.77 908,-467.77 902,-461.77 902,-455.77 902,-455.77 902,-261.98 902,-261.98 902,-255.98 908,-249.98 914,-249.98"/>
<text text-anchor="middle" x="1178.5" y="-258.18" font-family="Times,serif" font-size="14.00">140</text>
</g>
<g id="clust4" class="cluster">
<title>cluster280</title>
<path fill="none" stroke="black" d="M829,-8C829,-8 917,-8 917,-8 923,-8 929,-14 929,-20 929,-20 929,-225.89 929,-225.89 929,-231.89 923,-237.89 917,-237.89 917,-237.89 829,-237.89 829,-237.89 823,-237.89 817,-231.89 817,-225.89 817,-225.89 817,-20 817,-20 817,-14 823,-8 829,-8"/>
<text text-anchor="middle" x="910.5" y="-16.2" font-family="Times,serif" font-size="14.00">280</text>
</g>
<!-- Smfc_b0_dist -->
<g id="node1" class="node">
<title>Smfc_b0_dist</title>
<ellipse fill="none" stroke="black" cx="1424" cy="-418.48" rx="66.12" ry="41.09"/>
<text text-anchor="middle" x="1424" y="-431.08" font-family="Times,serif" font-size="14.00">Smfc_b0_dist</text>
<text text-anchor="middle" x="1424" y="-414.28" font-family="Times,serif" font-size="14.00">~</text>
<text text-anchor="middle" x="1424" y="-397.48" font-family="Times,serif" font-size="14.00">Normal</text>
</g>
<!-- Smfc_b0 -->
<g id="node6" class="node">
<title>Smfc_b0</title>
<polygon fill="none" stroke="black" points="1545.2,-341.38 1452.8,-341.38 1452.8,-282.58 1545.2,-282.58 1545.2,-341.38"/>
<text text-anchor="middle" x="1499" y="-324.58" font-family="Times,serif" font-size="14.00">Smfc_b0</text>
<text text-anchor="middle" x="1499" y="-307.78" font-family="Times,serif" font-size="14.00">~</text>
<text text-anchor="middle" x="1499" y="-290.98" font-family="Times,serif" font-size="14.00">Deterministic</text>
</g>
<!-- Smfc_b0_dist&#45;&gt;Smfc_b0 -->
<g id="edge1" class="edge">
<title>Smfc_b0_dist&#45;&gt;Smfc_b0</title>
<path fill="none" stroke="black" d="M1450.65,-380.34C1457.82,-370.35 1465.57,-359.55 1472.72,-349.59"/>
<polygon fill="black" stroke="black" points="1475.58,-351.62 1478.56,-341.45 1469.89,-347.54 1475.58,-351.62"/>
</g>
<!-- Smfc_b1_dist -->
<g id="node2" class="node">
<title>Smfc_b1_dist</title>
<ellipse fill="none" stroke="black" cx="379" cy="-418.48" rx="66.12" ry="41.09"/>
<text text-anchor="middle" x="379" y="-431.08" font-family="Times,serif" font-size="14.00">Smfc_b1_dist</text>
<text text-anchor="middle" x="379" y="-414.28" font-family="Times,serif" font-size="14.00">~</text>
<text text-anchor="middle" x="379" y="-397.48" font-family="Times,serif" font-size="14.00">Normal</text>
</g>
<!-- Smfc_b1 -->
<g id="node12" class="node">
<title>Smfc_b1</title>
<polygon fill="none" stroke="black" points="285.2,-341.38 192.8,-341.38 192.8,-282.58 285.2,-282.58 285.2,-341.38"/>
<text text-anchor="middle" x="239" y="-324.58" font-family="Times,serif" font-size="14.00">Smfc_b1</text>
<text text-anchor="middle" x="239" y="-307.78" font-family="Times,serif" font-size="14.00">~</text>
<text text-anchor="middle" x="239" y="-290.98" font-family="Times,serif" font-size="14.00">Deterministic</text>
</g>
<!-- Smfc_b1_dist&#45;&gt;Smfc_b1 -->
<g id="edge6" class="edge">
<title>Smfc_b1_dist&#45;&gt;Smfc_b1</title>
<path fill="none" stroke="black" d="M337,-386.12C320.66,-373.93 301.89,-359.92 285.18,-347.45"/>
<polygon fill="black" stroke="black" points="287.26,-344.64 277.16,-341.46 283.08,-350.25 287.26,-344.64"/>
</g>
<!-- Smfc_sigma0 -->
<g id="node3" class="node">
<title>Smfc_sigma0</title>
<ellipse fill="none" stroke="black" cx="1574" cy="-418.48" rx="65.51" ry="41.09"/>
<text text-anchor="middle" x="1574" y="-431.08" font-family="Times,serif" font-size="14.00">Smfc_sigma0</text>
<text text-anchor="middle" x="1574" y="-414.28" font-family="Times,serif" font-size="14.00">~</text>
<text text-anchor="middle" x="1574" y="-397.48" font-family="Times,serif" font-size="14.00">HalfNormal</text>
</g>
<!-- Smfc_sigma0&#45;&gt;Smfc_b0 -->
<g id="edge2" class="edge">
<title>Smfc_sigma0&#45;&gt;Smfc_b0</title>
<path fill="none" stroke="black" d="M1547.56,-380.63C1540.31,-370.53 1532.46,-359.59 1525.22,-349.51"/>
<polygon fill="black" stroke="black" points="1527.99,-347.36 1519.31,-341.28 1522.3,-351.45 1527.99,-347.36"/>
</g>
<!-- Smfc_mu_b0 -->
<g id="node4" class="node">
<title>Smfc_mu_b0</title>
<ellipse fill="none" stroke="black" cx="1722" cy="-418.48" rx="64.81" ry="41.09"/>
<text text-anchor="middle" x="1722" y="-431.08" font-family="Times,serif" font-size="14.00">Smfc_mu_b0</text>
<text text-anchor="middle" x="1722" y="-414.28" font-family="Times,serif" font-size="14.00">~</text>
<text text-anchor="middle" x="1722" y="-397.48" font-family="Times,serif" font-size="14.00">Normal</text>
</g>
<!-- Smfc_mu_b0&#45;&gt;Smfc_b0 -->
<g id="edge3" class="edge">
<title>Smfc_mu_b0&#45;&gt;Smfc_b0</title>
<path fill="none" stroke="black" d="M1674.45,-390.34C1666.05,-385.8 1657.32,-381.25 1649,-377.18 1618.24,-362.16 1583.1,-347.01 1554.57,-335.21"/>
<polygon fill="black" stroke="black" points="1555.74,-331.9 1545.16,-331.34 1553.07,-338.38 1555.74,-331.9"/>
</g>
<!-- Smfc_b2_dist -->
<g id="node5" class="node">
<title>Smfc_b2_dist</title>
<ellipse fill="none" stroke="black" cx="826" cy="-418.48" rx="66.12" ry="41.09"/>
<text text-anchor="middle" x="826" y="-431.08" font-family="Times,serif" font-size="14.00">Smfc_b2_dist</text>
<text text-anchor="middle" x="826" y="-414.28" font-family="Times,serif" font-size="14.00">~</text>
<text text-anchor="middle" x="826" y="-397.48" font-family="Times,serif" font-size="14.00">Normal</text>
</g>
<!-- Smfc_b2 -->
<g id="node15" class="node">
<title>Smfc_b2</title>
<polygon fill="none" stroke="black" points="732.2,-341.38 639.8,-341.38 639.8,-282.58 732.2,-282.58 732.2,-341.38"/>
<text text-anchor="middle" x="686" y="-324.58" font-family="Times,serif" font-size="14.00">Smfc_b2</text>
<text text-anchor="middle" x="686" y="-307.78" font-family="Times,serif" font-size="14.00">~</text>
<text text-anchor="middle" x="686" y="-290.98" font-family="Times,serif" font-size="14.00">Deterministic</text>
</g>
<!-- Smfc_b2_dist&#45;&gt;Smfc_b2 -->
<g id="edge9" class="edge">
<title>Smfc_b2_dist&#45;&gt;Smfc_b2</title>
<path fill="none" stroke="black" d="M784,-386.12C767.66,-373.93 748.89,-359.92 732.18,-347.45"/>
<polygon fill="black" stroke="black" points="734.26,-344.64 724.16,-341.46 730.08,-350.25 734.26,-344.64"/>
</g>
<!-- Smfc_mu -->
<g id="node19" class="node">
<title>Smfc_mu</title>
<polygon fill="none" stroke="black" points="919.2,-230.09 826.8,-230.09 826.8,-171.28 919.2,-171.28 919.2,-230.09"/>
<text text-anchor="middle" x="873" y="-213.29" font-family="Times,serif" font-size="14.00">Smfc_mu</text>
<text text-anchor="middle" x="873" y="-196.49" font-family="Times,serif" font-size="14.00">~</text>
<text text-anchor="middle" x="873" y="-179.69" font-family="Times,serif" font-size="14.00">Deterministic</text>
</g>
<!-- Smfc_b0&#45;&gt;Smfc_mu -->
<g id="edge15" class="edge">
<title>Smfc_b0&#45;&gt;Smfc_mu</title>
<path fill="none" stroke="black" d="M1452.69,-298.91C1394.43,-284.32 1291.09,-260.44 1201,-249.98 1170.86,-246.48 956.7,-251.84 928,-241.98 923.09,-240.29 918.24,-238 913.59,-235.36"/>
<polygon fill="black" stroke="black" points="915.24,-232.26 904.9,-229.92 911.52,-238.19 915.24,-232.26"/>
</g>
<!-- Smfc_nuY -->
<g id="node7" class="node">
<title>Smfc_nuY</title>
<ellipse fill="none" stroke="black" cx="996" cy="-200.69" rx="59.3" ry="41.09"/>
<text text-anchor="middle" x="996" y="-213.29" font-family="Times,serif" font-size="14.00">Smfc_nuY</text>
<text text-anchor="middle" x="996" y="-196.49" font-family="Times,serif" font-size="14.00">~</text>
<text text-anchor="middle" x="996" y="-179.69" font-family="Times,serif" font-size="14.00">Exponential</text>
</g>
<!-- Smfc_y -->
<g id="node20" class="node">
<title>Smfc_y</title>
<ellipse fill="lightgrey" stroke="black" cx="873" cy="-82.1" rx="47.72" ry="41.09"/>
<text text-anchor="middle" x="873" y="-94.7" font-family="Times,serif" font-size="14.00">Smfc_y</text>
<text text-anchor="middle" x="873" y="-77.9" font-family="Times,serif" font-size="14.00">~</text>
<text text-anchor="middle" x="873" y="-61.1" font-family="Times,serif" font-size="14.00">StudentT</text>
</g>
<!-- Smfc_nuY&#45;&gt;Smfc_y -->
<g id="edge17" class="edge">
<title>Smfc_nuY&#45;&gt;Smfc_y</title>
<path fill="none" stroke="black" d="M961.41,-166.9C946.14,-152.43 928.12,-135.35 912.35,-120.39"/>
<polygon fill="black" stroke="black" points="914.47,-117.58 904.8,-113.24 909.65,-122.66 914.47,-117.58"/>
</g>
<!-- Smfc_sigmaY -->
<g id="node8" class="node">
<title>Smfc_sigmaY</title>
<ellipse fill="none" stroke="black" cx="1141" cy="-200.69" rx="67.9" ry="41.09"/>
<text text-anchor="middle" x="1141" y="-213.29" font-family="Times,serif" font-size="14.00">Smfc_sigmaY</text>
<text text-anchor="middle" x="1141" y="-196.49" font-family="Times,serif" font-size="14.00">~</text>
<text text-anchor="middle" x="1141" y="-179.69" font-family="Times,serif" font-size="14.00">Gamma</text>
</g>
<!-- Smfc_sigmaY&#45;&gt;Smfc_y -->
<g id="edge18" class="edge">
<title>Smfc_sigmaY&#45;&gt;Smfc_y</title>
<path fill="none" stroke="black" d="M1090.84,-172.5C1081.97,-167.96 1072.77,-163.42 1064,-159.39 1018.24,-138.35 964.93,-117.33 926.27,-102.7"/>
<polygon fill="black" stroke="black" points="927.36,-99.37 916.77,-99.12 924.9,-105.92 927.36,-99.37"/>
</g>
<!-- Smfc_b3_dist -->
<g id="node9" class="node">
<title>Smfc_b3_dist</title>
<ellipse fill="none" stroke="black" cx="1273" cy="-418.48" rx="66.12" ry="41.09"/>
<text text-anchor="middle" x="1273" y="-431.08" font-family="Times,serif" font-size="14.00">Smfc_b3_dist</text>
<text text-anchor="middle" x="1273" y="-414.28" font-family="Times,serif" font-size="14.00">~</text>
<text text-anchor="middle" x="1273" y="-397.48" font-family="Times,serif" font-size="14.00">Normal</text>
</g>
<!-- Smfc_b3 -->
<g id="node16" class="node">
<title>Smfc_b3</title>
<polygon fill="none" stroke="black" points="1096.2,-341.38 1003.8,-341.38 1003.8,-282.58 1096.2,-282.58 1096.2,-341.38"/>
<text text-anchor="middle" x="1050" y="-324.58" font-family="Times,serif" font-size="14.00">Smfc_b3</text>
<text text-anchor="middle" x="1050" y="-307.78" font-family="Times,serif" font-size="14.00">~</text>
<text text-anchor="middle" x="1050" y="-290.98" font-family="Times,serif" font-size="14.00">Deterministic</text>
</g>
<!-- Smfc_b3_dist&#45;&gt;Smfc_b3 -->
<g id="edge11" class="edge">
<title>Smfc_b3_dist&#45;&gt;Smfc_b3</title>
<path fill="none" stroke="black" d="M1224.97,-389.65C1217.04,-385.33 1208.84,-381.03 1201,-377.18 1169.98,-361.96 1134.46,-346.75 1105.66,-334.96"/>
<polygon fill="black" stroke="black" points="1106.76,-331.63 1096.17,-331.1 1104.12,-338.11 1106.76,-331.63"/>
</g>
<!-- Smfc_mu_b1 -->
<g id="node10" class="node">
<title>Smfc_mu_b1</title>
<ellipse fill="none" stroke="black" cx="230" cy="-418.48" rx="64.81" ry="41.09"/>
<text text-anchor="middle" x="230" y="-431.08" font-family="Times,serif" font-size="14.00">Smfc_mu_b1</text>
<text text-anchor="middle" x="230" y="-414.28" font-family="Times,serif" font-size="14.00">~</text>
<text text-anchor="middle" x="230" y="-397.48" font-family="Times,serif" font-size="14.00">Normal</text>
</g>
<!-- Smfc_mu_b1&#45;&gt;Smfc_b1 -->
<g id="edge4" class="edge">
<title>Smfc_mu_b1&#45;&gt;Smfc_b1</title>
<path fill="none" stroke="black" d="M233.48,-377.07C234.2,-368.68 234.96,-359.84 235.68,-351.51"/>
<polygon fill="black" stroke="black" points="239.19,-351.56 236.56,-341.3 232.22,-350.96 239.19,-351.56"/>
</g>
<!-- Smfc_sigma1 -->
<g id="node11" class="node">
<title>Smfc_sigma1</title>
<ellipse fill="none" stroke="black" cx="82" cy="-418.48" rx="65.51" ry="41.09"/>
<text text-anchor="middle" x="82" y="-431.08" font-family="Times,serif" font-size="14.00">Smfc_sigma1</text>
<text text-anchor="middle" x="82" y="-414.28" font-family="Times,serif" font-size="14.00">~</text>
<text text-anchor="middle" x="82" y="-397.48" font-family="Times,serif" font-size="14.00">HalfNormal</text>
</g>
<!-- Smfc_sigma1&#45;&gt;Smfc_b1 -->
<g id="edge5" class="edge">
<title>Smfc_sigma1&#45;&gt;Smfc_b1</title>
<path fill="none" stroke="black" d="M126.57,-387.81C145.68,-375.09 168.11,-360.16 187.89,-347"/>
<polygon fill="black" stroke="black" points="190.1,-349.73 196.48,-341.28 186.22,-343.91 190.1,-349.73"/>
</g>
<!-- Smfc_b1&#45;&gt;Smfc_mu -->
<g id="edge14" class="edge">
<title>Smfc_b1&#45;&gt;Smfc_mu</title>
<path fill="none" stroke="black" d="M285.19,-295.28C327.77,-281.38 392.97,-261.57 451,-249.98 580.51,-224.12 735.34,-210.81 816.69,-205.14"/>
<polygon fill="black" stroke="black" points="816.98,-208.63 826.71,-204.46 816.5,-201.65 816.98,-208.63"/>
</g>
<!-- Smfc_sigma2 -->
<g id="node13" class="node">
<title>Smfc_sigma2</title>
<ellipse fill="none" stroke="black" cx="676" cy="-418.48" rx="65.51" ry="41.09"/>
<text text-anchor="middle" x="676" y="-431.08" font-family="Times,serif" font-size="14.00">Smfc_sigma2</text>
<text text-anchor="middle" x="676" y="-414.28" font-family="Times,serif" font-size="14.00">~</text>
<text text-anchor="middle" x="676" y="-397.48" font-family="Times,serif" font-size="14.00">HalfNormal</text>
</g>
<!-- Smfc_sigma2&#45;&gt;Smfc_b2 -->
<g id="edge7" class="edge">
<title>Smfc_sigma2&#45;&gt;Smfc_b2</title>
<path fill="none" stroke="black" d="M679.87,-377.07C680.67,-368.68 681.52,-359.84 682.31,-351.51"/>
<polygon fill="black" stroke="black" points="685.82,-351.59 683.29,-341.3 678.85,-350.92 685.82,-351.59"/>
</g>
<!-- Smfc_mu_b2 -->
<g id="node14" class="node">
<title>Smfc_mu_b2</title>
<ellipse fill="none" stroke="black" cx="528" cy="-418.48" rx="64.81" ry="41.09"/>
<text text-anchor="middle" x="528" y="-431.08" font-family="Times,serif" font-size="14.00">Smfc_mu_b2</text>
<text text-anchor="middle" x="528" y="-414.28" font-family="Times,serif" font-size="14.00">~</text>
<text text-anchor="middle" x="528" y="-397.48" font-family="Times,serif" font-size="14.00">Normal</text>
</g>
<!-- Smfc_mu_b2&#45;&gt;Smfc_b2 -->
<g id="edge8" class="edge">
<title>Smfc_mu_b2&#45;&gt;Smfc_b2</title>
<path fill="none" stroke="black" d="M572.43,-388.09C591.84,-375.25 614.71,-360.13 634.83,-346.82"/>
<polygon fill="black" stroke="black" points="636.85,-349.68 643.26,-341.25 632.99,-343.84 636.85,-349.68"/>
</g>
<!-- Smfc_b2&#45;&gt;Smfc_mu -->
<g id="edge16" class="edge">
<title>Smfc_b2&#45;&gt;Smfc_mu</title>
<path fill="none" stroke="black" d="M732.22,-283.96C758.18,-268.79 790.74,-249.76 818.01,-233.83"/>
<polygon fill="black" stroke="black" points="819.79,-236.84 826.66,-228.77 816.26,-230.79 819.79,-236.84"/>
</g>
<!-- Smfc_b3&#45;&gt;Smfc_mu -->
<g id="edge13" class="edge">
<title>Smfc_b3&#45;&gt;Smfc_mu</title>
<path fill="none" stroke="black" d="M1003.77,-286.51C980.63,-273.84 952.43,-257.76 928,-241.98 924.94,-240 921.81,-237.91 918.69,-235.78"/>
<polygon fill="black" stroke="black" points="920.66,-232.88 910.46,-230.03 916.65,-238.62 920.66,-232.88"/>
</g>
<!-- Smfc_mu_b3 -->
<g id="node17" class="node">
<title>Smfc_mu_b3</title>
<ellipse fill="none" stroke="black" cx="1124" cy="-418.48" rx="64.81" ry="41.09"/>
<text text-anchor="middle" x="1124" y="-431.08" font-family="Times,serif" font-size="14.00">Smfc_mu_b3</text>
<text text-anchor="middle" x="1124" y="-414.28" font-family="Times,serif" font-size="14.00">~</text>
<text text-anchor="middle" x="1124" y="-397.48" font-family="Times,serif" font-size="14.00">Normal</text>
</g>
<!-- Smfc_mu_b3&#45;&gt;Smfc_b3 -->
<g id="edge10" class="edge">
<title>Smfc_mu_b3&#45;&gt;Smfc_b3</title>
<path fill="none" stroke="black" d="M1097.91,-380.63C1090.76,-370.53 1083.01,-359.59 1075.87,-349.51"/>
<polygon fill="black" stroke="black" points="1078.68,-347.42 1070.04,-341.28 1072.97,-351.47 1078.68,-347.42"/>
</g>
<!-- Smfc_sigma3 -->
<g id="node18" class="node">
<title>Smfc_sigma3</title>
<ellipse fill="none" stroke="black" cx="976" cy="-418.48" rx="65.51" ry="41.09"/>
<text text-anchor="middle" x="976" y="-431.08" font-family="Times,serif" font-size="14.00">Smfc_sigma3</text>
<text text-anchor="middle" x="976" y="-414.28" font-family="Times,serif" font-size="14.00">~</text>
<text text-anchor="middle" x="976" y="-397.48" font-family="Times,serif" font-size="14.00">HalfNormal</text>
</g>
<!-- Smfc_sigma3&#45;&gt;Smfc_b3 -->
<g id="edge12" class="edge">
<title>Smfc_sigma3&#45;&gt;Smfc_b3</title>
<path fill="none" stroke="black" d="M1002.3,-380.34C1009.3,-370.45 1016.87,-359.77 1023.86,-349.89"/>
<polygon fill="black" stroke="black" points="1026.91,-351.64 1029.84,-341.45 1021.2,-347.59 1026.91,-351.64"/>
</g>
<!-- Smfc_mu&#45;&gt;Smfc_y -->
<g id="edge19" class="edge">
<title>Smfc_mu&#45;&gt;Smfc_y</title>
<path fill="none" stroke="black" d="M873,-171.46C873,-160.08 873,-146.6 873,-133.63"/>
<polygon fill="black" stroke="black" points="876.5,-133.4 873,-123.4 869.5,-133.4 876.5,-133.4"/>
</g>
</g>
</svg>
