<?xml version="1.0" encoding="UTF-8" standalone="no"?>
<!DOCTYPE svg PUBLIC "-//W3C//DTD SVG 1.1//EN"
 "http://www.w3.org/Graphics/SVG/1.1/DTD/svg11.dtd">
<!-- Generated by graphviz version 2.42.1 (20190717.1914)
 -->
<!-- Title: Smfc Pages: 1 -->
<svg width="1779pt" height="484pt"
 viewBox="0.00 0.00 1778.62 483.77" xmlns="http://www.w3.org/2000/svg" xmlns:xlink="http://www.w3.org/1999/xlink">
<g id="graph0" class="graph" transform="scale(1 1) rotate(0) translate(4 479.77)">
<title>Smfc</title>
<polygon fill="white" stroke="transparent" points="-4,4 -4,-479.77 1774.62,-479.77 1774.62,4 -4,4"/>
<g id="clust1" class="cluster">
<title>cluster2</title>
<path fill="none" stroke="black" d="M898.31,-249.98C898.31,-249.98 1169.31,-249.98 1169.31,-249.98 1175.31,-249.98 1181.31,-255.98 1181.31,-261.98 1181.31,-261.98 1181.31,-455.77 1181.31,-455.77 1181.31,-461.77 1175.31,-467.77 1169.31,-467.77 1169.31,-467.77 898.31,-467.77 898.31,-467.77 892.31,-467.77 886.31,-461.77 886.31,-455.77 886.31,-455.77 886.31,-261.98 886.31,-261.98 886.31,-255.98 892.31,-249.98 898.31,-249.98"/>
<text text-anchor="middle" x="1169.81" y="-258.18" font-family="Times,serif" font-size="14.00">2</text>
</g>
<g id="clust2" class="cluster">
<title>cluster11</title>
<path fill="none" stroke="black" d="M154.31,-249.98C154.31,-249.98 425.31,-249.98 425.31,-249.98 431.31,-249.98 437.31,-255.98 437.31,-261.98 437.31,-261.98 437.31,-455.77 437.31,-455.77 437.31,-461.77 431.31,-467.77 425.31,-467.77 425.31,-467.77 154.31,-467.77 154.31,-467.77 148.31,-467.77 142.31,-461.77 142.31,-455.77 142.31,-455.77 142.31,-261.98 142.31,-261.98 142.31,-255.98 148.31,-249.98 154.31,-249.98"/>
<text text-anchor="middle" x="422.31" y="-258.18" font-family="Times,serif" font-size="14.00">11</text>
</g>
<g id="clust3" class="cluster">
<title>cluster140</title>
<path fill="none" stroke="black" d="M1345.31,-249.98C1345.31,-249.98 1616.31,-249.98 1616.31,-249.98 1622.31,-249.98 1628.31,-255.98 1628.31,-261.98 1628.31,-261.98 1628.31,-455.77 1628.31,-455.77 1628.31,-461.77 1622.31,-467.77 1616.31,-467.77 1616.31,-467.77 1345.31,-467.77 1345.31,-467.77 1339.31,-467.77 1333.31,-461.77 1333.31,-455.77 1333.31,-455.77 1333.31,-261.98 1333.31,-261.98 1333.31,-255.98 1339.31,-249.98 1345.31,-249.98"/>
<text text-anchor="middle" x="1609.81" y="-258.18" font-family="Times,serif" font-size="14.00">140</text>
</g>
<g id="clust4" class="cluster">
<title>cluster280</title>
<path fill="none" stroke="black" d="M878.31,-8C878.31,-8 966.31,-8 966.31,-8 972.31,-8 978.31,-14 978.31,-20 978.31,-20 978.31,-225.89 978.31,-225.89 978.31,-231.89 972.31,-237.89 966.31,-237.89 966.31,-237.89 878.31,-237.89 878.31,-237.89 872.31,-237.89 866.31,-231.89 866.31,-225.89 866.31,-225.89 866.31,-20 866.31,-20 866.31,-14 872.31,-8 878.31,-8"/>
<text text-anchor="middle" x="959.81" y="-16.2" font-family="Times,serif" font-size="14.00">280</text>
</g>
<!-- Smfc_b2_dist -->
<g id="node1" class="node">
<title>Smfc_b2_dist</title>
<ellipse fill="none" stroke="black" cx="66.31" cy="-418.48" rx="66.12" ry="41.09"/>
<text text-anchor="middle" x="66.31" y="-431.08" font-family="Times,serif" font-size="14.00">Smfc_b2_dist</text>
<text text-anchor="middle" x="66.31" y="-414.28" font-family="Times,serif" font-size="14.00">~</text>
<text text-anchor="middle" x="66.31" y="-397.48" font-family="Times,serif" font-size="14.00">Normal</text>
</g>
<!-- Smfc_b2 -->
<g id="node14" class="node">
<title>Smfc_b2</title>
<polygon fill="none" stroke="black" points="336.51,-341.38 244.11,-341.38 244.11,-282.58 336.51,-282.58 336.51,-341.38"/>
<text text-anchor="middle" x="290.31" y="-324.58" font-family="Times,serif" font-size="14.00">Smfc_b2</text>
<text text-anchor="middle" x="290.31" y="-307.78" font-family="Times,serif" font-size="14.00">~</text>
<text text-anchor="middle" x="290.31" y="-290.98" font-family="Times,serif" font-size="14.00">Deterministic</text>
</g>
<!-- Smfc_b2_dist&#45;&gt;Smfc_b2 -->
<g id="edge8" class="edge">
<title>Smfc_b2_dist&#45;&gt;Smfc_b2</title>
<path fill="none" stroke="black" d="M114.33,-389.64C122.26,-385.32 130.46,-381.02 138.31,-377.18 169.63,-361.86 205.54,-346.59 234.59,-334.79"/>
<polygon fill="black" stroke="black" points="236.19,-337.91 244.16,-330.93 233.57,-331.42 236.19,-337.91"/>
</g>
<!-- Smfc_b0_dist -->
<g id="node2" class="node">
<title>Smfc_b0_dist</title>
<ellipse fill="none" stroke="black" cx="513.31" cy="-418.48" rx="66.12" ry="41.09"/>
<text text-anchor="middle" x="513.31" y="-431.08" font-family="Times,serif" font-size="14.00">Smfc_b0_dist</text>
<text text-anchor="middle" x="513.31" y="-414.28" font-family="Times,serif" font-size="14.00">~</text>
<text text-anchor="middle" x="513.31" y="-397.48" font-family="Times,serif" font-size="14.00">Normal</text>
</g>
<!-- Smfc_b0 -->
<g id="node4" class="node">
<title>Smfc_b0</title>
<polygon fill="none" stroke="black" points="782.51,-341.38 690.11,-341.38 690.11,-282.58 782.51,-282.58 782.51,-341.38"/>
<text text-anchor="middle" x="736.31" y="-324.58" font-family="Times,serif" font-size="14.00">Smfc_b0</text>
<text text-anchor="middle" x="736.31" y="-307.78" font-family="Times,serif" font-size="14.00">~</text>
<text text-anchor="middle" x="736.31" y="-290.98" font-family="Times,serif" font-size="14.00">Deterministic</text>
</g>
<!-- Smfc_b0_dist&#45;&gt;Smfc_b0 -->
<g id="edge3" class="edge">
<title>Smfc_b0_dist&#45;&gt;Smfc_b0</title>
<path fill="none" stroke="black" d="M562.22,-390.44C570.85,-385.89 579.79,-381.3 588.31,-377.18 618.54,-362.53 652.93,-347.52 680.95,-335.7"/>
<polygon fill="black" stroke="black" points="682.33,-338.91 690.19,-331.81 679.61,-332.46 682.33,-338.91"/>
</g>
<!-- Smfc_sigmaY -->
<g id="node3" class="node">
<title>Smfc_sigmaY</title>
<ellipse fill="none" stroke="black" cx="1054.31" cy="-200.69" rx="67.9" ry="41.09"/>
<text text-anchor="middle" x="1054.31" y="-213.29" font-family="Times,serif" font-size="14.00">Smfc_sigmaY</text>
<text text-anchor="middle" x="1054.31" y="-196.49" font-family="Times,serif" font-size="14.00">~</text>
<text text-anchor="middle" x="1054.31" y="-179.69" font-family="Times,serif" font-size="14.00">Gamma</text>
</g>
<!-- Smfc_y -->
<g id="node20" class="node">
<title>Smfc_y</title>
<ellipse fill="lightgrey" stroke="black" cx="922.31" cy="-82.1" rx="47.72" ry="41.09"/>
<text text-anchor="middle" x="922.31" y="-94.7" font-family="Times,serif" font-size="14.00">Smfc_y</text>
<text text-anchor="middle" x="922.31" y="-77.9" font-family="Times,serif" font-size="14.00">~</text>
<text text-anchor="middle" x="922.31" y="-61.1" font-family="Times,serif" font-size="14.00">StudentT</text>
</g>
<!-- Smfc_sigmaY&#45;&gt;Smfc_y -->
<g id="edge19" class="edge">
<title>Smfc_sigmaY&#45;&gt;Smfc_y</title>
<path fill="none" stroke="black" d="M1016.48,-166.28C999.7,-151.45 979.93,-133.99 962.85,-118.9"/>
<polygon fill="black" stroke="black" points="965.02,-116.15 955.21,-112.15 960.38,-121.4 965.02,-116.15"/>
</g>
<!-- Smfc_mu -->
<g id="node19" class="node">
<title>Smfc_mu</title>
<polygon fill="none" stroke="black" points="968.51,-230.09 876.11,-230.09 876.11,-171.28 968.51,-171.28 968.51,-230.09"/>
<text text-anchor="middle" x="922.31" y="-213.29" font-family="Times,serif" font-size="14.00">Smfc_mu</text>
<text text-anchor="middle" x="922.31" y="-196.49" font-family="Times,serif" font-size="14.00">~</text>
<text text-anchor="middle" x="922.31" y="-179.69" font-family="Times,serif" font-size="14.00">Deterministic</text>
</g>
<!-- Smfc_b0&#45;&gt;Smfc_mu -->
<g id="edge13" class="edge">
<title>Smfc_b0&#45;&gt;Smfc_mu</title>
<path fill="none" stroke="black" d="M782.76,-283.68C808.38,-268.63 840.35,-249.84 867.22,-234.05"/>
<polygon fill="black" stroke="black" points="869.27,-236.91 876.12,-228.82 865.73,-230.87 869.27,-236.91"/>
</g>
<!-- Smfc_mu_b0 -->
<g id="node5" class="node">
<title>Smfc_mu_b0</title>
<ellipse fill="none" stroke="black" cx="662.31" cy="-418.48" rx="64.81" ry="41.09"/>
<text text-anchor="middle" x="662.31" y="-431.08" font-family="Times,serif" font-size="14.00">Smfc_mu_b0</text>
<text text-anchor="middle" x="662.31" y="-414.28" font-family="Times,serif" font-size="14.00">~</text>
<text text-anchor="middle" x="662.31" y="-397.48" font-family="Times,serif" font-size="14.00">Normal</text>
</g>
<!-- Smfc_mu_b0&#45;&gt;Smfc_b0 -->
<g id="edge2" class="edge">
<title>Smfc_mu_b0&#45;&gt;Smfc_b0</title>
<path fill="none" stroke="black" d="M688.4,-380.63C695.55,-370.53 703.3,-359.59 710.44,-349.51"/>
<polygon fill="black" stroke="black" points="713.34,-351.47 716.27,-341.28 707.63,-347.42 713.34,-351.47"/>
</g>
<!-- Smfc_nuY -->
<g id="node6" class="node">
<title>Smfc_nuY</title>
<ellipse fill="none" stroke="black" cx="1199.31" cy="-200.69" rx="59.3" ry="41.09"/>
<text text-anchor="middle" x="1199.31" y="-213.29" font-family="Times,serif" font-size="14.00">Smfc_nuY</text>
<text text-anchor="middle" x="1199.31" y="-196.49" font-family="Times,serif" font-size="14.00">~</text>
<text text-anchor="middle" x="1199.31" y="-179.69" font-family="Times,serif" font-size="14.00">Exponential</text>
</g>
<!-- Smfc_nuY&#45;&gt;Smfc_y -->
<g id="edge17" class="edge">
<title>Smfc_nuY&#45;&gt;Smfc_y</title>
<path fill="none" stroke="black" d="M1156.06,-172.45C1147.98,-167.82 1139.49,-163.27 1131.31,-159.39 1080.3,-135.22 1019.43,-113.79 976.58,-99.84"/>
<polygon fill="black" stroke="black" points="977.5,-96.46 966.9,-96.72 975.35,-103.12 977.5,-96.46"/>
</g>
<!-- Smfc_sigma0 -->
<g id="node7" class="node">
<title>Smfc_sigma0</title>
<ellipse fill="none" stroke="black" cx="810.31" cy="-418.48" rx="65.51" ry="41.09"/>
<text text-anchor="middle" x="810.31" y="-431.08" font-family="Times,serif" font-size="14.00">Smfc_sigma0</text>
<text text-anchor="middle" x="810.31" y="-414.28" font-family="Times,serif" font-size="14.00">~</text>
<text text-anchor="middle" x="810.31" y="-397.48" font-family="Times,serif" font-size="14.00">HalfNormal</text>
</g>
<!-- Smfc_sigma0&#45;&gt;Smfc_b0 -->
<g id="edge1" class="edge">
<title>Smfc_sigma0&#45;&gt;Smfc_b0</title>
<path fill="none" stroke="black" d="M784.01,-380.34C777.01,-370.45 769.44,-359.77 762.45,-349.89"/>
<polygon fill="black" stroke="black" points="765.11,-347.59 756.47,-341.45 759.4,-351.64 765.11,-347.59"/>
</g>
<!-- Smfc_b1_dist -->
<g id="node8" class="node">
<title>Smfc_b1_dist</title>
<ellipse fill="none" stroke="black" cx="1257.31" cy="-418.48" rx="66.12" ry="41.09"/>
<text text-anchor="middle" x="1257.31" y="-431.08" font-family="Times,serif" font-size="14.00">Smfc_b1_dist</text>
<text text-anchor="middle" x="1257.31" y="-414.28" font-family="Times,serif" font-size="14.00">~</text>
<text text-anchor="middle" x="1257.31" y="-397.48" font-family="Times,serif" font-size="14.00">Normal</text>
</g>
<!-- Smfc_b1 -->
<g id="node11" class="node">
<title>Smfc_b1</title>
<polygon fill="none" stroke="black" points="1080.51,-341.38 988.11,-341.38 988.11,-282.58 1080.51,-282.58 1080.51,-341.38"/>
<text text-anchor="middle" x="1034.31" y="-324.58" font-family="Times,serif" font-size="14.00">Smfc_b1</text>
<text text-anchor="middle" x="1034.31" y="-307.78" font-family="Times,serif" font-size="14.00">~</text>
<text text-anchor="middle" x="1034.31" y="-290.98" font-family="Times,serif" font-size="14.00">Deterministic</text>
</g>
<!-- Smfc_b1_dist&#45;&gt;Smfc_b1 -->
<g id="edge6" class="edge">
<title>Smfc_b1_dist&#45;&gt;Smfc_b1</title>
<path fill="none" stroke="black" d="M1209.28,-389.65C1201.35,-385.33 1193.15,-381.03 1185.31,-377.18 1154.29,-361.96 1118.77,-346.75 1089.97,-334.96"/>
<polygon fill="black" stroke="black" points="1091.06,-331.63 1080.48,-331.1 1088.42,-338.11 1091.06,-331.63"/>
</g>
<!-- Smfc_b3_dist -->
<g id="node9" class="node">
<title>Smfc_b3_dist</title>
<ellipse fill="none" stroke="black" cx="1704.31" cy="-418.48" rx="66.12" ry="41.09"/>
<text text-anchor="middle" x="1704.31" y="-431.08" font-family="Times,serif" font-size="14.00">Smfc_b3_dist</text>
<text text-anchor="middle" x="1704.31" y="-414.28" font-family="Times,serif" font-size="14.00">~</text>
<text text-anchor="middle" x="1704.31" y="-397.48" font-family="Times,serif" font-size="14.00">Normal</text>
</g>
<!-- Smfc_b3 -->
<g id="node16" class="node">
<title>Smfc_b3</title>
<polygon fill="none" stroke="black" points="1527.51,-341.38 1435.11,-341.38 1435.11,-282.58 1527.51,-282.58 1527.51,-341.38"/>
<text text-anchor="middle" x="1481.31" y="-324.58" font-family="Times,serif" font-size="14.00">Smfc_b3</text>
<text text-anchor="middle" x="1481.31" y="-307.78" font-family="Times,serif" font-size="14.00">~</text>
<text text-anchor="middle" x="1481.31" y="-290.98" font-family="Times,serif" font-size="14.00">Deterministic</text>
</g>
<!-- Smfc_b3_dist&#45;&gt;Smfc_b3 -->
<g id="edge10" class="edge">
<title>Smfc_b3_dist&#45;&gt;Smfc_b3</title>
<path fill="none" stroke="black" d="M1656.28,-389.65C1648.35,-385.33 1640.15,-381.03 1632.31,-377.18 1601.29,-361.96 1565.77,-346.75 1536.97,-334.96"/>
<polygon fill="black" stroke="black" points="1538.06,-331.63 1527.48,-331.1 1535.42,-338.11 1538.06,-331.63"/>
</g>
<!-- Smfc_mu_b1 -->
<g id="node10" class="node">
<title>Smfc_mu_b1</title>
<ellipse fill="none" stroke="black" cx="1108.31" cy="-418.48" rx="64.81" ry="41.09"/>
<text text-anchor="middle" x="1108.31" y="-431.08" font-family="Times,serif" font-size="14.00">Smfc_mu_b1</text>
<text text-anchor="middle" x="1108.31" y="-414.28" font-family="Times,serif" font-size="14.00">~</text>
<text text-anchor="middle" x="1108.31" y="-397.48" font-family="Times,serif" font-size="14.00">Normal</text>
</g>
<!-- Smfc_mu_b1&#45;&gt;Smfc_b1 -->
<g id="edge4" class="edge">
<title>Smfc_mu_b1&#45;&gt;Smfc_b1</title>
<path fill="none" stroke="black" d="M1082.22,-380.63C1075.07,-370.53 1067.32,-359.59 1060.18,-349.51"/>
<polygon fill="black" stroke="black" points="1062.99,-347.42 1054.35,-341.28 1057.27,-351.47 1062.99,-347.42"/>
</g>
<!-- Smfc_b1&#45;&gt;Smfc_mu -->
<g id="edge14" class="edge">
<title>Smfc_b1&#45;&gt;Smfc_mu</title>
<path fill="none" stroke="black" d="M1005.17,-282.55C990.91,-268.63 973.61,-251.75 958.51,-237.01"/>
<polygon fill="black" stroke="black" points="960.9,-234.45 951.3,-229.97 956.01,-239.46 960.9,-234.45"/>
</g>
<!-- Smfc_sigma1 -->
<g id="node12" class="node">
<title>Smfc_sigma1</title>
<ellipse fill="none" stroke="black" cx="960.31" cy="-418.48" rx="65.51" ry="41.09"/>
<text text-anchor="middle" x="960.31" y="-431.08" font-family="Times,serif" font-size="14.00">Smfc_sigma1</text>
<text text-anchor="middle" x="960.31" y="-414.28" font-family="Times,serif" font-size="14.00">~</text>
<text text-anchor="middle" x="960.31" y="-397.48" font-family="Times,serif" font-size="14.00">HalfNormal</text>
</g>
<!-- Smfc_sigma1&#45;&gt;Smfc_b1 -->
<g id="edge5" class="edge">
<title>Smfc_sigma1&#45;&gt;Smfc_b1</title>
<path fill="none" stroke="black" d="M986.61,-380.34C993.61,-370.45 1001.18,-359.77 1008.17,-349.89"/>
<polygon fill="black" stroke="black" points="1011.22,-351.64 1014.14,-341.45 1005.51,-347.59 1011.22,-351.64"/>
</g>
<!-- Smfc_mu_b2 -->
<g id="node13" class="node">
<title>Smfc_mu_b2</title>
<ellipse fill="none" stroke="black" cx="364.31" cy="-418.48" rx="64.81" ry="41.09"/>
<text text-anchor="middle" x="364.31" y="-431.08" font-family="Times,serif" font-size="14.00">Smfc_mu_b2</text>
<text text-anchor="middle" x="364.31" y="-414.28" font-family="Times,serif" font-size="14.00">~</text>
<text text-anchor="middle" x="364.31" y="-397.48" font-family="Times,serif" font-size="14.00">Normal</text>
</g>
<!-- Smfc_mu_b2&#45;&gt;Smfc_b2 -->
<g id="edge7" class="edge">
<title>Smfc_mu_b2&#45;&gt;Smfc_b2</title>
<path fill="none" stroke="black" d="M338.22,-380.63C331.07,-370.53 323.32,-359.59 316.18,-349.51"/>
<polygon fill="black" stroke="black" points="318.99,-347.42 310.35,-341.28 313.27,-351.47 318.99,-347.42"/>
</g>
<!-- Smfc_b2&#45;&gt;Smfc_mu -->
<g id="edge16" class="edge">
<title>Smfc_b2&#45;&gt;Smfc_mu</title>
<path fill="none" stroke="black" d="M336.52,-302.99C450.14,-283.34 742.79,-232.73 866.15,-211.4"/>
<polygon fill="black" stroke="black" points="866.89,-214.82 876.14,-209.67 865.69,-207.92 866.89,-214.82"/>
</g>
<!-- Smfc_sigma2 -->
<g id="node15" class="node">
<title>Smfc_sigma2</title>
<ellipse fill="none" stroke="black" cx="216.31" cy="-418.48" rx="65.51" ry="41.09"/>
<text text-anchor="middle" x="216.31" y="-431.08" font-family="Times,serif" font-size="14.00">Smfc_sigma2</text>
<text text-anchor="middle" x="216.31" y="-414.28" font-family="Times,serif" font-size="14.00">~</text>
<text text-anchor="middle" x="216.31" y="-397.48" font-family="Times,serif" font-size="14.00">HalfNormal</text>
</g>
<!-- Smfc_sigma2&#45;&gt;Smfc_b2 -->
<g id="edge9" class="edge">
<title>Smfc_sigma2&#45;&gt;Smfc_b2</title>
<path fill="none" stroke="black" d="M242.61,-380.34C249.61,-370.45 257.18,-359.77 264.17,-349.89"/>
<polygon fill="black" stroke="black" points="267.22,-351.64 270.14,-341.45 261.51,-347.59 267.22,-351.64"/>
</g>
<!-- Smfc_b3&#45;&gt;Smfc_mu -->
<g id="edge15" class="edge">
<title>Smfc_b3&#45;&gt;Smfc_mu</title>
<path fill="none" stroke="black" d="M1435.05,-298.97C1377.12,-284.52 1274.64,-260.83 1185.31,-249.98 1139.39,-244.4 1020.99,-257.2 977.31,-241.98 972.47,-240.29 967.7,-238.03 963.11,-235.42"/>
<polygon fill="black" stroke="black" points="964.87,-232.4 954.53,-230.07 961.16,-238.33 964.87,-232.4"/>
</g>
<!-- Smfc_mu_b3 -->
<g id="node17" class="node">
<title>Smfc_mu_b3</title>
<ellipse fill="none" stroke="black" cx="1555.31" cy="-418.48" rx="64.81" ry="41.09"/>
<text text-anchor="middle" x="1555.31" y="-431.08" font-family="Times,serif" font-size="14.00">Smfc_mu_b3</text>
<text text-anchor="middle" x="1555.31" y="-414.28" font-family="Times,serif" font-size="14.00">~</text>
<text text-anchor="middle" x="1555.31" y="-397.48" font-family="Times,serif" font-size="14.00">Normal</text>
</g>
<!-- Smfc_mu_b3&#45;&gt;Smfc_b3 -->
<g id="edge11" class="edge">
<title>Smfc_mu_b3&#45;&gt;Smfc_b3</title>
<path fill="none" stroke="black" d="M1529.22,-380.63C1522.07,-370.53 1514.32,-359.59 1507.18,-349.51"/>
<polygon fill="black" stroke="black" points="1509.99,-347.42 1501.35,-341.28 1504.27,-351.47 1509.99,-347.42"/>
</g>
<!-- Smfc_sigma3 -->
<g id="node18" class="node">
<title>Smfc_sigma3</title>
<ellipse fill="none" stroke="black" cx="1407.31" cy="-418.48" rx="65.51" ry="41.09"/>
<text text-anchor="middle" x="1407.31" y="-431.08" font-family="Times,serif" font-size="14.00">Smfc_sigma3</text>
<text text-anchor="middle" x="1407.31" y="-414.28" font-family="Times,serif" font-size="14.00">~</text>
<text text-anchor="middle" x="1407.31" y="-397.48" font-family="Times,serif" font-size="14.00">HalfNormal</text>
</g>
<!-- Smfc_sigma3&#45;&gt;Smfc_b3 -->
<g id="edge12" class="edge">
<title>Smfc_sigma3&#45;&gt;Smfc_b3</title>
<path fill="none" stroke="black" d="M1433.61,-380.34C1440.61,-370.45 1448.18,-359.77 1455.17,-349.89"/>
<polygon fill="black" stroke="black" points="1458.22,-351.64 1461.14,-341.45 1452.51,-347.59 1458.22,-351.64"/>
</g>
<!-- Smfc_mu&#45;&gt;Smfc_y -->
<g id="edge18" class="edge">
<title>Smfc_mu&#45;&gt;Smfc_y</title>
<path fill="none" stroke="black" d="M922.31,-171.46C922.31,-160.08 922.31,-146.6 922.31,-133.63"/>
<polygon fill="black" stroke="black" points="925.81,-133.4 922.31,-123.4 918.81,-133.4 925.81,-133.4"/>
</g>
</g>
</svg>
