<?xml version="1.0" encoding="UTF-8" standalone="no"?>
<!DOCTYPE svg PUBLIC "-//W3C//DTD SVG 1.1//EN"
 "http://www.w3.org/Graphics/SVG/1.1/DTD/svg11.dtd">
<!-- Generated by graphviz version 2.42.1 (20190717.1914)
 -->
<!-- Title: Asfc Pages: 1 -->
<svg width="1745pt" height="484pt"
 viewBox="0.00 0.00 1744.55 483.77" xmlns="http://www.w3.org/2000/svg" xmlns:xlink="http://www.w3.org/1999/xlink">
<g id="graph0" class="graph" transform="scale(1 1) rotate(0) translate(4 479.77)">
<title>Asfc</title>
<polygon fill="white" stroke="transparent" points="-4,4 -4,-479.77 1740.55,-479.77 1740.55,4 -4,4"/>
<g id="clust1" class="cluster">
<title>cluster2</title>
<path fill="none" stroke="black" d="M20,-249.98C20,-249.98 282,-249.98 282,-249.98 288,-249.98 294,-255.98 294,-261.98 294,-261.98 294,-455.77 294,-455.77 294,-461.77 288,-467.77 282,-467.77 282,-467.77 20,-467.77 20,-467.77 14,-467.77 8,-461.77 8,-455.77 8,-455.77 8,-261.98 8,-261.98 8,-255.98 14,-249.98 20,-249.98"/>
<text text-anchor="middle" x="282.5" y="-258.18" font-family="Times,serif" font-size="14.00">2</text>
</g>
<g id="clust2" class="cluster">
<title>cluster11</title>
<path fill="none" stroke="black" d="M454,-249.98C454,-249.98 716,-249.98 716,-249.98 722,-249.98 728,-255.98 728,-261.98 728,-261.98 728,-455.77 728,-455.77 728,-461.77 722,-467.77 716,-467.77 716,-467.77 454,-467.77 454,-467.77 448,-467.77 442,-461.77 442,-455.77 442,-455.77 442,-261.98 442,-261.98 442,-255.98 448,-249.98 454,-249.98"/>
<text text-anchor="middle" x="713" y="-258.18" font-family="Times,serif" font-size="14.00">11</text>
</g>
<g id="clust3" class="cluster">
<title>cluster140</title>
<path fill="none" stroke="black" d="M889,-249.98C889,-249.98 1151,-249.98 1151,-249.98 1157,-249.98 1163,-255.98 1163,-261.98 1163,-261.98 1163,-455.77 1163,-455.77 1163,-461.77 1157,-467.77 1151,-467.77 1151,-467.77 889,-467.77 889,-467.77 883,-467.77 877,-461.77 877,-455.77 877,-455.77 877,-261.98 877,-261.98 877,-255.98 883,-249.98 889,-249.98"/>
<text text-anchor="middle" x="1144.5" y="-258.18" font-family="Times,serif" font-size="14.00">140</text>
</g>
<g id="clust4" class="cluster">
<title>cluster280</title>
<path fill="none" stroke="black" d="M803,-8C803,-8 891,-8 891,-8 897,-8 903,-14 903,-20 903,-20 903,-225.89 903,-225.89 903,-231.89 897,-237.89 891,-237.89 891,-237.89 803,-237.89 803,-237.89 797,-237.89 791,-231.89 791,-225.89 791,-225.89 791,-20 791,-20 791,-14 797,-8 803,-8"/>
<text text-anchor="middle" x="884.5" y="-16.2" font-family="Times,serif" font-size="14.00">280</text>
</g>
<!-- Asfc_b0_dist -->
<g id="node1" class="node">
<title>Asfc_b0_dist</title>
<ellipse fill="none" stroke="black" cx="1384" cy="-418.48" rx="64.2" ry="41.09"/>
<text text-anchor="middle" x="1384" y="-431.08" font-family="Times,serif" font-size="14.00">Asfc_b0_dist</text>
<text text-anchor="middle" x="1384" y="-414.28" font-family="Times,serif" font-size="14.00">~</text>
<text text-anchor="middle" x="1384" y="-397.48" font-family="Times,serif" font-size="14.00">Normal</text>
</g>
<!-- Asfc_b0 -->
<g id="node4" class="node">
<title>Asfc_b0</title>
<polygon fill="none" stroke="black" points="1502.2,-341.38 1409.8,-341.38 1409.8,-282.58 1502.2,-282.58 1502.2,-341.38"/>
<text text-anchor="middle" x="1456" y="-324.58" font-family="Times,serif" font-size="14.00">Asfc_b0</text>
<text text-anchor="middle" x="1456" y="-307.78" font-family="Times,serif" font-size="14.00">~</text>
<text text-anchor="middle" x="1456" y="-290.98" font-family="Times,serif" font-size="14.00">Deterministic</text>
</g>
<!-- Asfc_b0_dist&#45;&gt;Asfc_b0 -->
<g id="edge1" class="edge">
<title>Asfc_b0_dist&#45;&gt;Asfc_b0</title>
<path fill="none" stroke="black" d="M1409.59,-380.34C1416.4,-370.45 1423.76,-359.77 1430.57,-349.89"/>
<polygon fill="black" stroke="black" points="1433.59,-351.67 1436.38,-341.45 1427.82,-347.7 1433.59,-351.67"/>
</g>
<!-- Asfc_b2_dist -->
<g id="node2" class="node">
<title>Asfc_b2_dist</title>
<ellipse fill="none" stroke="black" cx="803" cy="-418.48" rx="64.2" ry="41.09"/>
<text text-anchor="middle" x="803" y="-431.08" font-family="Times,serif" font-size="14.00">Asfc_b2_dist</text>
<text text-anchor="middle" x="803" y="-414.28" font-family="Times,serif" font-size="14.00">~</text>
<text text-anchor="middle" x="803" y="-397.48" font-family="Times,serif" font-size="14.00">Normal</text>
</g>
<!-- Asfc_b2 -->
<g id="node13" class="node">
<title>Asfc_b2</title>
<polygon fill="none" stroke="black" points="712.2,-341.38 619.8,-341.38 619.8,-282.58 712.2,-282.58 712.2,-341.38"/>
<text text-anchor="middle" x="666" y="-324.58" font-family="Times,serif" font-size="14.00">Asfc_b2</text>
<text text-anchor="middle" x="666" y="-307.78" font-family="Times,serif" font-size="14.00">~</text>
<text text-anchor="middle" x="666" y="-290.98" font-family="Times,serif" font-size="14.00">Deterministic</text>
</g>
<!-- Asfc_b2_dist&#45;&gt;Asfc_b2 -->
<g id="edge8" class="edge">
<title>Asfc_b2_dist&#45;&gt;Asfc_b2</title>
<path fill="none" stroke="black" d="M762.27,-386.41C746.28,-374.21 727.87,-360.17 711.45,-347.65"/>
<polygon fill="black" stroke="black" points="713.15,-344.54 703.07,-341.26 708.9,-350.1 713.15,-344.54"/>
</g>
<!-- Asfc_mu_b0 -->
<g id="node3" class="node">
<title>Asfc_mu_b0</title>
<ellipse fill="none" stroke="black" cx="1529" cy="-418.48" rx="62.4" ry="41.09"/>
<text text-anchor="middle" x="1529" y="-431.08" font-family="Times,serif" font-size="14.00">Asfc_mu_b0</text>
<text text-anchor="middle" x="1529" y="-414.28" font-family="Times,serif" font-size="14.00">~</text>
<text text-anchor="middle" x="1529" y="-397.48" font-family="Times,serif" font-size="14.00">Normal</text>
</g>
<!-- Asfc_mu_b0&#45;&gt;Asfc_b0 -->
<g id="edge3" class="edge">
<title>Asfc_mu_b0&#45;&gt;Asfc_b0</title>
<path fill="none" stroke="black" d="M1503.26,-380.63C1496.21,-370.53 1488.56,-359.59 1481.52,-349.51"/>
<polygon fill="black" stroke="black" points="1484.37,-347.47 1475.77,-341.28 1478.63,-351.48 1484.37,-347.47"/>
</g>
<!-- Asfc_mu -->
<g id="node20" class="node">
<title>Asfc_mu</title>
<polygon fill="none" stroke="black" points="893.2,-230.09 800.8,-230.09 800.8,-171.28 893.2,-171.28 893.2,-230.09"/>
<text text-anchor="middle" x="847" y="-213.29" font-family="Times,serif" font-size="14.00">Asfc_mu</text>
<text text-anchor="middle" x="847" y="-196.49" font-family="Times,serif" font-size="14.00">~</text>
<text text-anchor="middle" x="847" y="-179.69" font-family="Times,serif" font-size="14.00">Deterministic</text>
</g>
<!-- Asfc_b0&#45;&gt;Asfc_mu -->
<g id="edge14" class="edge">
<title>Asfc_b0&#45;&gt;Asfc_mu</title>
<path fill="none" stroke="black" d="M1409.87,-298.59C1353.18,-283.98 1253.81,-260.37 1167,-249.98 1137.75,-246.48 929.86,-251.56 902,-241.98 897.09,-240.29 892.25,-238 887.59,-235.36"/>
<polygon fill="black" stroke="black" points="889.24,-232.26 878.9,-229.92 885.52,-238.19 889.24,-232.26"/>
</g>
<!-- Asfc_nuY -->
<g id="node5" class="node">
<title>Asfc_nuY</title>
<ellipse fill="none" stroke="black" cx="970" cy="-200.69" rx="59.3" ry="41.09"/>
<text text-anchor="middle" x="970" y="-213.29" font-family="Times,serif" font-size="14.00">Asfc_nuY</text>
<text text-anchor="middle" x="970" y="-196.49" font-family="Times,serif" font-size="14.00">~</text>
<text text-anchor="middle" x="970" y="-179.69" font-family="Times,serif" font-size="14.00">Exponential</text>
</g>
<!-- Asfc_y -->
<g id="node19" class="node">
<title>Asfc_y</title>
<ellipse fill="lightgrey" stroke="black" cx="847" cy="-82.1" rx="47.72" ry="41.09"/>
<text text-anchor="middle" x="847" y="-94.7" font-family="Times,serif" font-size="14.00">Asfc_y</text>
<text text-anchor="middle" x="847" y="-77.9" font-family="Times,serif" font-size="14.00">~</text>
<text text-anchor="middle" x="847" y="-61.1" font-family="Times,serif" font-size="14.00">StudentT</text>
</g>
<!-- Asfc_nuY&#45;&gt;Asfc_y -->
<g id="edge19" class="edge">
<title>Asfc_nuY&#45;&gt;Asfc_y</title>
<path fill="none" stroke="black" d="M935.41,-166.9C920.14,-152.43 902.12,-135.35 886.35,-120.39"/>
<polygon fill="black" stroke="black" points="888.47,-117.58 878.8,-113.24 883.65,-122.66 888.47,-117.58"/>
</g>
<!-- Asfc_b1_dist -->
<g id="node6" class="node">
<title>Asfc_b1_dist</title>
<ellipse fill="none" stroke="black" cx="368" cy="-418.48" rx="64.2" ry="41.09"/>
<text text-anchor="middle" x="368" y="-431.08" font-family="Times,serif" font-size="14.00">Asfc_b1_dist</text>
<text text-anchor="middle" x="368" y="-414.28" font-family="Times,serif" font-size="14.00">~</text>
<text text-anchor="middle" x="368" y="-397.48" font-family="Times,serif" font-size="14.00">Normal</text>
</g>
<!-- Asfc_b1 -->
<g id="node11" class="node">
<title>Asfc_b1</title>
<polygon fill="none" stroke="black" points="277.2,-341.38 184.8,-341.38 184.8,-282.58 277.2,-282.58 277.2,-341.38"/>
<text text-anchor="middle" x="231" y="-324.58" font-family="Times,serif" font-size="14.00">Asfc_b1</text>
<text text-anchor="middle" x="231" y="-307.78" font-family="Times,serif" font-size="14.00">~</text>
<text text-anchor="middle" x="231" y="-290.98" font-family="Times,serif" font-size="14.00">Deterministic</text>
</g>
<!-- Asfc_b1_dist&#45;&gt;Asfc_b1 -->
<g id="edge5" class="edge">
<title>Asfc_b1_dist&#45;&gt;Asfc_b1</title>
<path fill="none" stroke="black" d="M327.27,-386.41C311.28,-374.21 292.87,-360.17 276.45,-347.65"/>
<polygon fill="black" stroke="black" points="278.15,-344.54 268.07,-341.26 273.9,-350.1 278.15,-344.54"/>
</g>
<!-- Asfc_sigmaY -->
<g id="node7" class="node">
<title>Asfc_sigmaY</title>
<ellipse fill="none" stroke="black" cx="1113" cy="-200.69" rx="65.99" ry="41.09"/>
<text text-anchor="middle" x="1113" y="-213.29" font-family="Times,serif" font-size="14.00">Asfc_sigmaY</text>
<text text-anchor="middle" x="1113" y="-196.49" font-family="Times,serif" font-size="14.00">~</text>
<text text-anchor="middle" x="1113" y="-179.69" font-family="Times,serif" font-size="14.00">Gamma</text>
</g>
<!-- Asfc_sigmaY&#45;&gt;Asfc_y -->
<g id="edge17" class="edge">
<title>Asfc_sigmaY&#45;&gt;Asfc_y</title>
<path fill="none" stroke="black" d="M1064.59,-172.65C1055.83,-168.05 1046.71,-163.45 1038,-159.39 992.36,-138.1 939.03,-117.11 900.34,-102.55"/>
<polygon fill="black" stroke="black" points="901.43,-99.22 890.83,-98.99 898.97,-105.77 901.43,-99.22"/>
</g>
<!-- Asfc_b3_dist -->
<g id="node8" class="node">
<title>Asfc_b3_dist</title>
<ellipse fill="none" stroke="black" cx="1238" cy="-418.48" rx="64.2" ry="41.09"/>
<text text-anchor="middle" x="1238" y="-431.08" font-family="Times,serif" font-size="14.00">Asfc_b3_dist</text>
<text text-anchor="middle" x="1238" y="-414.28" font-family="Times,serif" font-size="14.00">~</text>
<text text-anchor="middle" x="1238" y="-397.48" font-family="Times,serif" font-size="14.00">Normal</text>
</g>
<!-- Asfc_b3 -->
<g id="node17" class="node">
<title>Asfc_b3</title>
<polygon fill="none" stroke="black" points="1067.2,-341.38 974.8,-341.38 974.8,-282.58 1067.2,-282.58 1067.2,-341.38"/>
<text text-anchor="middle" x="1021" y="-324.58" font-family="Times,serif" font-size="14.00">Asfc_b3</text>
<text text-anchor="middle" x="1021" y="-307.78" font-family="Times,serif" font-size="14.00">~</text>
<text text-anchor="middle" x="1021" y="-290.98" font-family="Times,serif" font-size="14.00">Deterministic</text>
</g>
<!-- Asfc_b3_dist&#45;&gt;Asfc_b3 -->
<g id="edge11" class="edge">
<title>Asfc_b3_dist&#45;&gt;Asfc_b3</title>
<path fill="none" stroke="black" d="M1191.01,-389.92C1183.07,-385.52 1174.85,-381.12 1167,-377.18 1137.67,-362.46 1104.2,-347.6 1076.72,-335.9"/>
<polygon fill="black" stroke="black" points="1077.83,-332.57 1067.26,-331.9 1075.1,-339.02 1077.83,-332.57"/>
</g>
<!-- Asfc_sigma0 -->
<g id="node9" class="node">
<title>Asfc_sigma0</title>
<ellipse fill="none" stroke="black" cx="1673" cy="-418.48" rx="63.59" ry="41.09"/>
<text text-anchor="middle" x="1673" y="-431.08" font-family="Times,serif" font-size="14.00">Asfc_sigma0</text>
<text text-anchor="middle" x="1673" y="-414.28" font-family="Times,serif" font-size="14.00">~</text>
<text text-anchor="middle" x="1673" y="-397.48" font-family="Times,serif" font-size="14.00">HalfNormal</text>
</g>
<!-- Asfc_sigma0&#45;&gt;Asfc_b0 -->
<g id="edge2" class="edge">
<title>Asfc_sigma0&#45;&gt;Asfc_b0</title>
<path fill="none" stroke="black" d="M1625.8,-390.66C1617.28,-386.03 1608.42,-381.37 1600,-377.18 1571.18,-362.83 1538.44,-348.11 1511.47,-336.4"/>
<polygon fill="black" stroke="black" points="1512.75,-333.14 1502.18,-332.38 1509.97,-339.56 1512.75,-333.14"/>
</g>
<!-- Asfc_sigma1 -->
<g id="node10" class="node">
<title>Asfc_sigma1</title>
<ellipse fill="none" stroke="black" cx="222" cy="-418.48" rx="63.59" ry="41.09"/>
<text text-anchor="middle" x="222" y="-431.08" font-family="Times,serif" font-size="14.00">Asfc_sigma1</text>
<text text-anchor="middle" x="222" y="-414.28" font-family="Times,serif" font-size="14.00">~</text>
<text text-anchor="middle" x="222" y="-397.48" font-family="Times,serif" font-size="14.00">HalfNormal</text>
</g>
<!-- Asfc_sigma1&#45;&gt;Asfc_b1 -->
<g id="edge4" class="edge">
<title>Asfc_sigma1&#45;&gt;Asfc_b1</title>
<path fill="none" stroke="black" d="M225.48,-377.07C226.2,-368.68 226.96,-359.84 227.68,-351.51"/>
<polygon fill="black" stroke="black" points="231.19,-351.56 228.56,-341.3 224.22,-350.96 231.19,-351.56"/>
</g>
<!-- Asfc_b1&#45;&gt;Asfc_mu -->
<g id="edge16" class="edge">
<title>Asfc_b1&#45;&gt;Asfc_mu</title>
<path fill="none" stroke="black" d="M277.29,-294.89C318.87,-281.03 381.84,-261.48 438,-249.98 562.52,-224.47 711.33,-211.1 790.64,-205.31"/>
<polygon fill="black" stroke="black" points="791.18,-208.78 800.9,-204.58 790.67,-201.8 791.18,-208.78"/>
</g>
<!-- Asfc_mu_b1 -->
<g id="node12" class="node">
<title>Asfc_mu_b1</title>
<ellipse fill="none" stroke="black" cx="78" cy="-418.48" rx="62.4" ry="41.09"/>
<text text-anchor="middle" x="78" y="-431.08" font-family="Times,serif" font-size="14.00">Asfc_mu_b1</text>
<text text-anchor="middle" x="78" y="-414.28" font-family="Times,serif" font-size="14.00">~</text>
<text text-anchor="middle" x="78" y="-397.48" font-family="Times,serif" font-size="14.00">Normal</text>
</g>
<!-- Asfc_mu_b1&#45;&gt;Asfc_b1 -->
<g id="edge6" class="edge">
<title>Asfc_mu_b1&#45;&gt;Asfc_b1</title>
<path fill="none" stroke="black" d="M121.03,-388.09C139.74,-375.31 161.77,-360.26 181.19,-347"/>
<polygon fill="black" stroke="black" points="183.33,-349.78 189.61,-341.25 179.38,-344 183.33,-349.78"/>
</g>
<!-- Asfc_b2&#45;&gt;Asfc_mu -->
<g id="edge13" class="edge">
<title>Asfc_b2&#45;&gt;Asfc_mu</title>
<path fill="none" stroke="black" d="M712.14,-283.12C736.41,-268.46 766.33,-250.4 791.81,-235.01"/>
<polygon fill="black" stroke="black" points="793.88,-237.85 800.63,-229.69 790.26,-231.86 793.88,-237.85"/>
</g>
<!-- Asfc_mu_b2 -->
<g id="node14" class="node">
<title>Asfc_mu_b2</title>
<ellipse fill="none" stroke="black" cx="658" cy="-418.48" rx="62.4" ry="41.09"/>
<text text-anchor="middle" x="658" y="-431.08" font-family="Times,serif" font-size="14.00">Asfc_mu_b2</text>
<text text-anchor="middle" x="658" y="-414.28" font-family="Times,serif" font-size="14.00">~</text>
<text text-anchor="middle" x="658" y="-397.48" font-family="Times,serif" font-size="14.00">Normal</text>
</g>
<!-- Asfc_mu_b2&#45;&gt;Asfc_b2 -->
<g id="edge7" class="edge">
<title>Asfc_mu_b2&#45;&gt;Asfc_b2</title>
<path fill="none" stroke="black" d="M661.09,-377.07C661.74,-368.68 662.41,-359.84 663.05,-351.51"/>
<polygon fill="black" stroke="black" points="666.56,-351.54 663.83,-341.3 659.58,-351 666.56,-351.54"/>
</g>
<!-- Asfc_sigma2 -->
<g id="node15" class="node">
<title>Asfc_sigma2</title>
<ellipse fill="none" stroke="black" cx="514" cy="-418.48" rx="63.59" ry="41.09"/>
<text text-anchor="middle" x="514" y="-431.08" font-family="Times,serif" font-size="14.00">Asfc_sigma2</text>
<text text-anchor="middle" x="514" y="-414.28" font-family="Times,serif" font-size="14.00">~</text>
<text text-anchor="middle" x="514" y="-397.48" font-family="Times,serif" font-size="14.00">HalfNormal</text>
</g>
<!-- Asfc_sigma2&#45;&gt;Asfc_b2 -->
<g id="edge9" class="edge">
<title>Asfc_sigma2&#45;&gt;Asfc_b2</title>
<path fill="none" stroke="black" d="M557.15,-387.81C575.65,-375.09 597.37,-360.16 616.52,-347"/>
<polygon fill="black" stroke="black" points="618.58,-349.83 624.84,-341.28 614.61,-344.06 618.58,-349.83"/>
</g>
<!-- Asfc_mu_b3 -->
<g id="node16" class="node">
<title>Asfc_mu_b3</title>
<ellipse fill="none" stroke="black" cx="1093" cy="-418.48" rx="62.4" ry="41.09"/>
<text text-anchor="middle" x="1093" y="-431.08" font-family="Times,serif" font-size="14.00">Asfc_mu_b3</text>
<text text-anchor="middle" x="1093" y="-414.28" font-family="Times,serif" font-size="14.00">~</text>
<text text-anchor="middle" x="1093" y="-397.48" font-family="Times,serif" font-size="14.00">Normal</text>
</g>
<!-- Asfc_mu_b3&#45;&gt;Asfc_b3 -->
<g id="edge10" class="edge">
<title>Asfc_mu_b3&#45;&gt;Asfc_b3</title>
<path fill="none" stroke="black" d="M1067.62,-380.63C1060.73,-370.64 1053.27,-359.81 1046.38,-349.81"/>
<polygon fill="black" stroke="black" points="1049.06,-347.53 1040.5,-341.28 1043.29,-351.5 1049.06,-347.53"/>
</g>
<!-- Asfc_b3&#45;&gt;Asfc_mu -->
<g id="edge15" class="edge">
<title>Asfc_b3&#45;&gt;Asfc_mu</title>
<path fill="none" stroke="black" d="M974.82,-285.72C952.49,-273.13 925.49,-257.33 902,-241.98 898.95,-239.98 895.83,-237.89 892.71,-235.74"/>
<polygon fill="black" stroke="black" points="894.69,-232.85 884.5,-229.97 890.67,-238.58 894.69,-232.85"/>
</g>
<!-- Asfc_sigma3 -->
<g id="node18" class="node">
<title>Asfc_sigma3</title>
<ellipse fill="none" stroke="black" cx="949" cy="-418.48" rx="63.59" ry="41.09"/>
<text text-anchor="middle" x="949" y="-431.08" font-family="Times,serif" font-size="14.00">Asfc_sigma3</text>
<text text-anchor="middle" x="949" y="-414.28" font-family="Times,serif" font-size="14.00">~</text>
<text text-anchor="middle" x="949" y="-397.48" font-family="Times,serif" font-size="14.00">HalfNormal</text>
</g>
<!-- Asfc_sigma3&#45;&gt;Asfc_b3 -->
<g id="edge12" class="edge">
<title>Asfc_sigma3&#45;&gt;Asfc_b3</title>
<path fill="none" stroke="black" d="M974.59,-380.34C981.4,-370.45 988.76,-359.77 995.57,-349.89"/>
<polygon fill="black" stroke="black" points="998.59,-351.67 1001.38,-341.45 992.82,-347.7 998.59,-351.67"/>
</g>
<!-- Asfc_mu&#45;&gt;Asfc_y -->
<g id="edge18" class="edge">
<title>Asfc_mu&#45;&gt;Asfc_y</title>
<path fill="none" stroke="black" d="M847,-171.46C847,-160.08 847,-146.6 847,-133.63"/>
<polygon fill="black" stroke="black" points="850.5,-133.4 847,-123.4 843.5,-133.4 850.5,-133.4"/>
</g>
</g>
</svg>
