<?xml version="1.0" encoding="UTF-8" standalone="no"?>
<!DOCTYPE svg PUBLIC "-//W3C//DTD SVG 1.1//EN"
 "http://www.w3.org/Graphics/SVG/1.1/DTD/svg11.dtd">
<!-- Generated by graphviz version 2.42.1 (20190717.1914)
 -->
<!-- Title: R² Pages: 1 -->
<svg width="1634pt" height="484pt"
 viewBox="0.00 0.00 1633.97 483.77" xmlns="http://www.w3.org/2000/svg" xmlns:xlink="http://www.w3.org/1999/xlink">
<g id="graph0" class="graph" transform="scale(1 1) rotate(0) translate(4 479.77)">
<title>R²</title>
<polygon fill="white" stroke="transparent" points="-4,4 -4,-479.77 1629.97,-479.77 1629.97,4 -4,4"/>
<g id="clust1" class="cluster">
<title>cluster2</title>
<path fill="none" stroke="black" d="M414.71,-249.98C414.71,-249.98 661.71,-249.98 661.71,-249.98 667.71,-249.98 673.71,-255.98 673.71,-261.98 673.71,-261.98 673.71,-455.77 673.71,-455.77 673.71,-461.77 667.71,-467.77 661.71,-467.77 661.71,-467.77 414.71,-467.77 414.71,-467.77 408.71,-467.77 402.71,-461.77 402.71,-455.77 402.71,-455.77 402.71,-261.98 402.71,-261.98 402.71,-255.98 408.71,-249.98 414.71,-249.98"/>
<text text-anchor="middle" x="662.21" y="-258.18" font-family="Times,serif" font-size="14.00">2</text>
</g>
<g id="clust2" class="cluster">
<title>cluster11</title>
<path fill="none" stroke="black" d="M825.71,-249.98C825.71,-249.98 1072.71,-249.98 1072.71,-249.98 1078.71,-249.98 1084.71,-255.98 1084.71,-261.98 1084.71,-261.98 1084.71,-455.77 1084.71,-455.77 1084.71,-461.77 1078.71,-467.77 1072.71,-467.77 1072.71,-467.77 825.71,-467.77 825.71,-467.77 819.71,-467.77 813.71,-461.77 813.71,-455.77 813.71,-455.77 813.71,-261.98 813.71,-261.98 813.71,-255.98 819.71,-249.98 825.71,-249.98"/>
<text text-anchor="middle" x="1069.71" y="-258.18" font-family="Times,serif" font-size="14.00">11</text>
</g>
<g id="clust3" class="cluster">
<title>cluster140</title>
<path fill="none" stroke="black" d="M1236.71,-249.98C1236.71,-249.98 1483.71,-249.98 1483.71,-249.98 1489.71,-249.98 1495.71,-255.98 1495.71,-261.98 1495.71,-261.98 1495.71,-455.77 1495.71,-455.77 1495.71,-461.77 1489.71,-467.77 1483.71,-467.77 1483.71,-467.77 1236.71,-467.77 1236.71,-467.77 1230.71,-467.77 1224.71,-461.77 1224.71,-455.77 1224.71,-455.77 1224.71,-261.98 1224.71,-261.98 1224.71,-255.98 1230.71,-249.98 1236.71,-249.98"/>
<text text-anchor="middle" x="1477.21" y="-258.18" font-family="Times,serif" font-size="14.00">140</text>
</g>
<g id="clust4" class="cluster">
<title>cluster280</title>
<path fill="none" stroke="black" d="M739.71,-8C739.71,-8 827.71,-8 827.71,-8 833.71,-8 839.71,-14 839.71,-20 839.71,-20 839.71,-225.89 839.71,-225.89 839.71,-231.89 833.71,-237.89 827.71,-237.89 827.71,-237.89 739.71,-237.89 739.71,-237.89 733.71,-237.89 727.71,-231.89 727.71,-225.89 727.71,-225.89 727.71,-20 727.71,-20 727.71,-14 733.71,-8 739.71,-8"/>
<text text-anchor="middle" x="821.21" y="-16.2" font-family="Times,serif" font-size="14.00">280</text>
</g>
<!-- R²_sigmaY -->
<g id="node1" class="node">
<title>R²_sigmaY</title>
<ellipse fill="none" stroke="black" cx="657.71" cy="-200.69" rx="61.81" ry="41.09"/>
<text text-anchor="middle" x="657.71" y="-213.29" font-family="Times,serif" font-size="14.00">R²_sigmaY</text>
<text text-anchor="middle" x="657.71" y="-196.49" font-family="Times,serif" font-size="14.00">~</text>
<text text-anchor="middle" x="657.71" y="-179.69" font-family="Times,serif" font-size="14.00">Gamma</text>
</g>
<!-- R²_y -->
<g id="node19" class="node">
<title>R²_y</title>
<ellipse fill="lightgrey" stroke="black" cx="783.71" cy="-82.1" rx="47.72" ry="41.09"/>
<text text-anchor="middle" x="783.71" y="-94.7" font-family="Times,serif" font-size="14.00">R²_y</text>
<text text-anchor="middle" x="783.71" y="-77.9" font-family="Times,serif" font-size="14.00">~</text>
<text text-anchor="middle" x="783.71" y="-61.1" font-family="Times,serif" font-size="14.00">StudentT</text>
</g>
<!-- R²_sigmaY&#45;&gt;R²_y -->
<g id="edge18" class="edge">
<title>R²_sigmaY&#45;&gt;R²_y</title>
<path fill="none" stroke="black" d="M693.48,-166.59C709.23,-152.01 727.8,-134.82 743.99,-119.85"/>
<polygon fill="black" stroke="black" points="746.76,-122.06 751.72,-112.69 742,-116.92 746.76,-122.06"/>
</g>
<!-- R²_sigma0 -->
<g id="node2" class="node">
<title>R²_sigma0</title>
<ellipse fill="none" stroke="black" cx="59.71" cy="-418.48" rx="59.91" ry="41.09"/>
<text text-anchor="middle" x="59.71" y="-431.08" font-family="Times,serif" font-size="14.00">R²_sigma0</text>
<text text-anchor="middle" x="59.71" y="-414.28" font-family="Times,serif" font-size="14.00">~</text>
<text text-anchor="middle" x="59.71" y="-397.48" font-family="Times,serif" font-size="14.00">HalfNormal</text>
</g>
<!-- R²_b0 -->
<g id="node4" class="node">
<title>R²_b0</title>
<polygon fill="none" stroke="black" points="310.91,-341.38 218.51,-341.38 218.51,-282.58 310.91,-282.58 310.91,-341.38"/>
<text text-anchor="middle" x="264.71" y="-324.58" font-family="Times,serif" font-size="14.00">R²_b0</text>
<text text-anchor="middle" x="264.71" y="-307.78" font-family="Times,serif" font-size="14.00">~</text>
<text text-anchor="middle" x="264.71" y="-290.98" font-family="Times,serif" font-size="14.00">Deterministic</text>
</g>
<!-- R²_sigma0&#45;&gt;R²_b0 -->
<g id="edge2" class="edge">
<title>R²_sigma0&#45;&gt;R²_b0</title>
<path fill="none" stroke="black" d="M103.98,-390.41C111.81,-385.86 119.94,-381.29 127.71,-377.18 154.06,-363.24 183.97,-349.04 209.11,-337.55"/>
<polygon fill="black" stroke="black" points="210.84,-340.61 218.5,-333.29 207.94,-334.24 210.84,-340.61"/>
</g>
<!-- R²_b1_dist -->
<g id="node3" class="node">
<title>R²_b1_dist</title>
<ellipse fill="none" stroke="black" cx="743.71" cy="-418.48" rx="60.02" ry="41.09"/>
<text text-anchor="middle" x="743.71" y="-431.08" font-family="Times,serif" font-size="14.00">R²_b1_dist</text>
<text text-anchor="middle" x="743.71" y="-414.28" font-family="Times,serif" font-size="14.00">~</text>
<text text-anchor="middle" x="743.71" y="-397.48" font-family="Times,serif" font-size="14.00">Normal</text>
</g>
<!-- R²_b1 -->
<g id="node12" class="node">
<title>R²_b1</title>
<polygon fill="none" stroke="black" points="658.91,-341.38 566.51,-341.38 566.51,-282.58 658.91,-282.58 658.91,-341.38"/>
<text text-anchor="middle" x="612.71" y="-324.58" font-family="Times,serif" font-size="14.00">R²_b1</text>
<text text-anchor="middle" x="612.71" y="-307.78" font-family="Times,serif" font-size="14.00">~</text>
<text text-anchor="middle" x="612.71" y="-290.98" font-family="Times,serif" font-size="14.00">Deterministic</text>
</g>
<!-- R²_b1_dist&#45;&gt;R²_b1 -->
<g id="edge5" class="edge">
<title>R²_b1_dist&#45;&gt;R²_b1</title>
<path fill="none" stroke="black" d="M705.11,-386.69C689.81,-374.49 672.15,-360.4 656.39,-347.82"/>
<polygon fill="black" stroke="black" points="658.34,-344.9 648.34,-341.4 653.98,-350.38 658.34,-344.9"/>
</g>
<!-- R²_mu -->
<g id="node20" class="node">
<title>R²_mu</title>
<polygon fill="none" stroke="black" points="829.91,-230.09 737.51,-230.09 737.51,-171.28 829.91,-171.28 829.91,-230.09"/>
<text text-anchor="middle" x="783.71" y="-213.29" font-family="Times,serif" font-size="14.00">R²_mu</text>
<text text-anchor="middle" x="783.71" y="-196.49" font-family="Times,serif" font-size="14.00">~</text>
<text text-anchor="middle" x="783.71" y="-179.69" font-family="Times,serif" font-size="14.00">Deterministic</text>
</g>
<!-- R²_b0&#45;&gt;R²_mu -->
<g id="edge13" class="edge">
<title>R²_b0&#45;&gt;R²_mu</title>
<path fill="none" stroke="black" d="M310.82,-284.39C335.93,-271.37 368.06,-257.02 398.71,-249.98 434.45,-241.77 693.99,-253.81 728.71,-241.98 733.62,-240.31 738.47,-238.02 743.13,-235.39"/>
<polygon fill="black" stroke="black" points="745.19,-238.22 751.81,-229.95 741.48,-232.29 745.19,-238.22"/>
</g>
<!-- R²_mu_b0 -->
<g id="node5" class="node">
<title>R²_mu_b0</title>
<ellipse fill="none" stroke="black" cx="195.71" cy="-418.48" rx="58.72" ry="41.09"/>
<text text-anchor="middle" x="195.71" y="-431.08" font-family="Times,serif" font-size="14.00">R²_mu_b0</text>
<text text-anchor="middle" x="195.71" y="-414.28" font-family="Times,serif" font-size="14.00">~</text>
<text text-anchor="middle" x="195.71" y="-397.48" font-family="Times,serif" font-size="14.00">Normal</text>
</g>
<!-- R²_mu_b0&#45;&gt;R²_b0 -->
<g id="edge3" class="edge">
<title>R²_mu_b0&#45;&gt;R²_b0</title>
<path fill="none" stroke="black" d="M220.03,-380.63C226.64,-370.64 233.78,-359.81 240.38,-349.81"/>
<polygon fill="black" stroke="black" points="243.43,-351.56 246.02,-341.28 237.59,-347.7 243.43,-351.56"/>
</g>
<!-- R²_b2_dist -->
<g id="node6" class="node">
<title>R²_b2_dist</title>
<ellipse fill="none" stroke="black" cx="1154.71" cy="-418.48" rx="60.02" ry="41.09"/>
<text text-anchor="middle" x="1154.71" y="-431.08" font-family="Times,serif" font-size="14.00">R²_b2_dist</text>
<text text-anchor="middle" x="1154.71" y="-414.28" font-family="Times,serif" font-size="14.00">~</text>
<text text-anchor="middle" x="1154.71" y="-397.48" font-family="Times,serif" font-size="14.00">Normal</text>
</g>
<!-- R²_b2 -->
<g id="node13" class="node">
<title>R²_b2</title>
<polygon fill="none" stroke="black" points="994.91,-341.38 902.51,-341.38 902.51,-282.58 994.91,-282.58 994.91,-341.38"/>
<text text-anchor="middle" x="948.71" y="-324.58" font-family="Times,serif" font-size="14.00">R²_b2</text>
<text text-anchor="middle" x="948.71" y="-307.78" font-family="Times,serif" font-size="14.00">~</text>
<text text-anchor="middle" x="948.71" y="-290.98" font-family="Times,serif" font-size="14.00">Deterministic</text>
</g>
<!-- R²_b2_dist&#45;&gt;R²_b2 -->
<g id="edge8" class="edge">
<title>R²_b2_dist&#45;&gt;R²_b2</title>
<path fill="none" stroke="black" d="M1111.1,-389.86C1103.71,-385.47 1096.05,-381.09 1088.71,-377.18 1061.48,-362.69 1030.37,-348.23 1004.4,-336.71"/>
<polygon fill="black" stroke="black" points="1005.65,-333.43 995.08,-332.6 1002.82,-339.84 1005.65,-333.43"/>
</g>
<!-- R²_b3_dist -->
<g id="node7" class="node">
<title>R²_b3_dist</title>
<ellipse fill="none" stroke="black" cx="1565.71" cy="-418.48" rx="60.02" ry="41.09"/>
<text text-anchor="middle" x="1565.71" y="-431.08" font-family="Times,serif" font-size="14.00">R²_b3_dist</text>
<text text-anchor="middle" x="1565.71" y="-414.28" font-family="Times,serif" font-size="14.00">~</text>
<text text-anchor="middle" x="1565.71" y="-397.48" font-family="Times,serif" font-size="14.00">Normal</text>
</g>
<!-- R²_b3 -->
<g id="node16" class="node">
<title>R²_b3</title>
<polygon fill="none" stroke="black" points="1405.91,-341.38 1313.51,-341.38 1313.51,-282.58 1405.91,-282.58 1405.91,-341.38"/>
<text text-anchor="middle" x="1359.71" y="-324.58" font-family="Times,serif" font-size="14.00">R²_b3</text>
<text text-anchor="middle" x="1359.71" y="-307.78" font-family="Times,serif" font-size="14.00">~</text>
<text text-anchor="middle" x="1359.71" y="-290.98" font-family="Times,serif" font-size="14.00">Deterministic</text>
</g>
<!-- R²_b3_dist&#45;&gt;R²_b3 -->
<g id="edge12" class="edge">
<title>R²_b3_dist&#45;&gt;R²_b3</title>
<path fill="none" stroke="black" d="M1522.1,-389.86C1514.71,-385.47 1507.05,-381.09 1499.71,-377.18 1472.48,-362.69 1441.37,-348.23 1415.4,-336.71"/>
<polygon fill="black" stroke="black" points="1416.65,-333.43 1406.08,-332.6 1413.82,-339.84 1416.65,-333.43"/>
</g>
<!-- R²_b0_dist -->
<g id="node8" class="node">
<title>R²_b0_dist</title>
<ellipse fill="none" stroke="black" cx="332.71" cy="-418.48" rx="60.02" ry="41.09"/>
<text text-anchor="middle" x="332.71" y="-431.08" font-family="Times,serif" font-size="14.00">R²_b0_dist</text>
<text text-anchor="middle" x="332.71" y="-414.28" font-family="Times,serif" font-size="14.00">~</text>
<text text-anchor="middle" x="332.71" y="-397.48" font-family="Times,serif" font-size="14.00">Normal</text>
</g>
<!-- R²_b0_dist&#45;&gt;R²_b0 -->
<g id="edge1" class="edge">
<title>R²_b0_dist&#45;&gt;R²_b0</title>
<path fill="none" stroke="black" d="M308.54,-380.34C302.1,-370.45 295.15,-359.77 288.72,-349.89"/>
<polygon fill="black" stroke="black" points="291.62,-347.93 283.24,-341.45 285.76,-351.74 291.62,-347.93"/>
</g>
<!-- R²_nuY -->
<g id="node9" class="node">
<title>R²_nuY</title>
<ellipse fill="none" stroke="black" cx="906.71" cy="-200.69" rx="59.3" ry="41.09"/>
<text text-anchor="middle" x="906.71" y="-213.29" font-family="Times,serif" font-size="14.00">R²_nuY</text>
<text text-anchor="middle" x="906.71" y="-196.49" font-family="Times,serif" font-size="14.00">~</text>
<text text-anchor="middle" x="906.71" y="-179.69" font-family="Times,serif" font-size="14.00">Exponential</text>
</g>
<!-- R²_nuY&#45;&gt;R²_y -->
<g id="edge17" class="edge">
<title>R²_nuY&#45;&gt;R²_y</title>
<path fill="none" stroke="black" d="M872.12,-166.9C856.85,-152.43 838.83,-135.35 823.05,-120.39"/>
<polygon fill="black" stroke="black" points="825.18,-117.58 815.51,-113.24 820.36,-122.66 825.18,-117.58"/>
</g>
<!-- R²_mu_b1 -->
<g id="node10" class="node">
<title>R²_mu_b1</title>
<ellipse fill="none" stroke="black" cx="606.71" cy="-418.48" rx="58.72" ry="41.09"/>
<text text-anchor="middle" x="606.71" y="-431.08" font-family="Times,serif" font-size="14.00">R²_mu_b1</text>
<text text-anchor="middle" x="606.71" y="-414.28" font-family="Times,serif" font-size="14.00">~</text>
<text text-anchor="middle" x="606.71" y="-397.48" font-family="Times,serif" font-size="14.00">Normal</text>
</g>
<!-- R²_mu_b1&#45;&gt;R²_b1 -->
<g id="edge4" class="edge">
<title>R²_mu_b1&#45;&gt;R²_b1</title>
<path fill="none" stroke="black" d="M609.03,-377.07C609.51,-368.68 610.02,-359.84 610.49,-351.51"/>
<polygon fill="black" stroke="black" points="614,-351.49 611.08,-341.3 607.01,-351.08 614,-351.49"/>
</g>
<!-- R²_sigma1 -->
<g id="node11" class="node">
<title>R²_sigma1</title>
<ellipse fill="none" stroke="black" cx="470.71" cy="-418.48" rx="59.91" ry="41.09"/>
<text text-anchor="middle" x="470.71" y="-431.08" font-family="Times,serif" font-size="14.00">R²_sigma1</text>
<text text-anchor="middle" x="470.71" y="-414.28" font-family="Times,serif" font-size="14.00">~</text>
<text text-anchor="middle" x="470.71" y="-397.48" font-family="Times,serif" font-size="14.00">HalfNormal</text>
</g>
<!-- R²_sigma1&#45;&gt;R²_b1 -->
<g id="edge6" class="edge">
<title>R²_sigma1&#45;&gt;R²_b1</title>
<path fill="none" stroke="black" d="M511.02,-387.81C528.07,-375.26 548.05,-360.56 565.76,-347.53"/>
<polygon fill="black" stroke="black" points="568.27,-350.03 574.25,-341.28 564.12,-344.39 568.27,-350.03"/>
</g>
<!-- R²_b1&#45;&gt;R²_mu -->
<g id="edge16" class="edge">
<title>R²_b1&#45;&gt;R²_mu</title>
<path fill="none" stroke="black" d="M659.06,-284.77C680.54,-272.28 706.23,-256.85 728.71,-241.98 731.75,-239.97 734.85,-237.86 737.97,-235.7"/>
<polygon fill="black" stroke="black" points="740.01,-238.54 746.17,-229.91 735.98,-232.81 740.01,-238.54"/>
</g>
<!-- R²_b2&#45;&gt;R²_mu -->
<g id="edge14" class="edge">
<title>R²_b2&#45;&gt;R²_mu</title>
<path fill="none" stroke="black" d="M902.47,-283.01C882.63,-270.74 859.32,-255.97 838.71,-241.98 835.83,-240.03 832.89,-237.99 829.93,-235.92"/>
<polygon fill="black" stroke="black" points="831.8,-232.95 821.62,-230.01 827.74,-238.65 831.8,-232.95"/>
</g>
<!-- R²_sigma2 -->
<g id="node14" class="node">
<title>R²_sigma2</title>
<ellipse fill="none" stroke="black" cx="1016.71" cy="-418.48" rx="59.91" ry="41.09"/>
<text text-anchor="middle" x="1016.71" y="-431.08" font-family="Times,serif" font-size="14.00">R²_sigma2</text>
<text text-anchor="middle" x="1016.71" y="-414.28" font-family="Times,serif" font-size="14.00">~</text>
<text text-anchor="middle" x="1016.71" y="-397.48" font-family="Times,serif" font-size="14.00">HalfNormal</text>
</g>
<!-- R²_sigma2&#45;&gt;R²_b2 -->
<g id="edge7" class="edge">
<title>R²_sigma2&#45;&gt;R²_b2</title>
<path fill="none" stroke="black" d="M992.73,-380.63C986.23,-370.64 979.18,-359.81 972.68,-349.81"/>
<polygon fill="black" stroke="black" points="975.51,-347.75 967.12,-341.28 969.64,-351.57 975.51,-347.75"/>
</g>
<!-- R²_mu_b2 -->
<g id="node15" class="node">
<title>R²_mu_b2</title>
<ellipse fill="none" stroke="black" cx="880.71" cy="-418.48" rx="58.72" ry="41.09"/>
<text text-anchor="middle" x="880.71" y="-431.08" font-family="Times,serif" font-size="14.00">R²_mu_b2</text>
<text text-anchor="middle" x="880.71" y="-414.28" font-family="Times,serif" font-size="14.00">~</text>
<text text-anchor="middle" x="880.71" y="-397.48" font-family="Times,serif" font-size="14.00">Normal</text>
</g>
<!-- R²_mu_b2&#45;&gt;R²_b2 -->
<g id="edge9" class="edge">
<title>R²_mu_b2&#45;&gt;R²_b2</title>
<path fill="none" stroke="black" d="M904.68,-380.63C911.19,-370.64 918.23,-359.81 924.74,-349.81"/>
<polygon fill="black" stroke="black" points="927.77,-351.57 930.29,-341.28 921.9,-347.75 927.77,-351.57"/>
</g>
<!-- R²_b3&#45;&gt;R²_mu -->
<g id="edge15" class="edge">
<title>R²_b3&#45;&gt;R²_mu</title>
<path fill="none" stroke="black" d="M1313.19,-297.68C1259.58,-283.01 1168.6,-260.16 1088.71,-249.98 1061.14,-246.47 864.98,-251.04 838.71,-241.98 833.8,-240.29 828.95,-237.99 824.3,-235.35"/>
<polygon fill="black" stroke="black" points="825.95,-232.25 815.62,-229.9 822.23,-238.18 825.95,-232.25"/>
</g>
<!-- R²_sigma3 -->
<g id="node17" class="node">
<title>R²_sigma3</title>
<ellipse fill="none" stroke="black" cx="1427.71" cy="-418.48" rx="59.91" ry="41.09"/>
<text text-anchor="middle" x="1427.71" y="-431.08" font-family="Times,serif" font-size="14.00">R²_sigma3</text>
<text text-anchor="middle" x="1427.71" y="-414.28" font-family="Times,serif" font-size="14.00">~</text>
<text text-anchor="middle" x="1427.71" y="-397.48" font-family="Times,serif" font-size="14.00">HalfNormal</text>
</g>
<!-- R²_sigma3&#45;&gt;R²_b3 -->
<g id="edge10" class="edge">
<title>R²_sigma3&#45;&gt;R²_b3</title>
<path fill="none" stroke="black" d="M1403.73,-380.63C1397.23,-370.64 1390.18,-359.81 1383.68,-349.81"/>
<polygon fill="black" stroke="black" points="1386.51,-347.75 1378.12,-341.28 1380.64,-351.57 1386.51,-347.75"/>
</g>
<!-- R²_mu_b3 -->
<g id="node18" class="node">
<title>R²_mu_b3</title>
<ellipse fill="none" stroke="black" cx="1291.71" cy="-418.48" rx="58.72" ry="41.09"/>
<text text-anchor="middle" x="1291.71" y="-431.08" font-family="Times,serif" font-size="14.00">R²_mu_b3</text>
<text text-anchor="middle" x="1291.71" y="-414.28" font-family="Times,serif" font-size="14.00">~</text>
<text text-anchor="middle" x="1291.71" y="-397.48" font-family="Times,serif" font-size="14.00">Normal</text>
</g>
<!-- R²_mu_b3&#45;&gt;R²_b3 -->
<g id="edge11" class="edge">
<title>R²_mu_b3&#45;&gt;R²_b3</title>
<path fill="none" stroke="black" d="M1315.68,-380.63C1322.19,-370.64 1329.23,-359.81 1335.74,-349.81"/>
<polygon fill="black" stroke="black" points="1338.77,-351.57 1341.29,-341.28 1332.9,-347.75 1338.77,-351.57"/>
</g>
<!-- R²_mu&#45;&gt;R²_y -->
<g id="edge19" class="edge">
<title>R²_mu&#45;&gt;R²_y</title>
<path fill="none" stroke="black" d="M783.71,-171.46C783.71,-160.08 783.71,-146.6 783.71,-133.63"/>
<polygon fill="black" stroke="black" points="787.21,-133.4 783.71,-123.4 780.21,-133.4 787.21,-133.4"/>
</g>
</g>
</svg>
