<?xml version="1.0" encoding="UTF-8" standalone="no"?>
<!DOCTYPE svg PUBLIC "-//W3C//DTD SVG 1.1//EN"
 "http://www.w3.org/Graphics/SVG/1.1/DTD/svg11.dtd">
<!-- Generated by graphviz version 2.42.1 (20190717.1914)
 -->
<!-- Title: HAsfc9 Pages: 1 -->
<svg width="2017pt" height="484pt"
 viewBox="0.00 0.00 2017.39 483.77" xmlns="http://www.w3.org/2000/svg" xmlns:xlink="http://www.w3.org/1999/xlink">
<g id="graph0" class="graph" transform="scale(1 1) rotate(0) translate(4 479.77)">
<title>HAsfc9</title>
<polygon fill="white" stroke="transparent" points="-4,4 -4,-479.77 2013.39,-479.77 2013.39,4 -4,4"/>
<g id="clust1" class="cluster">
<title>cluster2</title>
<path fill="none" stroke="black" d="M1017.2,-249.98C1017.2,-249.98 1328.2,-249.98 1328.2,-249.98 1334.2,-249.98 1340.2,-255.98 1340.2,-261.98 1340.2,-261.98 1340.2,-455.77 1340.2,-455.77 1340.2,-461.77 1334.2,-467.77 1328.2,-467.77 1328.2,-467.77 1017.2,-467.77 1017.2,-467.77 1011.2,-467.77 1005.2,-461.77 1005.2,-455.77 1005.2,-455.77 1005.2,-261.98 1005.2,-261.98 1005.2,-255.98 1011.2,-249.98 1017.2,-249.98"/>
<text text-anchor="middle" x="1328.7" y="-258.18" font-family="Times,serif" font-size="14.00">2</text>
</g>
<g id="clust2" class="cluster">
<title>cluster11</title>
<path fill="none" stroke="black" d="M1524.2,-249.98C1524.2,-249.98 1835.2,-249.98 1835.2,-249.98 1841.2,-249.98 1847.2,-255.98 1847.2,-261.98 1847.2,-261.98 1847.2,-455.77 1847.2,-455.77 1847.2,-461.77 1841.2,-467.77 1835.2,-467.77 1835.2,-467.77 1524.2,-467.77 1524.2,-467.77 1518.2,-467.77 1512.2,-461.77 1512.2,-455.77 1512.2,-455.77 1512.2,-261.98 1512.2,-261.98 1512.2,-255.98 1518.2,-249.98 1524.2,-249.98"/>
<text text-anchor="middle" x="1832.2" y="-258.18" font-family="Times,serif" font-size="14.00">11</text>
</g>
<g id="clust3" class="cluster">
<title>cluster140</title>
<path fill="none" stroke="black" d="M174.2,-249.98C174.2,-249.98 485.2,-249.98 485.2,-249.98 491.2,-249.98 497.2,-255.98 497.2,-261.98 497.2,-261.98 497.2,-455.77 497.2,-455.77 497.2,-461.77 491.2,-467.77 485.2,-467.77 485.2,-467.77 174.2,-467.77 174.2,-467.77 168.2,-467.77 162.2,-461.77 162.2,-455.77 162.2,-455.77 162.2,-261.98 162.2,-261.98 162.2,-255.98 168.2,-249.98 174.2,-249.98"/>
<text text-anchor="middle" x="478.7" y="-258.18" font-family="Times,serif" font-size="14.00">140</text>
</g>
<g id="clust4" class="cluster">
<title>cluster280</title>
<path fill="none" stroke="black" d="M997.2,-8C997.2,-8 1093.2,-8 1093.2,-8 1099.2,-8 1105.2,-14 1105.2,-20 1105.2,-20 1105.2,-225.89 1105.2,-225.89 1105.2,-231.89 1099.2,-237.89 1093.2,-237.89 1093.2,-237.89 997.2,-237.89 997.2,-237.89 991.2,-237.89 985.2,-231.89 985.2,-225.89 985.2,-225.89 985.2,-20 985.2,-20 985.2,-14 991.2,-8 997.2,-8"/>
<text text-anchor="middle" x="1086.7" y="-16.2" font-family="Times,serif" font-size="14.00">280</text>
</g>
<!-- HAsfc9_b3_dist -->
<g id="node1" class="node">
<title>HAsfc9_b3_dist</title>
<ellipse fill="none" stroke="black" cx="76.2" cy="-418.48" rx="76.39" ry="41.09"/>
<text text-anchor="middle" x="76.2" y="-431.08" font-family="Times,serif" font-size="14.00">HAsfc9_b3_dist</text>
<text text-anchor="middle" x="76.2" y="-414.28" font-family="Times,serif" font-size="14.00">~</text>
<text text-anchor="middle" x="76.2" y="-397.48" font-family="Times,serif" font-size="14.00">Normal</text>
</g>
<!-- HAsfc9_b3 -->
<g id="node18" class="node">
<title>HAsfc9_b3</title>
<polygon fill="none" stroke="black" points="375.4,-341.38 283,-341.38 283,-282.58 375.4,-282.58 375.4,-341.38"/>
<text text-anchor="middle" x="329.2" y="-324.58" font-family="Times,serif" font-size="14.00">HAsfc9_b3</text>
<text text-anchor="middle" x="329.2" y="-307.78" font-family="Times,serif" font-size="14.00">~</text>
<text text-anchor="middle" x="329.2" y="-290.98" font-family="Times,serif" font-size="14.00">Deterministic</text>
</g>
<!-- HAsfc9_b3_dist&#45;&gt;HAsfc9_b3 -->
<g id="edge12" class="edge">
<title>HAsfc9_b3_dist&#45;&gt;HAsfc9_b3</title>
<path fill="none" stroke="black" d="M130.99,-389.64C140.01,-385.32 149.32,-381.02 158.2,-377.18 196.08,-360.81 239.65,-344.49 273.32,-332.4"/>
<polygon fill="black" stroke="black" points="274.75,-335.61 282.99,-328.95 272.39,-329.01 274.75,-335.61"/>
</g>
<!-- HAsfc9_b1_dist -->
<g id="node2" class="node">
<title>HAsfc9_b1_dist</title>
<ellipse fill="none" stroke="black" cx="1426.2" cy="-418.48" rx="76.39" ry="41.09"/>
<text text-anchor="middle" x="1426.2" y="-431.08" font-family="Times,serif" font-size="14.00">HAsfc9_b1_dist</text>
<text text-anchor="middle" x="1426.2" y="-414.28" font-family="Times,serif" font-size="14.00">~</text>
<text text-anchor="middle" x="1426.2" y="-397.48" font-family="Times,serif" font-size="14.00">Normal</text>
</g>
<!-- HAsfc9_b1 -->
<g id="node11" class="node">
<title>HAsfc9_b1</title>
<polygon fill="none" stroke="black" points="1218.4,-341.38 1126,-341.38 1126,-282.58 1218.4,-282.58 1218.4,-341.38"/>
<text text-anchor="middle" x="1172.2" y="-324.58" font-family="Times,serif" font-size="14.00">HAsfc9_b1</text>
<text text-anchor="middle" x="1172.2" y="-307.78" font-family="Times,serif" font-size="14.00">~</text>
<text text-anchor="middle" x="1172.2" y="-290.98" font-family="Times,serif" font-size="14.00">Deterministic</text>
</g>
<!-- HAsfc9_b1_dist&#45;&gt;HAsfc9_b1 -->
<g id="edge6" class="edge">
<title>HAsfc9_b1_dist&#45;&gt;HAsfc9_b1</title>
<path fill="none" stroke="black" d="M1371.41,-389.62C1362.39,-385.3 1353.08,-381.01 1344.2,-377.18 1305.97,-360.7 1261.98,-344.33 1228.05,-332.24"/>
<polygon fill="black" stroke="black" points="1228.91,-328.83 1218.32,-328.79 1226.57,-335.43 1228.91,-328.83"/>
</g>
<!-- HAsfc9_sigmaY -->
<g id="node3" class="node">
<title>HAsfc9_sigmaY</title>
<ellipse fill="none" stroke="black" cx="1191.2" cy="-200.69" rx="77.68" ry="41.09"/>
<text text-anchor="middle" x="1191.2" y="-213.29" font-family="Times,serif" font-size="14.00">HAsfc9_sigmaY</text>
<text text-anchor="middle" x="1191.2" y="-196.49" font-family="Times,serif" font-size="14.00">~</text>
<text text-anchor="middle" x="1191.2" y="-179.69" font-family="Times,serif" font-size="14.00">Gamma</text>
</g>
<!-- HAsfc9_y -->
<g id="node20" class="node">
<title>HAsfc9_y</title>
<ellipse fill="lightgrey" stroke="black" cx="1045.2" cy="-82.1" rx="51.99" ry="41.09"/>
<text text-anchor="middle" x="1045.2" y="-94.7" font-family="Times,serif" font-size="14.00">HAsfc9_y</text>
<text text-anchor="middle" x="1045.2" y="-77.9" font-family="Times,serif" font-size="14.00">~</text>
<text text-anchor="middle" x="1045.2" y="-61.1" font-family="Times,serif" font-size="14.00">StudentT</text>
</g>
<!-- HAsfc9_sigmaY&#45;&gt;HAsfc9_y -->
<g id="edge19" class="edge">
<title>HAsfc9_sigmaY&#45;&gt;HAsfc9_y</title>
<path fill="none" stroke="black" d="M1148.97,-165.96C1130.25,-151.02 1108.23,-133.43 1089.3,-118.31"/>
<polygon fill="black" stroke="black" points="1091.39,-115.51 1081.4,-112 1087.03,-120.98 1091.39,-115.51"/>
</g>
<!-- HAsfc9_nuY -->
<g id="node4" class="node">
<title>HAsfc9_nuY</title>
<ellipse fill="none" stroke="black" cx="1351.2" cy="-200.69" rx="64.18" ry="41.09"/>
<text text-anchor="middle" x="1351.2" y="-213.29" font-family="Times,serif" font-size="14.00">HAsfc9_nuY</text>
<text text-anchor="middle" x="1351.2" y="-196.49" font-family="Times,serif" font-size="14.00">~</text>
<text text-anchor="middle" x="1351.2" y="-179.69" font-family="Times,serif" font-size="14.00">Exponential</text>
</g>
<!-- HAsfc9_nuY&#45;&gt;HAsfc9_y -->
<g id="edge17" class="edge">
<title>HAsfc9_nuY&#45;&gt;HAsfc9_y</title>
<path fill="none" stroke="black" d="M1304.33,-172.13C1295.78,-167.59 1286.83,-163.14 1278.2,-159.39 1220.62,-134.34 1152.04,-112.83 1104.25,-99.09"/>
<polygon fill="black" stroke="black" points="1104.95,-95.65 1094.38,-96.28 1103.04,-102.39 1104.95,-95.65"/>
</g>
<!-- HAsfc9_mu_b0 -->
<g id="node5" class="node">
<title>HAsfc9_mu_b0</title>
<ellipse fill="none" stroke="black" cx="581.2" cy="-418.48" rx="74.59" ry="41.09"/>
<text text-anchor="middle" x="581.2" y="-431.08" font-family="Times,serif" font-size="14.00">HAsfc9_mu_b0</text>
<text text-anchor="middle" x="581.2" y="-414.28" font-family="Times,serif" font-size="14.00">~</text>
<text text-anchor="middle" x="581.2" y="-397.48" font-family="Times,serif" font-size="14.00">Normal</text>
</g>
<!-- HAsfc9_b0 -->
<g id="node7" class="node">
<title>HAsfc9_b0</title>
<polygon fill="none" stroke="black" points="880.4,-341.38 788,-341.38 788,-282.58 880.4,-282.58 880.4,-341.38"/>
<text text-anchor="middle" x="834.2" y="-324.58" font-family="Times,serif" font-size="14.00">HAsfc9_b0</text>
<text text-anchor="middle" x="834.2" y="-307.78" font-family="Times,serif" font-size="14.00">~</text>
<text text-anchor="middle" x="834.2" y="-290.98" font-family="Times,serif" font-size="14.00">Deterministic</text>
</g>
<!-- HAsfc9_mu_b0&#45;&gt;HAsfc9_b0 -->
<g id="edge1" class="edge">
<title>HAsfc9_mu_b0&#45;&gt;HAsfc9_b0</title>
<path fill="none" stroke="black" d="M635.79,-390.1C645.19,-385.64 654.93,-381.17 664.2,-377.18 701.78,-361 744.92,-344.74 778.33,-332.63"/>
<polygon fill="black" stroke="black" points="779.71,-335.85 787.93,-329.17 777.33,-329.27 779.71,-335.85"/>
</g>
<!-- HAsfc9_b2_dist -->
<g id="node6" class="node">
<title>HAsfc9_b2_dist</title>
<ellipse fill="none" stroke="black" cx="1933.2" cy="-418.48" rx="76.39" ry="41.09"/>
<text text-anchor="middle" x="1933.2" y="-431.08" font-family="Times,serif" font-size="14.00">HAsfc9_b2_dist</text>
<text text-anchor="middle" x="1933.2" y="-414.28" font-family="Times,serif" font-size="14.00">~</text>
<text text-anchor="middle" x="1933.2" y="-397.48" font-family="Times,serif" font-size="14.00">Normal</text>
</g>
<!-- HAsfc9_b2 -->
<g id="node13" class="node">
<title>HAsfc9_b2</title>
<polygon fill="none" stroke="black" points="1726.4,-341.38 1634,-341.38 1634,-282.58 1726.4,-282.58 1726.4,-341.38"/>
<text text-anchor="middle" x="1680.2" y="-324.58" font-family="Times,serif" font-size="14.00">HAsfc9_b2</text>
<text text-anchor="middle" x="1680.2" y="-307.78" font-family="Times,serif" font-size="14.00">~</text>
<text text-anchor="middle" x="1680.2" y="-290.98" font-family="Times,serif" font-size="14.00">Deterministic</text>
</g>
<!-- HAsfc9_b2_dist&#45;&gt;HAsfc9_b2 -->
<g id="edge7" class="edge">
<title>HAsfc9_b2_dist&#45;&gt;HAsfc9_b2</title>
<path fill="none" stroke="black" d="M1878.41,-389.64C1869.38,-385.32 1860.08,-381.02 1851.2,-377.18 1813.31,-360.81 1769.75,-344.49 1736.07,-332.4"/>
<polygon fill="black" stroke="black" points="1737,-329.01 1726.41,-328.95 1734.65,-335.61 1737,-329.01"/>
</g>
<!-- HAsfc9_mu -->
<g id="node19" class="node">
<title>HAsfc9_mu</title>
<polygon fill="none" stroke="black" points="1091.4,-230.09 999,-230.09 999,-171.28 1091.4,-171.28 1091.4,-230.09"/>
<text text-anchor="middle" x="1045.2" y="-213.29" font-family="Times,serif" font-size="14.00">HAsfc9_mu</text>
<text text-anchor="middle" x="1045.2" y="-196.49" font-family="Times,serif" font-size="14.00">~</text>
<text text-anchor="middle" x="1045.2" y="-179.69" font-family="Times,serif" font-size="14.00">Deterministic</text>
</g>
<!-- HAsfc9_b0&#45;&gt;HAsfc9_mu -->
<g id="edge14" class="edge">
<title>HAsfc9_b0&#45;&gt;HAsfc9_mu</title>
<path fill="none" stroke="black" d="M880.5,-286.99C912.8,-270.27 956.03,-247.87 990.1,-230.22"/>
<polygon fill="black" stroke="black" points="991.73,-233.32 999,-225.61 988.51,-227.11 991.73,-233.32"/>
</g>
<!-- HAsfc9_sigma0 -->
<g id="node8" class="node">
<title>HAsfc9_sigma0</title>
<ellipse fill="none" stroke="black" cx="749.2" cy="-418.48" rx="75.78" ry="41.09"/>
<text text-anchor="middle" x="749.2" y="-431.08" font-family="Times,serif" font-size="14.00">HAsfc9_sigma0</text>
<text text-anchor="middle" x="749.2" y="-414.28" font-family="Times,serif" font-size="14.00">~</text>
<text text-anchor="middle" x="749.2" y="-397.48" font-family="Times,serif" font-size="14.00">HalfNormal</text>
</g>
<!-- HAsfc9_sigma0&#45;&gt;HAsfc9_b0 -->
<g id="edge2" class="edge">
<title>HAsfc9_sigma0&#45;&gt;HAsfc9_b0</title>
<path fill="none" stroke="black" d="M779.4,-380.34C787.61,-370.25 796.49,-359.34 804.66,-349.29"/>
<polygon fill="black" stroke="black" points="807.44,-351.42 811.04,-341.45 802.01,-347 807.44,-351.42"/>
</g>
<!-- HAsfc9_b0_dist -->
<g id="node9" class="node">
<title>HAsfc9_b0_dist</title>
<ellipse fill="none" stroke="black" cx="919.2" cy="-418.48" rx="76.39" ry="41.09"/>
<text text-anchor="middle" x="919.2" y="-431.08" font-family="Times,serif" font-size="14.00">HAsfc9_b0_dist</text>
<text text-anchor="middle" x="919.2" y="-414.28" font-family="Times,serif" font-size="14.00">~</text>
<text text-anchor="middle" x="919.2" y="-397.48" font-family="Times,serif" font-size="14.00">Normal</text>
</g>
<!-- HAsfc9_b0_dist&#45;&gt;HAsfc9_b0 -->
<g id="edge3" class="edge">
<title>HAsfc9_b0_dist&#45;&gt;HAsfc9_b0</title>
<path fill="none" stroke="black" d="M888.99,-380.34C880.78,-370.25 871.9,-359.34 863.73,-349.29"/>
<polygon fill="black" stroke="black" points="866.38,-347 857.36,-341.45 860.95,-351.42 866.38,-347"/>
</g>
<!-- HAsfc9_sigma1 -->
<g id="node10" class="node">
<title>HAsfc9_sigma1</title>
<ellipse fill="none" stroke="black" cx="1256.2" cy="-418.48" rx="75.78" ry="41.09"/>
<text text-anchor="middle" x="1256.2" y="-431.08" font-family="Times,serif" font-size="14.00">HAsfc9_sigma1</text>
<text text-anchor="middle" x="1256.2" y="-414.28" font-family="Times,serif" font-size="14.00">~</text>
<text text-anchor="middle" x="1256.2" y="-397.48" font-family="Times,serif" font-size="14.00">HalfNormal</text>
</g>
<!-- HAsfc9_sigma1&#45;&gt;HAsfc9_b1 -->
<g id="edge4" class="edge">
<title>HAsfc9_sigma1&#45;&gt;HAsfc9_b1</title>
<path fill="none" stroke="black" d="M1226.35,-380.34C1218.23,-370.25 1209.46,-359.34 1201.39,-349.29"/>
<polygon fill="black" stroke="black" points="1204.08,-347.06 1195.09,-341.45 1198.62,-351.44 1204.08,-347.06"/>
</g>
<!-- HAsfc9_b1&#45;&gt;HAsfc9_mu -->
<g id="edge13" class="edge">
<title>HAsfc9_b1&#45;&gt;HAsfc9_mu</title>
<path fill="none" stroke="black" d="M1139.16,-282.55C1122.84,-268.51 1103.01,-251.44 1085.78,-236.61"/>
<polygon fill="black" stroke="black" points="1087.93,-233.84 1078.07,-229.97 1083.36,-239.15 1087.93,-233.84"/>
</g>
<!-- HAsfc9_mu_b1 -->
<g id="node12" class="node">
<title>HAsfc9_mu_b1</title>
<ellipse fill="none" stroke="black" cx="1088.2" cy="-418.48" rx="74.59" ry="41.09"/>
<text text-anchor="middle" x="1088.2" y="-431.08" font-family="Times,serif" font-size="14.00">HAsfc9_mu_b1</text>
<text text-anchor="middle" x="1088.2" y="-414.28" font-family="Times,serif" font-size="14.00">~</text>
<text text-anchor="middle" x="1088.2" y="-397.48" font-family="Times,serif" font-size="14.00">Normal</text>
</g>
<!-- HAsfc9_mu_b1&#45;&gt;HAsfc9_b1 -->
<g id="edge5" class="edge">
<title>HAsfc9_mu_b1&#45;&gt;HAsfc9_b1</title>
<path fill="none" stroke="black" d="M1118.05,-380.34C1126.16,-370.25 1134.93,-359.34 1143.01,-349.29"/>
<polygon fill="black" stroke="black" points="1145.77,-351.44 1149.31,-341.45 1140.31,-347.06 1145.77,-351.44"/>
</g>
<!-- HAsfc9_b2&#45;&gt;HAsfc9_mu -->
<g id="edge15" class="edge">
<title>HAsfc9_b2&#45;&gt;HAsfc9_mu</title>
<path fill="none" stroke="black" d="M1634.04,-300.38C1569.56,-286.09 1448.69,-261.15 1344.2,-249.98 1317.67,-247.15 1129.56,-250.28 1104.2,-241.98 1098.89,-240.24 1093.63,-237.87 1088.56,-235.14"/>
<polygon fill="black" stroke="black" points="1090.06,-231.97 1079.67,-229.91 1086.51,-238 1090.06,-231.97"/>
</g>
<!-- HAsfc9_mu_b2 -->
<g id="node14" class="node">
<title>HAsfc9_mu_b2</title>
<ellipse fill="none" stroke="black" cx="1764.2" cy="-418.48" rx="74.59" ry="41.09"/>
<text text-anchor="middle" x="1764.2" y="-431.08" font-family="Times,serif" font-size="14.00">HAsfc9_mu_b2</text>
<text text-anchor="middle" x="1764.2" y="-414.28" font-family="Times,serif" font-size="14.00">~</text>
<text text-anchor="middle" x="1764.2" y="-397.48" font-family="Times,serif" font-size="14.00">Normal</text>
</g>
<!-- HAsfc9_mu_b2&#45;&gt;HAsfc9_b2 -->
<g id="edge8" class="edge">
<title>HAsfc9_mu_b2&#45;&gt;HAsfc9_b2</title>
<path fill="none" stroke="black" d="M1734.35,-380.34C1726.23,-370.25 1717.46,-359.34 1709.39,-349.29"/>
<polygon fill="black" stroke="black" points="1712.08,-347.06 1703.09,-341.45 1706.62,-351.44 1712.08,-347.06"/>
</g>
<!-- HAsfc9_sigma2 -->
<g id="node15" class="node">
<title>HAsfc9_sigma2</title>
<ellipse fill="none" stroke="black" cx="1596.2" cy="-418.48" rx="75.78" ry="41.09"/>
<text text-anchor="middle" x="1596.2" y="-431.08" font-family="Times,serif" font-size="14.00">HAsfc9_sigma2</text>
<text text-anchor="middle" x="1596.2" y="-414.28" font-family="Times,serif" font-size="14.00">~</text>
<text text-anchor="middle" x="1596.2" y="-397.48" font-family="Times,serif" font-size="14.00">HalfNormal</text>
</g>
<!-- HAsfc9_sigma2&#45;&gt;HAsfc9_b2 -->
<g id="edge9" class="edge">
<title>HAsfc9_sigma2&#45;&gt;HAsfc9_b2</title>
<path fill="none" stroke="black" d="M1626.05,-380.34C1634.16,-370.25 1642.93,-359.34 1651.01,-349.29"/>
<polygon fill="black" stroke="black" points="1653.77,-351.44 1657.31,-341.45 1648.31,-347.06 1653.77,-351.44"/>
</g>
<!-- HAsfc9_sigma3 -->
<g id="node16" class="node">
<title>HAsfc9_sigma3</title>
<ellipse fill="none" stroke="black" cx="413.2" cy="-418.48" rx="75.78" ry="41.09"/>
<text text-anchor="middle" x="413.2" y="-431.08" font-family="Times,serif" font-size="14.00">HAsfc9_sigma3</text>
<text text-anchor="middle" x="413.2" y="-414.28" font-family="Times,serif" font-size="14.00">~</text>
<text text-anchor="middle" x="413.2" y="-397.48" font-family="Times,serif" font-size="14.00">HalfNormal</text>
</g>
<!-- HAsfc9_sigma3&#45;&gt;HAsfc9_b3 -->
<g id="edge11" class="edge">
<title>HAsfc9_sigma3&#45;&gt;HAsfc9_b3</title>
<path fill="none" stroke="black" d="M383.35,-380.34C375.23,-370.25 366.46,-359.34 358.39,-349.29"/>
<polygon fill="black" stroke="black" points="361.08,-347.06 352.09,-341.45 355.62,-351.44 361.08,-347.06"/>
</g>
<!-- HAsfc9_mu_b3 -->
<g id="node17" class="node">
<title>HAsfc9_mu_b3</title>
<ellipse fill="none" stroke="black" cx="245.2" cy="-418.48" rx="74.59" ry="41.09"/>
<text text-anchor="middle" x="245.2" y="-431.08" font-family="Times,serif" font-size="14.00">HAsfc9_mu_b3</text>
<text text-anchor="middle" x="245.2" y="-414.28" font-family="Times,serif" font-size="14.00">~</text>
<text text-anchor="middle" x="245.2" y="-397.48" font-family="Times,serif" font-size="14.00">Normal</text>
</g>
<!-- HAsfc9_mu_b3&#45;&gt;HAsfc9_b3 -->
<g id="edge10" class="edge">
<title>HAsfc9_mu_b3&#45;&gt;HAsfc9_b3</title>
<path fill="none" stroke="black" d="M275.05,-380.34C283.16,-370.25 291.93,-359.34 300.01,-349.29"/>
<polygon fill="black" stroke="black" points="302.77,-351.44 306.31,-341.45 297.31,-347.06 302.77,-351.44"/>
</g>
<!-- HAsfc9_b3&#45;&gt;HAsfc9_mu -->
<g id="edge16" class="edge">
<title>HAsfc9_b3&#45;&gt;HAsfc9_mu</title>
<path fill="none" stroke="black" d="M375.35,-303.94C501.47,-284.68 851.62,-231.23 988.92,-210.28"/>
<polygon fill="black" stroke="black" points="989.47,-213.73 998.82,-208.76 988.41,-206.81 989.47,-213.73"/>
</g>
<!-- HAsfc9_mu&#45;&gt;HAsfc9_y -->
<g id="edge18" class="edge">
<title>HAsfc9_mu&#45;&gt;HAsfc9_y</title>
<path fill="none" stroke="black" d="M1045.2,-171.46C1045.2,-160.08 1045.2,-146.6 1045.2,-133.63"/>
<polygon fill="black" stroke="black" points="1048.7,-133.4 1045.2,-123.4 1041.7,-133.4 1048.7,-133.4"/>
</g>
</g>
</svg>
