<?xml version="1.0" encoding="UTF-8" standalone="no"?>
<!DOCTYPE svg PUBLIC "-//W3C//DTD SVG 1.1//EN"
 "http://www.w3.org/Graphics/SVG/1.1/DTD/svg11.dtd">
<!-- Generated by graphviz version 2.42.1 (20190717.1914)
 -->
<!-- Title: R² Pages: 1 -->
<svg width="1650pt" height="484pt"
 viewBox="0.00 0.00 1650.26 483.77" xmlns="http://www.w3.org/2000/svg" xmlns:xlink="http://www.w3.org/1999/xlink">
<g id="graph0" class="graph" transform="scale(1 1) rotate(0) translate(4 479.77)">
<title>R²</title>
<polygon fill="white" stroke="transparent" points="-4,4 -4,-479.77 1646.26,-479.77 1646.26,4 -4,4"/>
<g id="clust1" class="cluster">
<title>cluster2</title>
<path fill="none" stroke="black" d="M20,-249.98C20,-249.98 267,-249.98 267,-249.98 273,-249.98 279,-255.98 279,-261.98 279,-261.98 279,-455.77 279,-455.77 279,-461.77 273,-467.77 267,-467.77 267,-467.77 20,-467.77 20,-467.77 14,-467.77 8,-461.77 8,-455.77 8,-455.77 8,-261.98 8,-261.98 8,-255.98 14,-249.98 20,-249.98"/>
<text text-anchor="middle" x="267.5" y="-258.18" font-family="Times,serif" font-size="14.00">2</text>
</g>
<g id="clust2" class="cluster">
<title>cluster11</title>
<path fill="none" stroke="black" d="M431,-249.98C431,-249.98 678,-249.98 678,-249.98 684,-249.98 690,-255.98 690,-261.98 690,-261.98 690,-455.77 690,-455.77 690,-461.77 684,-467.77 678,-467.77 678,-467.77 431,-467.77 431,-467.77 425,-467.77 419,-461.77 419,-455.77 419,-455.77 419,-261.98 419,-261.98 419,-255.98 425,-249.98 431,-249.98"/>
<text text-anchor="middle" x="675" y="-258.18" font-family="Times,serif" font-size="14.00">11</text>
</g>
<g id="clust3" class="cluster">
<title>cluster140</title>
<path fill="none" stroke="black" d="M842,-249.98C842,-249.98 1089,-249.98 1089,-249.98 1095,-249.98 1101,-255.98 1101,-261.98 1101,-261.98 1101,-455.77 1101,-455.77 1101,-461.77 1095,-467.77 1089,-467.77 1089,-467.77 842,-467.77 842,-467.77 836,-467.77 830,-461.77 830,-455.77 830,-455.77 830,-261.98 830,-261.98 830,-255.98 836,-249.98 842,-249.98"/>
<text text-anchor="middle" x="1082.5" y="-258.18" font-family="Times,serif" font-size="14.00">140</text>
</g>
<g id="clust4" class="cluster">
<title>cluster280</title>
<path fill="none" stroke="black" d="M756,-8C756,-8 844,-8 844,-8 850,-8 856,-14 856,-20 856,-20 856,-225.89 856,-225.89 856,-231.89 850,-237.89 844,-237.89 844,-237.89 756,-237.89 756,-237.89 750,-237.89 744,-231.89 744,-225.89 744,-225.89 744,-20 744,-20 744,-14 750,-8 756,-8"/>
<text text-anchor="middle" x="837.5" y="-16.2" font-family="Times,serif" font-size="14.00">280</text>
</g>
<!-- R²_b0 -->
<g id="node1" class="node">
<title>R²_b0</title>
<polygon fill="none" stroke="black" points="1423.2,-341.38 1330.8,-341.38 1330.8,-282.58 1423.2,-282.58 1423.2,-341.38"/>
<text text-anchor="middle" x="1377" y="-324.58" font-family="Times,serif" font-size="14.00">R²_b0</text>
<text text-anchor="middle" x="1377" y="-307.78" font-family="Times,serif" font-size="14.00">~</text>
<text text-anchor="middle" x="1377" y="-290.98" font-family="Times,serif" font-size="14.00">Deterministic</text>
</g>
<!-- R²_mu -->
<g id="node19" class="node">
<title>R²_mu</title>
<polygon fill="none" stroke="black" points="846.2,-230.09 753.8,-230.09 753.8,-171.28 846.2,-171.28 846.2,-230.09"/>
<text text-anchor="middle" x="800" y="-213.29" font-family="Times,serif" font-size="14.00">R²_mu</text>
<text text-anchor="middle" x="800" y="-196.49" font-family="Times,serif" font-size="14.00">~</text>
<text text-anchor="middle" x="800" y="-179.69" font-family="Times,serif" font-size="14.00">Deterministic</text>
</g>
<!-- R²_b0&#45;&gt;R²_mu -->
<g id="edge13" class="edge">
<title>R²_b0&#45;&gt;R²_mu</title>
<path fill="none" stroke="black" d="M1330.79,-297.81C1277.04,-283.15 1185.42,-260.19 1105,-249.98 1077.43,-246.48 881.27,-251.04 855,-241.98 850.09,-240.29 845.25,-237.99 840.59,-235.35"/>
<polygon fill="black" stroke="black" points="842.24,-232.25 831.91,-229.9 838.52,-238.18 842.24,-232.25"/>
</g>
<!-- R²_sigma0 -->
<g id="node2" class="node">
<title>R²_sigma0</title>
<ellipse fill="none" stroke="black" cx="1309" cy="-418.48" rx="59.91" ry="41.09"/>
<text text-anchor="middle" x="1309" y="-431.08" font-family="Times,serif" font-size="14.00">R²_sigma0</text>
<text text-anchor="middle" x="1309" y="-414.28" font-family="Times,serif" font-size="14.00">~</text>
<text text-anchor="middle" x="1309" y="-397.48" font-family="Times,serif" font-size="14.00">HalfNormal</text>
</g>
<!-- R²_sigma0&#45;&gt;R²_b0 -->
<g id="edge3" class="edge">
<title>R²_sigma0&#45;&gt;R²_b0</title>
<path fill="none" stroke="black" d="M1332.97,-380.63C1339.48,-370.64 1346.52,-359.81 1353.03,-349.81"/>
<polygon fill="black" stroke="black" points="1356.06,-351.57 1358.58,-341.28 1350.19,-347.75 1356.06,-351.57"/>
</g>
<!-- R²_sigmaY -->
<g id="node3" class="node">
<title>R²_sigmaY</title>
<ellipse fill="none" stroke="black" cx="674" cy="-200.69" rx="61.81" ry="41.09"/>
<text text-anchor="middle" x="674" y="-213.29" font-family="Times,serif" font-size="14.00">R²_sigmaY</text>
<text text-anchor="middle" x="674" y="-196.49" font-family="Times,serif" font-size="14.00">~</text>
<text text-anchor="middle" x="674" y="-179.69" font-family="Times,serif" font-size="14.00">Gamma</text>
</g>
<!-- R²_y -->
<g id="node20" class="node">
<title>R²_y</title>
<ellipse fill="lightgrey" stroke="black" cx="800" cy="-82.1" rx="47.72" ry="41.09"/>
<text text-anchor="middle" x="800" y="-94.7" font-family="Times,serif" font-size="14.00">R²_y</text>
<text text-anchor="middle" x="800" y="-77.9" font-family="Times,serif" font-size="14.00">~</text>
<text text-anchor="middle" x="800" y="-61.1" font-family="Times,serif" font-size="14.00">StudentT</text>
</g>
<!-- R²_sigmaY&#45;&gt;R²_y -->
<g id="edge18" class="edge">
<title>R²_sigmaY&#45;&gt;R²_y</title>
<path fill="none" stroke="black" d="M709.77,-166.59C725.53,-152.01 744.1,-134.82 760.28,-119.85"/>
<polygon fill="black" stroke="black" points="763.05,-122.06 768.01,-112.69 758.29,-116.92 763.05,-122.06"/>
</g>
<!-- R²_nuY -->
<g id="node4" class="node">
<title>R²_nuY</title>
<ellipse fill="none" stroke="black" cx="923" cy="-200.69" rx="59.3" ry="41.09"/>
<text text-anchor="middle" x="923" y="-213.29" font-family="Times,serif" font-size="14.00">R²_nuY</text>
<text text-anchor="middle" x="923" y="-196.49" font-family="Times,serif" font-size="14.00">~</text>
<text text-anchor="middle" x="923" y="-179.69" font-family="Times,serif" font-size="14.00">Exponential</text>
</g>
<!-- R²_nuY&#45;&gt;R²_y -->
<g id="edge19" class="edge">
<title>R²_nuY&#45;&gt;R²_y</title>
<path fill="none" stroke="black" d="M888.41,-166.9C873.14,-152.43 855.12,-135.35 839.35,-120.39"/>
<polygon fill="black" stroke="black" points="841.47,-117.58 831.8,-113.24 836.65,-122.66 841.47,-117.58"/>
</g>
<!-- R²_mu_b0 -->
<g id="node5" class="node">
<title>R²_mu_b0</title>
<ellipse fill="none" stroke="black" cx="1445" cy="-418.48" rx="58.72" ry="41.09"/>
<text text-anchor="middle" x="1445" y="-431.08" font-family="Times,serif" font-size="14.00">R²_mu_b0</text>
<text text-anchor="middle" x="1445" y="-414.28" font-family="Times,serif" font-size="14.00">~</text>
<text text-anchor="middle" x="1445" y="-397.48" font-family="Times,serif" font-size="14.00">Normal</text>
</g>
<!-- R²_mu_b0&#45;&gt;R²_b0 -->
<g id="edge1" class="edge">
<title>R²_mu_b0&#45;&gt;R²_b0</title>
<path fill="none" stroke="black" d="M1421.03,-380.63C1414.52,-370.64 1407.48,-359.81 1400.97,-349.81"/>
<polygon fill="black" stroke="black" points="1403.81,-347.75 1395.42,-341.28 1397.94,-351.57 1403.81,-347.75"/>
</g>
<!-- R²_b0_dist -->
<g id="node6" class="node">
<title>R²_b0_dist</title>
<ellipse fill="none" stroke="black" cx="1582" cy="-418.48" rx="60.02" ry="41.09"/>
<text text-anchor="middle" x="1582" y="-431.08" font-family="Times,serif" font-size="14.00">R²_b0_dist</text>
<text text-anchor="middle" x="1582" y="-414.28" font-family="Times,serif" font-size="14.00">~</text>
<text text-anchor="middle" x="1582" y="-397.48" font-family="Times,serif" font-size="14.00">Normal</text>
</g>
<!-- R²_b0_dist&#45;&gt;R²_b0 -->
<g id="edge2" class="edge">
<title>R²_b0_dist&#45;&gt;R²_b0</title>
<path fill="none" stroke="black" d="M1537.41,-390.67C1529.35,-386.05 1520.98,-381.38 1513,-377.18 1486.88,-363.42 1457.31,-349.3 1432.43,-337.81"/>
<polygon fill="black" stroke="black" points="1433.68,-334.53 1423.14,-333.54 1430.76,-340.9 1433.68,-334.53"/>
</g>
<!-- R²_b1_dist -->
<g id="node7" class="node">
<title>R²_b1_dist</title>
<ellipse fill="none" stroke="black" cx="349" cy="-418.48" rx="60.02" ry="41.09"/>
<text text-anchor="middle" x="349" y="-431.08" font-family="Times,serif" font-size="14.00">R²_b1_dist</text>
<text text-anchor="middle" x="349" y="-414.28" font-family="Times,serif" font-size="14.00">~</text>
<text text-anchor="middle" x="349" y="-397.48" font-family="Times,serif" font-size="14.00">Normal</text>
</g>
<!-- R²_b1 -->
<g id="node10" class="node">
<title>R²_b1</title>
<polygon fill="none" stroke="black" points="264.2,-341.38 171.8,-341.38 171.8,-282.58 264.2,-282.58 264.2,-341.38"/>
<text text-anchor="middle" x="218" y="-324.58" font-family="Times,serif" font-size="14.00">R²_b1</text>
<text text-anchor="middle" x="218" y="-307.78" font-family="Times,serif" font-size="14.00">~</text>
<text text-anchor="middle" x="218" y="-290.98" font-family="Times,serif" font-size="14.00">Deterministic</text>
</g>
<!-- R²_b1_dist&#45;&gt;R²_b1 -->
<g id="edge5" class="edge">
<title>R²_b1_dist&#45;&gt;R²_b1</title>
<path fill="none" stroke="black" d="M310.4,-386.69C295.11,-374.49 277.44,-360.4 261.68,-347.82"/>
<polygon fill="black" stroke="black" points="263.63,-344.9 253.63,-341.4 259.27,-350.38 263.63,-344.9"/>
</g>
<!-- R²_b3_dist -->
<g id="node8" class="node">
<title>R²_b3_dist</title>
<ellipse fill="none" stroke="black" cx="1171" cy="-418.48" rx="60.02" ry="41.09"/>
<text text-anchor="middle" x="1171" y="-431.08" font-family="Times,serif" font-size="14.00">R²_b3_dist</text>
<text text-anchor="middle" x="1171" y="-414.28" font-family="Times,serif" font-size="14.00">~</text>
<text text-anchor="middle" x="1171" y="-397.48" font-family="Times,serif" font-size="14.00">Normal</text>
</g>
<!-- R²_b3 -->
<g id="node16" class="node">
<title>R²_b3</title>
<polygon fill="none" stroke="black" points="1012.2,-341.38 919.8,-341.38 919.8,-282.58 1012.2,-282.58 1012.2,-341.38"/>
<text text-anchor="middle" x="966" y="-324.58" font-family="Times,serif" font-size="14.00">R²_b3</text>
<text text-anchor="middle" x="966" y="-307.78" font-family="Times,serif" font-size="14.00">~</text>
<text text-anchor="middle" x="966" y="-290.98" font-family="Times,serif" font-size="14.00">Deterministic</text>
</g>
<!-- R²_b3_dist&#45;&gt;R²_b3 -->
<g id="edge10" class="edge">
<title>R²_b3_dist&#45;&gt;R²_b3</title>
<path fill="none" stroke="black" d="M1127.39,-389.88C1120,-385.49 1112.34,-381.1 1105,-377.18 1078.06,-362.8 1047.3,-348.39 1021.58,-336.88"/>
<polygon fill="black" stroke="black" points="1022.91,-333.64 1012.35,-332.78 1020.07,-340.04 1022.91,-333.64"/>
</g>
<!-- R²_b2_dist -->
<g id="node9" class="node">
<title>R²_b2_dist</title>
<ellipse fill="none" stroke="black" cx="760" cy="-418.48" rx="60.02" ry="41.09"/>
<text text-anchor="middle" x="760" y="-431.08" font-family="Times,serif" font-size="14.00">R²_b2_dist</text>
<text text-anchor="middle" x="760" y="-414.28" font-family="Times,serif" font-size="14.00">~</text>
<text text-anchor="middle" x="760" y="-397.48" font-family="Times,serif" font-size="14.00">Normal</text>
</g>
<!-- R²_b2 -->
<g id="node15" class="node">
<title>R²_b2</title>
<polygon fill="none" stroke="black" points="675.2,-341.38 582.8,-341.38 582.8,-282.58 675.2,-282.58 675.2,-341.38"/>
<text text-anchor="middle" x="629" y="-324.58" font-family="Times,serif" font-size="14.00">R²_b2</text>
<text text-anchor="middle" x="629" y="-307.78" font-family="Times,serif" font-size="14.00">~</text>
<text text-anchor="middle" x="629" y="-290.98" font-family="Times,serif" font-size="14.00">Deterministic</text>
</g>
<!-- R²_b2_dist&#45;&gt;R²_b2 -->
<g id="edge9" class="edge">
<title>R²_b2_dist&#45;&gt;R²_b2</title>
<path fill="none" stroke="black" d="M721.4,-386.69C706.11,-374.49 688.44,-360.4 672.68,-347.82"/>
<polygon fill="black" stroke="black" points="674.63,-344.9 664.63,-341.4 670.27,-350.38 674.63,-344.9"/>
</g>
<!-- R²_b1&#45;&gt;R²_mu -->
<g id="edge14" class="edge">
<title>R²_b1&#45;&gt;R²_mu</title>
<path fill="none" stroke="black" d="M264.49,-292.58C303.87,-277.98 362.18,-258.63 415,-249.98 451.2,-244.05 710.28,-253.81 745,-241.98 749.92,-240.31 754.76,-238.02 759.42,-235.39"/>
<polygon fill="black" stroke="black" points="761.49,-238.22 768.11,-229.95 757.77,-232.29 761.49,-238.22"/>
</g>
<!-- R²_sigma1 -->
<g id="node11" class="node">
<title>R²_sigma1</title>
<ellipse fill="none" stroke="black" cx="211" cy="-418.48" rx="59.91" ry="41.09"/>
<text text-anchor="middle" x="211" y="-431.08" font-family="Times,serif" font-size="14.00">R²_sigma1</text>
<text text-anchor="middle" x="211" y="-414.28" font-family="Times,serif" font-size="14.00">~</text>
<text text-anchor="middle" x="211" y="-397.48" font-family="Times,serif" font-size="14.00">HalfNormal</text>
</g>
<!-- R²_sigma1&#45;&gt;R²_b1 -->
<g id="edge4" class="edge">
<title>R²_sigma1&#45;&gt;R²_b1</title>
<path fill="none" stroke="black" d="M213.71,-377.07C214.27,-368.68 214.86,-359.84 215.42,-351.51"/>
<polygon fill="black" stroke="black" points="218.93,-351.51 216.1,-341.3 211.94,-351.04 218.93,-351.51"/>
</g>
<!-- R²_mu_b1 -->
<g id="node12" class="node">
<title>R²_mu_b1</title>
<ellipse fill="none" stroke="black" cx="75" cy="-418.48" rx="58.72" ry="41.09"/>
<text text-anchor="middle" x="75" y="-431.08" font-family="Times,serif" font-size="14.00">R²_mu_b1</text>
<text text-anchor="middle" x="75" y="-414.28" font-family="Times,serif" font-size="14.00">~</text>
<text text-anchor="middle" x="75" y="-397.48" font-family="Times,serif" font-size="14.00">Normal</text>
</g>
<!-- R²_mu_b1&#45;&gt;R²_b1 -->
<g id="edge6" class="edge">
<title>R²_mu_b1&#45;&gt;R²_b1</title>
<path fill="none" stroke="black" d="M115.21,-388.09C132.55,-375.42 152.94,-360.52 170.97,-347.34"/>
<polygon fill="black" stroke="black" points="173.06,-350.15 179.07,-341.42 168.93,-344.5 173.06,-350.15"/>
</g>
<!-- R²_mu_b2 -->
<g id="node13" class="node">
<title>R²_mu_b2</title>
<ellipse fill="none" stroke="black" cx="623" cy="-418.48" rx="58.72" ry="41.09"/>
<text text-anchor="middle" x="623" y="-431.08" font-family="Times,serif" font-size="14.00">R²_mu_b2</text>
<text text-anchor="middle" x="623" y="-414.28" font-family="Times,serif" font-size="14.00">~</text>
<text text-anchor="middle" x="623" y="-397.48" font-family="Times,serif" font-size="14.00">Normal</text>
</g>
<!-- R²_mu_b2&#45;&gt;R²_b2 -->
<g id="edge7" class="edge">
<title>R²_mu_b2&#45;&gt;R²_b2</title>
<path fill="none" stroke="black" d="M625.32,-377.07C625.8,-368.68 626.31,-359.84 626.79,-351.51"/>
<polygon fill="black" stroke="black" points="630.29,-351.49 627.37,-341.3 623.31,-351.08 630.29,-351.49"/>
</g>
<!-- R²_sigma2 -->
<g id="node14" class="node">
<title>R²_sigma2</title>
<ellipse fill="none" stroke="black" cx="487" cy="-418.48" rx="59.91" ry="41.09"/>
<text text-anchor="middle" x="487" y="-431.08" font-family="Times,serif" font-size="14.00">R²_sigma2</text>
<text text-anchor="middle" x="487" y="-414.28" font-family="Times,serif" font-size="14.00">~</text>
<text text-anchor="middle" x="487" y="-397.48" font-family="Times,serif" font-size="14.00">HalfNormal</text>
</g>
<!-- R²_sigma2&#45;&gt;R²_b2 -->
<g id="edge8" class="edge">
<title>R²_sigma2&#45;&gt;R²_b2</title>
<path fill="none" stroke="black" d="M527.31,-387.81C544.36,-375.26 564.34,-360.56 582.05,-347.53"/>
<polygon fill="black" stroke="black" points="584.56,-350.03 590.54,-341.28 580.41,-344.39 584.56,-350.03"/>
</g>
<!-- R²_b2&#45;&gt;R²_mu -->
<g id="edge16" class="edge">
<title>R²_b2&#45;&gt;R²_mu</title>
<path fill="none" stroke="black" d="M675.35,-284.77C696.83,-272.28 722.53,-256.85 745,-241.98 748.04,-239.97 751.15,-237.86 754.26,-235.7"/>
<polygon fill="black" stroke="black" points="756.31,-238.54 762.47,-229.91 752.28,-232.81 756.31,-238.54"/>
</g>
<!-- R²_b3&#45;&gt;R²_mu -->
<g id="edge15" class="edge">
<title>R²_b3&#45;&gt;R²_mu</title>
<path fill="none" stroke="black" d="M919.87,-283.39C899.72,-271.06 875.96,-256.14 855,-241.98 852.12,-240.03 849.17,-238 846.22,-235.93"/>
<polygon fill="black" stroke="black" points="848.08,-232.96 837.9,-230.03 844.03,-238.67 848.08,-232.96"/>
</g>
<!-- R²_mu_b3 -->
<g id="node17" class="node">
<title>R²_mu_b3</title>
<ellipse fill="none" stroke="black" cx="1034" cy="-418.48" rx="58.72" ry="41.09"/>
<text text-anchor="middle" x="1034" y="-431.08" font-family="Times,serif" font-size="14.00">R²_mu_b3</text>
<text text-anchor="middle" x="1034" y="-414.28" font-family="Times,serif" font-size="14.00">~</text>
<text text-anchor="middle" x="1034" y="-397.48" font-family="Times,serif" font-size="14.00">Normal</text>
</g>
<!-- R²_mu_b3&#45;&gt;R²_b3 -->
<g id="edge11" class="edge">
<title>R²_mu_b3&#45;&gt;R²_b3</title>
<path fill="none" stroke="black" d="M1010.03,-380.63C1003.52,-370.64 996.48,-359.81 989.97,-349.81"/>
<polygon fill="black" stroke="black" points="992.81,-347.75 984.42,-341.28 986.94,-351.57 992.81,-347.75"/>
</g>
<!-- R²_sigma3 -->
<g id="node18" class="node">
<title>R²_sigma3</title>
<ellipse fill="none" stroke="black" cx="898" cy="-418.48" rx="59.91" ry="41.09"/>
<text text-anchor="middle" x="898" y="-431.08" font-family="Times,serif" font-size="14.00">R²_sigma3</text>
<text text-anchor="middle" x="898" y="-414.28" font-family="Times,serif" font-size="14.00">~</text>
<text text-anchor="middle" x="898" y="-397.48" font-family="Times,serif" font-size="14.00">HalfNormal</text>
</g>
<!-- R²_sigma3&#45;&gt;R²_b3 -->
<g id="edge12" class="edge">
<title>R²_sigma3&#45;&gt;R²_b3</title>
<path fill="none" stroke="black" d="M921.97,-380.63C928.48,-370.64 935.52,-359.81 942.03,-349.81"/>
<polygon fill="black" stroke="black" points="945.06,-351.57 947.58,-341.28 939.19,-347.75 945.06,-351.57"/>
</g>
<!-- R²_mu&#45;&gt;R²_y -->
<g id="edge17" class="edge">
<title>R²_mu&#45;&gt;R²_y</title>
<path fill="none" stroke="black" d="M800,-171.46C800,-160.08 800,-146.6 800,-133.63"/>
<polygon fill="black" stroke="black" points="803.5,-133.4 800,-123.4 796.5,-133.4 803.5,-133.4"/>
</g>
</g>
</svg>
