<?xml version="1.0" encoding="UTF-8" standalone="no"?>
<!DOCTYPE svg PUBLIC "-//W3C//DTD SVG 1.1//EN"
 "http://www.w3.org/Graphics/SVG/1.1/DTD/svg11.dtd">
<!-- Generated by graphviz version 2.42.1 (20190717.1914)
 -->
<!-- Title: Asfc Pages: 1 -->
<svg width="1745pt" height="484pt"
 viewBox="0.00 0.00 1745.10 483.77" xmlns="http://www.w3.org/2000/svg" xmlns:xlink="http://www.w3.org/1999/xlink">
<g id="graph0" class="graph" transform="scale(1 1) rotate(0) translate(4 479.77)">
<title>Asfc</title>
<polygon fill="white" stroke="transparent" points="-4,4 -4,-479.77 1741.1,-479.77 1741.1,4 -4,4"/>
<g id="clust1" class="cluster">
<title>cluster2</title>
<path fill="none" stroke="black" d="M20,-249.98C20,-249.98 282,-249.98 282,-249.98 288,-249.98 294,-255.98 294,-261.98 294,-261.98 294,-455.77 294,-455.77 294,-461.77 288,-467.77 282,-467.77 282,-467.77 20,-467.77 20,-467.77 14,-467.77 8,-461.77 8,-455.77 8,-455.77 8,-261.98 8,-261.98 8,-255.98 14,-249.98 20,-249.98"/>
<text text-anchor="middle" x="282.5" y="-258.18" font-family="Times,serif" font-size="14.00">2</text>
</g>
<g id="clust2" class="cluster">
<title>cluster11</title>
<path fill="none" stroke="black" d="M455,-249.98C455,-249.98 717,-249.98 717,-249.98 723,-249.98 729,-255.98 729,-261.98 729,-261.98 729,-455.77 729,-455.77 729,-461.77 723,-467.77 717,-467.77 717,-467.77 455,-467.77 455,-467.77 449,-467.77 443,-461.77 443,-455.77 443,-455.77 443,-261.98 443,-261.98 443,-255.98 449,-249.98 455,-249.98"/>
<text text-anchor="middle" x="714" y="-258.18" font-family="Times,serif" font-size="14.00">11</text>
</g>
<g id="clust3" class="cluster">
<title>cluster140</title>
<path fill="none" stroke="black" d="M889,-249.98C889,-249.98 1151,-249.98 1151,-249.98 1157,-249.98 1163,-255.98 1163,-261.98 1163,-261.98 1163,-455.77 1163,-455.77 1163,-461.77 1157,-467.77 1151,-467.77 1151,-467.77 889,-467.77 889,-467.77 883,-467.77 877,-461.77 877,-455.77 877,-455.77 877,-261.98 877,-261.98 877,-255.98 883,-249.98 889,-249.98"/>
<text text-anchor="middle" x="1144.5" y="-258.18" font-family="Times,serif" font-size="14.00">140</text>
</g>
<g id="clust4" class="cluster">
<title>cluster280</title>
<path fill="none" stroke="black" d="M804,-8C804,-8 892,-8 892,-8 898,-8 904,-14 904,-20 904,-20 904,-225.89 904,-225.89 904,-231.89 898,-237.89 892,-237.89 892,-237.89 804,-237.89 804,-237.89 798,-237.89 792,-231.89 792,-225.89 792,-225.89 792,-20 792,-20 792,-14 798,-8 804,-8"/>
<text text-anchor="middle" x="885.5" y="-16.2" font-family="Times,serif" font-size="14.00">280</text>
</g>
<!-- Asfc_mu_b0 -->
<g id="node1" class="node">
<title>Asfc_mu_b0</title>
<ellipse fill="none" stroke="black" cx="1383" cy="-418.48" rx="62.4" ry="41.09"/>
<text text-anchor="middle" x="1383" y="-431.08" font-family="Times,serif" font-size="14.00">Asfc_mu_b0</text>
<text text-anchor="middle" x="1383" y="-414.28" font-family="Times,serif" font-size="14.00">~</text>
<text text-anchor="middle" x="1383" y="-397.48" font-family="Times,serif" font-size="14.00">Normal</text>
</g>
<!-- Asfc_b0 -->
<g id="node4" class="node">
<title>Asfc_b0</title>
<polygon fill="none" stroke="black" points="1501.2,-341.38 1408.8,-341.38 1408.8,-282.58 1501.2,-282.58 1501.2,-341.38"/>
<text text-anchor="middle" x="1455" y="-324.58" font-family="Times,serif" font-size="14.00">Asfc_b0</text>
<text text-anchor="middle" x="1455" y="-307.78" font-family="Times,serif" font-size="14.00">~</text>
<text text-anchor="middle" x="1455" y="-290.98" font-family="Times,serif" font-size="14.00">Deterministic</text>
</g>
<!-- Asfc_mu_b0&#45;&gt;Asfc_b0 -->
<g id="edge2" class="edge">
<title>Asfc_mu_b0&#45;&gt;Asfc_b0</title>
<path fill="none" stroke="black" d="M1408.38,-380.63C1415.27,-370.64 1422.73,-359.81 1429.62,-349.81"/>
<polygon fill="black" stroke="black" points="1432.71,-351.5 1435.5,-341.28 1426.94,-347.53 1432.71,-351.5"/>
</g>
<!-- Asfc_b1_dist -->
<g id="node2" class="node">
<title>Asfc_b1_dist</title>
<ellipse fill="none" stroke="black" cx="368" cy="-418.48" rx="64.2" ry="41.09"/>
<text text-anchor="middle" x="368" y="-431.08" font-family="Times,serif" font-size="14.00">Asfc_b1_dist</text>
<text text-anchor="middle" x="368" y="-414.28" font-family="Times,serif" font-size="14.00">~</text>
<text text-anchor="middle" x="368" y="-397.48" font-family="Times,serif" font-size="14.00">Normal</text>
</g>
<!-- Asfc_b1 -->
<g id="node12" class="node">
<title>Asfc_b1</title>
<polygon fill="none" stroke="black" points="277.2,-341.38 184.8,-341.38 184.8,-282.58 277.2,-282.58 277.2,-341.38"/>
<text text-anchor="middle" x="231" y="-324.58" font-family="Times,serif" font-size="14.00">Asfc_b1</text>
<text text-anchor="middle" x="231" y="-307.78" font-family="Times,serif" font-size="14.00">~</text>
<text text-anchor="middle" x="231" y="-290.98" font-family="Times,serif" font-size="14.00">Deterministic</text>
</g>
<!-- Asfc_b1_dist&#45;&gt;Asfc_b1 -->
<g id="edge6" class="edge">
<title>Asfc_b1_dist&#45;&gt;Asfc_b1</title>
<path fill="none" stroke="black" d="M327.27,-386.41C311.28,-374.21 292.87,-360.17 276.45,-347.65"/>
<polygon fill="black" stroke="black" points="278.15,-344.54 268.07,-341.26 273.9,-350.1 278.15,-344.54"/>
</g>
<!-- Asfc_nuY -->
<g id="node3" class="node">
<title>Asfc_nuY</title>
<ellipse fill="none" stroke="black" cx="971" cy="-200.69" rx="59.3" ry="41.09"/>
<text text-anchor="middle" x="971" y="-213.29" font-family="Times,serif" font-size="14.00">Asfc_nuY</text>
<text text-anchor="middle" x="971" y="-196.49" font-family="Times,serif" font-size="14.00">~</text>
<text text-anchor="middle" x="971" y="-179.69" font-family="Times,serif" font-size="14.00">Exponential</text>
</g>
<!-- Asfc_y -->
<g id="node20" class="node">
<title>Asfc_y</title>
<ellipse fill="lightgrey" stroke="black" cx="848" cy="-82.1" rx="47.72" ry="41.09"/>
<text text-anchor="middle" x="848" y="-94.7" font-family="Times,serif" font-size="14.00">Asfc_y</text>
<text text-anchor="middle" x="848" y="-77.9" font-family="Times,serif" font-size="14.00">~</text>
<text text-anchor="middle" x="848" y="-61.1" font-family="Times,serif" font-size="14.00">StudentT</text>
</g>
<!-- Asfc_nuY&#45;&gt;Asfc_y -->
<g id="edge19" class="edge">
<title>Asfc_nuY&#45;&gt;Asfc_y</title>
<path fill="none" stroke="black" d="M936.41,-166.9C921.14,-152.43 903.12,-135.35 887.35,-120.39"/>
<polygon fill="black" stroke="black" points="889.47,-117.58 879.8,-113.24 884.65,-122.66 889.47,-117.58"/>
</g>
<!-- Asfc_mu -->
<g id="node19" class="node">
<title>Asfc_mu</title>
<polygon fill="none" stroke="black" points="894.2,-230.09 801.8,-230.09 801.8,-171.28 894.2,-171.28 894.2,-230.09"/>
<text text-anchor="middle" x="848" y="-213.29" font-family="Times,serif" font-size="14.00">Asfc_mu</text>
<text text-anchor="middle" x="848" y="-196.49" font-family="Times,serif" font-size="14.00">~</text>
<text text-anchor="middle" x="848" y="-179.69" font-family="Times,serif" font-size="14.00">Deterministic</text>
</g>
<!-- Asfc_b0&#45;&gt;Asfc_mu -->
<g id="edge15" class="edge">
<title>Asfc_b0&#45;&gt;Asfc_mu</title>
<path fill="none" stroke="black" d="M1408.54,-298.46C1351.96,-283.84 1253.27,-260.34 1167,-249.98 1137.86,-246.48 930.75,-251.53 903,-241.98 898.09,-240.29 893.25,-238 888.59,-235.36"/>
<polygon fill="black" stroke="black" points="890.24,-232.26 879.91,-229.91 886.52,-238.19 890.24,-232.26"/>
</g>
<!-- Asfc_sigma0 -->
<g id="node5" class="node">
<title>Asfc_sigma0</title>
<ellipse fill="none" stroke="black" cx="1527" cy="-418.48" rx="63.59" ry="41.09"/>
<text text-anchor="middle" x="1527" y="-431.08" font-family="Times,serif" font-size="14.00">Asfc_sigma0</text>
<text text-anchor="middle" x="1527" y="-414.28" font-family="Times,serif" font-size="14.00">~</text>
<text text-anchor="middle" x="1527" y="-397.48" font-family="Times,serif" font-size="14.00">HalfNormal</text>
</g>
<!-- Asfc_sigma0&#45;&gt;Asfc_b0 -->
<g id="edge3" class="edge">
<title>Asfc_sigma0&#45;&gt;Asfc_b0</title>
<path fill="none" stroke="black" d="M1501.41,-380.34C1494.6,-370.45 1487.24,-359.77 1480.43,-349.89"/>
<polygon fill="black" stroke="black" points="1483.18,-347.7 1474.62,-341.45 1477.41,-351.67 1483.18,-347.7"/>
</g>
<!-- Asfc_b0_dist -->
<g id="node6" class="node">
<title>Asfc_b0_dist</title>
<ellipse fill="none" stroke="black" cx="1673" cy="-418.48" rx="64.2" ry="41.09"/>
<text text-anchor="middle" x="1673" y="-431.08" font-family="Times,serif" font-size="14.00">Asfc_b0_dist</text>
<text text-anchor="middle" x="1673" y="-414.28" font-family="Times,serif" font-size="14.00">~</text>
<text text-anchor="middle" x="1673" y="-397.48" font-family="Times,serif" font-size="14.00">Normal</text>
</g>
<!-- Asfc_b0_dist&#45;&gt;Asfc_b0 -->
<g id="edge1" class="edge">
<title>Asfc_b0_dist&#45;&gt;Asfc_b0</title>
<path fill="none" stroke="black" d="M1625.41,-390.43C1617.01,-385.88 1608.3,-381.3 1600,-377.18 1570.88,-362.73 1537.77,-347.95 1510.56,-336.22"/>
<polygon fill="black" stroke="black" points="1511.76,-332.93 1501.19,-332.21 1509,-339.36 1511.76,-332.93"/>
</g>
<!-- Asfc_sigmaY -->
<g id="node7" class="node">
<title>Asfc_sigmaY</title>
<ellipse fill="none" stroke="black" cx="1114" cy="-200.69" rx="65.99" ry="41.09"/>
<text text-anchor="middle" x="1114" y="-213.29" font-family="Times,serif" font-size="14.00">Asfc_sigmaY</text>
<text text-anchor="middle" x="1114" y="-196.49" font-family="Times,serif" font-size="14.00">~</text>
<text text-anchor="middle" x="1114" y="-179.69" font-family="Times,serif" font-size="14.00">Gamma</text>
</g>
<!-- Asfc_sigmaY&#45;&gt;Asfc_y -->
<g id="edge17" class="edge">
<title>Asfc_sigmaY&#45;&gt;Asfc_y</title>
<path fill="none" stroke="black" d="M1065.59,-172.65C1056.83,-168.05 1047.71,-163.45 1039,-159.39 993.36,-138.1 940.03,-117.11 901.34,-102.55"/>
<polygon fill="black" stroke="black" points="902.43,-99.22 891.83,-98.99 899.97,-105.77 902.43,-99.22"/>
</g>
<!-- Asfc_b2_dist -->
<g id="node8" class="node">
<title>Asfc_b2_dist</title>
<ellipse fill="none" stroke="black" cx="803" cy="-418.48" rx="64.2" ry="41.09"/>
<text text-anchor="middle" x="803" y="-431.08" font-family="Times,serif" font-size="14.00">Asfc_b2_dist</text>
<text text-anchor="middle" x="803" y="-414.28" font-family="Times,serif" font-size="14.00">~</text>
<text text-anchor="middle" x="803" y="-397.48" font-family="Times,serif" font-size="14.00">Normal</text>
</g>
<!-- Asfc_b2 -->
<g id="node15" class="node">
<title>Asfc_b2</title>
<polygon fill="none" stroke="black" points="712.2,-341.38 619.8,-341.38 619.8,-282.58 712.2,-282.58 712.2,-341.38"/>
<text text-anchor="middle" x="666" y="-324.58" font-family="Times,serif" font-size="14.00">Asfc_b2</text>
<text text-anchor="middle" x="666" y="-307.78" font-family="Times,serif" font-size="14.00">~</text>
<text text-anchor="middle" x="666" y="-290.98" font-family="Times,serif" font-size="14.00">Deterministic</text>
</g>
<!-- Asfc_b2_dist&#45;&gt;Asfc_b2 -->
<g id="edge8" class="edge">
<title>Asfc_b2_dist&#45;&gt;Asfc_b2</title>
<path fill="none" stroke="black" d="M762.27,-386.41C746.28,-374.21 727.87,-360.17 711.45,-347.65"/>
<polygon fill="black" stroke="black" points="713.15,-344.54 703.07,-341.26 708.9,-350.1 713.15,-344.54"/>
</g>
<!-- Asfc_b3_dist -->
<g id="node9" class="node">
<title>Asfc_b3_dist</title>
<ellipse fill="none" stroke="black" cx="1238" cy="-418.48" rx="64.2" ry="41.09"/>
<text text-anchor="middle" x="1238" y="-431.08" font-family="Times,serif" font-size="14.00">Asfc_b3_dist</text>
<text text-anchor="middle" x="1238" y="-414.28" font-family="Times,serif" font-size="14.00">~</text>
<text text-anchor="middle" x="1238" y="-397.48" font-family="Times,serif" font-size="14.00">Normal</text>
</g>
<!-- Asfc_b3 -->
<g id="node17" class="node">
<title>Asfc_b3</title>
<polygon fill="none" stroke="black" points="1067.2,-341.38 974.8,-341.38 974.8,-282.58 1067.2,-282.58 1067.2,-341.38"/>
<text text-anchor="middle" x="1021" y="-324.58" font-family="Times,serif" font-size="14.00">Asfc_b3</text>
<text text-anchor="middle" x="1021" y="-307.78" font-family="Times,serif" font-size="14.00">~</text>
<text text-anchor="middle" x="1021" y="-290.98" font-family="Times,serif" font-size="14.00">Deterministic</text>
</g>
<!-- Asfc_b3_dist&#45;&gt;Asfc_b3 -->
<g id="edge11" class="edge">
<title>Asfc_b3_dist&#45;&gt;Asfc_b3</title>
<path fill="none" stroke="black" d="M1191.01,-389.92C1183.07,-385.52 1174.85,-381.12 1167,-377.18 1137.67,-362.46 1104.2,-347.6 1076.72,-335.9"/>
<polygon fill="black" stroke="black" points="1077.83,-332.57 1067.26,-331.9 1075.1,-339.02 1077.83,-332.57"/>
</g>
<!-- Asfc_sigma1 -->
<g id="node10" class="node">
<title>Asfc_sigma1</title>
<ellipse fill="none" stroke="black" cx="222" cy="-418.48" rx="63.59" ry="41.09"/>
<text text-anchor="middle" x="222" y="-431.08" font-family="Times,serif" font-size="14.00">Asfc_sigma1</text>
<text text-anchor="middle" x="222" y="-414.28" font-family="Times,serif" font-size="14.00">~</text>
<text text-anchor="middle" x="222" y="-397.48" font-family="Times,serif" font-size="14.00">HalfNormal</text>
</g>
<!-- Asfc_sigma1&#45;&gt;Asfc_b1 -->
<g id="edge4" class="edge">
<title>Asfc_sigma1&#45;&gt;Asfc_b1</title>
<path fill="none" stroke="black" d="M225.48,-377.07C226.2,-368.68 226.96,-359.84 227.68,-351.51"/>
<polygon fill="black" stroke="black" points="231.19,-351.56 228.56,-341.3 224.22,-350.96 231.19,-351.56"/>
</g>
<!-- Asfc_mu_b1 -->
<g id="node11" class="node">
<title>Asfc_mu_b1</title>
<ellipse fill="none" stroke="black" cx="78" cy="-418.48" rx="62.4" ry="41.09"/>
<text text-anchor="middle" x="78" y="-431.08" font-family="Times,serif" font-size="14.00">Asfc_mu_b1</text>
<text text-anchor="middle" x="78" y="-414.28" font-family="Times,serif" font-size="14.00">~</text>
<text text-anchor="middle" x="78" y="-397.48" font-family="Times,serif" font-size="14.00">Normal</text>
</g>
<!-- Asfc_mu_b1&#45;&gt;Asfc_b1 -->
<g id="edge5" class="edge">
<title>Asfc_mu_b1&#45;&gt;Asfc_b1</title>
<path fill="none" stroke="black" d="M121.03,-388.09C139.74,-375.31 161.77,-360.26 181.19,-347"/>
<polygon fill="black" stroke="black" points="183.33,-349.78 189.61,-341.25 179.38,-344 183.33,-349.78"/>
</g>
<!-- Asfc_b1&#45;&gt;Asfc_mu -->
<g id="edge13" class="edge">
<title>Asfc_b1&#45;&gt;Asfc_mu</title>
<path fill="none" stroke="black" d="M277.11,-295.03C318.9,-281.17 382.4,-261.54 439,-249.98 563.37,-224.59 711.93,-211.19 791.33,-205.36"/>
<polygon fill="black" stroke="black" points="791.87,-208.83 801.6,-204.62 791.37,-201.85 791.87,-208.83"/>
</g>
<!-- Asfc_sigma2 -->
<g id="node13" class="node">
<title>Asfc_sigma2</title>
<ellipse fill="none" stroke="black" cx="657" cy="-418.48" rx="63.59" ry="41.09"/>
<text text-anchor="middle" x="657" y="-431.08" font-family="Times,serif" font-size="14.00">Asfc_sigma2</text>
<text text-anchor="middle" x="657" y="-414.28" font-family="Times,serif" font-size="14.00">~</text>
<text text-anchor="middle" x="657" y="-397.48" font-family="Times,serif" font-size="14.00">HalfNormal</text>
</g>
<!-- Asfc_sigma2&#45;&gt;Asfc_b2 -->
<g id="edge7" class="edge">
<title>Asfc_sigma2&#45;&gt;Asfc_b2</title>
<path fill="none" stroke="black" d="M660.48,-377.07C661.2,-368.68 661.96,-359.84 662.68,-351.51"/>
<polygon fill="black" stroke="black" points="666.19,-351.56 663.56,-341.3 659.22,-350.96 666.19,-351.56"/>
</g>
<!-- Asfc_mu_b2 -->
<g id="node14" class="node">
<title>Asfc_mu_b2</title>
<ellipse fill="none" stroke="black" cx="513" cy="-418.48" rx="62.4" ry="41.09"/>
<text text-anchor="middle" x="513" y="-431.08" font-family="Times,serif" font-size="14.00">Asfc_mu_b2</text>
<text text-anchor="middle" x="513" y="-414.28" font-family="Times,serif" font-size="14.00">~</text>
<text text-anchor="middle" x="513" y="-397.48" font-family="Times,serif" font-size="14.00">Normal</text>
</g>
<!-- Asfc_mu_b2&#45;&gt;Asfc_b2 -->
<g id="edge9" class="edge">
<title>Asfc_mu_b2&#45;&gt;Asfc_b2</title>
<path fill="none" stroke="black" d="M556.03,-388.09C574.74,-375.31 596.77,-360.26 616.19,-347"/>
<polygon fill="black" stroke="black" points="618.33,-349.78 624.61,-341.25 614.38,-344 618.33,-349.78"/>
</g>
<!-- Asfc_b2&#45;&gt;Asfc_mu -->
<g id="edge16" class="edge">
<title>Asfc_b2&#45;&gt;Asfc_mu</title>
<path fill="none" stroke="black" d="M712.4,-283.12C736.89,-268.41 767.11,-250.26 792.81,-234.83"/>
<polygon fill="black" stroke="black" points="794.92,-237.65 801.69,-229.5 791.31,-231.64 794.92,-237.65"/>
</g>
<!-- Asfc_mu_b3 -->
<g id="node16" class="node">
<title>Asfc_mu_b3</title>
<ellipse fill="none" stroke="black" cx="1093" cy="-418.48" rx="62.4" ry="41.09"/>
<text text-anchor="middle" x="1093" y="-431.08" font-family="Times,serif" font-size="14.00">Asfc_mu_b3</text>
<text text-anchor="middle" x="1093" y="-414.28" font-family="Times,serif" font-size="14.00">~</text>
<text text-anchor="middle" x="1093" y="-397.48" font-family="Times,serif" font-size="14.00">Normal</text>
</g>
<!-- Asfc_mu_b3&#45;&gt;Asfc_b3 -->
<g id="edge10" class="edge">
<title>Asfc_mu_b3&#45;&gt;Asfc_b3</title>
<path fill="none" stroke="black" d="M1067.62,-380.63C1060.73,-370.64 1053.27,-359.81 1046.38,-349.81"/>
<polygon fill="black" stroke="black" points="1049.06,-347.53 1040.5,-341.28 1043.29,-351.5 1049.06,-347.53"/>
</g>
<!-- Asfc_b3&#45;&gt;Asfc_mu -->
<g id="edge14" class="edge">
<title>Asfc_b3&#45;&gt;Asfc_mu</title>
<path fill="none" stroke="black" d="M974.66,-285.35C952.63,-272.8 926.11,-257.15 903,-241.98 899.95,-239.98 896.84,-237.88 893.72,-235.72"/>
<polygon fill="black" stroke="black" points="895.7,-232.84 885.51,-229.95 891.68,-238.57 895.7,-232.84"/>
</g>
<!-- Asfc_sigma3 -->
<g id="node18" class="node">
<title>Asfc_sigma3</title>
<ellipse fill="none" stroke="black" cx="949" cy="-418.48" rx="63.59" ry="41.09"/>
<text text-anchor="middle" x="949" y="-431.08" font-family="Times,serif" font-size="14.00">Asfc_sigma3</text>
<text text-anchor="middle" x="949" y="-414.28" font-family="Times,serif" font-size="14.00">~</text>
<text text-anchor="middle" x="949" y="-397.48" font-family="Times,serif" font-size="14.00">HalfNormal</text>
</g>
<!-- Asfc_sigma3&#45;&gt;Asfc_b3 -->
<g id="edge12" class="edge">
<title>Asfc_sigma3&#45;&gt;Asfc_b3</title>
<path fill="none" stroke="black" d="M974.59,-380.34C981.4,-370.45 988.76,-359.77 995.57,-349.89"/>
<polygon fill="black" stroke="black" points="998.59,-351.67 1001.38,-341.45 992.82,-347.7 998.59,-351.67"/>
</g>
<!-- Asfc_mu&#45;&gt;Asfc_y -->
<g id="edge18" class="edge">
<title>Asfc_mu&#45;&gt;Asfc_y</title>
<path fill="none" stroke="black" d="M848,-171.46C848,-160.08 848,-146.6 848,-133.63"/>
<polygon fill="black" stroke="black" points="851.5,-133.4 848,-123.4 844.5,-133.4 851.5,-133.4"/>
</g>
</g>
</svg>
