<?xml version="1.0" encoding="UTF-8" standalone="no"?>
<!DOCTYPE svg PUBLIC "-//W3C//DTD SVG 1.1//EN"
 "http://www.w3.org/Graphics/SVG/1.1/DTD/svg11.dtd">
<!-- Generated by graphviz version 2.42.1 (20190717.1914)
 -->
<!-- Title: epLsar Pages: 1 -->
<svg width="1922pt" height="484pt"
 viewBox="0.00 0.00 1921.69 483.77" xmlns="http://www.w3.org/2000/svg" xmlns:xlink="http://www.w3.org/1999/xlink">
<g id="graph0" class="graph" transform="scale(1 1) rotate(0) translate(4 479.77)">
<title>epLsar</title>
<polygon fill="white" stroke="transparent" points="-4,4 -4,-479.77 1917.69,-479.77 1917.69,4 -4,4"/>
<g id="clust1" class="cluster">
<title>cluster2</title>
<path fill="none" stroke="black" d="M166.35,-249.98C166.35,-249.98 461.35,-249.98 461.35,-249.98 467.35,-249.98 473.35,-255.98 473.35,-261.98 473.35,-261.98 473.35,-455.77 473.35,-455.77 473.35,-461.77 467.35,-467.77 461.35,-467.77 461.35,-467.77 166.35,-467.77 166.35,-467.77 160.35,-467.77 154.35,-461.77 154.35,-455.77 154.35,-455.77 154.35,-261.98 154.35,-261.98 154.35,-255.98 160.35,-249.98 166.35,-249.98"/>
<text text-anchor="middle" x="461.85" y="-258.18" font-family="Times,serif" font-size="14.00">2</text>
</g>
<g id="clust2" class="cluster">
<title>cluster11</title>
<path fill="none" stroke="black" d="M969.35,-249.98C969.35,-249.98 1264.35,-249.98 1264.35,-249.98 1270.35,-249.98 1276.35,-255.98 1276.35,-261.98 1276.35,-261.98 1276.35,-455.77 1276.35,-455.77 1276.35,-461.77 1270.35,-467.77 1264.35,-467.77 1264.35,-467.77 969.35,-467.77 969.35,-467.77 963.35,-467.77 957.35,-461.77 957.35,-455.77 957.35,-455.77 957.35,-261.98 957.35,-261.98 957.35,-255.98 963.35,-249.98 969.35,-249.98"/>
<text text-anchor="middle" x="1261.35" y="-258.18" font-family="Times,serif" font-size="14.00">11</text>
</g>
<g id="clust3" class="cluster">
<title>cluster140</title>
<path fill="none" stroke="black" d="M1452.35,-249.98C1452.35,-249.98 1747.35,-249.98 1747.35,-249.98 1753.35,-249.98 1759.35,-255.98 1759.35,-261.98 1759.35,-261.98 1759.35,-455.77 1759.35,-455.77 1759.35,-461.77 1753.35,-467.77 1747.35,-467.77 1747.35,-467.77 1452.35,-467.77 1452.35,-467.77 1446.35,-467.77 1440.35,-461.77 1440.35,-455.77 1440.35,-455.77 1440.35,-261.98 1440.35,-261.98 1440.35,-255.98 1446.35,-249.98 1452.35,-249.98"/>
<text text-anchor="middle" x="1740.85" y="-258.18" font-family="Times,serif" font-size="14.00">140</text>
</g>
<g id="clust4" class="cluster">
<title>cluster280</title>
<path fill="none" stroke="black" d="M952.35,-8C952.35,-8 1040.35,-8 1040.35,-8 1046.35,-8 1052.35,-14 1052.35,-20 1052.35,-20 1052.35,-225.89 1052.35,-225.89 1052.35,-231.89 1046.35,-237.89 1040.35,-237.89 1040.35,-237.89 952.35,-237.89 952.35,-237.89 946.35,-237.89 940.35,-231.89 940.35,-225.89 940.35,-225.89 940.35,-20 940.35,-20 940.35,-14 946.35,-8 952.35,-8"/>
<text text-anchor="middle" x="1033.85" y="-16.2" font-family="Times,serif" font-size="14.00">280</text>
</g>
<!-- epLsar_b1_dist -->
<g id="node1" class="node">
<title>epLsar_b1_dist</title>
<ellipse fill="none" stroke="black" cx="72.35" cy="-418.48" rx="72.19" ry="41.09"/>
<text text-anchor="middle" x="72.35" y="-431.08" font-family="Times,serif" font-size="14.00">epLsar_b1_dist</text>
<text text-anchor="middle" x="72.35" y="-414.28" font-family="Times,serif" font-size="14.00">~</text>
<text text-anchor="middle" x="72.35" y="-397.48" font-family="Times,serif" font-size="14.00">Normal</text>
</g>
<!-- epLsar_b1 -->
<g id="node12" class="node">
<title>epLsar_b1</title>
<polygon fill="none" stroke="black" points="359.55,-341.38 267.15,-341.38 267.15,-282.58 359.55,-282.58 359.55,-341.38"/>
<text text-anchor="middle" x="313.35" y="-324.58" font-family="Times,serif" font-size="14.00">epLsar_b1</text>
<text text-anchor="middle" x="313.35" y="-307.78" font-family="Times,serif" font-size="14.00">~</text>
<text text-anchor="middle" x="313.35" y="-290.98" font-family="Times,serif" font-size="14.00">Deterministic</text>
</g>
<!-- epLsar_b1_dist&#45;&gt;epLsar_b1 -->
<g id="edge4" class="edge">
<title>epLsar_b1_dist&#45;&gt;epLsar_b1</title>
<path fill="none" stroke="black" d="M124.43,-389.64C133.02,-385.32 141.88,-381.02 150.35,-377.18 185.49,-361.23 225.83,-345.32 257.59,-333.33"/>
<polygon fill="black" stroke="black" points="259.03,-336.53 267.16,-329.74 256.56,-329.98 259.03,-336.53"/>
</g>
<!-- epLsar_mu_b0 -->
<g id="node2" class="node">
<title>epLsar_mu_b0</title>
<ellipse fill="none" stroke="black" cx="553.35" cy="-418.48" rx="70.89" ry="41.09"/>
<text text-anchor="middle" x="553.35" y="-431.08" font-family="Times,serif" font-size="14.00">epLsar_mu_b0</text>
<text text-anchor="middle" x="553.35" y="-414.28" font-family="Times,serif" font-size="14.00">~</text>
<text text-anchor="middle" x="553.35" y="-397.48" font-family="Times,serif" font-size="14.00">Normal</text>
</g>
<!-- epLsar_b0 -->
<g id="node8" class="node">
<title>epLsar_b0</title>
<polygon fill="none" stroke="black" points="840.55,-341.38 748.15,-341.38 748.15,-282.58 840.55,-282.58 840.55,-341.38"/>
<text text-anchor="middle" x="794.35" y="-324.58" font-family="Times,serif" font-size="14.00">epLsar_b0</text>
<text text-anchor="middle" x="794.35" y="-307.78" font-family="Times,serif" font-size="14.00">~</text>
<text text-anchor="middle" x="794.35" y="-290.98" font-family="Times,serif" font-size="14.00">Deterministic</text>
</g>
<!-- epLsar_mu_b0&#45;&gt;epLsar_b0 -->
<g id="edge3" class="edge">
<title>epLsar_mu_b0&#45;&gt;epLsar_b0</title>
<path fill="none" stroke="black" d="M605.28,-390.11C614.23,-385.64 623.51,-381.18 632.35,-377.18 667.2,-361.43 707.14,-345.58 738.64,-333.57"/>
<polygon fill="black" stroke="black" points="740.02,-336.79 748.13,-329.97 737.53,-330.24 740.02,-336.79"/>
</g>
<!-- epLsar_b2_dist -->
<g id="node3" class="node">
<title>epLsar_b2_dist</title>
<ellipse fill="none" stroke="black" cx="1358.35" cy="-418.48" rx="72.19" ry="41.09"/>
<text text-anchor="middle" x="1358.35" y="-431.08" font-family="Times,serif" font-size="14.00">epLsar_b2_dist</text>
<text text-anchor="middle" x="1358.35" y="-414.28" font-family="Times,serif" font-size="14.00">~</text>
<text text-anchor="middle" x="1358.35" y="-397.48" font-family="Times,serif" font-size="14.00">Normal</text>
</g>
<!-- epLsar_b2 -->
<g id="node13" class="node">
<title>epLsar_b2</title>
<polygon fill="none" stroke="black" points="1163.55,-341.38 1071.15,-341.38 1071.15,-282.58 1163.55,-282.58 1163.55,-341.38"/>
<text text-anchor="middle" x="1117.35" y="-324.58" font-family="Times,serif" font-size="14.00">epLsar_b2</text>
<text text-anchor="middle" x="1117.35" y="-307.78" font-family="Times,serif" font-size="14.00">~</text>
<text text-anchor="middle" x="1117.35" y="-290.98" font-family="Times,serif" font-size="14.00">Deterministic</text>
</g>
<!-- epLsar_b2_dist&#45;&gt;epLsar_b2 -->
<g id="edge9" class="edge">
<title>epLsar_b2_dist&#45;&gt;epLsar_b2</title>
<path fill="none" stroke="black" d="M1306.26,-389.64C1297.67,-385.32 1288.81,-381.02 1280.35,-377.18 1245.21,-361.23 1204.86,-345.32 1173.1,-333.33"/>
<polygon fill="black" stroke="black" points="1174.13,-329.98 1163.54,-329.74 1171.67,-336.53 1174.13,-329.98"/>
</g>
<!-- epLsar_sigma0 -->
<g id="node4" class="node">
<title>epLsar_sigma0</title>
<ellipse fill="none" stroke="black" cx="713.35" cy="-418.48" rx="71.58" ry="41.09"/>
<text text-anchor="middle" x="713.35" y="-431.08" font-family="Times,serif" font-size="14.00">epLsar_sigma0</text>
<text text-anchor="middle" x="713.35" y="-414.28" font-family="Times,serif" font-size="14.00">~</text>
<text text-anchor="middle" x="713.35" y="-397.48" font-family="Times,serif" font-size="14.00">HalfNormal</text>
</g>
<!-- epLsar_sigma0&#45;&gt;epLsar_b0 -->
<g id="edge2" class="edge">
<title>epLsar_sigma0&#45;&gt;epLsar_b0</title>
<path fill="none" stroke="black" d="M742.13,-380.34C749.88,-370.35 758.25,-359.55 765.97,-349.59"/>
<polygon fill="black" stroke="black" points="768.91,-351.5 772.27,-341.45 763.38,-347.21 768.91,-351.5"/>
</g>
<!-- epLsar_nuY -->
<g id="node5" class="node">
<title>epLsar_nuY</title>
<ellipse fill="none" stroke="black" cx="1120.35" cy="-200.69" rx="60.48" ry="41.09"/>
<text text-anchor="middle" x="1120.35" y="-213.29" font-family="Times,serif" font-size="14.00">epLsar_nuY</text>
<text text-anchor="middle" x="1120.35" y="-196.49" font-family="Times,serif" font-size="14.00">~</text>
<text text-anchor="middle" x="1120.35" y="-179.69" font-family="Times,serif" font-size="14.00">Exponential</text>
</g>
<!-- epLsar_y -->
<g id="node20" class="node">
<title>epLsar_y</title>
<ellipse fill="lightgrey" stroke="black" cx="996.35" cy="-82.1" rx="48.29" ry="41.09"/>
<text text-anchor="middle" x="996.35" y="-94.7" font-family="Times,serif" font-size="14.00">epLsar_y</text>
<text text-anchor="middle" x="996.35" y="-77.9" font-family="Times,serif" font-size="14.00">~</text>
<text text-anchor="middle" x="996.35" y="-61.1" font-family="Times,serif" font-size="14.00">StudentT</text>
</g>
<!-- epLsar_nuY&#45;&gt;epLsar_y -->
<g id="edge18" class="edge">
<title>epLsar_nuY&#45;&gt;epLsar_y</title>
<path fill="none" stroke="black" d="M1085.48,-166.9C1070.09,-152.43 1051.92,-135.35 1036.01,-120.39"/>
<polygon fill="black" stroke="black" points="1038.09,-117.54 1028.41,-113.24 1033.3,-122.64 1038.09,-117.54"/>
</g>
<!-- epLsar_b3_dist -->
<g id="node6" class="node">
<title>epLsar_b3_dist</title>
<ellipse fill="none" stroke="black" cx="1841.35" cy="-418.48" rx="72.19" ry="41.09"/>
<text text-anchor="middle" x="1841.35" y="-431.08" font-family="Times,serif" font-size="14.00">epLsar_b3_dist</text>
<text text-anchor="middle" x="1841.35" y="-414.28" font-family="Times,serif" font-size="14.00">~</text>
<text text-anchor="middle" x="1841.35" y="-397.48" font-family="Times,serif" font-size="14.00">Normal</text>
</g>
<!-- epLsar_b3 -->
<g id="node17" class="node">
<title>epLsar_b3</title>
<polygon fill="none" stroke="black" points="1646.55,-341.38 1554.15,-341.38 1554.15,-282.58 1646.55,-282.58 1646.55,-341.38"/>
<text text-anchor="middle" x="1600.35" y="-324.58" font-family="Times,serif" font-size="14.00">epLsar_b3</text>
<text text-anchor="middle" x="1600.35" y="-307.78" font-family="Times,serif" font-size="14.00">~</text>
<text text-anchor="middle" x="1600.35" y="-290.98" font-family="Times,serif" font-size="14.00">Deterministic</text>
</g>
<!-- epLsar_b3_dist&#45;&gt;epLsar_b3 -->
<g id="edge11" class="edge">
<title>epLsar_b3_dist&#45;&gt;epLsar_b3</title>
<path fill="none" stroke="black" d="M1789.26,-389.64C1780.67,-385.32 1771.81,-381.02 1763.35,-377.18 1728.21,-361.23 1687.86,-345.32 1656.1,-333.33"/>
<polygon fill="black" stroke="black" points="1657.13,-329.98 1646.54,-329.74 1654.67,-336.53 1657.13,-329.98"/>
</g>
<!-- epLsar_sigmaY -->
<g id="node7" class="node">
<title>epLsar_sigmaY</title>
<ellipse fill="none" stroke="black" cx="1272.35" cy="-200.69" rx="73.97" ry="41.09"/>
<text text-anchor="middle" x="1272.35" y="-213.29" font-family="Times,serif" font-size="14.00">epLsar_sigmaY</text>
<text text-anchor="middle" x="1272.35" y="-196.49" font-family="Times,serif" font-size="14.00">~</text>
<text text-anchor="middle" x="1272.35" y="-179.69" font-family="Times,serif" font-size="14.00">Gamma</text>
</g>
<!-- epLsar_sigmaY&#45;&gt;epLsar_y -->
<g id="edge19" class="edge">
<title>epLsar_sigmaY&#45;&gt;epLsar_y</title>
<path fill="none" stroke="black" d="M1217.7,-172.44C1208.3,-167.95 1198.58,-163.45 1189.35,-159.39 1142.82,-138.94 1088.98,-117.86 1050,-103.06"/>
<polygon fill="black" stroke="black" points="1051.02,-99.7 1040.43,-99.43 1048.54,-106.25 1051.02,-99.7"/>
</g>
<!-- epLsar_mu -->
<g id="node19" class="node">
<title>epLsar_mu</title>
<polygon fill="none" stroke="black" points="1042.55,-230.09 950.15,-230.09 950.15,-171.28 1042.55,-171.28 1042.55,-230.09"/>
<text text-anchor="middle" x="996.35" y="-213.29" font-family="Times,serif" font-size="14.00">epLsar_mu</text>
<text text-anchor="middle" x="996.35" y="-196.49" font-family="Times,serif" font-size="14.00">~</text>
<text text-anchor="middle" x="996.35" y="-179.69" font-family="Times,serif" font-size="14.00">Deterministic</text>
</g>
<!-- epLsar_b0&#45;&gt;epLsar_mu -->
<g id="edge13" class="edge">
<title>epLsar_b0&#45;&gt;epLsar_mu</title>
<path fill="none" stroke="black" d="M840.69,-285.91C870.58,-269.73 909.62,-248.61 941.13,-231.56"/>
<polygon fill="black" stroke="black" points="943.09,-234.48 950.22,-226.64 939.76,-228.32 943.09,-234.48"/>
</g>
<!-- epLsar_b0_dist -->
<g id="node9" class="node">
<title>epLsar_b0_dist</title>
<ellipse fill="none" stroke="black" cx="875.35" cy="-418.48" rx="72.19" ry="41.09"/>
<text text-anchor="middle" x="875.35" y="-431.08" font-family="Times,serif" font-size="14.00">epLsar_b0_dist</text>
<text text-anchor="middle" x="875.35" y="-414.28" font-family="Times,serif" font-size="14.00">~</text>
<text text-anchor="middle" x="875.35" y="-397.48" font-family="Times,serif" font-size="14.00">Normal</text>
</g>
<!-- epLsar_b0_dist&#45;&gt;epLsar_b0 -->
<g id="edge1" class="edge">
<title>epLsar_b0_dist&#45;&gt;epLsar_b0</title>
<path fill="none" stroke="black" d="M846.56,-380.34C838.82,-370.35 830.45,-359.55 822.72,-349.59"/>
<polygon fill="black" stroke="black" points="825.31,-347.21 816.42,-341.45 819.78,-351.5 825.31,-347.21"/>
</g>
<!-- epLsar_sigma1 -->
<g id="node10" class="node">
<title>epLsar_sigma1</title>
<ellipse fill="none" stroke="black" cx="393.35" cy="-418.48" rx="71.58" ry="41.09"/>
<text text-anchor="middle" x="393.35" y="-431.08" font-family="Times,serif" font-size="14.00">epLsar_sigma1</text>
<text text-anchor="middle" x="393.35" y="-414.28" font-family="Times,serif" font-size="14.00">~</text>
<text text-anchor="middle" x="393.35" y="-397.48" font-family="Times,serif" font-size="14.00">HalfNormal</text>
</g>
<!-- epLsar_sigma1&#45;&gt;epLsar_b1 -->
<g id="edge5" class="edge">
<title>epLsar_sigma1&#45;&gt;epLsar_b1</title>
<path fill="none" stroke="black" d="M364.92,-380.34C357.27,-370.35 349,-359.55 341.37,-349.59"/>
<polygon fill="black" stroke="black" points="344,-347.27 335.15,-341.45 338.45,-351.52 344,-347.27"/>
</g>
<!-- epLsar_mu_b1 -->
<g id="node11" class="node">
<title>epLsar_mu_b1</title>
<ellipse fill="none" stroke="black" cx="233.35" cy="-418.48" rx="70.89" ry="41.09"/>
<text text-anchor="middle" x="233.35" y="-431.08" font-family="Times,serif" font-size="14.00">epLsar_mu_b1</text>
<text text-anchor="middle" x="233.35" y="-414.28" font-family="Times,serif" font-size="14.00">~</text>
<text text-anchor="middle" x="233.35" y="-397.48" font-family="Times,serif" font-size="14.00">Normal</text>
</g>
<!-- epLsar_mu_b1&#45;&gt;epLsar_b1 -->
<g id="edge6" class="edge">
<title>epLsar_mu_b1&#45;&gt;epLsar_b1</title>
<path fill="none" stroke="black" d="M261.78,-380.34C269.43,-370.35 277.69,-359.55 285.32,-349.59"/>
<polygon fill="black" stroke="black" points="288.25,-351.52 291.55,-341.45 282.69,-347.27 288.25,-351.52"/>
</g>
<!-- epLsar_b1&#45;&gt;epLsar_mu -->
<g id="edge16" class="edge">
<title>epLsar_b1&#45;&gt;epLsar_mu</title>
<path fill="none" stroke="black" d="M359.49,-303.6C480.69,-284.2 807.83,-231.85 939.9,-210.72"/>
<polygon fill="black" stroke="black" points="940.5,-214.17 949.82,-209.13 939.4,-207.25 940.5,-214.17"/>
</g>
<!-- epLsar_b2&#45;&gt;epLsar_mu -->
<g id="edge14" class="edge">
<title>epLsar_b2&#45;&gt;epLsar_mu</title>
<path fill="none" stroke="black" d="M1085.87,-282.55C1070.47,-268.63 1051.77,-251.75 1035.46,-237.01"/>
<polygon fill="black" stroke="black" points="1037.43,-234.08 1027.66,-229.97 1032.74,-239.27 1037.43,-234.08"/>
</g>
<!-- epLsar_mu_b2 -->
<g id="node14" class="node">
<title>epLsar_mu_b2</title>
<ellipse fill="none" stroke="black" cx="1197.35" cy="-418.48" rx="70.89" ry="41.09"/>
<text text-anchor="middle" x="1197.35" y="-431.08" font-family="Times,serif" font-size="14.00">epLsar_mu_b2</text>
<text text-anchor="middle" x="1197.35" y="-414.28" font-family="Times,serif" font-size="14.00">~</text>
<text text-anchor="middle" x="1197.35" y="-397.48" font-family="Times,serif" font-size="14.00">Normal</text>
</g>
<!-- epLsar_mu_b2&#45;&gt;epLsar_b2 -->
<g id="edge7" class="edge">
<title>epLsar_mu_b2&#45;&gt;epLsar_b2</title>
<path fill="none" stroke="black" d="M1168.92,-380.34C1161.27,-370.35 1153,-359.55 1145.37,-349.59"/>
<polygon fill="black" stroke="black" points="1148,-347.27 1139.15,-341.45 1142.45,-351.52 1148,-347.27"/>
</g>
<!-- epLsar_sigma2 -->
<g id="node15" class="node">
<title>epLsar_sigma2</title>
<ellipse fill="none" stroke="black" cx="1037.35" cy="-418.48" rx="71.58" ry="41.09"/>
<text text-anchor="middle" x="1037.35" y="-431.08" font-family="Times,serif" font-size="14.00">epLsar_sigma2</text>
<text text-anchor="middle" x="1037.35" y="-414.28" font-family="Times,serif" font-size="14.00">~</text>
<text text-anchor="middle" x="1037.35" y="-397.48" font-family="Times,serif" font-size="14.00">HalfNormal</text>
</g>
<!-- epLsar_sigma2&#45;&gt;epLsar_b2 -->
<g id="edge8" class="edge">
<title>epLsar_sigma2&#45;&gt;epLsar_b2</title>
<path fill="none" stroke="black" d="M1065.78,-380.34C1073.43,-370.35 1081.69,-359.55 1089.32,-349.59"/>
<polygon fill="black" stroke="black" points="1092.25,-351.52 1095.55,-341.45 1086.69,-347.27 1092.25,-351.52"/>
</g>
<!-- epLsar_mu_b3 -->
<g id="node16" class="node">
<title>epLsar_mu_b3</title>
<ellipse fill="none" stroke="black" cx="1680.35" cy="-418.48" rx="70.89" ry="41.09"/>
<text text-anchor="middle" x="1680.35" y="-431.08" font-family="Times,serif" font-size="14.00">epLsar_mu_b3</text>
<text text-anchor="middle" x="1680.35" y="-414.28" font-family="Times,serif" font-size="14.00">~</text>
<text text-anchor="middle" x="1680.35" y="-397.48" font-family="Times,serif" font-size="14.00">Normal</text>
</g>
<!-- epLsar_mu_b3&#45;&gt;epLsar_b3 -->
<g id="edge10" class="edge">
<title>epLsar_mu_b3&#45;&gt;epLsar_b3</title>
<path fill="none" stroke="black" d="M1651.92,-380.34C1644.27,-370.35 1636,-359.55 1628.37,-349.59"/>
<polygon fill="black" stroke="black" points="1631,-347.27 1622.15,-341.45 1625.45,-351.52 1631,-347.27"/>
</g>
<!-- epLsar_b3&#45;&gt;epLsar_mu -->
<g id="edge15" class="edge">
<title>epLsar_b3&#45;&gt;epLsar_mu</title>
<path fill="none" stroke="black" d="M1554.05,-299.84C1492.12,-285.46 1378.7,-261.01 1280.35,-249.98 1255.04,-247.14 1075.4,-250.32 1051.35,-241.98 1046.44,-240.28 1041.6,-237.98 1036.95,-235.33"/>
<polygon fill="black" stroke="black" points="1038.59,-232.23 1028.26,-229.89 1034.87,-238.16 1038.59,-232.23"/>
</g>
<!-- epLsar_sigma3 -->
<g id="node18" class="node">
<title>epLsar_sigma3</title>
<ellipse fill="none" stroke="black" cx="1520.35" cy="-418.48" rx="71.58" ry="41.09"/>
<text text-anchor="middle" x="1520.35" y="-431.08" font-family="Times,serif" font-size="14.00">epLsar_sigma3</text>
<text text-anchor="middle" x="1520.35" y="-414.28" font-family="Times,serif" font-size="14.00">~</text>
<text text-anchor="middle" x="1520.35" y="-397.48" font-family="Times,serif" font-size="14.00">HalfNormal</text>
</g>
<!-- epLsar_sigma3&#45;&gt;epLsar_b3 -->
<g id="edge12" class="edge">
<title>epLsar_sigma3&#45;&gt;epLsar_b3</title>
<path fill="none" stroke="black" d="M1548.78,-380.34C1556.43,-370.35 1564.69,-359.55 1572.32,-349.59"/>
<polygon fill="black" stroke="black" points="1575.25,-351.52 1578.55,-341.45 1569.69,-347.27 1575.25,-351.52"/>
</g>
<!-- epLsar_mu&#45;&gt;epLsar_y -->
<g id="edge17" class="edge">
<title>epLsar_mu&#45;&gt;epLsar_y</title>
<path fill="none" stroke="black" d="M996.35,-171.46C996.35,-160.08 996.35,-146.6 996.35,-133.63"/>
<polygon fill="black" stroke="black" points="999.85,-133.4 996.35,-123.4 992.85,-133.4 999.85,-133.4"/>
</g>
</g>
</svg>
