<?xml version="1.0" encoding="UTF-8" standalone="no"?>
<!DOCTYPE svg PUBLIC "-//W3C//DTD SVG 1.1//EN"
 "http://www.w3.org/Graphics/SVG/1.1/DTD/svg11.dtd">
<!-- Generated by graphviz version 2.42.1 (20190717.1914)
 -->
<!-- Title: HAsfc9 Pages: 1 -->
<svg width="2035pt" height="484pt"
 viewBox="0.00 0.00 2034.55 483.77" xmlns="http://www.w3.org/2000/svg" xmlns:xlink="http://www.w3.org/1999/xlink">
<g id="graph0" class="graph" transform="scale(1 1) rotate(0) translate(4 479.77)">
<title>HAsfc9</title>
<polygon fill="white" stroke="transparent" points="-4,4 -4,-479.77 2030.55,-479.77 2030.55,4 -4,4"/>
<g id="clust1" class="cluster">
<title>cluster2</title>
<path fill="none" stroke="black" d="M20,-249.98C20,-249.98 331,-249.98 331,-249.98 337,-249.98 343,-255.98 343,-261.98 343,-261.98 343,-455.77 343,-455.77 343,-461.77 337,-467.77 331,-467.77 331,-467.77 20,-467.77 20,-467.77 14,-467.77 8,-461.77 8,-455.77 8,-455.77 8,-261.98 8,-261.98 8,-255.98 14,-249.98 20,-249.98"/>
<text text-anchor="middle" x="331.5" y="-258.18" font-family="Times,serif" font-size="14.00">2</text>
</g>
<g id="clust2" class="cluster">
<title>cluster11</title>
<path fill="none" stroke="black" d="M527,-249.98C527,-249.98 838,-249.98 838,-249.98 844,-249.98 850,-255.98 850,-261.98 850,-261.98 850,-455.77 850,-455.77 850,-461.77 844,-467.77 838,-467.77 838,-467.77 527,-467.77 527,-467.77 521,-467.77 515,-461.77 515,-455.77 515,-455.77 515,-261.98 515,-261.98 515,-255.98 521,-249.98 527,-249.98"/>
<text text-anchor="middle" x="835" y="-258.18" font-family="Times,serif" font-size="14.00">11</text>
</g>
<g id="clust3" class="cluster">
<title>cluster140</title>
<path fill="none" stroke="black" d="M1034,-249.98C1034,-249.98 1345,-249.98 1345,-249.98 1351,-249.98 1357,-255.98 1357,-261.98 1357,-261.98 1357,-455.77 1357,-455.77 1357,-461.77 1351,-467.77 1345,-467.77 1345,-467.77 1034,-467.77 1034,-467.77 1028,-467.77 1022,-461.77 1022,-455.77 1022,-455.77 1022,-261.98 1022,-261.98 1022,-255.98 1028,-249.98 1034,-249.98"/>
<text text-anchor="middle" x="1338.5" y="-258.18" font-family="Times,serif" font-size="14.00">140</text>
</g>
<g id="clust4" class="cluster">
<title>cluster280</title>
<path fill="none" stroke="black" d="M944,-8C944,-8 1040,-8 1040,-8 1046,-8 1052,-14 1052,-20 1052,-20 1052,-225.89 1052,-225.89 1052,-231.89 1046,-237.89 1040,-237.89 1040,-237.89 944,-237.89 944,-237.89 938,-237.89 932,-231.89 932,-225.89 932,-225.89 932,-20 932,-20 932,-14 938,-8 944,-8"/>
<text text-anchor="middle" x="1033.5" y="-16.2" font-family="Times,serif" font-size="14.00">280</text>
</g>
<!-- HAsfc9_sigma0 -->
<g id="node1" class="node">
<title>HAsfc9_sigma0</title>
<ellipse fill="none" stroke="black" cx="1613" cy="-418.48" rx="75.78" ry="41.09"/>
<text text-anchor="middle" x="1613" y="-431.08" font-family="Times,serif" font-size="14.00">HAsfc9_sigma0</text>
<text text-anchor="middle" x="1613" y="-414.28" font-family="Times,serif" font-size="14.00">~</text>
<text text-anchor="middle" x="1613" y="-397.48" font-family="Times,serif" font-size="14.00">HalfNormal</text>
</g>
<!-- HAsfc9_b0 -->
<g id="node5" class="node">
<title>HAsfc9_b0</title>
<polygon fill="none" stroke="black" points="1744.2,-341.38 1651.8,-341.38 1651.8,-282.58 1744.2,-282.58 1744.2,-341.38"/>
<text text-anchor="middle" x="1698" y="-324.58" font-family="Times,serif" font-size="14.00">HAsfc9_b0</text>
<text text-anchor="middle" x="1698" y="-307.78" font-family="Times,serif" font-size="14.00">~</text>
<text text-anchor="middle" x="1698" y="-290.98" font-family="Times,serif" font-size="14.00">Deterministic</text>
</g>
<!-- HAsfc9_sigma0&#45;&gt;HAsfc9_b0 -->
<g id="edge1" class="edge">
<title>HAsfc9_sigma0&#45;&gt;HAsfc9_b0</title>
<path fill="none" stroke="black" d="M1643.21,-380.34C1651.42,-370.25 1660.29,-359.34 1668.46,-349.29"/>
<polygon fill="black" stroke="black" points="1671.24,-351.42 1674.84,-341.45 1665.81,-347 1671.24,-351.42"/>
</g>
<!-- HAsfc9_b0_dist -->
<g id="node2" class="node">
<title>HAsfc9_b0_dist</title>
<ellipse fill="none" stroke="black" cx="1783" cy="-418.48" rx="76.39" ry="41.09"/>
<text text-anchor="middle" x="1783" y="-431.08" font-family="Times,serif" font-size="14.00">HAsfc9_b0_dist</text>
<text text-anchor="middle" x="1783" y="-414.28" font-family="Times,serif" font-size="14.00">~</text>
<text text-anchor="middle" x="1783" y="-397.48" font-family="Times,serif" font-size="14.00">Normal</text>
</g>
<!-- HAsfc9_b0_dist&#45;&gt;HAsfc9_b0 -->
<g id="edge2" class="edge">
<title>HAsfc9_b0_dist&#45;&gt;HAsfc9_b0</title>
<path fill="none" stroke="black" d="M1752.79,-380.34C1744.58,-370.25 1735.71,-359.34 1727.54,-349.29"/>
<polygon fill="black" stroke="black" points="1730.19,-347 1721.16,-341.45 1724.76,-351.42 1730.19,-347"/>
</g>
<!-- HAsfc9_b2_dist -->
<g id="node3" class="node">
<title>HAsfc9_b2_dist</title>
<ellipse fill="none" stroke="black" cx="936" cy="-418.48" rx="76.39" ry="41.09"/>
<text text-anchor="middle" x="936" y="-431.08" font-family="Times,serif" font-size="14.00">HAsfc9_b2_dist</text>
<text text-anchor="middle" x="936" y="-414.28" font-family="Times,serif" font-size="14.00">~</text>
<text text-anchor="middle" x="936" y="-397.48" font-family="Times,serif" font-size="14.00">Normal</text>
</g>
<!-- HAsfc9_b2 -->
<g id="node14" class="node">
<title>HAsfc9_b2</title>
<polygon fill="none" stroke="black" points="827.2,-341.38 734.8,-341.38 734.8,-282.58 827.2,-282.58 827.2,-341.38"/>
<text text-anchor="middle" x="781" y="-324.58" font-family="Times,serif" font-size="14.00">HAsfc9_b2</text>
<text text-anchor="middle" x="781" y="-307.78" font-family="Times,serif" font-size="14.00">~</text>
<text text-anchor="middle" x="781" y="-290.98" font-family="Times,serif" font-size="14.00">Deterministic</text>
</g>
<!-- HAsfc9_b2_dist&#45;&gt;HAsfc9_b2 -->
<g id="edge7" class="edge">
<title>HAsfc9_b2_dist&#45;&gt;HAsfc9_b2</title>
<path fill="none" stroke="black" d="M889.07,-385.84C870.84,-373.55 849.91,-359.44 831.36,-346.93"/>
<polygon fill="black" stroke="black" points="833.27,-344 823.03,-341.31 829.36,-349.8 833.27,-344"/>
</g>
<!-- HAsfc9_nuY -->
<g id="node4" class="node">
<title>HAsfc9_nuY</title>
<ellipse fill="none" stroke="black" cx="1124" cy="-200.69" rx="64.18" ry="41.09"/>
<text text-anchor="middle" x="1124" y="-213.29" font-family="Times,serif" font-size="14.00">HAsfc9_nuY</text>
<text text-anchor="middle" x="1124" y="-196.49" font-family="Times,serif" font-size="14.00">~</text>
<text text-anchor="middle" x="1124" y="-179.69" font-family="Times,serif" font-size="14.00">Exponential</text>
</g>
<!-- HAsfc9_y -->
<g id="node20" class="node">
<title>HAsfc9_y</title>
<ellipse fill="lightgrey" stroke="black" cx="992" cy="-82.1" rx="51.99" ry="41.09"/>
<text text-anchor="middle" x="992" y="-94.7" font-family="Times,serif" font-size="14.00">HAsfc9_y</text>
<text text-anchor="middle" x="992" y="-77.9" font-family="Times,serif" font-size="14.00">~</text>
<text text-anchor="middle" x="992" y="-61.1" font-family="Times,serif" font-size="14.00">StudentT</text>
</g>
<!-- HAsfc9_nuY&#45;&gt;HAsfc9_y -->
<g id="edge19" class="edge">
<title>HAsfc9_nuY&#45;&gt;HAsfc9_y</title>
<path fill="none" stroke="black" d="M1086.88,-166.9C1070.48,-152.41 1051.12,-135.31 1034.17,-120.35"/>
<polygon fill="black" stroke="black" points="1036.39,-117.63 1026.58,-113.64 1031.76,-122.88 1036.39,-117.63"/>
</g>
<!-- HAsfc9_mu -->
<g id="node19" class="node">
<title>HAsfc9_mu</title>
<polygon fill="none" stroke="black" points="1038.2,-230.09 945.8,-230.09 945.8,-171.28 1038.2,-171.28 1038.2,-230.09"/>
<text text-anchor="middle" x="992" y="-213.29" font-family="Times,serif" font-size="14.00">HAsfc9_mu</text>
<text text-anchor="middle" x="992" y="-196.49" font-family="Times,serif" font-size="14.00">~</text>
<text text-anchor="middle" x="992" y="-179.69" font-family="Times,serif" font-size="14.00">Deterministic</text>
</g>
<!-- HAsfc9_b0&#45;&gt;HAsfc9_mu -->
<g id="edge13" class="edge">
<title>HAsfc9_b0&#45;&gt;HAsfc9_mu</title>
<path fill="none" stroke="black" d="M1651.71,-300.27C1587.05,-285.85 1465.84,-260.76 1361,-249.98 1326.72,-246.46 1083.79,-252.57 1051,-241.98 1045.69,-240.26 1040.42,-237.91 1035.35,-235.19"/>
<polygon fill="black" stroke="black" points="1036.85,-232.01 1026.45,-229.96 1033.3,-238.04 1036.85,-232.01"/>
</g>
<!-- HAsfc9_sigmaY -->
<g id="node6" class="node">
<title>HAsfc9_sigmaY</title>
<ellipse fill="none" stroke="black" cx="1284" cy="-200.69" rx="77.68" ry="41.09"/>
<text text-anchor="middle" x="1284" y="-213.29" font-family="Times,serif" font-size="14.00">HAsfc9_sigmaY</text>
<text text-anchor="middle" x="1284" y="-196.49" font-family="Times,serif" font-size="14.00">~</text>
<text text-anchor="middle" x="1284" y="-179.69" font-family="Times,serif" font-size="14.00">Gamma</text>
</g>
<!-- HAsfc9_sigmaY&#45;&gt;HAsfc9_y -->
<g id="edge18" class="edge">
<title>HAsfc9_sigmaY&#45;&gt;HAsfc9_y</title>
<path fill="none" stroke="black" d="M1226.72,-172.39C1216.86,-167.92 1206.68,-163.43 1197,-159.39 1147.51,-138.76 1090.26,-117.68 1048.86,-102.92"/>
<polygon fill="black" stroke="black" points="1049.81,-99.54 1039.22,-99.5 1047.47,-106.14 1049.81,-99.54"/>
</g>
<!-- HAsfc9_b1_dist -->
<g id="node7" class="node">
<title>HAsfc9_b1_dist</title>
<ellipse fill="none" stroke="black" cx="429" cy="-418.48" rx="76.39" ry="41.09"/>
<text text-anchor="middle" x="429" y="-431.08" font-family="Times,serif" font-size="14.00">HAsfc9_b1_dist</text>
<text text-anchor="middle" x="429" y="-414.28" font-family="Times,serif" font-size="14.00">~</text>
<text text-anchor="middle" x="429" y="-397.48" font-family="Times,serif" font-size="14.00">Normal</text>
</g>
<!-- HAsfc9_b1 -->
<g id="node11" class="node">
<title>HAsfc9_b1</title>
<polygon fill="none" stroke="black" points="320.2,-341.38 227.8,-341.38 227.8,-282.58 320.2,-282.58 320.2,-341.38"/>
<text text-anchor="middle" x="274" y="-324.58" font-family="Times,serif" font-size="14.00">HAsfc9_b1</text>
<text text-anchor="middle" x="274" y="-307.78" font-family="Times,serif" font-size="14.00">~</text>
<text text-anchor="middle" x="274" y="-290.98" font-family="Times,serif" font-size="14.00">Deterministic</text>
</g>
<!-- HAsfc9_b1_dist&#45;&gt;HAsfc9_b1 -->
<g id="edge5" class="edge">
<title>HAsfc9_b1_dist&#45;&gt;HAsfc9_b1</title>
<path fill="none" stroke="black" d="M382.07,-385.84C363.84,-373.55 342.91,-359.44 324.36,-346.93"/>
<polygon fill="black" stroke="black" points="326.27,-344 316.03,-341.31 322.36,-349.8 326.27,-344"/>
</g>
<!-- HAsfc9_b3_dist -->
<g id="node8" class="node">
<title>HAsfc9_b3_dist</title>
<ellipse fill="none" stroke="black" cx="1443" cy="-418.48" rx="76.39" ry="41.09"/>
<text text-anchor="middle" x="1443" y="-431.08" font-family="Times,serif" font-size="14.00">HAsfc9_b3_dist</text>
<text text-anchor="middle" x="1443" y="-414.28" font-family="Times,serif" font-size="14.00">~</text>
<text text-anchor="middle" x="1443" y="-397.48" font-family="Times,serif" font-size="14.00">Normal</text>
</g>
<!-- HAsfc9_b3 -->
<g id="node18" class="node">
<title>HAsfc9_b3</title>
<polygon fill="none" stroke="black" points="1235.2,-341.38 1142.8,-341.38 1142.8,-282.58 1235.2,-282.58 1235.2,-341.38"/>
<text text-anchor="middle" x="1189" y="-324.58" font-family="Times,serif" font-size="14.00">HAsfc9_b3</text>
<text text-anchor="middle" x="1189" y="-307.78" font-family="Times,serif" font-size="14.00">~</text>
<text text-anchor="middle" x="1189" y="-290.98" font-family="Times,serif" font-size="14.00">Deterministic</text>
</g>
<!-- HAsfc9_b3_dist&#45;&gt;HAsfc9_b3 -->
<g id="edge12" class="edge">
<title>HAsfc9_b3_dist&#45;&gt;HAsfc9_b3</title>
<path fill="none" stroke="black" d="M1388.22,-389.62C1379.19,-385.3 1369.89,-381.01 1361,-377.18 1322.77,-360.7 1278.78,-344.33 1244.86,-332.24"/>
<polygon fill="black" stroke="black" points="1245.72,-328.83 1235.12,-328.79 1243.38,-335.43 1245.72,-328.83"/>
</g>
<!-- HAsfc9_mu_b0 -->
<g id="node9" class="node">
<title>HAsfc9_mu_b0</title>
<ellipse fill="none" stroke="black" cx="1952" cy="-418.48" rx="74.59" ry="41.09"/>
<text text-anchor="middle" x="1952" y="-431.08" font-family="Times,serif" font-size="14.00">HAsfc9_mu_b0</text>
<text text-anchor="middle" x="1952" y="-414.28" font-family="Times,serif" font-size="14.00">~</text>
<text text-anchor="middle" x="1952" y="-397.48" font-family="Times,serif" font-size="14.00">Normal</text>
</g>
<!-- HAsfc9_mu_b0&#45;&gt;HAsfc9_b0 -->
<g id="edge3" class="edge">
<title>HAsfc9_mu_b0&#45;&gt;HAsfc9_b0</title>
<path fill="none" stroke="black" d="M1897.19,-390.35C1887.53,-385.81 1877.52,-381.25 1868,-377.18 1830.38,-361.09 1787.24,-344.82 1753.84,-332.69"/>
<polygon fill="black" stroke="black" points="1754.84,-329.33 1744.24,-329.22 1752.46,-335.91 1754.84,-329.33"/>
</g>
<!-- HAsfc9_sigma1 -->
<g id="node10" class="node">
<title>HAsfc9_sigma1</title>
<ellipse fill="none" stroke="black" cx="259" cy="-418.48" rx="75.78" ry="41.09"/>
<text text-anchor="middle" x="259" y="-431.08" font-family="Times,serif" font-size="14.00">HAsfc9_sigma1</text>
<text text-anchor="middle" x="259" y="-414.28" font-family="Times,serif" font-size="14.00">~</text>
<text text-anchor="middle" x="259" y="-397.48" font-family="Times,serif" font-size="14.00">HalfNormal</text>
</g>
<!-- HAsfc9_sigma1&#45;&gt;HAsfc9_b1 -->
<g id="edge4" class="edge">
<title>HAsfc9_sigma1&#45;&gt;HAsfc9_b1</title>
<path fill="none" stroke="black" d="M264.8,-377.07C266.02,-368.58 267.3,-359.65 268.51,-351.24"/>
<polygon fill="black" stroke="black" points="271.98,-351.7 269.93,-341.3 265.05,-350.7 271.98,-351.7"/>
</g>
<!-- HAsfc9_b1&#45;&gt;HAsfc9_mu -->
<g id="edge15" class="edge">
<title>HAsfc9_b1&#45;&gt;HAsfc9_mu</title>
<path fill="none" stroke="black" d="M320.31,-296.83C367.75,-282.87 443.86,-261.92 511,-249.98 663.17,-222.92 845.31,-209.8 935.56,-204.57"/>
<polygon fill="black" stroke="black" points="935.8,-208.06 945.58,-204 935.4,-201.07 935.8,-208.06"/>
</g>
<!-- HAsfc9_mu_b1 -->
<g id="node12" class="node">
<title>HAsfc9_mu_b1</title>
<ellipse fill="none" stroke="black" cx="91" cy="-418.48" rx="74.59" ry="41.09"/>
<text text-anchor="middle" x="91" y="-431.08" font-family="Times,serif" font-size="14.00">HAsfc9_mu_b1</text>
<text text-anchor="middle" x="91" y="-414.28" font-family="Times,serif" font-size="14.00">~</text>
<text text-anchor="middle" x="91" y="-397.48" font-family="Times,serif" font-size="14.00">Normal</text>
</g>
<!-- HAsfc9_mu_b1&#45;&gt;HAsfc9_b1 -->
<g id="edge6" class="edge">
<title>HAsfc9_mu_b1&#45;&gt;HAsfc9_b1</title>
<path fill="none" stroke="black" d="M142.46,-388.09C166.28,-374.49 194.61,-358.31 218.87,-344.46"/>
<polygon fill="black" stroke="black" points="220.66,-347.47 227.61,-339.47 217.19,-341.39 220.66,-347.47"/>
</g>
<!-- HAsfc9_mu_b2 -->
<g id="node13" class="node">
<title>HAsfc9_mu_b2</title>
<ellipse fill="none" stroke="black" cx="767" cy="-418.48" rx="74.59" ry="41.09"/>
<text text-anchor="middle" x="767" y="-431.08" font-family="Times,serif" font-size="14.00">HAsfc9_mu_b2</text>
<text text-anchor="middle" x="767" y="-414.28" font-family="Times,serif" font-size="14.00">~</text>
<text text-anchor="middle" x="767" y="-397.48" font-family="Times,serif" font-size="14.00">Normal</text>
</g>
<!-- HAsfc9_mu_b2&#45;&gt;HAsfc9_b2 -->
<g id="edge8" class="edge">
<title>HAsfc9_mu_b2&#45;&gt;HAsfc9_b2</title>
<path fill="none" stroke="black" d="M772.41,-377.07C773.55,-368.58 774.75,-359.65 775.87,-351.24"/>
<polygon fill="black" stroke="black" points="779.35,-351.68 777.21,-341.3 772.41,-350.75 779.35,-351.68"/>
</g>
<!-- HAsfc9_b2&#45;&gt;HAsfc9_mu -->
<g id="edge14" class="edge">
<title>HAsfc9_b2&#45;&gt;HAsfc9_mu</title>
<path fill="none" stroke="black" d="M827.3,-286.99C859.6,-270.27 902.83,-247.87 936.9,-230.22"/>
<polygon fill="black" stroke="black" points="938.53,-233.32 945.8,-225.61 935.31,-227.11 938.53,-233.32"/>
</g>
<!-- HAsfc9_sigma2 -->
<g id="node15" class="node">
<title>HAsfc9_sigma2</title>
<ellipse fill="none" stroke="black" cx="599" cy="-418.48" rx="75.78" ry="41.09"/>
<text text-anchor="middle" x="599" y="-431.08" font-family="Times,serif" font-size="14.00">HAsfc9_sigma2</text>
<text text-anchor="middle" x="599" y="-414.28" font-family="Times,serif" font-size="14.00">~</text>
<text text-anchor="middle" x="599" y="-397.48" font-family="Times,serif" font-size="14.00">HalfNormal</text>
</g>
<!-- HAsfc9_sigma2&#45;&gt;HAsfc9_b2 -->
<g id="edge9" class="edge">
<title>HAsfc9_sigma2&#45;&gt;HAsfc9_b2</title>
<path fill="none" stroke="black" d="M650.67,-387.81C674.15,-374.33 701.96,-358.36 725.85,-344.65"/>
<polygon fill="black" stroke="black" points="727.86,-347.52 734.79,-339.51 724.38,-341.45 727.86,-347.52"/>
</g>
<!-- HAsfc9_sigma3 -->
<g id="node16" class="node">
<title>HAsfc9_sigma3</title>
<ellipse fill="none" stroke="black" cx="1273" cy="-418.48" rx="75.78" ry="41.09"/>
<text text-anchor="middle" x="1273" y="-431.08" font-family="Times,serif" font-size="14.00">HAsfc9_sigma3</text>
<text text-anchor="middle" x="1273" y="-414.28" font-family="Times,serif" font-size="14.00">~</text>
<text text-anchor="middle" x="1273" y="-397.48" font-family="Times,serif" font-size="14.00">HalfNormal</text>
</g>
<!-- HAsfc9_sigma3&#45;&gt;HAsfc9_b3 -->
<g id="edge10" class="edge">
<title>HAsfc9_sigma3&#45;&gt;HAsfc9_b3</title>
<path fill="none" stroke="black" d="M1243.15,-380.34C1235.04,-370.25 1226.26,-359.34 1218.19,-349.29"/>
<polygon fill="black" stroke="black" points="1220.88,-347.06 1211.89,-341.45 1215.43,-351.44 1220.88,-347.06"/>
</g>
<!-- HAsfc9_mu_b3 -->
<g id="node17" class="node">
<title>HAsfc9_mu_b3</title>
<ellipse fill="none" stroke="black" cx="1105" cy="-418.48" rx="74.59" ry="41.09"/>
<text text-anchor="middle" x="1105" y="-431.08" font-family="Times,serif" font-size="14.00">HAsfc9_mu_b3</text>
<text text-anchor="middle" x="1105" y="-414.28" font-family="Times,serif" font-size="14.00">~</text>
<text text-anchor="middle" x="1105" y="-397.48" font-family="Times,serif" font-size="14.00">Normal</text>
</g>
<!-- HAsfc9_mu_b3&#45;&gt;HAsfc9_b3 -->
<g id="edge11" class="edge">
<title>HAsfc9_mu_b3&#45;&gt;HAsfc9_b3</title>
<path fill="none" stroke="black" d="M1134.85,-380.34C1142.96,-370.25 1151.74,-359.34 1159.81,-349.29"/>
<polygon fill="black" stroke="black" points="1162.57,-351.44 1166.11,-341.45 1157.12,-347.06 1162.57,-351.44"/>
</g>
<!-- HAsfc9_b3&#45;&gt;HAsfc9_mu -->
<g id="edge16" class="edge">
<title>HAsfc9_b3&#45;&gt;HAsfc9_mu</title>
<path fill="none" stroke="black" d="M1142.8,-289.81C1115.6,-276.87 1080.79,-259.49 1051,-241.98 1047.55,-239.95 1044.03,-237.79 1040.52,-235.57"/>
<polygon fill="black" stroke="black" points="1042.13,-232.45 1031.83,-229.96 1038.33,-238.33 1042.13,-232.45"/>
</g>
<!-- HAsfc9_mu&#45;&gt;HAsfc9_y -->
<g id="edge17" class="edge">
<title>HAsfc9_mu&#45;&gt;HAsfc9_y</title>
<path fill="none" stroke="black" d="M992,-171.46C992,-160.08 992,-146.6 992,-133.63"/>
<polygon fill="black" stroke="black" points="995.5,-133.4 992,-123.4 988.5,-133.4 995.5,-133.4"/>
</g>
</g>
</svg>
