<?xml version="1.0" encoding="UTF-8" standalone="no"?>
<!DOCTYPE svg PUBLIC "-//W3C//DTD SVG 1.1//EN"
 "http://www.w3.org/Graphics/SVG/1.1/DTD/svg11.dtd">
<!-- Generated by graphviz version 2.42.1 (20190717.1914)
 -->
<!-- Title: epLsar Pages: 1 -->
<svg width="1923pt" height="484pt"
 viewBox="0.00 0.00 1922.69 483.77" xmlns="http://www.w3.org/2000/svg" xmlns:xlink="http://www.w3.org/1999/xlink">
<g id="graph0" class="graph" transform="scale(1 1) rotate(0) translate(4 479.77)">
<title>epLsar</title>
<polygon fill="white" stroke="transparent" points="-4,4 -4,-479.77 1918.69,-479.77 1918.69,4 -4,4"/>
<g id="clust1" class="cluster">
<title>cluster2</title>
<path fill="none" stroke="black" d="M970.35,-249.98C970.35,-249.98 1265.35,-249.98 1265.35,-249.98 1271.35,-249.98 1277.35,-255.98 1277.35,-261.98 1277.35,-261.98 1277.35,-455.77 1277.35,-455.77 1277.35,-461.77 1271.35,-467.77 1265.35,-467.77 1265.35,-467.77 970.35,-467.77 970.35,-467.77 964.35,-467.77 958.35,-461.77 958.35,-455.77 958.35,-455.77 958.35,-261.98 958.35,-261.98 958.35,-255.98 964.35,-249.98 970.35,-249.98"/>
<text text-anchor="middle" x="1265.85" y="-258.18" font-family="Times,serif" font-size="14.00">2</text>
</g>
<g id="clust2" class="cluster">
<title>cluster11</title>
<path fill="none" stroke="black" d="M166.35,-249.98C166.35,-249.98 461.35,-249.98 461.35,-249.98 467.35,-249.98 473.35,-255.98 473.35,-261.98 473.35,-261.98 473.35,-455.77 473.35,-455.77 473.35,-461.77 467.35,-467.77 461.35,-467.77 461.35,-467.77 166.35,-467.77 166.35,-467.77 160.35,-467.77 154.35,-461.77 154.35,-455.77 154.35,-455.77 154.35,-261.98 154.35,-261.98 154.35,-255.98 160.35,-249.98 166.35,-249.98"/>
<text text-anchor="middle" x="458.35" y="-258.18" font-family="Times,serif" font-size="14.00">11</text>
</g>
<g id="clust3" class="cluster">
<title>cluster140</title>
<path fill="none" stroke="black" d="M1453.35,-249.98C1453.35,-249.98 1748.35,-249.98 1748.35,-249.98 1754.35,-249.98 1760.35,-255.98 1760.35,-261.98 1760.35,-261.98 1760.35,-455.77 1760.35,-455.77 1760.35,-461.77 1754.35,-467.77 1748.35,-467.77 1748.35,-467.77 1453.35,-467.77 1453.35,-467.77 1447.35,-467.77 1441.35,-461.77 1441.35,-455.77 1441.35,-455.77 1441.35,-261.98 1441.35,-261.98 1441.35,-255.98 1447.35,-249.98 1453.35,-249.98"/>
<text text-anchor="middle" x="1741.85" y="-258.18" font-family="Times,serif" font-size="14.00">140</text>
</g>
<g id="clust4" class="cluster">
<title>cluster280</title>
<path fill="none" stroke="black" d="M953.35,-8C953.35,-8 1041.35,-8 1041.35,-8 1047.35,-8 1053.35,-14 1053.35,-20 1053.35,-20 1053.35,-225.89 1053.35,-225.89 1053.35,-231.89 1047.35,-237.89 1041.35,-237.89 1041.35,-237.89 953.35,-237.89 953.35,-237.89 947.35,-237.89 941.35,-231.89 941.35,-225.89 941.35,-225.89 941.35,-20 941.35,-20 941.35,-14 947.35,-8 953.35,-8"/>
<text text-anchor="middle" x="1034.85" y="-16.2" font-family="Times,serif" font-size="14.00">280</text>
</g>
<!-- epLsar_b2_dist -->
<g id="node1" class="node">
<title>epLsar_b2_dist</title>
<ellipse fill="none" stroke="black" cx="72.35" cy="-418.48" rx="72.19" ry="41.09"/>
<text text-anchor="middle" x="72.35" y="-431.08" font-family="Times,serif" font-size="14.00">epLsar_b2_dist</text>
<text text-anchor="middle" x="72.35" y="-414.28" font-family="Times,serif" font-size="14.00">~</text>
<text text-anchor="middle" x="72.35" y="-397.48" font-family="Times,serif" font-size="14.00">Normal</text>
</g>
<!-- epLsar_b2 -->
<g id="node14" class="node">
<title>epLsar_b2</title>
<polygon fill="none" stroke="black" points="359.55,-341.38 267.15,-341.38 267.15,-282.58 359.55,-282.58 359.55,-341.38"/>
<text text-anchor="middle" x="313.35" y="-324.58" font-family="Times,serif" font-size="14.00">epLsar_b2</text>
<text text-anchor="middle" x="313.35" y="-307.78" font-family="Times,serif" font-size="14.00">~</text>
<text text-anchor="middle" x="313.35" y="-290.98" font-family="Times,serif" font-size="14.00">Deterministic</text>
</g>
<!-- epLsar_b2_dist&#45;&gt;epLsar_b2 -->
<g id="edge8" class="edge">
<title>epLsar_b2_dist&#45;&gt;epLsar_b2</title>
<path fill="none" stroke="black" d="M124.43,-389.64C133.02,-385.32 141.88,-381.02 150.35,-377.18 185.49,-361.23 225.83,-345.32 257.59,-333.33"/>
<polygon fill="black" stroke="black" points="259.03,-336.53 267.16,-329.74 256.56,-329.98 259.03,-336.53"/>
</g>
<!-- epLsar_b3_dist -->
<g id="node2" class="node">
<title>epLsar_b3_dist</title>
<ellipse fill="none" stroke="black" cx="1842.35" cy="-418.48" rx="72.19" ry="41.09"/>
<text text-anchor="middle" x="1842.35" y="-431.08" font-family="Times,serif" font-size="14.00">epLsar_b3_dist</text>
<text text-anchor="middle" x="1842.35" y="-414.28" font-family="Times,serif" font-size="14.00">~</text>
<text text-anchor="middle" x="1842.35" y="-397.48" font-family="Times,serif" font-size="14.00">Normal</text>
</g>
<!-- epLsar_b3 -->
<g id="node18" class="node">
<title>epLsar_b3</title>
<polygon fill="none" stroke="black" points="1646.55,-341.38 1554.15,-341.38 1554.15,-282.58 1646.55,-282.58 1646.55,-341.38"/>
<text text-anchor="middle" x="1600.35" y="-324.58" font-family="Times,serif" font-size="14.00">epLsar_b3</text>
<text text-anchor="middle" x="1600.35" y="-307.78" font-family="Times,serif" font-size="14.00">~</text>
<text text-anchor="middle" x="1600.35" y="-290.98" font-family="Times,serif" font-size="14.00">Deterministic</text>
</g>
<!-- epLsar_b3_dist&#45;&gt;epLsar_b3 -->
<g id="edge10" class="edge">
<title>epLsar_b3_dist&#45;&gt;epLsar_b3</title>
<path fill="none" stroke="black" d="M1790.27,-389.63C1781.68,-385.31 1772.82,-381.01 1764.35,-377.18 1728.88,-361.13 1688.12,-345.16 1656.11,-333.17"/>
<polygon fill="black" stroke="black" points="1657.06,-329.79 1646.47,-329.58 1654.62,-336.35 1657.06,-329.79"/>
</g>
<!-- epLsar_sigmaY -->
<g id="node3" class="node">
<title>epLsar_sigmaY</title>
<ellipse fill="none" stroke="black" cx="1135.35" cy="-200.69" rx="73.97" ry="41.09"/>
<text text-anchor="middle" x="1135.35" y="-213.29" font-family="Times,serif" font-size="14.00">epLsar_sigmaY</text>
<text text-anchor="middle" x="1135.35" y="-196.49" font-family="Times,serif" font-size="14.00">~</text>
<text text-anchor="middle" x="1135.35" y="-179.69" font-family="Times,serif" font-size="14.00">Gamma</text>
</g>
<!-- epLsar_y -->
<g id="node19" class="node">
<title>epLsar_y</title>
<ellipse fill="lightgrey" stroke="black" cx="997.35" cy="-82.1" rx="48.29" ry="41.09"/>
<text text-anchor="middle" x="997.35" y="-94.7" font-family="Times,serif" font-size="14.00">epLsar_y</text>
<text text-anchor="middle" x="997.35" y="-77.9" font-family="Times,serif" font-size="14.00">~</text>
<text text-anchor="middle" x="997.35" y="-61.1" font-family="Times,serif" font-size="14.00">StudentT</text>
</g>
<!-- epLsar_sigmaY&#45;&gt;epLsar_y -->
<g id="edge17" class="edge">
<title>epLsar_sigmaY&#45;&gt;epLsar_y</title>
<path fill="none" stroke="black" d="M1095.06,-165.65C1077.54,-150.84 1057.01,-133.5 1039.3,-118.54"/>
<polygon fill="black" stroke="black" points="1041.28,-115.63 1031.38,-111.85 1036.76,-120.98 1041.28,-115.63"/>
</g>
<!-- epLsar_b0 -->
<g id="node4" class="node">
<title>epLsar_b0</title>
<polygon fill="none" stroke="black" points="841.55,-341.38 749.15,-341.38 749.15,-282.58 841.55,-282.58 841.55,-341.38"/>
<text text-anchor="middle" x="795.35" y="-324.58" font-family="Times,serif" font-size="14.00">epLsar_b0</text>
<text text-anchor="middle" x="795.35" y="-307.78" font-family="Times,serif" font-size="14.00">~</text>
<text text-anchor="middle" x="795.35" y="-290.98" font-family="Times,serif" font-size="14.00">Deterministic</text>
</g>
<!-- epLsar_mu -->
<g id="node20" class="node">
<title>epLsar_mu</title>
<polygon fill="none" stroke="black" points="1043.55,-230.09 951.15,-230.09 951.15,-171.28 1043.55,-171.28 1043.55,-230.09"/>
<text text-anchor="middle" x="997.35" y="-213.29" font-family="Times,serif" font-size="14.00">epLsar_mu</text>
<text text-anchor="middle" x="997.35" y="-196.49" font-family="Times,serif" font-size="14.00">~</text>
<text text-anchor="middle" x="997.35" y="-179.69" font-family="Times,serif" font-size="14.00">Deterministic</text>
</g>
<!-- epLsar_b0&#45;&gt;epLsar_mu -->
<g id="edge13" class="edge">
<title>epLsar_b0&#45;&gt;epLsar_mu</title>
<path fill="none" stroke="black" d="M841.69,-285.91C871.58,-269.73 910.62,-248.61 942.13,-231.56"/>
<polygon fill="black" stroke="black" points="944.09,-234.48 951.22,-226.64 940.76,-228.32 944.09,-234.48"/>
</g>
<!-- epLsar_nuY -->
<g id="node5" class="node">
<title>epLsar_nuY</title>
<ellipse fill="none" stroke="black" cx="1287.35" cy="-200.69" rx="60.48" ry="41.09"/>
<text text-anchor="middle" x="1287.35" y="-213.29" font-family="Times,serif" font-size="14.00">epLsar_nuY</text>
<text text-anchor="middle" x="1287.35" y="-196.49" font-family="Times,serif" font-size="14.00">~</text>
<text text-anchor="middle" x="1287.35" y="-179.69" font-family="Times,serif" font-size="14.00">Exponential</text>
</g>
<!-- epLsar_nuY&#45;&gt;epLsar_y -->
<g id="edge18" class="edge">
<title>epLsar_nuY&#45;&gt;epLsar_y</title>
<path fill="none" stroke="black" d="M1243.49,-172.36C1235.28,-167.74 1226.67,-163.21 1218.35,-159.39 1163.53,-134.22 1097.89,-112.56 1052.46,-98.82"/>
<polygon fill="black" stroke="black" points="1053.38,-95.45 1042.8,-95.93 1051.37,-102.15 1053.38,-95.45"/>
</g>
<!-- epLsar_mu_b0 -->
<g id="node6" class="node">
<title>epLsar_mu_b0</title>
<ellipse fill="none" stroke="black" cx="553.35" cy="-418.48" rx="70.89" ry="41.09"/>
<text text-anchor="middle" x="553.35" y="-431.08" font-family="Times,serif" font-size="14.00">epLsar_mu_b0</text>
<text text-anchor="middle" x="553.35" y="-414.28" font-family="Times,serif" font-size="14.00">~</text>
<text text-anchor="middle" x="553.35" y="-397.48" font-family="Times,serif" font-size="14.00">Normal</text>
</g>
<!-- epLsar_mu_b0&#45;&gt;epLsar_b0 -->
<g id="edge3" class="edge">
<title>epLsar_mu_b0&#45;&gt;epLsar_b0</title>
<path fill="none" stroke="black" d="M605.52,-390.35C614.73,-385.81 624.27,-381.26 633.35,-377.18 668.24,-361.52 708.18,-345.67 739.67,-333.63"/>
<polygon fill="black" stroke="black" points="741.05,-336.85 749.15,-330.03 738.56,-330.31 741.05,-336.85"/>
</g>
<!-- epLsar_b1_dist -->
<g id="node7" class="node">
<title>epLsar_b1_dist</title>
<ellipse fill="none" stroke="black" cx="1359.35" cy="-418.48" rx="72.19" ry="41.09"/>
<text text-anchor="middle" x="1359.35" y="-431.08" font-family="Times,serif" font-size="14.00">epLsar_b1_dist</text>
<text text-anchor="middle" x="1359.35" y="-414.28" font-family="Times,serif" font-size="14.00">~</text>
<text text-anchor="middle" x="1359.35" y="-397.48" font-family="Times,serif" font-size="14.00">Normal</text>
</g>
<!-- epLsar_b1 -->
<g id="node11" class="node">
<title>epLsar_b1</title>
<polygon fill="none" stroke="black" points="1164.55,-341.38 1072.15,-341.38 1072.15,-282.58 1164.55,-282.58 1164.55,-341.38"/>
<text text-anchor="middle" x="1118.35" y="-324.58" font-family="Times,serif" font-size="14.00">epLsar_b1</text>
<text text-anchor="middle" x="1118.35" y="-307.78" font-family="Times,serif" font-size="14.00">~</text>
<text text-anchor="middle" x="1118.35" y="-290.98" font-family="Times,serif" font-size="14.00">Deterministic</text>
</g>
<!-- epLsar_b1_dist&#45;&gt;epLsar_b1 -->
<g id="edge6" class="edge">
<title>epLsar_b1_dist&#45;&gt;epLsar_b1</title>
<path fill="none" stroke="black" d="M1307.26,-389.64C1298.67,-385.32 1289.81,-381.02 1281.35,-377.18 1246.21,-361.23 1205.86,-345.32 1174.1,-333.33"/>
<polygon fill="black" stroke="black" points="1175.13,-329.98 1164.54,-329.74 1172.67,-336.53 1175.13,-329.98"/>
</g>
<!-- epLsar_b0_dist -->
<g id="node8" class="node">
<title>epLsar_b0_dist</title>
<ellipse fill="none" stroke="black" cx="714.35" cy="-418.48" rx="72.19" ry="41.09"/>
<text text-anchor="middle" x="714.35" y="-431.08" font-family="Times,serif" font-size="14.00">epLsar_b0_dist</text>
<text text-anchor="middle" x="714.35" y="-414.28" font-family="Times,serif" font-size="14.00">~</text>
<text text-anchor="middle" x="714.35" y="-397.48" font-family="Times,serif" font-size="14.00">Normal</text>
</g>
<!-- epLsar_b0_dist&#45;&gt;epLsar_b0 -->
<g id="edge1" class="edge">
<title>epLsar_b0_dist&#45;&gt;epLsar_b0</title>
<path fill="none" stroke="black" d="M743.13,-380.34C750.88,-370.35 759.25,-359.55 766.97,-349.59"/>
<polygon fill="black" stroke="black" points="769.91,-351.5 773.27,-341.45 764.38,-347.21 769.91,-351.5"/>
</g>
<!-- epLsar_sigma0 -->
<g id="node9" class="node">
<title>epLsar_sigma0</title>
<ellipse fill="none" stroke="black" cx="876.35" cy="-418.48" rx="71.58" ry="41.09"/>
<text text-anchor="middle" x="876.35" y="-431.08" font-family="Times,serif" font-size="14.00">epLsar_sigma0</text>
<text text-anchor="middle" x="876.35" y="-414.28" font-family="Times,serif" font-size="14.00">~</text>
<text text-anchor="middle" x="876.35" y="-397.48" font-family="Times,serif" font-size="14.00">HalfNormal</text>
</g>
<!-- epLsar_sigma0&#45;&gt;epLsar_b0 -->
<g id="edge2" class="edge">
<title>epLsar_sigma0&#45;&gt;epLsar_b0</title>
<path fill="none" stroke="black" d="M847.56,-380.34C839.82,-370.35 831.45,-359.55 823.72,-349.59"/>
<polygon fill="black" stroke="black" points="826.31,-347.21 817.42,-341.45 820.78,-351.5 826.31,-347.21"/>
</g>
<!-- epLsar_mu_b1 -->
<g id="node10" class="node">
<title>epLsar_mu_b1</title>
<ellipse fill="none" stroke="black" cx="1198.35" cy="-418.48" rx="70.89" ry="41.09"/>
<text text-anchor="middle" x="1198.35" y="-431.08" font-family="Times,serif" font-size="14.00">epLsar_mu_b1</text>
<text text-anchor="middle" x="1198.35" y="-414.28" font-family="Times,serif" font-size="14.00">~</text>
<text text-anchor="middle" x="1198.35" y="-397.48" font-family="Times,serif" font-size="14.00">Normal</text>
</g>
<!-- epLsar_mu_b1&#45;&gt;epLsar_b1 -->
<g id="edge4" class="edge">
<title>epLsar_mu_b1&#45;&gt;epLsar_b1</title>
<path fill="none" stroke="black" d="M1169.92,-380.34C1162.27,-370.35 1154,-359.55 1146.37,-349.59"/>
<polygon fill="black" stroke="black" points="1149,-347.27 1140.15,-341.45 1143.45,-351.52 1149,-347.27"/>
</g>
<!-- epLsar_b1&#45;&gt;epLsar_mu -->
<g id="edge14" class="edge">
<title>epLsar_b1&#45;&gt;epLsar_mu</title>
<path fill="none" stroke="black" d="M1086.87,-282.55C1071.47,-268.63 1052.77,-251.75 1036.46,-237.01"/>
<polygon fill="black" stroke="black" points="1038.43,-234.08 1028.66,-229.97 1033.74,-239.27 1038.43,-234.08"/>
</g>
<!-- epLsar_sigma1 -->
<g id="node12" class="node">
<title>epLsar_sigma1</title>
<ellipse fill="none" stroke="black" cx="1038.35" cy="-418.48" rx="71.58" ry="41.09"/>
<text text-anchor="middle" x="1038.35" y="-431.08" font-family="Times,serif" font-size="14.00">epLsar_sigma1</text>
<text text-anchor="middle" x="1038.35" y="-414.28" font-family="Times,serif" font-size="14.00">~</text>
<text text-anchor="middle" x="1038.35" y="-397.48" font-family="Times,serif" font-size="14.00">HalfNormal</text>
</g>
<!-- epLsar_sigma1&#45;&gt;epLsar_b1 -->
<g id="edge5" class="edge">
<title>epLsar_sigma1&#45;&gt;epLsar_b1</title>
<path fill="none" stroke="black" d="M1066.78,-380.34C1074.43,-370.35 1082.69,-359.55 1090.32,-349.59"/>
<polygon fill="black" stroke="black" points="1093.25,-351.52 1096.55,-341.45 1087.69,-347.27 1093.25,-351.52"/>
</g>
<!-- epLsar_sigma2 -->
<g id="node13" class="node">
<title>epLsar_sigma2</title>
<ellipse fill="none" stroke="black" cx="393.35" cy="-418.48" rx="71.58" ry="41.09"/>
<text text-anchor="middle" x="393.35" y="-431.08" font-family="Times,serif" font-size="14.00">epLsar_sigma2</text>
<text text-anchor="middle" x="393.35" y="-414.28" font-family="Times,serif" font-size="14.00">~</text>
<text text-anchor="middle" x="393.35" y="-397.48" font-family="Times,serif" font-size="14.00">HalfNormal</text>
</g>
<!-- epLsar_sigma2&#45;&gt;epLsar_b2 -->
<g id="edge7" class="edge">
<title>epLsar_sigma2&#45;&gt;epLsar_b2</title>
<path fill="none" stroke="black" d="M364.92,-380.34C357.27,-370.35 349,-359.55 341.37,-349.59"/>
<polygon fill="black" stroke="black" points="344,-347.27 335.15,-341.45 338.45,-351.52 344,-347.27"/>
</g>
<!-- epLsar_b2&#45;&gt;epLsar_mu -->
<g id="edge15" class="edge">
<title>epLsar_b2&#45;&gt;epLsar_mu</title>
<path fill="none" stroke="black" d="M359.55,-303.6C481.08,-284.18 809.35,-231.73 941.3,-210.64"/>
<polygon fill="black" stroke="black" points="941.88,-214.09 951.21,-209.06 940.78,-207.18 941.88,-214.09"/>
</g>
<!-- epLsar_mu_b2 -->
<g id="node15" class="node">
<title>epLsar_mu_b2</title>
<ellipse fill="none" stroke="black" cx="233.35" cy="-418.48" rx="70.89" ry="41.09"/>
<text text-anchor="middle" x="233.35" y="-431.08" font-family="Times,serif" font-size="14.00">epLsar_mu_b2</text>
<text text-anchor="middle" x="233.35" y="-414.28" font-family="Times,serif" font-size="14.00">~</text>
<text text-anchor="middle" x="233.35" y="-397.48" font-family="Times,serif" font-size="14.00">Normal</text>
</g>
<!-- epLsar_mu_b2&#45;&gt;epLsar_b2 -->
<g id="edge9" class="edge">
<title>epLsar_mu_b2&#45;&gt;epLsar_b2</title>
<path fill="none" stroke="black" d="M261.78,-380.34C269.43,-370.35 277.69,-359.55 285.32,-349.59"/>
<polygon fill="black" stroke="black" points="288.25,-351.52 291.55,-341.45 282.69,-347.27 288.25,-351.52"/>
</g>
<!-- epLsar_sigma3 -->
<g id="node16" class="node">
<title>epLsar_sigma3</title>
<ellipse fill="none" stroke="black" cx="1680.35" cy="-418.48" rx="71.58" ry="41.09"/>
<text text-anchor="middle" x="1680.35" y="-431.08" font-family="Times,serif" font-size="14.00">epLsar_sigma3</text>
<text text-anchor="middle" x="1680.35" y="-414.28" font-family="Times,serif" font-size="14.00">~</text>
<text text-anchor="middle" x="1680.35" y="-397.48" font-family="Times,serif" font-size="14.00">HalfNormal</text>
</g>
<!-- epLsar_sigma3&#45;&gt;epLsar_b3 -->
<g id="edge11" class="edge">
<title>epLsar_sigma3&#45;&gt;epLsar_b3</title>
<path fill="none" stroke="black" d="M1651.92,-380.34C1644.27,-370.35 1636,-359.55 1628.37,-349.59"/>
<polygon fill="black" stroke="black" points="1631,-347.27 1622.15,-341.45 1625.45,-351.52 1631,-347.27"/>
</g>
<!-- epLsar_mu_b3 -->
<g id="node17" class="node">
<title>epLsar_mu_b3</title>
<ellipse fill="none" stroke="black" cx="1520.35" cy="-418.48" rx="70.89" ry="41.09"/>
<text text-anchor="middle" x="1520.35" y="-431.08" font-family="Times,serif" font-size="14.00">epLsar_mu_b3</text>
<text text-anchor="middle" x="1520.35" y="-414.28" font-family="Times,serif" font-size="14.00">~</text>
<text text-anchor="middle" x="1520.35" y="-397.48" font-family="Times,serif" font-size="14.00">Normal</text>
</g>
<!-- epLsar_mu_b3&#45;&gt;epLsar_b3 -->
<g id="edge12" class="edge">
<title>epLsar_mu_b3&#45;&gt;epLsar_b3</title>
<path fill="none" stroke="black" d="M1548.78,-380.34C1556.43,-370.35 1564.69,-359.55 1572.32,-349.59"/>
<polygon fill="black" stroke="black" points="1575.25,-351.52 1578.55,-341.45 1569.69,-347.27 1575.25,-351.52"/>
</g>
<!-- epLsar_b3&#45;&gt;epLsar_mu -->
<g id="edge16" class="edge">
<title>epLsar_b3&#45;&gt;epLsar_mu</title>
<path fill="none" stroke="black" d="M1554.2,-299.83C1492.47,-285.46 1379.4,-261 1281.35,-249.98 1256.05,-247.14 1076.4,-250.32 1052.35,-241.98 1047.44,-240.28 1042.6,-237.98 1037.95,-235.33"/>
<polygon fill="black" stroke="black" points="1039.59,-232.23 1029.26,-229.89 1035.87,-238.16 1039.59,-232.23"/>
</g>
<!-- epLsar_mu&#45;&gt;epLsar_y -->
<g id="edge19" class="edge">
<title>epLsar_mu&#45;&gt;epLsar_y</title>
<path fill="none" stroke="black" d="M997.35,-171.46C997.35,-160.08 997.35,-146.6 997.35,-133.63"/>
<polygon fill="black" stroke="black" points="1000.85,-133.4 997.35,-123.4 993.85,-133.4 1000.85,-133.4"/>
</g>
</g>
</svg>
