<?xml version="1.0" encoding="UTF-8" standalone="no"?>
<!DOCTYPE svg PUBLIC "-//W3C//DTD SVG 1.1//EN"
 "http://www.w3.org/Graphics/SVG/1.1/DTD/svg11.dtd">
<!-- Generated by graphviz version 2.40.1 (20161225.0304)
 -->
<!-- Title: Rsquared Pages: 1 -->
<svg width="2186pt" height="563pt"
 viewBox="0.00 0.00 2186.17 562.81" xmlns="http://www.w3.org/2000/svg" xmlns:xlink="http://www.w3.org/1999/xlink">
<g id="graph0" class="graph" transform="scale(1 1) rotate(0) translate(4 558.8133)">
<title>Rsquared</title>
<polygon fill="#ffffff" stroke="transparent" points="-4,4 -4,-558.8133 2182.1701,-558.8133 2182.1701,4 -4,4"/>
<g id="clust1" class="cluster">
<title>cluster2</title>
<path fill="none" stroke="#000000" d="M1122.5599,-232.9066C1122.5599,-232.9066 1454.5599,-232.9066 1454.5599,-232.9066 1460.5599,-232.9066 1466.5599,-238.9066 1466.5599,-244.9066 1466.5599,-244.9066 1466.5599,-423.86 1466.5599,-423.86 1466.5599,-429.86 1460.5599,-435.86 1454.5599,-435.86 1454.5599,-435.86 1122.5599,-435.86 1122.5599,-435.86 1116.5599,-435.86 1110.5599,-429.86 1110.5599,-423.86 1110.5599,-423.86 1110.5599,-244.9066 1110.5599,-244.9066 1110.5599,-238.9066 1116.5599,-232.9066 1122.5599,-232.9066"/>
<text text-anchor="middle" x="1455.0599" y="-240.7066" font-family="Times,serif" font-size="14.00" fill="#000000">2</text>
</g>
<g id="clust2" class="cluster">
<title>cluster11</title>
<path fill="none" stroke="#000000" d="M1659.5599,-232.9066C1659.5599,-232.9066 1995.5599,-232.9066 1995.5599,-232.9066 2001.5599,-232.9066 2007.5599,-238.9066 2007.5599,-244.9066 2007.5599,-244.9066 2007.5599,-534.8133 2007.5599,-534.8133 2007.5599,-540.8133 2001.5599,-546.8133 1995.5599,-546.8133 1995.5599,-546.8133 1659.5599,-546.8133 1659.5599,-546.8133 1653.5599,-546.8133 1647.5599,-540.8133 1647.5599,-534.8133 1647.5599,-534.8133 1647.5599,-244.9066 1647.5599,-244.9066 1647.5599,-238.9066 1653.5599,-232.9066 1659.5599,-232.9066"/>
<text text-anchor="middle" x="1992.5599" y="-240.7066" font-family="Times,serif" font-size="14.00" fill="#000000">11</text>
</g>
<g id="clust3" class="cluster">
<title>cluster2 x 11</title>
<path fill="none" stroke="#000000" d="M193.5599,-232.9066C193.5599,-232.9066 361.5599,-232.9066 361.5599,-232.9066 367.5599,-232.9066 373.5599,-238.9066 373.5599,-244.9066 373.5599,-244.9066 373.5599,-423.86 373.5599,-423.86 373.5599,-429.86 367.5599,-435.86 361.5599,-435.86 361.5599,-435.86 193.5599,-435.86 193.5599,-435.86 187.5599,-435.86 181.5599,-429.86 181.5599,-423.86 181.5599,-423.86 181.5599,-244.9066 181.5599,-244.9066 181.5599,-238.9066 187.5599,-232.9066 193.5599,-232.9066"/>
<text text-anchor="middle" x="348.0599" y="-240.7066" font-family="Times,serif" font-size="14.00" fill="#000000">2 x 11</text>
</g>
<g id="clust4" class="cluster">
<title>cluster278</title>
<path fill="none" stroke="#000000" d="M1099.5599,-8C1099.5599,-8 1205.5599,-8 1205.5599,-8 1211.5599,-8 1217.5599,-14 1217.5599,-20 1217.5599,-20 1217.5599,-209.93 1217.5599,-209.93 1217.5599,-215.93 1211.5599,-221.93 1205.5599,-221.93 1205.5599,-221.93 1099.5599,-221.93 1099.5599,-221.93 1093.5599,-221.93 1087.5599,-215.93 1087.5599,-209.93 1087.5599,-209.93 1087.5599,-20 1087.5599,-20 1087.5599,-14 1093.5599,-8 1099.5599,-8"/>
<text text-anchor="middle" x="1199.0599" y="-15.8" font-family="Times,serif" font-size="14.00" fill="#000000">278</text>
</g>
<!-- Rsquared_sigma12 -->
<g id="node1" class="node">
<title>Rsquared_sigma12</title>
<ellipse fill="none" stroke="#000000" cx="85.5599" cy="-390.3833" rx="85.6199" ry="37.4533"/>
<text text-anchor="middle" x="85.5599" y="-401.6833" font-family="Times,serif" font-size="14.00" fill="#000000">Rsquared_sigma12</text>
<text text-anchor="middle" x="85.5599" y="-386.6833" font-family="Times,serif" font-size="14.00" fill="#000000">~</text>
<text text-anchor="middle" x="85.5599" y="-371.6833" font-family="Times,serif" font-size="14.00" fill="#000000">HalfNormal</text>
</g>
<!-- Rsquared_M12 -->
<g id="node19" class="node">
<title>Rsquared_M12</title>
<polygon fill="none" stroke="#000000" points="346.0599,-316.9066 245.0599,-316.9066 245.0599,-263.9066 346.0599,-263.9066 346.0599,-316.9066"/>
<text text-anchor="middle" x="295.5599" y="-301.7066" font-family="Times,serif" font-size="14.00" fill="#000000">Rsquared_M12</text>
<text text-anchor="middle" x="295.5599" y="-286.7066" font-family="Times,serif" font-size="14.00" fill="#000000">~</text>
<text text-anchor="middle" x="295.5599" y="-271.7066" font-family="Times,serif" font-size="14.00" fill="#000000">Deterministic</text>
</g>
<!-- Rsquared_sigma12&#45;&gt;Rsquared_M12 -->
<g id="edge12" class="edge">
<title>Rsquared_sigma12&#45;&gt;Rsquared_M12</title>
<path fill="none" stroke="#000000" d="M143.4992,-362.7996C172.2008,-349.1354 206.8175,-332.6551 235.7673,-318.8727"/>
<polygon fill="#000000" stroke="#000000" points="237.4282,-321.9584 244.9527,-314.4997 234.4192,-315.6381 237.4282,-321.9584"/>
</g>
<!-- Rsquared_b1_dist -->
<g id="node2" class="node">
<title>Rsquared_b1_dist</title>
<ellipse fill="none" stroke="#000000" cx="1556.5599" cy="-390.3833" rx="80.7205" ry="37.4533"/>
<text text-anchor="middle" x="1556.5599" y="-401.6833" font-family="Times,serif" font-size="14.00" fill="#000000">Rsquared_b1_dist</text>
<text text-anchor="middle" x="1556.5599" y="-386.6833" font-family="Times,serif" font-size="14.00" fill="#000000">~</text>
<text text-anchor="middle" x="1556.5599" y="-371.6833" font-family="Times,serif" font-size="14.00" fill="#000000">Normal</text>
</g>
<!-- Rsquared_b1 -->
<g id="node11" class="node">
<title>Rsquared_b1</title>
<polygon fill="none" stroke="#000000" points="1333.0599,-316.9066 1242.0599,-316.9066 1242.0599,-263.9066 1333.0599,-263.9066 1333.0599,-316.9066"/>
<text text-anchor="middle" x="1287.5599" y="-301.7066" font-family="Times,serif" font-size="14.00" fill="#000000">Rsquared_b1</text>
<text text-anchor="middle" x="1287.5599" y="-286.7066" font-family="Times,serif" font-size="14.00" fill="#000000">~</text>
<text text-anchor="middle" x="1287.5599" y="-271.7066" font-family="Times,serif" font-size="14.00" fill="#000000">Deterministic</text>
</g>
<!-- Rsquared_b1_dist&#45;&gt;Rsquared_b1 -->
<g id="edge5" class="edge">
<title>Rsquared_b1_dist&#45;&gt;Rsquared_b1</title>
<path fill="none" stroke="#000000" d="M1498.5392,-364.3323C1489.2346,-360.3768 1479.6705,-356.4407 1470.5599,-352.9066 1428.3596,-336.5369 1379.8512,-320.0742 1343.3841,-308.1568"/>
<polygon fill="#000000" stroke="#000000" points="1344.0253,-304.685 1333.433,-304.9199 1341.8599,-311.3416 1344.0253,-304.685"/>
</g>
<!-- Rsquared_nuY -->
<g id="node3" class="node">
<title>Rsquared_nuY</title>
<ellipse fill="none" stroke="#000000" cx="1294.5599" cy="-187.43" rx="69.0935" ry="37.4533"/>
<text text-anchor="middle" x="1294.5599" y="-198.73" font-family="Times,serif" font-size="14.00" fill="#000000">Rsquared_nuY</text>
<text text-anchor="middle" x="1294.5599" y="-183.73" font-family="Times,serif" font-size="14.00" fill="#000000">~</text>
<text text-anchor="middle" x="1294.5599" y="-168.73" font-family="Times,serif" font-size="14.00" fill="#000000">Exponential</text>
</g>
<!-- Rsquared_y -->
<g id="node21" class="node">
<title>Rsquared_y</title>
<ellipse fill="#d3d3d3" stroke="#000000" cx="1152.5599" cy="-76.4767" rx="57.0522" ry="37.4533"/>
<text text-anchor="middle" x="1152.5599" y="-87.7767" font-family="Times,serif" font-size="14.00" fill="#000000">Rsquared_y</text>
<text text-anchor="middle" x="1152.5599" y="-72.7767" font-family="Times,serif" font-size="14.00" fill="#000000">~</text>
<text text-anchor="middle" x="1152.5599" y="-57.7767" font-family="Times,serif" font-size="14.00" fill="#000000">StudentT</text>
</g>
<!-- Rsquared_nuY&#45;&gt;Rsquared_y -->
<g id="edge20" class="edge">
<title>Rsquared_nuY&#45;&gt;Rsquared_y</title>
<path fill="none" stroke="#000000" d="M1255.005,-156.5233C1237.2138,-142.622 1216.1215,-126.1413 1197.7136,-111.758"/>
<polygon fill="#000000" stroke="#000000" points="1199.501,-108.7129 1189.4663,-105.3138 1195.1911,-114.2288 1199.501,-108.7129"/>
</g>
<!-- Rsquared_b0_dist -->
<g id="node4" class="node">
<title>Rsquared_b0_dist</title>
<ellipse fill="none" stroke="#000000" cx="661.5599" cy="-390.3833" rx="80.7205" ry="37.4533"/>
<text text-anchor="middle" x="661.5599" y="-401.6833" font-family="Times,serif" font-size="14.00" fill="#000000">Rsquared_b0_dist</text>
<text text-anchor="middle" x="661.5599" y="-386.6833" font-family="Times,serif" font-size="14.00" fill="#000000">~</text>
<text text-anchor="middle" x="661.5599" y="-371.6833" font-family="Times,serif" font-size="14.00" fill="#000000">Normal</text>
</g>
<!-- Rsquared_b0 -->
<g id="node10" class="node">
<title>Rsquared_b0</title>
<polygon fill="none" stroke="#000000" points="975.0599,-316.9066 884.0599,-316.9066 884.0599,-263.9066 975.0599,-263.9066 975.0599,-316.9066"/>
<text text-anchor="middle" x="929.5599" y="-301.7066" font-family="Times,serif" font-size="14.00" fill="#000000">Rsquared_b0</text>
<text text-anchor="middle" x="929.5599" y="-286.7066" font-family="Times,serif" font-size="14.00" fill="#000000">~</text>
<text text-anchor="middle" x="929.5599" y="-271.7066" font-family="Times,serif" font-size="14.00" fill="#000000">Deterministic</text>
</g>
<!-- Rsquared_b0_dist&#45;&gt;Rsquared_b0 -->
<g id="edge1" class="edge">
<title>Rsquared_b0_dist&#45;&gt;Rsquared_b0</title>
<path fill="none" stroke="#000000" d="M721.3992,-364.9088C731.4304,-360.7987 741.7616,-356.6634 751.5599,-352.9066 792.3721,-337.2589 839.0058,-320.9408 874.3005,-308.9037"/>
<polygon fill="#000000" stroke="#000000" points="875.5994,-312.1589 883.9405,-305.6262 873.3461,-305.5315 875.5994,-312.1589"/>
</g>
<!-- Rsquared_mu_b0 -->
<g id="node5" class="node">
<title>Rsquared_mu_b0</title>
<ellipse fill="none" stroke="#000000" cx="840.5599" cy="-390.3833" rx="79.8062" ry="37.4533"/>
<text text-anchor="middle" x="840.5599" y="-401.6833" font-family="Times,serif" font-size="14.00" fill="#000000">Rsquared_mu_b0</text>
<text text-anchor="middle" x="840.5599" y="-386.6833" font-family="Times,serif" font-size="14.00" fill="#000000">~</text>
<text text-anchor="middle" x="840.5599" y="-371.6833" font-family="Times,serif" font-size="14.00" fill="#000000">Normal</text>
</g>
<!-- Rsquared_mu_b0&#45;&gt;Rsquared_b0 -->
<g id="edge2" class="edge">
<title>Rsquared_mu_b0&#45;&gt;Rsquared_b0</title>
<path fill="none" stroke="#000000" d="M871.438,-355.6969C880.3119,-345.7286 889.9855,-334.8618 898.8493,-324.9049"/>
<polygon fill="#000000" stroke="#000000" points="901.7185,-326.9457 905.7534,-317.1493 896.49,-322.2913 901.7185,-326.9457"/>
</g>
<!-- Rsquared_sigmaY -->
<g id="node6" class="node">
<title>Rsquared_sigmaY</title>
<ellipse fill="none" stroke="#000000" cx="1464.5599" cy="-187.43" rx="82.9636" ry="37.4533"/>
<text text-anchor="middle" x="1464.5599" y="-198.73" font-family="Times,serif" font-size="14.00" fill="#000000">Rsquared_sigmaY</text>
<text text-anchor="middle" x="1464.5599" y="-183.73" font-family="Times,serif" font-size="14.00" fill="#000000">~</text>
<text text-anchor="middle" x="1464.5599" y="-168.73" font-family="Times,serif" font-size="14.00" fill="#000000">Gamma</text>
</g>
<!-- Rsquared_sigmaY&#45;&gt;Rsquared_y -->
<g id="edge18" class="edge">
<title>Rsquared_sigmaY&#45;&gt;Rsquared_y</title>
<path fill="none" stroke="#000000" d="M1403.4109,-161.8793C1393.1544,-157.7784 1382.5876,-153.6659 1372.5599,-149.9533 1319.5467,-130.3262 1258.5191,-110.1297 1214.2083,-95.8905"/>
<polygon fill="#000000" stroke="#000000" points="1215.0432,-92.4828 1204.4522,-92.7647 1212.9074,-99.149 1215.0432,-92.4828"/>
</g>
<!-- Rsquared_b2_dist -->
<g id="node7" class="node">
<title>Rsquared_b2_dist</title>
<ellipse fill="none" stroke="#000000" cx="2097.5599" cy="-390.3833" rx="80.7205" ry="37.4533"/>
<text text-anchor="middle" x="2097.5599" y="-401.6833" font-family="Times,serif" font-size="14.00" fill="#000000">Rsquared_b2_dist</text>
<text text-anchor="middle" x="2097.5599" y="-386.6833" font-family="Times,serif" font-size="14.00" fill="#000000">~</text>
<text text-anchor="middle" x="2097.5599" y="-371.6833" font-family="Times,serif" font-size="14.00" fill="#000000">Gumbel</text>
</g>
<!-- Rsquared_b2 -->
<g id="node17" class="node">
<title>Rsquared_b2</title>
<polygon fill="none" stroke="#000000" points="1871.0599,-316.9066 1780.0599,-316.9066 1780.0599,-263.9066 1871.0599,-263.9066 1871.0599,-316.9066"/>
<text text-anchor="middle" x="1825.5599" y="-301.7066" font-family="Times,serif" font-size="14.00" fill="#000000">Rsquared_b2</text>
<text text-anchor="middle" x="1825.5599" y="-286.7066" font-family="Times,serif" font-size="14.00" fill="#000000">~</text>
<text text-anchor="middle" x="1825.5599" y="-271.7066" font-family="Times,serif" font-size="14.00" fill="#000000">Deterministic</text>
</g>
<!-- Rsquared_b2_dist&#45;&gt;Rsquared_b2 -->
<g id="edge8" class="edge">
<title>Rsquared_b2_dist&#45;&gt;Rsquared_b2</title>
<path fill="none" stroke="#000000" d="M2039.5545,-364.2927C2030.2479,-360.3423 2020.6792,-356.4181 2011.5599,-352.9066 1968.2236,-336.2194 1918.2997,-319.582 1881.0919,-307.673"/>
<polygon fill="#000000" stroke="#000000" points="1882.0261,-304.2974 1871.4355,-304.597 1879.9014,-310.9672 1882.0261,-304.2974"/>
</g>
<!-- Rsquared_M12_dist -->
<g id="node8" class="node">
<title>Rsquared_M12_dist</title>
<ellipse fill="none" stroke="#000000" cx="473.5599" cy="-390.3833" rx="89.6056" ry="37.4533"/>
<text text-anchor="middle" x="473.5599" y="-401.6833" font-family="Times,serif" font-size="14.00" fill="#000000">Rsquared_M12_dist</text>
<text text-anchor="middle" x="473.5599" y="-386.6833" font-family="Times,serif" font-size="14.00" fill="#000000">~</text>
<text text-anchor="middle" x="473.5599" y="-371.6833" font-family="Times,serif" font-size="14.00" fill="#000000">Normal</text>
</g>
<!-- Rsquared_M12_dist&#45;&gt;Rsquared_M12 -->
<g id="edge13" class="edge">
<title>Rsquared_M12_dist&#45;&gt;Rsquared_M12</title>
<path fill="none" stroke="#000000" d="M419.671,-360.1157C398.1769,-348.0432 373.429,-334.1431 351.7151,-321.9471"/>
<polygon fill="#000000" stroke="#000000" points="353.3621,-318.8579 342.9292,-317.0124 349.9341,-324.9611 353.3621,-318.8579"/>
</g>
<!-- Rsquared_sigma0 -->
<g id="node9" class="node">
<title>Rsquared_sigma0</title>
<ellipse fill="none" stroke="#000000" cx="1019.5599" cy="-390.3833" rx="80.7205" ry="37.4533"/>
<text text-anchor="middle" x="1019.5599" y="-401.6833" font-family="Times,serif" font-size="14.00" fill="#000000">Rsquared_sigma0</text>
<text text-anchor="middle" x="1019.5599" y="-386.6833" font-family="Times,serif" font-size="14.00" fill="#000000">~</text>
<text text-anchor="middle" x="1019.5599" y="-371.6833" font-family="Times,serif" font-size="14.00" fill="#000000">HalfNormal</text>
</g>
<!-- Rsquared_sigma0&#45;&gt;Rsquared_b0 -->
<g id="edge3" class="edge">
<title>Rsquared_sigma0&#45;&gt;Rsquared_b0</title>
<path fill="none" stroke="#000000" d="M988.3349,-355.6969C979.2725,-345.6299 969.3852,-334.6466 960.3496,-324.6094"/>
<polygon fill="#000000" stroke="#000000" points="962.9257,-322.2398 953.6339,-317.1493 957.7232,-326.9232 962.9257,-322.2398"/>
</g>
<!-- Rsquared_mu -->
<g id="node20" class="node">
<title>Rsquared_mu</title>
<polygon fill="none" stroke="#000000" points="1198.5599,-213.93 1106.5599,-213.93 1106.5599,-160.93 1198.5599,-160.93 1198.5599,-213.93"/>
<text text-anchor="middle" x="1152.5599" y="-198.73" font-family="Times,serif" font-size="14.00" fill="#000000">Rsquared_mu</text>
<text text-anchor="middle" x="1152.5599" y="-183.73" font-family="Times,serif" font-size="14.00" fill="#000000">~</text>
<text text-anchor="middle" x="1152.5599" y="-168.73" font-family="Times,serif" font-size="14.00" fill="#000000">Deterministic</text>
</g>
<!-- Rsquared_b0&#45;&gt;Rsquared_mu -->
<g id="edge16" class="edge">
<title>Rsquared_b0&#45;&gt;Rsquared_mu</title>
<path fill="none" stroke="#000000" d="M975.2254,-269.3193C1010.4664,-253.0458 1059.3774,-230.4597 1096.9079,-213.1289"/>
<polygon fill="#000000" stroke="#000000" points="1098.5777,-216.213 1106.1891,-208.843 1095.643,-209.8579 1098.5777,-216.213"/>
</g>
<!-- Rsquared_b1&#45;&gt;Rsquared_mu -->
<g id="edge17" class="edge">
<title>Rsquared_b1&#45;&gt;Rsquared_mu</title>
<path fill="none" stroke="#000000" d="M1252.7941,-263.8876C1235.4505,-250.6581 1214.3027,-234.5268 1195.9103,-220.4972"/>
<polygon fill="#000000" stroke="#000000" points="1197.7508,-217.4992 1187.6772,-214.2171 1193.5054,-223.0648 1197.7508,-217.4992"/>
</g>
<!-- Rsquared_sigma1 -->
<g id="node12" class="node">
<title>Rsquared_sigma1</title>
<ellipse fill="none" stroke="#000000" cx="1377.5599" cy="-390.3833" rx="80.7205" ry="37.4533"/>
<text text-anchor="middle" x="1377.5599" y="-401.6833" font-family="Times,serif" font-size="14.00" fill="#000000">Rsquared_sigma1</text>
<text text-anchor="middle" x="1377.5599" y="-386.6833" font-family="Times,serif" font-size="14.00" fill="#000000">~</text>
<text text-anchor="middle" x="1377.5599" y="-371.6833" font-family="Times,serif" font-size="14.00" fill="#000000">HalfNormal</text>
</g>
<!-- Rsquared_sigma1&#45;&gt;Rsquared_b1 -->
<g id="edge4" class="edge">
<title>Rsquared_sigma1&#45;&gt;Rsquared_b1</title>
<path fill="none" stroke="#000000" d="M1346.3349,-355.6969C1337.2725,-345.6299 1327.3852,-334.6466 1318.3496,-324.6094"/>
<polygon fill="#000000" stroke="#000000" points="1320.9257,-322.2398 1311.6339,-317.1493 1315.7232,-326.9232 1320.9257,-322.2398"/>
</g>
<!-- Rsquared_mu_b1 -->
<g id="node13" class="node">
<title>Rsquared_mu_b1</title>
<ellipse fill="none" stroke="#000000" cx="1198.5599" cy="-390.3833" rx="79.8063" ry="37.4533"/>
<text text-anchor="middle" x="1198.5599" y="-401.6833" font-family="Times,serif" font-size="14.00" fill="#000000">Rsquared_mu_b1</text>
<text text-anchor="middle" x="1198.5599" y="-386.6833" font-family="Times,serif" font-size="14.00" fill="#000000">~</text>
<text text-anchor="middle" x="1198.5599" y="-371.6833" font-family="Times,serif" font-size="14.00" fill="#000000">Normal</text>
</g>
<!-- Rsquared_mu_b1&#45;&gt;Rsquared_b1 -->
<g id="edge6" class="edge">
<title>Rsquared_mu_b1&#45;&gt;Rsquared_b1</title>
<path fill="none" stroke="#000000" d="M1229.438,-355.6969C1238.3119,-345.7286 1247.9855,-334.8618 1256.8493,-324.9049"/>
<polygon fill="#000000" stroke="#000000" points="1259.7185,-326.9457 1263.7534,-317.1493 1254.49,-322.2913 1259.7185,-326.9457"/>
</g>
<!-- Rsquared_sigma2 -->
<g id="node14" class="node">
<title>Rsquared_sigma2</title>
<ellipse fill="none" stroke="#000000" cx="1916.5599" cy="-501.3366" rx="80.7205" ry="37.4533"/>
<text text-anchor="middle" x="1916.5599" y="-512.6366" font-family="Times,serif" font-size="14.00" fill="#000000">Rsquared_sigma2</text>
<text text-anchor="middle" x="1916.5599" y="-497.6366" font-family="Times,serif" font-size="14.00" fill="#000000">~</text>
<text text-anchor="middle" x="1916.5599" y="-482.6366" font-family="Times,serif" font-size="14.00" fill="#000000">HalfNormal</text>
</g>
<!-- Rsquared_b2_beta -->
<g id="node16" class="node">
<title>Rsquared_b2_beta</title>
<ellipse fill="none" stroke="#000000" cx="1916.5599" cy="-390.3833" rx="82.9636" ry="37.4533"/>
<text text-anchor="middle" x="1916.5599" y="-401.6833" font-family="Times,serif" font-size="14.00" fill="#000000">Rsquared_b2_beta</text>
<text text-anchor="middle" x="1916.5599" y="-386.6833" font-family="Times,serif" font-size="14.00" fill="#000000">~</text>
<text text-anchor="middle" x="1916.5599" y="-371.6833" font-family="Times,serif" font-size="14.00" fill="#000000">HalfNormal</text>
</g>
<!-- Rsquared_sigma2&#45;&gt;Rsquared_b2_beta -->
<g id="edge7" class="edge">
<title>Rsquared_sigma2&#45;&gt;Rsquared_b2_beta</title>
<path fill="none" stroke="#000000" d="M1916.5599,-463.7729C1916.5599,-455.549 1916.5599,-446.7367 1916.5599,-438.1736"/>
<polygon fill="#000000" stroke="#000000" points="1920.06,-437.9083 1916.5599,-427.9083 1913.06,-437.9084 1920.06,-437.9083"/>
</g>
<!-- Rsquared_mu_b2 -->
<g id="node15" class="node">
<title>Rsquared_mu_b2</title>
<ellipse fill="none" stroke="#000000" cx="1735.5599" cy="-390.3833" rx="79.8063" ry="37.4533"/>
<text text-anchor="middle" x="1735.5599" y="-401.6833" font-family="Times,serif" font-size="14.00" fill="#000000">Rsquared_mu_b2</text>
<text text-anchor="middle" x="1735.5599" y="-386.6833" font-family="Times,serif" font-size="14.00" fill="#000000">~</text>
<text text-anchor="middle" x="1735.5599" y="-371.6833" font-family="Times,serif" font-size="14.00" fill="#000000">Normal</text>
</g>
<!-- Rsquared_mu_b2&#45;&gt;Rsquared_b2 -->
<g id="edge10" class="edge">
<title>Rsquared_mu_b2&#45;&gt;Rsquared_b2</title>
<path fill="none" stroke="#000000" d="M1766.785,-355.6969C1775.8474,-345.6299 1785.7347,-334.6466 1794.7702,-324.6094"/>
<polygon fill="#000000" stroke="#000000" points="1797.3967,-326.9232 1801.4859,-317.1493 1792.1941,-322.2398 1797.3967,-326.9232"/>
</g>
<!-- Rsquared_b2_beta&#45;&gt;Rsquared_b2 -->
<g id="edge9" class="edge">
<title>Rsquared_b2_beta&#45;&gt;Rsquared_b2</title>
<path fill="none" stroke="#000000" d="M1884.9879,-355.6969C1875.8248,-345.6299 1865.8277,-334.6466 1856.6917,-324.6094"/>
<polygon fill="#000000" stroke="#000000" points="1859.2211,-322.1886 1849.9014,-317.1493 1854.0443,-326.9005 1859.2211,-322.1886"/>
</g>
<!-- Rsquared_b2&#45;&gt;Rsquared_mu -->
<g id="edge15" class="edge">
<title>Rsquared_b2&#45;&gt;Rsquared_mu</title>
<path fill="none" stroke="#000000" d="M1779.8513,-281.0615C1712.4866,-267.7319 1582.4254,-243.6824 1470.5599,-232.9066 1442.4538,-230.1992 1243.6917,-232.7266 1216.5599,-224.9066 1211.0117,-223.3075 1205.4435,-221.1187 1200.0324,-218.5958"/>
<polygon fill="#000000" stroke="#000000" points="1201.6088,-215.471 1191.1057,-214.0797 1198.4488,-221.7171 1201.6088,-215.471"/>
</g>
<!-- Rsquared_mu_M12 -->
<g id="node18" class="node">
<title>Rsquared_mu_M12</title>
<ellipse fill="none" stroke="#000000" cx="277.5599" cy="-390.3833" rx="88.2768" ry="37.4533"/>
<text text-anchor="middle" x="277.5599" y="-401.6833" font-family="Times,serif" font-size="14.00" fill="#000000">Rsquared_mu_M12</text>
<text text-anchor="middle" x="277.5599" y="-386.6833" font-family="Times,serif" font-size="14.00" fill="#000000">~</text>
<text text-anchor="middle" x="277.5599" y="-371.6833" font-family="Times,serif" font-size="14.00" fill="#000000">Normal</text>
</g>
<!-- Rsquared_mu_M12&#45;&gt;Rsquared_M12 -->
<g id="edge11" class="edge">
<title>Rsquared_mu_M12&#45;&gt;Rsquared_M12</title>
<path fill="none" stroke="#000000" d="M284.3137,-352.8712C285.8314,-344.4415 287.4401,-335.506 288.9518,-327.1097"/>
<polygon fill="#000000" stroke="#000000" points="292.4076,-327.6677 290.735,-317.2057 285.5183,-326.4273 292.4076,-327.6677"/>
</g>
<!-- Rsquared_M12&#45;&gt;Rsquared_mu -->
<g id="edge14" class="edge">
<title>Rsquared_M12&#45;&gt;Rsquared_mu</title>
<path fill="none" stroke="#000000" d="M346.2858,-284.3114C496.5497,-266.2558 938.6555,-213.1326 1096.0916,-194.2152"/>
<polygon fill="#000000" stroke="#000000" points="1096.975,-197.6343 1106.486,-192.9662 1096.1398,-190.6843 1096.975,-197.6343"/>
</g>
<!-- Rsquared_mu&#45;&gt;Rsquared_y -->
<g id="edge19" class="edge">
<title>Rsquared_mu&#45;&gt;Rsquared_y</title>
<path fill="none" stroke="#000000" d="M1152.5599,-160.8539C1152.5599,-149.9351 1152.5599,-136.944 1152.5599,-124.4675"/>
<polygon fill="#000000" stroke="#000000" points="1156.06,-124.1649 1152.5599,-114.165 1149.06,-124.165 1156.06,-124.1649"/>
</g>
</g>
</svg>
