<?xml version="1.0" encoding="UTF-8" standalone="no"?>
<!DOCTYPE svg PUBLIC "-//W3C//DTD SVG 1.1//EN"
 "http://www.w3.org/Graphics/SVG/1.1/DTD/svg11.dtd">
<!-- Generated by graphviz version 2.40.1 (20161225.0304)
 -->
<!-- Title: Smfc Pages: 1 -->
<svg width="1827pt" height="563pt"
 viewBox="0.00 0.00 1827.05 562.81" xmlns="http://www.w3.org/2000/svg" xmlns:xlink="http://www.w3.org/1999/xlink">
<g id="graph0" class="graph" transform="scale(1 1) rotate(0) translate(4 558.8133)">
<title>Smfc</title>
<polygon fill="#ffffff" stroke="transparent" points="-4,4 -4,-558.8133 1823.0538,-558.8133 1823.0538,4 -4,4"/>
<g id="clust1" class="cluster">
<title>cluster2</title>
<path fill="none" stroke="#000000" d="M20,-232.9066C20,-232.9066 288,-232.9066 288,-232.9066 294,-232.9066 300,-238.9066 300,-244.9066 300,-244.9066 300,-423.86 300,-423.86 300,-429.86 294,-435.86 288,-435.86 288,-435.86 20,-435.86 20,-435.86 14,-435.86 8,-429.86 8,-423.86 8,-423.86 8,-244.9066 8,-244.9066 8,-238.9066 14,-232.9066 20,-232.9066"/>
<text text-anchor="middle" x="288.5" y="-240.7066" font-family="Times,serif" font-size="14.00" fill="#000000">2</text>
</g>
<g id="clust2" class="cluster">
<title>cluster11</title>
<path fill="none" stroke="#000000" d="M462,-232.9066C462,-232.9066 735,-232.9066 735,-232.9066 741,-232.9066 747,-238.9066 747,-244.9066 747,-244.9066 747,-534.8133 747,-534.8133 747,-540.8133 741,-546.8133 735,-546.8133 735,-546.8133 462,-546.8133 462,-546.8133 456,-546.8133 450,-540.8133 450,-534.8133 450,-534.8133 450,-244.9066 450,-244.9066 450,-238.9066 456,-232.9066 462,-232.9066"/>
<text text-anchor="middle" x="732" y="-240.7066" font-family="Times,serif" font-size="14.00" fill="#000000">11</text>
</g>
<g id="clust3" class="cluster">
<title>cluster2 x 11</title>
<path fill="none" stroke="#000000" d="M909,-232.9066C909,-232.9066 1049,-232.9066 1049,-232.9066 1055,-232.9066 1061,-238.9066 1061,-244.9066 1061,-244.9066 1061,-423.86 1061,-423.86 1061,-429.86 1055,-435.86 1049,-435.86 1049,-435.86 909,-435.86 909,-435.86 903,-435.86 897,-429.86 897,-423.86 897,-423.86 897,-244.9066 897,-244.9066 897,-238.9066 903,-232.9066 909,-232.9066"/>
<text text-anchor="middle" x="1035.5" y="-240.7066" font-family="Times,serif" font-size="14.00" fill="#000000">2 x 11</text>
</g>
<g id="clust4" class="cluster">
<title>cluster278</title>
<path fill="none" stroke="#000000" d="M800,-8C800,-8 886,-8 886,-8 892,-8 898,-14 898,-20 898,-20 898,-209.93 898,-209.93 898,-215.93 892,-221.93 886,-221.93 886,-221.93 800,-221.93 800,-221.93 794,-221.93 788,-215.93 788,-209.93 788,-209.93 788,-20 788,-20 788,-14 794,-8 800,-8"/>
<text text-anchor="middle" x="879.5" y="-15.8" font-family="Times,serif" font-size="14.00" fill="#000000">278</text>
</g>
<!-- Smfc_mu_b0 -->
<g id="node1" class="node">
<title>Smfc_mu_b0</title>
<ellipse fill="none" stroke="#000000" cx="1459" cy="-390.3833" rx="64.1938" ry="37.4533"/>
<text text-anchor="middle" x="1459" y="-401.6833" font-family="Times,serif" font-size="14.00" fill="#000000">Smfc_mu_b0</text>
<text text-anchor="middle" x="1459" y="-386.6833" font-family="Times,serif" font-size="14.00" fill="#000000">~</text>
<text text-anchor="middle" x="1459" y="-371.6833" font-family="Times,serif" font-size="14.00" fill="#000000">Normal</text>
</g>
<!-- Smfc_b0 -->
<g id="node3" class="node">
<title>Smfc_b0</title>
<polygon fill="none" stroke="#000000" points="1577.5,-316.9066 1486.5,-316.9066 1486.5,-263.9066 1577.5,-263.9066 1577.5,-316.9066"/>
<text text-anchor="middle" x="1532" y="-301.7066" font-family="Times,serif" font-size="14.00" fill="#000000">Smfc_b0</text>
<text text-anchor="middle" x="1532" y="-286.7066" font-family="Times,serif" font-size="14.00" fill="#000000">~</text>
<text text-anchor="middle" x="1532" y="-271.7066" font-family="Times,serif" font-size="14.00" fill="#000000">Deterministic</text>
</g>
<!-- Smfc_mu_b0&#45;&gt;Smfc_b0 -->
<g id="edge1" class="edge">
<title>Smfc_mu_b0&#45;&gt;Smfc_b0</title>
<path fill="none" stroke="#000000" d="M1484.327,-355.6969C1491.4614,-345.926 1499.2261,-335.2919 1506.3777,-325.4975"/>
<polygon fill="#000000" stroke="#000000" points="1509.4029,-327.2895 1512.4733,-317.1493 1503.7496,-323.1615 1509.4029,-327.2895"/>
</g>
<!-- Smfc_sigma0 -->
<g id="node2" class="node">
<title>Smfc_sigma0</title>
<ellipse fill="none" stroke="#000000" cx="1606" cy="-390.3833" rx="65.1077" ry="37.4533"/>
<text text-anchor="middle" x="1606" y="-401.6833" font-family="Times,serif" font-size="14.00" fill="#000000">Smfc_sigma0</text>
<text text-anchor="middle" x="1606" y="-386.6833" font-family="Times,serif" font-size="14.00" fill="#000000">~</text>
<text text-anchor="middle" x="1606" y="-371.6833" font-family="Times,serif" font-size="14.00" fill="#000000">HalfNormal</text>
</g>
<!-- Smfc_sigma0&#45;&gt;Smfc_b0 -->
<g id="edge2" class="edge">
<title>Smfc_sigma0&#45;&gt;Smfc_b0</title>
<path fill="none" stroke="#000000" d="M1580.3261,-355.6969C1573.0209,-345.8273 1565.0637,-335.0769 1557.7538,-325.2009"/>
<polygon fill="#000000" stroke="#000000" points="1560.5568,-323.1048 1551.7942,-317.1493 1554.9303,-327.2693 1560.5568,-323.1048"/>
</g>
<!-- Smfc_mu -->
<g id="node21" class="node">
<title>Smfc_mu</title>
<polygon fill="none" stroke="#000000" points="888.5,-213.93 797.5,-213.93 797.5,-160.93 888.5,-160.93 888.5,-213.93"/>
<text text-anchor="middle" x="843" y="-198.73" font-family="Times,serif" font-size="14.00" fill="#000000">Smfc_mu</text>
<text text-anchor="middle" x="843" y="-183.73" font-family="Times,serif" font-size="14.00" fill="#000000">~</text>
<text text-anchor="middle" x="843" y="-168.73" font-family="Times,serif" font-size="14.00" fill="#000000">Deterministic</text>
</g>
<!-- Smfc_b0&#45;&gt;Smfc_mu -->
<g id="edge14" class="edge">
<title>Smfc_b0&#45;&gt;Smfc_mu</title>
<path fill="none" stroke="#000000" d="M1486.3805,-283.6363C1402.9433,-271.5113 1220.0544,-246.1253 1065,-232.9066 1027.7594,-229.7318 932.3934,-236.9168 897,-224.9066 892.5086,-223.3826 888.0522,-221.3655 883.7379,-219.0558"/>
<polygon fill="#000000" stroke="#000000" points="885.507,-216.0358 875.1159,-213.9678 881.9494,-222.0644 885.507,-216.0358"/>
</g>
<!-- Smfc_M12_dist -->
<g id="node4" class="node">
<title>Smfc_M12_dist</title>
<ellipse fill="none" stroke="#000000" cx="1145" cy="-390.3833" rx="74.4932" ry="37.4533"/>
<text text-anchor="middle" x="1145" y="-401.6833" font-family="Times,serif" font-size="14.00" fill="#000000">Smfc_M12_dist</text>
<text text-anchor="middle" x="1145" y="-386.6833" font-family="Times,serif" font-size="14.00" fill="#000000">~</text>
<text text-anchor="middle" x="1145" y="-371.6833" font-family="Times,serif" font-size="14.00" fill="#000000">Normal</text>
</g>
<!-- Smfc_M12 -->
<g id="node18" class="node">
<title>Smfc_M12</title>
<polygon fill="none" stroke="#000000" points="1038.5,-316.9066 947.5,-316.9066 947.5,-263.9066 1038.5,-263.9066 1038.5,-316.9066"/>
<text text-anchor="middle" x="993" y="-301.7066" font-family="Times,serif" font-size="14.00" fill="#000000">Smfc_M12</text>
<text text-anchor="middle" x="993" y="-286.7066" font-family="Times,serif" font-size="14.00" fill="#000000">~</text>
<text text-anchor="middle" x="993" y="-271.7066" font-family="Times,serif" font-size="14.00" fill="#000000">Deterministic</text>
</g>
<!-- Smfc_M12_dist&#45;&gt;Smfc_M12 -->
<g id="edge12" class="edge">
<title>Smfc_M12_dist&#45;&gt;Smfc_M12</title>
<path fill="none" stroke="#000000" d="M1099.395,-360.387C1081.2772,-348.4702 1060.4002,-334.7385 1041.9639,-322.6122"/>
<polygon fill="#000000" stroke="#000000" points="1043.687,-319.5564 1033.4089,-316.9852 1039.8403,-325.4047 1043.687,-319.5564"/>
</g>
<!-- Smfc_nuY -->
<g id="node5" class="node">
<title>Smfc_nuY</title>
<ellipse fill="none" stroke="#000000" cx="964" cy="-187.43" rx="57.9655" ry="37.4533"/>
<text text-anchor="middle" x="964" y="-198.73" font-family="Times,serif" font-size="14.00" fill="#000000">Smfc_nuY</text>
<text text-anchor="middle" x="964" y="-183.73" font-family="Times,serif" font-size="14.00" fill="#000000">~</text>
<text text-anchor="middle" x="964" y="-168.73" font-family="Times,serif" font-size="14.00" fill="#000000">Exponential</text>
</g>
<!-- Smfc_y -->
<g id="node20" class="node">
<title>Smfc_y</title>
<ellipse fill="#d3d3d3" stroke="#000000" cx="843" cy="-76.4767" rx="46.8387" ry="37.4533"/>
<text text-anchor="middle" x="843" y="-87.7767" font-family="Times,serif" font-size="14.00" fill="#000000">Smfc_y</text>
<text text-anchor="middle" x="843" y="-72.7767" font-family="Times,serif" font-size="14.00" fill="#000000">~</text>
<text text-anchor="middle" x="843" y="-57.7767" font-family="Times,serif" font-size="14.00" fill="#000000">StudentT</text>
</g>
<!-- Smfc_nuY&#45;&gt;Smfc_y -->
<g id="edge18" class="edge">
<title>Smfc_nuY&#45;&gt;Smfc_y</title>
<path fill="none" stroke="#000000" d="M930.2948,-156.5233C915.1511,-142.637 897.2005,-126.1769 881.5269,-111.8046"/>
<polygon fill="#000000" stroke="#000000" points="883.7737,-109.1161 874.0377,-104.9373 879.0427,-114.2755 883.7737,-109.1161"/>
</g>
<!-- Smfc_b1_dist -->
<g id="node6" class="node">
<title>Smfc_b1_dist</title>
<ellipse fill="none" stroke="#000000" cx="375" cy="-390.3833" rx="65.1077" ry="37.4533"/>
<text text-anchor="middle" x="375" y="-401.6833" font-family="Times,serif" font-size="14.00" fill="#000000">Smfc_b1_dist</text>
<text text-anchor="middle" x="375" y="-386.6833" font-family="Times,serif" font-size="14.00" fill="#000000">~</text>
<text text-anchor="middle" x="375" y="-371.6833" font-family="Times,serif" font-size="14.00" fill="#000000">Normal</text>
</g>
<!-- Smfc_b1 -->
<g id="node13" class="node">
<title>Smfc_b1</title>
<polygon fill="none" stroke="#000000" points="282.5,-316.9066 191.5,-316.9066 191.5,-263.9066 282.5,-263.9066 282.5,-316.9066"/>
<text text-anchor="middle" x="237" y="-301.7066" font-family="Times,serif" font-size="14.00" fill="#000000">Smfc_b1</text>
<text text-anchor="middle" x="237" y="-286.7066" font-family="Times,serif" font-size="14.00" fill="#000000">~</text>
<text text-anchor="middle" x="237" y="-271.7066" font-family="Times,serif" font-size="14.00" fill="#000000">Deterministic</text>
</g>
<!-- Smfc_b1_dist&#45;&gt;Smfc_b1 -->
<g id="edge6" class="edge">
<title>Smfc_b1_dist&#45;&gt;Smfc_b1</title>
<path fill="none" stroke="#000000" d="M334.3418,-360.9277C317.8073,-348.949 298.6446,-335.0662 281.717,-322.8027"/>
<polygon fill="#000000" stroke="#000000" points="283.7594,-319.9604 273.6079,-316.9279 279.6526,-325.6291 283.7594,-319.9604"/>
</g>
<!-- Smfc_b2_dist -->
<g id="node7" class="node">
<title>Smfc_b2_dist</title>
<ellipse fill="none" stroke="#000000" cx="822" cy="-390.3833" rx="65.1077" ry="37.4533"/>
<text text-anchor="middle" x="822" y="-401.6833" font-family="Times,serif" font-size="14.00" fill="#000000">Smfc_b2_dist</text>
<text text-anchor="middle" x="822" y="-386.6833" font-family="Times,serif" font-size="14.00" fill="#000000">~</text>
<text text-anchor="middle" x="822" y="-371.6833" font-family="Times,serif" font-size="14.00" fill="#000000">Gumbel</text>
</g>
<!-- Smfc_b2 -->
<g id="node16" class="node">
<title>Smfc_b2</title>
<polygon fill="none" stroke="#000000" points="729.5,-316.9066 638.5,-316.9066 638.5,-263.9066 729.5,-263.9066 729.5,-316.9066"/>
<text text-anchor="middle" x="684" y="-301.7066" font-family="Times,serif" font-size="14.00" fill="#000000">Smfc_b2</text>
<text text-anchor="middle" x="684" y="-286.7066" font-family="Times,serif" font-size="14.00" fill="#000000">~</text>
<text text-anchor="middle" x="684" y="-271.7066" font-family="Times,serif" font-size="14.00" fill="#000000">Deterministic</text>
</g>
<!-- Smfc_b2_dist&#45;&gt;Smfc_b2 -->
<g id="edge9" class="edge">
<title>Smfc_b2_dist&#45;&gt;Smfc_b2</title>
<path fill="none" stroke="#000000" d="M781.3418,-360.9277C764.8073,-348.949 745.6446,-335.0662 728.717,-322.8027"/>
<polygon fill="#000000" stroke="#000000" points="730.7594,-319.9604 720.6079,-316.9279 726.6526,-325.6291 730.7594,-319.9604"/>
</g>
<!-- Smfc_sigmaY -->
<g id="node8" class="node">
<title>Smfc_sigmaY</title>
<ellipse fill="none" stroke="#000000" cx="1107" cy="-187.43" rx="67.3507" ry="37.4533"/>
<text text-anchor="middle" x="1107" y="-198.73" font-family="Times,serif" font-size="14.00" fill="#000000">Smfc_sigmaY</text>
<text text-anchor="middle" x="1107" y="-183.73" font-family="Times,serif" font-size="14.00" fill="#000000">~</text>
<text text-anchor="middle" x="1107" y="-168.73" font-family="Times,serif" font-size="14.00" fill="#000000">Gamma</text>
</g>
<!-- Smfc_sigmaY&#45;&gt;Smfc_y -->
<g id="edge20" class="edge">
<title>Smfc_sigmaY&#45;&gt;Smfc_y</title>
<path fill="none" stroke="#000000" d="M1057.0025,-162.0221C1048.3892,-157.8619 1039.4802,-153.6931 1031,-149.9533 985.8198,-130.0285 933.4186,-109.7769 895.4336,-95.5949"/>
<polygon fill="#000000" stroke="#000000" points="896.204,-92.1473 885.6112,-91.9428 893.7645,-98.7085 896.204,-92.1473"/>
</g>
<!-- Smfc_sigma12 -->
<g id="node9" class="node">
<title>Smfc_sigma12</title>
<ellipse fill="none" stroke="#000000" cx="1307" cy="-390.3833" rx="70.0071" ry="37.4533"/>
<text text-anchor="middle" x="1307" y="-401.6833" font-family="Times,serif" font-size="14.00" fill="#000000">Smfc_sigma12</text>
<text text-anchor="middle" x="1307" y="-386.6833" font-family="Times,serif" font-size="14.00" fill="#000000">~</text>
<text text-anchor="middle" x="1307" y="-371.6833" font-family="Times,serif" font-size="14.00" fill="#000000">HalfNormal</text>
</g>
<!-- Smfc_sigma12&#45;&gt;Smfc_M12 -->
<g id="edge11" class="edge">
<title>Smfc_sigma12&#45;&gt;Smfc_M12</title>
<path fill="none" stroke="#000000" d="M1256.1634,-364.6005C1246.9167,-360.3914 1237.2641,-356.3035 1228,-352.9066 1168.053,-330.9261 1096.9155,-313.1028 1048.7334,-302.1965"/>
<polygon fill="#000000" stroke="#000000" points="1049.3357,-298.7448 1038.8126,-299.9752 1047.8062,-305.5757 1049.3357,-298.7448"/>
</g>
<!-- Smfc_b0_dist -->
<g id="node10" class="node">
<title>Smfc_b0_dist</title>
<ellipse fill="none" stroke="#000000" cx="1754" cy="-390.3833" rx="65.1077" ry="37.4533"/>
<text text-anchor="middle" x="1754" y="-401.6833" font-family="Times,serif" font-size="14.00" fill="#000000">Smfc_b0_dist</text>
<text text-anchor="middle" x="1754" y="-386.6833" font-family="Times,serif" font-size="14.00" fill="#000000">~</text>
<text text-anchor="middle" x="1754" y="-371.6833" font-family="Times,serif" font-size="14.00" fill="#000000">Normal</text>
</g>
<!-- Smfc_b0_dist&#45;&gt;Smfc_b0 -->
<g id="edge3" class="edge">
<title>Smfc_b0_dist&#45;&gt;Smfc_b0</title>
<path fill="none" stroke="#000000" d="M1705.2734,-365.1062C1696.892,-360.9309 1688.2307,-356.7232 1680,-352.9066 1649.6692,-338.8424 1615.2945,-324.2463 1587.3125,-312.6998"/>
<polygon fill="#000000" stroke="#000000" points="1588.2785,-309.3128 1577.6987,-308.7487 1585.6176,-315.7873 1588.2785,-309.3128"/>
</g>
<!-- Smfc_mu_b1 -->
<g id="node11" class="node">
<title>Smfc_mu_b1</title>
<ellipse fill="none" stroke="#000000" cx="228" cy="-390.3833" rx="64.1938" ry="37.4533"/>
<text text-anchor="middle" x="228" y="-401.6833" font-family="Times,serif" font-size="14.00" fill="#000000">Smfc_mu_b1</text>
<text text-anchor="middle" x="228" y="-386.6833" font-family="Times,serif" font-size="14.00" fill="#000000">~</text>
<text text-anchor="middle" x="228" y="-371.6833" font-family="Times,serif" font-size="14.00" fill="#000000">Normal</text>
</g>
<!-- Smfc_mu_b1&#45;&gt;Smfc_b1 -->
<g id="edge4" class="edge">
<title>Smfc_mu_b1&#45;&gt;Smfc_b1</title>
<path fill="none" stroke="#000000" d="M231.3769,-352.8712C232.1274,-344.5341 232.9224,-335.7023 233.671,-327.3867"/>
<polygon fill="#000000" stroke="#000000" points="237.1767,-327.4793 234.5875,-317.2057 230.2049,-326.8516 237.1767,-327.4793"/>
</g>
<!-- Smfc_sigma1 -->
<g id="node12" class="node">
<title>Smfc_sigma1</title>
<ellipse fill="none" stroke="#000000" cx="81" cy="-390.3833" rx="65.1077" ry="37.4533"/>
<text text-anchor="middle" x="81" y="-401.6833" font-family="Times,serif" font-size="14.00" fill="#000000">Smfc_sigma1</text>
<text text-anchor="middle" x="81" y="-386.6833" font-family="Times,serif" font-size="14.00" fill="#000000">~</text>
<text text-anchor="middle" x="81" y="-371.6833" font-family="Times,serif" font-size="14.00" fill="#000000">HalfNormal</text>
</g>
<!-- Smfc_sigma1&#45;&gt;Smfc_b1 -->
<g id="edge5" class="edge">
<title>Smfc_sigma1&#45;&gt;Smfc_b1</title>
<path fill="none" stroke="#000000" d="M124.8698,-362.2682C144.1814,-349.8919 166.9697,-335.2874 186.9417,-322.4878"/>
<polygon fill="#000000" stroke="#000000" points="189.072,-325.2797 195.6028,-316.9371 185.2949,-319.3861 189.072,-325.2797"/>
</g>
<!-- Smfc_b1&#45;&gt;Smfc_mu -->
<g id="edge16" class="edge">
<title>Smfc_b1&#45;&gt;Smfc_mu</title>
<path fill="none" stroke="#000000" d="M282.5914,-275.6699C324.611,-262.6146 388.9175,-243.9597 446,-232.9066 566.588,-209.5569 710.2694,-196.7525 787.4219,-191.0756"/>
<polygon fill="#000000" stroke="#000000" points="787.682,-194.566 797.4034,-190.3537 787.177,-187.5842 787.682,-194.566"/>
</g>
<!-- Smfc_mu_b2 -->
<g id="node14" class="node">
<title>Smfc_mu_b2</title>
<ellipse fill="none" stroke="#000000" cx="675" cy="-390.3833" rx="64.1938" ry="37.4533"/>
<text text-anchor="middle" x="675" y="-401.6833" font-family="Times,serif" font-size="14.00" fill="#000000">Smfc_mu_b2</text>
<text text-anchor="middle" x="675" y="-386.6833" font-family="Times,serif" font-size="14.00" fill="#000000">~</text>
<text text-anchor="middle" x="675" y="-371.6833" font-family="Times,serif" font-size="14.00" fill="#000000">Normal</text>
</g>
<!-- Smfc_mu_b2&#45;&gt;Smfc_b2 -->
<g id="edge10" class="edge">
<title>Smfc_mu_b2&#45;&gt;Smfc_b2</title>
<path fill="none" stroke="#000000" d="M678.3769,-352.8712C679.1274,-344.5341 679.9224,-335.7023 680.671,-327.3867"/>
<polygon fill="#000000" stroke="#000000" points="684.1767,-327.4793 681.5875,-317.2057 677.2049,-326.8516 684.1767,-327.4793"/>
</g>
<!-- Smfc_sigma2 -->
<g id="node15" class="node">
<title>Smfc_sigma2</title>
<ellipse fill="none" stroke="#000000" cx="525" cy="-501.3366" rx="65.1077" ry="37.4533"/>
<text text-anchor="middle" x="525" y="-512.6366" font-family="Times,serif" font-size="14.00" fill="#000000">Smfc_sigma2</text>
<text text-anchor="middle" x="525" y="-497.6366" font-family="Times,serif" font-size="14.00" fill="#000000">~</text>
<text text-anchor="middle" x="525" y="-482.6366" font-family="Times,serif" font-size="14.00" fill="#000000">HalfNormal</text>
</g>
<!-- Smfc_b2_beta -->
<g id="node17" class="node">
<title>Smfc_b2_beta</title>
<ellipse fill="none" stroke="#000000" cx="525" cy="-390.3833" rx="67.3507" ry="37.4533"/>
<text text-anchor="middle" x="525" y="-401.6833" font-family="Times,serif" font-size="14.00" fill="#000000">Smfc_b2_beta</text>
<text text-anchor="middle" x="525" y="-386.6833" font-family="Times,serif" font-size="14.00" fill="#000000">~</text>
<text text-anchor="middle" x="525" y="-371.6833" font-family="Times,serif" font-size="14.00" fill="#000000">HalfNormal</text>
</g>
<!-- Smfc_sigma2&#45;&gt;Smfc_b2_beta -->
<g id="edge7" class="edge">
<title>Smfc_sigma2&#45;&gt;Smfc_b2_beta</title>
<path fill="none" stroke="#000000" d="M525,-463.7729C525,-455.549 525,-446.7367 525,-438.1736"/>
<polygon fill="#000000" stroke="#000000" points="528.5001,-437.9083 525,-427.9083 521.5001,-437.9084 528.5001,-437.9083"/>
</g>
<!-- Smfc_b2&#45;&gt;Smfc_mu -->
<g id="edge17" class="edge">
<title>Smfc_b2&#45;&gt;Smfc_mu</title>
<path fill="none" stroke="#000000" d="M724.9465,-263.8876C745.8226,-250.3671 771.3786,-233.8157 793.3675,-219.5746"/>
<polygon fill="#000000" stroke="#000000" points="795.4254,-222.4117 801.9163,-214.0379 791.6202,-216.5363 795.4254,-222.4117"/>
</g>
<!-- Smfc_b2_beta&#45;&gt;Smfc_b2 -->
<g id="edge8" class="edge">
<title>Smfc_b2_beta&#45;&gt;Smfc_b2</title>
<path fill="none" stroke="#000000" d="M569.7135,-362.2682C589.4846,-349.8364 612.8313,-335.1564 633.2528,-322.3157"/>
<polygon fill="#000000" stroke="#000000" points="635.2042,-325.2231 641.8067,-316.9371 631.4781,-319.2972 635.2042,-325.2231"/>
</g>
<!-- Smfc_M12&#45;&gt;Smfc_mu -->
<g id="edge15" class="edge">
<title>Smfc_M12&#45;&gt;Smfc_mu</title>
<path fill="none" stroke="#000000" d="M953.7174,-263.7077C936.3179,-251.8553 915.6159,-237.7169 897,-224.9066 894.6204,-223.2692 892.1835,-221.5891 889.7238,-219.8909"/>
<polygon fill="#000000" stroke="#000000" points="891.5393,-216.8911 881.3235,-214.0826 887.5582,-222.6488 891.5393,-216.8911"/>
</g>
<!-- Smfc_mu_M12 -->
<g id="node19" class="node">
<title>Smfc_mu_M12</title>
<ellipse fill="none" stroke="#000000" cx="979" cy="-390.3833" rx="73.5782" ry="37.4533"/>
<text text-anchor="middle" x="979" y="-401.6833" font-family="Times,serif" font-size="14.00" fill="#000000">Smfc_mu_M12</text>
<text text-anchor="middle" x="979" y="-386.6833" font-family="Times,serif" font-size="14.00" fill="#000000">~</text>
<text text-anchor="middle" x="979" y="-371.6833" font-family="Times,serif" font-size="14.00" fill="#000000">Normal</text>
</g>
<!-- Smfc_mu_M12&#45;&gt;Smfc_M12 -->
<g id="edge13" class="edge">
<title>Smfc_mu_M12&#45;&gt;Smfc_M12</title>
<path fill="none" stroke="#000000" d="M984.2529,-352.8712C985.4334,-344.4415 986.6846,-335.506 987.8604,-327.1097"/>
<polygon fill="#000000" stroke="#000000" points="991.3265,-327.5945 989.2473,-317.2057 984.3942,-326.6237 991.3265,-327.5945"/>
</g>
<!-- Smfc_mu&#45;&gt;Smfc_y -->
<g id="edge19" class="edge">
<title>Smfc_mu&#45;&gt;Smfc_y</title>
<path fill="none" stroke="#000000" d="M843,-160.8539C843,-149.9351 843,-136.944 843,-124.4675"/>
<polygon fill="#000000" stroke="#000000" points="846.5001,-124.1649 843,-114.165 839.5001,-124.165 846.5001,-124.1649"/>
</g>
</g>
</svg>
