<?xml version="1.0" encoding="UTF-8" standalone="no"?>
<!DOCTYPE svg PUBLIC "-//W3C//DTD SVG 1.1//EN"
 "http://www.w3.org/Graphics/SVG/1.1/DTD/svg11.dtd">
<!-- Generated by graphviz version 2.40.1 (20161225.0304)
 -->
<!-- Title: HAsfc9 Pages: 1 -->
<svg width="2048pt" height="563pt"
 viewBox="0.00 0.00 2048.25 562.81" xmlns="http://www.w3.org/2000/svg" xmlns:xlink="http://www.w3.org/1999/xlink">
<g id="graph0" class="graph" transform="scale(1 1) rotate(0) translate(4 558.8133)">
<title>HAsfc9</title>
<polygon fill="#ffffff" stroke="transparent" points="-4,4 -4,-558.8133 2044.2462,-558.8133 2044.2462,4 -4,4"/>
<g id="clust1" class="cluster">
<title>cluster2</title>
<path fill="none" stroke="#000000" d="M20,-232.9066C20,-232.9066 326,-232.9066 326,-232.9066 332,-232.9066 338,-238.9066 338,-244.9066 338,-244.9066 338,-423.86 338,-423.86 338,-429.86 332,-435.86 326,-435.86 326,-435.86 20,-435.86 20,-435.86 14,-435.86 8,-429.86 8,-423.86 8,-423.86 8,-244.9066 8,-244.9066 8,-238.9066 14,-232.9066 20,-232.9066"/>
<text text-anchor="middle" x="326.5" y="-240.7066" font-family="Times,serif" font-size="14.00" fill="#000000">2</text>
</g>
<g id="clust2" class="cluster">
<title>cluster11</title>
<path fill="none" stroke="#000000" d="M519,-232.9066C519,-232.9066 829,-232.9066 829,-232.9066 835,-232.9066 841,-238.9066 841,-244.9066 841,-244.9066 841,-534.8133 841,-534.8133 841,-540.8133 835,-546.8133 829,-546.8133 829,-546.8133 519,-546.8133 519,-546.8133 513,-546.8133 507,-540.8133 507,-534.8133 507,-534.8133 507,-244.9066 507,-244.9066 507,-238.9066 513,-232.9066 519,-232.9066"/>
<text text-anchor="middle" x="826" y="-240.7066" font-family="Times,serif" font-size="14.00" fill="#000000">11</text>
</g>
<g id="clust3" class="cluster">
<title>cluster2 x 11</title>
<path fill="none" stroke="#000000" d="M1021,-232.9066C1021,-232.9066 1177,-232.9066 1177,-232.9066 1183,-232.9066 1189,-238.9066 1189,-244.9066 1189,-244.9066 1189,-423.86 1189,-423.86 1189,-429.86 1183,-435.86 1177,-435.86 1177,-435.86 1021,-435.86 1021,-435.86 1015,-435.86 1009,-429.86 1009,-423.86 1009,-423.86 1009,-244.9066 1009,-244.9066 1009,-238.9066 1015,-232.9066 1021,-232.9066"/>
<text text-anchor="middle" x="1163.5" y="-240.7066" font-family="Times,serif" font-size="14.00" fill="#000000">2 x 11</text>
</g>
<g id="clust4" class="cluster">
<title>cluster278</title>
<path fill="none" stroke="#000000" d="M905,-8C905,-8 999,-8 999,-8 1005,-8 1011,-14 1011,-20 1011,-20 1011,-209.93 1011,-209.93 1011,-215.93 1005,-221.93 999,-221.93 999,-221.93 905,-221.93 905,-221.93 899,-221.93 893,-215.93 893,-209.93 893,-209.93 893,-20 893,-20 893,-14 899,-8 905,-8"/>
<text text-anchor="middle" x="992.5" y="-15.8" font-family="Times,serif" font-size="14.00" fill="#000000">278</text>
</g>
<!-- HAsfc9_mu_b0 -->
<g id="node1" class="node">
<title>HAsfc9_mu_b0</title>
<ellipse fill="none" stroke="#000000" cx="1634" cy="-390.3833" rx="73.5782" ry="37.4533"/>
<text text-anchor="middle" x="1634" y="-401.6833" font-family="Times,serif" font-size="14.00" fill="#000000">HAsfc9_mu_b0</text>
<text text-anchor="middle" x="1634" y="-386.6833" font-family="Times,serif" font-size="14.00" fill="#000000">~</text>
<text text-anchor="middle" x="1634" y="-371.6833" font-family="Times,serif" font-size="14.00" fill="#000000">Normal</text>
</g>
<!-- HAsfc9_b0 -->
<g id="node7" class="node">
<title>HAsfc9_b0</title>
<polygon fill="none" stroke="#000000" points="1762.5,-316.9066 1671.5,-316.9066 1671.5,-263.9066 1762.5,-263.9066 1762.5,-316.9066"/>
<text text-anchor="middle" x="1717" y="-301.7066" font-family="Times,serif" font-size="14.00" fill="#000000">HAsfc9_b0</text>
<text text-anchor="middle" x="1717" y="-286.7066" font-family="Times,serif" font-size="14.00" fill="#000000">~</text>
<text text-anchor="middle" x="1717" y="-271.7066" font-family="Times,serif" font-size="14.00" fill="#000000">Deterministic</text>
</g>
<!-- HAsfc9_mu_b0&#45;&gt;HAsfc9_b0 -->
<g id="edge2" class="edge">
<title>HAsfc9_mu_b0&#45;&gt;HAsfc9_b0</title>
<path fill="none" stroke="#000000" d="M1662.7964,-355.6969C1671.0721,-345.7286 1680.0936,-334.8618 1688.3597,-324.9049"/>
<polygon fill="#000000" stroke="#000000" points="1691.1038,-327.079 1694.7984,-317.1493 1685.7179,-322.6077 1691.1038,-327.079"/>
</g>
<!-- HAsfc9_M12_dist -->
<g id="node2" class="node">
<title>HAsfc9_M12_dist</title>
<ellipse fill="none" stroke="#000000" cx="1282" cy="-390.3833" rx="83.3772" ry="37.4533"/>
<text text-anchor="middle" x="1282" y="-401.6833" font-family="Times,serif" font-size="14.00" fill="#000000">HAsfc9_M12_dist</text>
<text text-anchor="middle" x="1282" y="-386.6833" font-family="Times,serif" font-size="14.00" fill="#000000">~</text>
<text text-anchor="middle" x="1282" y="-371.6833" font-family="Times,serif" font-size="14.00" fill="#000000">Normal</text>
</g>
<!-- HAsfc9_M12 -->
<g id="node19" class="node">
<title>HAsfc9_M12</title>
<polygon fill="none" stroke="#000000" points="1163,-316.9066 1071,-316.9066 1071,-263.9066 1163,-263.9066 1163,-316.9066"/>
<text text-anchor="middle" x="1117" y="-301.7066" font-family="Times,serif" font-size="14.00" fill="#000000">HAsfc9_M12</text>
<text text-anchor="middle" x="1117" y="-286.7066" font-family="Times,serif" font-size="14.00" fill="#000000">~</text>
<text text-anchor="middle" x="1117" y="-271.7066" font-family="Times,serif" font-size="14.00" fill="#000000">Deterministic</text>
</g>
<!-- HAsfc9_M12_dist&#45;&gt;HAsfc9_M12 -->
<g id="edge13" class="edge">
<title>HAsfc9_M12_dist&#45;&gt;HAsfc9_M12</title>
<path fill="none" stroke="#000000" d="M1232.0468,-360.1157C1212.2996,-348.1505 1189.5896,-334.3901 1169.5913,-322.2727"/>
<polygon fill="#000000" stroke="#000000" points="1171.276,-319.2012 1160.9097,-317.0124 1167.6485,-325.1879 1171.276,-319.2012"/>
</g>
<!-- HAsfc9_b0_dist -->
<g id="node3" class="node">
<title>HAsfc9_b0_dist</title>
<ellipse fill="none" stroke="#000000" cx="1800" cy="-390.3833" rx="74.4932" ry="37.4533"/>
<text text-anchor="middle" x="1800" y="-401.6833" font-family="Times,serif" font-size="14.00" fill="#000000">HAsfc9_b0_dist</text>
<text text-anchor="middle" x="1800" y="-386.6833" font-family="Times,serif" font-size="14.00" fill="#000000">~</text>
<text text-anchor="middle" x="1800" y="-371.6833" font-family="Times,serif" font-size="14.00" fill="#000000">Normal</text>
</g>
<!-- HAsfc9_b0_dist&#45;&gt;HAsfc9_b0 -->
<g id="edge3" class="edge">
<title>HAsfc9_b0_dist&#45;&gt;HAsfc9_b0</title>
<path fill="none" stroke="#000000" d="M1771.2036,-355.6969C1762.9279,-345.7286 1753.9064,-334.8618 1745.6403,-324.9049"/>
<polygon fill="#000000" stroke="#000000" points="1748.2821,-322.6077 1739.2016,-317.1493 1742.8962,-327.079 1748.2821,-322.6077"/>
</g>
<!-- HAsfc9_b1_dist -->
<g id="node4" class="node">
<title>HAsfc9_b1_dist</title>
<ellipse fill="none" stroke="#000000" cx="422" cy="-390.3833" rx="74.4932" ry="37.4533"/>
<text text-anchor="middle" x="422" y="-401.6833" font-family="Times,serif" font-size="14.00" fill="#000000">HAsfc9_b1_dist</text>
<text text-anchor="middle" x="422" y="-386.6833" font-family="Times,serif" font-size="14.00" fill="#000000">~</text>
<text text-anchor="middle" x="422" y="-371.6833" font-family="Times,serif" font-size="14.00" fill="#000000">Normal</text>
</g>
<!-- HAsfc9_b1 -->
<g id="node11" class="node">
<title>HAsfc9_b1</title>
<polygon fill="none" stroke="#000000" points="315.5,-316.9066 224.5,-316.9066 224.5,-263.9066 315.5,-263.9066 315.5,-316.9066"/>
<text text-anchor="middle" x="270" y="-301.7066" font-family="Times,serif" font-size="14.00" fill="#000000">HAsfc9_b1</text>
<text text-anchor="middle" x="270" y="-286.7066" font-family="Times,serif" font-size="14.00" fill="#000000">~</text>
<text text-anchor="middle" x="270" y="-271.7066" font-family="Times,serif" font-size="14.00" fill="#000000">Deterministic</text>
</g>
<!-- HAsfc9_b1_dist&#45;&gt;HAsfc9_b1 -->
<g id="edge4" class="edge">
<title>HAsfc9_b1_dist&#45;&gt;HAsfc9_b1</title>
<path fill="none" stroke="#000000" d="M376.395,-360.387C358.2772,-348.4702 337.4002,-334.7385 318.9639,-322.6122"/>
<polygon fill="#000000" stroke="#000000" points="320.687,-319.5564 310.4089,-316.9852 316.8403,-325.4047 320.687,-319.5564"/>
</g>
<!-- HAsfc9_b2_dist -->
<g id="node5" class="node">
<title>HAsfc9_b2_dist</title>
<ellipse fill="none" stroke="#000000" cx="925" cy="-390.3833" rx="74.4932" ry="37.4533"/>
<text text-anchor="middle" x="925" y="-401.6833" font-family="Times,serif" font-size="14.00" fill="#000000">HAsfc9_b2_dist</text>
<text text-anchor="middle" x="925" y="-386.6833" font-family="Times,serif" font-size="14.00" fill="#000000">~</text>
<text text-anchor="middle" x="925" y="-371.6833" font-family="Times,serif" font-size="14.00" fill="#000000">Gumbel</text>
</g>
<!-- HAsfc9_b2 -->
<g id="node16" class="node">
<title>HAsfc9_b2</title>
<polygon fill="none" stroke="#000000" points="818.5,-316.9066 727.5,-316.9066 727.5,-263.9066 818.5,-263.9066 818.5,-316.9066"/>
<text text-anchor="middle" x="773" y="-301.7066" font-family="Times,serif" font-size="14.00" fill="#000000">HAsfc9_b2</text>
<text text-anchor="middle" x="773" y="-286.7066" font-family="Times,serif" font-size="14.00" fill="#000000">~</text>
<text text-anchor="middle" x="773" y="-271.7066" font-family="Times,serif" font-size="14.00" fill="#000000">Deterministic</text>
</g>
<!-- HAsfc9_b2_dist&#45;&gt;HAsfc9_b2 -->
<g id="edge10" class="edge">
<title>HAsfc9_b2_dist&#45;&gt;HAsfc9_b2</title>
<path fill="none" stroke="#000000" d="M879.395,-360.387C861.2772,-348.4702 840.4002,-334.7385 821.9639,-322.6122"/>
<polygon fill="#000000" stroke="#000000" points="823.687,-319.5564 813.4089,-316.9852 819.8403,-325.4047 823.687,-319.5564"/>
</g>
<!-- HAsfc9_sigma0 -->
<g id="node6" class="node">
<title>HAsfc9_sigma0</title>
<ellipse fill="none" stroke="#000000" cx="1966" cy="-390.3833" rx="74.4932" ry="37.4533"/>
<text text-anchor="middle" x="1966" y="-401.6833" font-family="Times,serif" font-size="14.00" fill="#000000">HAsfc9_sigma0</text>
<text text-anchor="middle" x="1966" y="-386.6833" font-family="Times,serif" font-size="14.00" fill="#000000">~</text>
<text text-anchor="middle" x="1966" y="-371.6833" font-family="Times,serif" font-size="14.00" fill="#000000">HalfNormal</text>
</g>
<!-- HAsfc9_sigma0&#45;&gt;HAsfc9_b0 -->
<g id="edge1" class="edge">
<title>HAsfc9_sigma0&#45;&gt;HAsfc9_b0</title>
<path fill="none" stroke="#000000" d="M1910.8534,-364.89C1901.5978,-360.7822 1892.0586,-356.6525 1883,-352.9066 1846.5079,-337.8165 1804.9226,-322.1618 1772.5031,-310.2946"/>
<polygon fill="#000000" stroke="#000000" points="1773.3459,-306.8765 1762.7519,-306.7381 1770.9473,-313.4527 1773.3459,-306.8765"/>
</g>
<!-- HAsfc9_mu -->
<g id="node20" class="node">
<title>HAsfc9_mu</title>
<polygon fill="none" stroke="#000000" points="997.5,-213.93 906.5,-213.93 906.5,-160.93 997.5,-160.93 997.5,-213.93"/>
<text text-anchor="middle" x="952" y="-198.73" font-family="Times,serif" font-size="14.00" fill="#000000">HAsfc9_mu</text>
<text text-anchor="middle" x="952" y="-183.73" font-family="Times,serif" font-size="14.00" fill="#000000">~</text>
<text text-anchor="middle" x="952" y="-168.73" font-family="Times,serif" font-size="14.00" fill="#000000">Deterministic</text>
</g>
<!-- HAsfc9_b0&#45;&gt;HAsfc9_mu -->
<g id="edge14" class="edge">
<title>HAsfc9_b0&#45;&gt;HAsfc9_mu</title>
<path fill="none" stroke="#000000" d="M1671.1842,-284.3553C1580.2101,-272.5666 1370.2545,-246.4917 1193,-232.9066 1152.4135,-229.796 1048.7816,-237.2729 1010,-224.9066 1005.1278,-223.3531 1000.269,-221.2767 995.5543,-218.8949"/>
<polygon fill="#000000" stroke="#000000" points="997.1442,-215.7746 986.6998,-213.9953 993.755,-221.8994 997.1442,-215.7746"/>
</g>
<!-- HAsfc9_sigma12 -->
<g id="node8" class="node">
<title>HAsfc9_sigma12</title>
<ellipse fill="none" stroke="#000000" cx="1463" cy="-390.3833" rx="79.3924" ry="37.4533"/>
<text text-anchor="middle" x="1463" y="-401.6833" font-family="Times,serif" font-size="14.00" fill="#000000">HAsfc9_sigma12</text>
<text text-anchor="middle" x="1463" y="-386.6833" font-family="Times,serif" font-size="14.00" fill="#000000">~</text>
<text text-anchor="middle" x="1463" y="-371.6833" font-family="Times,serif" font-size="14.00" fill="#000000">HalfNormal</text>
</g>
<!-- HAsfc9_sigma12&#45;&gt;HAsfc9_M12 -->
<g id="edge12" class="edge">
<title>HAsfc9_sigma12&#45;&gt;HAsfc9_M12</title>
<path fill="none" stroke="#000000" d="M1405.1019,-364.4333C1394.8475,-360.2897 1384.19,-356.2672 1374,-352.9066 1305.9932,-330.4789 1225.471,-312.1826 1172.9186,-301.307"/>
<polygon fill="#000000" stroke="#000000" points="1173.6164,-297.8773 1163.1172,-299.2975 1172.2105,-304.7347 1173.6164,-297.8773"/>
</g>
<!-- HAsfc9_nuY -->
<g id="node9" class="node">
<title>HAsfc9_nuY</title>
<ellipse fill="none" stroke="#000000" cx="1082" cy="-187.43" rx="62.8651" ry="37.4533"/>
<text text-anchor="middle" x="1082" y="-198.73" font-family="Times,serif" font-size="14.00" fill="#000000">HAsfc9_nuY</text>
<text text-anchor="middle" x="1082" y="-183.73" font-family="Times,serif" font-size="14.00" fill="#000000">~</text>
<text text-anchor="middle" x="1082" y="-168.73" font-family="Times,serif" font-size="14.00" fill="#000000">Exponential</text>
</g>
<!-- HAsfc9_y -->
<g id="node21" class="node">
<title>HAsfc9_y</title>
<ellipse fill="#d3d3d3" stroke="#000000" cx="952" cy="-76.4767" rx="50.8235" ry="37.4533"/>
<text text-anchor="middle" x="952" y="-87.7767" font-family="Times,serif" font-size="14.00" fill="#000000">HAsfc9_y</text>
<text text-anchor="middle" x="952" y="-72.7767" font-family="Times,serif" font-size="14.00" fill="#000000">~</text>
<text text-anchor="middle" x="952" y="-57.7767" font-family="Times,serif" font-size="14.00" fill="#000000">StudentT</text>
</g>
<!-- HAsfc9_nuY&#45;&gt;HAsfc9_y -->
<g id="edge19" class="edge">
<title>HAsfc9_nuY&#45;&gt;HAsfc9_y</title>
<path fill="none" stroke="#000000" d="M1045.7878,-156.5233C1029.5177,-142.637 1010.232,-126.1769 993.3925,-111.8046"/>
<polygon fill="#000000" stroke="#000000" points="995.2248,-108.767 985.3463,-104.9373 990.6805,-114.0914 995.2248,-108.767"/>
</g>
<!-- HAsfc9_sigmaY -->
<g id="node10" class="node">
<title>HAsfc9_sigmaY</title>
<ellipse fill="none" stroke="#000000" cx="1239" cy="-187.43" rx="76.2353" ry="37.4533"/>
<text text-anchor="middle" x="1239" y="-198.73" font-family="Times,serif" font-size="14.00" fill="#000000">HAsfc9_sigmaY</text>
<text text-anchor="middle" x="1239" y="-183.73" font-family="Times,serif" font-size="14.00" fill="#000000">~</text>
<text text-anchor="middle" x="1239" y="-168.73" font-family="Times,serif" font-size="14.00" fill="#000000">Gamma</text>
</g>
<!-- HAsfc9_sigmaY&#45;&gt;HAsfc9_y -->
<g id="edge20" class="edge">
<title>HAsfc9_sigmaY&#45;&gt;HAsfc9_y</title>
<path fill="none" stroke="#000000" d="M1182.5268,-161.906C1173.0479,-157.8018 1163.2782,-153.6814 1154,-149.9533 1105.1134,-130.3102 1048.7111,-109.9858 1007.9513,-95.7058"/>
<polygon fill="#000000" stroke="#000000" points="1009.0567,-92.3846 998.4618,-92.3913 1006.7484,-98.9931 1009.0567,-92.3846"/>
</g>
<!-- HAsfc9_b1&#45;&gt;HAsfc9_mu -->
<g id="edge17" class="edge">
<title>HAsfc9_b1&#45;&gt;HAsfc9_mu</title>
<path fill="none" stroke="#000000" d="M315.5741,-277.1341C362.2531,-264.0202 437.1081,-244.3154 503,-232.9066 643.4393,-208.5905 811.0085,-195.869 896.2364,-190.5422"/>
<polygon fill="#000000" stroke="#000000" points="896.6965,-194.0207 906.463,-189.914 896.2672,-187.0338 896.6965,-194.0207"/>
</g>
<!-- HAsfc9_sigma1 -->
<g id="node12" class="node">
<title>HAsfc9_sigma1</title>
<ellipse fill="none" stroke="#000000" cx="256" cy="-390.3833" rx="74.4932" ry="37.4533"/>
<text text-anchor="middle" x="256" y="-401.6833" font-family="Times,serif" font-size="14.00" fill="#000000">HAsfc9_sigma1</text>
<text text-anchor="middle" x="256" y="-386.6833" font-family="Times,serif" font-size="14.00" fill="#000000">~</text>
<text text-anchor="middle" x="256" y="-371.6833" font-family="Times,serif" font-size="14.00" fill="#000000">HalfNormal</text>
</g>
<!-- HAsfc9_sigma1&#45;&gt;HAsfc9_b1 -->
<g id="edge6" class="edge">
<title>HAsfc9_sigma1&#45;&gt;HAsfc9_b1</title>
<path fill="none" stroke="#000000" d="M261.2529,-352.8712C262.4334,-344.4415 263.6846,-335.506 264.8604,-327.1097"/>
<polygon fill="#000000" stroke="#000000" points="268.3265,-327.5945 266.2473,-317.2057 261.3942,-326.6237 268.3265,-327.5945"/>
</g>
<!-- HAsfc9_mu_b1 -->
<g id="node13" class="node">
<title>HAsfc9_mu_b1</title>
<ellipse fill="none" stroke="#000000" cx="90" cy="-390.3833" rx="73.5782" ry="37.4533"/>
<text text-anchor="middle" x="90" y="-401.6833" font-family="Times,serif" font-size="14.00" fill="#000000">HAsfc9_mu_b1</text>
<text text-anchor="middle" x="90" y="-386.6833" font-family="Times,serif" font-size="14.00" fill="#000000">~</text>
<text text-anchor="middle" x="90" y="-371.6833" font-family="Times,serif" font-size="14.00" fill="#000000">Normal</text>
</g>
<!-- HAsfc9_mu_b1&#45;&gt;HAsfc9_b1 -->
<g id="edge5" class="edge">
<title>HAsfc9_mu_b1&#45;&gt;HAsfc9_b1</title>
<path fill="none" stroke="#000000" d="M140.14,-362.5342C163.5691,-349.5211 191.5145,-333.9995 215.469,-320.6946"/>
<polygon fill="#000000" stroke="#000000" points="217.394,-323.629 224.4366,-315.7137 213.9951,-317.5096 217.394,-323.629"/>
</g>
<!-- HAsfc9_mu_b2 -->
<g id="node14" class="node">
<title>HAsfc9_mu_b2</title>
<ellipse fill="none" stroke="#000000" cx="759" cy="-390.3833" rx="73.5782" ry="37.4533"/>
<text text-anchor="middle" x="759" y="-401.6833" font-family="Times,serif" font-size="14.00" fill="#000000">HAsfc9_mu_b2</text>
<text text-anchor="middle" x="759" y="-386.6833" font-family="Times,serif" font-size="14.00" fill="#000000">~</text>
<text text-anchor="middle" x="759" y="-371.6833" font-family="Times,serif" font-size="14.00" fill="#000000">Normal</text>
</g>
<!-- HAsfc9_mu_b2&#45;&gt;HAsfc9_b2 -->
<g id="edge8" class="edge">
<title>HAsfc9_mu_b2&#45;&gt;HAsfc9_b2</title>
<path fill="none" stroke="#000000" d="M764.2529,-352.8712C765.4334,-344.4415 766.6846,-335.506 767.8604,-327.1097"/>
<polygon fill="#000000" stroke="#000000" points="771.3265,-327.5945 769.2473,-317.2057 764.3942,-326.6237 771.3265,-327.5945"/>
</g>
<!-- HAsfc9_b2_beta -->
<g id="node15" class="node">
<title>HAsfc9_b2_beta</title>
<ellipse fill="none" stroke="#000000" cx="591" cy="-390.3833" rx="76.2353" ry="37.4533"/>
<text text-anchor="middle" x="591" y="-401.6833" font-family="Times,serif" font-size="14.00" fill="#000000">HAsfc9_b2_beta</text>
<text text-anchor="middle" x="591" y="-386.6833" font-family="Times,serif" font-size="14.00" fill="#000000">~</text>
<text text-anchor="middle" x="591" y="-371.6833" font-family="Times,serif" font-size="14.00" fill="#000000">HalfNormal</text>
</g>
<!-- HAsfc9_b2_beta&#45;&gt;HAsfc9_b2 -->
<g id="edge9" class="edge">
<title>HAsfc9_b2_beta&#45;&gt;HAsfc9_b2</title>
<path fill="none" stroke="#000000" d="M642.1815,-362.2682C665.9548,-349.209 694.2443,-333.6689 718.4246,-320.3861"/>
<polygon fill="#000000" stroke="#000000" points="720.3931,-323.2981 727.4727,-315.4158 717.0229,-317.1628 720.3931,-323.2981"/>
</g>
<!-- HAsfc9_b2&#45;&gt;HAsfc9_mu -->
<g id="edge16" class="edge">
<title>HAsfc9_b2&#45;&gt;HAsfc9_mu</title>
<path fill="none" stroke="#000000" d="M818.6324,-264.1548C842.723,-250.2958 872.447,-233.1959 897.7155,-218.6592"/>
<polygon fill="#000000" stroke="#000000" points="899.5282,-221.6543 906.4509,-213.6338 896.0376,-215.5867 899.5282,-221.6543"/>
</g>
<!-- HAsfc9_sigma2 -->
<g id="node17" class="node">
<title>HAsfc9_sigma2</title>
<ellipse fill="none" stroke="#000000" cx="591" cy="-501.3366" rx="74.4932" ry="37.4533"/>
<text text-anchor="middle" x="591" y="-512.6366" font-family="Times,serif" font-size="14.00" fill="#000000">HAsfc9_sigma2</text>
<text text-anchor="middle" x="591" y="-497.6366" font-family="Times,serif" font-size="14.00" fill="#000000">~</text>
<text text-anchor="middle" x="591" y="-482.6366" font-family="Times,serif" font-size="14.00" fill="#000000">HalfNormal</text>
</g>
<!-- HAsfc9_sigma2&#45;&gt;HAsfc9_b2_beta -->
<g id="edge7" class="edge">
<title>HAsfc9_sigma2&#45;&gt;HAsfc9_b2_beta</title>
<path fill="none" stroke="#000000" d="M591,-463.7729C591,-455.549 591,-446.7367 591,-438.1736"/>
<polygon fill="#000000" stroke="#000000" points="594.5001,-437.9083 591,-427.9083 587.5001,-437.9084 594.5001,-437.9083"/>
</g>
<!-- HAsfc9_mu_M12 -->
<g id="node18" class="node">
<title>HAsfc9_mu_M12</title>
<ellipse fill="none" stroke="#000000" cx="1099" cy="-390.3833" rx="82.0488" ry="37.4533"/>
<text text-anchor="middle" x="1099" y="-401.6833" font-family="Times,serif" font-size="14.00" fill="#000000">HAsfc9_mu_M12</text>
<text text-anchor="middle" x="1099" y="-386.6833" font-family="Times,serif" font-size="14.00" fill="#000000">~</text>
<text text-anchor="middle" x="1099" y="-371.6833" font-family="Times,serif" font-size="14.00" fill="#000000">Normal</text>
</g>
<!-- HAsfc9_mu_M12&#45;&gt;HAsfc9_M12 -->
<g id="edge11" class="edge">
<title>HAsfc9_mu_M12&#45;&gt;HAsfc9_M12</title>
<path fill="none" stroke="#000000" d="M1105.7537,-352.8712C1107.2715,-344.4415 1108.8802,-335.506 1110.3919,-327.1097"/>
<polygon fill="#000000" stroke="#000000" points="1113.8476,-327.6677 1112.175,-317.2057 1106.9584,-326.4273 1113.8476,-327.6677"/>
</g>
<!-- HAsfc9_M12&#45;&gt;HAsfc9_mu -->
<g id="edge15" class="edge">
<title>HAsfc9_M12&#45;&gt;HAsfc9_mu</title>
<path fill="none" stroke="#000000" d="M1073.1213,-263.877C1053.7105,-252.0559 1030.6489,-237.8952 1010,-224.9066 1007.2093,-223.1512 1004.3489,-221.3405 1001.466,-219.5066"/>
<polygon fill="#000000" stroke="#000000" points="1003.1079,-216.4023 992.7966,-213.9675 999.339,-222.3011 1003.1079,-216.4023"/>
</g>
<!-- HAsfc9_mu&#45;&gt;HAsfc9_y -->
<g id="edge18" class="edge">
<title>HAsfc9_mu&#45;&gt;HAsfc9_y</title>
<path fill="none" stroke="#000000" d="M952,-160.8539C952,-149.9351 952,-136.944 952,-124.4675"/>
<polygon fill="#000000" stroke="#000000" points="955.5001,-124.1649 952,-114.165 948.5001,-124.165 955.5001,-124.1649"/>
</g>
</g>
</svg>
