<?xml version="1.0" encoding="UTF-8" standalone="no"?>
<!DOCTYPE svg PUBLIC "-//W3C//DTD SVG 1.1//EN"
 "http://www.w3.org/Graphics/SVG/1.1/DTD/svg11.dtd">
<!-- Generated by graphviz version 2.40.1 (20161225.0304)
 -->
<!-- Title: Asfc Pages: 1 -->
<svg width="1752pt" height="563pt"
 viewBox="0.00 0.00 1752.35 562.81" xmlns="http://www.w3.org/2000/svg" xmlns:xlink="http://www.w3.org/1999/xlink">
<g id="graph0" class="graph" transform="scale(1 1) rotate(0) translate(4 558.8133)">
<title>Asfc</title>
<polygon fill="#ffffff" stroke="transparent" points="-4,4 -4,-558.8133 1748.3503,-558.8133 1748.3503,4 -4,4"/>
<g id="clust1" class="cluster">
<title>cluster2</title>
<path fill="none" stroke="#000000" d="M431.9325,-232.9066C431.9325,-232.9066 690.9325,-232.9066 690.9325,-232.9066 696.9325,-232.9066 702.9325,-238.9066 702.9325,-244.9066 702.9325,-244.9066 702.9325,-423.86 702.9325,-423.86 702.9325,-429.86 696.9325,-435.86 690.9325,-435.86 690.9325,-435.86 431.9325,-435.86 431.9325,-435.86 425.9325,-435.86 419.9325,-429.86 419.9325,-423.86 419.9325,-423.86 419.9325,-244.9066 419.9325,-244.9066 419.9325,-238.9066 425.9325,-232.9066 431.9325,-232.9066"/>
<text text-anchor="middle" x="691.4325" y="-240.7066" font-family="Times,serif" font-size="14.00" fill="#000000">2</text>
</g>
<g id="clust2" class="cluster">
<title>cluster11</title>
<path fill="none" stroke="#000000" d="M858.9325,-232.9066C858.9325,-232.9066 1122.9325,-232.9066 1122.9325,-232.9066 1128.9325,-232.9066 1134.9325,-238.9066 1134.9325,-244.9066 1134.9325,-244.9066 1134.9325,-534.8133 1134.9325,-534.8133 1134.9325,-540.8133 1128.9325,-546.8133 1122.9325,-546.8133 1122.9325,-546.8133 858.9325,-546.8133 858.9325,-546.8133 852.9325,-546.8133 846.9325,-540.8133 846.9325,-534.8133 846.9325,-534.8133 846.9325,-244.9066 846.9325,-244.9066 846.9325,-238.9066 852.9325,-232.9066 858.9325,-232.9066"/>
<text text-anchor="middle" x="1119.9325" y="-240.7066" font-family="Times,serif" font-size="14.00" fill="#000000">11</text>
</g>
<g id="clust3" class="cluster">
<title>cluster2 x 11</title>
<path fill="none" stroke="#000000" d="M1292.9325,-232.9066C1292.9325,-232.9066 1426.9325,-232.9066 1426.9325,-232.9066 1432.9325,-232.9066 1438.9325,-238.9066 1438.9325,-244.9066 1438.9325,-244.9066 1438.9325,-423.86 1438.9325,-423.86 1438.9325,-429.86 1432.9325,-435.86 1426.9325,-435.86 1426.9325,-435.86 1292.9325,-435.86 1292.9325,-435.86 1286.9325,-435.86 1280.9325,-429.86 1280.9325,-423.86 1280.9325,-423.86 1280.9325,-244.9066 1280.9325,-244.9066 1280.9325,-238.9066 1286.9325,-232.9066 1292.9325,-232.9066"/>
<text text-anchor="middle" x="1413.4325" y="-240.7066" font-family="Times,serif" font-size="14.00" fill="#000000">2 x 11</text>
</g>
<g id="clust4" class="cluster">
<title>cluster278</title>
<path fill="none" stroke="#000000" d="M775.9325,-8C775.9325,-8 861.9325,-8 861.9325,-8 867.9325,-8 873.9325,-14 873.9325,-20 873.9325,-20 873.9325,-209.93 873.9325,-209.93 873.9325,-215.93 867.9325,-221.93 861.9325,-221.93 861.9325,-221.93 775.9325,-221.93 775.9325,-221.93 769.9325,-221.93 763.9325,-215.93 763.9325,-209.93 763.9325,-209.93 763.9325,-20 763.9325,-20 763.9325,-14 769.9325,-8 775.9325,-8"/>
<text text-anchor="middle" x="855.4325" y="-15.8" font-family="Times,serif" font-size="14.00" fill="#000000">278</text>
</g>
<!-- Asfc_nuY -->
<g id="node1" class="node">
<title>Asfc_nuY</title>
<ellipse fill="none" stroke="#000000" cx="697.9325" cy="-187.43" rx="57.9655" ry="37.4533"/>
<text text-anchor="middle" x="697.9325" y="-198.73" font-family="Times,serif" font-size="14.00" fill="#000000">Asfc_nuY</text>
<text text-anchor="middle" x="697.9325" y="-183.73" font-family="Times,serif" font-size="14.00" fill="#000000">~</text>
<text text-anchor="middle" x="697.9325" y="-168.73" font-family="Times,serif" font-size="14.00" fill="#000000">Exponential</text>
</g>
<!-- Asfc_y -->
<g id="node20" class="node">
<title>Asfc_y</title>
<ellipse fill="#d3d3d3" stroke="#000000" cx="818.9325" cy="-76.4767" rx="46.8387" ry="37.4533"/>
<text text-anchor="middle" x="818.9325" y="-87.7767" font-family="Times,serif" font-size="14.00" fill="#000000">Asfc_y</text>
<text text-anchor="middle" x="818.9325" y="-72.7767" font-family="Times,serif" font-size="14.00" fill="#000000">~</text>
<text text-anchor="middle" x="818.9325" y="-57.7767" font-family="Times,serif" font-size="14.00" fill="#000000">StudentT</text>
</g>
<!-- Asfc_nuY&#45;&gt;Asfc_y -->
<g id="edge18" class="edge">
<title>Asfc_nuY&#45;&gt;Asfc_y</title>
<path fill="none" stroke="#000000" d="M731.6377,-156.5233C746.7814,-142.637 764.732,-126.1769 780.4056,-111.8046"/>
<polygon fill="#000000" stroke="#000000" points="782.8898,-114.2755 787.8948,-104.9373 778.1588,-109.1161 782.8898,-114.2755"/>
</g>
<!-- Asfc_b0 -->
<g id="node2" class="node">
<title>Asfc_b0</title>
<polygon fill="none" stroke="#000000" points="323.4325,-316.9066 232.4325,-316.9066 232.4325,-263.9066 323.4325,-263.9066 323.4325,-316.9066"/>
<text text-anchor="middle" x="277.9325" y="-301.7066" font-family="Times,serif" font-size="14.00" fill="#000000">Asfc_b0</text>
<text text-anchor="middle" x="277.9325" y="-286.7066" font-family="Times,serif" font-size="14.00" fill="#000000">~</text>
<text text-anchor="middle" x="277.9325" y="-271.7066" font-family="Times,serif" font-size="14.00" fill="#000000">Deterministic</text>
</g>
<!-- Asfc_mu -->
<g id="node21" class="node">
<title>Asfc_mu</title>
<polygon fill="none" stroke="#000000" points="864.4325,-213.93 773.4325,-213.93 773.4325,-160.93 864.4325,-160.93 864.4325,-213.93"/>
<text text-anchor="middle" x="818.9325" y="-198.73" font-family="Times,serif" font-size="14.00" fill="#000000">Asfc_mu</text>
<text text-anchor="middle" x="818.9325" y="-183.73" font-family="Times,serif" font-size="14.00" fill="#000000">~</text>
<text text-anchor="middle" x="818.9325" y="-168.73" font-family="Times,serif" font-size="14.00" fill="#000000">Deterministic</text>
</g>
<!-- Asfc_b0&#45;&gt;Asfc_mu -->
<g id="edge14" class="edge">
<title>Asfc_b0&#45;&gt;Asfc_mu</title>
<path fill="none" stroke="#000000" d="M323.4879,-266.3773C349.7406,-253.834 383.8131,-239.7142 415.9325,-232.9066 453.8776,-224.8643 728.0507,-236.9167 764.9325,-224.9066 769.4423,-223.4381 773.9112,-221.4585 778.2334,-219.1726"/>
<polygon fill="#000000" stroke="#000000" points="780.0064,-222.1904 786.8658,-214.1158 776.4681,-216.1504 780.0064,-222.1904"/>
</g>
<!-- Asfc_b2_dist -->
<g id="node3" class="node">
<title>Asfc_b2_dist</title>
<ellipse fill="none" stroke="#000000" cx="1207.9325" cy="-390.3833" rx="62.8651" ry="37.4533"/>
<text text-anchor="middle" x="1207.9325" y="-401.6833" font-family="Times,serif" font-size="14.00" fill="#000000">Asfc_b2_dist</text>
<text text-anchor="middle" x="1207.9325" y="-386.6833" font-family="Times,serif" font-size="14.00" fill="#000000">~</text>
<text text-anchor="middle" x="1207.9325" y="-371.6833" font-family="Times,serif" font-size="14.00" fill="#000000">Gumbel</text>
</g>
<!-- Asfc_b2 -->
<g id="node16" class="node">
<title>Asfc_b2</title>
<polygon fill="none" stroke="#000000" points="1034.4325,-316.9066 943.4325,-316.9066 943.4325,-263.9066 1034.4325,-263.9066 1034.4325,-316.9066"/>
<text text-anchor="middle" x="988.9325" y="-301.7066" font-family="Times,serif" font-size="14.00" fill="#000000">Asfc_b2</text>
<text text-anchor="middle" x="988.9325" y="-286.7066" font-family="Times,serif" font-size="14.00" fill="#000000">~</text>
<text text-anchor="middle" x="988.9325" y="-271.7066" font-family="Times,serif" font-size="14.00" fill="#000000">Deterministic</text>
</g>
<!-- Asfc_b2_dist&#45;&gt;Asfc_b2 -->
<g id="edge9" class="edge">
<title>Asfc_b2_dist&#45;&gt;Asfc_b2</title>
<path fill="none" stroke="#000000" d="M1161.876,-364.5221C1154.2782,-360.5011 1146.434,-356.495 1138.9325,-352.9066 1108.0645,-338.141 1072.7752,-323.3373 1044.1831,-311.8461"/>
<polygon fill="#000000" stroke="#000000" points="1045.3444,-308.5411 1034.7595,-308.0809 1042.7471,-315.0414 1045.3444,-308.5411"/>
</g>
<!-- Asfc_sigma0 -->
<g id="node4" class="node">
<title>Asfc_sigma0</title>
<ellipse fill="none" stroke="#000000" cx="62.9325" cy="-390.3833" rx="62.8651" ry="37.4533"/>
<text text-anchor="middle" x="62.9325" y="-401.6833" font-family="Times,serif" font-size="14.00" fill="#000000">Asfc_sigma0</text>
<text text-anchor="middle" x="62.9325" y="-386.6833" font-family="Times,serif" font-size="14.00" fill="#000000">~</text>
<text text-anchor="middle" x="62.9325" y="-371.6833" font-family="Times,serif" font-size="14.00" fill="#000000">HalfNormal</text>
</g>
<!-- Asfc_sigma0&#45;&gt;Asfc_b0 -->
<g id="edge2" class="edge">
<title>Asfc_sigma0&#45;&gt;Asfc_b0</title>
<path fill="none" stroke="#000000" d="M109.9518,-365.3271C118.2275,-361.0843 126.7958,-356.7969 134.9325,-352.9066 163.6861,-339.1593 196.2079,-324.8496 222.964,-313.397"/>
<polygon fill="#000000" stroke="#000000" points="224.3459,-316.6127 232.1718,-309.4708 221.6003,-310.1736 224.3459,-316.6127"/>
</g>
<!-- Asfc_sigma12 -->
<g id="node5" class="node">
<title>Asfc_sigma12</title>
<ellipse fill="none" stroke="#000000" cx="1515.9325" cy="-390.3833" rx="67.3507" ry="37.4533"/>
<text text-anchor="middle" x="1515.9325" y="-401.6833" font-family="Times,serif" font-size="14.00" fill="#000000">Asfc_sigma12</text>
<text text-anchor="middle" x="1515.9325" y="-386.6833" font-family="Times,serif" font-size="14.00" fill="#000000">~</text>
<text text-anchor="middle" x="1515.9325" y="-371.6833" font-family="Times,serif" font-size="14.00" fill="#000000">HalfNormal</text>
</g>
<!-- Asfc_M12 -->
<g id="node18" class="node">
<title>Asfc_M12</title>
<polygon fill="none" stroke="#000000" points="1417.4325,-316.9066 1326.4325,-316.9066 1326.4325,-263.9066 1417.4325,-263.9066 1417.4325,-316.9066"/>
<text text-anchor="middle" x="1371.9325" y="-301.7066" font-family="Times,serif" font-size="14.00" fill="#000000">Asfc_M12</text>
<text text-anchor="middle" x="1371.9325" y="-286.7066" font-family="Times,serif" font-size="14.00" fill="#000000">~</text>
<text text-anchor="middle" x="1371.9325" y="-271.7066" font-family="Times,serif" font-size="14.00" fill="#000000">Deterministic</text>
</g>
<!-- Asfc_sigma12&#45;&gt;Asfc_M12 -->
<g id="edge12" class="edge">
<title>Asfc_sigma12&#45;&gt;Asfc_M12</title>
<path fill="none" stroke="#000000" d="M1473.5066,-360.9277C1456.2531,-348.949 1436.2574,-335.0662 1418.5937,-322.8027"/>
<polygon fill="#000000" stroke="#000000" points="1420.3424,-319.756 1410.132,-316.9279 1416.3503,-325.506 1420.3424,-319.756"/>
</g>
<!-- Asfc_sigmaY -->
<g id="node6" class="node">
<title>Asfc_sigmaY</title>
<ellipse fill="none" stroke="#000000" cx="947.9325" cy="-187.43" rx="65.1077" ry="37.4533"/>
<text text-anchor="middle" x="947.9325" y="-198.73" font-family="Times,serif" font-size="14.00" fill="#000000">Asfc_sigmaY</text>
<text text-anchor="middle" x="947.9325" y="-183.73" font-family="Times,serif" font-size="14.00" fill="#000000">~</text>
<text text-anchor="middle" x="947.9325" y="-168.73" font-family="Times,serif" font-size="14.00" fill="#000000">Gamma</text>
</g>
<!-- Asfc_sigmaY&#45;&gt;Asfc_y -->
<g id="edge19" class="edge">
<title>Asfc_sigmaY&#45;&gt;Asfc_y</title>
<path fill="none" stroke="#000000" d="M911.6555,-156.228C895.2608,-142.1269 875.8357,-125.4193 859.0115,-110.9487"/>
<polygon fill="#000000" stroke="#000000" points="860.8497,-107.9132 850.9859,-104.0459 856.2851,-113.2203 860.8497,-107.9132"/>
</g>
<!-- Asfc_M12_dist -->
<g id="node7" class="node">
<title>Asfc_M12_dist</title>
<ellipse fill="none" stroke="#000000" cx="1672.9325" cy="-390.3833" rx="71.3357" ry="37.4533"/>
<text text-anchor="middle" x="1672.9325" y="-401.6833" font-family="Times,serif" font-size="14.00" fill="#000000">Asfc_M12_dist</text>
<text text-anchor="middle" x="1672.9325" y="-386.6833" font-family="Times,serif" font-size="14.00" fill="#000000">~</text>
<text text-anchor="middle" x="1672.9325" y="-371.6833" font-family="Times,serif" font-size="14.00" fill="#000000">Normal</text>
</g>
<!-- Asfc_M12_dist&#45;&gt;Asfc_M12 -->
<g id="edge11" class="edge">
<title>Asfc_M12_dist&#45;&gt;Asfc_M12</title>
<path fill="none" stroke="#000000" d="M1620.7166,-364.7752C1611.2457,-360.5475 1601.3758,-356.4081 1591.9325,-352.9066 1537.0735,-332.5657 1472.4777,-314.9338 1427.5304,-303.6317"/>
<polygon fill="#000000" stroke="#000000" points="1428.2318,-300.1995 1417.6822,-301.1775 1426.5391,-306.9918 1428.2318,-300.1995"/>
</g>
<!-- Asfc_b0_dist -->
<g id="node8" class="node">
<title>Asfc_b0_dist</title>
<ellipse fill="none" stroke="#000000" cx="206.9325" cy="-390.3833" rx="62.8651" ry="37.4533"/>
<text text-anchor="middle" x="206.9325" y="-401.6833" font-family="Times,serif" font-size="14.00" fill="#000000">Asfc_b0_dist</text>
<text text-anchor="middle" x="206.9325" y="-386.6833" font-family="Times,serif" font-size="14.00" fill="#000000">~</text>
<text text-anchor="middle" x="206.9325" y="-371.6833" font-family="Times,serif" font-size="14.00" fill="#000000">Normal</text>
</g>
<!-- Asfc_b0_dist&#45;&gt;Asfc_b0 -->
<g id="edge1" class="edge">
<title>Asfc_b0_dist&#45;&gt;Asfc_b0</title>
<path fill="none" stroke="#000000" d="M231.5656,-355.6969C238.5046,-345.926 246.0566,-335.2919 253.0122,-325.4975"/>
<polygon fill="#000000" stroke="#000000" points="256.0043,-327.329 258.9408,-317.1493 250.297,-323.2759 256.0043,-327.329"/>
</g>
<!-- Asfc_mu_b0 -->
<g id="node9" class="node">
<title>Asfc_mu_b0</title>
<ellipse fill="none" stroke="#000000" cx="348.9325" cy="-390.3833" rx="61.5366" ry="37.4533"/>
<text text-anchor="middle" x="348.9325" y="-401.6833" font-family="Times,serif" font-size="14.00" fill="#000000">Asfc_mu_b0</text>
<text text-anchor="middle" x="348.9325" y="-386.6833" font-family="Times,serif" font-size="14.00" fill="#000000">~</text>
<text text-anchor="middle" x="348.9325" y="-371.6833" font-family="Times,serif" font-size="14.00" fill="#000000">Normal</text>
</g>
<!-- Asfc_mu_b0&#45;&gt;Asfc_b0 -->
<g id="edge3" class="edge">
<title>Asfc_mu_b0&#45;&gt;Asfc_b0</title>
<path fill="none" stroke="#000000" d="M324.4983,-355.977C317.4867,-346.1038 309.8352,-335.3296 302.798,-325.4202"/>
<polygon fill="#000000" stroke="#000000" points="305.4471,-323.1057 296.8033,-316.9791 299.7399,-327.1588 305.4471,-323.1057"/>
</g>
<!-- Asfc_b1_dist -->
<g id="node10" class="node">
<title>Asfc_b1_dist</title>
<ellipse fill="none" stroke="#000000" cx="774.9325" cy="-390.3833" rx="62.8651" ry="37.4533"/>
<text text-anchor="middle" x="774.9325" y="-401.6833" font-family="Times,serif" font-size="14.00" fill="#000000">Asfc_b1_dist</text>
<text text-anchor="middle" x="774.9325" y="-386.6833" font-family="Times,serif" font-size="14.00" fill="#000000">~</text>
<text text-anchor="middle" x="774.9325" y="-371.6833" font-family="Times,serif" font-size="14.00" fill="#000000">Normal</text>
</g>
<!-- Asfc_b1 -->
<g id="node13" class="node">
<title>Asfc_b1</title>
<polygon fill="none" stroke="#000000" points="686.4325,-316.9066 595.4325,-316.9066 595.4325,-263.9066 686.4325,-263.9066 686.4325,-316.9066"/>
<text text-anchor="middle" x="640.9325" y="-301.7066" font-family="Times,serif" font-size="14.00" fill="#000000">Asfc_b1</text>
<text text-anchor="middle" x="640.9325" y="-286.7066" font-family="Times,serif" font-size="14.00" fill="#000000">~</text>
<text text-anchor="middle" x="640.9325" y="-271.7066" font-family="Times,serif" font-size="14.00" fill="#000000">Deterministic</text>
</g>
<!-- Asfc_b1_dist&#45;&gt;Asfc_b1 -->
<g id="edge6" class="edge">
<title>Asfc_b1_dist&#45;&gt;Asfc_b1</title>
<path fill="none" stroke="#000000" d="M735.4528,-360.9277C719.5435,-349.0579 701.1285,-335.3185 684.8021,-323.1375"/>
<polygon fill="#000000" stroke="#000000" points="686.5873,-320.1026 676.4793,-316.9279 682.4013,-325.7131 686.5873,-320.1026"/>
</g>
<!-- Asfc_mu_b1 -->
<g id="node11" class="node">
<title>Asfc_mu_b1</title>
<ellipse fill="none" stroke="#000000" cx="632.9325" cy="-390.3833" rx="61.5366" ry="37.4533"/>
<text text-anchor="middle" x="632.9325" y="-401.6833" font-family="Times,serif" font-size="14.00" fill="#000000">Asfc_mu_b1</text>
<text text-anchor="middle" x="632.9325" y="-386.6833" font-family="Times,serif" font-size="14.00" fill="#000000">~</text>
<text text-anchor="middle" x="632.9325" y="-371.6833" font-family="Times,serif" font-size="14.00" fill="#000000">Normal</text>
</g>
<!-- Asfc_mu_b1&#45;&gt;Asfc_b1 -->
<g id="edge4" class="edge">
<title>Asfc_mu_b1&#45;&gt;Asfc_b1</title>
<path fill="none" stroke="#000000" d="M635.9342,-352.8712C636.6013,-344.5341 637.308,-335.7023 637.9734,-327.3867"/>
<polygon fill="#000000" stroke="#000000" points="641.4792,-327.4531 638.7881,-317.2057 634.5015,-326.8947 641.4792,-327.4531"/>
</g>
<!-- Asfc_sigma1 -->
<g id="node12" class="node">
<title>Asfc_sigma1</title>
<ellipse fill="none" stroke="#000000" cx="490.9325" cy="-390.3833" rx="62.8651" ry="37.4533"/>
<text text-anchor="middle" x="490.9325" y="-401.6833" font-family="Times,serif" font-size="14.00" fill="#000000">Asfc_sigma1</text>
<text text-anchor="middle" x="490.9325" y="-386.6833" font-family="Times,serif" font-size="14.00" fill="#000000">~</text>
<text text-anchor="middle" x="490.9325" y="-371.6833" font-family="Times,serif" font-size="14.00" fill="#000000">HalfNormal</text>
</g>
<!-- Asfc_sigma1&#45;&gt;Asfc_b1 -->
<g id="edge5" class="edge">
<title>Asfc_sigma1&#45;&gt;Asfc_b1</title>
<path fill="none" stroke="#000000" d="M533.115,-362.2682C551.6838,-349.8919 573.5957,-335.2874 592.7996,-322.4878"/>
<polygon fill="#000000" stroke="#000000" points="594.7476,-325.3956 601.1275,-316.9371 590.8653,-319.5708 594.7476,-325.3956"/>
</g>
<!-- Asfc_b1&#45;&gt;Asfc_mu -->
<g id="edge17" class="edge">
<title>Asfc_b1&#45;&gt;Asfc_mu</title>
<path fill="none" stroke="#000000" d="M686.7206,-267.8914C710.4424,-255.8104 739.6574,-240.2758 764.9325,-224.9066 767.7114,-223.2169 770.5408,-221.4389 773.375,-219.6132"/>
<polygon fill="#000000" stroke="#000000" points="775.4203,-222.4572 781.8467,-214.0338 771.5701,-216.6111 775.4203,-222.4572"/>
</g>
<!-- Asfc_sigma2 -->
<g id="node14" class="node">
<title>Asfc_sigma2</title>
<ellipse fill="none" stroke="#000000" cx="1061.9325" cy="-501.3366" rx="62.8651" ry="37.4533"/>
<text text-anchor="middle" x="1061.9325" y="-512.6366" font-family="Times,serif" font-size="14.00" fill="#000000">Asfc_sigma2</text>
<text text-anchor="middle" x="1061.9325" y="-497.6366" font-family="Times,serif" font-size="14.00" fill="#000000">~</text>
<text text-anchor="middle" x="1061.9325" y="-482.6366" font-family="Times,serif" font-size="14.00" fill="#000000">HalfNormal</text>
</g>
<!-- Asfc_b2_beta -->
<g id="node15" class="node">
<title>Asfc_b2_beta</title>
<ellipse fill="none" stroke="#000000" cx="1061.9325" cy="-390.3833" rx="65.1077" ry="37.4533"/>
<text text-anchor="middle" x="1061.9325" y="-401.6833" font-family="Times,serif" font-size="14.00" fill="#000000">Asfc_b2_beta</text>
<text text-anchor="middle" x="1061.9325" y="-386.6833" font-family="Times,serif" font-size="14.00" fill="#000000">~</text>
<text text-anchor="middle" x="1061.9325" y="-371.6833" font-family="Times,serif" font-size="14.00" fill="#000000">HalfNormal</text>
</g>
<!-- Asfc_sigma2&#45;&gt;Asfc_b2_beta -->
<g id="edge7" class="edge">
<title>Asfc_sigma2&#45;&gt;Asfc_b2_beta</title>
<path fill="none" stroke="#000000" d="M1061.9325,-463.7729C1061.9325,-455.549 1061.9325,-446.7367 1061.9325,-438.1736"/>
<polygon fill="#000000" stroke="#000000" points="1065.4326,-437.9083 1061.9325,-427.9083 1058.4326,-437.9084 1065.4326,-437.9083"/>
</g>
<!-- Asfc_b2_beta&#45;&gt;Asfc_b2 -->
<g id="edge8" class="edge">
<title>Asfc_b2_beta&#45;&gt;Asfc_b2</title>
<path fill="none" stroke="#000000" d="M1036.6055,-355.6969C1029.4711,-345.926 1021.7064,-335.2919 1014.5548,-325.4975"/>
<polygon fill="#000000" stroke="#000000" points="1017.1829,-323.1615 1008.4592,-317.1493 1011.5296,-327.2895 1017.1829,-323.1615"/>
</g>
<!-- Asfc_b2&#45;&gt;Asfc_mu -->
<g id="edge16" class="edge">
<title>Asfc_b2&#45;&gt;Asfc_mu</title>
<path fill="none" stroke="#000000" d="M943.3805,-265.5707C922.0535,-253.6618 896.446,-238.9568 873.9325,-224.9066 871.1878,-223.1938 868.3856,-221.4072 865.5713,-219.5837"/>
<polygon fill="#000000" stroke="#000000" points="867.4158,-216.6077 857.1372,-214.0385 863.5702,-222.4568 867.4158,-216.6077"/>
</g>
<!-- Asfc_mu_b2 -->
<g id="node17" class="node">
<title>Asfc_mu_b2</title>
<ellipse fill="none" stroke="#000000" cx="916.9325" cy="-390.3833" rx="61.5366" ry="37.4533"/>
<text text-anchor="middle" x="916.9325" y="-401.6833" font-family="Times,serif" font-size="14.00" fill="#000000">Asfc_mu_b2</text>
<text text-anchor="middle" x="916.9325" y="-386.6833" font-family="Times,serif" font-size="14.00" fill="#000000">~</text>
<text text-anchor="middle" x="916.9325" y="-371.6833" font-family="Times,serif" font-size="14.00" fill="#000000">Normal</text>
</g>
<!-- Asfc_mu_b2&#45;&gt;Asfc_b2 -->
<g id="edge10" class="edge">
<title>Asfc_mu_b2&#45;&gt;Asfc_b2</title>
<path fill="none" stroke="#000000" d="M941.7108,-355.977C948.893,-346.0041 956.7373,-335.1118 963.9329,-325.1202"/>
<polygon fill="#000000" stroke="#000000" points="966.792,-327.1392 969.7959,-316.9791 961.1117,-323.0484 966.792,-327.1392"/>
</g>
<!-- Asfc_M12&#45;&gt;Asfc_mu -->
<g id="edge15" class="edge">
<title>Asfc_M12&#45;&gt;Asfc_mu</title>
<path fill="none" stroke="#000000" d="M1326.0738,-276.0281C1279.484,-262.1495 1204.9803,-241.9492 1138.9325,-232.9066 1109.7469,-228.9109 901.9486,-234.0095 873.9325,-224.9066 869.3652,-223.4226 864.8311,-221.4327 860.44,-219.1401"/>
<polygon fill="#000000" stroke="#000000" points="862.0731,-216.0416 851.6624,-214.0747 858.5742,-222.1045 862.0731,-216.0416"/>
</g>
<!-- Asfc_mu_M12 -->
<g id="node19" class="node">
<title>Asfc_mu_M12</title>
<ellipse fill="none" stroke="#000000" cx="1359.9325" cy="-390.3833" rx="70.922" ry="37.4533"/>
<text text-anchor="middle" x="1359.9325" y="-401.6833" font-family="Times,serif" font-size="14.00" fill="#000000">Asfc_mu_M12</text>
<text text-anchor="middle" x="1359.9325" y="-386.6833" font-family="Times,serif" font-size="14.00" fill="#000000">~</text>
<text text-anchor="middle" x="1359.9325" y="-371.6833" font-family="Times,serif" font-size="14.00" fill="#000000">Normal</text>
</g>
<!-- Asfc_mu_M12&#45;&gt;Asfc_M12 -->
<g id="edge13" class="edge">
<title>Asfc_mu_M12&#45;&gt;Asfc_M12</title>
<path fill="none" stroke="#000000" d="M1364.435,-352.8712C1365.4357,-344.5341 1366.4958,-335.7023 1367.4939,-327.3867"/>
<polygon fill="#000000" stroke="#000000" points="1370.9991,-327.5516 1368.7159,-317.2057 1364.049,-326.7173 1370.9991,-327.5516"/>
</g>
<!-- Asfc_mu&#45;&gt;Asfc_y -->
<g id="edge20" class="edge">
<title>Asfc_mu&#45;&gt;Asfc_y</title>
<path fill="none" stroke="#000000" d="M818.9325,-160.8539C818.9325,-149.9351 818.9325,-136.944 818.9325,-124.4675"/>
<polygon fill="#000000" stroke="#000000" points="822.4326,-124.1649 818.9325,-114.165 815.4326,-124.165 822.4326,-124.1649"/>
</g>
</g>
</svg>
