<?xml version="1.0" encoding="UTF-8" standalone="no"?>
<!DOCTYPE svg PUBLIC "-//W3C//DTD SVG 1.1//EN"
 "http://www.w3.org/Graphics/SVG/1.1/DTD/svg11.dtd">
<!-- Generated by graphviz version 2.40.1 (20161225.0304)
 -->
<!-- Title: Smfc Pages: 1 -->
<svg width="1811pt" height="563pt"
 viewBox="0.00 0.00 1811.30 562.81" xmlns="http://www.w3.org/2000/svg" xmlns:xlink="http://www.w3.org/1999/xlink">
<g id="graph0" class="graph" transform="scale(1 1) rotate(0) translate(4 558.8133)">
<title>Smfc</title>
<polygon fill="#ffffff" stroke="transparent" points="-4,4 -4,-558.8133 1807.3,-558.8133 1807.3,4 -4,4"/>
<g id="clust1" class="cluster">
<title>cluster2</title>
<path fill="none" stroke="#000000" d="M446.0538,-232.9066C446.0538,-232.9066 714.0538,-232.9066 714.0538,-232.9066 720.0538,-232.9066 726.0538,-238.9066 726.0538,-244.9066 726.0538,-244.9066 726.0538,-423.86 726.0538,-423.86 726.0538,-429.86 720.0538,-435.86 714.0538,-435.86 714.0538,-435.86 446.0538,-435.86 446.0538,-435.86 440.0538,-435.86 434.0538,-429.86 434.0538,-423.86 434.0538,-423.86 434.0538,-244.9066 434.0538,-244.9066 434.0538,-238.9066 440.0538,-232.9066 446.0538,-232.9066"/>
<text text-anchor="middle" x="714.5538" y="-240.7066" font-family="Times,serif" font-size="14.00" fill="#000000">2</text>
</g>
<g id="clust2" class="cluster">
<title>cluster11</title>
<path fill="none" stroke="#000000" d="M888.0538,-232.9066C888.0538,-232.9066 1161.0538,-232.9066 1161.0538,-232.9066 1167.0538,-232.9066 1173.0538,-238.9066 1173.0538,-244.9066 1173.0538,-244.9066 1173.0538,-534.8133 1173.0538,-534.8133 1173.0538,-540.8133 1167.0538,-546.8133 1161.0538,-546.8133 1161.0538,-546.8133 888.0538,-546.8133 888.0538,-546.8133 882.0538,-546.8133 876.0538,-540.8133 876.0538,-534.8133 876.0538,-534.8133 876.0538,-244.9066 876.0538,-244.9066 876.0538,-238.9066 882.0538,-232.9066 888.0538,-232.9066"/>
<text text-anchor="middle" x="1158.0538" y="-240.7066" font-family="Times,serif" font-size="14.00" fill="#000000">11</text>
</g>
<g id="clust3" class="cluster">
<title>cluster2 x 11</title>
<path fill="none" stroke="#000000" d="M1335.0538,-232.9066C1335.0538,-232.9066 1475.0538,-232.9066 1475.0538,-232.9066 1481.0538,-232.9066 1487.0538,-238.9066 1487.0538,-244.9066 1487.0538,-244.9066 1487.0538,-423.86 1487.0538,-423.86 1487.0538,-429.86 1481.0538,-435.86 1475.0538,-435.86 1475.0538,-435.86 1335.0538,-435.86 1335.0538,-435.86 1329.0538,-435.86 1323.0538,-429.86 1323.0538,-423.86 1323.0538,-423.86 1323.0538,-244.9066 1323.0538,-244.9066 1323.0538,-238.9066 1329.0538,-232.9066 1335.0538,-232.9066"/>
<text text-anchor="middle" x="1461.5538" y="-240.7066" font-family="Times,serif" font-size="14.00" fill="#000000">2 x 11</text>
</g>
<g id="clust4" class="cluster">
<title>cluster278</title>
<path fill="none" stroke="#000000" d="M805.0538,-8C805.0538,-8 891.0538,-8 891.0538,-8 897.0538,-8 903.0538,-14 903.0538,-20 903.0538,-20 903.0538,-209.93 903.0538,-209.93 903.0538,-215.93 897.0538,-221.93 891.0538,-221.93 891.0538,-221.93 805.0538,-221.93 805.0538,-221.93 799.0538,-221.93 793.0538,-215.93 793.0538,-209.93 793.0538,-209.93 793.0538,-20 793.0538,-20 793.0538,-14 799.0538,-8 805.0538,-8"/>
<text text-anchor="middle" x="884.5538" y="-15.8" font-family="Times,serif" font-size="14.00" fill="#000000">278</text>
</g>
<!-- Smfc_sigmaY -->
<g id="node1" class="node">
<title>Smfc_sigmaY</title>
<ellipse fill="none" stroke="#000000" cx="717.0538" cy="-187.43" rx="67.3507" ry="37.4533"/>
<text text-anchor="middle" x="717.0538" y="-198.73" font-family="Times,serif" font-size="14.00" fill="#000000">Smfc_sigmaY</text>
<text text-anchor="middle" x="717.0538" y="-183.73" font-family="Times,serif" font-size="14.00" fill="#000000">~</text>
<text text-anchor="middle" x="717.0538" y="-168.73" font-family="Times,serif" font-size="14.00" fill="#000000">Gamma</text>
</g>
<!-- Smfc_y -->
<g id="node21" class="node">
<title>Smfc_y</title>
<ellipse fill="#d3d3d3" stroke="#000000" cx="848.0538" cy="-76.4767" rx="46.8387" ry="37.4533"/>
<text text-anchor="middle" x="848.0538" y="-87.7767" font-family="Times,serif" font-size="14.00" fill="#000000">Smfc_y</text>
<text text-anchor="middle" x="848.0538" y="-72.7767" font-family="Times,serif" font-size="14.00" fill="#000000">~</text>
<text text-anchor="middle" x="848.0538" y="-57.7767" font-family="Times,serif" font-size="14.00" fill="#000000">StudentT</text>
</g>
<!-- Smfc_sigmaY&#45;&gt;Smfc_y -->
<g id="edge18" class="edge">
<title>Smfc_sigmaY&#45;&gt;Smfc_y</title>
<path fill="none" stroke="#000000" d="M754.2428,-155.932C771.0356,-141.709 790.9027,-124.8821 808.021,-110.3834"/>
<polygon fill="#000000" stroke="#000000" points="810.3031,-113.0372 815.6718,-103.9033 805.7789,-107.6956 810.3031,-113.0372"/>
</g>
<!-- Smfc_b0_dist -->
<g id="node2" class="node">
<title>Smfc_b0_dist</title>
<ellipse fill="none" stroke="#000000" cx="65.0538" cy="-390.3833" rx="65.1077" ry="37.4533"/>
<text text-anchor="middle" x="65.0538" y="-401.6833" font-family="Times,serif" font-size="14.00" fill="#000000">Smfc_b0_dist</text>
<text text-anchor="middle" x="65.0538" y="-386.6833" font-family="Times,serif" font-size="14.00" fill="#000000">~</text>
<text text-anchor="middle" x="65.0538" y="-371.6833" font-family="Times,serif" font-size="14.00" fill="#000000">Normal</text>
</g>
<!-- Smfc_b0 -->
<g id="node4" class="node">
<title>Smfc_b0</title>
<polygon fill="none" stroke="#000000" points="331.5538,-316.9066 240.5538,-316.9066 240.5538,-263.9066 331.5538,-263.9066 331.5538,-316.9066"/>
<text text-anchor="middle" x="286.0538" y="-301.7066" font-family="Times,serif" font-size="14.00" fill="#000000">Smfc_b0</text>
<text text-anchor="middle" x="286.0538" y="-286.7066" font-family="Times,serif" font-size="14.00" fill="#000000">~</text>
<text text-anchor="middle" x="286.0538" y="-271.7066" font-family="Times,serif" font-size="14.00" fill="#000000">Deterministic</text>
</g>
<!-- Smfc_b0_dist&#45;&gt;Smfc_b0 -->
<g id="edge1" class="edge">
<title>Smfc_b0_dist&#45;&gt;Smfc_b0</title>
<path fill="none" stroke="#000000" d="M113.7884,-365.1233C122.1689,-360.946 130.8278,-356.7332 139.0538,-352.9066 169.0813,-338.9386 203.0823,-324.4019 230.8156,-312.8665"/>
<polygon fill="#000000" stroke="#000000" points="232.4483,-315.9786 240.347,-308.9174 229.7688,-309.5118 232.4483,-315.9786"/>
</g>
<!-- Smfc_mu_b0 -->
<g id="node3" class="node">
<title>Smfc_mu_b0</title>
<ellipse fill="none" stroke="#000000" cx="212.0538" cy="-390.3833" rx="64.1938" ry="37.4533"/>
<text text-anchor="middle" x="212.0538" y="-401.6833" font-family="Times,serif" font-size="14.00" fill="#000000">Smfc_mu_b0</text>
<text text-anchor="middle" x="212.0538" y="-386.6833" font-family="Times,serif" font-size="14.00" fill="#000000">~</text>
<text text-anchor="middle" x="212.0538" y="-371.6833" font-family="Times,serif" font-size="14.00" fill="#000000">Normal</text>
</g>
<!-- Smfc_mu_b0&#45;&gt;Smfc_b0 -->
<g id="edge3" class="edge">
<title>Smfc_mu_b0&#45;&gt;Smfc_b0</title>
<path fill="none" stroke="#000000" d="M237.7278,-355.6969C245.033,-345.8273 252.9901,-335.0769 260.3,-325.2009"/>
<polygon fill="#000000" stroke="#000000" points="263.1235,-327.2693 266.2597,-317.1493 257.4971,-323.1048 263.1235,-327.2693"/>
</g>
<!-- Smfc_mu -->
<g id="node20" class="node">
<title>Smfc_mu</title>
<polygon fill="none" stroke="#000000" points="893.5538,-213.93 802.5538,-213.93 802.5538,-160.93 893.5538,-160.93 893.5538,-213.93"/>
<text text-anchor="middle" x="848.0538" y="-198.73" font-family="Times,serif" font-size="14.00" fill="#000000">Smfc_mu</text>
<text text-anchor="middle" x="848.0538" y="-183.73" font-family="Times,serif" font-size="14.00" fill="#000000">~</text>
<text text-anchor="middle" x="848.0538" y="-168.73" font-family="Times,serif" font-size="14.00" fill="#000000">Deterministic</text>
</g>
<!-- Smfc_b0&#45;&gt;Smfc_mu -->
<g id="edge15" class="edge">
<title>Smfc_b0&#45;&gt;Smfc_mu</title>
<path fill="none" stroke="#000000" d="M331.766,-267.2596C359.4465,-254.4979 395.8949,-239.8656 430.0538,-232.9066 469.585,-224.8533 754.6347,-237.2168 793.0538,-224.9066 797.6925,-223.4203 802.2949,-221.4073 806.7472,-219.0812"/>
<polygon fill="#000000" stroke="#000000" points="808.7366,-221.9738 815.6387,-213.9357 805.2305,-215.9152 808.7366,-221.9738"/>
</g>
<!-- Smfc_b2_dist -->
<g id="node5" class="node">
<title>Smfc_b2_dist</title>
<ellipse fill="none" stroke="#000000" cx="1248.0538" cy="-390.3833" rx="65.1077" ry="37.4533"/>
<text text-anchor="middle" x="1248.0538" y="-401.6833" font-family="Times,serif" font-size="14.00" fill="#000000">Smfc_b2_dist</text>
<text text-anchor="middle" x="1248.0538" y="-386.6833" font-family="Times,serif" font-size="14.00" fill="#000000">~</text>
<text text-anchor="middle" x="1248.0538" y="-371.6833" font-family="Times,serif" font-size="14.00" fill="#000000">Gumbel</text>
</g>
<!-- Smfc_b2 -->
<g id="node16" class="node">
<title>Smfc_b2</title>
<polygon fill="none" stroke="#000000" points="1071.5538,-316.9066 980.5538,-316.9066 980.5538,-263.9066 1071.5538,-263.9066 1071.5538,-316.9066"/>
<text text-anchor="middle" x="1026.0538" y="-301.7066" font-family="Times,serif" font-size="14.00" fill="#000000">Smfc_b2</text>
<text text-anchor="middle" x="1026.0538" y="-286.7066" font-family="Times,serif" font-size="14.00" fill="#000000">~</text>
<text text-anchor="middle" x="1026.0538" y="-271.7066" font-family="Times,serif" font-size="14.00" fill="#000000">Deterministic</text>
</g>
<!-- Smfc_b2_dist&#45;&gt;Smfc_b2 -->
<g id="edge10" class="edge">
<title>Smfc_b2_dist&#45;&gt;Smfc_b2</title>
<path fill="none" stroke="#000000" d="M1200.6222,-364.5671C1192.8092,-360.5405 1184.7497,-356.5208 1177.0538,-352.9066 1145.79,-338.2244 1110.1137,-323.3724 1081.2915,-311.8325"/>
<polygon fill="#000000" stroke="#000000" points="1082.3814,-308.4992 1071.796,-308.0509 1079.7914,-315.0025 1082.3814,-308.4992"/>
</g>
<!-- Smfc_sigma0 -->
<g id="node6" class="node">
<title>Smfc_sigma0</title>
<ellipse fill="none" stroke="#000000" cx="359.0538" cy="-390.3833" rx="65.1077" ry="37.4533"/>
<text text-anchor="middle" x="359.0538" y="-401.6833" font-family="Times,serif" font-size="14.00" fill="#000000">Smfc_sigma0</text>
<text text-anchor="middle" x="359.0538" y="-386.6833" font-family="Times,serif" font-size="14.00" fill="#000000">~</text>
<text text-anchor="middle" x="359.0538" y="-371.6833" font-family="Times,serif" font-size="14.00" fill="#000000">HalfNormal</text>
</g>
<!-- Smfc_sigma0&#45;&gt;Smfc_b0 -->
<g id="edge2" class="edge">
<title>Smfc_sigma0&#45;&gt;Smfc_b0</title>
<path fill="none" stroke="#000000" d="M333.7268,-355.6969C326.5924,-345.926 318.8277,-335.2919 311.6761,-325.4975"/>
<polygon fill="#000000" stroke="#000000" points="314.3042,-323.1615 305.5805,-317.1493 308.6509,-327.2895 314.3042,-323.1615"/>
</g>
<!-- Smfc_sigma12 -->
<g id="node7" class="node">
<title>Smfc_sigma12</title>
<ellipse fill="none" stroke="#000000" cx="1567.0538" cy="-390.3833" rx="70.0071" ry="37.4533"/>
<text text-anchor="middle" x="1567.0538" y="-401.6833" font-family="Times,serif" font-size="14.00" fill="#000000">Smfc_sigma12</text>
<text text-anchor="middle" x="1567.0538" y="-386.6833" font-family="Times,serif" font-size="14.00" fill="#000000">~</text>
<text text-anchor="middle" x="1567.0538" y="-371.6833" font-family="Times,serif" font-size="14.00" fill="#000000">HalfNormal</text>
</g>
<!-- Smfc_M12 -->
<g id="node19" class="node">
<title>Smfc_M12</title>
<polygon fill="none" stroke="#000000" points="1464.5538,-316.9066 1373.5538,-316.9066 1373.5538,-263.9066 1464.5538,-263.9066 1464.5538,-316.9066"/>
<text text-anchor="middle" x="1419.0538" y="-301.7066" font-family="Times,serif" font-size="14.00" fill="#000000">Smfc_M12</text>
<text text-anchor="middle" x="1419.0538" y="-286.7066" font-family="Times,serif" font-size="14.00" fill="#000000">~</text>
<text text-anchor="middle" x="1419.0538" y="-271.7066" font-family="Times,serif" font-size="14.00" fill="#000000">Deterministic</text>
</g>
<!-- Smfc_sigma12&#45;&gt;Smfc_M12 -->
<g id="edge13" class="edge">
<title>Smfc_sigma12&#45;&gt;Smfc_M12</title>
<path fill="none" stroke="#000000" d="M1523.4494,-360.9277C1505.7167,-348.949 1485.1655,-335.0662 1467.0111,-322.8027"/>
<polygon fill="#000000" stroke="#000000" points="1468.5601,-319.6253 1458.3144,-316.9279 1464.6417,-325.4259 1468.5601,-319.6253"/>
</g>
<!-- Smfc_M12_dist -->
<g id="node8" class="node">
<title>Smfc_M12_dist</title>
<ellipse fill="none" stroke="#000000" cx="1729.0538" cy="-390.3833" rx="74.4932" ry="37.4533"/>
<text text-anchor="middle" x="1729.0538" y="-401.6833" font-family="Times,serif" font-size="14.00" fill="#000000">Smfc_M12_dist</text>
<text text-anchor="middle" x="1729.0538" y="-386.6833" font-family="Times,serif" font-size="14.00" fill="#000000">~</text>
<text text-anchor="middle" x="1729.0538" y="-371.6833" font-family="Times,serif" font-size="14.00" fill="#000000">Normal</text>
</g>
<!-- Smfc_M12_dist&#45;&gt;Smfc_M12 -->
<g id="edge12" class="edge">
<title>Smfc_M12_dist&#45;&gt;Smfc_M12</title>
<path fill="none" stroke="#000000" d="M1675.0837,-364.5597C1665.5179,-360.4021 1655.5715,-356.3421 1646.0538,-352.9066 1588.7419,-332.2198 1521.2095,-314.4336 1474.7902,-303.1838"/>
<polygon fill="#000000" stroke="#000000" points="1475.4664,-299.7467 1464.9255,-300.8144 1473.8315,-306.5531 1475.4664,-299.7467"/>
</g>
<!-- Smfc_nuY -->
<g id="node9" class="node">
<title>Smfc_nuY</title>
<ellipse fill="none" stroke="#000000" cx="969.0538" cy="-187.43" rx="57.9655" ry="37.4533"/>
<text text-anchor="middle" x="969.0538" y="-198.73" font-family="Times,serif" font-size="14.00" fill="#000000">Smfc_nuY</text>
<text text-anchor="middle" x="969.0538" y="-183.73" font-family="Times,serif" font-size="14.00" fill="#000000">~</text>
<text text-anchor="middle" x="969.0538" y="-168.73" font-family="Times,serif" font-size="14.00" fill="#000000">Exponential</text>
</g>
<!-- Smfc_nuY&#45;&gt;Smfc_y -->
<g id="edge19" class="edge">
<title>Smfc_nuY&#45;&gt;Smfc_y</title>
<path fill="none" stroke="#000000" d="M935.3486,-156.5233C920.2049,-142.637 902.2543,-126.1769 886.5807,-111.8046"/>
<polygon fill="#000000" stroke="#000000" points="888.8275,-109.1161 879.0916,-104.9373 884.0965,-114.2755 888.8275,-109.1161"/>
</g>
<!-- Smfc_b1_dist -->
<g id="node10" class="node">
<title>Smfc_b1_dist</title>
<ellipse fill="none" stroke="#000000" cx="801.0538" cy="-390.3833" rx="65.1077" ry="37.4533"/>
<text text-anchor="middle" x="801.0538" y="-401.6833" font-family="Times,serif" font-size="14.00" fill="#000000">Smfc_b1_dist</text>
<text text-anchor="middle" x="801.0538" y="-386.6833" font-family="Times,serif" font-size="14.00" fill="#000000">~</text>
<text text-anchor="middle" x="801.0538" y="-371.6833" font-family="Times,serif" font-size="14.00" fill="#000000">Normal</text>
</g>
<!-- Smfc_b1 -->
<g id="node12" class="node">
<title>Smfc_b1</title>
<polygon fill="none" stroke="#000000" points="707.5538,-316.9066 616.5538,-316.9066 616.5538,-263.9066 707.5538,-263.9066 707.5538,-316.9066"/>
<text text-anchor="middle" x="662.0538" y="-301.7066" font-family="Times,serif" font-size="14.00" fill="#000000">Smfc_b1</text>
<text text-anchor="middle" x="662.0538" y="-286.7066" font-family="Times,serif" font-size="14.00" fill="#000000">~</text>
<text text-anchor="middle" x="662.0538" y="-271.7066" font-family="Times,serif" font-size="14.00" fill="#000000">Deterministic</text>
</g>
<!-- Smfc_b1_dist&#45;&gt;Smfc_b1 -->
<g id="edge6" class="edge">
<title>Smfc_b1_dist&#45;&gt;Smfc_b1</title>
<path fill="none" stroke="#000000" d="M760.101,-360.9277C743.4467,-348.949 724.1452,-335.0662 707.0948,-322.8027"/>
<polygon fill="#000000" stroke="#000000" points="709.0889,-319.9256 698.927,-316.9279 705.0015,-325.6084 709.0889,-319.9256"/>
</g>
<!-- Smfc_sigma1 -->
<g id="node11" class="node">
<title>Smfc_sigma1</title>
<ellipse fill="none" stroke="#000000" cx="653.0538" cy="-390.3833" rx="65.1077" ry="37.4533"/>
<text text-anchor="middle" x="653.0538" y="-401.6833" font-family="Times,serif" font-size="14.00" fill="#000000">Smfc_sigma1</text>
<text text-anchor="middle" x="653.0538" y="-386.6833" font-family="Times,serif" font-size="14.00" fill="#000000">~</text>
<text text-anchor="middle" x="653.0538" y="-371.6833" font-family="Times,serif" font-size="14.00" fill="#000000">HalfNormal</text>
</g>
<!-- Smfc_sigma1&#45;&gt;Smfc_b1 -->
<g id="edge4" class="edge">
<title>Smfc_sigma1&#45;&gt;Smfc_b1</title>
<path fill="none" stroke="#000000" d="M656.4307,-352.8712C657.1812,-344.5341 657.9763,-335.7023 658.7248,-327.3867"/>
<polygon fill="#000000" stroke="#000000" points="662.2306,-327.4793 659.6413,-317.2057 655.2588,-326.8516 662.2306,-327.4793"/>
</g>
<!-- Smfc_b1&#45;&gt;Smfc_mu -->
<g id="edge16" class="edge">
<title>Smfc_b1&#45;&gt;Smfc_mu</title>
<path fill="none" stroke="#000000" d="M707.7147,-269.4381C733.2588,-257.2485 765.425,-241.1278 793.0538,-224.9066 795.8936,-223.2394 798.7828,-221.4788 801.6751,-219.6665"/>
<polygon fill="#000000" stroke="#000000" points="803.7941,-222.4653 810.3155,-214.1154 800.0104,-216.576 803.7941,-222.4653"/>
</g>
<!-- Smfc_mu_b1 -->
<g id="node13" class="node">
<title>Smfc_mu_b1</title>
<ellipse fill="none" stroke="#000000" cx="506.0538" cy="-390.3833" rx="64.1938" ry="37.4533"/>
<text text-anchor="middle" x="506.0538" y="-401.6833" font-family="Times,serif" font-size="14.00" fill="#000000">Smfc_mu_b1</text>
<text text-anchor="middle" x="506.0538" y="-386.6833" font-family="Times,serif" font-size="14.00" fill="#000000">~</text>
<text text-anchor="middle" x="506.0538" y="-371.6833" font-family="Times,serif" font-size="14.00" fill="#000000">Normal</text>
</g>
<!-- Smfc_mu_b1&#45;&gt;Smfc_b1 -->
<g id="edge5" class="edge">
<title>Smfc_mu_b1&#45;&gt;Smfc_b1</title>
<path fill="none" stroke="#000000" d="M549.5085,-362.5342C568.9143,-350.0975 591.8951,-335.3697 612.0151,-322.4753"/>
<polygon fill="#000000" stroke="#000000" points="613.9132,-325.416 620.444,-317.0734 610.1361,-319.5224 613.9132,-325.416"/>
</g>
<!-- Smfc_mu_b2 -->
<g id="node14" class="node">
<title>Smfc_mu_b2</title>
<ellipse fill="none" stroke="#000000" cx="1101.0538" cy="-390.3833" rx="64.1938" ry="37.4533"/>
<text text-anchor="middle" x="1101.0538" y="-401.6833" font-family="Times,serif" font-size="14.00" fill="#000000">Smfc_mu_b2</text>
<text text-anchor="middle" x="1101.0538" y="-386.6833" font-family="Times,serif" font-size="14.00" fill="#000000">~</text>
<text text-anchor="middle" x="1101.0538" y="-371.6833" font-family="Times,serif" font-size="14.00" fill="#000000">Normal</text>
</g>
<!-- Smfc_mu_b2&#45;&gt;Smfc_b2 -->
<g id="edge9" class="edge">
<title>Smfc_mu_b2&#45;&gt;Smfc_b2</title>
<path fill="none" stroke="#000000" d="M1075.2431,-355.977C1067.7616,-346.0041 1059.5905,-335.1118 1052.0951,-325.1202"/>
<polygon fill="#000000" stroke="#000000" points="1054.7885,-322.8781 1045.9878,-316.9791 1049.189,-327.0788 1054.7885,-322.8781"/>
</g>
<!-- Smfc_sigma2 -->
<g id="node15" class="node">
<title>Smfc_sigma2</title>
<ellipse fill="none" stroke="#000000" cx="951.0538" cy="-501.3366" rx="65.1077" ry="37.4533"/>
<text text-anchor="middle" x="951.0538" y="-512.6366" font-family="Times,serif" font-size="14.00" fill="#000000">Smfc_sigma2</text>
<text text-anchor="middle" x="951.0538" y="-497.6366" font-family="Times,serif" font-size="14.00" fill="#000000">~</text>
<text text-anchor="middle" x="951.0538" y="-482.6366" font-family="Times,serif" font-size="14.00" fill="#000000">HalfNormal</text>
</g>
<!-- Smfc_b2_beta -->
<g id="node17" class="node">
<title>Smfc_b2_beta</title>
<ellipse fill="none" stroke="#000000" cx="951.0538" cy="-390.3833" rx="67.3507" ry="37.4533"/>
<text text-anchor="middle" x="951.0538" y="-401.6833" font-family="Times,serif" font-size="14.00" fill="#000000">Smfc_b2_beta</text>
<text text-anchor="middle" x="951.0538" y="-386.6833" font-family="Times,serif" font-size="14.00" fill="#000000">~</text>
<text text-anchor="middle" x="951.0538" y="-371.6833" font-family="Times,serif" font-size="14.00" fill="#000000">HalfNormal</text>
</g>
<!-- Smfc_sigma2&#45;&gt;Smfc_b2_beta -->
<g id="edge7" class="edge">
<title>Smfc_sigma2&#45;&gt;Smfc_b2_beta</title>
<path fill="none" stroke="#000000" d="M951.0538,-463.7729C951.0538,-455.549 951.0538,-446.7367 951.0538,-438.1736"/>
<polygon fill="#000000" stroke="#000000" points="954.5539,-437.9083 951.0538,-427.9083 947.5539,-437.9084 954.5539,-437.9083"/>
</g>
<!-- Smfc_b2&#45;&gt;Smfc_mu -->
<g id="edge17" class="edge">
<title>Smfc_b2&#45;&gt;Smfc_mu</title>
<path fill="none" stroke="#000000" d="M980.2657,-267.8914C956.544,-255.8104 927.329,-240.2758 902.0538,-224.9066 899.275,-223.2169 896.4455,-221.4389 893.6113,-219.6132"/>
<polygon fill="#000000" stroke="#000000" points="895.4163,-216.6111 885.1397,-214.0338 891.5661,-222.4572 895.4163,-216.6111"/>
</g>
<!-- Smfc_b2_beta&#45;&gt;Smfc_b2 -->
<g id="edge8" class="edge">
<title>Smfc_b2_beta&#45;&gt;Smfc_b2</title>
<path fill="none" stroke="#000000" d="M977.0747,-355.6969C984.4786,-345.8273 992.5433,-335.0769 999.952,-325.2009"/>
<polygon fill="#000000" stroke="#000000" points="1002.791,-327.249 1005.9922,-317.1493 997.1915,-323.0483 1002.791,-327.249"/>
</g>
<!-- Smfc_mu_M12 -->
<g id="node18" class="node">
<title>Smfc_mu_M12</title>
<ellipse fill="none" stroke="#000000" cx="1405.0538" cy="-390.3833" rx="73.5782" ry="37.4533"/>
<text text-anchor="middle" x="1405.0538" y="-401.6833" font-family="Times,serif" font-size="14.00" fill="#000000">Smfc_mu_M12</text>
<text text-anchor="middle" x="1405.0538" y="-386.6833" font-family="Times,serif" font-size="14.00" fill="#000000">~</text>
<text text-anchor="middle" x="1405.0538" y="-371.6833" font-family="Times,serif" font-size="14.00" fill="#000000">Normal</text>
</g>
<!-- Smfc_mu_M12&#45;&gt;Smfc_M12 -->
<g id="edge11" class="edge">
<title>Smfc_mu_M12&#45;&gt;Smfc_M12</title>
<path fill="none" stroke="#000000" d="M1410.3067,-352.8712C1411.4872,-344.4415 1412.7384,-335.506 1413.9142,-327.1097"/>
<polygon fill="#000000" stroke="#000000" points="1417.3804,-327.5945 1415.3011,-317.2057 1410.448,-326.6237 1417.3804,-327.5945"/>
</g>
<!-- Smfc_M12&#45;&gt;Smfc_mu -->
<g id="edge14" class="edge">
<title>Smfc_M12&#45;&gt;Smfc_mu</title>
<path fill="none" stroke="#000000" d="M1373.1841,-276.5436C1324.8967,-262.6527 1246.4101,-242.0574 1177.0538,-232.9066 1146.748,-228.9082 931.0907,-234.4612 902.0538,-224.9066 897.5485,-223.4242 893.0828,-221.4352 888.7625,-219.1434"/>
<polygon fill="#000000" stroke="#000000" points="890.5287,-216.1217 880.1327,-214.0788 886.9856,-222.1589 890.5287,-216.1217"/>
</g>
<!-- Smfc_mu&#45;&gt;Smfc_y -->
<g id="edge20" class="edge">
<title>Smfc_mu&#45;&gt;Smfc_y</title>
<path fill="none" stroke="#000000" d="M848.0538,-160.8539C848.0538,-149.9351 848.0538,-136.944 848.0538,-124.4675"/>
<polygon fill="#000000" stroke="#000000" points="851.5539,-124.1649 848.0538,-114.165 844.5539,-124.165 851.5539,-124.1649"/>
</g>
</g>
</svg>
