<?xml version="1.0" encoding="UTF-8" standalone="no"?>
<!DOCTYPE svg PUBLIC "-//W3C//DTD SVG 1.1//EN"
 "http://www.w3.org/Graphics/SVG/1.1/DTD/svg11.dtd">
<!-- Generated by graphviz version 2.40.1 (20161225.0304)
 -->
<!-- Title: epLsar Pages: 1 -->
<svg width="1959pt" height="563pt"
 viewBox="0.00 0.00 1958.71 562.81" xmlns="http://www.w3.org/2000/svg" xmlns:xlink="http://www.w3.org/1999/xlink">
<g id="graph0" class="graph" transform="scale(1 1) rotate(0) translate(4 558.8133)">
<title>epLsar</title>
<polygon fill="#ffffff" stroke="transparent" points="-4,4 -4,-558.8133 1954.7107,-558.8133 1954.7107,4 -4,4"/>
<g id="clust1" class="cluster">
<title>cluster2</title>
<path fill="none" stroke="#000000" d="M20,-232.9066C20,-232.9066 310,-232.9066 310,-232.9066 316,-232.9066 322,-238.9066 322,-244.9066 322,-244.9066 322,-423.86 322,-423.86 322,-429.86 316,-435.86 310,-435.86 310,-435.86 20,-435.86 20,-435.86 14,-435.86 8,-429.86 8,-423.86 8,-423.86 8,-244.9066 8,-244.9066 8,-238.9066 14,-232.9066 20,-232.9066"/>
<text text-anchor="middle" x="310.5" y="-240.7066" font-family="Times,serif" font-size="14.00" fill="#000000">2</text>
</g>
<g id="clust2" class="cluster">
<title>cluster11</title>
<path fill="none" stroke="#000000" d="M496,-232.9066C496,-232.9066 790,-232.9066 790,-232.9066 796,-232.9066 802,-238.9066 802,-244.9066 802,-244.9066 802,-534.8133 802,-534.8133 802,-540.8133 796,-546.8133 790,-546.8133 790,-546.8133 496,-546.8133 496,-546.8133 490,-546.8133 484,-540.8133 484,-534.8133 484,-534.8133 484,-244.9066 484,-244.9066 484,-238.9066 490,-232.9066 496,-232.9066"/>
<text text-anchor="middle" x="787" y="-240.7066" font-family="Times,serif" font-size="14.00" fill="#000000">11</text>
</g>
<g id="clust3" class="cluster">
<title>cluster2 x 11</title>
<path fill="none" stroke="#000000" d="M976,-232.9066C976,-232.9066 1124,-232.9066 1124,-232.9066 1130,-232.9066 1136,-238.9066 1136,-244.9066 1136,-244.9066 1136,-423.86 1136,-423.86 1136,-429.86 1130,-435.86 1124,-435.86 1124,-435.86 976,-435.86 976,-435.86 970,-435.86 964,-429.86 964,-423.86 964,-423.86 964,-244.9066 964,-244.9066 964,-238.9066 970,-232.9066 976,-232.9066"/>
<text text-anchor="middle" x="1110.5" y="-240.7066" font-family="Times,serif" font-size="14.00" fill="#000000">2 x 11</text>
</g>
<g id="clust4" class="cluster">
<title>cluster278</title>
<path fill="none" stroke="#000000" d="M863,-8C863,-8 949,-8 949,-8 955,-8 961,-14 961,-20 961,-20 961,-209.93 961,-209.93 961,-215.93 955,-221.93 949,-221.93 949,-221.93 863,-221.93 863,-221.93 857,-221.93 851,-215.93 851,-209.93 851,-209.93 851,-20 851,-20 851,-14 857,-8 863,-8"/>
<text text-anchor="middle" x="942.5" y="-15.8" font-family="Times,serif" font-size="14.00" fill="#000000">278</text>
</g>
<!-- epLsar_mu_b0 -->
<g id="node1" class="node">
<title>epLsar_mu_b0</title>
<ellipse fill="none" stroke="#000000" cx="1563" cy="-390.3833" rx="69.0935" ry="37.4533"/>
<text text-anchor="middle" x="1563" y="-401.6833" font-family="Times,serif" font-size="14.00" fill="#000000">epLsar_mu_b0</text>
<text text-anchor="middle" x="1563" y="-386.6833" font-family="Times,serif" font-size="14.00" fill="#000000">~</text>
<text text-anchor="middle" x="1563" y="-371.6833" font-family="Times,serif" font-size="14.00" fill="#000000">Normal</text>
</g>
<!-- epLsar_b0 -->
<g id="node7" class="node">
<title>epLsar_b0</title>
<polygon fill="none" stroke="#000000" points="1687.5,-316.9066 1596.5,-316.9066 1596.5,-263.9066 1687.5,-263.9066 1687.5,-316.9066"/>
<text text-anchor="middle" x="1642" y="-301.7066" font-family="Times,serif" font-size="14.00" fill="#000000">epLsar_b0</text>
<text text-anchor="middle" x="1642" y="-286.7066" font-family="Times,serif" font-size="14.00" fill="#000000">~</text>
<text text-anchor="middle" x="1642" y="-271.7066" font-family="Times,serif" font-size="14.00" fill="#000000">Deterministic</text>
</g>
<!-- epLsar_mu_b0&#45;&gt;epLsar_b0 -->
<g id="edge1" class="edge">
<title>epLsar_mu_b0&#45;&gt;epLsar_b0</title>
<path fill="none" stroke="#000000" d="M1590.4087,-355.6969C1598.2075,-345.8273 1606.7022,-335.0769 1614.5061,-325.2009"/>
<polygon fill="#000000" stroke="#000000" points="1617.4146,-327.1654 1620.8684,-317.1493 1611.9223,-322.8254 1617.4146,-327.1654"/>
</g>
<!-- epLsar_sigmaY -->
<g id="node2" class="node">
<title>epLsar_sigmaY</title>
<ellipse fill="none" stroke="#000000" cx="1042" cy="-187.43" rx="72.6644" ry="37.4533"/>
<text text-anchor="middle" x="1042" y="-198.73" font-family="Times,serif" font-size="14.00" fill="#000000">epLsar_sigmaY</text>
<text text-anchor="middle" x="1042" y="-183.73" font-family="Times,serif" font-size="14.00" fill="#000000">~</text>
<text text-anchor="middle" x="1042" y="-168.73" font-family="Times,serif" font-size="14.00" fill="#000000">Gamma</text>
</g>
<!-- epLsar_y -->
<g id="node21" class="node">
<title>epLsar_y</title>
<ellipse fill="#d3d3d3" stroke="#000000" cx="906" cy="-76.4767" rx="47.2526" ry="37.4533"/>
<text text-anchor="middle" x="906" y="-87.7767" font-family="Times,serif" font-size="14.00" fill="#000000">epLsar_y</text>
<text text-anchor="middle" x="906" y="-72.7767" font-family="Times,serif" font-size="14.00" fill="#000000">~</text>
<text text-anchor="middle" x="906" y="-57.7767" font-family="Times,serif" font-size="14.00" fill="#000000">StudentT</text>
</g>
<!-- epLsar_sigmaY&#45;&gt;epLsar_y -->
<g id="edge19" class="edge">
<title>epLsar_sigmaY&#45;&gt;epLsar_y</title>
<path fill="none" stroke="#000000" d="M1003.0279,-155.6352C985.4666,-141.3081 964.7255,-124.3868 946.937,-109.8744"/>
<polygon fill="#000000" stroke="#000000" points="948.9547,-107.0035 938.9937,-103.394 944.5296,-112.4275 948.9547,-107.0035"/>
</g>
<!-- epLsar_b0_dist -->
<g id="node3" class="node">
<title>epLsar_b0_dist</title>
<ellipse fill="none" stroke="#000000" cx="1721" cy="-390.3833" rx="70.922" ry="37.4533"/>
<text text-anchor="middle" x="1721" y="-401.6833" font-family="Times,serif" font-size="14.00" fill="#000000">epLsar_b0_dist</text>
<text text-anchor="middle" x="1721" y="-386.6833" font-family="Times,serif" font-size="14.00" fill="#000000">~</text>
<text text-anchor="middle" x="1721" y="-371.6833" font-family="Times,serif" font-size="14.00" fill="#000000">Normal</text>
</g>
<!-- epLsar_b0_dist&#45;&gt;epLsar_b0 -->
<g id="edge2" class="edge">
<title>epLsar_b0_dist&#45;&gt;epLsar_b0</title>
<path fill="none" stroke="#000000" d="M1693.5913,-355.6969C1685.7925,-345.8273 1677.2978,-335.0769 1669.4939,-325.2009"/>
<polygon fill="#000000" stroke="#000000" points="1672.0777,-322.8254 1663.1316,-317.1493 1666.5854,-327.1654 1672.0777,-322.8254"/>
</g>
<!-- epLsar_sigma0 -->
<g id="node4" class="node">
<title>epLsar_sigma0</title>
<ellipse fill="none" stroke="#000000" cx="1880" cy="-390.3833" rx="70.922" ry="37.4533"/>
<text text-anchor="middle" x="1880" y="-401.6833" font-family="Times,serif" font-size="14.00" fill="#000000">epLsar_sigma0</text>
<text text-anchor="middle" x="1880" y="-386.6833" font-family="Times,serif" font-size="14.00" fill="#000000">~</text>
<text text-anchor="middle" x="1880" y="-371.6833" font-family="Times,serif" font-size="14.00" fill="#000000">HalfNormal</text>
</g>
<!-- epLsar_sigma0&#45;&gt;epLsar_b0 -->
<g id="edge3" class="edge">
<title>epLsar_sigma0&#45;&gt;epLsar_b0</title>
<path fill="none" stroke="#000000" d="M1827.536,-364.8811C1818.7234,-360.7744 1809.6365,-356.6474 1801,-352.9066 1766.863,-338.1208 1728.0092,-322.8206 1697.255,-311.0593"/>
<polygon fill="#000000" stroke="#000000" points="1698.1616,-307.6594 1687.5707,-307.3702 1695.6697,-314.2008 1698.1616,-307.6594"/>
</g>
<!-- epLsar_b2_dist -->
<g id="node5" class="node">
<title>epLsar_b2_dist</title>
<ellipse fill="none" stroke="#000000" cx="883" cy="-390.3833" rx="70.922" ry="37.4533"/>
<text text-anchor="middle" x="883" y="-401.6833" font-family="Times,serif" font-size="14.00" fill="#000000">epLsar_b2_dist</text>
<text text-anchor="middle" x="883" y="-386.6833" font-family="Times,serif" font-size="14.00" fill="#000000">~</text>
<text text-anchor="middle" x="883" y="-371.6833" font-family="Times,serif" font-size="14.00" fill="#000000">Gumbel</text>
</g>
<!-- epLsar_b2 -->
<g id="node17" class="node">
<title>epLsar_b2</title>
<polygon fill="none" stroke="#000000" points="779.5,-316.9066 688.5,-316.9066 688.5,-263.9066 779.5,-263.9066 779.5,-316.9066"/>
<text text-anchor="middle" x="734" y="-301.7066" font-family="Times,serif" font-size="14.00" fill="#000000">epLsar_b2</text>
<text text-anchor="middle" x="734" y="-286.7066" font-family="Times,serif" font-size="14.00" fill="#000000">~</text>
<text text-anchor="middle" x="734" y="-271.7066" font-family="Times,serif" font-size="14.00" fill="#000000">Deterministic</text>
</g>
<!-- epLsar_b2_dist&#45;&gt;epLsar_b2 -->
<g id="edge10" class="edge">
<title>epLsar_b2_dist&#45;&gt;epLsar_b2</title>
<path fill="none" stroke="#000000" d="M839.101,-360.9277C821.2484,-348.949 800.5583,-335.0662 782.2814,-322.8027"/>
<polygon fill="#000000" stroke="#000000" points="783.7799,-319.5933 773.5259,-316.9279 779.8797,-325.4061 783.7799,-319.5933"/>
</g>
<!-- epLsar_nuY -->
<g id="node6" class="node">
<title>epLsar_nuY</title>
<ellipse fill="none" stroke="#000000" cx="1192" cy="-187.43" rx="58.8803" ry="37.4533"/>
<text text-anchor="middle" x="1192" y="-198.73" font-family="Times,serif" font-size="14.00" fill="#000000">epLsar_nuY</text>
<text text-anchor="middle" x="1192" y="-183.73" font-family="Times,serif" font-size="14.00" fill="#000000">~</text>
<text text-anchor="middle" x="1192" y="-168.73" font-family="Times,serif" font-size="14.00" fill="#000000">Exponential</text>
</g>
<!-- epLsar_nuY&#45;&gt;epLsar_y -->
<g id="edge20" class="edge">
<title>epLsar_nuY&#45;&gt;epLsar_y</title>
<path fill="none" stroke="#000000" d="M1148.6864,-162.0614C1140.608,-157.7615 1132.1436,-153.5355 1124,-149.9533 1069.789,-126.1074 1005.2373,-105.2337 960.5132,-91.8898"/>
<polygon fill="#000000" stroke="#000000" points="961.3011,-88.473 950.7191,-88.9933 959.3159,-95.1856 961.3011,-88.473"/>
</g>
<!-- epLsar_mu -->
<g id="node20" class="node">
<title>epLsar_mu</title>
<polygon fill="none" stroke="#000000" points="951.5,-213.93 860.5,-213.93 860.5,-160.93 951.5,-160.93 951.5,-213.93"/>
<text text-anchor="middle" x="906" y="-198.73" font-family="Times,serif" font-size="14.00" fill="#000000">epLsar_mu</text>
<text text-anchor="middle" x="906" y="-183.73" font-family="Times,serif" font-size="14.00" fill="#000000">~</text>
<text text-anchor="middle" x="906" y="-168.73" font-family="Times,serif" font-size="14.00" fill="#000000">Deterministic</text>
</g>
<!-- epLsar_b0&#45;&gt;epLsar_mu -->
<g id="edge16" class="edge">
<title>epLsar_b0&#45;&gt;epLsar_mu</title>
<path fill="none" stroke="#000000" d="M1596.4209,-284.1082C1508.3923,-272.1835 1308.7736,-246.3066 1140,-232.9066 1100.0861,-229.7376 997.9363,-237.7127 960,-224.9066 955.5062,-223.3897 951.0482,-221.3775 946.7328,-219.0708"/>
<polygon fill="#000000" stroke="#000000" points="948.5014,-216.0505 938.1095,-213.9867 944.9463,-222.0805 948.5014,-216.0505"/>
</g>
<!-- epLsar_M12_dist -->
<g id="node8" class="node">
<title>epLsar_M12_dist</title>
<ellipse fill="none" stroke="#000000" cx="1226" cy="-390.3833" rx="79.8063" ry="37.4533"/>
<text text-anchor="middle" x="1226" y="-401.6833" font-family="Times,serif" font-size="14.00" fill="#000000">epLsar_M12_dist</text>
<text text-anchor="middle" x="1226" y="-386.6833" font-family="Times,serif" font-size="14.00" fill="#000000">~</text>
<text text-anchor="middle" x="1226" y="-371.6833" font-family="Times,serif" font-size="14.00" fill="#000000">Normal</text>
</g>
<!-- epLsar_M12 -->
<g id="node18" class="node">
<title>epLsar_M12</title>
<polygon fill="none" stroke="#000000" points="1111.5,-316.9066 1020.5,-316.9066 1020.5,-263.9066 1111.5,-263.9066 1111.5,-316.9066"/>
<text text-anchor="middle" x="1066" y="-301.7066" font-family="Times,serif" font-size="14.00" fill="#000000">epLsar_M12</text>
<text text-anchor="middle" x="1066" y="-286.7066" font-family="Times,serif" font-size="14.00" fill="#000000">~</text>
<text text-anchor="middle" x="1066" y="-271.7066" font-family="Times,serif" font-size="14.00" fill="#000000">Deterministic</text>
</g>
<!-- epLsar_M12_dist&#45;&gt;epLsar_M12 -->
<g id="edge11" class="edge">
<title>epLsar_M12_dist&#45;&gt;epLsar_M12</title>
<path fill="none" stroke="#000000" d="M1177.9947,-360.387C1158.8371,-348.4163 1136.7486,-334.6142 1117.2777,-322.4477"/>
<polygon fill="#000000" stroke="#000000" points="1118.8709,-319.3162 1108.5357,-316.9852 1115.1615,-325.2526 1118.8709,-319.3162"/>
</g>
<!-- epLsar_sigma12 -->
<g id="node9" class="node">
<title>epLsar_sigma12</title>
<ellipse fill="none" stroke="#000000" cx="1400" cy="-390.3833" rx="75.8212" ry="37.4533"/>
<text text-anchor="middle" x="1400" y="-401.6833" font-family="Times,serif" font-size="14.00" fill="#000000">epLsar_sigma12</text>
<text text-anchor="middle" x="1400" y="-386.6833" font-family="Times,serif" font-size="14.00" fill="#000000">~</text>
<text text-anchor="middle" x="1400" y="-371.6833" font-family="Times,serif" font-size="14.00" fill="#000000">HalfNormal</text>
</g>
<!-- epLsar_sigma12&#45;&gt;epLsar_M12 -->
<g id="edge12" class="edge">
<title>epLsar_sigma12&#45;&gt;epLsar_M12</title>
<path fill="none" stroke="#000000" d="M1344.7559,-364.4163C1334.9566,-360.2746 1324.7628,-356.2571 1315,-352.9066 1249.7889,-330.527 1172.4713,-312.3733 1121.4875,-301.5097"/>
<polygon fill="#000000" stroke="#000000" points="1122.1604,-298.0747 1111.6533,-299.4351 1120.7155,-304.924 1122.1604,-298.0747"/>
</g>
<!-- epLsar_b1_dist -->
<g id="node10" class="node">
<title>epLsar_b1_dist</title>
<ellipse fill="none" stroke="#000000" cx="403" cy="-390.3833" rx="70.922" ry="37.4533"/>
<text text-anchor="middle" x="403" y="-401.6833" font-family="Times,serif" font-size="14.00" fill="#000000">epLsar_b1_dist</text>
<text text-anchor="middle" x="403" y="-386.6833" font-family="Times,serif" font-size="14.00" fill="#000000">~</text>
<text text-anchor="middle" x="403" y="-371.6833" font-family="Times,serif" font-size="14.00" fill="#000000">Normal</text>
</g>
<!-- epLsar_b1 -->
<g id="node13" class="node">
<title>epLsar_b1</title>
<polygon fill="none" stroke="#000000" points="301.5,-316.9066 210.5,-316.9066 210.5,-263.9066 301.5,-263.9066 301.5,-316.9066"/>
<text text-anchor="middle" x="256" y="-301.7066" font-family="Times,serif" font-size="14.00" fill="#000000">epLsar_b1</text>
<text text-anchor="middle" x="256" y="-286.7066" font-family="Times,serif" font-size="14.00" fill="#000000">~</text>
<text text-anchor="middle" x="256" y="-271.7066" font-family="Times,serif" font-size="14.00" fill="#000000">Deterministic</text>
</g>
<!-- epLsar_b1_dist&#45;&gt;epLsar_b1 -->
<g id="edge4" class="edge">
<title>epLsar_b1_dist&#45;&gt;epLsar_b1</title>
<path fill="none" stroke="#000000" d="M359.2932,-360.6577C341.8378,-348.7861 321.6838,-335.0791 303.838,-322.9419"/>
<polygon fill="#000000" stroke="#000000" points="305.5218,-319.8543 295.2846,-317.1247 301.5852,-325.6425 305.5218,-319.8543"/>
</g>
<!-- epLsar_mu_b1 -->
<g id="node11" class="node">
<title>epLsar_mu_b1</title>
<ellipse fill="none" stroke="#000000" cx="245" cy="-390.3833" rx="69.0935" ry="37.4533"/>
<text text-anchor="middle" x="245" y="-401.6833" font-family="Times,serif" font-size="14.00" fill="#000000">epLsar_mu_b1</text>
<text text-anchor="middle" x="245" y="-386.6833" font-family="Times,serif" font-size="14.00" fill="#000000">~</text>
<text text-anchor="middle" x="245" y="-371.6833" font-family="Times,serif" font-size="14.00" fill="#000000">Normal</text>
</g>
<!-- epLsar_mu_b1&#45;&gt;epLsar_b1 -->
<g id="edge5" class="edge">
<title>epLsar_mu_b1&#45;&gt;epLsar_b1</title>
<path fill="none" stroke="#000000" d="M249.1273,-352.8712C250.0446,-344.5341 251.0163,-335.7023 251.9312,-327.3867"/>
<polygon fill="#000000" stroke="#000000" points="255.4367,-327.5286 253.0514,-317.2057 248.4787,-326.7629 255.4367,-327.5286"/>
</g>
<!-- epLsar_sigma1 -->
<g id="node12" class="node">
<title>epLsar_sigma1</title>
<ellipse fill="none" stroke="#000000" cx="87" cy="-390.3833" rx="70.922" ry="37.4533"/>
<text text-anchor="middle" x="87" y="-401.6833" font-family="Times,serif" font-size="14.00" fill="#000000">epLsar_sigma1</text>
<text text-anchor="middle" x="87" y="-386.6833" font-family="Times,serif" font-size="14.00" fill="#000000">~</text>
<text text-anchor="middle" x="87" y="-371.6833" font-family="Times,serif" font-size="14.00" fill="#000000">HalfNormal</text>
</g>
<!-- epLsar_sigma1&#45;&gt;epLsar_b1 -->
<g id="edge6" class="edge">
<title>epLsar_sigma1&#45;&gt;epLsar_b1</title>
<path fill="none" stroke="#000000" d="M134.5257,-362.2682C155.6341,-349.7809 180.577,-335.0252 202.3516,-322.1438"/>
<polygon fill="#000000" stroke="#000000" points="204.3284,-325.0411 211.1531,-316.9371 200.7642,-319.0163 204.3284,-325.0411"/>
</g>
<!-- epLsar_b1&#45;&gt;epLsar_mu -->
<g id="edge15" class="edge">
<title>epLsar_b1&#45;&gt;epLsar_mu</title>
<path fill="none" stroke="#000000" d="M301.9016,-276.5393C346.8796,-263.4479 417.5749,-244.1894 480,-232.9066 611.6074,-209.1198 768.5002,-196.3124 850.2314,-190.7959"/>
<polygon fill="#000000" stroke="#000000" points="850.5517,-194.2824 860.2979,-190.1278 850.0881,-187.2978 850.5517,-194.2824"/>
</g>
<!-- epLsar_sigma2 -->
<g id="node14" class="node">
<title>epLsar_sigma2</title>
<ellipse fill="none" stroke="#000000" cx="721" cy="-501.3366" rx="70.922" ry="37.4533"/>
<text text-anchor="middle" x="721" y="-512.6366" font-family="Times,serif" font-size="14.00" fill="#000000">epLsar_sigma2</text>
<text text-anchor="middle" x="721" y="-497.6366" font-family="Times,serif" font-size="14.00" fill="#000000">~</text>
<text text-anchor="middle" x="721" y="-482.6366" font-family="Times,serif" font-size="14.00" fill="#000000">HalfNormal</text>
</g>
<!-- epLsar_b2_beta -->
<g id="node16" class="node">
<title>epLsar_b2_beta</title>
<ellipse fill="none" stroke="#000000" cx="721" cy="-390.3833" rx="72.6644" ry="37.4533"/>
<text text-anchor="middle" x="721" y="-401.6833" font-family="Times,serif" font-size="14.00" fill="#000000">epLsar_b2_beta</text>
<text text-anchor="middle" x="721" y="-386.6833" font-family="Times,serif" font-size="14.00" fill="#000000">~</text>
<text text-anchor="middle" x="721" y="-371.6833" font-family="Times,serif" font-size="14.00" fill="#000000">HalfNormal</text>
</g>
<!-- epLsar_sigma2&#45;&gt;epLsar_b2_beta -->
<g id="edge7" class="edge">
<title>epLsar_sigma2&#45;&gt;epLsar_b2_beta</title>
<path fill="none" stroke="#000000" d="M721,-463.7729C721,-455.549 721,-446.7367 721,-438.1736"/>
<polygon fill="#000000" stroke="#000000" points="724.5001,-437.9083 721,-427.9083 717.5001,-437.9084 724.5001,-437.9083"/>
</g>
<!-- epLsar_mu_b2 -->
<g id="node15" class="node">
<title>epLsar_mu_b2</title>
<ellipse fill="none" stroke="#000000" cx="561" cy="-390.3833" rx="69.0935" ry="37.4533"/>
<text text-anchor="middle" x="561" y="-401.6833" font-family="Times,serif" font-size="14.00" fill="#000000">epLsar_mu_b2</text>
<text text-anchor="middle" x="561" y="-386.6833" font-family="Times,serif" font-size="14.00" fill="#000000">~</text>
<text text-anchor="middle" x="561" y="-371.6833" font-family="Times,serif" font-size="14.00" fill="#000000">Normal</text>
</g>
<!-- epLsar_mu_b2&#45;&gt;epLsar_b2 -->
<g id="edge8" class="edge">
<title>epLsar_mu_b2&#45;&gt;epLsar_b2</title>
<path fill="none" stroke="#000000" d="M608.731,-362.7996C630.6277,-350.1455 656.7035,-335.0762 679.3805,-321.9712"/>
<polygon fill="#000000" stroke="#000000" points="681.3069,-324.9005 688.2138,-316.8665 677.8043,-318.8397 681.3069,-324.9005"/>
</g>
<!-- epLsar_b2_beta&#45;&gt;epLsar_b2 -->
<g id="edge9" class="edge">
<title>epLsar_b2_beta&#45;&gt;epLsar_b2</title>
<path fill="none" stroke="#000000" d="M725.8777,-352.8712C726.9618,-344.5341 728.1102,-335.7023 729.1915,-327.3867"/>
<polygon fill="#000000" stroke="#000000" points="732.6966,-327.5736 730.5153,-317.2057 725.755,-326.6709 732.6966,-327.5736"/>
</g>
<!-- epLsar_b2&#45;&gt;epLsar_mu -->
<g id="edge17" class="edge">
<title>epLsar_b2&#45;&gt;epLsar_mu</title>
<path fill="none" stroke="#000000" d="M778.2943,-263.8876C801.0771,-250.2475 829.0124,-233.5226 852.9401,-219.197"/>
<polygon fill="#000000" stroke="#000000" points="854.7753,-222.1777 861.5572,-214.0379 851.1795,-216.1718 854.7753,-222.1777"/>
</g>
<!-- epLsar_M12&#45;&gt;epLsar_mu -->
<g id="edge14" class="edge">
<title>epLsar_M12&#45;&gt;epLsar_mu</title>
<path fill="none" stroke="#000000" d="M1021.8334,-263.8376C1002.6799,-252.1301 980.0841,-238.0679 960,-224.9066 957.4572,-223.2403 954.8589,-221.515 952.2441,-219.7609"/>
<polygon fill="#000000" stroke="#000000" points="954.127,-216.809 943.8848,-214.0983 950.201,-222.6045 954.127,-216.809"/>
</g>
<!-- epLsar_mu_M12 -->
<g id="node19" class="node">
<title>epLsar_mu_M12</title>
<ellipse fill="none" stroke="#000000" cx="1050" cy="-390.3833" rx="78.4777" ry="37.4533"/>
<text text-anchor="middle" x="1050" y="-401.6833" font-family="Times,serif" font-size="14.00" fill="#000000">epLsar_mu_M12</text>
<text text-anchor="middle" x="1050" y="-386.6833" font-family="Times,serif" font-size="14.00" fill="#000000">~</text>
<text text-anchor="middle" x="1050" y="-371.6833" font-family="Times,serif" font-size="14.00" fill="#000000">Normal</text>
</g>
<!-- epLsar_mu_M12&#45;&gt;epLsar_M12 -->
<g id="edge13" class="edge">
<title>epLsar_mu_M12&#45;&gt;epLsar_M12</title>
<path fill="none" stroke="#000000" d="M1056.0033,-352.8712C1057.3524,-344.4415 1058.7824,-335.506 1060.1261,-327.1097"/>
<polygon fill="#000000" stroke="#000000" points="1063.5868,-327.6332 1061.7111,-317.2057 1056.6748,-326.527 1063.5868,-327.6332"/>
</g>
<!-- epLsar_mu&#45;&gt;epLsar_y -->
<g id="edge18" class="edge">
<title>epLsar_mu&#45;&gt;epLsar_y</title>
<path fill="none" stroke="#000000" d="M906,-160.8539C906,-149.9351 906,-136.944 906,-124.4675"/>
<polygon fill="#000000" stroke="#000000" points="909.5001,-124.1649 906,-114.165 902.5001,-124.165 909.5001,-124.1649"/>
</g>
</g>
</svg>
