<?xml version="1.0" encoding="UTF-8" standalone="no"?>
<!DOCTYPE svg PUBLIC "-//W3C//DTD SVG 1.1//EN"
 "http://www.w3.org/Graphics/SVG/1.1/DTD/svg11.dtd">
<!-- Generated by graphviz version 2.42.1 (20190717.1914)
 -->
<!-- Title: NewEplsar Pages: 1 -->
<svg width="1183pt" height="602pt"
 viewBox="0.00 0.00 1183.39 602.36" xmlns="http://www.w3.org/2000/svg" xmlns:xlink="http://www.w3.org/1999/xlink">
<g id="graph0" class="graph" transform="scale(1 1) rotate(0) translate(4 598.36)">
<title>NewEplsar</title>
<polygon fill="white" stroke="transparent" points="-4,4 -4,-598.36 1179.39,-598.36 1179.39,4 -4,4"/>
<g id="clust1" class="cluster">
<title>cluster11</title>
<path fill="none" stroke="black" d="M20,-249.98C20,-249.98 389,-249.98 389,-249.98 395,-249.98 401,-255.98 401,-261.98 401,-261.98 401,-574.36 401,-574.36 401,-580.36 395,-586.36 389,-586.36 389,-586.36 20,-586.36 20,-586.36 14,-586.36 8,-580.36 8,-574.36 8,-574.36 8,-261.98 8,-261.98 8,-255.98 14,-249.98 20,-249.98"/>
<text text-anchor="middle" x="386" y="-258.18" font-family="Times,serif" font-size="14.00">11</text>
</g>
<g id="clust2" class="cluster">
<title>cluster140</title>
<path fill="none" stroke="black" d="M260,-8C260,-8 382,-8 382,-8 388,-8 394,-14 394,-20 394,-20 394,-225.89 394,-225.89 394,-231.89 388,-237.89 382,-237.89 382,-237.89 260,-237.89 260,-237.89 254,-237.89 248,-231.89 248,-225.89 248,-225.89 248,-20 248,-20 248,-14 254,-8 260,-8"/>
<text text-anchor="middle" x="375.5" y="-16.2" font-family="Times,serif" font-size="14.00">140</text>
</g>
<!-- NewEplsar_sigma0 -->
<g id="node1" class="node">
<title>NewEplsar_sigma0</title>
<ellipse fill="none" stroke="black" cx="696" cy="-418.48" rx="88.67" ry="41.09"/>
<text text-anchor="middle" x="696" y="-431.08" font-family="Times,serif" font-size="14.00">NewEplsar_sigma0</text>
<text text-anchor="middle" x="696" y="-414.28" font-family="Times,serif" font-size="14.00">~</text>
<text text-anchor="middle" x="696" y="-397.48" font-family="Times,serif" font-size="14.00">HalfNormal</text>
</g>
<!-- NewEplsar_b0 -->
<g id="node3" class="node">
<title>NewEplsar_b0</title>
<polygon fill="none" stroke="black" points="842.69,-341.38 743.31,-341.38 743.31,-282.58 842.69,-282.58 842.69,-341.38"/>
<text text-anchor="middle" x="793" y="-324.58" font-family="Times,serif" font-size="14.00">NewEplsar_b0</text>
<text text-anchor="middle" x="793" y="-307.78" font-family="Times,serif" font-size="14.00">~</text>
<text text-anchor="middle" x="793" y="-290.98" font-family="Times,serif" font-size="14.00">Deterministic</text>
</g>
<!-- NewEplsar_sigma0&#45;&gt;NewEplsar_b0 -->
<g id="edge2" class="edge">
<title>NewEplsar_sigma0&#45;&gt;NewEplsar_b0</title>
<path fill="none" stroke="black" d="M730.47,-380.34C739.93,-370.15 750.17,-359.12 759.57,-348.99"/>
<polygon fill="black" stroke="black" points="762.33,-351.16 766.57,-341.45 757.2,-346.4 762.33,-351.16"/>
</g>
<!-- NewEplsar_mu_b0 -->
<g id="node2" class="node">
<title>NewEplsar_mu_b0</title>
<ellipse fill="none" stroke="black" cx="891" cy="-418.48" rx="87.98" ry="41.09"/>
<text text-anchor="middle" x="891" y="-431.08" font-family="Times,serif" font-size="14.00">NewEplsar_mu_b0</text>
<text text-anchor="middle" x="891" y="-414.28" font-family="Times,serif" font-size="14.00">~</text>
<text text-anchor="middle" x="891" y="-397.48" font-family="Times,serif" font-size="14.00">Normal</text>
</g>
<!-- NewEplsar_mu_b0&#45;&gt;NewEplsar_b0 -->
<g id="edge3" class="edge">
<title>NewEplsar_mu_b0&#45;&gt;NewEplsar_b0</title>
<path fill="none" stroke="black" d="M856.17,-380.34C846.62,-370.15 836.27,-359.12 826.77,-348.99"/>
<polygon fill="black" stroke="black" points="829.1,-346.35 819.7,-341.45 823.99,-351.14 829.1,-346.35"/>
</g>
<!-- NewEplsar_mu -->
<g id="node12" class="node">
<title>NewEplsar_mu</title>
<polygon fill="none" stroke="black" points="372.58,-230.09 269.42,-230.09 269.42,-171.28 372.58,-171.28 372.58,-230.09"/>
<text text-anchor="middle" x="321" y="-213.29" font-family="Times,serif" font-size="14.00">NewEplsar_mu</text>
<text text-anchor="middle" x="321" y="-196.49" font-family="Times,serif" font-size="14.00">~</text>
<text text-anchor="middle" x="321" y="-179.69" font-family="Times,serif" font-size="14.00">Deterministic</text>
</g>
<!-- NewEplsar_b0&#45;&gt;NewEplsar_mu -->
<g id="edge8" class="edge">
<title>NewEplsar_b0&#45;&gt;NewEplsar_mu</title>
<path fill="none" stroke="black" d="M743.31,-307.83C666.31,-301.76 514.39,-284.99 393,-241.98 387.06,-239.88 381.04,-237.31 375.14,-234.49"/>
<polygon fill="black" stroke="black" points="376.5,-231.26 365.99,-229.9 373.36,-237.52 376.5,-231.26"/>
</g>
<!-- NewEplsar_b0_dist -->
<g id="node4" class="node">
<title>NewEplsar_b0_dist</title>
<ellipse fill="none" stroke="black" cx="1086" cy="-418.48" rx="89.28" ry="41.09"/>
<text text-anchor="middle" x="1086" y="-431.08" font-family="Times,serif" font-size="14.00">NewEplsar_b0_dist</text>
<text text-anchor="middle" x="1086" y="-414.28" font-family="Times,serif" font-size="14.00">~</text>
<text text-anchor="middle" x="1086" y="-397.48" font-family="Times,serif" font-size="14.00">Normal</text>
</g>
<!-- NewEplsar_b0_dist&#45;&gt;NewEplsar_b0 -->
<g id="edge1" class="edge">
<title>NewEplsar_b0_dist&#45;&gt;NewEplsar_b0</title>
<path fill="none" stroke="black" d="M1021.16,-390.05C1010.14,-385.61 998.78,-381.17 988,-377.18 942.85,-360.49 891.07,-343.54 852.22,-331.25"/>
<polygon fill="black" stroke="black" points="853.22,-327.9 842.63,-328.23 851.11,-334.58 853.22,-327.9"/>
</g>
<!-- NewEplsar_nuY -->
<g id="node5" class="node">
<title>NewEplsar_nuY</title>
<ellipse fill="none" stroke="black" cx="479" cy="-200.69" rx="77.07" ry="41.09"/>
<text text-anchor="middle" x="479" y="-213.29" font-family="Times,serif" font-size="14.00">NewEplsar_nuY</text>
<text text-anchor="middle" x="479" y="-196.49" font-family="Times,serif" font-size="14.00">~</text>
<text text-anchor="middle" x="479" y="-179.69" font-family="Times,serif" font-size="14.00">Exponential</text>
</g>
<!-- NewEplsar_y -->
<g id="node13" class="node">
<title>NewEplsar_y</title>
<ellipse fill="lightgrey" stroke="black" cx="321" cy="-82.1" rx="65.38" ry="41.09"/>
<text text-anchor="middle" x="321" y="-94.7" font-family="Times,serif" font-size="14.00">NewEplsar_y</text>
<text text-anchor="middle" x="321" y="-77.9" font-family="Times,serif" font-size="14.00">~</text>
<text text-anchor="middle" x="321" y="-61.1" font-family="Times,serif" font-size="14.00">StudentT</text>
</g>
<!-- NewEplsar_nuY&#45;&gt;NewEplsar_y -->
<g id="edge11" class="edge">
<title>NewEplsar_nuY&#45;&gt;NewEplsar_y</title>
<path fill="none" stroke="black" d="M434.15,-166.59C414.42,-152.03 391.18,-134.88 370.91,-119.92"/>
<polygon fill="black" stroke="black" points="372.84,-117 362.71,-113.88 368.68,-122.63 372.84,-117"/>
</g>
<!-- NewEplsar_b2_dist -->
<g id="node6" class="node">
<title>NewEplsar_b2_dist</title>
<ellipse fill="none" stroke="black" cx="500" cy="-418.48" rx="89.28" ry="41.09"/>
<text text-anchor="middle" x="500" y="-431.08" font-family="Times,serif" font-size="14.00">NewEplsar_b2_dist</text>
<text text-anchor="middle" x="500" y="-414.28" font-family="Times,serif" font-size="14.00">~</text>
<text text-anchor="middle" x="500" y="-397.48" font-family="Times,serif" font-size="14.00">Gumbel</text>
</g>
<!-- NewEplsar_b2 -->
<g id="node11" class="node">
<title>NewEplsar_b2</title>
<polygon fill="none" stroke="black" points="357.69,-341.38 258.31,-341.38 258.31,-282.58 357.69,-282.58 357.69,-341.38"/>
<text text-anchor="middle" x="308" y="-324.58" font-family="Times,serif" font-size="14.00">NewEplsar_b2</text>
<text text-anchor="middle" x="308" y="-307.78" font-family="Times,serif" font-size="14.00">~</text>
<text text-anchor="middle" x="308" y="-290.98" font-family="Times,serif" font-size="14.00">Deterministic</text>
</g>
<!-- NewEplsar_b2_dist&#45;&gt;NewEplsar_b2 -->
<g id="edge5" class="edge">
<title>NewEplsar_b2_dist&#45;&gt;NewEplsar_b2</title>
<path fill="none" stroke="black" d="M443.17,-386.55C419.15,-373.47 391.18,-358.25 366.93,-345.05"/>
<polygon fill="black" stroke="black" points="368.29,-341.81 357.84,-340.1 364.95,-347.96 368.29,-341.81"/>
</g>
<!-- NewEplsar_sigmaY -->
<g id="node7" class="node">
<title>NewEplsar_sigmaY</title>
<ellipse fill="none" stroke="black" cx="665" cy="-200.69" rx="91.06" ry="41.09"/>
<text text-anchor="middle" x="665" y="-213.29" font-family="Times,serif" font-size="14.00">NewEplsar_sigmaY</text>
<text text-anchor="middle" x="665" y="-196.49" font-family="Times,serif" font-size="14.00">~</text>
<text text-anchor="middle" x="665" y="-179.69" font-family="Times,serif" font-size="14.00">Gamma</text>
</g>
<!-- NewEplsar_sigmaY&#45;&gt;NewEplsar_y -->
<g id="edge12" class="edge">
<title>NewEplsar_sigmaY&#45;&gt;NewEplsar_y</title>
<path fill="none" stroke="black" d="M598.85,-172.17C587.61,-167.74 576.02,-163.32 565,-159.39 506.54,-138.51 439.13,-117.67 389.99,-103.06"/>
<polygon fill="black" stroke="black" points="390.69,-99.62 380.11,-100.13 388.7,-106.33 390.69,-99.62"/>
</g>
<!-- NewEplsar_sigma2 -->
<g id="node8" class="node">
<title>NewEplsar_sigma2</title>
<ellipse fill="none" stroke="black" cx="301" cy="-537.07" rx="88.67" ry="41.09"/>
<text text-anchor="middle" x="301" y="-549.67" font-family="Times,serif" font-size="14.00">NewEplsar_sigma2</text>
<text text-anchor="middle" x="301" y="-532.87" font-family="Times,serif" font-size="14.00">~</text>
<text text-anchor="middle" x="301" y="-516.07" font-family="Times,serif" font-size="14.00">HalfNormal</text>
</g>
<!-- NewEplsar_b2_beta -->
<g id="node9" class="node">
<title>NewEplsar_b2_beta</title>
<ellipse fill="none" stroke="black" cx="301" cy="-418.48" rx="91.66" ry="41.09"/>
<text text-anchor="middle" x="301" y="-431.08" font-family="Times,serif" font-size="14.00">NewEplsar_b2_beta</text>
<text text-anchor="middle" x="301" y="-414.28" font-family="Times,serif" font-size="14.00">~</text>
<text text-anchor="middle" x="301" y="-397.48" font-family="Times,serif" font-size="14.00">HalfNormal</text>
</g>
<!-- NewEplsar_sigma2&#45;&gt;NewEplsar_b2_beta -->
<g id="edge4" class="edge">
<title>NewEplsar_sigma2&#45;&gt;NewEplsar_b2_beta</title>
<path fill="none" stroke="black" d="M301,-495.61C301,-487.39 301,-478.63 301,-470.1"/>
<polygon fill="black" stroke="black" points="304.5,-469.85 301,-459.85 297.5,-469.85 304.5,-469.85"/>
</g>
<!-- NewEplsar_b2_beta&#45;&gt;NewEplsar_b2 -->
<g id="edge6" class="edge">
<title>NewEplsar_b2_beta&#45;&gt;NewEplsar_b2</title>
<path fill="none" stroke="black" d="M303.71,-377.07C304.27,-368.68 304.86,-359.84 305.42,-351.51"/>
<polygon fill="black" stroke="black" points="308.93,-351.51 306.1,-341.3 301.94,-351.04 308.93,-351.51"/>
</g>
<!-- NewEplsar_mu_b2 -->
<g id="node10" class="node">
<title>NewEplsar_mu_b2</title>
<ellipse fill="none" stroke="black" cx="104" cy="-418.48" rx="87.98" ry="41.09"/>
<text text-anchor="middle" x="104" y="-431.08" font-family="Times,serif" font-size="14.00">NewEplsar_mu_b2</text>
<text text-anchor="middle" x="104" y="-414.28" font-family="Times,serif" font-size="14.00">~</text>
<text text-anchor="middle" x="104" y="-397.48" font-family="Times,serif" font-size="14.00">Normal</text>
</g>
<!-- NewEplsar_mu_b2&#45;&gt;NewEplsar_b2 -->
<g id="edge7" class="edge">
<title>NewEplsar_mu_b2&#45;&gt;NewEplsar_b2</title>
<path fill="none" stroke="black" d="M162.46,-387.53C189.64,-373.61 221.91,-357.08 249.14,-343.13"/>
<polygon fill="black" stroke="black" points="250.87,-346.18 258.17,-338.5 247.68,-339.95 250.87,-346.18"/>
</g>
<!-- NewEplsar_b2&#45;&gt;NewEplsar_mu -->
<g id="edge9" class="edge">
<title>NewEplsar_b2&#45;&gt;NewEplsar_mu</title>
<path fill="none" stroke="black" d="M311.38,-282.55C312.92,-269.65 314.76,-254.19 316.41,-240.26"/>
<polygon fill="black" stroke="black" points="319.93,-240.32 317.64,-229.97 312.98,-239.49 319.93,-240.32"/>
</g>
<!-- NewEplsar_mu&#45;&gt;NewEplsar_y -->
<g id="edge10" class="edge">
<title>NewEplsar_mu&#45;&gt;NewEplsar_y</title>
<path fill="none" stroke="black" d="M321,-171.46C321,-160.08 321,-146.6 321,-133.63"/>
<polygon fill="black" stroke="black" points="324.5,-133.4 321,-123.4 317.5,-133.4 324.5,-133.4"/>
</g>
</g>
</svg>
