<?xml version="1.0" encoding="UTF-8" standalone="no"?>
<!DOCTYPE svg PUBLIC "-//W3C//DTD SVG 1.1//EN"
 "http://www.w3.org/Graphics/SVG/1.1/DTD/svg11.dtd">
<!-- Generated by graphviz version 2.42.1 (20190717.1914)
 -->
<!-- Title: NewEplsar Pages: 1 -->
<svg width="1166pt" height="602pt"
 viewBox="0.00 0.00 1166.22 602.36" xmlns="http://www.w3.org/2000/svg" xmlns:xlink="http://www.w3.org/1999/xlink">
<g id="graph0" class="graph" transform="scale(1 1) rotate(0) translate(4 598.36)">
<title>NewEplsar</title>
<polygon fill="white" stroke="transparent" points="-4,4 -4,-598.36 1162.22,-598.36 1162.22,4 -4,4"/>
<g id="clust1" class="cluster">
<title>cluster11</title>
<path fill="none" stroke="black" d="M200.39,-249.98C200.39,-249.98 569.39,-249.98 569.39,-249.98 575.39,-249.98 581.39,-255.98 581.39,-261.98 581.39,-261.98 581.39,-574.36 581.39,-574.36 581.39,-580.36 575.39,-586.36 569.39,-586.36 569.39,-586.36 200.39,-586.36 200.39,-586.36 194.39,-586.36 188.39,-580.36 188.39,-574.36 188.39,-574.36 188.39,-261.98 188.39,-261.98 188.39,-255.98 194.39,-249.98 200.39,-249.98"/>
<text text-anchor="middle" x="566.39" y="-258.18" font-family="Times,serif" font-size="14.00">11</text>
</g>
<g id="clust2" class="cluster">
<title>cluster140</title>
<path fill="none" stroke="black" d="M392.39,-8C392.39,-8 514.39,-8 514.39,-8 520.39,-8 526.39,-14 526.39,-20 526.39,-20 526.39,-225.89 526.39,-225.89 526.39,-231.89 520.39,-237.89 514.39,-237.89 514.39,-237.89 392.39,-237.89 392.39,-237.89 386.39,-237.89 380.39,-231.89 380.39,-225.89 380.39,-225.89 380.39,-20 380.39,-20 380.39,-14 386.39,-8 392.39,-8"/>
<text text-anchor="middle" x="507.89" y="-16.2" font-family="Times,serif" font-size="14.00">140</text>
</g>
<!-- NewEplsar_b2_dist -->
<g id="node1" class="node">
<title>NewEplsar_b2_dist</title>
<ellipse fill="none" stroke="black" cx="89.39" cy="-418.48" rx="89.28" ry="41.09"/>
<text text-anchor="middle" x="89.39" y="-431.08" font-family="Times,serif" font-size="14.00">NewEplsar_b2_dist</text>
<text text-anchor="middle" x="89.39" y="-414.28" font-family="Times,serif" font-size="14.00">~</text>
<text text-anchor="middle" x="89.39" y="-397.48" font-family="Times,serif" font-size="14.00">Gumbel</text>
</g>
<!-- NewEplsar_b2 -->
<g id="node8" class="node">
<title>NewEplsar_b2</title>
<polygon fill="none" stroke="black" points="393.08,-341.38 293.7,-341.38 293.7,-282.58 393.08,-282.58 393.08,-341.38"/>
<text text-anchor="middle" x="343.39" y="-324.58" font-family="Times,serif" font-size="14.00">NewEplsar_b2</text>
<text text-anchor="middle" x="343.39" y="-307.78" font-family="Times,serif" font-size="14.00">~</text>
<text text-anchor="middle" x="343.39" y="-290.98" font-family="Times,serif" font-size="14.00">Deterministic</text>
</g>
<!-- NewEplsar_b2_dist&#45;&gt;NewEplsar_b2 -->
<g id="edge5" class="edge">
<title>NewEplsar_b2_dist&#45;&gt;NewEplsar_b2</title>
<path fill="none" stroke="black" d="M153.97,-389.9C164.14,-385.62 174.54,-381.26 184.39,-377.18 217.28,-363.57 254.13,-348.67 284.06,-336.65"/>
<polygon fill="black" stroke="black" points="285.55,-339.83 293.53,-332.86 282.94,-333.33 285.55,-339.83"/>
</g>
<!-- NewEplsar_nuY -->
<g id="node2" class="node">
<title>NewEplsar_nuY</title>
<ellipse fill="none" stroke="black" cx="611.39" cy="-200.69" rx="77.07" ry="41.09"/>
<text text-anchor="middle" x="611.39" y="-213.29" font-family="Times,serif" font-size="14.00">NewEplsar_nuY</text>
<text text-anchor="middle" x="611.39" y="-196.49" font-family="Times,serif" font-size="14.00">~</text>
<text text-anchor="middle" x="611.39" y="-179.69" font-family="Times,serif" font-size="14.00">Exponential</text>
</g>
<!-- NewEplsar_y -->
<g id="node13" class="node">
<title>NewEplsar_y</title>
<ellipse fill="lightgrey" stroke="black" cx="453.39" cy="-82.1" rx="65.38" ry="41.09"/>
<text text-anchor="middle" x="453.39" y="-94.7" font-family="Times,serif" font-size="14.00">NewEplsar_y</text>
<text text-anchor="middle" x="453.39" y="-77.9" font-family="Times,serif" font-size="14.00">~</text>
<text text-anchor="middle" x="453.39" y="-61.1" font-family="Times,serif" font-size="14.00">StudentT</text>
</g>
<!-- NewEplsar_nuY&#45;&gt;NewEplsar_y -->
<g id="edge11" class="edge">
<title>NewEplsar_nuY&#45;&gt;NewEplsar_y</title>
<path fill="none" stroke="black" d="M566.54,-166.59C546.81,-152.03 523.57,-134.88 503.3,-119.92"/>
<polygon fill="black" stroke="black" points="505.23,-117 495.1,-113.88 501.07,-122.63 505.23,-117"/>
</g>
<!-- NewEplsar_mu_b0 -->
<g id="node3" class="node">
<title>NewEplsar_mu_b0</title>
<ellipse fill="none" stroke="black" cx="678.39" cy="-418.48" rx="87.98" ry="41.09"/>
<text text-anchor="middle" x="678.39" y="-431.08" font-family="Times,serif" font-size="14.00">NewEplsar_mu_b0</text>
<text text-anchor="middle" x="678.39" y="-414.28" font-family="Times,serif" font-size="14.00">~</text>
<text text-anchor="middle" x="678.39" y="-397.48" font-family="Times,serif" font-size="14.00">Normal</text>
</g>
<!-- NewEplsar_b0 -->
<g id="node5" class="node">
<title>NewEplsar_b0</title>
<polygon fill="none" stroke="black" points="825.08,-341.38 725.7,-341.38 725.7,-282.58 825.08,-282.58 825.08,-341.38"/>
<text text-anchor="middle" x="775.39" y="-324.58" font-family="Times,serif" font-size="14.00">NewEplsar_b0</text>
<text text-anchor="middle" x="775.39" y="-307.78" font-family="Times,serif" font-size="14.00">~</text>
<text text-anchor="middle" x="775.39" y="-290.98" font-family="Times,serif" font-size="14.00">Deterministic</text>
</g>
<!-- NewEplsar_mu_b0&#45;&gt;NewEplsar_b0 -->
<g id="edge3" class="edge">
<title>NewEplsar_mu_b0&#45;&gt;NewEplsar_b0</title>
<path fill="none" stroke="black" d="M712.86,-380.34C722.32,-370.15 732.56,-359.12 741.96,-348.99"/>
<polygon fill="black" stroke="black" points="744.72,-351.16 748.96,-341.45 739.59,-346.4 744.72,-351.16"/>
</g>
<!-- NewEplsar_b0_dist -->
<g id="node4" class="node">
<title>NewEplsar_b0_dist</title>
<ellipse fill="none" stroke="black" cx="873.39" cy="-418.48" rx="89.28" ry="41.09"/>
<text text-anchor="middle" x="873.39" y="-431.08" font-family="Times,serif" font-size="14.00">NewEplsar_b0_dist</text>
<text text-anchor="middle" x="873.39" y="-414.28" font-family="Times,serif" font-size="14.00">~</text>
<text text-anchor="middle" x="873.39" y="-397.48" font-family="Times,serif" font-size="14.00">Normal</text>
</g>
<!-- NewEplsar_b0_dist&#45;&gt;NewEplsar_b0 -->
<g id="edge1" class="edge">
<title>NewEplsar_b0_dist&#45;&gt;NewEplsar_b0</title>
<path fill="none" stroke="black" d="M838.56,-380.34C829.01,-370.15 818.66,-359.12 809.16,-348.99"/>
<polygon fill="black" stroke="black" points="811.49,-346.35 802.09,-341.45 806.38,-351.14 811.49,-346.35"/>
</g>
<!-- NewEplsar_mu -->
<g id="node12" class="node">
<title>NewEplsar_mu</title>
<polygon fill="none" stroke="black" points="504.97,-230.09 401.81,-230.09 401.81,-171.28 504.97,-171.28 504.97,-230.09"/>
<text text-anchor="middle" x="453.39" y="-213.29" font-family="Times,serif" font-size="14.00">NewEplsar_mu</text>
<text text-anchor="middle" x="453.39" y="-196.49" font-family="Times,serif" font-size="14.00">~</text>
<text text-anchor="middle" x="453.39" y="-179.69" font-family="Times,serif" font-size="14.00">Deterministic</text>
</g>
<!-- NewEplsar_b0&#45;&gt;NewEplsar_mu -->
<g id="edge8" class="edge">
<title>NewEplsar_b0&#45;&gt;NewEplsar_mu</title>
<path fill="none" stroke="black" d="M725.66,-292.32C687.72,-278.75 633.89,-260.91 585.39,-249.98 559.15,-244.07 550.92,-250.48 525.39,-241.98 519.33,-239.96 513.19,-237.42 507.18,-234.6"/>
<polygon fill="black" stroke="black" points="508.41,-231.3 497.9,-229.98 505.29,-237.57 508.41,-231.3"/>
</g>
<!-- NewEplsar_sigma0 -->
<g id="node6" class="node">
<title>NewEplsar_sigma0</title>
<ellipse fill="none" stroke="black" cx="1069.39" cy="-418.48" rx="88.67" ry="41.09"/>
<text text-anchor="middle" x="1069.39" y="-431.08" font-family="Times,serif" font-size="14.00">NewEplsar_sigma0</text>
<text text-anchor="middle" x="1069.39" y="-414.28" font-family="Times,serif" font-size="14.00">~</text>
<text text-anchor="middle" x="1069.39" y="-397.48" font-family="Times,serif" font-size="14.00">HalfNormal</text>
</g>
<!-- NewEplsar_sigma0&#45;&gt;NewEplsar_b0 -->
<g id="edge2" class="edge">
<title>NewEplsar_sigma0&#45;&gt;NewEplsar_b0</title>
<path fill="none" stroke="black" d="M1004.55,-390.03C993.54,-385.6 982.18,-381.16 971.39,-377.18 926.02,-360.45 873.97,-343.5 834.92,-331.22"/>
<polygon fill="black" stroke="black" points="835.87,-327.86 825.28,-328.21 833.78,-334.54 835.87,-327.86"/>
</g>
<!-- NewEplsar_sigmaY -->
<g id="node7" class="node">
<title>NewEplsar_sigmaY</title>
<ellipse fill="none" stroke="black" cx="797.39" cy="-200.69" rx="91.06" ry="41.09"/>
<text text-anchor="middle" x="797.39" y="-213.29" font-family="Times,serif" font-size="14.00">NewEplsar_sigmaY</text>
<text text-anchor="middle" x="797.39" y="-196.49" font-family="Times,serif" font-size="14.00">~</text>
<text text-anchor="middle" x="797.39" y="-179.69" font-family="Times,serif" font-size="14.00">Gamma</text>
</g>
<!-- NewEplsar_sigmaY&#45;&gt;NewEplsar_y -->
<g id="edge12" class="edge">
<title>NewEplsar_sigmaY&#45;&gt;NewEplsar_y</title>
<path fill="none" stroke="black" d="M731.24,-172.17C720,-167.74 708.41,-163.32 697.39,-159.39 638.93,-138.51 571.52,-117.67 522.38,-103.06"/>
<polygon fill="black" stroke="black" points="523.08,-99.62 512.5,-100.13 521.09,-106.33 523.08,-99.62"/>
</g>
<!-- NewEplsar_b2&#45;&gt;NewEplsar_mu -->
<g id="edge9" class="edge">
<title>NewEplsar_b2&#45;&gt;NewEplsar_mu</title>
<path fill="none" stroke="black" d="M372,-282.55C385.88,-268.76 402.7,-252.05 417.43,-237.41"/>
<polygon fill="black" stroke="black" points="420.29,-239.5 424.92,-229.97 415.36,-234.54 420.29,-239.5"/>
</g>
<!-- NewEplsar_mu_b2 -->
<g id="node9" class="node">
<title>NewEplsar_mu_b2</title>
<ellipse fill="none" stroke="black" cx="485.39" cy="-418.48" rx="87.98" ry="41.09"/>
<text text-anchor="middle" x="485.39" y="-431.08" font-family="Times,serif" font-size="14.00">NewEplsar_mu_b2</text>
<text text-anchor="middle" x="485.39" y="-414.28" font-family="Times,serif" font-size="14.00">~</text>
<text text-anchor="middle" x="485.39" y="-397.48" font-family="Times,serif" font-size="14.00">Normal</text>
</g>
<!-- NewEplsar_mu_b2&#45;&gt;NewEplsar_b2 -->
<g id="edge6" class="edge">
<title>NewEplsar_mu_b2&#45;&gt;NewEplsar_b2</title>
<path fill="none" stroke="black" d="M438.89,-383.26C423.33,-371.81 405.98,-359.04 390.39,-347.56"/>
<polygon fill="black" stroke="black" points="392.05,-344.44 381.92,-341.34 387.9,-350.08 392.05,-344.44"/>
</g>
<!-- NewEplsar_b2_beta -->
<g id="node10" class="node">
<title>NewEplsar_b2_beta</title>
<ellipse fill="none" stroke="black" cx="288.39" cy="-418.48" rx="91.66" ry="41.09"/>
<text text-anchor="middle" x="288.39" y="-431.08" font-family="Times,serif" font-size="14.00">NewEplsar_b2_beta</text>
<text text-anchor="middle" x="288.39" y="-414.28" font-family="Times,serif" font-size="14.00">~</text>
<text text-anchor="middle" x="288.39" y="-397.48" font-family="Times,serif" font-size="14.00">HalfNormal</text>
</g>
<!-- NewEplsar_b2_beta&#45;&gt;NewEplsar_b2 -->
<g id="edge7" class="edge">
<title>NewEplsar_b2_beta&#45;&gt;NewEplsar_b2</title>
<path fill="none" stroke="black" d="M309.18,-377.97C313.92,-368.96 318.95,-359.42 323.64,-350.49"/>
<polygon fill="black" stroke="black" points="326.83,-351.95 328.39,-341.47 320.64,-348.69 326.83,-351.95"/>
</g>
<!-- NewEplsar_sigma2 -->
<g id="node11" class="node">
<title>NewEplsar_sigma2</title>
<ellipse fill="none" stroke="black" cx="288.39" cy="-537.07" rx="88.67" ry="41.09"/>
<text text-anchor="middle" x="288.39" y="-549.67" font-family="Times,serif" font-size="14.00">NewEplsar_sigma2</text>
<text text-anchor="middle" x="288.39" y="-532.87" font-family="Times,serif" font-size="14.00">~</text>
<text text-anchor="middle" x="288.39" y="-516.07" font-family="Times,serif" font-size="14.00">HalfNormal</text>
</g>
<!-- NewEplsar_sigma2&#45;&gt;NewEplsar_b2_beta -->
<g id="edge4" class="edge">
<title>NewEplsar_sigma2&#45;&gt;NewEplsar_b2_beta</title>
<path fill="none" stroke="black" d="M288.39,-495.61C288.39,-487.39 288.39,-478.63 288.39,-470.1"/>
<polygon fill="black" stroke="black" points="291.89,-469.85 288.39,-459.85 284.89,-469.85 291.89,-469.85"/>
</g>
<!-- NewEplsar_mu&#45;&gt;NewEplsar_y -->
<g id="edge10" class="edge">
<title>NewEplsar_mu&#45;&gt;NewEplsar_y</title>
<path fill="none" stroke="black" d="M453.39,-171.46C453.39,-160.08 453.39,-146.6 453.39,-133.63"/>
<polygon fill="black" stroke="black" points="456.89,-133.4 453.39,-123.4 449.89,-133.4 456.89,-133.4"/>
</g>
</g>
</svg>
