<?xml version="1.0" encoding="UTF-8" standalone="no"?>
<!DOCTYPE svg PUBLIC "-//W3C//DTD SVG 1.1//EN"
 "http://www.w3.org/Graphics/SVG/1.1/DTD/svg11.dtd">
<!-- Generated by graphviz version 2.40.1 (20161225.0304)
 -->
<!-- Title: NewEplsar Pages: 1 -->
<svg width="1142pt" height="563pt"
 viewBox="0.00 0.00 1142.24 562.81" xmlns="http://www.w3.org/2000/svg" xmlns:xlink="http://www.w3.org/1999/xlink">
<g id="graph0" class="graph" transform="scale(1 1) rotate(0) translate(4 558.8133)">
<title>NewEplsar</title>
<polygon fill="#ffffff" stroke="transparent" points="-4,4 -4,-558.8133 1138.2412,-558.8133 1138.2412,4 -4,4"/>
<g id="clust1" class="cluster">
<title>cluster11</title>
<path fill="none" stroke="#000000" d="M195.9741,-232.9066C195.9741,-232.9066 555.9741,-232.9066 555.9741,-232.9066 561.9741,-232.9066 567.9741,-238.9066 567.9741,-244.9066 567.9741,-244.9066 567.9741,-534.8133 567.9741,-534.8133 567.9741,-540.8133 561.9741,-546.8133 555.9741,-546.8133 555.9741,-546.8133 195.9741,-546.8133 195.9741,-546.8133 189.9741,-546.8133 183.9741,-540.8133 183.9741,-534.8133 183.9741,-534.8133 183.9741,-244.9066 183.9741,-244.9066 183.9741,-238.9066 189.9741,-232.9066 195.9741,-232.9066"/>
<text text-anchor="middle" x="552.9741" y="-240.7066" font-family="Times,serif" font-size="14.00" fill="#000000">11</text>
</g>
<g id="clust2" class="cluster">
<title>cluster115</title>
<path fill="none" stroke="#000000" d="M381.9741,-8C381.9741,-8 501.9741,-8 501.9741,-8 507.9741,-8 513.9741,-14 513.9741,-20 513.9741,-20 513.9741,-209.93 513.9741,-209.93 513.9741,-215.93 507.9741,-221.93 501.9741,-221.93 501.9741,-221.93 381.9741,-221.93 381.9741,-221.93 375.9741,-221.93 369.9741,-215.93 369.9741,-209.93 369.9741,-209.93 369.9741,-20 369.9741,-20 369.9741,-14 375.9741,-8 381.9741,-8"/>
<text text-anchor="middle" x="495.4741" y="-15.8" font-family="Times,serif" font-size="14.00" fill="#000000">115</text>
</g>
<!-- NewEplsar_b2_dist -->
<g id="node1" class="node">
<title>NewEplsar_b2_dist</title>
<ellipse fill="none" stroke="#000000" cx="86.9741" cy="-390.3833" rx="86.9483" ry="37.4533"/>
<text text-anchor="middle" x="86.9741" y="-401.6833" font-family="Times,serif" font-size="14.00" fill="#000000">NewEplsar_b2_dist</text>
<text text-anchor="middle" x="86.9741" y="-386.6833" font-family="Times,serif" font-size="14.00" fill="#000000">~</text>
<text text-anchor="middle" x="86.9741" y="-371.6833" font-family="Times,serif" font-size="14.00" fill="#000000">Gumbel</text>
</g>
<!-- NewEplsar_b2 -->
<g id="node11" class="node">
<title>NewEplsar_b2</title>
<polygon fill="none" stroke="#000000" points="383.4741,-316.9066 286.4741,-316.9066 286.4741,-263.9066 383.4741,-263.9066 383.4741,-316.9066"/>
<text text-anchor="middle" x="334.9741" y="-301.7066" font-family="Times,serif" font-size="14.00" fill="#000000">NewEplsar_b2</text>
<text text-anchor="middle" x="334.9741" y="-286.7066" font-family="Times,serif" font-size="14.00" fill="#000000">~</text>
<text text-anchor="middle" x="334.9741" y="-271.7066" font-family="Times,serif" font-size="14.00" fill="#000000">Deterministic</text>
</g>
<!-- NewEplsar_b2_dist&#45;&gt;NewEplsar_b2 -->
<g id="edge6" class="edge">
<title>NewEplsar_b2_dist&#45;&gt;NewEplsar_b2</title>
<path fill="none" stroke="#000000" d="M150.5183,-364.7666C189.5472,-349.0328 239.1554,-329.0342 277.0932,-313.7403"/>
<polygon fill="#000000" stroke="#000000" points="278.5073,-316.944 286.4734,-309.9588 275.89,-310.4517 278.5073,-316.944"/>
</g>
<!-- NewEplsar_sigmaY -->
<g id="node2" class="node">
<title>NewEplsar_sigmaY</title>
<ellipse fill="none" stroke="#000000" cx="610.9741" cy="-187.43" rx="89.191" ry="37.4533"/>
<text text-anchor="middle" x="610.9741" y="-198.73" font-family="Times,serif" font-size="14.00" fill="#000000">NewEplsar_sigmaY</text>
<text text-anchor="middle" x="610.9741" y="-183.73" font-family="Times,serif" font-size="14.00" fill="#000000">~</text>
<text text-anchor="middle" x="610.9741" y="-168.73" font-family="Times,serif" font-size="14.00" fill="#000000">Gamma</text>
</g>
<!-- NewEplsar_y -->
<g id="node13" class="node">
<title>NewEplsar_y</title>
<ellipse fill="#d3d3d3" stroke="#000000" cx="441.9741" cy="-76.4767" rx="63.7795" ry="37.4533"/>
<text text-anchor="middle" x="441.9741" y="-87.7767" font-family="Times,serif" font-size="14.00" fill="#000000">NewEplsar_y</text>
<text text-anchor="middle" x="441.9741" y="-72.7767" font-family="Times,serif" font-size="14.00" fill="#000000">~</text>
<text text-anchor="middle" x="441.9741" y="-57.7767" font-family="Times,serif" font-size="14.00" fill="#000000">StudentT</text>
</g>
<!-- NewEplsar_sigmaY&#45;&gt;NewEplsar_y -->
<g id="edge10" class="edge">
<title>NewEplsar_sigmaY&#45;&gt;NewEplsar_y</title>
<path fill="none" stroke="#000000" d="M562.5455,-155.6352C540.8465,-141.3892 515.2406,-124.5782 493.2198,-110.1209"/>
<polygon fill="#000000" stroke="#000000" points="494.9378,-107.0619 484.6575,-104.4995 491.096,-112.9135 494.9378,-107.0619"/>
</g>
<!-- NewEplsar_nuY -->
<g id="node3" class="node">
<title>NewEplsar_nuY</title>
<ellipse fill="none" stroke="#000000" cx="793.9741" cy="-187.43" rx="75.8212" ry="37.4533"/>
<text text-anchor="middle" x="793.9741" y="-198.73" font-family="Times,serif" font-size="14.00" fill="#000000">NewEplsar_nuY</text>
<text text-anchor="middle" x="793.9741" y="-183.73" font-family="Times,serif" font-size="14.00" fill="#000000">~</text>
<text text-anchor="middle" x="793.9741" y="-168.73" font-family="Times,serif" font-size="14.00" fill="#000000">Exponential</text>
</g>
<!-- NewEplsar_nuY&#45;&gt;NewEplsar_y -->
<g id="edge12" class="edge">
<title>NewEplsar_nuY&#45;&gt;NewEplsar_y</title>
<path fill="none" stroke="#000000" d="M738.665,-161.6489C728.873,-157.4866 718.6984,-153.414 708.9741,-149.9533 642.9878,-126.4701 565.6373,-105.9192 511.2259,-92.5682"/>
<polygon fill="#000000" stroke="#000000" points="511.8852,-89.1265 501.3409,-90.1599 510.2283,-95.9276 511.8852,-89.1265"/>
</g>
<!-- NewEplsar_b0_dist -->
<g id="node4" class="node">
<title>NewEplsar_b0_dist</title>
<ellipse fill="none" stroke="#000000" cx="664.9741" cy="-390.3833" rx="86.9483" ry="37.4533"/>
<text text-anchor="middle" x="664.9741" y="-401.6833" font-family="Times,serif" font-size="14.00" fill="#000000">NewEplsar_b0_dist</text>
<text text-anchor="middle" x="664.9741" y="-386.6833" font-family="Times,serif" font-size="14.00" fill="#000000">~</text>
<text text-anchor="middle" x="664.9741" y="-371.6833" font-family="Times,serif" font-size="14.00" fill="#000000">Normal</text>
</g>
<!-- NewEplsar_b0 -->
<g id="node6" class="node">
<title>NewEplsar_b0</title>
<polygon fill="none" stroke="#000000" points="809.4741,-316.9066 712.4741,-316.9066 712.4741,-263.9066 809.4741,-263.9066 809.4741,-316.9066"/>
<text text-anchor="middle" x="760.9741" y="-301.7066" font-family="Times,serif" font-size="14.00" fill="#000000">NewEplsar_b0</text>
<text text-anchor="middle" x="760.9741" y="-286.7066" font-family="Times,serif" font-size="14.00" fill="#000000">~</text>
<text text-anchor="middle" x="760.9741" y="-271.7066" font-family="Times,serif" font-size="14.00" fill="#000000">Deterministic</text>
</g>
<!-- NewEplsar_b0_dist&#45;&gt;NewEplsar_b0 -->
<g id="edge2" class="edge">
<title>NewEplsar_b0_dist&#45;&gt;NewEplsar_b0</title>
<path fill="none" stroke="#000000" d="M698.2809,-355.6969C707.9474,-345.6299 718.4939,-334.6466 728.1318,-324.6094"/>
<polygon fill="#000000" stroke="#000000" points="730.8936,-326.7865 735.2952,-317.1493 725.8444,-321.9382 730.8936,-326.7865"/>
</g>
<!-- NewEplsar_sigma0 -->
<g id="node5" class="node">
<title>NewEplsar_sigma0</title>
<ellipse fill="none" stroke="#000000" cx="856.9741" cy="-390.3833" rx="86.9483" ry="37.4533"/>
<text text-anchor="middle" x="856.9741" y="-401.6833" font-family="Times,serif" font-size="14.00" fill="#000000">NewEplsar_sigma0</text>
<text text-anchor="middle" x="856.9741" y="-386.6833" font-family="Times,serif" font-size="14.00" fill="#000000">~</text>
<text text-anchor="middle" x="856.9741" y="-371.6833" font-family="Times,serif" font-size="14.00" fill="#000000">HalfNormal</text>
</g>
<!-- NewEplsar_sigma0&#45;&gt;NewEplsar_b0 -->
<g id="edge1" class="edge">
<title>NewEplsar_sigma0&#45;&gt;NewEplsar_b0</title>
<path fill="none" stroke="#000000" d="M823.6674,-355.6969C814.0008,-345.6299 803.4544,-334.6466 793.8165,-324.6094"/>
<polygon fill="#000000" stroke="#000000" points="796.1038,-321.9382 786.6531,-317.1493 791.0547,-326.7865 796.1038,-321.9382"/>
</g>
<!-- NewEplsar_mu -->
<g id="node12" class="node">
<title>NewEplsar_mu</title>
<polygon fill="none" stroke="#000000" points="492.4741,-213.93 391.4741,-213.93 391.4741,-160.93 492.4741,-160.93 492.4741,-213.93"/>
<text text-anchor="middle" x="441.9741" y="-198.73" font-family="Times,serif" font-size="14.00" fill="#000000">NewEplsar_mu</text>
<text text-anchor="middle" x="441.9741" y="-183.73" font-family="Times,serif" font-size="14.00" fill="#000000">~</text>
<text text-anchor="middle" x="441.9741" y="-168.73" font-family="Times,serif" font-size="14.00" fill="#000000">Deterministic</text>
</g>
<!-- NewEplsar_b0&#45;&gt;NewEplsar_mu -->
<g id="edge9" class="edge">
<title>NewEplsar_b0&#45;&gt;NewEplsar_mu</title>
<path fill="none" stroke="#000000" d="M712.2003,-273.2038C674.3677,-260.4393 620.3923,-243.4827 571.9741,-232.9066 546.1215,-227.2596 538.1732,-232.9847 512.9741,-224.9066 507.3622,-223.1076 501.6673,-220.8806 496.0698,-218.4159"/>
<polygon fill="#000000" stroke="#000000" points="497.3156,-215.135 486.7737,-214.0775 494.3552,-221.4782 497.3156,-215.135"/>
</g>
<!-- NewEplsar_mu_b0 -->
<g id="node7" class="node">
<title>NewEplsar_mu_b0</title>
<ellipse fill="none" stroke="#000000" cx="1047.9741" cy="-390.3833" rx="86.0347" ry="37.4533"/>
<text text-anchor="middle" x="1047.9741" y="-401.6833" font-family="Times,serif" font-size="14.00" fill="#000000">NewEplsar_mu_b0</text>
<text text-anchor="middle" x="1047.9741" y="-386.6833" font-family="Times,serif" font-size="14.00" fill="#000000">~</text>
<text text-anchor="middle" x="1047.9741" y="-371.6833" font-family="Times,serif" font-size="14.00" fill="#000000">Normal</text>
</g>
<!-- NewEplsar_mu_b0&#45;&gt;NewEplsar_b0 -->
<g id="edge3" class="edge">
<title>NewEplsar_mu_b0&#45;&gt;NewEplsar_b0</title>
<path fill="none" stroke="#000000" d="M984.8128,-364.8454C974.224,-360.7429 963.3182,-356.6266 952.9741,-352.9066 908.6129,-336.9531 857.8746,-320.5134 819.7013,-308.5008"/>
<polygon fill="#000000" stroke="#000000" points="820.3713,-305.0429 809.7822,-305.39 818.2765,-311.7222 820.3713,-305.0429"/>
</g>
<!-- NewEplsar_mu_b2 -->
<g id="node8" class="node">
<title>NewEplsar_mu_b2</title>
<ellipse fill="none" stroke="#000000" cx="473.9741" cy="-390.3833" rx="86.0347" ry="37.4533"/>
<text text-anchor="middle" x="473.9741" y="-401.6833" font-family="Times,serif" font-size="14.00" fill="#000000">NewEplsar_mu_b2</text>
<text text-anchor="middle" x="473.9741" y="-386.6833" font-family="Times,serif" font-size="14.00" fill="#000000">~</text>
<text text-anchor="middle" x="473.9741" y="-371.6833" font-family="Times,serif" font-size="14.00" fill="#000000">Normal</text>
</g>
<!-- NewEplsar_mu_b2&#45;&gt;NewEplsar_b2 -->
<g id="edge5" class="edge">
<title>NewEplsar_mu_b2&#45;&gt;NewEplsar_b2</title>
<path fill="none" stroke="#000000" d="M429.2285,-358.1997C413.6931,-347.0258 396.2595,-334.4865 380.65,-323.2593"/>
<polygon fill="#000000" stroke="#000000" points="382.3512,-320.1716 372.1893,-317.1739 378.2639,-325.8544 382.3512,-320.1716"/>
</g>
<!-- NewEplsar_sigma2 -->
<g id="node9" class="node">
<title>NewEplsar_sigma2</title>
<ellipse fill="none" stroke="#000000" cx="280.9741" cy="-501.3366" rx="86.9483" ry="37.4533"/>
<text text-anchor="middle" x="280.9741" y="-512.6366" font-family="Times,serif" font-size="14.00" fill="#000000">NewEplsar_sigma2</text>
<text text-anchor="middle" x="280.9741" y="-497.6366" font-family="Times,serif" font-size="14.00" fill="#000000">~</text>
<text text-anchor="middle" x="280.9741" y="-482.6366" font-family="Times,serif" font-size="14.00" fill="#000000">HalfNormal</text>
</g>
<!-- NewEplsar_b2_beta -->
<g id="node10" class="node">
<title>NewEplsar_b2_beta</title>
<ellipse fill="none" stroke="#000000" cx="280.9741" cy="-390.3833" rx="89.191" ry="37.4533"/>
<text text-anchor="middle" x="280.9741" y="-401.6833" font-family="Times,serif" font-size="14.00" fill="#000000">NewEplsar_b2_beta</text>
<text text-anchor="middle" x="280.9741" y="-386.6833" font-family="Times,serif" font-size="14.00" fill="#000000">~</text>
<text text-anchor="middle" x="280.9741" y="-371.6833" font-family="Times,serif" font-size="14.00" fill="#000000">HalfNormal</text>
</g>
<!-- NewEplsar_sigma2&#45;&gt;NewEplsar_b2_beta -->
<g id="edge4" class="edge">
<title>NewEplsar_sigma2&#45;&gt;NewEplsar_b2_beta</title>
<path fill="none" stroke="#000000" d="M280.9741,-463.7729C280.9741,-455.549 280.9741,-446.7367 280.9741,-438.1736"/>
<polygon fill="#000000" stroke="#000000" points="284.4742,-437.9083 280.9741,-427.9083 277.4742,-437.9084 284.4742,-437.9083"/>
</g>
<!-- NewEplsar_b2_beta&#45;&gt;NewEplsar_b2 -->
<g id="edge7" class="edge">
<title>NewEplsar_b2_beta&#45;&gt;NewEplsar_b2</title>
<path fill="none" stroke="#000000" d="M300.7751,-353.7234C305.6453,-344.7066 310.8526,-335.0656 315.6977,-326.0955"/>
<polygon fill="#000000" stroke="#000000" points="318.9134,-327.5066 320.5862,-317.0447 312.7543,-324.1799 318.9134,-327.5066"/>
</g>
<!-- NewEplsar_b2&#45;&gt;NewEplsar_mu -->
<g id="edge8" class="edge">
<title>NewEplsar_b2&#45;&gt;NewEplsar_mu</title>
<path fill="none" stroke="#000000" d="M362.5293,-263.8876C376.028,-250.8965 392.4342,-235.1071 406.8249,-221.2576"/>
<polygon fill="#000000" stroke="#000000" points="409.3622,-223.6732 414.1405,-214.2171 404.5082,-218.6296 409.3622,-223.6732"/>
</g>
<!-- NewEplsar_mu&#45;&gt;NewEplsar_y -->
<g id="edge11" class="edge">
<title>NewEplsar_mu&#45;&gt;NewEplsar_y</title>
<path fill="none" stroke="#000000" d="M441.9741,-160.8539C441.9741,-149.9351 441.9741,-136.944 441.9741,-124.4675"/>
<polygon fill="#000000" stroke="#000000" points="445.4742,-124.1649 441.9741,-114.165 438.4742,-124.165 445.4742,-124.1649"/>
</g>
</g>
</svg>
