<?xml version="1.0" encoding="UTF-8" standalone="no"?>
<!DOCTYPE svg PUBLIC "-//W3C//DTD SVG 1.1//EN"
 "http://www.w3.org/Graphics/SVG/1.1/DTD/svg11.dtd">
<!-- Generated by graphviz version 2.40.1 (20161225.0304)
 -->
<!-- Title: NewEplsar Pages: 1 -->
<svg width="1158pt" height="563pt"
 viewBox="0.00 0.00 1157.97 562.81" xmlns="http://www.w3.org/2000/svg" xmlns:xlink="http://www.w3.org/1999/xlink">
<g id="graph0" class="graph" transform="scale(1 1) rotate(0) translate(4 558.8133)">
<title>NewEplsar</title>
<polygon fill="#ffffff" stroke="transparent" points="-4,4 -4,-558.8133 1153.9741,-558.8133 1153.9741,4 -4,4"/>
<g id="clust1" class="cluster">
<title>cluster11</title>
<path fill="none" stroke="#000000" d="M20,-232.9066C20,-232.9066 380,-232.9066 380,-232.9066 386,-232.9066 392,-238.9066 392,-244.9066 392,-244.9066 392,-534.8133 392,-534.8133 392,-540.8133 386,-546.8133 380,-546.8133 380,-546.8133 20,-546.8133 20,-546.8133 14,-546.8133 8,-540.8133 8,-534.8133 8,-534.8133 8,-244.9066 8,-244.9066 8,-238.9066 14,-232.9066 20,-232.9066"/>
<text text-anchor="middle" x="377" y="-240.7066" font-family="Times,serif" font-size="14.00" fill="#000000">11</text>
</g>
<g id="clust2" class="cluster">
<title>cluster115</title>
<path fill="none" stroke="#000000" d="M254,-8C254,-8 374,-8 374,-8 380,-8 386,-14 386,-20 386,-20 386,-209.93 386,-209.93 386,-215.93 380,-221.93 374,-221.93 374,-221.93 254,-221.93 254,-221.93 248,-221.93 242,-215.93 242,-209.93 242,-209.93 242,-20 242,-20 242,-14 248,-8 254,-8"/>
<text text-anchor="middle" x="367.5" y="-15.8" font-family="Times,serif" font-size="14.00" fill="#000000">115</text>
</g>
<!-- NewEplsar_b0 -->
<g id="node1" class="node">
<title>NewEplsar_b0</title>
<polygon fill="none" stroke="#000000" points="824.5,-316.9066 727.5,-316.9066 727.5,-263.9066 824.5,-263.9066 824.5,-316.9066"/>
<text text-anchor="middle" x="776" y="-301.7066" font-family="Times,serif" font-size="14.00" fill="#000000">NewEplsar_b0</text>
<text text-anchor="middle" x="776" y="-286.7066" font-family="Times,serif" font-size="14.00" fill="#000000">~</text>
<text text-anchor="middle" x="776" y="-271.7066" font-family="Times,serif" font-size="14.00" fill="#000000">Deterministic</text>
</g>
<!-- NewEplsar_mu -->
<g id="node13" class="node">
<title>NewEplsar_mu</title>
<polygon fill="none" stroke="#000000" points="364.5,-213.93 263.5,-213.93 263.5,-160.93 364.5,-160.93 364.5,-213.93"/>
<text text-anchor="middle" x="314" y="-198.73" font-family="Times,serif" font-size="14.00" fill="#000000">NewEplsar_mu</text>
<text text-anchor="middle" x="314" y="-183.73" font-family="Times,serif" font-size="14.00" fill="#000000">~</text>
<text text-anchor="middle" x="314" y="-168.73" font-family="Times,serif" font-size="14.00" fill="#000000">Deterministic</text>
</g>
<!-- NewEplsar_b0&#45;&gt;NewEplsar_mu -->
<g id="edge8" class="edge">
<title>NewEplsar_b0&#45;&gt;NewEplsar_mu</title>
<path fill="none" stroke="#000000" d="M727.2437,-287.2521C652.0445,-281.2821 504.002,-265.1134 385,-224.9066 379.5014,-223.0489 373.9131,-220.8039 368.4098,-218.3468"/>
<polygon fill="#000000" stroke="#000000" points="369.7977,-215.1319 359.259,-214.0425 366.8182,-221.4661 369.7977,-215.1319"/>
</g>
<!-- NewEplsar_b2_dist -->
<g id="node2" class="node">
<title>NewEplsar_b2_dist</title>
<ellipse fill="none" stroke="#000000" cx="489" cy="-390.3833" rx="86.9483" ry="37.4533"/>
<text text-anchor="middle" x="489" y="-401.6833" font-family="Times,serif" font-size="14.00" fill="#000000">NewEplsar_b2_dist</text>
<text text-anchor="middle" x="489" y="-386.6833" font-family="Times,serif" font-size="14.00" fill="#000000">~</text>
<text text-anchor="middle" x="489" y="-371.6833" font-family="Times,serif" font-size="14.00" fill="#000000">Gumbel</text>
</g>
<!-- NewEplsar_b2 -->
<g id="node9" class="node">
<title>NewEplsar_b2</title>
<polygon fill="none" stroke="#000000" points="351.5,-316.9066 254.5,-316.9066 254.5,-263.9066 351.5,-263.9066 351.5,-316.9066"/>
<text text-anchor="middle" x="303" y="-301.7066" font-family="Times,serif" font-size="14.00" fill="#000000">NewEplsar_b2</text>
<text text-anchor="middle" x="303" y="-286.7066" font-family="Times,serif" font-size="14.00" fill="#000000">~</text>
<text text-anchor="middle" x="303" y="-271.7066" font-family="Times,serif" font-size="14.00" fill="#000000">Deterministic</text>
</g>
<!-- NewEplsar_b2_dist&#45;&gt;NewEplsar_b2 -->
<g id="edge6" class="edge">
<title>NewEplsar_b2_dist&#45;&gt;NewEplsar_b2</title>
<path fill="none" stroke="#000000" d="M434.4506,-361.0625C411.1632,-348.5453 383.9718,-333.9297 360.382,-321.25"/>
<polygon fill="#000000" stroke="#000000" points="361.9983,-318.1452 351.533,-316.4935 358.6841,-324.311 361.9983,-318.1452"/>
</g>
<!-- NewEplsar_b0_dist -->
<g id="node3" class="node">
<title>NewEplsar_b0_dist</title>
<ellipse fill="none" stroke="#000000" cx="681" cy="-390.3833" rx="86.9483" ry="37.4533"/>
<text text-anchor="middle" x="681" y="-401.6833" font-family="Times,serif" font-size="14.00" fill="#000000">NewEplsar_b0_dist</text>
<text text-anchor="middle" x="681" y="-386.6833" font-family="Times,serif" font-size="14.00" fill="#000000">~</text>
<text text-anchor="middle" x="681" y="-371.6833" font-family="Times,serif" font-size="14.00" fill="#000000">Normal</text>
</g>
<!-- NewEplsar_b0_dist&#45;&gt;NewEplsar_b0 -->
<g id="edge3" class="edge">
<title>NewEplsar_b0_dist&#45;&gt;NewEplsar_b0</title>
<path fill="none" stroke="#000000" d="M713.9598,-355.6969C723.5257,-345.6299 733.9622,-334.6466 743.4997,-324.6094"/>
<polygon fill="#000000" stroke="#000000" points="746.2374,-326.8094 750.5886,-317.1493 741.163,-321.9876 746.2374,-326.8094"/>
</g>
<!-- NewEplsar_nuY -->
<g id="node4" class="node">
<title>NewEplsar_nuY</title>
<ellipse fill="none" stroke="#000000" cx="158" cy="-187.43" rx="75.8212" ry="37.4533"/>
<text text-anchor="middle" x="158" y="-198.73" font-family="Times,serif" font-size="14.00" fill="#000000">NewEplsar_nuY</text>
<text text-anchor="middle" x="158" y="-183.73" font-family="Times,serif" font-size="14.00" fill="#000000">~</text>
<text text-anchor="middle" x="158" y="-168.73" font-family="Times,serif" font-size="14.00" fill="#000000">Exponential</text>
</g>
<!-- NewEplsar_y -->
<g id="node12" class="node">
<title>NewEplsar_y</title>
<ellipse fill="#d3d3d3" stroke="#000000" cx="314" cy="-76.4767" rx="63.7795" ry="37.4533"/>
<text text-anchor="middle" x="314" y="-87.7767" font-family="Times,serif" font-size="14.00" fill="#000000">NewEplsar_y</text>
<text text-anchor="middle" x="314" y="-72.7767" font-family="Times,serif" font-size="14.00" fill="#000000">~</text>
<text text-anchor="middle" x="314" y="-57.7767" font-family="Times,serif" font-size="14.00" fill="#000000">StudentT</text>
</g>
<!-- NewEplsar_nuY&#45;&gt;NewEplsar_y -->
<g id="edge11" class="edge">
<title>NewEplsar_nuY&#45;&gt;NewEplsar_y</title>
<path fill="none" stroke="#000000" d="M201.4547,-156.5233C221.1848,-142.4905 244.6104,-125.8292 264.9677,-111.3504"/>
<polygon fill="#000000" stroke="#000000" points="267.0691,-114.1508 273.1896,-105.5026 263.0119,-108.4464 267.0691,-114.1508"/>
</g>
<!-- NewEplsar_mu_b0 -->
<g id="node5" class="node">
<title>NewEplsar_mu_b0</title>
<ellipse fill="none" stroke="#000000" cx="872" cy="-390.3833" rx="86.0347" ry="37.4533"/>
<text text-anchor="middle" x="872" y="-401.6833" font-family="Times,serif" font-size="14.00" fill="#000000">NewEplsar_mu_b0</text>
<text text-anchor="middle" x="872" y="-386.6833" font-family="Times,serif" font-size="14.00" fill="#000000">~</text>
<text text-anchor="middle" x="872" y="-371.6833" font-family="Times,serif" font-size="14.00" fill="#000000">Normal</text>
</g>
<!-- NewEplsar_mu_b0&#45;&gt;NewEplsar_b0 -->
<g id="edge1" class="edge">
<title>NewEplsar_mu_b0&#45;&gt;NewEplsar_b0</title>
<path fill="none" stroke="#000000" d="M838.6933,-355.6969C829.0267,-345.6299 818.4803,-334.6466 808.8424,-324.6094"/>
<polygon fill="#000000" stroke="#000000" points="811.1297,-321.9382 801.6789,-317.1493 806.0805,-326.7865 811.1297,-321.9382"/>
</g>
<!-- NewEplsar_sigma0 -->
<g id="node6" class="node">
<title>NewEplsar_sigma0</title>
<ellipse fill="none" stroke="#000000" cx="1063" cy="-390.3833" rx="86.9483" ry="37.4533"/>
<text text-anchor="middle" x="1063" y="-401.6833" font-family="Times,serif" font-size="14.00" fill="#000000">NewEplsar_sigma0</text>
<text text-anchor="middle" x="1063" y="-386.6833" font-family="Times,serif" font-size="14.00" fill="#000000">~</text>
<text text-anchor="middle" x="1063" y="-371.6833" font-family="Times,serif" font-size="14.00" fill="#000000">HalfNormal</text>
</g>
<!-- NewEplsar_sigma0&#45;&gt;NewEplsar_b0 -->
<g id="edge2" class="edge">
<title>NewEplsar_sigma0&#45;&gt;NewEplsar_b0</title>
<path fill="none" stroke="#000000" d="M999.1552,-364.8857C988.4572,-360.7784 977.4421,-356.65 967,-352.9066 922.8316,-337.0728 872.3595,-320.627 834.3955,-308.5818"/>
<polygon fill="#000000" stroke="#000000" points="835.1209,-305.1404 824.531,-305.4616 833.0099,-311.8145 835.1209,-305.1404"/>
</g>
<!-- NewEplsar_sigmaY -->
<g id="node7" class="node">
<title>NewEplsar_sigmaY</title>
<ellipse fill="none" stroke="#000000" cx="483" cy="-187.43" rx="89.191" ry="37.4533"/>
<text text-anchor="middle" x="483" y="-198.73" font-family="Times,serif" font-size="14.00" fill="#000000">NewEplsar_sigmaY</text>
<text text-anchor="middle" x="483" y="-183.73" font-family="Times,serif" font-size="14.00" fill="#000000">~</text>
<text text-anchor="middle" x="483" y="-168.73" font-family="Times,serif" font-size="14.00" fill="#000000">Gamma</text>
</g>
<!-- NewEplsar_sigmaY&#45;&gt;NewEplsar_y -->
<g id="edge12" class="edge">
<title>NewEplsar_sigmaY&#45;&gt;NewEplsar_y</title>
<path fill="none" stroke="#000000" d="M434.5714,-155.6352C412.8723,-141.3892 387.2665,-124.5782 365.2457,-110.1209"/>
<polygon fill="#000000" stroke="#000000" points="366.9637,-107.0619 356.6834,-104.4995 363.1219,-112.9135 366.9637,-107.0619"/>
</g>
<!-- NewEplsar_mu_b2 -->
<g id="node8" class="node">
<title>NewEplsar_mu_b2</title>
<ellipse fill="none" stroke="#000000" cx="298" cy="-390.3833" rx="86.0347" ry="37.4533"/>
<text text-anchor="middle" x="298" y="-401.6833" font-family="Times,serif" font-size="14.00" fill="#000000">NewEplsar_mu_b2</text>
<text text-anchor="middle" x="298" y="-386.6833" font-family="Times,serif" font-size="14.00" fill="#000000">~</text>
<text text-anchor="middle" x="298" y="-371.6833" font-family="Times,serif" font-size="14.00" fill="#000000">Normal</text>
</g>
<!-- NewEplsar_mu_b2&#45;&gt;NewEplsar_b2 -->
<g id="edge5" class="edge">
<title>NewEplsar_mu_b2&#45;&gt;NewEplsar_b2</title>
<path fill="none" stroke="#000000" d="M299.876,-352.8712C300.293,-344.5341 300.7347,-335.7023 301.1506,-327.3867"/>
<polygon fill="#000000" stroke="#000000" points="304.6558,-327.3681 301.6597,-317.2057 297.6645,-327.0184 304.6558,-327.3681"/>
</g>
<!-- NewEplsar_b2&#45;&gt;NewEplsar_mu -->
<g id="edge9" class="edge">
<title>NewEplsar_b2&#45;&gt;NewEplsar_mu</title>
<path fill="none" stroke="#000000" d="M305.8328,-263.8876C307.1186,-251.8499 308.6611,-237.4098 310.0576,-224.3365"/>
<polygon fill="#000000" stroke="#000000" points="313.5565,-224.5323 311.1386,-214.2171 306.5961,-223.7887 313.5565,-224.5323"/>
</g>
<!-- NewEplsar_sigma2 -->
<g id="node10" class="node">
<title>NewEplsar_sigma2</title>
<ellipse fill="none" stroke="#000000" cx="105" cy="-501.3366" rx="86.9483" ry="37.4533"/>
<text text-anchor="middle" x="105" y="-512.6366" font-family="Times,serif" font-size="14.00" fill="#000000">NewEplsar_sigma2</text>
<text text-anchor="middle" x="105" y="-497.6366" font-family="Times,serif" font-size="14.00" fill="#000000">~</text>
<text text-anchor="middle" x="105" y="-482.6366" font-family="Times,serif" font-size="14.00" fill="#000000">HalfNormal</text>
</g>
<!-- NewEplsar_b2_beta -->
<g id="node11" class="node">
<title>NewEplsar_b2_beta</title>
<ellipse fill="none" stroke="#000000" cx="105" cy="-390.3833" rx="89.191" ry="37.4533"/>
<text text-anchor="middle" x="105" y="-401.6833" font-family="Times,serif" font-size="14.00" fill="#000000">NewEplsar_b2_beta</text>
<text text-anchor="middle" x="105" y="-386.6833" font-family="Times,serif" font-size="14.00" fill="#000000">~</text>
<text text-anchor="middle" x="105" y="-371.6833" font-family="Times,serif" font-size="14.00" fill="#000000">HalfNormal</text>
</g>
<!-- NewEplsar_sigma2&#45;&gt;NewEplsar_b2_beta -->
<g id="edge4" class="edge">
<title>NewEplsar_sigma2&#45;&gt;NewEplsar_b2_beta</title>
<path fill="none" stroke="#000000" d="M105,-463.7729C105,-455.549 105,-446.7367 105,-438.1736"/>
<polygon fill="#000000" stroke="#000000" points="108.5001,-437.9083 105,-427.9083 101.5001,-437.9084 108.5001,-437.9083"/>
</g>
<!-- NewEplsar_b2_beta&#45;&gt;NewEplsar_b2 -->
<g id="edge7" class="edge">
<title>NewEplsar_b2_beta&#45;&gt;NewEplsar_b2</title>
<path fill="none" stroke="#000000" d="M162.2698,-361.4659C188.3224,-348.3111 219.0942,-332.7734 245.2092,-319.5871"/>
<polygon fill="#000000" stroke="#000000" points="246.8878,-322.6605 254.2368,-315.0288 243.7326,-316.4118 246.8878,-322.6605"/>
</g>
<!-- NewEplsar_mu&#45;&gt;NewEplsar_y -->
<g id="edge10" class="edge">
<title>NewEplsar_mu&#45;&gt;NewEplsar_y</title>
<path fill="none" stroke="#000000" d="M314,-160.8539C314,-149.9351 314,-136.944 314,-124.4675"/>
<polygon fill="#000000" stroke="#000000" points="317.5001,-124.1649 314,-114.165 310.5001,-124.165 317.5001,-124.1649"/>
</g>
</g>
</svg>
