<?xml version="1.0" encoding="UTF-8" standalone="no"?>
<!DOCTYPE svg PUBLIC "-//W3C//DTD SVG 1.1//EN"
 "http://www.w3.org/Graphics/SVG/1.1/DTD/svg11.dtd">
<!-- Generated by graphviz version 2.40.1 (20161225.0304)
 -->
<!-- Title: NewEplsar Pages: 1 -->
<svg width="1142pt" height="563pt"
 viewBox="0.00 0.00 1142.24 562.81" xmlns="http://www.w3.org/2000/svg" xmlns:xlink="http://www.w3.org/1999/xlink">
<g id="graph0" class="graph" transform="scale(1 1) rotate(0) translate(4 558.8133)">
<title>NewEplsar</title>
<polygon fill="#ffffff" stroke="transparent" points="-4,4 -4,-558.8133 1138.2412,-558.8133 1138.2412,4 -4,4"/>
<g id="clust1" class="cluster">
<title>cluster11</title>
<path fill="none" stroke="#000000" d="M578.267,-232.9066C578.267,-232.9066 938.267,-232.9066 938.267,-232.9066 944.267,-232.9066 950.267,-238.9066 950.267,-244.9066 950.267,-244.9066 950.267,-534.8133 950.267,-534.8133 950.267,-540.8133 944.267,-546.8133 938.267,-546.8133 938.267,-546.8133 578.267,-546.8133 578.267,-546.8133 572.267,-546.8133 566.267,-540.8133 566.267,-534.8133 566.267,-534.8133 566.267,-244.9066 566.267,-244.9066 566.267,-238.9066 572.267,-232.9066 578.267,-232.9066"/>
<text text-anchor="middle" x="935.267" y="-240.7066" font-family="Times,serif" font-size="14.00" fill="#000000">11</text>
</g>
<g id="clust2" class="cluster">
<title>cluster115</title>
<path fill="none" stroke="#000000" d="M445.267,-8C445.267,-8 565.267,-8 565.267,-8 571.267,-8 577.267,-14 577.267,-20 577.267,-20 577.267,-209.93 577.267,-209.93 577.267,-215.93 571.267,-221.93 565.267,-221.93 565.267,-221.93 445.267,-221.93 445.267,-221.93 439.267,-221.93 433.267,-215.93 433.267,-209.93 433.267,-209.93 433.267,-20 433.267,-20 433.267,-14 439.267,-8 445.267,-8"/>
<text text-anchor="middle" x="558.767" y="-15.8" font-family="Times,serif" font-size="14.00" fill="#000000">115</text>
</g>
<!-- NewEplsar_sigmaY -->
<g id="node1" class="node">
<title>NewEplsar_sigmaY</title>
<ellipse fill="none" stroke="#000000" cx="336.267" cy="-187.43" rx="89.191" ry="37.4533"/>
<text text-anchor="middle" x="336.267" y="-198.73" font-family="Times,serif" font-size="14.00" fill="#000000">NewEplsar_sigmaY</text>
<text text-anchor="middle" x="336.267" y="-183.73" font-family="Times,serif" font-size="14.00" fill="#000000">~</text>
<text text-anchor="middle" x="336.267" y="-168.73" font-family="Times,serif" font-size="14.00" fill="#000000">Gamma</text>
</g>
<!-- NewEplsar_y -->
<g id="node13" class="node">
<title>NewEplsar_y</title>
<ellipse fill="#d3d3d3" stroke="#000000" cx="505.267" cy="-76.4767" rx="63.7795" ry="37.4533"/>
<text text-anchor="middle" x="505.267" y="-87.7767" font-family="Times,serif" font-size="14.00" fill="#000000">NewEplsar_y</text>
<text text-anchor="middle" x="505.267" y="-72.7767" font-family="Times,serif" font-size="14.00" fill="#000000">~</text>
<text text-anchor="middle" x="505.267" y="-57.7767" font-family="Times,serif" font-size="14.00" fill="#000000">StudentT</text>
</g>
<!-- NewEplsar_sigmaY&#45;&gt;NewEplsar_y -->
<g id="edge10" class="edge">
<title>NewEplsar_sigmaY&#45;&gt;NewEplsar_y</title>
<path fill="none" stroke="#000000" d="M384.6956,-155.6352C406.3947,-141.3892 432.0005,-124.5782 454.0213,-110.1209"/>
<polygon fill="#000000" stroke="#000000" points="456.1451,-112.9135 462.5837,-104.4995 452.3034,-107.0619 456.1451,-112.9135"/>
</g>
<!-- NewEplsar_mu_b0 -->
<g id="node2" class="node">
<title>NewEplsar_mu_b0</title>
<ellipse fill="none" stroke="#000000" cx="86.267" cy="-390.3833" rx="86.0347" ry="37.4533"/>
<text text-anchor="middle" x="86.267" y="-401.6833" font-family="Times,serif" font-size="14.00" fill="#000000">NewEplsar_mu_b0</text>
<text text-anchor="middle" x="86.267" y="-386.6833" font-family="Times,serif" font-size="14.00" fill="#000000">~</text>
<text text-anchor="middle" x="86.267" y="-371.6833" font-family="Times,serif" font-size="14.00" fill="#000000">Normal</text>
</g>
<!-- NewEplsar_b0 -->
<g id="node7" class="node">
<title>NewEplsar_b0</title>
<polygon fill="none" stroke="#000000" points="421.767,-316.9066 324.767,-316.9066 324.767,-263.9066 421.767,-263.9066 421.767,-316.9066"/>
<text text-anchor="middle" x="373.267" y="-301.7066" font-family="Times,serif" font-size="14.00" fill="#000000">NewEplsar_b0</text>
<text text-anchor="middle" x="373.267" y="-286.7066" font-family="Times,serif" font-size="14.00" fill="#000000">~</text>
<text text-anchor="middle" x="373.267" y="-271.7066" font-family="Times,serif" font-size="14.00" fill="#000000">Deterministic</text>
</g>
<!-- NewEplsar_mu_b0&#45;&gt;NewEplsar_b0 -->
<g id="edge3" class="edge">
<title>NewEplsar_mu_b0&#45;&gt;NewEplsar_b0</title>
<path fill="none" stroke="#000000" d="M149.4283,-364.8454C160.0171,-360.7429 170.923,-356.6266 181.267,-352.9066 225.6283,-336.9531 276.3666,-320.5134 314.5399,-308.5008"/>
<polygon fill="#000000" stroke="#000000" points="315.9646,-311.7222 324.459,-305.39 313.8699,-305.0429 315.9646,-311.7222"/>
</g>
<!-- NewEplsar_b2_dist -->
<g id="node3" class="node">
<title>NewEplsar_b2_dist</title>
<ellipse fill="none" stroke="#000000" cx="1047.267" cy="-390.3833" rx="86.9483" ry="37.4533"/>
<text text-anchor="middle" x="1047.267" y="-401.6833" font-family="Times,serif" font-size="14.00" fill="#000000">NewEplsar_b2_dist</text>
<text text-anchor="middle" x="1047.267" y="-386.6833" font-family="Times,serif" font-size="14.00" fill="#000000">~</text>
<text text-anchor="middle" x="1047.267" y="-371.6833" font-family="Times,serif" font-size="14.00" fill="#000000">Gumbel</text>
</g>
<!-- NewEplsar_b2 -->
<g id="node8" class="node">
<title>NewEplsar_b2</title>
<polygon fill="none" stroke="#000000" points="807.767,-316.9066 710.767,-316.9066 710.767,-263.9066 807.767,-263.9066 807.767,-316.9066"/>
<text text-anchor="middle" x="759.267" y="-301.7066" font-family="Times,serif" font-size="14.00" fill="#000000">NewEplsar_b2</text>
<text text-anchor="middle" x="759.267" y="-286.7066" font-family="Times,serif" font-size="14.00" fill="#000000">~</text>
<text text-anchor="middle" x="759.267" y="-271.7066" font-family="Times,serif" font-size="14.00" fill="#000000">Deterministic</text>
</g>
<!-- NewEplsar_b2_dist&#45;&gt;NewEplsar_b2 -->
<g id="edge5" class="edge">
<title>NewEplsar_b2_dist&#45;&gt;NewEplsar_b2</title>
<path fill="none" stroke="#000000" d="M984.473,-364.3573C974.4176,-360.3985 964.0904,-356.4548 954.267,-352.9066 908.8016,-336.4845 856.6196,-319.8748 817.6834,-307.9099"/>
<polygon fill="#000000" stroke="#000000" points="818.6684,-304.5512 808.0818,-304.971 816.6195,-311.2447 818.6684,-304.5512"/>
</g>
<!-- NewEplsar_sigma0 -->
<g id="node4" class="node">
<title>NewEplsar_sigma0</title>
<ellipse fill="none" stroke="#000000" cx="277.267" cy="-390.3833" rx="86.9483" ry="37.4533"/>
<text text-anchor="middle" x="277.267" y="-401.6833" font-family="Times,serif" font-size="14.00" fill="#000000">NewEplsar_sigma0</text>
<text text-anchor="middle" x="277.267" y="-386.6833" font-family="Times,serif" font-size="14.00" fill="#000000">~</text>
<text text-anchor="middle" x="277.267" y="-371.6833" font-family="Times,serif" font-size="14.00" fill="#000000">HalfNormal</text>
</g>
<!-- NewEplsar_sigma0&#45;&gt;NewEplsar_b0 -->
<g id="edge2" class="edge">
<title>NewEplsar_sigma0&#45;&gt;NewEplsar_b0</title>
<path fill="none" stroke="#000000" d="M310.5737,-355.6969C320.2403,-345.6299 330.7868,-334.6466 340.4247,-324.6094"/>
<polygon fill="#000000" stroke="#000000" points="343.1865,-326.7865 347.5881,-317.1493 338.1373,-321.9382 343.1865,-326.7865"/>
</g>
<!-- NewEplsar_nuY -->
<g id="node5" class="node">
<title>NewEplsar_nuY</title>
<ellipse fill="none" stroke="#000000" cx="661.267" cy="-187.43" rx="75.8212" ry="37.4533"/>
<text text-anchor="middle" x="661.267" y="-198.73" font-family="Times,serif" font-size="14.00" fill="#000000">NewEplsar_nuY</text>
<text text-anchor="middle" x="661.267" y="-183.73" font-family="Times,serif" font-size="14.00" fill="#000000">~</text>
<text text-anchor="middle" x="661.267" y="-168.73" font-family="Times,serif" font-size="14.00" fill="#000000">Exponential</text>
</g>
<!-- NewEplsar_nuY&#45;&gt;NewEplsar_y -->
<g id="edge12" class="edge">
<title>NewEplsar_nuY&#45;&gt;NewEplsar_y</title>
<path fill="none" stroke="#000000" d="M617.8123,-156.5233C598.0822,-142.4905 574.6566,-125.8292 554.2994,-111.3504"/>
<polygon fill="#000000" stroke="#000000" points="556.2551,-108.4464 546.0775,-105.5026 552.198,-114.1508 556.2551,-108.4464"/>
</g>
<!-- NewEplsar_b0_dist -->
<g id="node6" class="node">
<title>NewEplsar_b0_dist</title>
<ellipse fill="none" stroke="#000000" cx="469.267" cy="-390.3833" rx="86.9483" ry="37.4533"/>
<text text-anchor="middle" x="469.267" y="-401.6833" font-family="Times,serif" font-size="14.00" fill="#000000">NewEplsar_b0_dist</text>
<text text-anchor="middle" x="469.267" y="-386.6833" font-family="Times,serif" font-size="14.00" fill="#000000">~</text>
<text text-anchor="middle" x="469.267" y="-371.6833" font-family="Times,serif" font-size="14.00" fill="#000000">Normal</text>
</g>
<!-- NewEplsar_b0_dist&#45;&gt;NewEplsar_b0 -->
<g id="edge1" class="edge">
<title>NewEplsar_b0_dist&#45;&gt;NewEplsar_b0</title>
<path fill="none" stroke="#000000" d="M435.9603,-355.6969C426.2937,-345.6299 415.7473,-334.6466 406.1094,-324.6094"/>
<polygon fill="#000000" stroke="#000000" points="408.3967,-321.9382 398.946,-317.1493 403.3476,-326.7865 408.3967,-321.9382"/>
</g>
<!-- NewEplsar_mu -->
<g id="node12" class="node">
<title>NewEplsar_mu</title>
<polygon fill="none" stroke="#000000" points="555.767,-213.93 454.767,-213.93 454.767,-160.93 555.767,-160.93 555.767,-213.93"/>
<text text-anchor="middle" x="505.267" y="-198.73" font-family="Times,serif" font-size="14.00" fill="#000000">NewEplsar_mu</text>
<text text-anchor="middle" x="505.267" y="-183.73" font-family="Times,serif" font-size="14.00" fill="#000000">~</text>
<text text-anchor="middle" x="505.267" y="-168.73" font-family="Times,serif" font-size="14.00" fill="#000000">Deterministic</text>
</g>
<!-- NewEplsar_b0&#45;&gt;NewEplsar_mu -->
<g id="edge9" class="edge">
<title>NewEplsar_b0&#45;&gt;NewEplsar_mu</title>
<path fill="none" stroke="#000000" d="M407.2603,-263.8876C424.2184,-250.6581 444.8963,-234.5268 462.88,-220.4972"/>
<polygon fill="#000000" stroke="#000000" points="465.1984,-223.1276 470.9302,-214.2171 460.8928,-217.6084 465.1984,-223.1276"/>
</g>
<!-- NewEplsar_b2&#45;&gt;NewEplsar_mu -->
<g id="edge8" class="edge">
<title>NewEplsar_b2&#45;&gt;NewEplsar_mu</title>
<path fill="none" stroke="#000000" d="M710.7593,-275.1348C673.4473,-262.8891 620.895,-244.5529 576.267,-224.9066 571.6806,-222.8876 566.982,-220.6964 562.2932,-218.4214"/>
<polygon fill="#000000" stroke="#000000" points="563.8338,-215.2787 553.3206,-213.9661 560.7206,-221.5483 563.8338,-215.2787"/>
</g>
<!-- NewEplsar_b2_beta -->
<g id="node9" class="node">
<title>NewEplsar_b2_beta</title>
<ellipse fill="none" stroke="#000000" cx="663.267" cy="-390.3833" rx="89.191" ry="37.4533"/>
<text text-anchor="middle" x="663.267" y="-401.6833" font-family="Times,serif" font-size="14.00" fill="#000000">NewEplsar_b2_beta</text>
<text text-anchor="middle" x="663.267" y="-386.6833" font-family="Times,serif" font-size="14.00" fill="#000000">~</text>
<text text-anchor="middle" x="663.267" y="-371.6833" font-family="Times,serif" font-size="14.00" fill="#000000">HalfNormal</text>
</g>
<!-- NewEplsar_b2_beta&#45;&gt;NewEplsar_b2 -->
<g id="edge6" class="edge">
<title>NewEplsar_b2_beta&#45;&gt;NewEplsar_b2</title>
<path fill="none" stroke="#000000" d="M696.8432,-355.4163C706.4946,-345.3651 717.0037,-334.4207 726.5994,-324.4275"/>
<polygon fill="#000000" stroke="#000000" points="729.3283,-326.6389 733.7299,-317.0016 724.2791,-321.7905 729.3283,-326.6389"/>
</g>
<!-- NewEplsar_mu_b2 -->
<g id="node10" class="node">
<title>NewEplsar_mu_b2</title>
<ellipse fill="none" stroke="#000000" cx="856.267" cy="-390.3833" rx="86.0347" ry="37.4533"/>
<text text-anchor="middle" x="856.267" y="-401.6833" font-family="Times,serif" font-size="14.00" fill="#000000">NewEplsar_mu_b2</text>
<text text-anchor="middle" x="856.267" y="-386.6833" font-family="Times,serif" font-size="14.00" fill="#000000">~</text>
<text text-anchor="middle" x="856.267" y="-371.6833" font-family="Times,serif" font-size="14.00" fill="#000000">Normal</text>
</g>
<!-- NewEplsar_mu_b2&#45;&gt;NewEplsar_b2 -->
<g id="edge7" class="edge">
<title>NewEplsar_mu_b2&#45;&gt;NewEplsar_b2</title>
<path fill="none" stroke="#000000" d="M822.6134,-355.6969C812.8461,-345.6299 802.1898,-334.6466 792.4515,-324.6094"/>
<polygon fill="#000000" stroke="#000000" points="794.6889,-321.8892 785.2134,-317.1493 789.6649,-326.7636 794.6889,-321.8892"/>
</g>
<!-- NewEplsar_sigma2 -->
<g id="node11" class="node">
<title>NewEplsar_sigma2</title>
<ellipse fill="none" stroke="#000000" cx="663.267" cy="-501.3366" rx="86.9483" ry="37.4533"/>
<text text-anchor="middle" x="663.267" y="-512.6366" font-family="Times,serif" font-size="14.00" fill="#000000">NewEplsar_sigma2</text>
<text text-anchor="middle" x="663.267" y="-497.6366" font-family="Times,serif" font-size="14.00" fill="#000000">~</text>
<text text-anchor="middle" x="663.267" y="-482.6366" font-family="Times,serif" font-size="14.00" fill="#000000">HalfNormal</text>
</g>
<!-- NewEplsar_sigma2&#45;&gt;NewEplsar_b2_beta -->
<g id="edge4" class="edge">
<title>NewEplsar_sigma2&#45;&gt;NewEplsar_b2_beta</title>
<path fill="none" stroke="#000000" d="M663.267,-463.7729C663.267,-455.549 663.267,-446.7367 663.267,-438.1736"/>
<polygon fill="#000000" stroke="#000000" points="666.7671,-437.9083 663.267,-427.9083 659.7671,-437.9084 666.7671,-437.9083"/>
</g>
<!-- NewEplsar_mu&#45;&gt;NewEplsar_y -->
<g id="edge11" class="edge">
<title>NewEplsar_mu&#45;&gt;NewEplsar_y</title>
<path fill="none" stroke="#000000" d="M505.267,-160.8539C505.267,-149.9351 505.267,-136.944 505.267,-124.4675"/>
<polygon fill="#000000" stroke="#000000" points="508.7671,-124.1649 505.267,-114.165 501.7671,-124.165 508.7671,-124.1649"/>
</g>
</g>
</svg>
