<?xml version="1.0" encoding="UTF-8" standalone="no"?>
<!DOCTYPE svg PUBLIC "-//W3C//DTD SVG 1.1//EN"
 "http://www.w3.org/Graphics/SVG/1.1/DTD/svg11.dtd">
<!-- Generated by graphviz version 2.40.1 (20161225.0304)
 -->
<!-- Title: NewEplsar Pages: 1 -->
<svg width="1158pt" height="563pt"
 viewBox="0.00 0.00 1157.97 562.81" xmlns="http://www.w3.org/2000/svg" xmlns:xlink="http://www.w3.org/1999/xlink">
<g id="graph0" class="graph" transform="scale(1 1) rotate(0) translate(4 558.8133)">
<title>NewEplsar</title>
<polygon fill="#ffffff" stroke="transparent" points="-4,4 -4,-558.8133 1153.9741,-558.8133 1153.9741,4 -4,4"/>
<g id="clust1" class="cluster">
<title>cluster11</title>
<path fill="none" stroke="#000000" d="M20,-232.9066C20,-232.9066 380,-232.9066 380,-232.9066 386,-232.9066 392,-238.9066 392,-244.9066 392,-244.9066 392,-534.8133 392,-534.8133 392,-540.8133 386,-546.8133 380,-546.8133 380,-546.8133 20,-546.8133 20,-546.8133 14,-546.8133 8,-540.8133 8,-534.8133 8,-534.8133 8,-244.9066 8,-244.9066 8,-238.9066 14,-232.9066 20,-232.9066"/>
<text text-anchor="middle" x="377" y="-240.7066" font-family="Times,serif" font-size="14.00" fill="#000000">11</text>
</g>
<g id="clust2" class="cluster">
<title>cluster139</title>
<path fill="none" stroke="#000000" d="M253,-8C253,-8 373,-8 373,-8 379,-8 385,-14 385,-20 385,-20 385,-209.93 385,-209.93 385,-215.93 379,-221.93 373,-221.93 373,-221.93 253,-221.93 253,-221.93 247,-221.93 241,-215.93 241,-209.93 241,-209.93 241,-20 241,-20 241,-14 247,-8 253,-8"/>
<text text-anchor="middle" x="366.5" y="-15.8" font-family="Times,serif" font-size="14.00" fill="#000000">139</text>
</g>
<!-- NewEplsar_sigma0 -->
<g id="node1" class="node">
<title>NewEplsar_sigma0</title>
<ellipse fill="none" stroke="#000000" cx="681" cy="-390.3833" rx="86.9483" ry="37.4533"/>
<text text-anchor="middle" x="681" y="-401.6833" font-family="Times,serif" font-size="14.00" fill="#000000">NewEplsar_sigma0</text>
<text text-anchor="middle" x="681" y="-386.6833" font-family="Times,serif" font-size="14.00" fill="#000000">~</text>
<text text-anchor="middle" x="681" y="-371.6833" font-family="Times,serif" font-size="14.00" fill="#000000">HalfNormal</text>
</g>
<!-- NewEplsar_b0 -->
<g id="node6" class="node">
<title>NewEplsar_b0</title>
<polygon fill="none" stroke="#000000" points="824.5,-316.9066 727.5,-316.9066 727.5,-263.9066 824.5,-263.9066 824.5,-316.9066"/>
<text text-anchor="middle" x="776" y="-301.7066" font-family="Times,serif" font-size="14.00" fill="#000000">NewEplsar_b0</text>
<text text-anchor="middle" x="776" y="-286.7066" font-family="Times,serif" font-size="14.00" fill="#000000">~</text>
<text text-anchor="middle" x="776" y="-271.7066" font-family="Times,serif" font-size="14.00" fill="#000000">Deterministic</text>
</g>
<!-- NewEplsar_sigma0&#45;&gt;NewEplsar_b0 -->
<g id="edge1" class="edge">
<title>NewEplsar_sigma0&#45;&gt;NewEplsar_b0</title>
<path fill="none" stroke="#000000" d="M713.9598,-355.6969C723.5257,-345.6299 733.9622,-334.6466 743.4997,-324.6094"/>
<polygon fill="#000000" stroke="#000000" points="746.2374,-326.8094 750.5886,-317.1493 741.163,-321.9876 746.2374,-326.8094"/>
</g>
<!-- NewEplsar_sigmaY -->
<g id="node2" class="node">
<title>NewEplsar_sigmaY</title>
<ellipse fill="none" stroke="#000000" cx="482" cy="-187.43" rx="89.191" ry="37.4533"/>
<text text-anchor="middle" x="482" y="-198.73" font-family="Times,serif" font-size="14.00" fill="#000000">NewEplsar_sigmaY</text>
<text text-anchor="middle" x="482" y="-183.73" font-family="Times,serif" font-size="14.00" fill="#000000">~</text>
<text text-anchor="middle" x="482" y="-168.73" font-family="Times,serif" font-size="14.00" fill="#000000">Gamma</text>
</g>
<!-- NewEplsar_y -->
<g id="node12" class="node">
<title>NewEplsar_y</title>
<ellipse fill="#d3d3d3" stroke="#000000" cx="313" cy="-76.4767" rx="63.7795" ry="37.4533"/>
<text text-anchor="middle" x="313" y="-87.7767" font-family="Times,serif" font-size="14.00" fill="#000000">NewEplsar_y</text>
<text text-anchor="middle" x="313" y="-72.7767" font-family="Times,serif" font-size="14.00" fill="#000000">~</text>
<text text-anchor="middle" x="313" y="-57.7767" font-family="Times,serif" font-size="14.00" fill="#000000">StudentT</text>
</g>
<!-- NewEplsar_sigmaY&#45;&gt;NewEplsar_y -->
<g id="edge12" class="edge">
<title>NewEplsar_sigmaY&#45;&gt;NewEplsar_y</title>
<path fill="none" stroke="#000000" d="M433.5714,-155.6352C411.8723,-141.3892 386.2665,-124.5782 364.2457,-110.1209"/>
<polygon fill="#000000" stroke="#000000" points="365.9637,-107.0619 355.6834,-104.4995 362.1219,-112.9135 365.9637,-107.0619"/>
</g>
<!-- NewEplsar_b2_dist -->
<g id="node3" class="node">
<title>NewEplsar_b2_dist</title>
<ellipse fill="none" stroke="#000000" cx="489" cy="-390.3833" rx="86.9483" ry="37.4533"/>
<text text-anchor="middle" x="489" y="-401.6833" font-family="Times,serif" font-size="14.00" fill="#000000">NewEplsar_b2_dist</text>
<text text-anchor="middle" x="489" y="-386.6833" font-family="Times,serif" font-size="14.00" fill="#000000">~</text>
<text text-anchor="middle" x="489" y="-371.6833" font-family="Times,serif" font-size="14.00" fill="#000000">Gumbel</text>
</g>
<!-- NewEplsar_b2 -->
<g id="node11" class="node">
<title>NewEplsar_b2</title>
<polygon fill="none" stroke="#000000" points="349.5,-316.9066 252.5,-316.9066 252.5,-263.9066 349.5,-263.9066 349.5,-316.9066"/>
<text text-anchor="middle" x="301" y="-301.7066" font-family="Times,serif" font-size="14.00" fill="#000000">NewEplsar_b2</text>
<text text-anchor="middle" x="301" y="-286.7066" font-family="Times,serif" font-size="14.00" fill="#000000">~</text>
<text text-anchor="middle" x="301" y="-271.7066" font-family="Times,serif" font-size="14.00" fill="#000000">Deterministic</text>
</g>
<!-- NewEplsar_b2_dist&#45;&gt;NewEplsar_b2 -->
<g id="edge5" class="edge">
<title>NewEplsar_b2_dist&#45;&gt;NewEplsar_b2</title>
<path fill="none" stroke="#000000" d="M434.1172,-361.1971C410.3798,-348.5738 382.5918,-333.7964 358.5623,-321.0177"/>
<polygon fill="#000000" stroke="#000000" points="360.0257,-317.8318 349.5531,-316.2267 356.7389,-324.0123 360.0257,-317.8318"/>
</g>
<!-- NewEplsar_mu_b0 -->
<g id="node4" class="node">
<title>NewEplsar_mu_b0</title>
<ellipse fill="none" stroke="#000000" cx="872" cy="-390.3833" rx="86.0347" ry="37.4533"/>
<text text-anchor="middle" x="872" y="-401.6833" font-family="Times,serif" font-size="14.00" fill="#000000">NewEplsar_mu_b0</text>
<text text-anchor="middle" x="872" y="-386.6833" font-family="Times,serif" font-size="14.00" fill="#000000">~</text>
<text text-anchor="middle" x="872" y="-371.6833" font-family="Times,serif" font-size="14.00" fill="#000000">Normal</text>
</g>
<!-- NewEplsar_mu_b0&#45;&gt;NewEplsar_b0 -->
<g id="edge2" class="edge">
<title>NewEplsar_mu_b0&#45;&gt;NewEplsar_b0</title>
<path fill="none" stroke="#000000" d="M838.6933,-355.6969C829.0267,-345.6299 818.4803,-334.6466 808.8424,-324.6094"/>
<polygon fill="#000000" stroke="#000000" points="811.1297,-321.9382 801.6789,-317.1493 806.0805,-326.7865 811.1297,-321.9382"/>
</g>
<!-- NewEplsar_nuY -->
<g id="node5" class="node">
<title>NewEplsar_nuY</title>
<ellipse fill="none" stroke="#000000" cx="665" cy="-187.43" rx="75.8212" ry="37.4533"/>
<text text-anchor="middle" x="665" y="-198.73" font-family="Times,serif" font-size="14.00" fill="#000000">NewEplsar_nuY</text>
<text text-anchor="middle" x="665" y="-183.73" font-family="Times,serif" font-size="14.00" fill="#000000">~</text>
<text text-anchor="middle" x="665" y="-168.73" font-family="Times,serif" font-size="14.00" fill="#000000">Exponential</text>
</g>
<!-- NewEplsar_nuY&#45;&gt;NewEplsar_y -->
<g id="edge11" class="edge">
<title>NewEplsar_nuY&#45;&gt;NewEplsar_y</title>
<path fill="none" stroke="#000000" d="M609.6909,-161.6489C599.8989,-157.4866 589.7242,-153.414 580,-149.9533 514.0137,-126.4701 436.6631,-105.9192 382.2517,-92.5682"/>
<polygon fill="#000000" stroke="#000000" points="382.9111,-89.1265 372.3668,-90.1599 381.2541,-95.9276 382.9111,-89.1265"/>
</g>
<!-- NewEplsar_mu -->
<g id="node13" class="node">
<title>NewEplsar_mu</title>
<polygon fill="none" stroke="#000000" points="363.5,-213.93 262.5,-213.93 262.5,-160.93 363.5,-160.93 363.5,-213.93"/>
<text text-anchor="middle" x="313" y="-198.73" font-family="Times,serif" font-size="14.00" fill="#000000">NewEplsar_mu</text>
<text text-anchor="middle" x="313" y="-183.73" font-family="Times,serif" font-size="14.00" fill="#000000">~</text>
<text text-anchor="middle" x="313" y="-168.73" font-family="Times,serif" font-size="14.00" fill="#000000">Deterministic</text>
</g>
<!-- NewEplsar_b0&#45;&gt;NewEplsar_mu -->
<g id="edge8" class="edge">
<title>NewEplsar_b0&#45;&gt;NewEplsar_mu</title>
<path fill="none" stroke="#000000" d="M727.4284,-287.2951C652.1342,-281.3694 503.4699,-265.2438 384,-224.9066 378.501,-223.05 372.9125,-220.8058 367.4089,-218.3493"/>
<polygon fill="#000000" stroke="#000000" points="368.7968,-215.1342 358.258,-214.0455 365.8176,-221.4687 368.7968,-215.1342"/>
</g>
<!-- NewEplsar_b0_dist -->
<g id="node7" class="node">
<title>NewEplsar_b0_dist</title>
<ellipse fill="none" stroke="#000000" cx="1063" cy="-390.3833" rx="86.9483" ry="37.4533"/>
<text text-anchor="middle" x="1063" y="-401.6833" font-family="Times,serif" font-size="14.00" fill="#000000">NewEplsar_b0_dist</text>
<text text-anchor="middle" x="1063" y="-386.6833" font-family="Times,serif" font-size="14.00" fill="#000000">~</text>
<text text-anchor="middle" x="1063" y="-371.6833" font-family="Times,serif" font-size="14.00" fill="#000000">Normal</text>
</g>
<!-- NewEplsar_b0_dist&#45;&gt;NewEplsar_b0 -->
<g id="edge3" class="edge">
<title>NewEplsar_b0_dist&#45;&gt;NewEplsar_b0</title>
<path fill="none" stroke="#000000" d="M999.1552,-364.8857C988.4572,-360.7784 977.4421,-356.65 967,-352.9066 922.8316,-337.0728 872.3595,-320.627 834.3955,-308.5818"/>
<polygon fill="#000000" stroke="#000000" points="835.1209,-305.1404 824.531,-305.4616 833.0099,-311.8145 835.1209,-305.1404"/>
</g>
<!-- NewEplsar_sigma2 -->
<g id="node8" class="node">
<title>NewEplsar_sigma2</title>
<ellipse fill="none" stroke="#000000" cx="295" cy="-501.3366" rx="86.9483" ry="37.4533"/>
<text text-anchor="middle" x="295" y="-512.6366" font-family="Times,serif" font-size="14.00" fill="#000000">NewEplsar_sigma2</text>
<text text-anchor="middle" x="295" y="-497.6366" font-family="Times,serif" font-size="14.00" fill="#000000">~</text>
<text text-anchor="middle" x="295" y="-482.6366" font-family="Times,serif" font-size="14.00" fill="#000000">HalfNormal</text>
</g>
<!-- NewEplsar_b2_beta -->
<g id="node10" class="node">
<title>NewEplsar_b2_beta</title>
<ellipse fill="none" stroke="#000000" cx="295" cy="-390.3833" rx="89.191" ry="37.4533"/>
<text text-anchor="middle" x="295" y="-401.6833" font-family="Times,serif" font-size="14.00" fill="#000000">NewEplsar_b2_beta</text>
<text text-anchor="middle" x="295" y="-386.6833" font-family="Times,serif" font-size="14.00" fill="#000000">~</text>
<text text-anchor="middle" x="295" y="-371.6833" font-family="Times,serif" font-size="14.00" fill="#000000">HalfNormal</text>
</g>
<!-- NewEplsar_sigma2&#45;&gt;NewEplsar_b2_beta -->
<g id="edge4" class="edge">
<title>NewEplsar_sigma2&#45;&gt;NewEplsar_b2_beta</title>
<path fill="none" stroke="#000000" d="M295,-463.7729C295,-455.549 295,-446.7367 295,-438.1736"/>
<polygon fill="#000000" stroke="#000000" points="298.5001,-437.9083 295,-427.9083 291.5001,-437.9084 298.5001,-437.9083"/>
</g>
<!-- NewEplsar_mu_b2 -->
<g id="node9" class="node">
<title>NewEplsar_mu_b2</title>
<ellipse fill="none" stroke="#000000" cx="102" cy="-390.3833" rx="86.0347" ry="37.4533"/>
<text text-anchor="middle" x="102" y="-401.6833" font-family="Times,serif" font-size="14.00" fill="#000000">NewEplsar_mu_b2</text>
<text text-anchor="middle" x="102" y="-386.6833" font-family="Times,serif" font-size="14.00" fill="#000000">~</text>
<text text-anchor="middle" x="102" y="-371.6833" font-family="Times,serif" font-size="14.00" fill="#000000">Normal</text>
</g>
<!-- NewEplsar_mu_b2&#45;&gt;NewEplsar_b2 -->
<g id="edge6" class="edge">
<title>NewEplsar_mu_b2&#45;&gt;NewEplsar_b2</title>
<path fill="none" stroke="#000000" d="M158.4931,-362.0014C185.0127,-348.6781 216.5796,-332.8191 243.2551,-319.4174"/>
<polygon fill="#000000" stroke="#000000" points="245.1058,-322.4045 252.4703,-314.7877 241.9633,-316.1496 245.1058,-322.4045"/>
</g>
<!-- NewEplsar_b2_beta&#45;&gt;NewEplsar_b2 -->
<g id="edge7" class="edge">
<title>NewEplsar_b2_beta&#45;&gt;NewEplsar_b2</title>
<path fill="none" stroke="#000000" d="M297.2512,-352.8712C297.7516,-344.5341 298.2816,-335.7023 298.7807,-327.3867"/>
<polygon fill="#000000" stroke="#000000" points="302.2862,-327.3975 299.3917,-317.2057 295.2988,-326.9781 302.2862,-327.3975"/>
</g>
<!-- NewEplsar_b2&#45;&gt;NewEplsar_mu -->
<g id="edge9" class="edge">
<title>NewEplsar_b2&#45;&gt;NewEplsar_mu</title>
<path fill="none" stroke="#000000" d="M304.0903,-263.8876C305.4931,-251.8499 307.1758,-237.4098 308.6992,-224.3365"/>
<polygon fill="#000000" stroke="#000000" points="312.1974,-224.555 309.8785,-214.2171 305.2444,-223.7447 312.1974,-224.555"/>
</g>
<!-- NewEplsar_mu&#45;&gt;NewEplsar_y -->
<g id="edge10" class="edge">
<title>NewEplsar_mu&#45;&gt;NewEplsar_y</title>
<path fill="none" stroke="#000000" d="M313,-160.8539C313,-149.9351 313,-136.944 313,-124.4675"/>
<polygon fill="#000000" stroke="#000000" points="316.5001,-124.1649 313,-114.165 309.5001,-124.165 316.5001,-124.1649"/>
</g>
</g>
</svg>
