<?xml version="1.0" encoding="UTF-8" standalone="no"?>
<!DOCTYPE svg PUBLIC "-//W3C//DTD SVG 1.1//EN"
 "http://www.w3.org/Graphics/SVG/1.1/DTD/svg11.dtd">
<!-- Generated by graphviz version 2.42.1 (20190717.1914)
 -->
<!-- Title: HAsfc81 Pages: 1 -->
<svg width="2202pt" height="602pt"
 viewBox="0.00 0.00 2201.59 602.36" xmlns="http://www.w3.org/2000/svg" xmlns:xlink="http://www.w3.org/1999/xlink">
<g id="graph0" class="graph" transform="scale(1 1) rotate(0) translate(4 598.36)">
<title>HAsfc81</title>
<polygon fill="white" stroke="transparent" points="-4,4 -4,-598.36 2197.59,-598.36 2197.59,4 -4,4"/>
<g id="clust1" class="cluster">
<title>cluster2</title>
<path fill="none" stroke="black" d="M20,-249.98C20,-249.98 350,-249.98 350,-249.98 356,-249.98 362,-255.98 362,-261.98 362,-261.98 362,-455.77 362,-455.77 362,-461.77 356,-467.77 350,-467.77 350,-467.77 20,-467.77 20,-467.77 14,-467.77 8,-461.77 8,-455.77 8,-455.77 8,-261.98 8,-261.98 8,-255.98 14,-249.98 20,-249.98"/>
<text text-anchor="middle" x="350.5" y="-258.18" font-family="Times,serif" font-size="14.00">2</text>
</g>
<g id="clust2" class="cluster">
<title>cluster11</title>
<path fill="none" stroke="black" d="M556,-249.98C556,-249.98 891,-249.98 891,-249.98 897,-249.98 903,-255.98 903,-261.98 903,-261.98 903,-574.36 903,-574.36 903,-580.36 897,-586.36 891,-586.36 891,-586.36 556,-586.36 556,-586.36 550,-586.36 544,-580.36 544,-574.36 544,-574.36 544,-261.98 544,-261.98 544,-255.98 550,-249.98 556,-249.98"/>
<text text-anchor="middle" x="888" y="-258.18" font-family="Times,serif" font-size="14.00">11</text>
</g>
<g id="clust3" class="cluster">
<title>cluster2 x 11</title>
<path fill="none" stroke="black" d="M1098,-249.98C1098,-249.98 1266,-249.98 1266,-249.98 1272,-249.98 1278,-255.98 1278,-261.98 1278,-261.98 1278,-455.77 1278,-455.77 1278,-461.77 1272,-467.77 1266,-467.77 1266,-467.77 1098,-467.77 1098,-467.77 1092,-467.77 1086,-461.77 1086,-455.77 1086,-455.77 1086,-261.98 1086,-261.98 1086,-255.98 1092,-249.98 1098,-249.98"/>
<text text-anchor="middle" x="1252.5" y="-258.18" font-family="Times,serif" font-size="14.00">2 x 11</text>
</g>
<g id="clust4" class="cluster">
<title>cluster280</title>
<path fill="none" stroke="black" d="M971,-8C971,-8 1077,-8 1077,-8 1083,-8 1089,-14 1089,-20 1089,-20 1089,-225.89 1089,-225.89 1089,-231.89 1083,-237.89 1077,-237.89 1077,-237.89 971,-237.89 971,-237.89 965,-237.89 959,-231.89 959,-225.89 959,-225.89 959,-20 959,-20 959,-14 965,-8 971,-8"/>
<text text-anchor="middle" x="1070.5" y="-16.2" font-family="Times,serif" font-size="14.00">280</text>
</g>
<!-- HAsfc81_mu_b0 -->
<g id="node1" class="node">
<title>HAsfc81_mu_b0</title>
<ellipse fill="none" stroke="black" cx="1754" cy="-418.48" rx="79.49" ry="41.09"/>
<text text-anchor="middle" x="1754" y="-431.08" font-family="Times,serif" font-size="14.00">HAsfc81_mu_b0</text>
<text text-anchor="middle" x="1754" y="-414.28" font-family="Times,serif" font-size="14.00">~</text>
<text text-anchor="middle" x="1754" y="-397.48" font-family="Times,serif" font-size="14.00">Normal</text>
</g>
<!-- HAsfc81_b0 -->
<g id="node5" class="node">
<title>HAsfc81_b0</title>
<polygon fill="none" stroke="black" points="1889.2,-341.38 1796.8,-341.38 1796.8,-282.58 1889.2,-282.58 1889.2,-341.38"/>
<text text-anchor="middle" x="1843" y="-324.58" font-family="Times,serif" font-size="14.00">HAsfc81_b0</text>
<text text-anchor="middle" x="1843" y="-307.78" font-family="Times,serif" font-size="14.00">~</text>
<text text-anchor="middle" x="1843" y="-290.98" font-family="Times,serif" font-size="14.00">Deterministic</text>
</g>
<!-- HAsfc81_mu_b0&#45;&gt;HAsfc81_b0 -->
<g id="edge1" class="edge">
<title>HAsfc81_mu_b0&#45;&gt;HAsfc81_b0</title>
<path fill="none" stroke="black" d="M1785.63,-380.34C1794.22,-370.25 1803.52,-359.34 1812.07,-349.29"/>
<polygon fill="black" stroke="black" points="1814.93,-351.34 1818.75,-341.45 1809.6,-346.8 1814.93,-351.34"/>
</g>
<!-- HAsfc81_b1_dist -->
<g id="node2" class="node">
<title>HAsfc81_b1_dist</title>
<ellipse fill="none" stroke="black" cx="453" cy="-418.48" rx="81.29" ry="41.09"/>
<text text-anchor="middle" x="453" y="-431.08" font-family="Times,serif" font-size="14.00">HAsfc81_b1_dist</text>
<text text-anchor="middle" x="453" y="-414.28" font-family="Times,serif" font-size="14.00">~</text>
<text text-anchor="middle" x="453" y="-397.48" font-family="Times,serif" font-size="14.00">Normal</text>
</g>
<!-- HAsfc81_b1 -->
<g id="node13" class="node">
<title>HAsfc81_b1</title>
<polygon fill="none" stroke="black" points="336.2,-341.38 243.8,-341.38 243.8,-282.58 336.2,-282.58 336.2,-341.38"/>
<text text-anchor="middle" x="290" y="-324.58" font-family="Times,serif" font-size="14.00">HAsfc81_b1</text>
<text text-anchor="middle" x="290" y="-307.78" font-family="Times,serif" font-size="14.00">~</text>
<text text-anchor="middle" x="290" y="-290.98" font-family="Times,serif" font-size="14.00">Deterministic</text>
</g>
<!-- HAsfc81_b1_dist&#45;&gt;HAsfc81_b1 -->
<g id="edge4" class="edge">
<title>HAsfc81_b1_dist&#45;&gt;HAsfc81_b1</title>
<path fill="none" stroke="black" d="M403.21,-385.56C384.04,-373.27 362.11,-359.21 342.68,-346.75"/>
<polygon fill="black" stroke="black" points="344.54,-343.79 334.23,-341.34 340.76,-349.68 344.54,-343.79"/>
</g>
<!-- HAsfc81_M12_dist -->
<g id="node3" class="node">
<title>HAsfc81_M12_dist</title>
<ellipse fill="none" stroke="black" cx="1378" cy="-418.48" rx="89.89" ry="41.09"/>
<text text-anchor="middle" x="1378" y="-431.08" font-family="Times,serif" font-size="14.00">HAsfc81_M12_dist</text>
<text text-anchor="middle" x="1378" y="-414.28" font-family="Times,serif" font-size="14.00">~</text>
<text text-anchor="middle" x="1378" y="-397.48" font-family="Times,serif" font-size="14.00">Normal</text>
</g>
<!-- HAsfc81_M12 -->
<g id="node18" class="node">
<title>HAsfc81_M12</title>
<polygon fill="none" stroke="black" points="1250.98,-341.38 1151.02,-341.38 1151.02,-282.58 1250.98,-282.58 1250.98,-341.38"/>
<text text-anchor="middle" x="1201" y="-324.58" font-family="Times,serif" font-size="14.00">HAsfc81_M12</text>
<text text-anchor="middle" x="1201" y="-307.78" font-family="Times,serif" font-size="14.00">~</text>
<text text-anchor="middle" x="1201" y="-290.98" font-family="Times,serif" font-size="14.00">Deterministic</text>
</g>
<!-- HAsfc81_M12_dist&#45;&gt;HAsfc81_M12 -->
<g id="edge13" class="edge">
<title>HAsfc81_M12_dist&#45;&gt;HAsfc81_M12</title>
<path fill="none" stroke="black" d="M1323.45,-385.27C1302.56,-372.94 1278.7,-358.85 1257.63,-346.41"/>
<polygon fill="black" stroke="black" points="1259.17,-343.26 1248.78,-341.19 1255.61,-349.29 1259.17,-343.26"/>
</g>
<!-- HAsfc81_b2_dist -->
<g id="node4" class="node">
<title>HAsfc81_b2_dist</title>
<ellipse fill="none" stroke="black" cx="995" cy="-418.48" rx="81.29" ry="41.09"/>
<text text-anchor="middle" x="995" y="-431.08" font-family="Times,serif" font-size="14.00">HAsfc81_b2_dist</text>
<text text-anchor="middle" x="995" y="-414.28" font-family="Times,serif" font-size="14.00">~</text>
<text text-anchor="middle" x="995" y="-397.48" font-family="Times,serif" font-size="14.00">Gumbel</text>
</g>
<!-- HAsfc81_b2 -->
<g id="node16" class="node">
<title>HAsfc81_b2</title>
<polygon fill="none" stroke="black" points="878.2,-341.38 785.8,-341.38 785.8,-282.58 878.2,-282.58 878.2,-341.38"/>
<text text-anchor="middle" x="832" y="-324.58" font-family="Times,serif" font-size="14.00">HAsfc81_b2</text>
<text text-anchor="middle" x="832" y="-307.78" font-family="Times,serif" font-size="14.00">~</text>
<text text-anchor="middle" x="832" y="-290.98" font-family="Times,serif" font-size="14.00">Deterministic</text>
</g>
<!-- HAsfc81_b2_dist&#45;&gt;HAsfc81_b2 -->
<g id="edge9" class="edge">
<title>HAsfc81_b2_dist&#45;&gt;HAsfc81_b2</title>
<path fill="none" stroke="black" d="M945.21,-385.56C926.04,-373.27 904.11,-359.21 884.68,-346.75"/>
<polygon fill="black" stroke="black" points="886.54,-343.79 876.23,-341.34 882.76,-349.68 886.54,-343.79"/>
</g>
<!-- HAsfc81_mu -->
<g id="node20" class="node">
<title>HAsfc81_mu</title>
<polygon fill="none" stroke="black" points="1070.2,-230.09 977.8,-230.09 977.8,-171.28 1070.2,-171.28 1070.2,-230.09"/>
<text text-anchor="middle" x="1024" y="-213.29" font-family="Times,serif" font-size="14.00">HAsfc81_mu</text>
<text text-anchor="middle" x="1024" y="-196.49" font-family="Times,serif" font-size="14.00">~</text>
<text text-anchor="middle" x="1024" y="-179.69" font-family="Times,serif" font-size="14.00">Deterministic</text>
</g>
<!-- HAsfc81_b0&#45;&gt;HAsfc81_mu -->
<g id="edge15" class="edge">
<title>HAsfc81_b0&#45;&gt;HAsfc81_mu</title>
<path fill="none" stroke="black" d="M1796.55,-304.86C1700.61,-292.46 1473.48,-264.32 1282,-249.98 1238.97,-246.76 1129.2,-254.8 1088,-241.98 1082.3,-240.21 1076.6,-237.79 1071.09,-235.02"/>
<polygon fill="black" stroke="black" points="1072.47,-231.78 1062.02,-230.06 1069.11,-237.93 1072.47,-231.78"/>
</g>
<!-- HAsfc81_sigmaY -->
<g id="node6" class="node">
<title>HAsfc81_sigmaY</title>
<ellipse fill="none" stroke="black" cx="1180" cy="-200.69" rx="82.58" ry="41.09"/>
<text text-anchor="middle" x="1180" y="-213.29" font-family="Times,serif" font-size="14.00">HAsfc81_sigmaY</text>
<text text-anchor="middle" x="1180" y="-196.49" font-family="Times,serif" font-size="14.00">~</text>
<text text-anchor="middle" x="1180" y="-179.69" font-family="Times,serif" font-size="14.00">Gamma</text>
</g>
<!-- HAsfc81_y -->
<g id="node21" class="node">
<title>HAsfc81_y</title>
<ellipse fill="lightgrey" stroke="black" cx="1024" cy="-82.1" rx="56.89" ry="41.09"/>
<text text-anchor="middle" x="1024" y="-94.7" font-family="Times,serif" font-size="14.00">HAsfc81_y</text>
<text text-anchor="middle" x="1024" y="-77.9" font-family="Times,serif" font-size="14.00">~</text>
<text text-anchor="middle" x="1024" y="-61.1" font-family="Times,serif" font-size="14.00">StudentT</text>
</g>
<!-- HAsfc81_sigmaY&#45;&gt;HAsfc81_y -->
<g id="edge20" class="edge">
<title>HAsfc81_sigmaY&#45;&gt;HAsfc81_y</title>
<path fill="none" stroke="black" d="M1134.88,-165.96C1114.95,-151.07 1091.51,-133.55 1071.33,-118.47"/>
<polygon fill="black" stroke="black" points="1073.3,-115.57 1063.2,-112.39 1069.11,-121.18 1073.3,-115.57"/>
</g>
<!-- HAsfc81_b0_dist -->
<g id="node7" class="node">
<title>HAsfc81_b0_dist</title>
<ellipse fill="none" stroke="black" cx="1933" cy="-418.48" rx="81.29" ry="41.09"/>
<text text-anchor="middle" x="1933" y="-431.08" font-family="Times,serif" font-size="14.00">HAsfc81_b0_dist</text>
<text text-anchor="middle" x="1933" y="-414.28" font-family="Times,serif" font-size="14.00">~</text>
<text text-anchor="middle" x="1933" y="-397.48" font-family="Times,serif" font-size="14.00">Normal</text>
</g>
<!-- HAsfc81_b0_dist&#45;&gt;HAsfc81_b0 -->
<g id="edge3" class="edge">
<title>HAsfc81_b0_dist&#45;&gt;HAsfc81_b0</title>
<path fill="none" stroke="black" d="M1901.02,-380.34C1892.32,-370.25 1882.93,-359.34 1874.27,-349.29"/>
<polygon fill="black" stroke="black" points="1876.7,-346.75 1867.52,-341.45 1871.4,-351.32 1876.7,-346.75"/>
</g>
<!-- HAsfc81_sigma0 -->
<g id="node8" class="node">
<title>HAsfc81_sigma0</title>
<ellipse fill="none" stroke="black" cx="2113" cy="-418.48" rx="80.68" ry="41.09"/>
<text text-anchor="middle" x="2113" y="-431.08" font-family="Times,serif" font-size="14.00">HAsfc81_sigma0</text>
<text text-anchor="middle" x="2113" y="-414.28" font-family="Times,serif" font-size="14.00">~</text>
<text text-anchor="middle" x="2113" y="-397.48" font-family="Times,serif" font-size="14.00">HalfNormal</text>
</g>
<!-- HAsfc81_sigma0&#45;&gt;HAsfc81_b0 -->
<g id="edge2" class="edge">
<title>HAsfc81_sigma0&#45;&gt;HAsfc81_b0</title>
<path fill="none" stroke="black" d="M2053.74,-390.15C2043.54,-385.68 2033.01,-381.2 2023,-377.18 1981.91,-360.68 1934.75,-343.94 1899,-331.69"/>
<polygon fill="black" stroke="black" points="1899.84,-328.27 1889.24,-328.36 1897.58,-334.9 1899.84,-328.27"/>
</g>
<!-- HAsfc81_nuY -->
<g id="node9" class="node">
<title>HAsfc81_nuY</title>
<ellipse fill="none" stroke="black" cx="1350" cy="-200.69" rx="69.08" ry="41.09"/>
<text text-anchor="middle" x="1350" y="-213.29" font-family="Times,serif" font-size="14.00">HAsfc81_nuY</text>
<text text-anchor="middle" x="1350" y="-196.49" font-family="Times,serif" font-size="14.00">~</text>
<text text-anchor="middle" x="1350" y="-179.69" font-family="Times,serif" font-size="14.00">Exponential</text>
</g>
<!-- HAsfc81_nuY&#45;&gt;HAsfc81_y -->
<g id="edge19" class="edge">
<title>HAsfc81_nuY&#45;&gt;HAsfc81_y</title>
<path fill="none" stroke="black" d="M1299.85,-172.12C1290.72,-167.58 1281.17,-163.14 1272,-159.39 1210.81,-134.41 1138.3,-113 1087.54,-99.28"/>
<polygon fill="black" stroke="black" points="1088.26,-95.84 1077.69,-96.64 1086.44,-102.61 1088.26,-95.84"/>
</g>
<!-- HAsfc81_sigma12 -->
<g id="node10" class="node">
<title>HAsfc81_sigma12</title>
<ellipse fill="none" stroke="black" cx="1571" cy="-418.48" rx="85.58" ry="41.09"/>
<text text-anchor="middle" x="1571" y="-431.08" font-family="Times,serif" font-size="14.00">HAsfc81_sigma12</text>
<text text-anchor="middle" x="1571" y="-414.28" font-family="Times,serif" font-size="14.00">~</text>
<text text-anchor="middle" x="1571" y="-397.48" font-family="Times,serif" font-size="14.00">HalfNormal</text>
</g>
<!-- HAsfc81_sigma12&#45;&gt;HAsfc81_M12 -->
<g id="edge11" class="edge">
<title>HAsfc81_sigma12&#45;&gt;HAsfc81_M12</title>
<path fill="none" stroke="black" d="M1509.91,-389.45C1499.07,-385.01 1487.8,-380.72 1477,-377.18 1404.01,-353.26 1317.4,-334.63 1260.92,-323.75"/>
<polygon fill="black" stroke="black" points="1261.56,-320.31 1251.08,-321.87 1260.25,-327.18 1261.56,-320.31"/>
</g>
<!-- HAsfc81_sigma1 -->
<g id="node11" class="node">
<title>HAsfc81_sigma1</title>
<ellipse fill="none" stroke="black" cx="273" cy="-418.48" rx="80.68" ry="41.09"/>
<text text-anchor="middle" x="273" y="-431.08" font-family="Times,serif" font-size="14.00">HAsfc81_sigma1</text>
<text text-anchor="middle" x="273" y="-414.28" font-family="Times,serif" font-size="14.00">~</text>
<text text-anchor="middle" x="273" y="-397.48" font-family="Times,serif" font-size="14.00">HalfNormal</text>
</g>
<!-- HAsfc81_sigma1&#45;&gt;HAsfc81_b1 -->
<g id="edge5" class="edge">
<title>HAsfc81_sigma1&#45;&gt;HAsfc81_b1</title>
<path fill="none" stroke="black" d="M279.57,-377.07C280.95,-368.58 282.41,-359.65 283.78,-351.24"/>
<polygon fill="black" stroke="black" points="287.24,-351.73 285.39,-341.3 280.33,-350.61 287.24,-351.73"/>
</g>
<!-- HAsfc81_mu_b1 -->
<g id="node12" class="node">
<title>HAsfc81_mu_b1</title>
<ellipse fill="none" stroke="black" cx="95" cy="-418.48" rx="79.49" ry="41.09"/>
<text text-anchor="middle" x="95" y="-431.08" font-family="Times,serif" font-size="14.00">HAsfc81_mu_b1</text>
<text text-anchor="middle" x="95" y="-414.28" font-family="Times,serif" font-size="14.00">~</text>
<text text-anchor="middle" x="95" y="-397.48" font-family="Times,serif" font-size="14.00">Normal</text>
</g>
<!-- HAsfc81_mu_b1&#45;&gt;HAsfc81_b1 -->
<g id="edge6" class="edge">
<title>HAsfc81_mu_b1&#45;&gt;HAsfc81_b1</title>
<path fill="none" stroke="black" d="M149.58,-388.23C176.2,-373.96 208.16,-356.84 234.86,-342.53"/>
<polygon fill="black" stroke="black" points="236.53,-345.6 243.69,-337.79 233.23,-339.43 236.53,-345.6"/>
</g>
<!-- HAsfc81_b1&#45;&gt;HAsfc81_mu -->
<g id="edge14" class="edge">
<title>HAsfc81_b1&#45;&gt;HAsfc81_mu</title>
<path fill="none" stroke="black" d="M336.13,-297.67C385.99,-283.76 468,-262.29 540,-249.98 693.48,-223.73 876.97,-210.24 967.61,-204.75"/>
<polygon fill="black" stroke="black" points="967.89,-208.24 977.66,-204.15 967.47,-201.25 967.89,-208.24"/>
</g>
<!-- HAsfc81_mu_b2 -->
<g id="node14" class="node">
<title>HAsfc81_mu_b2</title>
<ellipse fill="none" stroke="black" cx="816" cy="-418.48" rx="79.49" ry="41.09"/>
<text text-anchor="middle" x="816" y="-431.08" font-family="Times,serif" font-size="14.00">HAsfc81_mu_b2</text>
<text text-anchor="middle" x="816" y="-414.28" font-family="Times,serif" font-size="14.00">~</text>
<text text-anchor="middle" x="816" y="-397.48" font-family="Times,serif" font-size="14.00">Normal</text>
</g>
<!-- HAsfc81_mu_b2&#45;&gt;HAsfc81_b2 -->
<g id="edge8" class="edge">
<title>HAsfc81_mu_b2&#45;&gt;HAsfc81_b2</title>
<path fill="none" stroke="black" d="M822.19,-377.07C823.49,-368.58 824.85,-359.65 826.14,-351.24"/>
<polygon fill="black" stroke="black" points="829.61,-351.72 827.66,-341.3 822.69,-350.66 829.61,-351.72"/>
</g>
<!-- HAsfc81_b2_beta -->
<g id="node15" class="node">
<title>HAsfc81_b2_beta</title>
<ellipse fill="none" stroke="black" cx="635" cy="-418.48" rx="83.17" ry="41.09"/>
<text text-anchor="middle" x="635" y="-431.08" font-family="Times,serif" font-size="14.00">HAsfc81_b2_beta</text>
<text text-anchor="middle" x="635" y="-414.28" font-family="Times,serif" font-size="14.00">~</text>
<text text-anchor="middle" x="635" y="-397.48" font-family="Times,serif" font-size="14.00">HalfNormal</text>
</g>
<!-- HAsfc81_b2_beta&#45;&gt;HAsfc81_b2 -->
<g id="edge10" class="edge">
<title>HAsfc81_b2_beta&#45;&gt;HAsfc81_b2</title>
<path fill="none" stroke="black" d="M690.93,-387.81C717.8,-373.55 749.92,-356.52 776.72,-342.31"/>
<polygon fill="black" stroke="black" points="778.39,-345.38 785.58,-337.6 775.11,-339.2 778.39,-345.38"/>
</g>
<!-- HAsfc81_b2&#45;&gt;HAsfc81_mu -->
<g id="edge16" class="edge">
<title>HAsfc81_b2&#45;&gt;HAsfc81_mu</title>
<path fill="none" stroke="black" d="M878.48,-284.52C905.62,-269.07 940.03,-249.49 968.57,-233.24"/>
<polygon fill="black" stroke="black" points="970.66,-236.08 977.62,-228.09 967.2,-229.99 970.66,-236.08"/>
</g>
<!-- HAsfc81_sigma2 -->
<g id="node17" class="node">
<title>HAsfc81_sigma2</title>
<ellipse fill="none" stroke="black" cx="635" cy="-537.07" rx="80.68" ry="41.09"/>
<text text-anchor="middle" x="635" y="-549.67" font-family="Times,serif" font-size="14.00">HAsfc81_sigma2</text>
<text text-anchor="middle" x="635" y="-532.87" font-family="Times,serif" font-size="14.00">~</text>
<text text-anchor="middle" x="635" y="-516.07" font-family="Times,serif" font-size="14.00">HalfNormal</text>
</g>
<!-- HAsfc81_sigma2&#45;&gt;HAsfc81_b2_beta -->
<g id="edge7" class="edge">
<title>HAsfc81_sigma2&#45;&gt;HAsfc81_b2_beta</title>
<path fill="none" stroke="black" d="M635,-495.61C635,-487.39 635,-478.63 635,-470.1"/>
<polygon fill="black" stroke="black" points="638.5,-469.85 635,-459.85 631.5,-469.85 638.5,-469.85"/>
</g>
<!-- HAsfc81_M12&#45;&gt;HAsfc81_mu -->
<g id="edge17" class="edge">
<title>HAsfc81_M12&#45;&gt;HAsfc81_mu</title>
<path fill="none" stroke="black" d="M1154.46,-282.76C1134.03,-270.32 1109.78,-255.49 1088,-241.98 1084.48,-239.8 1080.87,-237.55 1077.22,-235.27"/>
<polygon fill="black" stroke="black" points="1079.04,-232.28 1068.71,-229.94 1075.33,-238.22 1079.04,-232.28"/>
</g>
<!-- HAsfc81_mu_M12 -->
<g id="node19" class="node">
<title>HAsfc81_mu_M12</title>
<ellipse fill="none" stroke="black" cx="1182" cy="-418.48" rx="88.09" ry="41.09"/>
<text text-anchor="middle" x="1182" y="-431.08" font-family="Times,serif" font-size="14.00">HAsfc81_mu_M12</text>
<text text-anchor="middle" x="1182" y="-414.28" font-family="Times,serif" font-size="14.00">~</text>
<text text-anchor="middle" x="1182" y="-397.48" font-family="Times,serif" font-size="14.00">Normal</text>
</g>
<!-- HAsfc81_mu_M12&#45;&gt;HAsfc81_M12 -->
<g id="edge12" class="edge">
<title>HAsfc81_mu_M12&#45;&gt;HAsfc81_M12</title>
<path fill="none" stroke="black" d="M1189.35,-377.07C1190.89,-368.58 1192.51,-359.65 1194.04,-351.24"/>
<polygon fill="black" stroke="black" points="1197.51,-351.77 1195.85,-341.3 1190.62,-350.51 1197.51,-351.77"/>
</g>
<!-- HAsfc81_mu&#45;&gt;HAsfc81_y -->
<g id="edge18" class="edge">
<title>HAsfc81_mu&#45;&gt;HAsfc81_y</title>
<path fill="none" stroke="black" d="M1024,-171.46C1024,-160.08 1024,-146.6 1024,-133.63"/>
<polygon fill="black" stroke="black" points="1027.5,-133.4 1024,-123.4 1020.5,-133.4 1027.5,-133.4"/>
</g>
</g>
</svg>
