<?xml version="1.0" encoding="UTF-8" standalone="no"?>
<!DOCTYPE svg PUBLIC "-//W3C//DTD SVG 1.1//EN"
 "http://www.w3.org/Graphics/SVG/1.1/DTD/svg11.dtd">
<!-- Generated by graphviz version 2.42.1 (20190717.1914)
 -->
<!-- Title: Asfc Pages: 1 -->
<svg width="1779pt" height="602pt"
 viewBox="0.00 0.00 1779.00 602.36" xmlns="http://www.w3.org/2000/svg" xmlns:xlink="http://www.w3.org/1999/xlink">
<g id="graph0" class="graph" transform="scale(1 1) rotate(0) translate(4 598.36)">
<title>Asfc</title>
<polygon fill="white" stroke="transparent" points="-4,4 -4,-598.36 1775,-598.36 1775,4 -4,4"/>
<g id="clust1" class="cluster">
<title>cluster2</title>
<path fill="none" stroke="black" d="M917.9,-249.98C917.9,-249.98 1179.9,-249.98 1179.9,-249.98 1185.9,-249.98 1191.9,-255.98 1191.9,-261.98 1191.9,-261.98 1191.9,-455.77 1191.9,-455.77 1191.9,-461.77 1185.9,-467.77 1179.9,-467.77 1179.9,-467.77 917.9,-467.77 917.9,-467.77 911.9,-467.77 905.9,-461.77 905.9,-455.77 905.9,-455.77 905.9,-261.98 905.9,-261.98 905.9,-255.98 911.9,-249.98 917.9,-249.98"/>
<text text-anchor="middle" x="1180.4" y="-258.18" font-family="Times,serif" font-size="14.00">2</text>
</g>
<g id="clust2" class="cluster">
<title>cluster11</title>
<path fill="none" stroke="black" d="M1352.9,-249.98C1352.9,-249.98 1619.9,-249.98 1619.9,-249.98 1625.9,-249.98 1631.9,-255.98 1631.9,-261.98 1631.9,-261.98 1631.9,-574.36 1631.9,-574.36 1631.9,-580.36 1625.9,-586.36 1619.9,-586.36 1619.9,-586.36 1352.9,-586.36 1352.9,-586.36 1346.9,-586.36 1340.9,-580.36 1340.9,-574.36 1340.9,-574.36 1340.9,-261.98 1340.9,-261.98 1340.9,-255.98 1346.9,-249.98 1352.9,-249.98"/>
<text text-anchor="middle" x="1616.9" y="-258.18" font-family="Times,serif" font-size="14.00">11</text>
</g>
<g id="clust3" class="cluster">
<title>cluster2 x 11</title>
<path fill="none" stroke="black" d="M167.9,-249.98C167.9,-249.98 301.9,-249.98 301.9,-249.98 307.9,-249.98 313.9,-255.98 313.9,-261.98 313.9,-261.98 313.9,-455.77 313.9,-455.77 313.9,-461.77 307.9,-467.77 301.9,-467.77 301.9,-467.77 167.9,-467.77 167.9,-467.77 161.9,-467.77 155.9,-461.77 155.9,-455.77 155.9,-455.77 155.9,-261.98 155.9,-261.98 155.9,-255.98 161.9,-249.98 167.9,-249.98"/>
<text text-anchor="middle" x="288.4" y="-258.18" font-family="Times,serif" font-size="14.00">2 x 11</text>
</g>
<g id="clust4" class="cluster">
<title>cluster280</title>
<path fill="none" stroke="black" d="M896.9,-8C896.9,-8 984.9,-8 984.9,-8 990.9,-8 996.9,-14 996.9,-20 996.9,-20 996.9,-225.89 996.9,-225.89 996.9,-231.89 990.9,-237.89 984.9,-237.89 984.9,-237.89 896.9,-237.89 896.9,-237.89 890.9,-237.89 884.9,-231.89 884.9,-225.89 884.9,-225.89 884.9,-20 884.9,-20 884.9,-14 890.9,-8 896.9,-8"/>
<text text-anchor="middle" x="978.4" y="-16.2" font-family="Times,serif" font-size="14.00">280</text>
</g>
<!-- Asfc_M12_dist -->
<g id="node1" class="node">
<title>Asfc_M12_dist</title>
<ellipse fill="none" stroke="black" cx="72.9" cy="-418.48" rx="72.8" ry="41.09"/>
<text text-anchor="middle" x="72.9" y="-431.08" font-family="Times,serif" font-size="14.00">Asfc_M12_dist</text>
<text text-anchor="middle" x="72.9" y="-414.28" font-family="Times,serif" font-size="14.00">~</text>
<text text-anchor="middle" x="72.9" y="-397.48" font-family="Times,serif" font-size="14.00">Normal</text>
</g>
<!-- Asfc_M12 -->
<g id="node19" class="node">
<title>Asfc_M12</title>
<polygon fill="none" stroke="black" points="293.1,-341.38 200.7,-341.38 200.7,-282.58 293.1,-282.58 293.1,-341.38"/>
<text text-anchor="middle" x="246.9" y="-324.58" font-family="Times,serif" font-size="14.00">Asfc_M12</text>
<text text-anchor="middle" x="246.9" y="-307.78" font-family="Times,serif" font-size="14.00">~</text>
<text text-anchor="middle" x="246.9" y="-290.98" font-family="Times,serif" font-size="14.00">Deterministic</text>
</g>
<!-- Asfc_M12_dist&#45;&gt;Asfc_M12 -->
<g id="edge13" class="edge">
<title>Asfc_M12_dist&#45;&gt;Asfc_M12</title>
<path fill="none" stroke="black" d="M122.3,-387.81C144.03,-374.76 169.63,-359.38 191.97,-345.97"/>
<polygon fill="black" stroke="black" points="193.9,-348.89 200.67,-340.74 190.29,-342.89 193.9,-348.89"/>
</g>
<!-- Asfc_sigma12 -->
<g id="node2" class="node">
<title>Asfc_sigma12</title>
<ellipse fill="none" stroke="black" cx="392.9" cy="-418.48" rx="68.49" ry="41.09"/>
<text text-anchor="middle" x="392.9" y="-431.08" font-family="Times,serif" font-size="14.00">Asfc_sigma12</text>
<text text-anchor="middle" x="392.9" y="-414.28" font-family="Times,serif" font-size="14.00">~</text>
<text text-anchor="middle" x="392.9" y="-397.48" font-family="Times,serif" font-size="14.00">HalfNormal</text>
</g>
<!-- Asfc_sigma12&#45;&gt;Asfc_M12 -->
<g id="edge11" class="edge">
<title>Asfc_sigma12&#45;&gt;Asfc_M12</title>
<path fill="none" stroke="black" d="M349.49,-386.41C332.3,-374.1 312.47,-359.91 294.86,-347.3"/>
<polygon fill="black" stroke="black" points="296.58,-344.23 286.41,-341.26 292.5,-349.92 296.58,-344.23"/>
</g>
<!-- Asfc_sigmaY -->
<g id="node3" class="node">
<title>Asfc_sigmaY</title>
<ellipse fill="none" stroke="black" cx="1070.9" cy="-200.69" rx="65.99" ry="41.09"/>
<text text-anchor="middle" x="1070.9" y="-213.29" font-family="Times,serif" font-size="14.00">Asfc_sigmaY</text>
<text text-anchor="middle" x="1070.9" y="-196.49" font-family="Times,serif" font-size="14.00">~</text>
<text text-anchor="middle" x="1070.9" y="-179.69" font-family="Times,serif" font-size="14.00">Gamma</text>
</g>
<!-- Asfc_y -->
<g id="node20" class="node">
<title>Asfc_y</title>
<ellipse fill="lightgrey" stroke="black" cx="940.9" cy="-82.1" rx="47.72" ry="41.09"/>
<text text-anchor="middle" x="940.9" y="-94.7" font-family="Times,serif" font-size="14.00">Asfc_y</text>
<text text-anchor="middle" x="940.9" y="-77.9" font-family="Times,serif" font-size="14.00">~</text>
<text text-anchor="middle" x="940.9" y="-61.1" font-family="Times,serif" font-size="14.00">StudentT</text>
</g>
<!-- Asfc_sigmaY&#45;&gt;Asfc_y -->
<g id="edge19" class="edge">
<title>Asfc_sigmaY&#45;&gt;Asfc_y</title>
<path fill="none" stroke="black" d="M1033.65,-166.28C1017.25,-151.57 997.96,-134.26 981.22,-119.26"/>
<polygon fill="black" stroke="black" points="983.52,-116.61 973.73,-112.54 978.84,-121.82 983.52,-116.61"/>
</g>
<!-- Asfc_sigma0 -->
<g id="node4" class="node">
<title>Asfc_sigma0</title>
<ellipse fill="none" stroke="black" cx="542.9" cy="-418.48" rx="63.59" ry="41.09"/>
<text text-anchor="middle" x="542.9" y="-431.08" font-family="Times,serif" font-size="14.00">Asfc_sigma0</text>
<text text-anchor="middle" x="542.9" y="-414.28" font-family="Times,serif" font-size="14.00">~</text>
<text text-anchor="middle" x="542.9" y="-397.48" font-family="Times,serif" font-size="14.00">HalfNormal</text>
</g>
<!-- Asfc_b0 -->
<g id="node9" class="node">
<title>Asfc_b0</title>
<polygon fill="none" stroke="black" points="807.1,-341.38 714.7,-341.38 714.7,-282.58 807.1,-282.58 807.1,-341.38"/>
<text text-anchor="middle" x="760.9" y="-324.58" font-family="Times,serif" font-size="14.00">Asfc_b0</text>
<text text-anchor="middle" x="760.9" y="-307.78" font-family="Times,serif" font-size="14.00">~</text>
<text text-anchor="middle" x="760.9" y="-290.98" font-family="Times,serif" font-size="14.00">Deterministic</text>
</g>
<!-- Asfc_sigma0&#45;&gt;Asfc_b0 -->
<g id="edge2" class="edge">
<title>Asfc_sigma0&#45;&gt;Asfc_b0</title>
<path fill="none" stroke="black" d="M590.1,-390.64C598.62,-386.02 607.47,-381.36 615.9,-377.18 645.02,-362.73 678.13,-347.95 705.34,-336.22"/>
<polygon fill="black" stroke="black" points="706.9,-339.36 714.71,-332.21 704.14,-332.93 706.9,-339.36"/>
</g>
<!-- Asfc_b1_dist -->
<g id="node5" class="node">
<title>Asfc_b1_dist</title>
<ellipse fill="none" stroke="black" cx="1266.9" cy="-418.48" rx="64.2" ry="41.09"/>
<text text-anchor="middle" x="1266.9" y="-431.08" font-family="Times,serif" font-size="14.00">Asfc_b1_dist</text>
<text text-anchor="middle" x="1266.9" y="-414.28" font-family="Times,serif" font-size="14.00">~</text>
<text text-anchor="middle" x="1266.9" y="-397.48" font-family="Times,serif" font-size="14.00">Normal</text>
</g>
<!-- Asfc_b1 -->
<g id="node12" class="node">
<title>Asfc_b1</title>
<polygon fill="none" stroke="black" points="1096.1,-341.38 1003.7,-341.38 1003.7,-282.58 1096.1,-282.58 1096.1,-341.38"/>
<text text-anchor="middle" x="1049.9" y="-324.58" font-family="Times,serif" font-size="14.00">Asfc_b1</text>
<text text-anchor="middle" x="1049.9" y="-307.78" font-family="Times,serif" font-size="14.00">~</text>
<text text-anchor="middle" x="1049.9" y="-290.98" font-family="Times,serif" font-size="14.00">Deterministic</text>
</g>
<!-- Asfc_b1_dist&#45;&gt;Asfc_b1 -->
<g id="edge5" class="edge">
<title>Asfc_b1_dist&#45;&gt;Asfc_b1</title>
<path fill="none" stroke="black" d="M1219.91,-389.92C1211.97,-385.52 1203.75,-381.12 1195.9,-377.18 1166.57,-362.46 1133.1,-347.6 1105.62,-335.9"/>
<polygon fill="black" stroke="black" points="1106.73,-332.57 1096.16,-331.9 1104,-339.02 1106.73,-332.57"/>
</g>
<!-- Asfc_b0_dist -->
<g id="node6" class="node">
<title>Asfc_b0_dist</title>
<ellipse fill="none" stroke="black" cx="688.9" cy="-418.48" rx="64.2" ry="41.09"/>
<text text-anchor="middle" x="688.9" y="-431.08" font-family="Times,serif" font-size="14.00">Asfc_b0_dist</text>
<text text-anchor="middle" x="688.9" y="-414.28" font-family="Times,serif" font-size="14.00">~</text>
<text text-anchor="middle" x="688.9" y="-397.48" font-family="Times,serif" font-size="14.00">Normal</text>
</g>
<!-- Asfc_b0_dist&#45;&gt;Asfc_b0 -->
<g id="edge1" class="edge">
<title>Asfc_b0_dist&#45;&gt;Asfc_b0</title>
<path fill="none" stroke="black" d="M714.49,-380.34C721.3,-370.45 728.66,-359.77 735.47,-349.89"/>
<polygon fill="black" stroke="black" points="738.49,-351.67 741.28,-341.45 732.73,-347.7 738.49,-351.67"/>
</g>
<!-- Asfc_b2_dist -->
<g id="node7" class="node">
<title>Asfc_b2_dist</title>
<ellipse fill="none" stroke="black" cx="1706.9" cy="-418.48" rx="64.2" ry="41.09"/>
<text text-anchor="middle" x="1706.9" y="-431.08" font-family="Times,serif" font-size="14.00">Asfc_b2_dist</text>
<text text-anchor="middle" x="1706.9" y="-414.28" font-family="Times,serif" font-size="14.00">~</text>
<text text-anchor="middle" x="1706.9" y="-397.48" font-family="Times,serif" font-size="14.00">Gumbel</text>
</g>
<!-- Asfc_b2 -->
<g id="node16" class="node">
<title>Asfc_b2</title>
<polygon fill="none" stroke="black" points="1534.1,-341.38 1441.7,-341.38 1441.7,-282.58 1534.1,-282.58 1534.1,-341.38"/>
<text text-anchor="middle" x="1487.9" y="-324.58" font-family="Times,serif" font-size="14.00">Asfc_b2</text>
<text text-anchor="middle" x="1487.9" y="-307.78" font-family="Times,serif" font-size="14.00">~</text>
<text text-anchor="middle" x="1487.9" y="-290.98" font-family="Times,serif" font-size="14.00">Deterministic</text>
</g>
<!-- Asfc_b2_dist&#45;&gt;Asfc_b2 -->
<g id="edge10" class="edge">
<title>Asfc_b2_dist&#45;&gt;Asfc_b2</title>
<path fill="none" stroke="black" d="M1660.31,-390.1C1652.25,-385.63 1643.89,-381.17 1635.9,-377.18 1605.84,-362.18 1571.46,-347.15 1543.41,-335.4"/>
<polygon fill="black" stroke="black" points="1544.73,-332.16 1534.15,-331.55 1542.04,-338.62 1544.73,-332.16"/>
</g>
<!-- Asfc_nuY -->
<g id="node8" class="node">
<title>Asfc_nuY</title>
<ellipse fill="none" stroke="black" cx="1213.9" cy="-200.69" rx="59.3" ry="41.09"/>
<text text-anchor="middle" x="1213.9" y="-213.29" font-family="Times,serif" font-size="14.00">Asfc_nuY</text>
<text text-anchor="middle" x="1213.9" y="-196.49" font-family="Times,serif" font-size="14.00">~</text>
<text text-anchor="middle" x="1213.9" y="-179.69" font-family="Times,serif" font-size="14.00">Exponential</text>
</g>
<!-- Asfc_nuY&#45;&gt;Asfc_y -->
<g id="edge18" class="edge">
<title>Asfc_nuY&#45;&gt;Asfc_y</title>
<path fill="none" stroke="black" d="M1170.63,-172.49C1162.55,-167.86 1154.07,-163.29 1145.9,-159.39 1096.25,-135.68 1037.14,-114.37 995.18,-100.34"/>
<polygon fill="black" stroke="black" points="996.02,-96.93 985.43,-97.1 993.82,-103.57 996.02,-96.93"/>
</g>
<!-- Asfc_mu -->
<g id="node21" class="node">
<title>Asfc_mu</title>
<polygon fill="none" stroke="black" points="987.1,-230.09 894.7,-230.09 894.7,-171.28 987.1,-171.28 987.1,-230.09"/>
<text text-anchor="middle" x="940.9" y="-213.29" font-family="Times,serif" font-size="14.00">Asfc_mu</text>
<text text-anchor="middle" x="940.9" y="-196.49" font-family="Times,serif" font-size="14.00">~</text>
<text text-anchor="middle" x="940.9" y="-179.69" font-family="Times,serif" font-size="14.00">Deterministic</text>
</g>
<!-- Asfc_b0&#45;&gt;Asfc_mu -->
<g id="edge14" class="edge">
<title>Asfc_b0&#45;&gt;Asfc_mu</title>
<path fill="none" stroke="black" d="M807.25,-282.83C831.3,-268.24 860.82,-250.31 885.99,-235.02"/>
<polygon fill="black" stroke="black" points="887.97,-237.92 894.7,-229.74 884.34,-231.93 887.97,-237.92"/>
</g>
<!-- Asfc_mu_b0 -->
<g id="node10" class="node">
<title>Asfc_mu_b0</title>
<ellipse fill="none" stroke="black" cx="833.9" cy="-418.48" rx="62.4" ry="41.09"/>
<text text-anchor="middle" x="833.9" y="-431.08" font-family="Times,serif" font-size="14.00">Asfc_mu_b0</text>
<text text-anchor="middle" x="833.9" y="-414.28" font-family="Times,serif" font-size="14.00">~</text>
<text text-anchor="middle" x="833.9" y="-397.48" font-family="Times,serif" font-size="14.00">Normal</text>
</g>
<!-- Asfc_mu_b0&#45;&gt;Asfc_b0 -->
<g id="edge3" class="edge">
<title>Asfc_mu_b0&#45;&gt;Asfc_b0</title>
<path fill="none" stroke="black" d="M808.16,-380.63C801.11,-370.53 793.46,-359.59 786.42,-349.51"/>
<polygon fill="black" stroke="black" points="789.27,-347.47 780.67,-341.28 783.53,-351.48 789.27,-347.47"/>
</g>
<!-- Asfc_mu_b1 -->
<g id="node11" class="node">
<title>Asfc_mu_b1</title>
<ellipse fill="none" stroke="black" cx="1121.9" cy="-418.48" rx="62.4" ry="41.09"/>
<text text-anchor="middle" x="1121.9" y="-431.08" font-family="Times,serif" font-size="14.00">Asfc_mu_b1</text>
<text text-anchor="middle" x="1121.9" y="-414.28" font-family="Times,serif" font-size="14.00">~</text>
<text text-anchor="middle" x="1121.9" y="-397.48" font-family="Times,serif" font-size="14.00">Normal</text>
</g>
<!-- Asfc_mu_b1&#45;&gt;Asfc_b1 -->
<g id="edge4" class="edge">
<title>Asfc_mu_b1&#45;&gt;Asfc_b1</title>
<path fill="none" stroke="black" d="M1096.52,-380.63C1089.63,-370.64 1082.17,-359.81 1075.28,-349.81"/>
<polygon fill="black" stroke="black" points="1077.96,-347.53 1069.4,-341.28 1072.19,-351.5 1077.96,-347.53"/>
</g>
<!-- Asfc_b1&#45;&gt;Asfc_mu -->
<g id="edge15" class="edge">
<title>Asfc_b1&#45;&gt;Asfc_mu</title>
<path fill="none" stroke="black" d="M1021.55,-282.55C1007.8,-268.76 991.13,-252.05 976.53,-237.41"/>
<polygon fill="black" stroke="black" points="978.65,-234.58 969.11,-229.97 973.7,-239.53 978.65,-234.58"/>
</g>
<!-- Asfc_sigma1 -->
<g id="node13" class="node">
<title>Asfc_sigma1</title>
<ellipse fill="none" stroke="black" cx="977.9" cy="-418.48" rx="63.59" ry="41.09"/>
<text text-anchor="middle" x="977.9" y="-431.08" font-family="Times,serif" font-size="14.00">Asfc_sigma1</text>
<text text-anchor="middle" x="977.9" y="-414.28" font-family="Times,serif" font-size="14.00">~</text>
<text text-anchor="middle" x="977.9" y="-397.48" font-family="Times,serif" font-size="14.00">HalfNormal</text>
</g>
<!-- Asfc_sigma1&#45;&gt;Asfc_b1 -->
<g id="edge6" class="edge">
<title>Asfc_sigma1&#45;&gt;Asfc_b1</title>
<path fill="none" stroke="black" d="M1003.49,-380.34C1010.3,-370.45 1017.66,-359.77 1024.47,-349.89"/>
<polygon fill="black" stroke="black" points="1027.49,-351.67 1030.28,-341.45 1021.73,-347.7 1027.49,-351.67"/>
</g>
<!-- Asfc_mu_b2 -->
<g id="node14" class="node">
<title>Asfc_mu_b2</title>
<ellipse fill="none" stroke="black" cx="1561.9" cy="-418.48" rx="62.4" ry="41.09"/>
<text text-anchor="middle" x="1561.9" y="-431.08" font-family="Times,serif" font-size="14.00">Asfc_mu_b2</text>
<text text-anchor="middle" x="1561.9" y="-414.28" font-family="Times,serif" font-size="14.00">~</text>
<text text-anchor="middle" x="1561.9" y="-397.48" font-family="Times,serif" font-size="14.00">Normal</text>
</g>
<!-- Asfc_mu_b2&#45;&gt;Asfc_b2 -->
<g id="edge9" class="edge">
<title>Asfc_mu_b2&#45;&gt;Asfc_b2</title>
<path fill="none" stroke="black" d="M1535.81,-380.63C1528.66,-370.53 1520.91,-359.59 1513.77,-349.51"/>
<polygon fill="black" stroke="black" points="1516.58,-347.42 1507.94,-341.28 1510.87,-351.47 1516.58,-347.42"/>
</g>
<!-- Asfc_b2_beta -->
<g id="node15" class="node">
<title>Asfc_b2_beta</title>
<ellipse fill="none" stroke="black" cx="1414.9" cy="-418.48" rx="66.08" ry="41.09"/>
<text text-anchor="middle" x="1414.9" y="-431.08" font-family="Times,serif" font-size="14.00">Asfc_b2_beta</text>
<text text-anchor="middle" x="1414.9" y="-414.28" font-family="Times,serif" font-size="14.00">~</text>
<text text-anchor="middle" x="1414.9" y="-397.48" font-family="Times,serif" font-size="14.00">HalfNormal</text>
</g>
<!-- Asfc_b2_beta&#45;&gt;Asfc_b2 -->
<g id="edge8" class="edge">
<title>Asfc_b2_beta&#45;&gt;Asfc_b2</title>
<path fill="none" stroke="black" d="M1440.84,-380.34C1447.75,-370.45 1455.21,-359.77 1462.12,-349.89"/>
<polygon fill="black" stroke="black" points="1465.15,-351.66 1468.01,-341.45 1459.41,-347.65 1465.15,-351.66"/>
</g>
<!-- Asfc_b2&#45;&gt;Asfc_mu -->
<g id="edge16" class="edge">
<title>Asfc_b2&#45;&gt;Asfc_mu</title>
<path fill="none" stroke="black" d="M1441.77,-298.86C1384.55,-284.41 1283.79,-260.84 1195.9,-249.98 1151.76,-244.52 1037.89,-256.65 995.9,-241.98 991.07,-240.29 986.29,-238.02 981.7,-235.42"/>
<polygon fill="black" stroke="black" points="983.46,-232.39 973.13,-230.06 979.75,-238.32 983.46,-232.39"/>
</g>
<!-- Asfc_sigma2 -->
<g id="node17" class="node">
<title>Asfc_sigma2</title>
<ellipse fill="none" stroke="black" cx="1414.9" cy="-537.07" rx="63.59" ry="41.09"/>
<text text-anchor="middle" x="1414.9" y="-549.67" font-family="Times,serif" font-size="14.00">Asfc_sigma2</text>
<text text-anchor="middle" x="1414.9" y="-532.87" font-family="Times,serif" font-size="14.00">~</text>
<text text-anchor="middle" x="1414.9" y="-516.07" font-family="Times,serif" font-size="14.00">HalfNormal</text>
</g>
<!-- Asfc_sigma2&#45;&gt;Asfc_b2_beta -->
<g id="edge7" class="edge">
<title>Asfc_sigma2&#45;&gt;Asfc_b2_beta</title>
<path fill="none" stroke="black" d="M1414.9,-495.61C1414.9,-487.39 1414.9,-478.63 1414.9,-470.1"/>
<polygon fill="black" stroke="black" points="1418.4,-469.85 1414.9,-459.85 1411.4,-469.85 1418.4,-469.85"/>
</g>
<!-- Asfc_mu_M12 -->
<g id="node18" class="node">
<title>Asfc_mu_M12</title>
<ellipse fill="none" stroke="black" cx="234.9" cy="-418.48" rx="71.5" ry="41.09"/>
<text text-anchor="middle" x="234.9" y="-431.08" font-family="Times,serif" font-size="14.00">Asfc_mu_M12</text>
<text text-anchor="middle" x="234.9" y="-414.28" font-family="Times,serif" font-size="14.00">~</text>
<text text-anchor="middle" x="234.9" y="-397.48" font-family="Times,serif" font-size="14.00">Normal</text>
</g>
<!-- Asfc_mu_M12&#45;&gt;Asfc_M12 -->
<g id="edge12" class="edge">
<title>Asfc_mu_M12&#45;&gt;Asfc_M12</title>
<path fill="none" stroke="black" d="M239.54,-377.07C240.52,-368.58 241.54,-359.65 242.51,-351.24"/>
<polygon fill="black" stroke="black" points="245.98,-351.64 243.65,-341.3 239.03,-350.84 245.98,-351.64"/>
</g>
<!-- Asfc_M12&#45;&gt;Asfc_mu -->
<g id="edge17" class="edge">
<title>Asfc_M12&#45;&gt;Asfc_mu</title>
<path fill="none" stroke="black" d="M293.24,-303.68C416.22,-284.31 750.55,-231.66 884.39,-210.58"/>
<polygon fill="black" stroke="black" points="885.11,-214.02 894.44,-209 884.02,-207.1 885.11,-214.02"/>
</g>
<!-- Asfc_mu&#45;&gt;Asfc_y -->
<g id="edge20" class="edge">
<title>Asfc_mu&#45;&gt;Asfc_y</title>
<path fill="none" stroke="black" d="M940.9,-171.46C940.9,-160.08 940.9,-146.6 940.9,-133.63"/>
<polygon fill="black" stroke="black" points="944.4,-133.4 940.9,-123.4 937.4,-133.4 944.4,-133.4"/>
</g>
</g>
</svg>
