<?xml version="1.0" encoding="UTF-8" standalone="no"?>
<!DOCTYPE svg PUBLIC "-//W3C//DTD SVG 1.1//EN"
 "http://www.w3.org/Graphics/SVG/1.1/DTD/svg11.dtd">
<!-- Generated by graphviz version 2.42.1 (20190717.1914)
 -->
<!-- Title: HAsfc9 Pages: 1 -->
<svg width="2085pt" height="602pt"
 viewBox="0.00 0.00 2085.20 602.36" xmlns="http://www.w3.org/2000/svg" xmlns:xlink="http://www.w3.org/1999/xlink">
<g id="graph0" class="graph" transform="scale(1 1) rotate(0) translate(4 598.36)">
<title>HAsfc9</title>
<polygon fill="white" stroke="transparent" points="-4,4 -4,-598.36 2081.2,-598.36 2081.2,4 -4,4"/>
<g id="clust1" class="cluster">
<title>cluster2</title>
<path fill="none" stroke="black" d="M20,-249.98C20,-249.98 331,-249.98 331,-249.98 337,-249.98 343,-255.98 343,-261.98 343,-261.98 343,-455.77 343,-455.77 343,-461.77 337,-467.77 331,-467.77 331,-467.77 20,-467.77 20,-467.77 14,-467.77 8,-461.77 8,-455.77 8,-455.77 8,-261.98 8,-261.98 8,-255.98 14,-249.98 20,-249.98"/>
<text text-anchor="middle" x="331.5" y="-258.18" font-family="Times,serif" font-size="14.00">2</text>
</g>
<g id="clust2" class="cluster">
<title>cluster11</title>
<path fill="none" stroke="black" d="M528,-249.98C528,-249.98 844,-249.98 844,-249.98 850,-249.98 856,-255.98 856,-261.98 856,-261.98 856,-574.36 856,-574.36 856,-580.36 850,-586.36 844,-586.36 844,-586.36 528,-586.36 528,-586.36 522,-586.36 516,-580.36 516,-574.36 516,-574.36 516,-261.98 516,-261.98 516,-255.98 522,-249.98 528,-249.98"/>
<text text-anchor="middle" x="841" y="-258.18" font-family="Times,serif" font-size="14.00">11</text>
</g>
<g id="clust3" class="cluster">
<title>cluster2 x 11</title>
<path fill="none" stroke="black" d="M1041,-249.98C1041,-249.98 1199,-249.98 1199,-249.98 1205,-249.98 1211,-255.98 1211,-261.98 1211,-261.98 1211,-455.77 1211,-455.77 1211,-461.77 1205,-467.77 1199,-467.77 1199,-467.77 1041,-467.77 1041,-467.77 1035,-467.77 1029,-461.77 1029,-455.77 1029,-455.77 1029,-261.98 1029,-261.98 1029,-255.98 1035,-249.98 1041,-249.98"/>
<text text-anchor="middle" x="1185.5" y="-258.18" font-family="Times,serif" font-size="14.00">2 x 11</text>
</g>
<g id="clust4" class="cluster">
<title>cluster280</title>
<path fill="none" stroke="black" d="M921,-8C921,-8 1017,-8 1017,-8 1023,-8 1029,-14 1029,-20 1029,-20 1029,-225.89 1029,-225.89 1029,-231.89 1023,-237.89 1017,-237.89 1017,-237.89 921,-237.89 921,-237.89 915,-237.89 909,-231.89 909,-225.89 909,-225.89 909,-20 909,-20 909,-14 915,-8 921,-8"/>
<text text-anchor="middle" x="1010.5" y="-16.2" font-family="Times,serif" font-size="14.00">280</text>
</g>
<!-- HAsfc9_sigma0 -->
<g id="node1" class="node">
<title>HAsfc9_sigma0</title>
<ellipse fill="none" stroke="black" cx="1664" cy="-418.48" rx="75.78" ry="41.09"/>
<text text-anchor="middle" x="1664" y="-431.08" font-family="Times,serif" font-size="14.00">HAsfc9_sigma0</text>
<text text-anchor="middle" x="1664" y="-414.28" font-family="Times,serif" font-size="14.00">~</text>
<text text-anchor="middle" x="1664" y="-397.48" font-family="Times,serif" font-size="14.00">HalfNormal</text>
</g>
<!-- HAsfc9_b0 -->
<g id="node3" class="node">
<title>HAsfc9_b0</title>
<polygon fill="none" stroke="black" points="1794.2,-341.38 1701.8,-341.38 1701.8,-282.58 1794.2,-282.58 1794.2,-341.38"/>
<text text-anchor="middle" x="1748" y="-324.58" font-family="Times,serif" font-size="14.00">HAsfc9_b0</text>
<text text-anchor="middle" x="1748" y="-307.78" font-family="Times,serif" font-size="14.00">~</text>
<text text-anchor="middle" x="1748" y="-290.98" font-family="Times,serif" font-size="14.00">Deterministic</text>
</g>
<!-- HAsfc9_sigma0&#45;&gt;HAsfc9_b0 -->
<g id="edge1" class="edge">
<title>HAsfc9_sigma0&#45;&gt;HAsfc9_b0</title>
<path fill="none" stroke="black" d="M1693.85,-380.34C1701.96,-370.25 1710.74,-359.34 1718.81,-349.29"/>
<polygon fill="black" stroke="black" points="1721.57,-351.44 1725.11,-341.45 1716.12,-347.06 1721.57,-351.44"/>
</g>
<!-- HAsfc9_mu_b0 -->
<g id="node2" class="node">
<title>HAsfc9_mu_b0</title>
<ellipse fill="none" stroke="black" cx="1832" cy="-418.48" rx="74.59" ry="41.09"/>
<text text-anchor="middle" x="1832" y="-431.08" font-family="Times,serif" font-size="14.00">HAsfc9_mu_b0</text>
<text text-anchor="middle" x="1832" y="-414.28" font-family="Times,serif" font-size="14.00">~</text>
<text text-anchor="middle" x="1832" y="-397.48" font-family="Times,serif" font-size="14.00">Normal</text>
</g>
<!-- HAsfc9_mu_b0&#45;&gt;HAsfc9_b0 -->
<g id="edge3" class="edge">
<title>HAsfc9_mu_b0&#45;&gt;HAsfc9_b0</title>
<path fill="none" stroke="black" d="M1802.15,-380.34C1794.04,-370.25 1785.26,-359.34 1777.19,-349.29"/>
<polygon fill="black" stroke="black" points="1779.88,-347.06 1770.89,-341.45 1774.43,-351.44 1779.88,-347.06"/>
</g>
<!-- HAsfc9_mu -->
<g id="node21" class="node">
<title>HAsfc9_mu</title>
<polygon fill="none" stroke="black" points="1015.2,-230.09 922.8,-230.09 922.8,-171.28 1015.2,-171.28 1015.2,-230.09"/>
<text text-anchor="middle" x="969" y="-213.29" font-family="Times,serif" font-size="14.00">HAsfc9_mu</text>
<text text-anchor="middle" x="969" y="-196.49" font-family="Times,serif" font-size="14.00">~</text>
<text text-anchor="middle" x="969" y="-179.69" font-family="Times,serif" font-size="14.00">Deterministic</text>
</g>
<!-- HAsfc9_b0&#45;&gt;HAsfc9_mu -->
<g id="edge15" class="edge">
<title>HAsfc9_b0&#45;&gt;HAsfc9_mu</title>
<path fill="none" stroke="black" d="M1701.77,-304.57C1609.44,-292 1395.6,-264.16 1215,-249.98 1173.53,-246.72 1067.47,-255.1 1028,-241.98 1022.78,-240.24 1017.59,-237.9 1012.59,-235.21"/>
<polygon fill="black" stroke="black" points="1014.2,-232.1 1003.81,-230.05 1010.66,-238.13 1014.2,-232.1"/>
</g>
<!-- HAsfc9_M12_dist -->
<g id="node4" class="node">
<title>HAsfc9_M12_dist</title>
<ellipse fill="none" stroke="black" cx="1306" cy="-418.48" rx="84.99" ry="41.09"/>
<text text-anchor="middle" x="1306" y="-431.08" font-family="Times,serif" font-size="14.00">HAsfc9_M12_dist</text>
<text text-anchor="middle" x="1306" y="-414.28" font-family="Times,serif" font-size="14.00">~</text>
<text text-anchor="middle" x="1306" y="-397.48" font-family="Times,serif" font-size="14.00">Normal</text>
</g>
<!-- HAsfc9_M12 -->
<g id="node19" class="node">
<title>HAsfc9_M12</title>
<polygon fill="none" stroke="black" points="1184.48,-341.38 1091.52,-341.38 1091.52,-282.58 1184.48,-282.58 1184.48,-341.38"/>
<text text-anchor="middle" x="1138" y="-324.58" font-family="Times,serif" font-size="14.00">HAsfc9_M12</text>
<text text-anchor="middle" x="1138" y="-307.78" font-family="Times,serif" font-size="14.00">~</text>
<text text-anchor="middle" x="1138" y="-290.98" font-family="Times,serif" font-size="14.00">Deterministic</text>
</g>
<!-- HAsfc9_M12_dist&#45;&gt;HAsfc9_M12 -->
<g id="edge11" class="edge">
<title>HAsfc9_M12_dist&#45;&gt;HAsfc9_M12</title>
<path fill="none" stroke="black" d="M1254.68,-385.56C1234.93,-373.27 1212.32,-359.21 1192.29,-346.75"/>
<polygon fill="black" stroke="black" points="1193.93,-343.65 1183.59,-341.34 1190.23,-349.59 1193.93,-343.65"/>
</g>
<!-- HAsfc9_b1_dist -->
<g id="node5" class="node">
<title>HAsfc9_b1_dist</title>
<ellipse fill="none" stroke="black" cx="429" cy="-418.48" rx="76.39" ry="41.09"/>
<text text-anchor="middle" x="429" y="-431.08" font-family="Times,serif" font-size="14.00">HAsfc9_b1_dist</text>
<text text-anchor="middle" x="429" y="-414.28" font-family="Times,serif" font-size="14.00">~</text>
<text text-anchor="middle" x="429" y="-397.48" font-family="Times,serif" font-size="14.00">Normal</text>
</g>
<!-- HAsfc9_b1 -->
<g id="node11" class="node">
<title>HAsfc9_b1</title>
<polygon fill="none" stroke="black" points="320.2,-341.38 227.8,-341.38 227.8,-282.58 320.2,-282.58 320.2,-341.38"/>
<text text-anchor="middle" x="274" y="-324.58" font-family="Times,serif" font-size="14.00">HAsfc9_b1</text>
<text text-anchor="middle" x="274" y="-307.78" font-family="Times,serif" font-size="14.00">~</text>
<text text-anchor="middle" x="274" y="-290.98" font-family="Times,serif" font-size="14.00">Deterministic</text>
</g>
<!-- HAsfc9_b1_dist&#45;&gt;HAsfc9_b1 -->
<g id="edge4" class="edge">
<title>HAsfc9_b1_dist&#45;&gt;HAsfc9_b1</title>
<path fill="none" stroke="black" d="M382.07,-385.84C363.84,-373.55 342.91,-359.44 324.36,-346.93"/>
<polygon fill="black" stroke="black" points="326.27,-344 316.03,-341.31 322.36,-349.8 326.27,-344"/>
</g>
<!-- HAsfc9_nuY -->
<g id="node6" class="node">
<title>HAsfc9_nuY</title>
<ellipse fill="none" stroke="black" cx="1101" cy="-200.69" rx="64.18" ry="41.09"/>
<text text-anchor="middle" x="1101" y="-213.29" font-family="Times,serif" font-size="14.00">HAsfc9_nuY</text>
<text text-anchor="middle" x="1101" y="-196.49" font-family="Times,serif" font-size="14.00">~</text>
<text text-anchor="middle" x="1101" y="-179.69" font-family="Times,serif" font-size="14.00">Exponential</text>
</g>
<!-- HAsfc9_y -->
<g id="node20" class="node">
<title>HAsfc9_y</title>
<ellipse fill="lightgrey" stroke="black" cx="969" cy="-82.1" rx="51.99" ry="41.09"/>
<text text-anchor="middle" x="969" y="-94.7" font-family="Times,serif" font-size="14.00">HAsfc9_y</text>
<text text-anchor="middle" x="969" y="-77.9" font-family="Times,serif" font-size="14.00">~</text>
<text text-anchor="middle" x="969" y="-61.1" font-family="Times,serif" font-size="14.00">StudentT</text>
</g>
<!-- HAsfc9_nuY&#45;&gt;HAsfc9_y -->
<g id="edge18" class="edge">
<title>HAsfc9_nuY&#45;&gt;HAsfc9_y</title>
<path fill="none" stroke="black" d="M1063.88,-166.9C1047.48,-152.41 1028.12,-135.31 1011.17,-120.35"/>
<polygon fill="black" stroke="black" points="1013.39,-117.63 1003.58,-113.64 1008.76,-122.88 1013.39,-117.63"/>
</g>
<!-- HAsfc9_b2_dist -->
<g id="node7" class="node">
<title>HAsfc9_b2_dist</title>
<ellipse fill="none" stroke="black" cx="942" cy="-418.48" rx="76.39" ry="41.09"/>
<text text-anchor="middle" x="942" y="-431.08" font-family="Times,serif" font-size="14.00">HAsfc9_b2_dist</text>
<text text-anchor="middle" x="942" y="-414.28" font-family="Times,serif" font-size="14.00">~</text>
<text text-anchor="middle" x="942" y="-397.48" font-family="Times,serif" font-size="14.00">Gumbel</text>
</g>
<!-- HAsfc9_b2 -->
<g id="node16" class="node">
<title>HAsfc9_b2</title>
<polygon fill="none" stroke="black" points="833.2,-341.38 740.8,-341.38 740.8,-282.58 833.2,-282.58 833.2,-341.38"/>
<text text-anchor="middle" x="787" y="-324.58" font-family="Times,serif" font-size="14.00">HAsfc9_b2</text>
<text text-anchor="middle" x="787" y="-307.78" font-family="Times,serif" font-size="14.00">~</text>
<text text-anchor="middle" x="787" y="-290.98" font-family="Times,serif" font-size="14.00">Deterministic</text>
</g>
<!-- HAsfc9_b2_dist&#45;&gt;HAsfc9_b2 -->
<g id="edge9" class="edge">
<title>HAsfc9_b2_dist&#45;&gt;HAsfc9_b2</title>
<path fill="none" stroke="black" d="M895.07,-385.84C876.84,-373.55 855.91,-359.44 837.36,-346.93"/>
<polygon fill="black" stroke="black" points="839.27,-344 829.03,-341.31 835.36,-349.8 839.27,-344"/>
</g>
<!-- HAsfc9_b0_dist -->
<g id="node8" class="node">
<title>HAsfc9_b0_dist</title>
<ellipse fill="none" stroke="black" cx="2001" cy="-418.48" rx="76.39" ry="41.09"/>
<text text-anchor="middle" x="2001" y="-431.08" font-family="Times,serif" font-size="14.00">HAsfc9_b0_dist</text>
<text text-anchor="middle" x="2001" y="-414.28" font-family="Times,serif" font-size="14.00">~</text>
<text text-anchor="middle" x="2001" y="-397.48" font-family="Times,serif" font-size="14.00">Normal</text>
</g>
<!-- HAsfc9_b0_dist&#45;&gt;HAsfc9_b0 -->
<g id="edge2" class="edge">
<title>HAsfc9_b0_dist&#45;&gt;HAsfc9_b0</title>
<path fill="none" stroke="black" d="M1945.04,-390.19C1935.41,-385.72 1925.46,-381.22 1916,-377.18 1879.02,-361.38 1836.73,-345.23 1803.83,-333.08"/>
<polygon fill="black" stroke="black" points="1804.97,-329.77 1794.38,-329.6 1802.56,-336.34 1804.97,-329.77"/>
</g>
<!-- HAsfc9_sigma12 -->
<g id="node9" class="node">
<title>HAsfc9_sigma12</title>
<ellipse fill="none" stroke="black" cx="1490" cy="-418.48" rx="80.68" ry="41.09"/>
<text text-anchor="middle" x="1490" y="-431.08" font-family="Times,serif" font-size="14.00">HAsfc9_sigma12</text>
<text text-anchor="middle" x="1490" y="-414.28" font-family="Times,serif" font-size="14.00">~</text>
<text text-anchor="middle" x="1490" y="-397.48" font-family="Times,serif" font-size="14.00">HalfNormal</text>
</g>
<!-- HAsfc9_sigma12&#45;&gt;HAsfc9_M12 -->
<g id="edge13" class="edge">
<title>HAsfc9_sigma12&#45;&gt;HAsfc9_M12</title>
<path fill="none" stroke="black" d="M1432.04,-389.69C1421.51,-385.17 1410.53,-380.79 1400,-377.18 1330.71,-353.4 1248.28,-334.71 1194.64,-323.77"/>
<polygon fill="black" stroke="black" points="1195.13,-320.3 1184.64,-321.75 1193.75,-327.16 1195.13,-320.3"/>
</g>
<!-- HAsfc9_sigmaY -->
<g id="node10" class="node">
<title>HAsfc9_sigmaY</title>
<ellipse fill="none" stroke="black" cx="1261" cy="-200.69" rx="77.68" ry="41.09"/>
<text text-anchor="middle" x="1261" y="-213.29" font-family="Times,serif" font-size="14.00">HAsfc9_sigmaY</text>
<text text-anchor="middle" x="1261" y="-196.49" font-family="Times,serif" font-size="14.00">~</text>
<text text-anchor="middle" x="1261" y="-179.69" font-family="Times,serif" font-size="14.00">Gamma</text>
</g>
<!-- HAsfc9_sigmaY&#45;&gt;HAsfc9_y -->
<g id="edge19" class="edge">
<title>HAsfc9_sigmaY&#45;&gt;HAsfc9_y</title>
<path fill="none" stroke="black" d="M1203.72,-172.39C1193.86,-167.92 1183.68,-163.43 1174,-159.39 1124.51,-138.76 1067.26,-117.68 1025.86,-102.92"/>
<polygon fill="black" stroke="black" points="1026.81,-99.54 1016.22,-99.5 1024.47,-106.14 1026.81,-99.54"/>
</g>
<!-- HAsfc9_b1&#45;&gt;HAsfc9_mu -->
<g id="edge16" class="edge">
<title>HAsfc9_b1&#45;&gt;HAsfc9_mu</title>
<path fill="none" stroke="black" d="M320.52,-296.91C368.18,-283.01 444.62,-262.11 512,-249.98 654.98,-224.24 825.78,-210.68 912.48,-205"/>
<polygon fill="black" stroke="black" points="912.88,-208.48 922.63,-204.35 912.43,-201.5 912.88,-208.48"/>
</g>
<!-- HAsfc9_sigma1 -->
<g id="node12" class="node">
<title>HAsfc9_sigma1</title>
<ellipse fill="none" stroke="black" cx="259" cy="-418.48" rx="75.78" ry="41.09"/>
<text text-anchor="middle" x="259" y="-431.08" font-family="Times,serif" font-size="14.00">HAsfc9_sigma1</text>
<text text-anchor="middle" x="259" y="-414.28" font-family="Times,serif" font-size="14.00">~</text>
<text text-anchor="middle" x="259" y="-397.48" font-family="Times,serif" font-size="14.00">HalfNormal</text>
</g>
<!-- HAsfc9_sigma1&#45;&gt;HAsfc9_b1 -->
<g id="edge5" class="edge">
<title>HAsfc9_sigma1&#45;&gt;HAsfc9_b1</title>
<path fill="none" stroke="black" d="M264.8,-377.07C266.02,-368.58 267.3,-359.65 268.51,-351.24"/>
<polygon fill="black" stroke="black" points="271.98,-351.7 269.93,-341.3 265.05,-350.7 271.98,-351.7"/>
</g>
<!-- HAsfc9_mu_b1 -->
<g id="node13" class="node">
<title>HAsfc9_mu_b1</title>
<ellipse fill="none" stroke="black" cx="91" cy="-418.48" rx="74.59" ry="41.09"/>
<text text-anchor="middle" x="91" y="-431.08" font-family="Times,serif" font-size="14.00">HAsfc9_mu_b1</text>
<text text-anchor="middle" x="91" y="-414.28" font-family="Times,serif" font-size="14.00">~</text>
<text text-anchor="middle" x="91" y="-397.48" font-family="Times,serif" font-size="14.00">Normal</text>
</g>
<!-- HAsfc9_mu_b1&#45;&gt;HAsfc9_b1 -->
<g id="edge6" class="edge">
<title>HAsfc9_mu_b1&#45;&gt;HAsfc9_b1</title>
<path fill="none" stroke="black" d="M142.46,-388.09C166.28,-374.49 194.61,-358.31 218.87,-344.46"/>
<polygon fill="black" stroke="black" points="220.66,-347.47 227.61,-339.47 217.19,-341.39 220.66,-347.47"/>
</g>
<!-- HAsfc9_mu_b2 -->
<g id="node14" class="node">
<title>HAsfc9_mu_b2</title>
<ellipse fill="none" stroke="black" cx="773" cy="-418.48" rx="74.59" ry="41.09"/>
<text text-anchor="middle" x="773" y="-431.08" font-family="Times,serif" font-size="14.00">HAsfc9_mu_b2</text>
<text text-anchor="middle" x="773" y="-414.28" font-family="Times,serif" font-size="14.00">~</text>
<text text-anchor="middle" x="773" y="-397.48" font-family="Times,serif" font-size="14.00">Normal</text>
</g>
<!-- HAsfc9_mu_b2&#45;&gt;HAsfc9_b2 -->
<g id="edge8" class="edge">
<title>HAsfc9_mu_b2&#45;&gt;HAsfc9_b2</title>
<path fill="none" stroke="black" d="M778.41,-377.07C779.55,-368.58 780.75,-359.65 781.87,-351.24"/>
<polygon fill="black" stroke="black" points="785.35,-351.68 783.21,-341.3 778.41,-350.75 785.35,-351.68"/>
</g>
<!-- HAsfc9_sigma2 -->
<g id="node15" class="node">
<title>HAsfc9_sigma2</title>
<ellipse fill="none" stroke="black" cx="602" cy="-537.07" rx="75.78" ry="41.09"/>
<text text-anchor="middle" x="602" y="-549.67" font-family="Times,serif" font-size="14.00">HAsfc9_sigma2</text>
<text text-anchor="middle" x="602" y="-532.87" font-family="Times,serif" font-size="14.00">~</text>
<text text-anchor="middle" x="602" y="-516.07" font-family="Times,serif" font-size="14.00">HalfNormal</text>
</g>
<!-- HAsfc9_b2_beta -->
<g id="node17" class="node">
<title>HAsfc9_b2_beta</title>
<ellipse fill="none" stroke="black" cx="602" cy="-418.48" rx="78.27" ry="41.09"/>
<text text-anchor="middle" x="602" y="-431.08" font-family="Times,serif" font-size="14.00">HAsfc9_b2_beta</text>
<text text-anchor="middle" x="602" y="-414.28" font-family="Times,serif" font-size="14.00">~</text>
<text text-anchor="middle" x="602" y="-397.48" font-family="Times,serif" font-size="14.00">HalfNormal</text>
</g>
<!-- HAsfc9_sigma2&#45;&gt;HAsfc9_b2_beta -->
<g id="edge7" class="edge">
<title>HAsfc9_sigma2&#45;&gt;HAsfc9_b2_beta</title>
<path fill="none" stroke="black" d="M602,-495.61C602,-487.39 602,-478.63 602,-470.1"/>
<polygon fill="black" stroke="black" points="605.5,-469.85 602,-459.85 598.5,-469.85 605.5,-469.85"/>
</g>
<!-- HAsfc9_b2&#45;&gt;HAsfc9_mu -->
<g id="edge14" class="edge">
<title>HAsfc9_b2&#45;&gt;HAsfc9_mu</title>
<path fill="none" stroke="black" d="M833.4,-283.12C857.89,-268.41 888.11,-250.26 913.81,-234.83"/>
<polygon fill="black" stroke="black" points="915.92,-237.65 922.69,-229.5 912.31,-231.64 915.92,-237.65"/>
</g>
<!-- HAsfc9_b2_beta&#45;&gt;HAsfc9_b2 -->
<g id="edge10" class="edge">
<title>HAsfc9_b2_beta&#45;&gt;HAsfc9_b2</title>
<path fill="none" stroke="black" d="M654.52,-387.81C678.68,-374.16 707.36,-357.96 731.84,-344.14"/>
<polygon fill="black" stroke="black" points="733.67,-347.12 740.65,-339.16 730.22,-341.03 733.67,-347.12"/>
</g>
<!-- HAsfc9_mu_M12 -->
<g id="node18" class="node">
<title>HAsfc9_mu_M12</title>
<ellipse fill="none" stroke="black" cx="1120" cy="-418.48" rx="83.19" ry="41.09"/>
<text text-anchor="middle" x="1120" y="-431.08" font-family="Times,serif" font-size="14.00">HAsfc9_mu_M12</text>
<text text-anchor="middle" x="1120" y="-414.28" font-family="Times,serif" font-size="14.00">~</text>
<text text-anchor="middle" x="1120" y="-397.48" font-family="Times,serif" font-size="14.00">Normal</text>
</g>
<!-- HAsfc9_mu_M12&#45;&gt;HAsfc9_M12 -->
<g id="edge12" class="edge">
<title>HAsfc9_mu_M12&#45;&gt;HAsfc9_M12</title>
<path fill="none" stroke="black" d="M1126.96,-377.07C1128.42,-368.58 1129.96,-359.65 1131.41,-351.24"/>
<polygon fill="black" stroke="black" points="1134.87,-351.75 1133.12,-341.3 1127.97,-350.56 1134.87,-351.75"/>
</g>
<!-- HAsfc9_M12&#45;&gt;HAsfc9_mu -->
<g id="edge17" class="edge">
<title>HAsfc9_M12&#45;&gt;HAsfc9_mu</title>
<path fill="none" stroke="black" d="M1091.99,-282.67C1072.18,-270.35 1048.84,-255.63 1028,-241.98 1024.91,-239.96 1021.75,-237.86 1018.56,-235.74"/>
<polygon fill="black" stroke="black" points="1020.38,-232.74 1010.12,-230.07 1016.47,-238.55 1020.38,-232.74"/>
</g>
<!-- HAsfc9_mu&#45;&gt;HAsfc9_y -->
<g id="edge20" class="edge">
<title>HAsfc9_mu&#45;&gt;HAsfc9_y</title>
<path fill="none" stroke="black" d="M969,-171.46C969,-160.08 969,-146.6 969,-133.63"/>
<polygon fill="black" stroke="black" points="972.5,-133.4 969,-123.4 965.5,-133.4 972.5,-133.4"/>
</g>
</g>
</svg>
