<?xml version="1.0" encoding="UTF-8" standalone="no"?>
<!DOCTYPE svg PUBLIC "-//W3C//DTD SVG 1.1//EN"
 "http://www.w3.org/Graphics/SVG/1.1/DTD/svg11.dtd">
<!-- Generated by graphviz version 2.42.1 (20190717.1914)
 -->
<!-- Title: epLsar Pages: 1 -->
<svg width="1975pt" height="602pt"
 viewBox="0.00 0.00 1975.09 602.36" xmlns="http://www.w3.org/2000/svg" xmlns:xlink="http://www.w3.org/1999/xlink">
<g id="graph0" class="graph" transform="scale(1 1) rotate(0) translate(4 598.36)">
<title>epLsar</title>
<polygon fill="white" stroke="transparent" points="-4,4 -4,-598.36 1971.09,-598.36 1971.09,4 -4,4"/>
<g id="clust1" class="cluster">
<title>cluster2</title>
<path fill="none" stroke="black" d="M976.35,-249.98C976.35,-249.98 1271.35,-249.98 1271.35,-249.98 1277.35,-249.98 1283.35,-255.98 1283.35,-261.98 1283.35,-261.98 1283.35,-455.77 1283.35,-455.77 1283.35,-461.77 1277.35,-467.77 1271.35,-467.77 1271.35,-467.77 976.35,-467.77 976.35,-467.77 970.35,-467.77 964.35,-461.77 964.35,-455.77 964.35,-455.77 964.35,-261.98 964.35,-261.98 964.35,-255.98 970.35,-249.98 976.35,-249.98"/>
<text text-anchor="middle" x="1271.85" y="-258.18" font-family="Times,serif" font-size="14.00">2</text>
</g>
<g id="clust2" class="cluster">
<title>cluster11</title>
<path fill="none" stroke="black" d="M166.35,-249.98C166.35,-249.98 467.35,-249.98 467.35,-249.98 473.35,-249.98 479.35,-255.98 479.35,-261.98 479.35,-261.98 479.35,-574.36 479.35,-574.36 479.35,-580.36 473.35,-586.36 467.35,-586.36 467.35,-586.36 166.35,-586.36 166.35,-586.36 160.35,-586.36 154.35,-580.36 154.35,-574.36 154.35,-574.36 154.35,-261.98 154.35,-261.98 154.35,-255.98 160.35,-249.98 166.35,-249.98"/>
<text text-anchor="middle" x="464.35" y="-258.18" font-family="Times,serif" font-size="14.00">11</text>
</g>
<g id="clust3" class="cluster">
<title>cluster2 x 11</title>
<path fill="none" stroke="black" d="M1460.35,-249.98C1460.35,-249.98 1610.35,-249.98 1610.35,-249.98 1616.35,-249.98 1622.35,-255.98 1622.35,-261.98 1622.35,-261.98 1622.35,-455.77 1622.35,-455.77 1622.35,-461.77 1616.35,-467.77 1610.35,-467.77 1610.35,-467.77 1460.35,-467.77 1460.35,-467.77 1454.35,-467.77 1448.35,-461.77 1448.35,-455.77 1448.35,-455.77 1448.35,-261.98 1448.35,-261.98 1448.35,-255.98 1454.35,-249.98 1460.35,-249.98"/>
<text text-anchor="middle" x="1596.85" y="-258.18" font-family="Times,serif" font-size="14.00">2 x 11</text>
</g>
<g id="clust4" class="cluster">
<title>cluster280</title>
<path fill="none" stroke="black" d="M959.35,-8C959.35,-8 1047.35,-8 1047.35,-8 1053.35,-8 1059.35,-14 1059.35,-20 1059.35,-20 1059.35,-225.89 1059.35,-225.89 1059.35,-231.89 1053.35,-237.89 1047.35,-237.89 1047.35,-237.89 959.35,-237.89 959.35,-237.89 953.35,-237.89 947.35,-231.89 947.35,-225.89 947.35,-225.89 947.35,-20 947.35,-20 947.35,-14 953.35,-8 959.35,-8"/>
<text text-anchor="middle" x="1040.85" y="-16.2" font-family="Times,serif" font-size="14.00">280</text>
</g>
<!-- epLsar_b2_dist -->
<g id="node1" class="node">
<title>epLsar_b2_dist</title>
<ellipse fill="none" stroke="black" cx="72.35" cy="-418.48" rx="72.19" ry="41.09"/>
<text text-anchor="middle" x="72.35" y="-431.08" font-family="Times,serif" font-size="14.00">epLsar_b2_dist</text>
<text text-anchor="middle" x="72.35" y="-414.28" font-family="Times,serif" font-size="14.00">~</text>
<text text-anchor="middle" x="72.35" y="-397.48" font-family="Times,serif" font-size="14.00">Gumbel</text>
</g>
<!-- epLsar_b2 -->
<g id="node14" class="node">
<title>epLsar_b2</title>
<polygon fill="none" stroke="black" points="364.55,-341.38 272.15,-341.38 272.15,-282.58 364.55,-282.58 364.55,-341.38"/>
<text text-anchor="middle" x="318.35" y="-324.58" font-family="Times,serif" font-size="14.00">epLsar_b2</text>
<text text-anchor="middle" x="318.35" y="-307.78" font-family="Times,serif" font-size="14.00">~</text>
<text text-anchor="middle" x="318.35" y="-290.98" font-family="Times,serif" font-size="14.00">Deterministic</text>
</g>
<!-- epLsar_b2_dist&#45;&gt;epLsar_b2 -->
<g id="edge8" class="edge">
<title>epLsar_b2_dist&#45;&gt;epLsar_b2</title>
<path fill="none" stroke="black" d="M124.4,-389.57C132.99,-385.26 141.86,-380.98 150.35,-377.18 187.18,-360.69 229.64,-344.49 262.66,-332.48"/>
<polygon fill="black" stroke="black" points="263.93,-335.75 272.15,-329.06 261.55,-329.16 263.93,-335.75"/>
</g>
<!-- epLsar_M12_dist -->
<g id="node2" class="node">
<title>epLsar_M12_dist</title>
<ellipse fill="none" stroke="black" cx="1714.35" cy="-418.48" rx="81.29" ry="41.09"/>
<text text-anchor="middle" x="1714.35" y="-431.08" font-family="Times,serif" font-size="14.00">epLsar_M12_dist</text>
<text text-anchor="middle" x="1714.35" y="-414.28" font-family="Times,serif" font-size="14.00">~</text>
<text text-anchor="middle" x="1714.35" y="-397.48" font-family="Times,serif" font-size="14.00">Normal</text>
</g>
<!-- epLsar_M12 -->
<g id="node18" class="node">
<title>epLsar_M12</title>
<polygon fill="none" stroke="black" points="1597.55,-341.38 1505.15,-341.38 1505.15,-282.58 1597.55,-282.58 1597.55,-341.38"/>
<text text-anchor="middle" x="1551.35" y="-324.58" font-family="Times,serif" font-size="14.00">epLsar_M12</text>
<text text-anchor="middle" x="1551.35" y="-307.78" font-family="Times,serif" font-size="14.00">~</text>
<text text-anchor="middle" x="1551.35" y="-290.98" font-family="Times,serif" font-size="14.00">Deterministic</text>
</g>
<!-- epLsar_M12_dist&#45;&gt;epLsar_M12 -->
<g id="edge11" class="edge">
<title>epLsar_M12_dist&#45;&gt;epLsar_M12</title>
<path fill="none" stroke="black" d="M1664.56,-385.56C1645.39,-373.27 1623.45,-359.21 1604.02,-346.75"/>
<polygon fill="black" stroke="black" points="1605.89,-343.79 1595.58,-341.34 1602.11,-349.68 1605.89,-343.79"/>
</g>
<!-- epLsar_sigma12 -->
<g id="node3" class="node">
<title>epLsar_sigma12</title>
<ellipse fill="none" stroke="black" cx="1890.35" cy="-418.48" rx="76.98" ry="41.09"/>
<text text-anchor="middle" x="1890.35" y="-431.08" font-family="Times,serif" font-size="14.00">epLsar_sigma12</text>
<text text-anchor="middle" x="1890.35" y="-414.28" font-family="Times,serif" font-size="14.00">~</text>
<text text-anchor="middle" x="1890.35" y="-397.48" font-family="Times,serif" font-size="14.00">HalfNormal</text>
</g>
<!-- epLsar_sigma12&#45;&gt;epLsar_M12 -->
<g id="edge12" class="edge">
<title>epLsar_sigma12&#45;&gt;epLsar_M12</title>
<path fill="none" stroke="black" d="M1835.02,-389.68C1824.95,-385.16 1814.44,-380.79 1804.35,-377.18 1738.34,-353.58 1659.73,-335.06 1607.84,-324.1"/>
<polygon fill="black" stroke="black" points="1608.34,-320.63 1597.83,-322.01 1606.91,-327.48 1608.34,-320.63"/>
</g>
<!-- epLsar_sigmaY -->
<g id="node4" class="node">
<title>epLsar_sigmaY</title>
<ellipse fill="none" stroke="black" cx="1141.35" cy="-200.69" rx="73.97" ry="41.09"/>
<text text-anchor="middle" x="1141.35" y="-213.29" font-family="Times,serif" font-size="14.00">epLsar_sigmaY</text>
<text text-anchor="middle" x="1141.35" y="-196.49" font-family="Times,serif" font-size="14.00">~</text>
<text text-anchor="middle" x="1141.35" y="-179.69" font-family="Times,serif" font-size="14.00">Gamma</text>
</g>
<!-- epLsar_y -->
<g id="node21" class="node">
<title>epLsar_y</title>
<ellipse fill="lightgrey" stroke="black" cx="1003.35" cy="-82.1" rx="48.29" ry="41.09"/>
<text text-anchor="middle" x="1003.35" y="-94.7" font-family="Times,serif" font-size="14.00">epLsar_y</text>
<text text-anchor="middle" x="1003.35" y="-77.9" font-family="Times,serif" font-size="14.00">~</text>
<text text-anchor="middle" x="1003.35" y="-61.1" font-family="Times,serif" font-size="14.00">StudentT</text>
</g>
<!-- epLsar_sigmaY&#45;&gt;epLsar_y -->
<g id="edge18" class="edge">
<title>epLsar_sigmaY&#45;&gt;epLsar_y</title>
<path fill="none" stroke="black" d="M1101.06,-165.65C1083.54,-150.84 1063.01,-133.5 1045.3,-118.54"/>
<polygon fill="black" stroke="black" points="1047.28,-115.63 1037.38,-111.85 1042.76,-120.98 1047.28,-115.63"/>
</g>
<!-- epLsar_nuY -->
<g id="node5" class="node">
<title>epLsar_nuY</title>
<ellipse fill="none" stroke="black" cx="1293.35" cy="-200.69" rx="60.48" ry="41.09"/>
<text text-anchor="middle" x="1293.35" y="-213.29" font-family="Times,serif" font-size="14.00">epLsar_nuY</text>
<text text-anchor="middle" x="1293.35" y="-196.49" font-family="Times,serif" font-size="14.00">~</text>
<text text-anchor="middle" x="1293.35" y="-179.69" font-family="Times,serif" font-size="14.00">Exponential</text>
</g>
<!-- epLsar_nuY&#45;&gt;epLsar_y -->
<g id="edge20" class="edge">
<title>epLsar_nuY&#45;&gt;epLsar_y</title>
<path fill="none" stroke="black" d="M1249.49,-172.36C1241.28,-167.74 1232.67,-163.21 1224.35,-159.39 1169.53,-134.22 1103.89,-112.56 1058.46,-98.82"/>
<polygon fill="black" stroke="black" points="1059.38,-95.45 1048.8,-95.93 1057.37,-102.15 1059.38,-95.45"/>
</g>
<!-- epLsar_b1_dist -->
<g id="node6" class="node">
<title>epLsar_b1_dist</title>
<ellipse fill="none" stroke="black" cx="1365.35" cy="-418.48" rx="72.19" ry="41.09"/>
<text text-anchor="middle" x="1365.35" y="-431.08" font-family="Times,serif" font-size="14.00">epLsar_b1_dist</text>
<text text-anchor="middle" x="1365.35" y="-414.28" font-family="Times,serif" font-size="14.00">~</text>
<text text-anchor="middle" x="1365.35" y="-397.48" font-family="Times,serif" font-size="14.00">Normal</text>
</g>
<!-- epLsar_b1 -->
<g id="node13" class="node">
<title>epLsar_b1</title>
<polygon fill="none" stroke="black" points="1170.55,-341.38 1078.15,-341.38 1078.15,-282.58 1170.55,-282.58 1170.55,-341.38"/>
<text text-anchor="middle" x="1124.35" y="-324.58" font-family="Times,serif" font-size="14.00">epLsar_b1</text>
<text text-anchor="middle" x="1124.35" y="-307.78" font-family="Times,serif" font-size="14.00">~</text>
<text text-anchor="middle" x="1124.35" y="-290.98" font-family="Times,serif" font-size="14.00">Deterministic</text>
</g>
<!-- epLsar_b1_dist&#45;&gt;epLsar_b1 -->
<g id="edge5" class="edge">
<title>epLsar_b1_dist&#45;&gt;epLsar_b1</title>
<path fill="none" stroke="black" d="M1313.26,-389.64C1304.67,-385.32 1295.81,-381.02 1287.35,-377.18 1252.21,-361.23 1211.86,-345.32 1180.1,-333.33"/>
<polygon fill="black" stroke="black" points="1181.13,-329.98 1170.54,-329.74 1178.67,-336.53 1181.13,-329.98"/>
</g>
<!-- epLsar_b0 -->
<g id="node7" class="node">
<title>epLsar_b0</title>
<polygon fill="none" stroke="black" points="847.55,-341.38 755.15,-341.38 755.15,-282.58 847.55,-282.58 847.55,-341.38"/>
<text text-anchor="middle" x="801.35" y="-324.58" font-family="Times,serif" font-size="14.00">epLsar_b0</text>
<text text-anchor="middle" x="801.35" y="-307.78" font-family="Times,serif" font-size="14.00">~</text>
<text text-anchor="middle" x="801.35" y="-290.98" font-family="Times,serif" font-size="14.00">Deterministic</text>
</g>
<!-- epLsar_mu -->
<g id="node20" class="node">
<title>epLsar_mu</title>
<polygon fill="none" stroke="black" points="1049.55,-230.09 957.15,-230.09 957.15,-171.28 1049.55,-171.28 1049.55,-230.09"/>
<text text-anchor="middle" x="1003.35" y="-213.29" font-family="Times,serif" font-size="14.00">epLsar_mu</text>
<text text-anchor="middle" x="1003.35" y="-196.49" font-family="Times,serif" font-size="14.00">~</text>
<text text-anchor="middle" x="1003.35" y="-179.69" font-family="Times,serif" font-size="14.00">Deterministic</text>
</g>
<!-- epLsar_b0&#45;&gt;epLsar_mu -->
<g id="edge16" class="edge">
<title>epLsar_b0&#45;&gt;epLsar_mu</title>
<path fill="none" stroke="black" d="M847.69,-285.91C877.58,-269.73 916.62,-248.61 948.13,-231.56"/>
<polygon fill="black" stroke="black" points="950.09,-234.48 957.22,-226.64 946.76,-228.32 950.09,-234.48"/>
</g>
<!-- epLsar_mu_b0 -->
<g id="node8" class="node">
<title>epLsar_mu_b0</title>
<ellipse fill="none" stroke="black" cx="559.35" cy="-418.48" rx="70.89" ry="41.09"/>
<text text-anchor="middle" x="559.35" y="-431.08" font-family="Times,serif" font-size="14.00">epLsar_mu_b0</text>
<text text-anchor="middle" x="559.35" y="-414.28" font-family="Times,serif" font-size="14.00">~</text>
<text text-anchor="middle" x="559.35" y="-397.48" font-family="Times,serif" font-size="14.00">Normal</text>
</g>
<!-- epLsar_mu_b0&#45;&gt;epLsar_b0 -->
<g id="edge2" class="edge">
<title>epLsar_mu_b0&#45;&gt;epLsar_b0</title>
<path fill="none" stroke="black" d="M611.52,-390.35C620.73,-385.81 630.27,-381.26 639.35,-377.18 674.24,-361.52 714.18,-345.67 745.67,-333.63"/>
<polygon fill="black" stroke="black" points="747.05,-336.85 755.15,-330.03 744.56,-330.31 747.05,-336.85"/>
</g>
<!-- epLsar_b0_dist -->
<g id="node9" class="node">
<title>epLsar_b0_dist</title>
<ellipse fill="none" stroke="black" cx="720.35" cy="-418.48" rx="72.19" ry="41.09"/>
<text text-anchor="middle" x="720.35" y="-431.08" font-family="Times,serif" font-size="14.00">epLsar_b0_dist</text>
<text text-anchor="middle" x="720.35" y="-414.28" font-family="Times,serif" font-size="14.00">~</text>
<text text-anchor="middle" x="720.35" y="-397.48" font-family="Times,serif" font-size="14.00">Normal</text>
</g>
<!-- epLsar_b0_dist&#45;&gt;epLsar_b0 -->
<g id="edge1" class="edge">
<title>epLsar_b0_dist&#45;&gt;epLsar_b0</title>
<path fill="none" stroke="black" d="M749.13,-380.34C756.88,-370.35 765.25,-359.55 772.97,-349.59"/>
<polygon fill="black" stroke="black" points="775.91,-351.5 779.27,-341.45 770.38,-347.21 775.91,-351.5"/>
</g>
<!-- epLsar_sigma0 -->
<g id="node10" class="node">
<title>epLsar_sigma0</title>
<ellipse fill="none" stroke="black" cx="882.35" cy="-418.48" rx="71.58" ry="41.09"/>
<text text-anchor="middle" x="882.35" y="-431.08" font-family="Times,serif" font-size="14.00">epLsar_sigma0</text>
<text text-anchor="middle" x="882.35" y="-414.28" font-family="Times,serif" font-size="14.00">~</text>
<text text-anchor="middle" x="882.35" y="-397.48" font-family="Times,serif" font-size="14.00">HalfNormal</text>
</g>
<!-- epLsar_sigma0&#45;&gt;epLsar_b0 -->
<g id="edge3" class="edge">
<title>epLsar_sigma0&#45;&gt;epLsar_b0</title>
<path fill="none" stroke="black" d="M853.56,-380.34C845.82,-370.35 837.45,-359.55 829.72,-349.59"/>
<polygon fill="black" stroke="black" points="832.31,-347.21 823.42,-341.45 826.78,-351.5 832.31,-347.21"/>
</g>
<!-- epLsar_mu_b1 -->
<g id="node11" class="node">
<title>epLsar_mu_b1</title>
<ellipse fill="none" stroke="black" cx="1204.35" cy="-418.48" rx="70.89" ry="41.09"/>
<text text-anchor="middle" x="1204.35" y="-431.08" font-family="Times,serif" font-size="14.00">epLsar_mu_b1</text>
<text text-anchor="middle" x="1204.35" y="-414.28" font-family="Times,serif" font-size="14.00">~</text>
<text text-anchor="middle" x="1204.35" y="-397.48" font-family="Times,serif" font-size="14.00">Normal</text>
</g>
<!-- epLsar_mu_b1&#45;&gt;epLsar_b1 -->
<g id="edge4" class="edge">
<title>epLsar_mu_b1&#45;&gt;epLsar_b1</title>
<path fill="none" stroke="black" d="M1175.92,-380.34C1168.27,-370.35 1160,-359.55 1152.37,-349.59"/>
<polygon fill="black" stroke="black" points="1155,-347.27 1146.15,-341.45 1149.45,-351.52 1155,-347.27"/>
</g>
<!-- epLsar_sigma1 -->
<g id="node12" class="node">
<title>epLsar_sigma1</title>
<ellipse fill="none" stroke="black" cx="1044.35" cy="-418.48" rx="71.58" ry="41.09"/>
<text text-anchor="middle" x="1044.35" y="-431.08" font-family="Times,serif" font-size="14.00">epLsar_sigma1</text>
<text text-anchor="middle" x="1044.35" y="-414.28" font-family="Times,serif" font-size="14.00">~</text>
<text text-anchor="middle" x="1044.35" y="-397.48" font-family="Times,serif" font-size="14.00">HalfNormal</text>
</g>
<!-- epLsar_sigma1&#45;&gt;epLsar_b1 -->
<g id="edge6" class="edge">
<title>epLsar_sigma1&#45;&gt;epLsar_b1</title>
<path fill="none" stroke="black" d="M1072.78,-380.34C1080.43,-370.35 1088.69,-359.55 1096.32,-349.59"/>
<polygon fill="black" stroke="black" points="1099.25,-351.52 1102.55,-341.45 1093.69,-347.27 1099.25,-351.52"/>
</g>
<!-- epLsar_b1&#45;&gt;epLsar_mu -->
<g id="edge17" class="edge">
<title>epLsar_b1&#45;&gt;epLsar_mu</title>
<path fill="none" stroke="black" d="M1092.87,-282.55C1077.47,-268.63 1058.77,-251.75 1042.46,-237.01"/>
<polygon fill="black" stroke="black" points="1044.43,-234.08 1034.66,-229.97 1039.74,-239.27 1044.43,-234.08"/>
</g>
<!-- epLsar_b2&#45;&gt;epLsar_mu -->
<g id="edge14" class="edge">
<title>epLsar_b2&#45;&gt;epLsar_mu</title>
<path fill="none" stroke="black" d="M364.62,-303.6C486.33,-284.18 815.07,-231.73 947.22,-210.64"/>
<polygon fill="black" stroke="black" points="947.81,-214.09 957.14,-209.06 946.71,-207.18 947.81,-214.09"/>
</g>
<!-- epLsar_b2_beta -->
<g id="node15" class="node">
<title>epLsar_b2_beta</title>
<ellipse fill="none" stroke="black" cx="237.35" cy="-418.48" rx="74.57" ry="41.09"/>
<text text-anchor="middle" x="237.35" y="-431.08" font-family="Times,serif" font-size="14.00">epLsar_b2_beta</text>
<text text-anchor="middle" x="237.35" y="-414.28" font-family="Times,serif" font-size="14.00">~</text>
<text text-anchor="middle" x="237.35" y="-397.48" font-family="Times,serif" font-size="14.00">HalfNormal</text>
</g>
<!-- epLsar_b2_beta&#45;&gt;epLsar_b2 -->
<g id="edge9" class="edge">
<title>epLsar_b2_beta&#45;&gt;epLsar_b2</title>
<path fill="none" stroke="black" d="M266.13,-380.34C273.88,-370.35 282.25,-359.55 289.97,-349.59"/>
<polygon fill="black" stroke="black" points="292.91,-351.5 296.27,-341.45 287.38,-347.21 292.91,-351.5"/>
</g>
<!-- epLsar_mu_b2 -->
<g id="node16" class="node">
<title>epLsar_mu_b2</title>
<ellipse fill="none" stroke="black" cx="400.35" cy="-418.48" rx="70.89" ry="41.09"/>
<text text-anchor="middle" x="400.35" y="-431.08" font-family="Times,serif" font-size="14.00">epLsar_mu_b2</text>
<text text-anchor="middle" x="400.35" y="-414.28" font-family="Times,serif" font-size="14.00">~</text>
<text text-anchor="middle" x="400.35" y="-397.48" font-family="Times,serif" font-size="14.00">Normal</text>
</g>
<!-- epLsar_mu_b2&#45;&gt;epLsar_b2 -->
<g id="edge10" class="edge">
<title>epLsar_mu_b2&#45;&gt;epLsar_b2</title>
<path fill="none" stroke="black" d="M371.44,-380.63C363.43,-370.43 354.75,-359.37 346.78,-349.21"/>
<polygon fill="black" stroke="black" points="349.48,-346.99 340.56,-341.28 343.98,-351.31 349.48,-346.99"/>
</g>
<!-- epLsar_sigma2 -->
<g id="node17" class="node">
<title>epLsar_sigma2</title>
<ellipse fill="none" stroke="black" cx="237.35" cy="-537.07" rx="71.58" ry="41.09"/>
<text text-anchor="middle" x="237.35" y="-549.67" font-family="Times,serif" font-size="14.00">epLsar_sigma2</text>
<text text-anchor="middle" x="237.35" y="-532.87" font-family="Times,serif" font-size="14.00">~</text>
<text text-anchor="middle" x="237.35" y="-516.07" font-family="Times,serif" font-size="14.00">HalfNormal</text>
</g>
<!-- epLsar_sigma2&#45;&gt;epLsar_b2_beta -->
<g id="edge7" class="edge">
<title>epLsar_sigma2&#45;&gt;epLsar_b2_beta</title>
<path fill="none" stroke="black" d="M237.35,-495.61C237.35,-487.39 237.35,-478.63 237.35,-470.1"/>
<polygon fill="black" stroke="black" points="240.85,-469.85 237.35,-459.85 233.85,-469.85 240.85,-469.85"/>
</g>
<!-- epLsar_M12&#45;&gt;epLsar_mu -->
<g id="edge15" class="edge">
<title>epLsar_M12&#45;&gt;epLsar_mu</title>
<path fill="none" stroke="black" d="M1505.11,-297.45C1452.79,-282.8 1364.76,-260.18 1287.35,-249.98 1262.1,-246.65 1082.4,-250.32 1058.35,-241.98 1053.44,-240.28 1048.6,-237.98 1043.95,-235.33"/>
<polygon fill="black" stroke="black" points="1045.59,-232.23 1035.26,-229.89 1041.87,-238.16 1045.59,-232.23"/>
</g>
<!-- epLsar_mu_M12 -->
<g id="node19" class="node">
<title>epLsar_mu_M12</title>
<ellipse fill="none" stroke="black" cx="1535.35" cy="-418.48" rx="79.49" ry="41.09"/>
<text text-anchor="middle" x="1535.35" y="-431.08" font-family="Times,serif" font-size="14.00">epLsar_mu_M12</text>
<text text-anchor="middle" x="1535.35" y="-414.28" font-family="Times,serif" font-size="14.00">~</text>
<text text-anchor="middle" x="1535.35" y="-397.48" font-family="Times,serif" font-size="14.00">Normal</text>
</g>
<!-- epLsar_mu_M12&#45;&gt;epLsar_M12 -->
<g id="edge13" class="edge">
<title>epLsar_mu_M12&#45;&gt;epLsar_M12</title>
<path fill="none" stroke="black" d="M1541.53,-377.07C1542.83,-368.58 1544.2,-359.65 1545.49,-351.24"/>
<polygon fill="black" stroke="black" points="1548.96,-351.72 1547.01,-341.3 1542.04,-350.66 1548.96,-351.72"/>
</g>
<!-- epLsar_mu&#45;&gt;epLsar_y -->
<g id="edge19" class="edge">
<title>epLsar_mu&#45;&gt;epLsar_y</title>
<path fill="none" stroke="black" d="M1003.35,-171.46C1003.35,-160.08 1003.35,-146.6 1003.35,-133.63"/>
<polygon fill="black" stroke="black" points="1006.85,-133.4 1003.35,-123.4 999.85,-133.4 1006.85,-133.4"/>
</g>
</g>
</svg>
