<?xml version="1.0" encoding="UTF-8" standalone="no"?>
<!DOCTYPE svg PUBLIC "-//W3C//DTD SVG 1.1//EN"
 "http://www.w3.org/Graphics/SVG/1.1/DTD/svg11.dtd">
<!-- Generated by graphviz version 2.42.1 (20190717.1914)
 -->
<!-- Title: R² Pages: 1 -->
<svg width="1702pt" height="602pt"
 viewBox="0.00 0.00 1701.71 602.36" xmlns="http://www.w3.org/2000/svg" xmlns:xlink="http://www.w3.org/1999/xlink">
<g id="graph0" class="graph" transform="scale(1 1) rotate(0) translate(4 598.36)">
<title>R²</title>
<polygon fill="white" stroke="transparent" points="-4,4 -4,-598.36 1697.71,-598.36 1697.71,4 -4,4"/>
<g id="clust1" class="cluster">
<title>cluster2</title>
<path fill="none" stroke="black" d="M20,-249.98C20,-249.98 267,-249.98 267,-249.98 273,-249.98 279,-255.98 279,-261.98 279,-261.98 279,-455.77 279,-455.77 279,-461.77 273,-467.77 267,-467.77 267,-467.77 20,-467.77 20,-467.77 14,-467.77 8,-461.77 8,-455.77 8,-455.77 8,-261.98 8,-261.98 8,-255.98 14,-249.98 20,-249.98"/>
<text text-anchor="middle" x="267.5" y="-258.18" font-family="Times,serif" font-size="14.00">2</text>
</g>
<g id="clust2" class="cluster">
<title>cluster11</title>
<path fill="none" stroke="black" d="M432,-249.98C432,-249.98 684,-249.98 684,-249.98 690,-249.98 696,-255.98 696,-261.98 696,-261.98 696,-574.36 696,-574.36 696,-580.36 690,-586.36 684,-586.36 684,-586.36 432,-586.36 432,-586.36 426,-586.36 420,-580.36 420,-574.36 420,-574.36 420,-261.98 420,-261.98 420,-255.98 426,-249.98 432,-249.98"/>
<text text-anchor="middle" x="681" y="-258.18" font-family="Times,serif" font-size="14.00">11</text>
</g>
<g id="clust3" class="cluster">
<title>cluster2 x 11</title>
<path fill="none" stroke="black" d="M849,-249.98C849,-249.98 975,-249.98 975,-249.98 981,-249.98 987,-255.98 987,-261.98 987,-261.98 987,-455.77 987,-455.77 987,-461.77 981,-467.77 975,-467.77 975,-467.77 849,-467.77 849,-467.77 843,-467.77 837,-461.77 837,-455.77 837,-455.77 837,-261.98 837,-261.98 837,-255.98 843,-249.98 849,-249.98"/>
<text text-anchor="middle" x="961.5" y="-258.18" font-family="Times,serif" font-size="14.00">2 x 11</text>
</g>
<g id="clust4" class="cluster">
<title>cluster280</title>
<path fill="none" stroke="black" d="M737,-8C737,-8 825,-8 825,-8 831,-8 837,-14 837,-20 837,-20 837,-225.89 837,-225.89 837,-231.89 831,-237.89 825,-237.89 825,-237.89 737,-237.89 737,-237.89 731,-237.89 725,-231.89 725,-225.89 725,-225.89 725,-20 725,-20 725,-14 731,-8 737,-8"/>
<text text-anchor="middle" x="818.5" y="-16.2" font-family="Times,serif" font-size="14.00">280</text>
</g>
<!-- R²_b0_dist -->
<g id="node1" class="node">
<title>R²_b0_dist</title>
<ellipse fill="none" stroke="black" cx="1361" cy="-418.48" rx="60.02" ry="41.09"/>
<text text-anchor="middle" x="1361" y="-431.08" font-family="Times,serif" font-size="14.00">R²_b0_dist</text>
<text text-anchor="middle" x="1361" y="-414.28" font-family="Times,serif" font-size="14.00">~</text>
<text text-anchor="middle" x="1361" y="-397.48" font-family="Times,serif" font-size="14.00">Normal</text>
</g>
<!-- R²_b0 -->
<g id="node2" class="node">
<title>R²_b0</title>
<polygon fill="none" stroke="black" points="1475.2,-341.38 1382.8,-341.38 1382.8,-282.58 1475.2,-282.58 1475.2,-341.38"/>
<text text-anchor="middle" x="1429" y="-324.58" font-family="Times,serif" font-size="14.00">R²_b0</text>
<text text-anchor="middle" x="1429" y="-307.78" font-family="Times,serif" font-size="14.00">~</text>
<text text-anchor="middle" x="1429" y="-290.98" font-family="Times,serif" font-size="14.00">Deterministic</text>
</g>
<!-- R²_b0_dist&#45;&gt;R²_b0 -->
<g id="edge1" class="edge">
<title>R²_b0_dist&#45;&gt;R²_b0</title>
<path fill="none" stroke="black" d="M1385.17,-380.34C1391.6,-370.45 1398.55,-359.77 1404.98,-349.89"/>
<polygon fill="black" stroke="black" points="1407.95,-351.74 1410.47,-341.45 1402.08,-347.93 1407.95,-351.74"/>
</g>
<!-- R²_mu -->
<g id="node20" class="node">
<title>R²_mu</title>
<polygon fill="none" stroke="black" points="827.2,-230.09 734.8,-230.09 734.8,-171.28 827.2,-171.28 827.2,-230.09"/>
<text text-anchor="middle" x="781" y="-213.29" font-family="Times,serif" font-size="14.00">R²_mu</text>
<text text-anchor="middle" x="781" y="-196.49" font-family="Times,serif" font-size="14.00">~</text>
<text text-anchor="middle" x="781" y="-179.69" font-family="Times,serif" font-size="14.00">Deterministic</text>
</g>
<!-- R²_b0&#45;&gt;R²_mu -->
<g id="edge15" class="edge">
<title>R²_b0&#45;&gt;R²_mu</title>
<path fill="none" stroke="black" d="M1382.8,-303.2C1303.1,-290.08 1134.5,-263.65 991,-249.98 956.67,-246.71 868.49,-253.54 836,-241.98 831.18,-240.26 826.41,-237.98 821.82,-235.36"/>
<polygon fill="black" stroke="black" points="823.58,-232.33 813.25,-229.99 819.86,-238.26 823.58,-232.33"/>
</g>
<!-- R²_b1_dist -->
<g id="node3" class="node">
<title>R²_b1_dist</title>
<ellipse fill="none" stroke="black" cx="349" cy="-418.48" rx="60.02" ry="41.09"/>
<text text-anchor="middle" x="349" y="-431.08" font-family="Times,serif" font-size="14.00">R²_b1_dist</text>
<text text-anchor="middle" x="349" y="-414.28" font-family="Times,serif" font-size="14.00">~</text>
<text text-anchor="middle" x="349" y="-397.48" font-family="Times,serif" font-size="14.00">Normal</text>
</g>
<!-- R²_b1 -->
<g id="node13" class="node">
<title>R²_b1</title>
<polygon fill="none" stroke="black" points="264.2,-341.38 171.8,-341.38 171.8,-282.58 264.2,-282.58 264.2,-341.38"/>
<text text-anchor="middle" x="218" y="-324.58" font-family="Times,serif" font-size="14.00">R²_b1</text>
<text text-anchor="middle" x="218" y="-307.78" font-family="Times,serif" font-size="14.00">~</text>
<text text-anchor="middle" x="218" y="-290.98" font-family="Times,serif" font-size="14.00">Deterministic</text>
</g>
<!-- R²_b1_dist&#45;&gt;R²_b1 -->
<g id="edge4" class="edge">
<title>R²_b1_dist&#45;&gt;R²_b1</title>
<path fill="none" stroke="black" d="M310.4,-386.69C295.11,-374.49 277.44,-360.4 261.68,-347.82"/>
<polygon fill="black" stroke="black" points="263.63,-344.9 253.63,-341.4 259.27,-350.38 263.63,-344.9"/>
</g>
<!-- R²_M12_dist -->
<g id="node4" class="node">
<title>R²_M12_dist</title>
<ellipse fill="none" stroke="black" cx="1066" cy="-418.48" rx="69.12" ry="41.09"/>
<text text-anchor="middle" x="1066" y="-431.08" font-family="Times,serif" font-size="14.00">R²_M12_dist</text>
<text text-anchor="middle" x="1066" y="-414.28" font-family="Times,serif" font-size="14.00">~</text>
<text text-anchor="middle" x="1066" y="-397.48" font-family="Times,serif" font-size="14.00">Normal</text>
</g>
<!-- R²_M12 -->
<g id="node18" class="node">
<title>R²_M12</title>
<polygon fill="none" stroke="black" points="968.2,-341.38 875.8,-341.38 875.8,-282.58 968.2,-282.58 968.2,-341.38"/>
<text text-anchor="middle" x="922" y="-324.58" font-family="Times,serif" font-size="14.00">R²_M12</text>
<text text-anchor="middle" x="922" y="-307.78" font-family="Times,serif" font-size="14.00">~</text>
<text text-anchor="middle" x="922" y="-290.98" font-family="Times,serif" font-size="14.00">Deterministic</text>
</g>
<!-- R²_M12_dist&#45;&gt;R²_M12 -->
<g id="edge13" class="edge">
<title>R²_M12_dist&#45;&gt;R²_M12</title>
<path fill="none" stroke="black" d="M1022.8,-386.12C1005.99,-373.93 986.69,-359.92 969.5,-347.45"/>
<polygon fill="black" stroke="black" points="971.4,-344.5 961.25,-341.46 967.29,-350.17 971.4,-344.5"/>
</g>
<!-- R²_nuY -->
<g id="node5" class="node">
<title>R²_nuY</title>
<ellipse fill="none" stroke="black" cx="904" cy="-200.69" rx="59.3" ry="41.09"/>
<text text-anchor="middle" x="904" y="-213.29" font-family="Times,serif" font-size="14.00">R²_nuY</text>
<text text-anchor="middle" x="904" y="-196.49" font-family="Times,serif" font-size="14.00">~</text>
<text text-anchor="middle" x="904" y="-179.69" font-family="Times,serif" font-size="14.00">Exponential</text>
</g>
<!-- R²_y -->
<g id="node21" class="node">
<title>R²_y</title>
<ellipse fill="lightgrey" stroke="black" cx="781" cy="-82.1" rx="47.72" ry="41.09"/>
<text text-anchor="middle" x="781" y="-94.7" font-family="Times,serif" font-size="14.00">R²_y</text>
<text text-anchor="middle" x="781" y="-77.9" font-family="Times,serif" font-size="14.00">~</text>
<text text-anchor="middle" x="781" y="-61.1" font-family="Times,serif" font-size="14.00">StudentT</text>
</g>
<!-- R²_nuY&#45;&gt;R²_y -->
<g id="edge18" class="edge">
<title>R²_nuY&#45;&gt;R²_y</title>
<path fill="none" stroke="black" d="M869.41,-166.9C854.14,-152.43 836.12,-135.35 820.35,-120.39"/>
<polygon fill="black" stroke="black" points="822.47,-117.58 812.8,-113.24 817.65,-122.66 822.47,-117.58"/>
</g>
<!-- R²_sigma12 -->
<g id="node6" class="node">
<title>R²_sigma12</title>
<ellipse fill="none" stroke="black" cx="1218" cy="-418.48" rx="64.81" ry="41.09"/>
<text text-anchor="middle" x="1218" y="-431.08" font-family="Times,serif" font-size="14.00">R²_sigma12</text>
<text text-anchor="middle" x="1218" y="-414.28" font-family="Times,serif" font-size="14.00">~</text>
<text text-anchor="middle" x="1218" y="-397.48" font-family="Times,serif" font-size="14.00">HalfNormal</text>
</g>
<!-- R²_sigma12&#45;&gt;R²_M12 -->
<g id="edge12" class="edge">
<title>R²_sigma12&#45;&gt;R²_M12</title>
<path fill="none" stroke="black" d="M1170.98,-389.9C1162.17,-385.31 1152.93,-380.85 1144,-377.18 1089.32,-354.7 1024.04,-336.83 978.47,-325.71"/>
<polygon fill="black" stroke="black" points="979.02,-322.24 968.48,-323.3 977.38,-329.05 979.02,-322.24"/>
</g>
<!-- R²_mu_b0 -->
<g id="node7" class="node">
<title>R²_mu_b0</title>
<ellipse fill="none" stroke="black" cx="1498" cy="-418.48" rx="58.72" ry="41.09"/>
<text text-anchor="middle" x="1498" y="-431.08" font-family="Times,serif" font-size="14.00">R²_mu_b0</text>
<text text-anchor="middle" x="1498" y="-414.28" font-family="Times,serif" font-size="14.00">~</text>
<text text-anchor="middle" x="1498" y="-397.48" font-family="Times,serif" font-size="14.00">Normal</text>
</g>
<!-- R²_mu_b0&#45;&gt;R²_b0 -->
<g id="edge3" class="edge">
<title>R²_mu_b0&#45;&gt;R²_b0</title>
<path fill="none" stroke="black" d="M1473.67,-380.63C1467.07,-370.64 1459.92,-359.81 1453.32,-349.81"/>
<polygon fill="black" stroke="black" points="1456.12,-347.7 1447.69,-341.28 1450.28,-351.56 1456.12,-347.7"/>
</g>
<!-- R²_sigmaY -->
<g id="node8" class="node">
<title>R²_sigmaY</title>
<ellipse fill="none" stroke="black" cx="1043" cy="-200.69" rx="61.81" ry="41.09"/>
<text text-anchor="middle" x="1043" y="-213.29" font-family="Times,serif" font-size="14.00">R²_sigmaY</text>
<text text-anchor="middle" x="1043" y="-196.49" font-family="Times,serif" font-size="14.00">~</text>
<text text-anchor="middle" x="1043" y="-179.69" font-family="Times,serif" font-size="14.00">Gamma</text>
</g>
<!-- R²_sigmaY&#45;&gt;R²_y -->
<g id="edge20" class="edge">
<title>R²_sigmaY&#45;&gt;R²_y</title>
<path fill="none" stroke="black" d="M997.27,-172.53C988.97,-167.94 980.3,-163.38 972,-159.39 926.61,-137.57 873.26,-116.63 834.49,-102.23"/>
<polygon fill="black" stroke="black" points="835.56,-98.89 824.97,-98.71 833.13,-105.46 835.56,-98.89"/>
</g>
<!-- R²_sigma0 -->
<g id="node9" class="node">
<title>R²_sigma0</title>
<ellipse fill="none" stroke="black" cx="1634" cy="-418.48" rx="59.91" ry="41.09"/>
<text text-anchor="middle" x="1634" y="-431.08" font-family="Times,serif" font-size="14.00">R²_sigma0</text>
<text text-anchor="middle" x="1634" y="-414.28" font-family="Times,serif" font-size="14.00">~</text>
<text text-anchor="middle" x="1634" y="-397.48" font-family="Times,serif" font-size="14.00">HalfNormal</text>
</g>
<!-- R²_sigma0&#45;&gt;R²_b0 -->
<g id="edge2" class="edge">
<title>R²_sigma0&#45;&gt;R²_b0</title>
<path fill="none" stroke="black" d="M1589.73,-390.41C1581.89,-385.86 1573.76,-381.29 1566,-377.18 1539.65,-363.24 1509.73,-349.04 1484.59,-337.55"/>
<polygon fill="black" stroke="black" points="1485.76,-334.24 1475.21,-333.29 1482.87,-340.61 1485.76,-334.24"/>
</g>
<!-- R²_b2_dist -->
<g id="node10" class="node">
<title>R²_b2_dist</title>
<ellipse fill="none" stroke="black" cx="766" cy="-418.48" rx="60.02" ry="41.09"/>
<text text-anchor="middle" x="766" y="-431.08" font-family="Times,serif" font-size="14.00">R²_b2_dist</text>
<text text-anchor="middle" x="766" y="-414.28" font-family="Times,serif" font-size="14.00">~</text>
<text text-anchor="middle" x="766" y="-397.48" font-family="Times,serif" font-size="14.00">Gumbel</text>
</g>
<!-- R²_b2 -->
<g id="node17" class="node">
<title>R²_b2</title>
<polygon fill="none" stroke="black" points="681.2,-341.38 588.8,-341.38 588.8,-282.58 681.2,-282.58 681.2,-341.38"/>
<text text-anchor="middle" x="635" y="-324.58" font-family="Times,serif" font-size="14.00">R²_b2</text>
<text text-anchor="middle" x="635" y="-307.78" font-family="Times,serif" font-size="14.00">~</text>
<text text-anchor="middle" x="635" y="-290.98" font-family="Times,serif" font-size="14.00">Deterministic</text>
</g>
<!-- R²_b2_dist&#45;&gt;R²_b2 -->
<g id="edge10" class="edge">
<title>R²_b2_dist&#45;&gt;R²_b2</title>
<path fill="none" stroke="black" d="M727.4,-386.69C712.11,-374.49 694.44,-360.4 678.68,-347.82"/>
<polygon fill="black" stroke="black" points="680.63,-344.9 670.63,-341.4 676.27,-350.38 680.63,-344.9"/>
</g>
<!-- R²_sigma1 -->
<g id="node11" class="node">
<title>R²_sigma1</title>
<ellipse fill="none" stroke="black" cx="211" cy="-418.48" rx="59.91" ry="41.09"/>
<text text-anchor="middle" x="211" y="-431.08" font-family="Times,serif" font-size="14.00">R²_sigma1</text>
<text text-anchor="middle" x="211" y="-414.28" font-family="Times,serif" font-size="14.00">~</text>
<text text-anchor="middle" x="211" y="-397.48" font-family="Times,serif" font-size="14.00">HalfNormal</text>
</g>
<!-- R²_sigma1&#45;&gt;R²_b1 -->
<g id="edge6" class="edge">
<title>R²_sigma1&#45;&gt;R²_b1</title>
<path fill="none" stroke="black" d="M213.71,-377.07C214.27,-368.68 214.86,-359.84 215.42,-351.51"/>
<polygon fill="black" stroke="black" points="218.93,-351.51 216.1,-341.3 211.94,-351.04 218.93,-351.51"/>
</g>
<!-- R²_mu_b1 -->
<g id="node12" class="node">
<title>R²_mu_b1</title>
<ellipse fill="none" stroke="black" cx="75" cy="-418.48" rx="58.72" ry="41.09"/>
<text text-anchor="middle" x="75" y="-431.08" font-family="Times,serif" font-size="14.00">R²_mu_b1</text>
<text text-anchor="middle" x="75" y="-414.28" font-family="Times,serif" font-size="14.00">~</text>
<text text-anchor="middle" x="75" y="-397.48" font-family="Times,serif" font-size="14.00">Normal</text>
</g>
<!-- R²_mu_b1&#45;&gt;R²_b1 -->
<g id="edge5" class="edge">
<title>R²_mu_b1&#45;&gt;R²_b1</title>
<path fill="none" stroke="black" d="M115.21,-388.09C132.55,-375.42 152.94,-360.52 170.97,-347.34"/>
<polygon fill="black" stroke="black" points="173.06,-350.15 179.07,-341.42 168.93,-344.5 173.06,-350.15"/>
</g>
<!-- R²_b1&#45;&gt;R²_mu -->
<g id="edge17" class="edge">
<title>R²_b1&#45;&gt;R²_mu</title>
<path fill="none" stroke="black" d="M264.22,-294.33C303.98,-280.59 363.11,-261.54 416,-249.98 523.88,-226.4 652.37,-212.65 724.54,-206.2"/>
<polygon fill="black" stroke="black" points="725.11,-209.67 734.76,-205.31 724.5,-202.69 725.11,-209.67"/>
</g>
<!-- R²_mu_b2 -->
<g id="node14" class="node">
<title>R²_mu_b2</title>
<ellipse fill="none" stroke="black" cx="629" cy="-418.48" rx="58.72" ry="41.09"/>
<text text-anchor="middle" x="629" y="-431.08" font-family="Times,serif" font-size="14.00">R²_mu_b2</text>
<text text-anchor="middle" x="629" y="-414.28" font-family="Times,serif" font-size="14.00">~</text>
<text text-anchor="middle" x="629" y="-397.48" font-family="Times,serif" font-size="14.00">Normal</text>
</g>
<!-- R²_mu_b2&#45;&gt;R²_b2 -->
<g id="edge8" class="edge">
<title>R²_mu_b2&#45;&gt;R²_b2</title>
<path fill="none" stroke="black" d="M631.32,-377.07C631.8,-368.68 632.31,-359.84 632.79,-351.51"/>
<polygon fill="black" stroke="black" points="636.29,-351.49 633.37,-341.3 629.31,-351.08 636.29,-351.49"/>
</g>
<!-- R²_sigma2 -->
<g id="node15" class="node">
<title>R²_sigma2</title>
<ellipse fill="none" stroke="black" cx="490" cy="-537.07" rx="59.91" ry="41.09"/>
<text text-anchor="middle" x="490" y="-549.67" font-family="Times,serif" font-size="14.00">R²_sigma2</text>
<text text-anchor="middle" x="490" y="-532.87" font-family="Times,serif" font-size="14.00">~</text>
<text text-anchor="middle" x="490" y="-516.07" font-family="Times,serif" font-size="14.00">HalfNormal</text>
</g>
<!-- R²_b2_beta -->
<g id="node16" class="node">
<title>R²_b2_beta</title>
<ellipse fill="none" stroke="black" cx="490" cy="-418.48" rx="62.4" ry="41.09"/>
<text text-anchor="middle" x="490" y="-431.08" font-family="Times,serif" font-size="14.00">R²_b2_beta</text>
<text text-anchor="middle" x="490" y="-414.28" font-family="Times,serif" font-size="14.00">~</text>
<text text-anchor="middle" x="490" y="-397.48" font-family="Times,serif" font-size="14.00">HalfNormal</text>
</g>
<!-- R²_sigma2&#45;&gt;R²_b2_beta -->
<g id="edge7" class="edge">
<title>R²_sigma2&#45;&gt;R²_b2_beta</title>
<path fill="none" stroke="black" d="M490,-495.61C490,-487.39 490,-478.63 490,-470.1"/>
<polygon fill="black" stroke="black" points="493.5,-469.85 490,-459.85 486.5,-469.85 493.5,-469.85"/>
</g>
<!-- R²_b2_beta&#45;&gt;R²_b2 -->
<g id="edge9" class="edge">
<title>R²_b2_beta&#45;&gt;R²_b2</title>
<path fill="none" stroke="black" d="M531.55,-387.53C548.81,-375.09 568.95,-360.58 586.85,-347.68"/>
<polygon fill="black" stroke="black" points="589.37,-350.18 595.44,-341.49 585.28,-344.5 589.37,-350.18"/>
</g>
<!-- R²_b2&#45;&gt;R²_mu -->
<g id="edge14" class="edge">
<title>R²_b2&#45;&gt;R²_mu</title>
<path fill="none" stroke="black" d="M672.98,-282.55C691.99,-268.32 715.15,-250.98 735.15,-236.01"/>
<polygon fill="black" stroke="black" points="737.3,-238.77 743.21,-229.97 733.11,-233.16 737.3,-238.77"/>
</g>
<!-- R²_M12&#45;&gt;R²_mu -->
<g id="edge16" class="edge">
<title>R²_M12&#45;&gt;R²_mu</title>
<path fill="none" stroke="black" d="M885.32,-282.55C867.04,-268.38 844.79,-251.13 825.54,-236.21"/>
<polygon fill="black" stroke="black" points="827.54,-233.33 817.49,-229.97 823.25,-238.87 827.54,-233.33"/>
</g>
<!-- R²_mu_M12 -->
<g id="node19" class="node">
<title>R²_mu_M12</title>
<ellipse fill="none" stroke="black" cx="912" cy="-418.48" rx="67.32" ry="41.09"/>
<text text-anchor="middle" x="912" y="-431.08" font-family="Times,serif" font-size="14.00">R²_mu_M12</text>
<text text-anchor="middle" x="912" y="-414.28" font-family="Times,serif" font-size="14.00">~</text>
<text text-anchor="middle" x="912" y="-397.48" font-family="Times,serif" font-size="14.00">Normal</text>
</g>
<!-- R²_mu_M12&#45;&gt;R²_M12 -->
<g id="edge11" class="edge">
<title>R²_mu_M12&#45;&gt;R²_M12</title>
<path fill="none" stroke="black" d="M915.87,-377.07C916.67,-368.68 917.52,-359.84 918.31,-351.51"/>
<polygon fill="black" stroke="black" points="921.82,-351.59 919.29,-341.3 914.85,-350.92 921.82,-351.59"/>
</g>
<!-- R²_mu&#45;&gt;R²_y -->
<g id="edge19" class="edge">
<title>R²_mu&#45;&gt;R²_y</title>
<path fill="none" stroke="black" d="M781,-171.46C781,-160.08 781,-146.6 781,-133.63"/>
<polygon fill="black" stroke="black" points="784.5,-133.4 781,-123.4 777.5,-133.4 784.5,-133.4"/>
</g>
</g>
</svg>
