<?xml version="1.0" encoding="UTF-8" standalone="no"?>
<!DOCTYPE svg PUBLIC "-//W3C//DTD SVG 1.1//EN"
 "http://www.w3.org/Graphics/SVG/1.1/DTD/svg11.dtd">
<!-- Generated by graphviz version 2.42.1 (20190717.1914)
 -->
<!-- Title: Smfc Pages: 1 -->
<svg width="1829pt" height="602pt"
 viewBox="0.00 0.00 1829.42 602.36" xmlns="http://www.w3.org/2000/svg" xmlns:xlink="http://www.w3.org/1999/xlink">
<g id="graph0" class="graph" transform="scale(1 1) rotate(0) translate(4 598.36)">
<title>Smfc</title>
<polygon fill="white" stroke="transparent" points="-4,4 -4,-598.36 1825.42,-598.36 1825.42,4 -4,4"/>
<g id="clust1" class="cluster">
<title>cluster2</title>
<path fill="none" stroke="black" d="M154.31,-249.98C154.31,-249.98 425.31,-249.98 425.31,-249.98 431.31,-249.98 437.31,-255.98 437.31,-261.98 437.31,-261.98 437.31,-455.77 437.31,-455.77 437.31,-461.77 431.31,-467.77 425.31,-467.77 425.31,-467.77 154.31,-467.77 154.31,-467.77 148.31,-467.77 142.31,-461.77 142.31,-455.77 142.31,-455.77 142.31,-261.98 142.31,-261.98 142.31,-255.98 148.31,-249.98 154.31,-249.98"/>
<text text-anchor="middle" x="425.81" y="-258.18" font-family="Times,serif" font-size="14.00">2</text>
</g>
<g id="clust2" class="cluster">
<title>cluster11</title>
<path fill="none" stroke="black" d="M897.31,-249.98C897.31,-249.98 1173.31,-249.98 1173.31,-249.98 1179.31,-249.98 1185.31,-255.98 1185.31,-261.98 1185.31,-261.98 1185.31,-574.36 1185.31,-574.36 1185.31,-580.36 1179.31,-586.36 1173.31,-586.36 1173.31,-586.36 897.31,-586.36 897.31,-586.36 891.31,-586.36 885.31,-580.36 885.31,-574.36 885.31,-574.36 885.31,-261.98 885.31,-261.98 885.31,-255.98 891.31,-249.98 897.31,-249.98"/>
<text text-anchor="middle" x="1170.31" y="-258.18" font-family="Times,serif" font-size="14.00">11</text>
</g>
<g id="clust3" class="cluster">
<title>cluster2 x 11</title>
<path fill="none" stroke="black" d="M1351.31,-249.98C1351.31,-249.98 1489.31,-249.98 1489.31,-249.98 1495.31,-249.98 1501.31,-255.98 1501.31,-261.98 1501.31,-261.98 1501.31,-455.77 1501.31,-455.77 1501.31,-461.77 1495.31,-467.77 1489.31,-467.77 1489.31,-467.77 1351.31,-467.77 1351.31,-467.77 1345.31,-467.77 1339.31,-461.77 1339.31,-455.77 1339.31,-455.77 1339.31,-261.98 1339.31,-261.98 1339.31,-255.98 1345.31,-249.98 1351.31,-249.98"/>
<text text-anchor="middle" x="1475.81" y="-258.18" font-family="Times,serif" font-size="14.00">2 x 11</text>
</g>
<g id="clust4" class="cluster">
<title>cluster280</title>
<path fill="none" stroke="black" d="M877.31,-8C877.31,-8 965.31,-8 965.31,-8 971.31,-8 977.31,-14 977.31,-20 977.31,-20 977.31,-225.89 977.31,-225.89 977.31,-231.89 971.31,-237.89 965.31,-237.89 965.31,-237.89 877.31,-237.89 877.31,-237.89 871.31,-237.89 865.31,-231.89 865.31,-225.89 865.31,-225.89 865.31,-20 865.31,-20 865.31,-14 871.31,-8 877.31,-8"/>
<text text-anchor="middle" x="958.81" y="-16.2" font-family="Times,serif" font-size="14.00">280</text>
</g>
<!-- Smfc_b1_dist -->
<g id="node1" class="node">
<title>Smfc_b1_dist</title>
<ellipse fill="none" stroke="black" cx="66.31" cy="-418.48" rx="66.12" ry="41.09"/>
<text text-anchor="middle" x="66.31" y="-431.08" font-family="Times,serif" font-size="14.00">Smfc_b1_dist</text>
<text text-anchor="middle" x="66.31" y="-414.28" font-family="Times,serif" font-size="14.00">~</text>
<text text-anchor="middle" x="66.31" y="-397.48" font-family="Times,serif" font-size="14.00">Normal</text>
</g>
<!-- Smfc_b1 -->
<g id="node13" class="node">
<title>Smfc_b1</title>
<polygon fill="none" stroke="black" points="335.51,-341.38 243.11,-341.38 243.11,-282.58 335.51,-282.58 335.51,-341.38"/>
<text text-anchor="middle" x="289.31" y="-324.58" font-family="Times,serif" font-size="14.00">Smfc_b1</text>
<text text-anchor="middle" x="289.31" y="-307.78" font-family="Times,serif" font-size="14.00">~</text>
<text text-anchor="middle" x="289.31" y="-290.98" font-family="Times,serif" font-size="14.00">Deterministic</text>
</g>
<!-- Smfc_b1_dist&#45;&gt;Smfc_b1 -->
<g id="edge5" class="edge">
<title>Smfc_b1_dist&#45;&gt;Smfc_b1</title>
<path fill="none" stroke="black" d="M114.34,-389.65C122.27,-385.33 130.46,-381.03 138.31,-377.18 169.33,-361.96 204.85,-346.75 233.64,-334.96"/>
<polygon fill="black" stroke="black" points="235.19,-338.11 243.13,-331.1 232.55,-331.63 235.19,-338.11"/>
</g>
<!-- Smfc_b0_dist -->
<g id="node2" class="node">
<title>Smfc_b0_dist</title>
<ellipse fill="none" stroke="black" cx="513.31" cy="-418.48" rx="66.12" ry="41.09"/>
<text text-anchor="middle" x="513.31" y="-431.08" font-family="Times,serif" font-size="14.00">Smfc_b0_dist</text>
<text text-anchor="middle" x="513.31" y="-414.28" font-family="Times,serif" font-size="14.00">~</text>
<text text-anchor="middle" x="513.31" y="-397.48" font-family="Times,serif" font-size="14.00">Normal</text>
</g>
<!-- Smfc_b0 -->
<g id="node6" class="node">
<title>Smfc_b0</title>
<polygon fill="none" stroke="black" points="782.51,-341.38 690.11,-341.38 690.11,-282.58 782.51,-282.58 782.51,-341.38"/>
<text text-anchor="middle" x="736.31" y="-324.58" font-family="Times,serif" font-size="14.00">Smfc_b0</text>
<text text-anchor="middle" x="736.31" y="-307.78" font-family="Times,serif" font-size="14.00">~</text>
<text text-anchor="middle" x="736.31" y="-290.98" font-family="Times,serif" font-size="14.00">Deterministic</text>
</g>
<!-- Smfc_b0_dist&#45;&gt;Smfc_b0 -->
<g id="edge1" class="edge">
<title>Smfc_b0_dist&#45;&gt;Smfc_b0</title>
<path fill="none" stroke="black" d="M562.22,-390.44C570.85,-385.89 579.79,-381.3 588.31,-377.18 618.54,-362.53 652.93,-347.52 680.95,-335.7"/>
<polygon fill="black" stroke="black" points="682.33,-338.91 690.19,-331.81 679.61,-332.46 682.33,-338.91"/>
</g>
<!-- Smfc_sigmaY -->
<g id="node3" class="node">
<title>Smfc_sigmaY</title>
<ellipse fill="none" stroke="black" cx="1053.31" cy="-200.69" rx="67.9" ry="41.09"/>
<text text-anchor="middle" x="1053.31" y="-213.29" font-family="Times,serif" font-size="14.00">Smfc_sigmaY</text>
<text text-anchor="middle" x="1053.31" y="-196.49" font-family="Times,serif" font-size="14.00">~</text>
<text text-anchor="middle" x="1053.31" y="-179.69" font-family="Times,serif" font-size="14.00">Gamma</text>
</g>
<!-- Smfc_y -->
<g id="node20" class="node">
<title>Smfc_y</title>
<ellipse fill="lightgrey" stroke="black" cx="921.31" cy="-82.1" rx="47.72" ry="41.09"/>
<text text-anchor="middle" x="921.31" y="-94.7" font-family="Times,serif" font-size="14.00">Smfc_y</text>
<text text-anchor="middle" x="921.31" y="-77.9" font-family="Times,serif" font-size="14.00">~</text>
<text text-anchor="middle" x="921.31" y="-61.1" font-family="Times,serif" font-size="14.00">StudentT</text>
</g>
<!-- Smfc_sigmaY&#45;&gt;Smfc_y -->
<g id="edge19" class="edge">
<title>Smfc_sigmaY&#45;&gt;Smfc_y</title>
<path fill="none" stroke="black" d="M1015.48,-166.28C998.7,-151.45 978.93,-133.99 961.85,-118.9"/>
<polygon fill="black" stroke="black" points="964.02,-116.15 954.21,-112.15 959.38,-121.4 964.02,-116.15"/>
</g>
<!-- Smfc_b2_dist -->
<g id="node4" class="node">
<title>Smfc_b2_dist</title>
<ellipse fill="none" stroke="black" cx="1262.31" cy="-418.48" rx="66.12" ry="41.09"/>
<text text-anchor="middle" x="1262.31" y="-431.08" font-family="Times,serif" font-size="14.00">Smfc_b2_dist</text>
<text text-anchor="middle" x="1262.31" y="-414.28" font-family="Times,serif" font-size="14.00">~</text>
<text text-anchor="middle" x="1262.31" y="-397.48" font-family="Times,serif" font-size="14.00">Gumbel</text>
</g>
<!-- Smfc_b2 -->
<g id="node15" class="node">
<title>Smfc_b2</title>
<polygon fill="none" stroke="black" points="1079.51,-341.38 987.11,-341.38 987.11,-282.58 1079.51,-282.58 1079.51,-341.38"/>
<text text-anchor="middle" x="1033.31" y="-324.58" font-family="Times,serif" font-size="14.00">Smfc_b2</text>
<text text-anchor="middle" x="1033.31" y="-307.78" font-family="Times,serif" font-size="14.00">~</text>
<text text-anchor="middle" x="1033.31" y="-290.98" font-family="Times,serif" font-size="14.00">Deterministic</text>
</g>
<!-- Smfc_b2_dist&#45;&gt;Smfc_b2 -->
<g id="edge10" class="edge">
<title>Smfc_b2_dist&#45;&gt;Smfc_b2</title>
<path fill="none" stroke="black" d="M1214.02,-389.82C1205.85,-385.43 1197.4,-381.06 1189.31,-377.18 1156.67,-361.52 1119.17,-346.01 1089.12,-334.16"/>
<polygon fill="black" stroke="black" points="1090.23,-330.84 1079.65,-330.45 1087.68,-337.36 1090.23,-330.84"/>
</g>
<!-- Smfc_sigma12 -->
<g id="node5" class="node">
<title>Smfc_sigma12</title>
<ellipse fill="none" stroke="black" cx="1582.31" cy="-418.48" rx="70.91" ry="41.09"/>
<text text-anchor="middle" x="1582.31" y="-431.08" font-family="Times,serif" font-size="14.00">Smfc_sigma12</text>
<text text-anchor="middle" x="1582.31" y="-414.28" font-family="Times,serif" font-size="14.00">~</text>
<text text-anchor="middle" x="1582.31" y="-397.48" font-family="Times,serif" font-size="14.00">HalfNormal</text>
</g>
<!-- Smfc_M12 -->
<g id="node19" class="node">
<title>Smfc_M12</title>
<polygon fill="none" stroke="black" points="1479.51,-341.38 1387.11,-341.38 1387.11,-282.58 1479.51,-282.58 1479.51,-341.38"/>
<text text-anchor="middle" x="1433.31" y="-324.58" font-family="Times,serif" font-size="14.00">Smfc_M12</text>
<text text-anchor="middle" x="1433.31" y="-307.78" font-family="Times,serif" font-size="14.00">~</text>
<text text-anchor="middle" x="1433.31" y="-290.98" font-family="Times,serif" font-size="14.00">Deterministic</text>
</g>
<!-- Smfc_sigma12&#45;&gt;Smfc_M12 -->
<g id="edge11" class="edge">
<title>Smfc_sigma12&#45;&gt;Smfc_M12</title>
<path fill="none" stroke="black" d="M1537.6,-386.12C1520.14,-373.88 1500.07,-359.8 1482.23,-347.29"/>
<polygon fill="black" stroke="black" points="1483.87,-344.16 1473.67,-341.28 1479.85,-349.89 1483.87,-344.16"/>
</g>
<!-- Smfc_mu -->
<g id="node21" class="node">
<title>Smfc_mu</title>
<polygon fill="none" stroke="black" points="967.51,-230.09 875.11,-230.09 875.11,-171.28 967.51,-171.28 967.51,-230.09"/>
<text text-anchor="middle" x="921.31" y="-213.29" font-family="Times,serif" font-size="14.00">Smfc_mu</text>
<text text-anchor="middle" x="921.31" y="-196.49" font-family="Times,serif" font-size="14.00">~</text>
<text text-anchor="middle" x="921.31" y="-179.69" font-family="Times,serif" font-size="14.00">Deterministic</text>
</g>
<!-- Smfc_b0&#45;&gt;Smfc_mu -->
<g id="edge14" class="edge">
<title>Smfc_b0&#45;&gt;Smfc_mu</title>
<path fill="none" stroke="black" d="M782.51,-283.68C807.9,-268.69 839.55,-249.99 866.21,-234.23"/>
<polygon fill="black" stroke="black" points="868.22,-237.11 875.05,-229.01 864.66,-231.09 868.22,-237.11"/>
</g>
<!-- Smfc_nuY -->
<g id="node7" class="node">
<title>Smfc_nuY</title>
<ellipse fill="none" stroke="black" cx="1198.31" cy="-200.69" rx="59.3" ry="41.09"/>
<text text-anchor="middle" x="1198.31" y="-213.29" font-family="Times,serif" font-size="14.00">Smfc_nuY</text>
<text text-anchor="middle" x="1198.31" y="-196.49" font-family="Times,serif" font-size="14.00">~</text>
<text text-anchor="middle" x="1198.31" y="-179.69" font-family="Times,serif" font-size="14.00">Exponential</text>
</g>
<!-- Smfc_nuY&#45;&gt;Smfc_y -->
<g id="edge18" class="edge">
<title>Smfc_nuY&#45;&gt;Smfc_y</title>
<path fill="none" stroke="black" d="M1155.06,-172.45C1146.98,-167.82 1138.49,-163.27 1130.31,-159.39 1079.3,-135.22 1018.43,-113.79 975.58,-99.84"/>
<polygon fill="black" stroke="black" points="976.5,-96.46 965.9,-96.72 974.35,-103.12 976.5,-96.46"/>
</g>
<!-- Smfc_M12_dist -->
<g id="node8" class="node">
<title>Smfc_M12_dist</title>
<ellipse fill="none" stroke="black" cx="1746.31" cy="-418.48" rx="75.22" ry="41.09"/>
<text text-anchor="middle" x="1746.31" y="-431.08" font-family="Times,serif" font-size="14.00">Smfc_M12_dist</text>
<text text-anchor="middle" x="1746.31" y="-414.28" font-family="Times,serif" font-size="14.00">~</text>
<text text-anchor="middle" x="1746.31" y="-397.48" font-family="Times,serif" font-size="14.00">Normal</text>
</g>
<!-- Smfc_M12_dist&#45;&gt;Smfc_M12 -->
<g id="edge13" class="edge">
<title>Smfc_M12_dist&#45;&gt;Smfc_M12</title>
<path fill="none" stroke="black" d="M1691.78,-389.63C1682.09,-385.17 1672,-380.83 1662.31,-377.18 1604.71,-355.48 1536.55,-337.28 1489.65,-325.87"/>
<polygon fill="black" stroke="black" points="1490.23,-322.41 1479.68,-323.47 1488.59,-329.21 1490.23,-322.41"/>
</g>
<!-- Smfc_mu_b0 -->
<g id="node9" class="node">
<title>Smfc_mu_b0</title>
<ellipse fill="none" stroke="black" cx="662.31" cy="-418.48" rx="64.81" ry="41.09"/>
<text text-anchor="middle" x="662.31" y="-431.08" font-family="Times,serif" font-size="14.00">Smfc_mu_b0</text>
<text text-anchor="middle" x="662.31" y="-414.28" font-family="Times,serif" font-size="14.00">~</text>
<text text-anchor="middle" x="662.31" y="-397.48" font-family="Times,serif" font-size="14.00">Normal</text>
</g>
<!-- Smfc_mu_b0&#45;&gt;Smfc_b0 -->
<g id="edge3" class="edge">
<title>Smfc_mu_b0&#45;&gt;Smfc_b0</title>
<path fill="none" stroke="black" d="M688.4,-380.63C695.55,-370.53 703.3,-359.59 710.44,-349.51"/>
<polygon fill="black" stroke="black" points="713.34,-351.47 716.27,-341.28 707.63,-347.42 713.34,-351.47"/>
</g>
<!-- Smfc_sigma0 -->
<g id="node10" class="node">
<title>Smfc_sigma0</title>
<ellipse fill="none" stroke="black" cx="810.31" cy="-418.48" rx="65.51" ry="41.09"/>
<text text-anchor="middle" x="810.31" y="-431.08" font-family="Times,serif" font-size="14.00">Smfc_sigma0</text>
<text text-anchor="middle" x="810.31" y="-414.28" font-family="Times,serif" font-size="14.00">~</text>
<text text-anchor="middle" x="810.31" y="-397.48" font-family="Times,serif" font-size="14.00">HalfNormal</text>
</g>
<!-- Smfc_sigma0&#45;&gt;Smfc_b0 -->
<g id="edge2" class="edge">
<title>Smfc_sigma0&#45;&gt;Smfc_b0</title>
<path fill="none" stroke="black" d="M784.01,-380.34C777.01,-370.45 769.44,-359.77 762.45,-349.89"/>
<polygon fill="black" stroke="black" points="765.11,-347.59 756.47,-341.45 759.4,-351.64 765.11,-347.59"/>
</g>
<!-- Smfc_sigma1 -->
<g id="node11" class="node">
<title>Smfc_sigma1</title>
<ellipse fill="none" stroke="black" cx="363.31" cy="-418.48" rx="65.51" ry="41.09"/>
<text text-anchor="middle" x="363.31" y="-431.08" font-family="Times,serif" font-size="14.00">Smfc_sigma1</text>
<text text-anchor="middle" x="363.31" y="-414.28" font-family="Times,serif" font-size="14.00">~</text>
<text text-anchor="middle" x="363.31" y="-397.48" font-family="Times,serif" font-size="14.00">HalfNormal</text>
</g>
<!-- Smfc_sigma1&#45;&gt;Smfc_b1 -->
<g id="edge4" class="edge">
<title>Smfc_sigma1&#45;&gt;Smfc_b1</title>
<path fill="none" stroke="black" d="M337.01,-380.34C330.01,-370.45 322.44,-359.77 315.45,-349.89"/>
<polygon fill="black" stroke="black" points="318.11,-347.59 309.47,-341.45 312.4,-351.64 318.11,-347.59"/>
</g>
<!-- Smfc_mu_b1 -->
<g id="node12" class="node">
<title>Smfc_mu_b1</title>
<ellipse fill="none" stroke="black" cx="215.31" cy="-418.48" rx="64.81" ry="41.09"/>
<text text-anchor="middle" x="215.31" y="-431.08" font-family="Times,serif" font-size="14.00">Smfc_mu_b1</text>
<text text-anchor="middle" x="215.31" y="-414.28" font-family="Times,serif" font-size="14.00">~</text>
<text text-anchor="middle" x="215.31" y="-397.48" font-family="Times,serif" font-size="14.00">Normal</text>
</g>
<!-- Smfc_mu_b1&#45;&gt;Smfc_b1 -->
<g id="edge6" class="edge">
<title>Smfc_mu_b1&#45;&gt;Smfc_b1</title>
<path fill="none" stroke="black" d="M241.4,-380.63C248.55,-370.53 256.3,-359.59 263.44,-349.51"/>
<polygon fill="black" stroke="black" points="266.34,-351.47 269.27,-341.28 260.63,-347.42 266.34,-351.47"/>
</g>
<!-- Smfc_b1&#45;&gt;Smfc_mu -->
<g id="edge17" class="edge">
<title>Smfc_b1&#45;&gt;Smfc_mu</title>
<path fill="none" stroke="black" d="M335.52,-302.99C449.14,-283.34 741.79,-232.73 865.15,-211.4"/>
<polygon fill="black" stroke="black" points="865.89,-214.82 875.14,-209.67 864.69,-207.92 865.89,-214.82"/>
</g>
<!-- Smfc_sigma2 -->
<g id="node14" class="node">
<title>Smfc_sigma2</title>
<ellipse fill="none" stroke="black" cx="1109.31" cy="-537.07" rx="65.51" ry="41.09"/>
<text text-anchor="middle" x="1109.31" y="-549.67" font-family="Times,serif" font-size="14.00">Smfc_sigma2</text>
<text text-anchor="middle" x="1109.31" y="-532.87" font-family="Times,serif" font-size="14.00">~</text>
<text text-anchor="middle" x="1109.31" y="-516.07" font-family="Times,serif" font-size="14.00">HalfNormal</text>
</g>
<!-- Smfc_b2_beta -->
<g id="node17" class="node">
<title>Smfc_b2_beta</title>
<ellipse fill="none" stroke="black" cx="1109.31" cy="-418.48" rx="68.49" ry="41.09"/>
<text text-anchor="middle" x="1109.31" y="-431.08" font-family="Times,serif" font-size="14.00">Smfc_b2_beta</text>
<text text-anchor="middle" x="1109.31" y="-414.28" font-family="Times,serif" font-size="14.00">~</text>
<text text-anchor="middle" x="1109.31" y="-397.48" font-family="Times,serif" font-size="14.00">HalfNormal</text>
</g>
<!-- Smfc_sigma2&#45;&gt;Smfc_b2_beta -->
<g id="edge7" class="edge">
<title>Smfc_sigma2&#45;&gt;Smfc_b2_beta</title>
<path fill="none" stroke="black" d="M1109.31,-495.61C1109.31,-487.39 1109.31,-478.63 1109.31,-470.1"/>
<polygon fill="black" stroke="black" points="1112.81,-469.85 1109.31,-459.85 1105.81,-469.85 1112.81,-469.85"/>
</g>
<!-- Smfc_b2&#45;&gt;Smfc_mu -->
<g id="edge15" class="edge">
<title>Smfc_b2&#45;&gt;Smfc_mu</title>
<path fill="none" stroke="black" d="M1004.17,-282.55C989.91,-268.63 972.61,-251.75 957.51,-237.01"/>
<polygon fill="black" stroke="black" points="959.9,-234.45 950.3,-229.97 955.01,-239.46 959.9,-234.45"/>
</g>
<!-- Smfc_mu_b2 -->
<g id="node16" class="node">
<title>Smfc_mu_b2</title>
<ellipse fill="none" stroke="black" cx="958.31" cy="-418.48" rx="64.81" ry="41.09"/>
<text text-anchor="middle" x="958.31" y="-431.08" font-family="Times,serif" font-size="14.00">Smfc_mu_b2</text>
<text text-anchor="middle" x="958.31" y="-414.28" font-family="Times,serif" font-size="14.00">~</text>
<text text-anchor="middle" x="958.31" y="-397.48" font-family="Times,serif" font-size="14.00">Normal</text>
</g>
<!-- Smfc_mu_b2&#45;&gt;Smfc_b2 -->
<g id="edge9" class="edge">
<title>Smfc_mu_b2&#45;&gt;Smfc_b2</title>
<path fill="none" stroke="black" d="M984.75,-380.63C992,-370.53 999.85,-359.59 1007.09,-349.51"/>
<polygon fill="black" stroke="black" points="1010.01,-351.45 1013,-341.28 1004.32,-347.36 1010.01,-351.45"/>
</g>
<!-- Smfc_b2_beta&#45;&gt;Smfc_b2 -->
<g id="edge8" class="edge">
<title>Smfc_b2_beta&#45;&gt;Smfc_b2</title>
<path fill="none" stroke="black" d="M1082.3,-380.34C1075.03,-370.35 1067.18,-359.55 1059.93,-349.59"/>
<polygon fill="black" stroke="black" points="1062.73,-347.48 1054.02,-341.45 1057.07,-351.6 1062.73,-347.48"/>
</g>
<!-- Smfc_mu_M12 -->
<g id="node18" class="node">
<title>Smfc_mu_M12</title>
<ellipse fill="none" stroke="black" cx="1420.31" cy="-418.48" rx="73.41" ry="41.09"/>
<text text-anchor="middle" x="1420.31" y="-431.08" font-family="Times,serif" font-size="14.00">Smfc_mu_M12</text>
<text text-anchor="middle" x="1420.31" y="-414.28" font-family="Times,serif" font-size="14.00">~</text>
<text text-anchor="middle" x="1420.31" y="-397.48" font-family="Times,serif" font-size="14.00">Normal</text>
</g>
<!-- Smfc_mu_M12&#45;&gt;Smfc_M12 -->
<g id="edge12" class="edge">
<title>Smfc_mu_M12&#45;&gt;Smfc_M12</title>
<path fill="none" stroke="black" d="M1425.33,-377.07C1426.39,-368.58 1427.5,-359.65 1428.55,-351.24"/>
<polygon fill="black" stroke="black" points="1432.02,-351.66 1429.79,-341.3 1425.08,-350.79 1432.02,-351.66"/>
</g>
<!-- Smfc_M12&#45;&gt;Smfc_mu -->
<g id="edge16" class="edge">
<title>Smfc_M12&#45;&gt;Smfc_mu</title>
<path fill="none" stroke="black" d="M1387.1,-296.37C1338.45,-281.72 1259.34,-259.94 1189.31,-249.98 1142.41,-243.31 1021.04,-257.55 976.31,-241.98 971.47,-240.3 966.7,-238.03 962.11,-235.43"/>
<polygon fill="black" stroke="black" points="963.86,-232.4 953.53,-230.07 960.16,-238.34 963.86,-232.4"/>
</g>
<!-- Smfc_mu&#45;&gt;Smfc_y -->
<g id="edge20" class="edge">
<title>Smfc_mu&#45;&gt;Smfc_y</title>
<path fill="none" stroke="black" d="M921.31,-171.46C921.31,-160.08 921.31,-146.6 921.31,-133.63"/>
<polygon fill="black" stroke="black" points="924.81,-133.4 921.31,-123.4 917.81,-133.4 924.81,-133.4"/>
</g>
</g>
</svg>
