<?xml version="1.0" encoding="UTF-8" standalone="no"?>
<!DOCTYPE svg PUBLIC "-//W3C//DTD SVG 1.1//EN"
 "http://www.w3.org/Graphics/SVG/1.1/DTD/svg11.dtd">
<!-- Generated by graphviz version 2.42.1 (20190717.1914)
 -->
<!-- Title: epLsar Pages: 1 -->
<svg width="1992pt" height="602pt"
 viewBox="0.00 0.00 1991.69 602.36" xmlns="http://www.w3.org/2000/svg" xmlns:xlink="http://www.w3.org/1999/xlink">
<g id="graph0" class="graph" transform="scale(1 1) rotate(0) translate(4 598.36)">
<title>epLsar</title>
<polygon fill="white" stroke="transparent" points="-4,4 -4,-598.36 1987.69,-598.36 1987.69,4 -4,4"/>
<g id="clust1" class="cluster">
<title>cluster2</title>
<path fill="none" stroke="black" d="M20,-249.98C20,-249.98 315,-249.98 315,-249.98 321,-249.98 327,-255.98 327,-261.98 327,-261.98 327,-455.77 327,-455.77 327,-461.77 321,-467.77 315,-467.77 315,-467.77 20,-467.77 20,-467.77 14,-467.77 8,-461.77 8,-455.77 8,-455.77 8,-261.98 8,-261.98 8,-255.98 14,-249.98 20,-249.98"/>
<text text-anchor="middle" x="315.5" y="-258.18" font-family="Times,serif" font-size="14.00">2</text>
</g>
<g id="clust2" class="cluster">
<title>cluster11</title>
<path fill="none" stroke="black" d="M503,-249.98C503,-249.98 804,-249.98 804,-249.98 810,-249.98 816,-255.98 816,-261.98 816,-261.98 816,-574.36 816,-574.36 816,-580.36 810,-586.36 804,-586.36 804,-586.36 503,-586.36 503,-586.36 497,-586.36 491,-580.36 491,-574.36 491,-574.36 491,-261.98 491,-261.98 491,-255.98 497,-249.98 503,-249.98"/>
<text text-anchor="middle" x="801" y="-258.18" font-family="Times,serif" font-size="14.00">11</text>
</g>
<g id="clust3" class="cluster">
<title>cluster2 x 11</title>
<path fill="none" stroke="black" d="M993,-249.98C993,-249.98 1143,-249.98 1143,-249.98 1149,-249.98 1155,-255.98 1155,-261.98 1155,-261.98 1155,-455.77 1155,-455.77 1155,-461.77 1149,-467.77 1143,-467.77 1143,-467.77 993,-467.77 993,-467.77 987,-467.77 981,-461.77 981,-455.77 981,-455.77 981,-261.98 981,-261.98 981,-255.98 987,-249.98 993,-249.98"/>
<text text-anchor="middle" x="1129.5" y="-258.18" font-family="Times,serif" font-size="14.00">2 x 11</text>
</g>
<g id="clust4" class="cluster">
<title>cluster280</title>
<path fill="none" stroke="black" d="M878,-8C878,-8 966,-8 966,-8 972,-8 978,-14 978,-20 978,-20 978,-225.89 978,-225.89 978,-231.89 972,-237.89 966,-237.89 966,-237.89 878,-237.89 878,-237.89 872,-237.89 866,-231.89 866,-225.89 866,-225.89 866,-20 866,-20 866,-14 872,-8 878,-8"/>
<text text-anchor="middle" x="959.5" y="-16.2" font-family="Times,serif" font-size="14.00">280</text>
</g>
<!-- epLsar_sigma0 -->
<g id="node1" class="node">
<title>epLsar_sigma0</title>
<ellipse fill="none" stroke="black" cx="1590" cy="-418.48" rx="71.58" ry="41.09"/>
<text text-anchor="middle" x="1590" y="-431.08" font-family="Times,serif" font-size="14.00">epLsar_sigma0</text>
<text text-anchor="middle" x="1590" y="-414.28" font-family="Times,serif" font-size="14.00">~</text>
<text text-anchor="middle" x="1590" y="-397.48" font-family="Times,serif" font-size="14.00">HalfNormal</text>
</g>
<!-- epLsar_b0 -->
<g id="node10" class="node">
<title>epLsar_b0</title>
<polygon fill="none" stroke="black" points="1717.2,-341.38 1624.8,-341.38 1624.8,-282.58 1717.2,-282.58 1717.2,-341.38"/>
<text text-anchor="middle" x="1671" y="-324.58" font-family="Times,serif" font-size="14.00">epLsar_b0</text>
<text text-anchor="middle" x="1671" y="-307.78" font-family="Times,serif" font-size="14.00">~</text>
<text text-anchor="middle" x="1671" y="-290.98" font-family="Times,serif" font-size="14.00">Deterministic</text>
</g>
<!-- epLsar_sigma0&#45;&gt;epLsar_b0 -->
<g id="edge1" class="edge">
<title>epLsar_sigma0&#45;&gt;epLsar_b0</title>
<path fill="none" stroke="black" d="M1618.79,-380.34C1626.53,-370.35 1634.9,-359.55 1642.62,-349.59"/>
<polygon fill="black" stroke="black" points="1645.57,-351.5 1648.93,-341.45 1640.04,-347.21 1645.57,-351.5"/>
</g>
<!-- epLsar_sigmaY -->
<g id="node2" class="node">
<title>epLsar_sigmaY</title>
<ellipse fill="none" stroke="black" cx="1060" cy="-200.69" rx="73.97" ry="41.09"/>
<text text-anchor="middle" x="1060" y="-213.29" font-family="Times,serif" font-size="14.00">epLsar_sigmaY</text>
<text text-anchor="middle" x="1060" y="-196.49" font-family="Times,serif" font-size="14.00">~</text>
<text text-anchor="middle" x="1060" y="-179.69" font-family="Times,serif" font-size="14.00">Gamma</text>
</g>
<!-- epLsar_y -->
<g id="node21" class="node">
<title>epLsar_y</title>
<ellipse fill="lightgrey" stroke="black" cx="922" cy="-82.1" rx="48.29" ry="41.09"/>
<text text-anchor="middle" x="922" y="-94.7" font-family="Times,serif" font-size="14.00">epLsar_y</text>
<text text-anchor="middle" x="922" y="-77.9" font-family="Times,serif" font-size="14.00">~</text>
<text text-anchor="middle" x="922" y="-61.1" font-family="Times,serif" font-size="14.00">StudentT</text>
</g>
<!-- epLsar_sigmaY&#45;&gt;epLsar_y -->
<g id="edge19" class="edge">
<title>epLsar_sigmaY&#45;&gt;epLsar_y</title>
<path fill="none" stroke="black" d="M1019.71,-165.65C1002.19,-150.84 981.66,-133.5 963.95,-118.54"/>
<polygon fill="black" stroke="black" points="965.93,-115.63 956.04,-111.85 961.42,-120.98 965.93,-115.63"/>
</g>
<!-- epLsar_nuY -->
<g id="node3" class="node">
<title>epLsar_nuY</title>
<ellipse fill="none" stroke="black" cx="1212" cy="-200.69" rx="60.48" ry="41.09"/>
<text text-anchor="middle" x="1212" y="-213.29" font-family="Times,serif" font-size="14.00">epLsar_nuY</text>
<text text-anchor="middle" x="1212" y="-196.49" font-family="Times,serif" font-size="14.00">~</text>
<text text-anchor="middle" x="1212" y="-179.69" font-family="Times,serif" font-size="14.00">Exponential</text>
</g>
<!-- epLsar_nuY&#45;&gt;epLsar_y -->
<g id="edge18" class="edge">
<title>epLsar_nuY&#45;&gt;epLsar_y</title>
<path fill="none" stroke="black" d="M1168.14,-172.36C1159.94,-167.74 1151.32,-163.21 1143,-159.39 1088.19,-134.22 1022.55,-112.56 977.12,-98.82"/>
<polygon fill="black" stroke="black" points="978.04,-95.45 967.45,-95.93 976.03,-102.15 978.04,-95.45"/>
</g>
<!-- epLsar_M12_dist -->
<g id="node4" class="node">
<title>epLsar_M12_dist</title>
<ellipse fill="none" stroke="black" cx="1247" cy="-418.48" rx="81.29" ry="41.09"/>
<text text-anchor="middle" x="1247" y="-431.08" font-family="Times,serif" font-size="14.00">epLsar_M12_dist</text>
<text text-anchor="middle" x="1247" y="-414.28" font-family="Times,serif" font-size="14.00">~</text>
<text text-anchor="middle" x="1247" y="-397.48" font-family="Times,serif" font-size="14.00">Normal</text>
</g>
<!-- epLsar_M12 -->
<g id="node19" class="node">
<title>epLsar_M12</title>
<polygon fill="none" stroke="black" points="1130.2,-341.38 1037.8,-341.38 1037.8,-282.58 1130.2,-282.58 1130.2,-341.38"/>
<text text-anchor="middle" x="1084" y="-324.58" font-family="Times,serif" font-size="14.00">epLsar_M12</text>
<text text-anchor="middle" x="1084" y="-307.78" font-family="Times,serif" font-size="14.00">~</text>
<text text-anchor="middle" x="1084" y="-290.98" font-family="Times,serif" font-size="14.00">Deterministic</text>
</g>
<!-- epLsar_M12_dist&#45;&gt;epLsar_M12 -->
<g id="edge13" class="edge">
<title>epLsar_M12_dist&#45;&gt;epLsar_M12</title>
<path fill="none" stroke="black" d="M1197.21,-385.56C1178.04,-373.27 1156.11,-359.21 1136.68,-346.75"/>
<polygon fill="black" stroke="black" points="1138.54,-343.79 1128.23,-341.34 1134.76,-349.68 1138.54,-343.79"/>
</g>
<!-- epLsar_b0_dist -->
<g id="node5" class="node">
<title>epLsar_b0_dist</title>
<ellipse fill="none" stroke="black" cx="1752" cy="-418.48" rx="72.19" ry="41.09"/>
<text text-anchor="middle" x="1752" y="-431.08" font-family="Times,serif" font-size="14.00">epLsar_b0_dist</text>
<text text-anchor="middle" x="1752" y="-414.28" font-family="Times,serif" font-size="14.00">~</text>
<text text-anchor="middle" x="1752" y="-397.48" font-family="Times,serif" font-size="14.00">Normal</text>
</g>
<!-- epLsar_b0_dist&#45;&gt;epLsar_b0 -->
<g id="edge3" class="edge">
<title>epLsar_b0_dist&#45;&gt;epLsar_b0</title>
<path fill="none" stroke="black" d="M1723.21,-380.34C1715.47,-370.35 1707.1,-359.55 1699.38,-349.59"/>
<polygon fill="black" stroke="black" points="1701.96,-347.21 1693.07,-341.45 1696.43,-351.5 1701.96,-347.21"/>
</g>
<!-- epLsar_b2_dist -->
<g id="node6" class="node">
<title>epLsar_b2_dist</title>
<ellipse fill="none" stroke="black" cx="898" cy="-418.48" rx="72.19" ry="41.09"/>
<text text-anchor="middle" x="898" y="-431.08" font-family="Times,serif" font-size="14.00">epLsar_b2_dist</text>
<text text-anchor="middle" x="898" y="-414.28" font-family="Times,serif" font-size="14.00">~</text>
<text text-anchor="middle" x="898" y="-397.48" font-family="Times,serif" font-size="14.00">Gumbel</text>
</g>
<!-- epLsar_b2 -->
<g id="node15" class="node">
<title>epLsar_b2</title>
<polygon fill="none" stroke="black" points="795.2,-341.38 702.8,-341.38 702.8,-282.58 795.2,-282.58 795.2,-341.38"/>
<text text-anchor="middle" x="749" y="-324.58" font-family="Times,serif" font-size="14.00">epLsar_b2</text>
<text text-anchor="middle" x="749" y="-307.78" font-family="Times,serif" font-size="14.00">~</text>
<text text-anchor="middle" x="749" y="-290.98" font-family="Times,serif" font-size="14.00">Deterministic</text>
</g>
<!-- epLsar_b2_dist&#45;&gt;epLsar_b2 -->
<g id="edge8" class="edge">
<title>epLsar_b2_dist&#45;&gt;epLsar_b2</title>
<path fill="none" stroke="black" d="M852.89,-385.84C835.52,-373.66 815.61,-359.69 797.9,-347.27"/>
<polygon fill="black" stroke="black" points="799.6,-344.19 789.4,-341.31 795.58,-349.92 799.6,-344.19"/>
</g>
<!-- epLsar_b1_dist -->
<g id="node7" class="node">
<title>epLsar_b1_dist</title>
<ellipse fill="none" stroke="black" cx="409" cy="-418.48" rx="72.19" ry="41.09"/>
<text text-anchor="middle" x="409" y="-431.08" font-family="Times,serif" font-size="14.00">epLsar_b1_dist</text>
<text text-anchor="middle" x="409" y="-414.28" font-family="Times,serif" font-size="14.00">~</text>
<text text-anchor="middle" x="409" y="-397.48" font-family="Times,serif" font-size="14.00">Normal</text>
</g>
<!-- epLsar_b1 -->
<g id="node12" class="node">
<title>epLsar_b1</title>
<polygon fill="none" stroke="black" points="306.2,-341.38 213.8,-341.38 213.8,-282.58 306.2,-282.58 306.2,-341.38"/>
<text text-anchor="middle" x="260" y="-324.58" font-family="Times,serif" font-size="14.00">epLsar_b1</text>
<text text-anchor="middle" x="260" y="-307.78" font-family="Times,serif" font-size="14.00">~</text>
<text text-anchor="middle" x="260" y="-290.98" font-family="Times,serif" font-size="14.00">Deterministic</text>
</g>
<!-- epLsar_b1_dist&#45;&gt;epLsar_b1 -->
<g id="edge4" class="edge">
<title>epLsar_b1_dist&#45;&gt;epLsar_b1</title>
<path fill="none" stroke="black" d="M363.89,-385.84C346.52,-373.66 326.61,-359.69 308.9,-347.27"/>
<polygon fill="black" stroke="black" points="310.6,-344.19 300.4,-341.31 306.58,-349.92 310.6,-344.19"/>
</g>
<!-- epLsar_sigma12 -->
<g id="node8" class="node">
<title>epLsar_sigma12</title>
<ellipse fill="none" stroke="black" cx="1423" cy="-418.48" rx="76.98" ry="41.09"/>
<text text-anchor="middle" x="1423" y="-431.08" font-family="Times,serif" font-size="14.00">epLsar_sigma12</text>
<text text-anchor="middle" x="1423" y="-414.28" font-family="Times,serif" font-size="14.00">~</text>
<text text-anchor="middle" x="1423" y="-397.48" font-family="Times,serif" font-size="14.00">HalfNormal</text>
</g>
<!-- epLsar_sigma12&#45;&gt;epLsar_M12 -->
<g id="edge12" class="edge">
<title>epLsar_sigma12&#45;&gt;epLsar_M12</title>
<path fill="none" stroke="black" d="M1367.67,-389.68C1357.6,-385.16 1347.09,-380.79 1337,-377.18 1270.99,-353.58 1192.38,-335.06 1140.5,-324.1"/>
<polygon fill="black" stroke="black" points="1140.99,-320.63 1130.49,-322.01 1139.56,-327.48 1140.99,-320.63"/>
</g>
<!-- epLsar_mu_b0 -->
<g id="node9" class="node">
<title>epLsar_mu_b0</title>
<ellipse fill="none" stroke="black" cx="1913" cy="-418.48" rx="70.89" ry="41.09"/>
<text text-anchor="middle" x="1913" y="-431.08" font-family="Times,serif" font-size="14.00">epLsar_mu_b0</text>
<text text-anchor="middle" x="1913" y="-414.28" font-family="Times,serif" font-size="14.00">~</text>
<text text-anchor="middle" x="1913" y="-397.48" font-family="Times,serif" font-size="14.00">Normal</text>
</g>
<!-- epLsar_mu_b0&#45;&gt;epLsar_b0 -->
<g id="edge2" class="edge">
<title>epLsar_mu_b0&#45;&gt;epLsar_b0</title>
<path fill="none" stroke="black" d="M1860.82,-390.35C1851.62,-385.81 1842.08,-381.26 1833,-377.18 1798.11,-361.52 1758.17,-345.67 1726.68,-333.63"/>
<polygon fill="black" stroke="black" points="1727.78,-330.31 1717.19,-330.03 1725.3,-336.85 1727.78,-330.31"/>
</g>
<!-- epLsar_mu -->
<g id="node20" class="node">
<title>epLsar_mu</title>
<polygon fill="none" stroke="black" points="968.2,-230.09 875.8,-230.09 875.8,-171.28 968.2,-171.28 968.2,-230.09"/>
<text text-anchor="middle" x="922" y="-213.29" font-family="Times,serif" font-size="14.00">epLsar_mu</text>
<text text-anchor="middle" x="922" y="-196.49" font-family="Times,serif" font-size="14.00">~</text>
<text text-anchor="middle" x="922" y="-179.69" font-family="Times,serif" font-size="14.00">Deterministic</text>
</g>
<!-- epLsar_b0&#45;&gt;epLsar_mu -->
<g id="edge16" class="edge">
<title>epLsar_b0&#45;&gt;epLsar_mu</title>
<path fill="none" stroke="black" d="M1624.87,-304.31C1535.29,-291.62 1331.42,-264.02 1159,-249.98 1118.65,-246.69 1015.19,-255.41 977,-241.98 972.17,-240.28 967.4,-238.01 962.81,-235.4"/>
<polygon fill="black" stroke="black" points="964.57,-232.37 954.23,-230.03 960.86,-238.3 964.57,-232.37"/>
</g>
<!-- epLsar_sigma1 -->
<g id="node11" class="node">
<title>epLsar_sigma1</title>
<ellipse fill="none" stroke="black" cx="247" cy="-418.48" rx="71.58" ry="41.09"/>
<text text-anchor="middle" x="247" y="-431.08" font-family="Times,serif" font-size="14.00">epLsar_sigma1</text>
<text text-anchor="middle" x="247" y="-414.28" font-family="Times,serif" font-size="14.00">~</text>
<text text-anchor="middle" x="247" y="-397.48" font-family="Times,serif" font-size="14.00">HalfNormal</text>
</g>
<!-- epLsar_sigma1&#45;&gt;epLsar_b1 -->
<g id="edge5" class="edge">
<title>epLsar_sigma1&#45;&gt;epLsar_b1</title>
<path fill="none" stroke="black" d="M252.03,-377.07C253.08,-368.58 254.19,-359.65 255.24,-351.24"/>
<polygon fill="black" stroke="black" points="258.72,-351.66 256.48,-341.3 251.77,-350.79 258.72,-351.66"/>
</g>
<!-- epLsar_b1&#45;&gt;epLsar_mu -->
<g id="edge15" class="edge">
<title>epLsar_b1&#45;&gt;epLsar_mu</title>
<path fill="none" stroke="black" d="M306.47,-296.26C352.02,-282.37 423.64,-261.94 487,-249.98 621.57,-224.58 782.27,-211.01 865.61,-205.2"/>
<polygon fill="black" stroke="black" points="865.89,-208.69 875.62,-204.51 865.41,-201.7 865.89,-208.69"/>
</g>
<!-- epLsar_mu_b1 -->
<g id="node13" class="node">
<title>epLsar_mu_b1</title>
<ellipse fill="none" stroke="black" cx="87" cy="-418.48" rx="70.89" ry="41.09"/>
<text text-anchor="middle" x="87" y="-431.08" font-family="Times,serif" font-size="14.00">epLsar_mu_b1</text>
<text text-anchor="middle" x="87" y="-414.28" font-family="Times,serif" font-size="14.00">~</text>
<text text-anchor="middle" x="87" y="-397.48" font-family="Times,serif" font-size="14.00">Normal</text>
</g>
<!-- epLsar_mu_b1&#45;&gt;epLsar_b1 -->
<g id="edge6" class="edge">
<title>epLsar_mu_b1&#45;&gt;epLsar_b1</title>
<path fill="none" stroke="black" d="M135.65,-388.09C157.27,-375.03 182.81,-359.6 205.11,-346.14"/>
<polygon fill="black" stroke="black" points="207.05,-349.05 213.8,-340.89 203.43,-343.06 207.05,-349.05"/>
</g>
<!-- epLsar_b2_beta -->
<g id="node14" class="node">
<title>epLsar_b2_beta</title>
<ellipse fill="none" stroke="black" cx="574" cy="-418.48" rx="74.57" ry="41.09"/>
<text text-anchor="middle" x="574" y="-431.08" font-family="Times,serif" font-size="14.00">epLsar_b2_beta</text>
<text text-anchor="middle" x="574" y="-414.28" font-family="Times,serif" font-size="14.00">~</text>
<text text-anchor="middle" x="574" y="-397.48" font-family="Times,serif" font-size="14.00">HalfNormal</text>
</g>
<!-- epLsar_b2_beta&#45;&gt;epLsar_b2 -->
<g id="edge9" class="edge">
<title>epLsar_b2_beta&#45;&gt;epLsar_b2</title>
<path fill="none" stroke="black" d="M624.15,-387.53C645.99,-374.49 671.66,-359.16 694.03,-345.81"/>
<polygon fill="black" stroke="black" points="695.95,-348.73 702.74,-340.6 692.36,-342.72 695.95,-348.73"/>
</g>
<!-- epLsar_b2&#45;&gt;epLsar_mu -->
<g id="edge14" class="edge">
<title>epLsar_b2&#45;&gt;epLsar_mu</title>
<path fill="none" stroke="black" d="M794,-282.55C816.83,-268.13 844.71,-250.52 868.61,-235.41"/>
<polygon fill="black" stroke="black" points="870.64,-238.27 877.22,-229.97 866.9,-232.36 870.64,-238.27"/>
</g>
<!-- epLsar_mu_b2 -->
<g id="node16" class="node">
<title>epLsar_mu_b2</title>
<ellipse fill="none" stroke="black" cx="737" cy="-418.48" rx="70.89" ry="41.09"/>
<text text-anchor="middle" x="737" y="-431.08" font-family="Times,serif" font-size="14.00">epLsar_mu_b2</text>
<text text-anchor="middle" x="737" y="-414.28" font-family="Times,serif" font-size="14.00">~</text>
<text text-anchor="middle" x="737" y="-397.48" font-family="Times,serif" font-size="14.00">Normal</text>
</g>
<!-- epLsar_mu_b2&#45;&gt;epLsar_b2 -->
<g id="edge10" class="edge">
<title>epLsar_mu_b2&#45;&gt;epLsar_b2</title>
<path fill="none" stroke="black" d="M741.64,-377.07C742.61,-368.58 743.64,-359.65 744.61,-351.24"/>
<polygon fill="black" stroke="black" points="748.08,-351.64 745.75,-341.3 741.13,-350.84 748.08,-351.64"/>
</g>
<!-- epLsar_sigma2 -->
<g id="node17" class="node">
<title>epLsar_sigma2</title>
<ellipse fill="none" stroke="black" cx="574" cy="-537.07" rx="71.58" ry="41.09"/>
<text text-anchor="middle" x="574" y="-549.67" font-family="Times,serif" font-size="14.00">epLsar_sigma2</text>
<text text-anchor="middle" x="574" y="-532.87" font-family="Times,serif" font-size="14.00">~</text>
<text text-anchor="middle" x="574" y="-516.07" font-family="Times,serif" font-size="14.00">HalfNormal</text>
</g>
<!-- epLsar_sigma2&#45;&gt;epLsar_b2_beta -->
<g id="edge7" class="edge">
<title>epLsar_sigma2&#45;&gt;epLsar_b2_beta</title>
<path fill="none" stroke="black" d="M574,-495.61C574,-487.39 574,-478.63 574,-470.1"/>
<polygon fill="black" stroke="black" points="577.5,-469.85 574,-459.85 570.5,-469.85 577.5,-469.85"/>
</g>
<!-- epLsar_mu_M12 -->
<g id="node18" class="node">
<title>epLsar_mu_M12</title>
<ellipse fill="none" stroke="black" cx="1068" cy="-418.48" rx="79.49" ry="41.09"/>
<text text-anchor="middle" x="1068" y="-431.08" font-family="Times,serif" font-size="14.00">epLsar_mu_M12</text>
<text text-anchor="middle" x="1068" y="-414.28" font-family="Times,serif" font-size="14.00">~</text>
<text text-anchor="middle" x="1068" y="-397.48" font-family="Times,serif" font-size="14.00">Normal</text>
</g>
<!-- epLsar_mu_M12&#45;&gt;epLsar_M12 -->
<g id="edge11" class="edge">
<title>epLsar_mu_M12&#45;&gt;epLsar_M12</title>
<path fill="none" stroke="black" d="M1074.19,-377.07C1075.49,-368.58 1076.85,-359.65 1078.14,-351.24"/>
<polygon fill="black" stroke="black" points="1081.61,-351.72 1079.66,-341.3 1074.69,-350.66 1081.61,-351.72"/>
</g>
<!-- epLsar_M12&#45;&gt;epLsar_mu -->
<g id="edge17" class="edge">
<title>epLsar_M12&#45;&gt;epLsar_mu</title>
<path fill="none" stroke="black" d="M1038.84,-282.7C1019.61,-270.44 997.03,-255.76 977,-241.98 974.13,-240.01 971.2,-237.96 968.25,-235.87"/>
<polygon fill="black" stroke="black" points="970.13,-232.91 959.96,-229.95 966.06,-238.61 970.13,-232.91"/>
</g>
<!-- epLsar_mu&#45;&gt;epLsar_y -->
<g id="edge20" class="edge">
<title>epLsar_mu&#45;&gt;epLsar_y</title>
<path fill="none" stroke="black" d="M922,-171.46C922,-160.08 922,-146.6 922,-133.63"/>
<polygon fill="black" stroke="black" points="925.5,-133.4 922,-123.4 918.5,-133.4 925.5,-133.4"/>
</g>
</g>
</svg>
