<?xml version="1.0" encoding="UTF-8" standalone="no"?>
<!DOCTYPE svg PUBLIC "-//W3C//DTD SVG 1.1//EN"
 "http://www.w3.org/Graphics/SVG/1.1/DTD/svg11.dtd">
<!-- Generated by graphviz version 2.42.1 (20190717.1914)
 -->
<!-- Title: Smfc Pages: 1 -->
<svg width="1846pt" height="602pt"
 viewBox="0.00 0.00 1846.31 602.36" xmlns="http://www.w3.org/2000/svg" xmlns:xlink="http://www.w3.org/1999/xlink">
<g id="graph0" class="graph" transform="scale(1 1) rotate(0) translate(4 598.36)">
<title>Smfc</title>
<polygon fill="white" stroke="transparent" points="-4,4 -4,-598.36 1842.31,-598.36 1842.31,4 -4,4"/>
<g id="clust1" class="cluster">
<title>cluster2</title>
<path fill="none" stroke="black" d="M20,-249.98C20,-249.98 291,-249.98 291,-249.98 297,-249.98 303,-255.98 303,-261.98 303,-261.98 303,-455.77 303,-455.77 303,-461.77 297,-467.77 291,-467.77 291,-467.77 20,-467.77 20,-467.77 14,-467.77 8,-461.77 8,-455.77 8,-455.77 8,-261.98 8,-261.98 8,-255.98 14,-249.98 20,-249.98"/>
<text text-anchor="middle" x="291.5" y="-258.18" font-family="Times,serif" font-size="14.00">2</text>
</g>
<g id="clust2" class="cluster">
<title>cluster11</title>
<path fill="none" stroke="black" d="M468,-249.98C468,-249.98 744,-249.98 744,-249.98 750,-249.98 756,-255.98 756,-261.98 756,-261.98 756,-574.36 756,-574.36 756,-580.36 750,-586.36 744,-586.36 744,-586.36 468,-586.36 468,-586.36 462,-586.36 456,-580.36 456,-574.36 456,-574.36 456,-261.98 456,-261.98 456,-255.98 462,-249.98 468,-249.98"/>
<text text-anchor="middle" x="741" y="-258.18" font-family="Times,serif" font-size="14.00">11</text>
</g>
<g id="clust3" class="cluster">
<title>cluster2 x 11</title>
<path fill="none" stroke="black" d="M921,-249.98C921,-249.98 1059,-249.98 1059,-249.98 1065,-249.98 1071,-255.98 1071,-261.98 1071,-261.98 1071,-455.77 1071,-455.77 1071,-461.77 1065,-467.77 1059,-467.77 1059,-467.77 921,-467.77 921,-467.77 915,-467.77 909,-461.77 909,-455.77 909,-455.77 909,-261.98 909,-261.98 909,-255.98 915,-249.98 921,-249.98"/>
<text text-anchor="middle" x="1045.5" y="-258.18" font-family="Times,serif" font-size="14.00">2 x 11</text>
</g>
<g id="clust4" class="cluster">
<title>cluster280</title>
<path fill="none" stroke="black" d="M808,-8C808,-8 896,-8 896,-8 902,-8 908,-14 908,-20 908,-20 908,-225.89 908,-225.89 908,-231.89 902,-237.89 896,-237.89 896,-237.89 808,-237.89 808,-237.89 802,-237.89 796,-231.89 796,-225.89 796,-225.89 796,-20 796,-20 796,-14 802,-8 808,-8"/>
<text text-anchor="middle" x="889.5" y="-16.2" font-family="Times,serif" font-size="14.00">280</text>
</g>
<!-- Smfc_sigma0 -->
<g id="node1" class="node">
<title>Smfc_sigma0</title>
<ellipse fill="none" stroke="black" cx="1475" cy="-418.48" rx="65.51" ry="41.09"/>
<text text-anchor="middle" x="1475" y="-431.08" font-family="Times,serif" font-size="14.00">Smfc_sigma0</text>
<text text-anchor="middle" x="1475" y="-414.28" font-family="Times,serif" font-size="14.00">~</text>
<text text-anchor="middle" x="1475" y="-397.48" font-family="Times,serif" font-size="14.00">HalfNormal</text>
</g>
<!-- Smfc_b0 -->
<g id="node7" class="node">
<title>Smfc_b0</title>
<polygon fill="none" stroke="black" points="1595.2,-341.38 1502.8,-341.38 1502.8,-282.58 1595.2,-282.58 1595.2,-341.38"/>
<text text-anchor="middle" x="1549" y="-324.58" font-family="Times,serif" font-size="14.00">Smfc_b0</text>
<text text-anchor="middle" x="1549" y="-307.78" font-family="Times,serif" font-size="14.00">~</text>
<text text-anchor="middle" x="1549" y="-290.98" font-family="Times,serif" font-size="14.00">Deterministic</text>
</g>
<!-- Smfc_sigma0&#45;&gt;Smfc_b0 -->
<g id="edge1" class="edge">
<title>Smfc_sigma0&#45;&gt;Smfc_b0</title>
<path fill="none" stroke="black" d="M1501.3,-380.34C1508.3,-370.45 1515.87,-359.77 1522.86,-349.89"/>
<polygon fill="black" stroke="black" points="1525.91,-351.64 1528.84,-341.45 1520.2,-347.59 1525.91,-351.64"/>
</g>
<!-- Smfc_mu_b0 -->
<g id="node2" class="node">
<title>Smfc_mu_b0</title>
<ellipse fill="none" stroke="black" cx="1623" cy="-418.48" rx="64.81" ry="41.09"/>
<text text-anchor="middle" x="1623" y="-431.08" font-family="Times,serif" font-size="14.00">Smfc_mu_b0</text>
<text text-anchor="middle" x="1623" y="-414.28" font-family="Times,serif" font-size="14.00">~</text>
<text text-anchor="middle" x="1623" y="-397.48" font-family="Times,serif" font-size="14.00">Normal</text>
</g>
<!-- Smfc_mu_b0&#45;&gt;Smfc_b0 -->
<g id="edge2" class="edge">
<title>Smfc_mu_b0&#45;&gt;Smfc_b0</title>
<path fill="none" stroke="black" d="M1596.91,-380.63C1589.76,-370.53 1582.01,-359.59 1574.87,-349.51"/>
<polygon fill="black" stroke="black" points="1577.68,-347.42 1569.04,-341.28 1571.97,-351.47 1577.68,-347.42"/>
</g>
<!-- Smfc_b1_dist -->
<g id="node3" class="node">
<title>Smfc_b1_dist</title>
<ellipse fill="none" stroke="black" cx="379" cy="-418.48" rx="66.12" ry="41.09"/>
<text text-anchor="middle" x="379" y="-431.08" font-family="Times,serif" font-size="14.00">Smfc_b1_dist</text>
<text text-anchor="middle" x="379" y="-414.28" font-family="Times,serif" font-size="14.00">~</text>
<text text-anchor="middle" x="379" y="-397.48" font-family="Times,serif" font-size="14.00">Normal</text>
</g>
<!-- Smfc_b1 -->
<g id="node11" class="node">
<title>Smfc_b1</title>
<polygon fill="none" stroke="black" points="285.2,-341.38 192.8,-341.38 192.8,-282.58 285.2,-282.58 285.2,-341.38"/>
<text text-anchor="middle" x="239" y="-324.58" font-family="Times,serif" font-size="14.00">Smfc_b1</text>
<text text-anchor="middle" x="239" y="-307.78" font-family="Times,serif" font-size="14.00">~</text>
<text text-anchor="middle" x="239" y="-290.98" font-family="Times,serif" font-size="14.00">Deterministic</text>
</g>
<!-- Smfc_b1_dist&#45;&gt;Smfc_b1 -->
<g id="edge4" class="edge">
<title>Smfc_b1_dist&#45;&gt;Smfc_b1</title>
<path fill="none" stroke="black" d="M337,-386.12C320.66,-373.93 301.89,-359.92 285.18,-347.45"/>
<polygon fill="black" stroke="black" points="287.26,-344.64 277.16,-341.46 283.08,-350.25 287.26,-344.64"/>
</g>
<!-- Smfc_b2_dist -->
<g id="node4" class="node">
<title>Smfc_b2_dist</title>
<ellipse fill="none" stroke="black" cx="832" cy="-418.48" rx="66.12" ry="41.09"/>
<text text-anchor="middle" x="832" y="-431.08" font-family="Times,serif" font-size="14.00">Smfc_b2_dist</text>
<text text-anchor="middle" x="832" y="-414.28" font-family="Times,serif" font-size="14.00">~</text>
<text text-anchor="middle" x="832" y="-397.48" font-family="Times,serif" font-size="14.00">Gumbel</text>
</g>
<!-- Smfc_b2 -->
<g id="node15" class="node">
<title>Smfc_b2</title>
<polygon fill="none" stroke="black" points="738.2,-341.38 645.8,-341.38 645.8,-282.58 738.2,-282.58 738.2,-341.38"/>
<text text-anchor="middle" x="692" y="-324.58" font-family="Times,serif" font-size="14.00">Smfc_b2</text>
<text text-anchor="middle" x="692" y="-307.78" font-family="Times,serif" font-size="14.00">~</text>
<text text-anchor="middle" x="692" y="-290.98" font-family="Times,serif" font-size="14.00">Deterministic</text>
</g>
<!-- Smfc_b2_dist&#45;&gt;Smfc_b2 -->
<g id="edge10" class="edge">
<title>Smfc_b2_dist&#45;&gt;Smfc_b2</title>
<path fill="none" stroke="black" d="M790,-386.12C773.66,-373.93 754.89,-359.92 738.18,-347.45"/>
<polygon fill="black" stroke="black" points="740.26,-344.64 730.16,-341.46 736.08,-350.25 740.26,-344.64"/>
</g>
<!-- Smfc_sigmaY -->
<g id="node5" class="node">
<title>Smfc_sigmaY</title>
<ellipse fill="none" stroke="black" cx="984" cy="-200.69" rx="67.9" ry="41.09"/>
<text text-anchor="middle" x="984" y="-213.29" font-family="Times,serif" font-size="14.00">Smfc_sigmaY</text>
<text text-anchor="middle" x="984" y="-196.49" font-family="Times,serif" font-size="14.00">~</text>
<text text-anchor="middle" x="984" y="-179.69" font-family="Times,serif" font-size="14.00">Gamma</text>
</g>
<!-- Smfc_y -->
<g id="node20" class="node">
<title>Smfc_y</title>
<ellipse fill="lightgrey" stroke="black" cx="852" cy="-82.1" rx="47.72" ry="41.09"/>
<text text-anchor="middle" x="852" y="-94.7" font-family="Times,serif" font-size="14.00">Smfc_y</text>
<text text-anchor="middle" x="852" y="-77.9" font-family="Times,serif" font-size="14.00">~</text>
<text text-anchor="middle" x="852" y="-61.1" font-family="Times,serif" font-size="14.00">StudentT</text>
</g>
<!-- Smfc_sigmaY&#45;&gt;Smfc_y -->
<g id="edge19" class="edge">
<title>Smfc_sigmaY&#45;&gt;Smfc_y</title>
<path fill="none" stroke="black" d="M946.17,-166.28C929.39,-151.45 909.62,-133.99 892.54,-118.9"/>
<polygon fill="black" stroke="black" points="894.71,-116.15 884.9,-112.15 890.08,-121.4 894.71,-116.15"/>
</g>
<!-- Smfc_b0_dist -->
<g id="node6" class="node">
<title>Smfc_b0_dist</title>
<ellipse fill="none" stroke="black" cx="1772" cy="-418.48" rx="66.12" ry="41.09"/>
<text text-anchor="middle" x="1772" y="-431.08" font-family="Times,serif" font-size="14.00">Smfc_b0_dist</text>
<text text-anchor="middle" x="1772" y="-414.28" font-family="Times,serif" font-size="14.00">~</text>
<text text-anchor="middle" x="1772" y="-397.48" font-family="Times,serif" font-size="14.00">Normal</text>
</g>
<!-- Smfc_b0_dist&#45;&gt;Smfc_b0 -->
<g id="edge3" class="edge">
<title>Smfc_b0_dist&#45;&gt;Smfc_b0</title>
<path fill="none" stroke="black" d="M1723.09,-390.44C1714.46,-385.89 1705.51,-381.3 1697,-377.18 1666.77,-362.53 1632.38,-347.52 1604.36,-335.7"/>
<polygon fill="black" stroke="black" points="1605.69,-332.46 1595.12,-331.81 1602.98,-338.91 1605.69,-332.46"/>
</g>
<!-- Smfc_mu -->
<g id="node21" class="node">
<title>Smfc_mu</title>
<polygon fill="none" stroke="black" points="898.2,-230.09 805.8,-230.09 805.8,-171.28 898.2,-171.28 898.2,-230.09"/>
<text text-anchor="middle" x="852" y="-213.29" font-family="Times,serif" font-size="14.00">Smfc_mu</text>
<text text-anchor="middle" x="852" y="-196.49" font-family="Times,serif" font-size="14.00">~</text>
<text text-anchor="middle" x="852" y="-179.69" font-family="Times,serif" font-size="14.00">Deterministic</text>
</g>
<!-- Smfc_b0&#45;&gt;Smfc_mu -->
<g id="edge14" class="edge">
<title>Smfc_b0&#45;&gt;Smfc_mu</title>
<path fill="none" stroke="black" d="M1502.71,-303.77C1418.05,-290.85 1232.45,-263.84 1075,-249.98 1037.77,-246.7 942.24,-254.44 907,-241.98 902.17,-240.27 897.4,-237.99 892.82,-235.38"/>
<polygon fill="black" stroke="black" points="894.57,-232.35 884.24,-230.01 890.86,-238.28 894.57,-232.35"/>
</g>
<!-- Smfc_sigma12 -->
<g id="node8" class="node">
<title>Smfc_sigma12</title>
<ellipse fill="none" stroke="black" cx="1152" cy="-418.48" rx="70.91" ry="41.09"/>
<text text-anchor="middle" x="1152" y="-431.08" font-family="Times,serif" font-size="14.00">Smfc_sigma12</text>
<text text-anchor="middle" x="1152" y="-414.28" font-family="Times,serif" font-size="14.00">~</text>
<text text-anchor="middle" x="1152" y="-397.48" font-family="Times,serif" font-size="14.00">HalfNormal</text>
</g>
<!-- Smfc_M12 -->
<g id="node19" class="node">
<title>Smfc_M12</title>
<polygon fill="none" stroke="black" points="1049.2,-341.38 956.8,-341.38 956.8,-282.58 1049.2,-282.58 1049.2,-341.38"/>
<text text-anchor="middle" x="1003" y="-324.58" font-family="Times,serif" font-size="14.00">Smfc_M12</text>
<text text-anchor="middle" x="1003" y="-307.78" font-family="Times,serif" font-size="14.00">~</text>
<text text-anchor="middle" x="1003" y="-290.98" font-family="Times,serif" font-size="14.00">Deterministic</text>
</g>
<!-- Smfc_sigma12&#45;&gt;Smfc_M12 -->
<g id="edge13" class="edge">
<title>Smfc_sigma12&#45;&gt;Smfc_M12</title>
<path fill="none" stroke="black" d="M1107.3,-386.12C1089.84,-373.88 1069.76,-359.8 1051.92,-347.29"/>
<polygon fill="black" stroke="black" points="1053.56,-344.16 1043.36,-341.28 1049.54,-349.89 1053.56,-344.16"/>
</g>
<!-- Smfc_nuY -->
<g id="node9" class="node">
<title>Smfc_nuY</title>
<ellipse fill="none" stroke="black" cx="1129" cy="-200.69" rx="59.3" ry="41.09"/>
<text text-anchor="middle" x="1129" y="-213.29" font-family="Times,serif" font-size="14.00">Smfc_nuY</text>
<text text-anchor="middle" x="1129" y="-196.49" font-family="Times,serif" font-size="14.00">~</text>
<text text-anchor="middle" x="1129" y="-179.69" font-family="Times,serif" font-size="14.00">Exponential</text>
</g>
<!-- Smfc_nuY&#45;&gt;Smfc_y -->
<g id="edge18" class="edge">
<title>Smfc_nuY&#45;&gt;Smfc_y</title>
<path fill="none" stroke="black" d="M1085.75,-172.45C1077.67,-167.82 1069.18,-163.27 1061,-159.39 1009.99,-135.22 949.13,-113.79 906.27,-99.84"/>
<polygon fill="black" stroke="black" points="907.19,-96.46 896.6,-96.72 905.04,-103.12 907.19,-96.46"/>
</g>
<!-- Smfc_M12_dist -->
<g id="node10" class="node">
<title>Smfc_M12_dist</title>
<ellipse fill="none" stroke="black" cx="1316" cy="-418.48" rx="75.22" ry="41.09"/>
<text text-anchor="middle" x="1316" y="-431.08" font-family="Times,serif" font-size="14.00">Smfc_M12_dist</text>
<text text-anchor="middle" x="1316" y="-414.28" font-family="Times,serif" font-size="14.00">~</text>
<text text-anchor="middle" x="1316" y="-397.48" font-family="Times,serif" font-size="14.00">Normal</text>
</g>
<!-- Smfc_M12_dist&#45;&gt;Smfc_M12 -->
<g id="edge11" class="edge">
<title>Smfc_M12_dist&#45;&gt;Smfc_M12</title>
<path fill="none" stroke="black" d="M1261.47,-389.63C1251.78,-385.17 1241.69,-380.83 1232,-377.18 1174.4,-355.48 1106.24,-337.28 1059.34,-325.87"/>
<polygon fill="black" stroke="black" points="1059.92,-322.41 1049.38,-323.47 1058.28,-329.21 1059.92,-322.41"/>
</g>
<!-- Smfc_b1&#45;&gt;Smfc_mu -->
<g id="edge17" class="edge">
<title>Smfc_b1&#45;&gt;Smfc_mu</title>
<path fill="none" stroke="black" d="M285.43,-295.37C328.23,-281.54 393.75,-261.76 452,-249.98 573.22,-225.47 717.81,-211.78 795.65,-205.65"/>
<polygon fill="black" stroke="black" points="796.03,-209.13 805.73,-204.87 795.49,-202.15 796.03,-209.13"/>
</g>
<!-- Smfc_sigma1 -->
<g id="node12" class="node">
<title>Smfc_sigma1</title>
<ellipse fill="none" stroke="black" cx="229" cy="-418.48" rx="65.51" ry="41.09"/>
<text text-anchor="middle" x="229" y="-431.08" font-family="Times,serif" font-size="14.00">Smfc_sigma1</text>
<text text-anchor="middle" x="229" y="-414.28" font-family="Times,serif" font-size="14.00">~</text>
<text text-anchor="middle" x="229" y="-397.48" font-family="Times,serif" font-size="14.00">HalfNormal</text>
</g>
<!-- Smfc_sigma1&#45;&gt;Smfc_b1 -->
<g id="edge5" class="edge">
<title>Smfc_sigma1&#45;&gt;Smfc_b1</title>
<path fill="none" stroke="black" d="M232.87,-377.07C233.67,-368.68 234.52,-359.84 235.31,-351.51"/>
<polygon fill="black" stroke="black" points="238.82,-351.59 236.29,-341.3 231.85,-350.92 238.82,-351.59"/>
</g>
<!-- Smfc_mu_b1 -->
<g id="node13" class="node">
<title>Smfc_mu_b1</title>
<ellipse fill="none" stroke="black" cx="81" cy="-418.48" rx="64.81" ry="41.09"/>
<text text-anchor="middle" x="81" y="-431.08" font-family="Times,serif" font-size="14.00">Smfc_mu_b1</text>
<text text-anchor="middle" x="81" y="-414.28" font-family="Times,serif" font-size="14.00">~</text>
<text text-anchor="middle" x="81" y="-397.48" font-family="Times,serif" font-size="14.00">Normal</text>
</g>
<!-- Smfc_mu_b1&#45;&gt;Smfc_b1 -->
<g id="edge6" class="edge">
<title>Smfc_mu_b1&#45;&gt;Smfc_b1</title>
<path fill="none" stroke="black" d="M125.43,-388.09C144.84,-375.25 167.71,-360.13 187.83,-346.82"/>
<polygon fill="black" stroke="black" points="189.85,-349.68 196.26,-341.25 185.99,-343.84 189.85,-349.68"/>
</g>
<!-- Smfc_b2_beta -->
<g id="node14" class="node">
<title>Smfc_b2_beta</title>
<ellipse fill="none" stroke="black" cx="532" cy="-418.48" rx="68.49" ry="41.09"/>
<text text-anchor="middle" x="532" y="-431.08" font-family="Times,serif" font-size="14.00">Smfc_b2_beta</text>
<text text-anchor="middle" x="532" y="-414.28" font-family="Times,serif" font-size="14.00">~</text>
<text text-anchor="middle" x="532" y="-397.48" font-family="Times,serif" font-size="14.00">HalfNormal</text>
</g>
<!-- Smfc_b2_beta&#45;&gt;Smfc_b2 -->
<g id="edge8" class="edge">
<title>Smfc_b2_beta&#45;&gt;Smfc_b2</title>
<path fill="none" stroke="black" d="M577.85,-387.53C597.32,-374.81 620.12,-359.93 640.2,-346.81"/>
<polygon fill="black" stroke="black" points="642.16,-349.71 648.62,-341.31 638.33,-343.85 642.16,-349.71"/>
</g>
<!-- Smfc_b2&#45;&gt;Smfc_mu -->
<g id="edge15" class="edge">
<title>Smfc_b2&#45;&gt;Smfc_mu</title>
<path fill="none" stroke="black" d="M733.62,-282.55C754.55,-268.26 780.06,-250.82 802.04,-235.81"/>
<polygon fill="black" stroke="black" points="804.3,-238.5 810.59,-229.97 800.36,-232.72 804.3,-238.5"/>
</g>
<!-- Smfc_mu_b2 -->
<g id="node16" class="node">
<title>Smfc_mu_b2</title>
<ellipse fill="none" stroke="black" cx="683" cy="-418.48" rx="64.81" ry="41.09"/>
<text text-anchor="middle" x="683" y="-431.08" font-family="Times,serif" font-size="14.00">Smfc_mu_b2</text>
<text text-anchor="middle" x="683" y="-414.28" font-family="Times,serif" font-size="14.00">~</text>
<text text-anchor="middle" x="683" y="-397.48" font-family="Times,serif" font-size="14.00">Normal</text>
</g>
<!-- Smfc_mu_b2&#45;&gt;Smfc_b2 -->
<g id="edge9" class="edge">
<title>Smfc_mu_b2&#45;&gt;Smfc_b2</title>
<path fill="none" stroke="black" d="M686.48,-377.07C687.2,-368.68 687.96,-359.84 688.68,-351.51"/>
<polygon fill="black" stroke="black" points="692.19,-351.56 689.56,-341.3 685.22,-350.96 692.19,-351.56"/>
</g>
<!-- Smfc_sigma2 -->
<g id="node17" class="node">
<title>Smfc_sigma2</title>
<ellipse fill="none" stroke="black" cx="532" cy="-537.07" rx="65.51" ry="41.09"/>
<text text-anchor="middle" x="532" y="-549.67" font-family="Times,serif" font-size="14.00">Smfc_sigma2</text>
<text text-anchor="middle" x="532" y="-532.87" font-family="Times,serif" font-size="14.00">~</text>
<text text-anchor="middle" x="532" y="-516.07" font-family="Times,serif" font-size="14.00">HalfNormal</text>
</g>
<!-- Smfc_sigma2&#45;&gt;Smfc_b2_beta -->
<g id="edge7" class="edge">
<title>Smfc_sigma2&#45;&gt;Smfc_b2_beta</title>
<path fill="none" stroke="black" d="M532,-495.61C532,-487.39 532,-478.63 532,-470.1"/>
<polygon fill="black" stroke="black" points="535.5,-469.85 532,-459.85 528.5,-469.85 535.5,-469.85"/>
</g>
<!-- Smfc_mu_M12 -->
<g id="node18" class="node">
<title>Smfc_mu_M12</title>
<ellipse fill="none" stroke="black" cx="990" cy="-418.48" rx="73.41" ry="41.09"/>
<text text-anchor="middle" x="990" y="-431.08" font-family="Times,serif" font-size="14.00">Smfc_mu_M12</text>
<text text-anchor="middle" x="990" y="-414.28" font-family="Times,serif" font-size="14.00">~</text>
<text text-anchor="middle" x="990" y="-397.48" font-family="Times,serif" font-size="14.00">Normal</text>
</g>
<!-- Smfc_mu_M12&#45;&gt;Smfc_M12 -->
<g id="edge12" class="edge">
<title>Smfc_mu_M12&#45;&gt;Smfc_M12</title>
<path fill="none" stroke="black" d="M995.03,-377.07C996.08,-368.58 997.19,-359.65 998.24,-351.24"/>
<polygon fill="black" stroke="black" points="1001.72,-351.66 999.48,-341.3 994.77,-350.79 1001.72,-351.66"/>
</g>
<!-- Smfc_M12&#45;&gt;Smfc_mu -->
<g id="edge16" class="edge">
<title>Smfc_M12&#45;&gt;Smfc_mu</title>
<path fill="none" stroke="black" d="M963.24,-282.53C945.94,-270.11 925.44,-255.36 907,-241.98 904.23,-239.97 901.39,-237.91 898.53,-235.82"/>
<polygon fill="black" stroke="black" points="900.57,-232.98 890.43,-229.91 896.45,-238.63 900.57,-232.98"/>
</g>
<!-- Smfc_mu&#45;&gt;Smfc_y -->
<g id="edge20" class="edge">
<title>Smfc_mu&#45;&gt;Smfc_y</title>
<path fill="none" stroke="black" d="M852,-171.46C852,-160.08 852,-146.6 852,-133.63"/>
<polygon fill="black" stroke="black" points="855.5,-133.4 852,-123.4 848.5,-133.4 855.5,-133.4"/>
</g>
</g>
</svg>
