<?xml version="1.0" encoding="UTF-8" standalone="no"?>
<!DOCTYPE svg PUBLIC "-//W3C//DTD SVG 1.1//EN"
 "http://www.w3.org/Graphics/SVG/1.1/DTD/svg11.dtd">
<!-- Generated by graphviz version 2.42.1 (20190717.1914)
 -->
<!-- Title: HAsfc81 Pages: 1 -->
<svg width="2187pt" height="602pt"
 viewBox="0.00 0.00 2187.09 602.36" xmlns="http://www.w3.org/2000/svg" xmlns:xlink="http://www.w3.org/1999/xlink">
<g id="graph0" class="graph" transform="scale(1 1) rotate(0) translate(4 598.36)">
<title>HAsfc81</title>
<polygon fill="white" stroke="transparent" points="-4,4 -4,-598.36 2183.09,-598.36 2183.09,4 -4,4"/>
<g id="clust1" class="cluster">
<title>cluster2</title>
<path fill="none" stroke="black" d="M1121.95,-249.98C1121.95,-249.98 1451.95,-249.98 1451.95,-249.98 1457.95,-249.98 1463.95,-255.98 1463.95,-261.98 1463.95,-261.98 1463.95,-455.77 1463.95,-455.77 1463.95,-461.77 1457.95,-467.77 1451.95,-467.77 1451.95,-467.77 1121.95,-467.77 1121.95,-467.77 1115.95,-467.77 1109.95,-461.77 1109.95,-455.77 1109.95,-455.77 1109.95,-261.98 1109.95,-261.98 1109.95,-255.98 1115.95,-249.98 1121.95,-249.98"/>
<text text-anchor="middle" x="1452.45" y="-258.18" font-family="Times,serif" font-size="14.00">2</text>
</g>
<g id="clust2" class="cluster">
<title>cluster11</title>
<path fill="none" stroke="black" d="M1658.95,-249.98C1658.95,-249.98 1993.95,-249.98 1993.95,-249.98 1999.95,-249.98 2005.95,-255.98 2005.95,-261.98 2005.95,-261.98 2005.95,-574.36 2005.95,-574.36 2005.95,-580.36 1999.95,-586.36 1993.95,-586.36 1993.95,-586.36 1658.95,-586.36 1658.95,-586.36 1652.95,-586.36 1646.95,-580.36 1646.95,-574.36 1646.95,-574.36 1646.95,-261.98 1646.95,-261.98 1646.95,-255.98 1652.95,-249.98 1658.95,-249.98"/>
<text text-anchor="middle" x="1990.95" y="-258.18" font-family="Times,serif" font-size="14.00">11</text>
</g>
<g id="clust3" class="cluster">
<title>cluster2 x 11</title>
<path fill="none" stroke="black" d="M201.95,-249.98C201.95,-249.98 369.95,-249.98 369.95,-249.98 375.95,-249.98 381.95,-255.98 381.95,-261.98 381.95,-261.98 381.95,-455.77 381.95,-455.77 381.95,-461.77 375.95,-467.77 369.95,-467.77 369.95,-467.77 201.95,-467.77 201.95,-467.77 195.95,-467.77 189.95,-461.77 189.95,-455.77 189.95,-455.77 189.95,-261.98 189.95,-261.98 189.95,-255.98 195.95,-249.98 201.95,-249.98"/>
<text text-anchor="middle" x="356.45" y="-258.18" font-family="Times,serif" font-size="14.00">2 x 11</text>
</g>
<g id="clust4" class="cluster">
<title>cluster280</title>
<path fill="none" stroke="black" d="M1099.95,-8C1099.95,-8 1205.95,-8 1205.95,-8 1211.95,-8 1217.95,-14 1217.95,-20 1217.95,-20 1217.95,-225.89 1217.95,-225.89 1217.95,-231.89 1211.95,-237.89 1205.95,-237.89 1205.95,-237.89 1099.95,-237.89 1099.95,-237.89 1093.95,-237.89 1087.95,-231.89 1087.95,-225.89 1087.95,-225.89 1087.95,-20 1087.95,-20 1087.95,-14 1093.95,-8 1099.95,-8"/>
<text text-anchor="middle" x="1199.45" y="-16.2" font-family="Times,serif" font-size="14.00">280</text>
</g>
<!-- HAsfc81_M12_dist -->
<g id="node1" class="node">
<title>HAsfc81_M12_dist</title>
<ellipse fill="none" stroke="black" cx="89.95" cy="-418.48" rx="89.89" ry="41.09"/>
<text text-anchor="middle" x="89.95" y="-431.08" font-family="Times,serif" font-size="14.00">HAsfc81_M12_dist</text>
<text text-anchor="middle" x="89.95" y="-414.28" font-family="Times,serif" font-size="14.00">~</text>
<text text-anchor="middle" x="89.95" y="-397.48" font-family="Times,serif" font-size="14.00">Normal</text>
</g>
<!-- HAsfc81_M12 -->
<g id="node19" class="node">
<title>HAsfc81_M12</title>
<polygon fill="none" stroke="black" points="354.92,-341.38 254.97,-341.38 254.97,-282.58 354.92,-282.58 354.92,-341.38"/>
<text text-anchor="middle" x="304.95" y="-324.58" font-family="Times,serif" font-size="14.00">HAsfc81_M12</text>
<text text-anchor="middle" x="304.95" y="-307.78" font-family="Times,serif" font-size="14.00">~</text>
<text text-anchor="middle" x="304.95" y="-290.98" font-family="Times,serif" font-size="14.00">Deterministic</text>
</g>
<!-- HAsfc81_M12_dist&#45;&gt;HAsfc81_M12 -->
<g id="edge13" class="edge">
<title>HAsfc81_M12_dist&#45;&gt;HAsfc81_M12</title>
<path fill="none" stroke="black" d="M150.69,-387.95C180.39,-373.52 215.99,-356.21 245.51,-341.87"/>
<polygon fill="black" stroke="black" points="247.4,-344.84 254.86,-337.32 244.34,-338.55 247.4,-344.84"/>
</g>
<!-- HAsfc81_b0 -->
<g id="node2" class="node">
<title>HAsfc81_b0</title>
<polygon fill="none" stroke="black" points="975.15,-341.38 882.75,-341.38 882.75,-282.58 975.15,-282.58 975.15,-341.38"/>
<text text-anchor="middle" x="928.95" y="-324.58" font-family="Times,serif" font-size="14.00">HAsfc81_b0</text>
<text text-anchor="middle" x="928.95" y="-307.78" font-family="Times,serif" font-size="14.00">~</text>
<text text-anchor="middle" x="928.95" y="-290.98" font-family="Times,serif" font-size="14.00">Deterministic</text>
</g>
<!-- HAsfc81_mu -->
<g id="node21" class="node">
<title>HAsfc81_mu</title>
<polygon fill="none" stroke="black" points="1199.15,-230.09 1106.75,-230.09 1106.75,-171.28 1199.15,-171.28 1199.15,-230.09"/>
<text text-anchor="middle" x="1152.95" y="-213.29" font-family="Times,serif" font-size="14.00">HAsfc81_mu</text>
<text text-anchor="middle" x="1152.95" y="-196.49" font-family="Times,serif" font-size="14.00">~</text>
<text text-anchor="middle" x="1152.95" y="-179.69" font-family="Times,serif" font-size="14.00">Deterministic</text>
</g>
<!-- HAsfc81_b0&#45;&gt;HAsfc81_mu -->
<g id="edge14" class="edge">
<title>HAsfc81_b0&#45;&gt;HAsfc81_mu</title>
<path fill="none" stroke="black" d="M975.09,-288.47C1010.51,-271.18 1059.56,-247.25 1097.18,-228.9"/>
<polygon fill="black" stroke="black" points="1099.03,-231.89 1106.48,-224.36 1095.96,-225.6 1099.03,-231.89"/>
</g>
<!-- HAsfc81_b1_dist -->
<g id="node3" class="node">
<title>HAsfc81_b1_dist</title>
<ellipse fill="none" stroke="black" cx="1555.95" cy="-418.48" rx="81.29" ry="41.09"/>
<text text-anchor="middle" x="1555.95" y="-431.08" font-family="Times,serif" font-size="14.00">HAsfc81_b1_dist</text>
<text text-anchor="middle" x="1555.95" y="-414.28" font-family="Times,serif" font-size="14.00">~</text>
<text text-anchor="middle" x="1555.95" y="-397.48" font-family="Times,serif" font-size="14.00">Normal</text>
</g>
<!-- HAsfc81_b1 -->
<g id="node13" class="node">
<title>HAsfc81_b1</title>
<polygon fill="none" stroke="black" points="1334.15,-341.38 1241.75,-341.38 1241.75,-282.58 1334.15,-282.58 1334.15,-341.38"/>
<text text-anchor="middle" x="1287.95" y="-324.58" font-family="Times,serif" font-size="14.00">HAsfc81_b1</text>
<text text-anchor="middle" x="1287.95" y="-307.78" font-family="Times,serif" font-size="14.00">~</text>
<text text-anchor="middle" x="1287.95" y="-290.98" font-family="Times,serif" font-size="14.00">Deterministic</text>
</g>
<!-- HAsfc81_b1_dist&#45;&gt;HAsfc81_b1 -->
<g id="edge6" class="edge">
<title>HAsfc81_b1_dist&#45;&gt;HAsfc81_b1</title>
<path fill="none" stroke="black" d="M1497.08,-389.67C1487.41,-385.35 1477.44,-381.04 1467.95,-377.18 1426.93,-360.51 1379.76,-343.77 1344,-331.57"/>
<polygon fill="black" stroke="black" points="1344.82,-328.15 1334.23,-328.25 1342.57,-334.78 1344.82,-328.15"/>
</g>
<!-- HAsfc81_b2_dist -->
<g id="node4" class="node">
<title>HAsfc81_b2_dist</title>
<ellipse fill="none" stroke="black" cx="2097.95" cy="-418.48" rx="81.29" ry="41.09"/>
<text text-anchor="middle" x="2097.95" y="-431.08" font-family="Times,serif" font-size="14.00">HAsfc81_b2_dist</text>
<text text-anchor="middle" x="2097.95" y="-414.28" font-family="Times,serif" font-size="14.00">~</text>
<text text-anchor="middle" x="2097.95" y="-397.48" font-family="Times,serif" font-size="14.00">Gumbel</text>
</g>
<!-- HAsfc81_b2 -->
<g id="node14" class="node">
<title>HAsfc81_b2</title>
<polygon fill="none" stroke="black" points="1874.15,-341.38 1781.75,-341.38 1781.75,-282.58 1874.15,-282.58 1874.15,-341.38"/>
<text text-anchor="middle" x="1827.95" y="-324.58" font-family="Times,serif" font-size="14.00">HAsfc81_b2</text>
<text text-anchor="middle" x="1827.95" y="-307.78" font-family="Times,serif" font-size="14.00">~</text>
<text text-anchor="middle" x="1827.95" y="-290.98" font-family="Times,serif" font-size="14.00">Deterministic</text>
</g>
<!-- HAsfc81_b2_dist&#45;&gt;HAsfc81_b2 -->
<g id="edge10" class="edge">
<title>HAsfc81_b2_dist&#45;&gt;HAsfc81_b2</title>
<path fill="none" stroke="black" d="M2039.1,-389.64C2029.42,-385.32 2019.45,-381.02 2009.95,-377.18 1968.35,-360.36 1920.47,-343.57 1884.27,-331.38"/>
<polygon fill="black" stroke="black" points="1884.97,-327.93 1874.38,-328.07 1882.75,-334.56 1884.97,-327.93"/>
</g>
<!-- HAsfc81_sigma0 -->
<g id="node5" class="node">
<title>HAsfc81_sigma0</title>
<ellipse fill="none" stroke="black" cx="661.95" cy="-418.48" rx="80.68" ry="41.09"/>
<text text-anchor="middle" x="661.95" y="-431.08" font-family="Times,serif" font-size="14.00">HAsfc81_sigma0</text>
<text text-anchor="middle" x="661.95" y="-414.28" font-family="Times,serif" font-size="14.00">~</text>
<text text-anchor="middle" x="661.95" y="-397.48" font-family="Times,serif" font-size="14.00">HalfNormal</text>
</g>
<!-- HAsfc81_sigma0&#45;&gt;HAsfc81_b0 -->
<g id="edge3" class="edge">
<title>HAsfc81_sigma0&#45;&gt;HAsfc81_b0</title>
<path fill="none" stroke="black" d="M721.23,-390.2C731.42,-385.72 741.95,-381.23 751.95,-377.18 792.11,-360.93 838.13,-344.3 873.17,-332.04"/>
<polygon fill="black" stroke="black" points="874.46,-335.29 882.75,-328.7 872.16,-328.68 874.46,-335.29"/>
</g>
<!-- HAsfc81_mu_b0 -->
<g id="node6" class="node">
<title>HAsfc81_mu_b0</title>
<ellipse fill="none" stroke="black" cx="839.95" cy="-418.48" rx="79.49" ry="41.09"/>
<text text-anchor="middle" x="839.95" y="-431.08" font-family="Times,serif" font-size="14.00">HAsfc81_mu_b0</text>
<text text-anchor="middle" x="839.95" y="-414.28" font-family="Times,serif" font-size="14.00">~</text>
<text text-anchor="middle" x="839.95" y="-397.48" font-family="Times,serif" font-size="14.00">Normal</text>
</g>
<!-- HAsfc81_mu_b0&#45;&gt;HAsfc81_b0 -->
<g id="edge2" class="edge">
<title>HAsfc81_mu_b0&#45;&gt;HAsfc81_b0</title>
<path fill="none" stroke="black" d="M871.58,-380.34C880.17,-370.25 889.46,-359.34 898.02,-349.29"/>
<polygon fill="black" stroke="black" points="900.88,-351.34 904.69,-341.45 895.55,-346.8 900.88,-351.34"/>
</g>
<!-- HAsfc81_sigma12 -->
<g id="node7" class="node">
<title>HAsfc81_sigma12</title>
<ellipse fill="none" stroke="black" cx="477.95" cy="-418.48" rx="85.58" ry="41.09"/>
<text text-anchor="middle" x="477.95" y="-431.08" font-family="Times,serif" font-size="14.00">HAsfc81_sigma12</text>
<text text-anchor="middle" x="477.95" y="-414.28" font-family="Times,serif" font-size="14.00">~</text>
<text text-anchor="middle" x="477.95" y="-397.48" font-family="Times,serif" font-size="14.00">HalfNormal</text>
</g>
<!-- HAsfc81_sigma12&#45;&gt;HAsfc81_M12 -->
<g id="edge12" class="edge">
<title>HAsfc81_sigma12&#45;&gt;HAsfc81_M12</title>
<path fill="none" stroke="black" d="M425.1,-385.56C404.67,-373.21 381.27,-359.08 360.58,-346.58"/>
<polygon fill="black" stroke="black" points="362.26,-343.51 351.89,-341.34 358.64,-349.5 362.26,-343.51"/>
</g>
<!-- HAsfc81_b0_dist -->
<g id="node8" class="node">
<title>HAsfc81_b0_dist</title>
<ellipse fill="none" stroke="black" cx="1018.95" cy="-418.48" rx="81.29" ry="41.09"/>
<text text-anchor="middle" x="1018.95" y="-431.08" font-family="Times,serif" font-size="14.00">HAsfc81_b0_dist</text>
<text text-anchor="middle" x="1018.95" y="-414.28" font-family="Times,serif" font-size="14.00">~</text>
<text text-anchor="middle" x="1018.95" y="-397.48" font-family="Times,serif" font-size="14.00">Normal</text>
</g>
<!-- HAsfc81_b0_dist&#45;&gt;HAsfc81_b0 -->
<g id="edge1" class="edge">
<title>HAsfc81_b0_dist&#45;&gt;HAsfc81_b0</title>
<path fill="none" stroke="black" d="M986.96,-380.34C978.27,-370.25 968.87,-359.34 960.22,-349.29"/>
<polygon fill="black" stroke="black" points="962.65,-346.75 953.47,-341.45 957.34,-351.32 962.65,-346.75"/>
</g>
<!-- HAsfc81_sigmaY -->
<g id="node9" class="node">
<title>HAsfc81_sigmaY</title>
<ellipse fill="none" stroke="black" cx="1308.95" cy="-200.69" rx="82.58" ry="41.09"/>
<text text-anchor="middle" x="1308.95" y="-213.29" font-family="Times,serif" font-size="14.00">HAsfc81_sigmaY</text>
<text text-anchor="middle" x="1308.95" y="-196.49" font-family="Times,serif" font-size="14.00">~</text>
<text text-anchor="middle" x="1308.95" y="-179.69" font-family="Times,serif" font-size="14.00">Gamma</text>
</g>
<!-- HAsfc81_y -->
<g id="node20" class="node">
<title>HAsfc81_y</title>
<ellipse fill="lightgrey" stroke="black" cx="1152.95" cy="-82.1" rx="56.89" ry="41.09"/>
<text text-anchor="middle" x="1152.95" y="-94.7" font-family="Times,serif" font-size="14.00">HAsfc81_y</text>
<text text-anchor="middle" x="1152.95" y="-77.9" font-family="Times,serif" font-size="14.00">~</text>
<text text-anchor="middle" x="1152.95" y="-61.1" font-family="Times,serif" font-size="14.00">StudentT</text>
</g>
<!-- HAsfc81_sigmaY&#45;&gt;HAsfc81_y -->
<g id="edge19" class="edge">
<title>HAsfc81_sigmaY&#45;&gt;HAsfc81_y</title>
<path fill="none" stroke="black" d="M1263.82,-165.96C1243.89,-151.07 1220.46,-133.55 1200.28,-118.47"/>
<polygon fill="black" stroke="black" points="1202.25,-115.57 1192.14,-112.39 1198.06,-121.18 1202.25,-115.57"/>
</g>
<!-- HAsfc81_nuY -->
<g id="node10" class="node">
<title>HAsfc81_nuY</title>
<ellipse fill="none" stroke="black" cx="1478.95" cy="-200.69" rx="69.08" ry="41.09"/>
<text text-anchor="middle" x="1478.95" y="-213.29" font-family="Times,serif" font-size="14.00">HAsfc81_nuY</text>
<text text-anchor="middle" x="1478.95" y="-196.49" font-family="Times,serif" font-size="14.00">~</text>
<text text-anchor="middle" x="1478.95" y="-179.69" font-family="Times,serif" font-size="14.00">Exponential</text>
</g>
<!-- HAsfc81_nuY&#45;&gt;HAsfc81_y -->
<g id="edge18" class="edge">
<title>HAsfc81_nuY&#45;&gt;HAsfc81_y</title>
<path fill="none" stroke="black" d="M1428.8,-172.12C1419.66,-167.58 1410.12,-163.14 1400.95,-159.39 1339.76,-134.41 1267.25,-113 1216.49,-99.28"/>
<polygon fill="black" stroke="black" points="1217.2,-95.84 1206.64,-96.64 1215.39,-102.61 1217.2,-95.84"/>
</g>
<!-- HAsfc81_mu_b1 -->
<g id="node11" class="node">
<title>HAsfc81_mu_b1</title>
<ellipse fill="none" stroke="black" cx="1376.95" cy="-418.48" rx="79.49" ry="41.09"/>
<text text-anchor="middle" x="1376.95" y="-431.08" font-family="Times,serif" font-size="14.00">HAsfc81_mu_b1</text>
<text text-anchor="middle" x="1376.95" y="-414.28" font-family="Times,serif" font-size="14.00">~</text>
<text text-anchor="middle" x="1376.95" y="-397.48" font-family="Times,serif" font-size="14.00">Normal</text>
</g>
<!-- HAsfc81_mu_b1&#45;&gt;HAsfc81_b1 -->
<g id="edge4" class="edge">
<title>HAsfc81_mu_b1&#45;&gt;HAsfc81_b1</title>
<path fill="none" stroke="black" d="M1345.32,-380.34C1336.72,-370.25 1327.43,-359.34 1318.87,-349.29"/>
<polygon fill="black" stroke="black" points="1321.35,-346.8 1312.2,-341.45 1316.02,-351.34 1321.35,-346.8"/>
</g>
<!-- HAsfc81_sigma1 -->
<g id="node12" class="node">
<title>HAsfc81_sigma1</title>
<ellipse fill="none" stroke="black" cx="1198.95" cy="-418.48" rx="80.68" ry="41.09"/>
<text text-anchor="middle" x="1198.95" y="-431.08" font-family="Times,serif" font-size="14.00">HAsfc81_sigma1</text>
<text text-anchor="middle" x="1198.95" y="-414.28" font-family="Times,serif" font-size="14.00">~</text>
<text text-anchor="middle" x="1198.95" y="-397.48" font-family="Times,serif" font-size="14.00">HalfNormal</text>
</g>
<!-- HAsfc81_sigma1&#45;&gt;HAsfc81_b1 -->
<g id="edge5" class="edge">
<title>HAsfc81_sigma1&#45;&gt;HAsfc81_b1</title>
<path fill="none" stroke="black" d="M1230.58,-380.34C1239.17,-370.25 1248.46,-359.34 1257.02,-349.29"/>
<polygon fill="black" stroke="black" points="1259.88,-351.34 1263.69,-341.45 1254.55,-346.8 1259.88,-351.34"/>
</g>
<!-- HAsfc81_b1&#45;&gt;HAsfc81_mu -->
<g id="edge17" class="edge">
<title>HAsfc81_b1&#45;&gt;HAsfc81_mu</title>
<path fill="none" stroke="black" d="M1252.83,-282.55C1235.49,-268.51 1214.4,-251.44 1196.09,-236.61"/>
<polygon fill="black" stroke="black" points="1197.86,-233.55 1187.89,-229.97 1193.46,-238.99 1197.86,-233.55"/>
</g>
<!-- HAsfc81_b2&#45;&gt;HAsfc81_mu -->
<g id="edge16" class="edge">
<title>HAsfc81_b2&#45;&gt;HAsfc81_mu</title>
<path fill="none" stroke="black" d="M1781.62,-301.05C1713.34,-286.89 1581.48,-261.36 1467.95,-249.98 1440.18,-247.2 1243.63,-250.14 1216.95,-241.98 1211.01,-240.17 1205.09,-237.65 1199.38,-234.75"/>
<polygon fill="black" stroke="black" points="1201.05,-231.67 1190.6,-229.92 1197.68,-237.81 1201.05,-231.67"/>
</g>
<!-- HAsfc81_b2_beta -->
<g id="node15" class="node">
<title>HAsfc81_b2_beta</title>
<ellipse fill="none" stroke="black" cx="1737.95" cy="-418.48" rx="83.17" ry="41.09"/>
<text text-anchor="middle" x="1737.95" y="-431.08" font-family="Times,serif" font-size="14.00">HAsfc81_b2_beta</text>
<text text-anchor="middle" x="1737.95" y="-414.28" font-family="Times,serif" font-size="14.00">~</text>
<text text-anchor="middle" x="1737.95" y="-397.48" font-family="Times,serif" font-size="14.00">HalfNormal</text>
</g>
<!-- HAsfc81_b2_beta&#45;&gt;HAsfc81_b2 -->
<g id="edge8" class="edge">
<title>HAsfc81_b2_beta&#45;&gt;HAsfc81_b2</title>
<path fill="none" stroke="black" d="M1769.93,-380.34C1778.62,-370.25 1788.02,-359.34 1796.67,-349.29"/>
<polygon fill="black" stroke="black" points="1799.55,-351.32 1803.42,-341.45 1794.24,-346.75 1799.55,-351.32"/>
</g>
<!-- HAsfc81_mu_b2 -->
<g id="node16" class="node">
<title>HAsfc81_mu_b2</title>
<ellipse fill="none" stroke="black" cx="1918.95" cy="-418.48" rx="79.49" ry="41.09"/>
<text text-anchor="middle" x="1918.95" y="-431.08" font-family="Times,serif" font-size="14.00">HAsfc81_mu_b2</text>
<text text-anchor="middle" x="1918.95" y="-414.28" font-family="Times,serif" font-size="14.00">~</text>
<text text-anchor="middle" x="1918.95" y="-397.48" font-family="Times,serif" font-size="14.00">Normal</text>
</g>
<!-- HAsfc81_mu_b2&#45;&gt;HAsfc81_b2 -->
<g id="edge9" class="edge">
<title>HAsfc81_mu_b2&#45;&gt;HAsfc81_b2</title>
<path fill="none" stroke="black" d="M1886.86,-380.63C1877.89,-370.33 1868.16,-359.15 1859.23,-348.91"/>
<polygon fill="black" stroke="black" points="1861.8,-346.52 1852.59,-341.28 1856.52,-351.12 1861.8,-346.52"/>
</g>
<!-- HAsfc81_sigma2 -->
<g id="node17" class="node">
<title>HAsfc81_sigma2</title>
<ellipse fill="none" stroke="black" cx="1737.95" cy="-537.07" rx="80.68" ry="41.09"/>
<text text-anchor="middle" x="1737.95" y="-549.67" font-family="Times,serif" font-size="14.00">HAsfc81_sigma2</text>
<text text-anchor="middle" x="1737.95" y="-532.87" font-family="Times,serif" font-size="14.00">~</text>
<text text-anchor="middle" x="1737.95" y="-516.07" font-family="Times,serif" font-size="14.00">HalfNormal</text>
</g>
<!-- HAsfc81_sigma2&#45;&gt;HAsfc81_b2_beta -->
<g id="edge7" class="edge">
<title>HAsfc81_sigma2&#45;&gt;HAsfc81_b2_beta</title>
<path fill="none" stroke="black" d="M1737.95,-495.61C1737.95,-487.39 1737.95,-478.63 1737.95,-470.1"/>
<polygon fill="black" stroke="black" points="1741.45,-469.85 1737.95,-459.85 1734.45,-469.85 1741.45,-469.85"/>
</g>
<!-- HAsfc81_mu_M12 -->
<g id="node18" class="node">
<title>HAsfc81_mu_M12</title>
<ellipse fill="none" stroke="black" cx="285.95" cy="-418.48" rx="88.09" ry="41.09"/>
<text text-anchor="middle" x="285.95" y="-431.08" font-family="Times,serif" font-size="14.00">HAsfc81_mu_M12</text>
<text text-anchor="middle" x="285.95" y="-414.28" font-family="Times,serif" font-size="14.00">~</text>
<text text-anchor="middle" x="285.95" y="-397.48" font-family="Times,serif" font-size="14.00">Normal</text>
</g>
<!-- HAsfc81_mu_M12&#45;&gt;HAsfc81_M12 -->
<g id="edge11" class="edge">
<title>HAsfc81_mu_M12&#45;&gt;HAsfc81_M12</title>
<path fill="none" stroke="black" d="M293.29,-377.07C294.84,-368.58 296.46,-359.65 297.99,-351.24"/>
<polygon fill="black" stroke="black" points="301.45,-351.77 299.8,-341.3 294.56,-350.51 301.45,-351.77"/>
</g>
<!-- HAsfc81_M12&#45;&gt;HAsfc81_mu -->
<g id="edge15" class="edge">
<title>HAsfc81_M12&#45;&gt;HAsfc81_mu</title>
<path fill="none" stroke="black" d="M355.14,-304.51C503.65,-285.37 940.27,-229.1 1096.52,-208.96"/>
<polygon fill="black" stroke="black" points="1097.37,-212.38 1106.84,-207.63 1096.48,-205.43 1097.37,-212.38"/>
</g>
<!-- HAsfc81_mu&#45;&gt;HAsfc81_y -->
<g id="edge20" class="edge">
<title>HAsfc81_mu&#45;&gt;HAsfc81_y</title>
<path fill="none" stroke="black" d="M1152.95,-171.46C1152.95,-160.08 1152.95,-146.6 1152.95,-133.63"/>
<polygon fill="black" stroke="black" points="1156.45,-133.4 1152.95,-123.4 1149.45,-133.4 1156.45,-133.4"/>
</g>
</g>
</svg>
