<?xml version="1.0" encoding="UTF-8" standalone="no"?>
<!DOCTYPE svg PUBLIC "-//W3C//DTD SVG 1.1//EN"
 "http://www.w3.org/Graphics/SVG/1.1/DTD/svg11.dtd">
<!-- Generated by graphviz version 2.42.1 (20190717.1914)
 -->
<!-- Title: Asfc Pages: 1 -->
<svg width="1793pt" height="602pt"
 viewBox="0.00 0.00 1793.45 602.36" xmlns="http://www.w3.org/2000/svg" xmlns:xlink="http://www.w3.org/1999/xlink">
<g id="graph0" class="graph" transform="scale(1 1) rotate(0) translate(4 598.36)">
<title>Asfc</title>
<polygon fill="white" stroke="transparent" points="-4,4 -4,-598.36 1789.45,-598.36 1789.45,4 -4,4"/>
<g id="clust1" class="cluster">
<title>cluster2</title>
<path fill="none" stroke="black" d="M20,-249.98C20,-249.98 282,-249.98 282,-249.98 288,-249.98 294,-255.98 294,-261.98 294,-261.98 294,-455.77 294,-455.77 294,-461.77 288,-467.77 282,-467.77 282,-467.77 20,-467.77 20,-467.77 14,-467.77 8,-461.77 8,-455.77 8,-455.77 8,-261.98 8,-261.98 8,-255.98 14,-249.98 20,-249.98"/>
<text text-anchor="middle" x="282.5" y="-258.18" font-family="Times,serif" font-size="14.00">2</text>
</g>
<g id="clust2" class="cluster">
<title>cluster11</title>
<path fill="none" stroke="black" d="M454,-249.98C454,-249.98 721,-249.98 721,-249.98 727,-249.98 733,-255.98 733,-261.98 733,-261.98 733,-574.36 733,-574.36 733,-580.36 727,-586.36 721,-586.36 721,-586.36 454,-586.36 454,-586.36 448,-586.36 442,-580.36 442,-574.36 442,-574.36 442,-261.98 442,-261.98 442,-255.98 448,-249.98 454,-249.98"/>
<text text-anchor="middle" x="718" y="-258.18" font-family="Times,serif" font-size="14.00">11</text>
</g>
<g id="clust3" class="cluster">
<title>cluster2 x 11</title>
<path fill="none" stroke="black" d="M894,-249.98C894,-249.98 1028,-249.98 1028,-249.98 1034,-249.98 1040,-255.98 1040,-261.98 1040,-261.98 1040,-455.77 1040,-455.77 1040,-461.77 1034,-467.77 1028,-467.77 1028,-467.77 894,-467.77 894,-467.77 888,-467.77 882,-461.77 882,-455.77 882,-455.77 882,-261.98 882,-261.98 882,-255.98 888,-249.98 894,-249.98"/>
<text text-anchor="middle" x="1014.5" y="-258.18" font-family="Times,serif" font-size="14.00">2 x 11</text>
</g>
<g id="clust4" class="cluster">
<title>cluster280</title>
<path fill="none" stroke="black" d="M782,-8C782,-8 870,-8 870,-8 876,-8 882,-14 882,-20 882,-20 882,-225.89 882,-225.89 882,-231.89 876,-237.89 870,-237.89 870,-237.89 782,-237.89 782,-237.89 776,-237.89 770,-231.89 770,-225.89 770,-225.89 770,-20 770,-20 770,-14 776,-8 782,-8"/>
<text text-anchor="middle" x="863.5" y="-16.2" font-family="Times,serif" font-size="14.00">280</text>
</g>
<!-- Asfc_sigma0 -->
<g id="node1" class="node">
<title>Asfc_sigma0</title>
<ellipse fill="none" stroke="black" cx="1432" cy="-418.48" rx="63.59" ry="41.09"/>
<text text-anchor="middle" x="1432" y="-431.08" font-family="Times,serif" font-size="14.00">Asfc_sigma0</text>
<text text-anchor="middle" x="1432" y="-414.28" font-family="Times,serif" font-size="14.00">~</text>
<text text-anchor="middle" x="1432" y="-397.48" font-family="Times,serif" font-size="14.00">HalfNormal</text>
</g>
<!-- Asfc_b0 -->
<g id="node3" class="node">
<title>Asfc_b0</title>
<polygon fill="none" stroke="black" points="1551.2,-341.38 1458.8,-341.38 1458.8,-282.58 1551.2,-282.58 1551.2,-341.38"/>
<text text-anchor="middle" x="1505" y="-324.58" font-family="Times,serif" font-size="14.00">Asfc_b0</text>
<text text-anchor="middle" x="1505" y="-307.78" font-family="Times,serif" font-size="14.00">~</text>
<text text-anchor="middle" x="1505" y="-290.98" font-family="Times,serif" font-size="14.00">Deterministic</text>
</g>
<!-- Asfc_sigma0&#45;&gt;Asfc_b0 -->
<g id="edge1" class="edge">
<title>Asfc_sigma0&#45;&gt;Asfc_b0</title>
<path fill="none" stroke="black" d="M1457.74,-380.63C1464.79,-370.53 1472.44,-359.59 1479.48,-349.51"/>
<polygon fill="black" stroke="black" points="1482.37,-351.48 1485.23,-341.28 1476.63,-347.47 1482.37,-351.48"/>
</g>
<!-- Asfc_sigma12 -->
<g id="node2" class="node">
<title>Asfc_sigma12</title>
<ellipse fill="none" stroke="black" cx="1119" cy="-418.48" rx="68.49" ry="41.09"/>
<text text-anchor="middle" x="1119" y="-431.08" font-family="Times,serif" font-size="14.00">Asfc_sigma12</text>
<text text-anchor="middle" x="1119" y="-414.28" font-family="Times,serif" font-size="14.00">~</text>
<text text-anchor="middle" x="1119" y="-397.48" font-family="Times,serif" font-size="14.00">HalfNormal</text>
</g>
<!-- Asfc_M12 -->
<g id="node18" class="node">
<title>Asfc_M12</title>
<polygon fill="none" stroke="black" points="1019.2,-341.38 926.8,-341.38 926.8,-282.58 1019.2,-282.58 1019.2,-341.38"/>
<text text-anchor="middle" x="973" y="-324.58" font-family="Times,serif" font-size="14.00">Asfc_M12</text>
<text text-anchor="middle" x="973" y="-307.78" font-family="Times,serif" font-size="14.00">~</text>
<text text-anchor="middle" x="973" y="-290.98" font-family="Times,serif" font-size="14.00">Deterministic</text>
</g>
<!-- Asfc_sigma12&#45;&gt;Asfc_M12 -->
<g id="edge12" class="edge">
<title>Asfc_sigma12&#45;&gt;Asfc_M12</title>
<path fill="none" stroke="black" d="M1075.59,-386.41C1058.4,-374.1 1038.57,-359.91 1020.96,-347.3"/>
<polygon fill="black" stroke="black" points="1022.68,-344.23 1012.51,-341.26 1018.6,-349.92 1022.68,-344.23"/>
</g>
<!-- Asfc_mu -->
<g id="node21" class="node">
<title>Asfc_mu</title>
<polygon fill="none" stroke="black" points="872.2,-230.09 779.8,-230.09 779.8,-171.28 872.2,-171.28 872.2,-230.09"/>
<text text-anchor="middle" x="826" y="-213.29" font-family="Times,serif" font-size="14.00">Asfc_mu</text>
<text text-anchor="middle" x="826" y="-196.49" font-family="Times,serif" font-size="14.00">~</text>
<text text-anchor="middle" x="826" y="-179.69" font-family="Times,serif" font-size="14.00">Deterministic</text>
</g>
<!-- Asfc_b0&#45;&gt;Asfc_mu -->
<g id="edge16" class="edge">
<title>Asfc_b0&#45;&gt;Asfc_mu</title>
<path fill="none" stroke="black" d="M1458.68,-303.56C1375.76,-290.57 1196.36,-263.78 1044,-249.98 1007.88,-246.71 915.18,-254.1 881,-241.98 876.17,-240.27 871.41,-237.99 866.82,-235.37"/>
<polygon fill="black" stroke="black" points="868.58,-232.34 858.24,-230 864.86,-238.28 868.58,-232.34"/>
</g>
<!-- Asfc_sigmaY -->
<g id="node4" class="node">
<title>Asfc_sigmaY</title>
<ellipse fill="none" stroke="black" cx="956" cy="-200.69" rx="65.99" ry="41.09"/>
<text text-anchor="middle" x="956" y="-213.29" font-family="Times,serif" font-size="14.00">Asfc_sigmaY</text>
<text text-anchor="middle" x="956" y="-196.49" font-family="Times,serif" font-size="14.00">~</text>
<text text-anchor="middle" x="956" y="-179.69" font-family="Times,serif" font-size="14.00">Gamma</text>
</g>
<!-- Asfc_y -->
<g id="node20" class="node">
<title>Asfc_y</title>
<ellipse fill="lightgrey" stroke="black" cx="826" cy="-82.1" rx="47.72" ry="41.09"/>
<text text-anchor="middle" x="826" y="-94.7" font-family="Times,serif" font-size="14.00">Asfc_y</text>
<text text-anchor="middle" x="826" y="-77.9" font-family="Times,serif" font-size="14.00">~</text>
<text text-anchor="middle" x="826" y="-61.1" font-family="Times,serif" font-size="14.00">StudentT</text>
</g>
<!-- Asfc_sigmaY&#45;&gt;Asfc_y -->
<g id="edge20" class="edge">
<title>Asfc_sigmaY&#45;&gt;Asfc_y</title>
<path fill="none" stroke="black" d="M918.75,-166.28C902.35,-151.57 883.06,-134.26 866.32,-119.26"/>
<polygon fill="black" stroke="black" points="868.61,-116.61 858.83,-112.54 863.94,-121.82 868.61,-116.61"/>
</g>
<!-- Asfc_b2_dist -->
<g id="node5" class="node">
<title>Asfc_b2_dist</title>
<ellipse fill="none" stroke="black" cx="808" cy="-418.48" rx="64.2" ry="41.09"/>
<text text-anchor="middle" x="808" y="-431.08" font-family="Times,serif" font-size="14.00">Asfc_b2_dist</text>
<text text-anchor="middle" x="808" y="-414.28" font-family="Times,serif" font-size="14.00">~</text>
<text text-anchor="middle" x="808" y="-397.48" font-family="Times,serif" font-size="14.00">Gumbel</text>
</g>
<!-- Asfc_b2 -->
<g id="node17" class="node">
<title>Asfc_b2</title>
<polygon fill="none" stroke="black" points="717.2,-341.38 624.8,-341.38 624.8,-282.58 717.2,-282.58 717.2,-341.38"/>
<text text-anchor="middle" x="671" y="-324.58" font-family="Times,serif" font-size="14.00">Asfc_b2</text>
<text text-anchor="middle" x="671" y="-307.78" font-family="Times,serif" font-size="14.00">~</text>
<text text-anchor="middle" x="671" y="-290.98" font-family="Times,serif" font-size="14.00">Deterministic</text>
</g>
<!-- Asfc_b2_dist&#45;&gt;Asfc_b2 -->
<g id="edge9" class="edge">
<title>Asfc_b2_dist&#45;&gt;Asfc_b2</title>
<path fill="none" stroke="black" d="M767.27,-386.41C751.28,-374.21 732.87,-360.17 716.45,-347.65"/>
<polygon fill="black" stroke="black" points="718.15,-344.54 708.07,-341.26 713.9,-350.1 718.15,-344.54"/>
</g>
<!-- Asfc_b0_dist -->
<g id="node6" class="node">
<title>Asfc_b0_dist</title>
<ellipse fill="none" stroke="black" cx="1578" cy="-418.48" rx="64.2" ry="41.09"/>
<text text-anchor="middle" x="1578" y="-431.08" font-family="Times,serif" font-size="14.00">Asfc_b0_dist</text>
<text text-anchor="middle" x="1578" y="-414.28" font-family="Times,serif" font-size="14.00">~</text>
<text text-anchor="middle" x="1578" y="-397.48" font-family="Times,serif" font-size="14.00">Normal</text>
</g>
<!-- Asfc_b0_dist&#45;&gt;Asfc_b0 -->
<g id="edge2" class="edge">
<title>Asfc_b0_dist&#45;&gt;Asfc_b0</title>
<path fill="none" stroke="black" d="M1552.26,-380.63C1545.21,-370.53 1537.56,-359.59 1530.52,-349.51"/>
<polygon fill="black" stroke="black" points="1533.37,-347.47 1524.77,-341.28 1527.63,-351.48 1533.37,-347.47"/>
</g>
<!-- Asfc_mu_b0 -->
<g id="node7" class="node">
<title>Asfc_mu_b0</title>
<ellipse fill="none" stroke="black" cx="1723" cy="-418.48" rx="62.4" ry="41.09"/>
<text text-anchor="middle" x="1723" y="-431.08" font-family="Times,serif" font-size="14.00">Asfc_mu_b0</text>
<text text-anchor="middle" x="1723" y="-414.28" font-family="Times,serif" font-size="14.00">~</text>
<text text-anchor="middle" x="1723" y="-397.48" font-family="Times,serif" font-size="14.00">Normal</text>
</g>
<!-- Asfc_mu_b0&#45;&gt;Asfc_b0 -->
<g id="edge3" class="edge">
<title>Asfc_mu_b0&#45;&gt;Asfc_b0</title>
<path fill="none" stroke="black" d="M1676.49,-390.59C1668.08,-385.97 1659.33,-381.33 1651,-377.18 1621.63,-362.54 1588.15,-347.7 1560.68,-335.98"/>
<polygon fill="black" stroke="black" points="1561.8,-332.65 1551.22,-331.96 1559.06,-339.09 1561.8,-332.65"/>
</g>
<!-- Asfc_b1_dist -->
<g id="node8" class="node">
<title>Asfc_b1_dist</title>
<ellipse fill="none" stroke="black" cx="368" cy="-418.48" rx="64.2" ry="41.09"/>
<text text-anchor="middle" x="368" y="-431.08" font-family="Times,serif" font-size="14.00">Asfc_b1_dist</text>
<text text-anchor="middle" x="368" y="-414.28" font-family="Times,serif" font-size="14.00">~</text>
<text text-anchor="middle" x="368" y="-397.48" font-family="Times,serif" font-size="14.00">Normal</text>
</g>
<!-- Asfc_b1 -->
<g id="node11" class="node">
<title>Asfc_b1</title>
<polygon fill="none" stroke="black" points="277.2,-341.38 184.8,-341.38 184.8,-282.58 277.2,-282.58 277.2,-341.38"/>
<text text-anchor="middle" x="231" y="-324.58" font-family="Times,serif" font-size="14.00">Asfc_b1</text>
<text text-anchor="middle" x="231" y="-307.78" font-family="Times,serif" font-size="14.00">~</text>
<text text-anchor="middle" x="231" y="-290.98" font-family="Times,serif" font-size="14.00">Deterministic</text>
</g>
<!-- Asfc_b1_dist&#45;&gt;Asfc_b1 -->
<g id="edge5" class="edge">
<title>Asfc_b1_dist&#45;&gt;Asfc_b1</title>
<path fill="none" stroke="black" d="M327.27,-386.41C311.28,-374.21 292.87,-360.17 276.45,-347.65"/>
<polygon fill="black" stroke="black" points="278.15,-344.54 268.07,-341.26 273.9,-350.1 278.15,-344.54"/>
</g>
<!-- Asfc_M12_dist -->
<g id="node9" class="node">
<title>Asfc_M12_dist</title>
<ellipse fill="none" stroke="black" cx="1278" cy="-418.48" rx="72.8" ry="41.09"/>
<text text-anchor="middle" x="1278" y="-431.08" font-family="Times,serif" font-size="14.00">Asfc_M12_dist</text>
<text text-anchor="middle" x="1278" y="-414.28" font-family="Times,serif" font-size="14.00">~</text>
<text text-anchor="middle" x="1278" y="-397.48" font-family="Times,serif" font-size="14.00">Normal</text>
</g>
<!-- Asfc_M12_dist&#45;&gt;Asfc_M12 -->
<g id="edge13" class="edge">
<title>Asfc_M12_dist&#45;&gt;Asfc_M12</title>
<path fill="none" stroke="black" d="M1225.24,-389.86C1215.64,-385.32 1205.62,-380.89 1196,-377.18 1140.5,-355.75 1074.83,-337.68 1029.19,-326.23"/>
<polygon fill="black" stroke="black" points="1030.03,-322.83 1019.48,-323.81 1028.34,-329.62 1030.03,-322.83"/>
</g>
<!-- Asfc_nuY -->
<g id="node10" class="node">
<title>Asfc_nuY</title>
<ellipse fill="none" stroke="black" cx="1099" cy="-200.69" rx="59.3" ry="41.09"/>
<text text-anchor="middle" x="1099" y="-213.29" font-family="Times,serif" font-size="14.00">Asfc_nuY</text>
<text text-anchor="middle" x="1099" y="-196.49" font-family="Times,serif" font-size="14.00">~</text>
<text text-anchor="middle" x="1099" y="-179.69" font-family="Times,serif" font-size="14.00">Exponential</text>
</g>
<!-- Asfc_nuY&#45;&gt;Asfc_y -->
<g id="edge19" class="edge">
<title>Asfc_nuY&#45;&gt;Asfc_y</title>
<path fill="none" stroke="black" d="M1055.73,-172.49C1047.65,-167.86 1039.17,-163.29 1031,-159.39 981.35,-135.68 922.24,-114.37 880.28,-100.34"/>
<polygon fill="black" stroke="black" points="881.12,-96.93 870.53,-97.1 878.92,-103.57 881.12,-96.93"/>
</g>
<!-- Asfc_b1&#45;&gt;Asfc_mu -->
<g id="edge14" class="edge">
<title>Asfc_b1&#45;&gt;Asfc_mu</title>
<path fill="none" stroke="black" d="M277.31,-294.97C318.9,-281.17 381.88,-261.66 438,-249.98 554.47,-225.74 693.32,-212.05 769.31,-205.83"/>
<polygon fill="black" stroke="black" points="769.92,-209.3 779.61,-205 769.36,-202.32 769.92,-209.3"/>
</g>
<!-- Asfc_sigma1 -->
<g id="node12" class="node">
<title>Asfc_sigma1</title>
<ellipse fill="none" stroke="black" cx="222" cy="-418.48" rx="63.59" ry="41.09"/>
<text text-anchor="middle" x="222" y="-431.08" font-family="Times,serif" font-size="14.00">Asfc_sigma1</text>
<text text-anchor="middle" x="222" y="-414.28" font-family="Times,serif" font-size="14.00">~</text>
<text text-anchor="middle" x="222" y="-397.48" font-family="Times,serif" font-size="14.00">HalfNormal</text>
</g>
<!-- Asfc_sigma1&#45;&gt;Asfc_b1 -->
<g id="edge4" class="edge">
<title>Asfc_sigma1&#45;&gt;Asfc_b1</title>
<path fill="none" stroke="black" d="M225.48,-377.07C226.2,-368.68 226.96,-359.84 227.68,-351.51"/>
<polygon fill="black" stroke="black" points="231.19,-351.56 228.56,-341.3 224.22,-350.96 231.19,-351.56"/>
</g>
<!-- Asfc_mu_b1 -->
<g id="node13" class="node">
<title>Asfc_mu_b1</title>
<ellipse fill="none" stroke="black" cx="78" cy="-418.48" rx="62.4" ry="41.09"/>
<text text-anchor="middle" x="78" y="-431.08" font-family="Times,serif" font-size="14.00">Asfc_mu_b1</text>
<text text-anchor="middle" x="78" y="-414.28" font-family="Times,serif" font-size="14.00">~</text>
<text text-anchor="middle" x="78" y="-397.48" font-family="Times,serif" font-size="14.00">Normal</text>
</g>
<!-- Asfc_mu_b1&#45;&gt;Asfc_b1 -->
<g id="edge6" class="edge">
<title>Asfc_mu_b1&#45;&gt;Asfc_b1</title>
<path fill="none" stroke="black" d="M121.03,-388.09C139.74,-375.31 161.77,-360.26 181.19,-347"/>
<polygon fill="black" stroke="black" points="183.33,-349.78 189.61,-341.25 179.38,-344 183.33,-349.78"/>
</g>
<!-- Asfc_mu_b2 -->
<g id="node14" class="node">
<title>Asfc_mu_b2</title>
<ellipse fill="none" stroke="black" cx="663" cy="-418.48" rx="62.4" ry="41.09"/>
<text text-anchor="middle" x="663" y="-431.08" font-family="Times,serif" font-size="14.00">Asfc_mu_b2</text>
<text text-anchor="middle" x="663" y="-414.28" font-family="Times,serif" font-size="14.00">~</text>
<text text-anchor="middle" x="663" y="-397.48" font-family="Times,serif" font-size="14.00">Normal</text>
</g>
<!-- Asfc_mu_b2&#45;&gt;Asfc_b2 -->
<g id="edge8" class="edge">
<title>Asfc_mu_b2&#45;&gt;Asfc_b2</title>
<path fill="none" stroke="black" d="M666.09,-377.07C666.74,-368.68 667.41,-359.84 668.05,-351.51"/>
<polygon fill="black" stroke="black" points="671.56,-351.54 668.83,-341.3 664.58,-351 671.56,-351.54"/>
</g>
<!-- Asfc_sigma2 -->
<g id="node15" class="node">
<title>Asfc_sigma2</title>
<ellipse fill="none" stroke="black" cx="516" cy="-537.07" rx="63.59" ry="41.09"/>
<text text-anchor="middle" x="516" y="-549.67" font-family="Times,serif" font-size="14.00">Asfc_sigma2</text>
<text text-anchor="middle" x="516" y="-532.87" font-family="Times,serif" font-size="14.00">~</text>
<text text-anchor="middle" x="516" y="-516.07" font-family="Times,serif" font-size="14.00">HalfNormal</text>
</g>
<!-- Asfc_b2_beta -->
<g id="node16" class="node">
<title>Asfc_b2_beta</title>
<ellipse fill="none" stroke="black" cx="516" cy="-418.48" rx="66.08" ry="41.09"/>
<text text-anchor="middle" x="516" y="-431.08" font-family="Times,serif" font-size="14.00">Asfc_b2_beta</text>
<text text-anchor="middle" x="516" y="-414.28" font-family="Times,serif" font-size="14.00">~</text>
<text text-anchor="middle" x="516" y="-397.48" font-family="Times,serif" font-size="14.00">HalfNormal</text>
</g>
<!-- Asfc_sigma2&#45;&gt;Asfc_b2_beta -->
<g id="edge7" class="edge">
<title>Asfc_sigma2&#45;&gt;Asfc_b2_beta</title>
<path fill="none" stroke="black" d="M516,-495.61C516,-487.39 516,-478.63 516,-470.1"/>
<polygon fill="black" stroke="black" points="519.5,-469.85 516,-459.85 512.5,-469.85 519.5,-469.85"/>
</g>
<!-- Asfc_b2_beta&#45;&gt;Asfc_b2 -->
<g id="edge10" class="edge">
<title>Asfc_b2_beta&#45;&gt;Asfc_b2</title>
<path fill="none" stroke="black" d="M560.42,-387.53C579.2,-374.87 601.17,-360.06 620.56,-346.99"/>
<polygon fill="black" stroke="black" points="622.64,-349.8 628.97,-341.31 618.73,-344 622.64,-349.8"/>
</g>
<!-- Asfc_b2&#45;&gt;Asfc_mu -->
<g id="edge15" class="edge">
<title>Asfc_b2&#45;&gt;Asfc_mu</title>
<path fill="none" stroke="black" d="M711.32,-282.55C731.59,-268.26 756.31,-250.82 777.6,-235.81"/>
<polygon fill="black" stroke="black" points="779.73,-238.6 785.88,-229.97 775.69,-232.88 779.73,-238.6"/>
</g>
<!-- Asfc_M12&#45;&gt;Asfc_mu -->
<g id="edge17" class="edge">
<title>Asfc_M12&#45;&gt;Asfc_mu</title>
<path fill="none" stroke="black" d="M934.76,-282.55C915.62,-268.32 892.3,-250.98 872.17,-236.01"/>
<polygon fill="black" stroke="black" points="874.16,-233.13 864.05,-229.97 869.98,-238.75 874.16,-233.13"/>
</g>
<!-- Asfc_mu_M12 -->
<g id="node19" class="node">
<title>Asfc_mu_M12</title>
<ellipse fill="none" stroke="black" cx="961" cy="-418.48" rx="71.5" ry="41.09"/>
<text text-anchor="middle" x="961" y="-431.08" font-family="Times,serif" font-size="14.00">Asfc_mu_M12</text>
<text text-anchor="middle" x="961" y="-414.28" font-family="Times,serif" font-size="14.00">~</text>
<text text-anchor="middle" x="961" y="-397.48" font-family="Times,serif" font-size="14.00">Normal</text>
</g>
<!-- Asfc_mu_M12&#45;&gt;Asfc_M12 -->
<g id="edge11" class="edge">
<title>Asfc_mu_M12&#45;&gt;Asfc_M12</title>
<path fill="none" stroke="black" d="M965.64,-377.07C966.61,-368.58 967.64,-359.65 968.61,-351.24"/>
<polygon fill="black" stroke="black" points="972.08,-351.64 969.75,-341.3 965.13,-350.84 972.08,-351.64"/>
</g>
<!-- Asfc_mu&#45;&gt;Asfc_y -->
<g id="edge18" class="edge">
<title>Asfc_mu&#45;&gt;Asfc_y</title>
<path fill="none" stroke="black" d="M826,-171.46C826,-160.08 826,-146.6 826,-133.63"/>
<polygon fill="black" stroke="black" points="829.5,-133.4 826,-123.4 822.5,-133.4 829.5,-133.4"/>
</g>
</g>
</svg>
