<?xml version="1.0" encoding="UTF-8" standalone="no"?>
<!DOCTYPE svg PUBLIC "-//W3C//DTD SVG 1.1//EN"
 "http://www.w3.org/Graphics/SVG/1.1/DTD/svg11.dtd">
<!-- Generated by graphviz version 2.42.1 (20190717.1914)
 -->
<!-- Title: R² Pages: 1 -->
<svg width="1684pt" height="602pt"
 viewBox="0.00 0.00 1684.32 602.36" xmlns="http://www.w3.org/2000/svg" xmlns:xlink="http://www.w3.org/1999/xlink">
<g id="graph0" class="graph" transform="scale(1 1) rotate(0) translate(4 598.36)">
<title>R²</title>
<polygon fill="white" stroke="transparent" points="-4,4 -4,-598.36 1680.32,-598.36 1680.32,4 -4,4"/>
<g id="clust1" class="cluster">
<title>cluster2</title>
<path fill="none" stroke="black" d="M870.06,-249.98C870.06,-249.98 1117.06,-249.98 1117.06,-249.98 1123.06,-249.98 1129.06,-255.98 1129.06,-261.98 1129.06,-261.98 1129.06,-455.77 1129.06,-455.77 1129.06,-461.77 1123.06,-467.77 1117.06,-467.77 1117.06,-467.77 870.06,-467.77 870.06,-467.77 864.06,-467.77 858.06,-461.77 858.06,-455.77 858.06,-455.77 858.06,-261.98 858.06,-261.98 858.06,-255.98 864.06,-249.98 870.06,-249.98"/>
<text text-anchor="middle" x="1117.56" y="-258.18" font-family="Times,serif" font-size="14.00">2</text>
</g>
<g id="clust2" class="cluster">
<title>cluster11</title>
<path fill="none" stroke="black" d="M1281.06,-249.98C1281.06,-249.98 1533.06,-249.98 1533.06,-249.98 1539.06,-249.98 1545.06,-255.98 1545.06,-261.98 1545.06,-261.98 1545.06,-574.36 1545.06,-574.36 1545.06,-580.36 1539.06,-586.36 1533.06,-586.36 1533.06,-586.36 1281.06,-586.36 1281.06,-586.36 1275.06,-586.36 1269.06,-580.36 1269.06,-574.36 1269.06,-574.36 1269.06,-261.98 1269.06,-261.98 1269.06,-255.98 1275.06,-249.98 1281.06,-249.98"/>
<text text-anchor="middle" x="1530.06" y="-258.18" font-family="Times,serif" font-size="14.00">11</text>
</g>
<g id="clust3" class="cluster">
<title>cluster2 x 11</title>
<path fill="none" stroke="black" d="M160.06,-249.98C160.06,-249.98 286.06,-249.98 286.06,-249.98 292.06,-249.98 298.06,-255.98 298.06,-261.98 298.06,-261.98 298.06,-455.77 298.06,-455.77 298.06,-461.77 292.06,-467.77 286.06,-467.77 286.06,-467.77 160.06,-467.77 160.06,-467.77 154.06,-467.77 148.06,-461.77 148.06,-455.77 148.06,-455.77 148.06,-261.98 148.06,-261.98 148.06,-255.98 154.06,-249.98 160.06,-249.98"/>
<text text-anchor="middle" x="272.56" y="-258.18" font-family="Times,serif" font-size="14.00">2 x 11</text>
</g>
<g id="clust4" class="cluster">
<title>cluster280</title>
<path fill="none" stroke="black" d="M847.06,-8C847.06,-8 935.06,-8 935.06,-8 941.06,-8 947.06,-14 947.06,-20 947.06,-20 947.06,-225.89 947.06,-225.89 947.06,-231.89 941.06,-237.89 935.06,-237.89 935.06,-237.89 847.06,-237.89 847.06,-237.89 841.06,-237.89 835.06,-231.89 835.06,-225.89 835.06,-225.89 835.06,-20 835.06,-20 835.06,-14 841.06,-8 847.06,-8"/>
<text text-anchor="middle" x="928.56" y="-16.2" font-family="Times,serif" font-size="14.00">280</text>
</g>
<!-- R²_M12_dist -->
<g id="node1" class="node">
<title>R²_M12_dist</title>
<ellipse fill="none" stroke="black" cx="69.06" cy="-418.48" rx="69.12" ry="41.09"/>
<text text-anchor="middle" x="69.06" y="-431.08" font-family="Times,serif" font-size="14.00">R²_M12_dist</text>
<text text-anchor="middle" x="69.06" y="-414.28" font-family="Times,serif" font-size="14.00">~</text>
<text text-anchor="middle" x="69.06" y="-397.48" font-family="Times,serif" font-size="14.00">Normal</text>
</g>
<!-- R²_M12 -->
<g id="node19" class="node">
<title>R²_M12</title>
<polygon fill="none" stroke="black" points="279.26,-341.38 186.86,-341.38 186.86,-282.58 279.26,-282.58 279.26,-341.38"/>
<text text-anchor="middle" x="233.06" y="-324.58" font-family="Times,serif" font-size="14.00">R²_M12</text>
<text text-anchor="middle" x="233.06" y="-307.78" font-family="Times,serif" font-size="14.00">~</text>
<text text-anchor="middle" x="233.06" y="-290.98" font-family="Times,serif" font-size="14.00">Deterministic</text>
</g>
<!-- R²_M12_dist&#45;&gt;R²_M12 -->
<g id="edge12" class="edge">
<title>R²_M12_dist&#45;&gt;R²_M12</title>
<path fill="none" stroke="black" d="M115.62,-387.81C135.67,-375.03 159.22,-360.03 179.95,-346.82"/>
<polygon fill="black" stroke="black" points="182.09,-349.6 188.65,-341.28 178.33,-343.7 182.09,-349.6"/>
</g>
<!-- R²_b0_dist -->
<g id="node2" class="node">
<title>R²_b0_dist</title>
<ellipse fill="none" stroke="black" cx="516.06" cy="-418.48" rx="60.02" ry="41.09"/>
<text text-anchor="middle" x="516.06" y="-431.08" font-family="Times,serif" font-size="14.00">R²_b0_dist</text>
<text text-anchor="middle" x="516.06" y="-414.28" font-family="Times,serif" font-size="14.00">~</text>
<text text-anchor="middle" x="516.06" y="-397.48" font-family="Times,serif" font-size="14.00">Normal</text>
</g>
<!-- R²_b0 -->
<g id="node7" class="node">
<title>R²_b0</title>
<polygon fill="none" stroke="black" points="767.26,-341.38 674.86,-341.38 674.86,-282.58 767.26,-282.58 767.26,-341.38"/>
<text text-anchor="middle" x="721.06" y="-324.58" font-family="Times,serif" font-size="14.00">R²_b0</text>
<text text-anchor="middle" x="721.06" y="-307.78" font-family="Times,serif" font-size="14.00">~</text>
<text text-anchor="middle" x="721.06" y="-290.98" font-family="Times,serif" font-size="14.00">Deterministic</text>
</g>
<!-- R²_b0_dist&#45;&gt;R²_b0 -->
<g id="edge3" class="edge">
<title>R²_b0_dist&#45;&gt;R²_b0</title>
<path fill="none" stroke="black" d="M560.65,-390.67C568.71,-386.05 577.08,-381.38 585.06,-377.18 611.18,-363.42 640.75,-349.3 665.64,-337.81"/>
<polygon fill="black" stroke="black" points="667.3,-340.9 674.93,-333.54 664.38,-334.53 667.3,-340.9"/>
</g>
<!-- R²_mu_b0 -->
<g id="node3" class="node">
<title>R²_mu_b0</title>
<ellipse fill="none" stroke="black" cx="653.06" cy="-418.48" rx="58.72" ry="41.09"/>
<text text-anchor="middle" x="653.06" y="-431.08" font-family="Times,serif" font-size="14.00">R²_mu_b0</text>
<text text-anchor="middle" x="653.06" y="-414.28" font-family="Times,serif" font-size="14.00">~</text>
<text text-anchor="middle" x="653.06" y="-397.48" font-family="Times,serif" font-size="14.00">Normal</text>
</g>
<!-- R²_mu_b0&#45;&gt;R²_b0 -->
<g id="edge1" class="edge">
<title>R²_mu_b0&#45;&gt;R²_b0</title>
<path fill="none" stroke="black" d="M677.04,-380.63C683.54,-370.64 690.59,-359.81 697.09,-349.81"/>
<polygon fill="black" stroke="black" points="700.12,-351.57 702.64,-341.28 694.26,-347.75 700.12,-351.57"/>
</g>
<!-- R²_b2_dist -->
<g id="node4" class="node">
<title>R²_b2_dist</title>
<ellipse fill="none" stroke="black" cx="1616.06" cy="-418.48" rx="60.02" ry="41.09"/>
<text text-anchor="middle" x="1616.06" y="-431.08" font-family="Times,serif" font-size="14.00">R²_b2_dist</text>
<text text-anchor="middle" x="1616.06" y="-414.28" font-family="Times,serif" font-size="14.00">~</text>
<text text-anchor="middle" x="1616.06" y="-397.48" font-family="Times,serif" font-size="14.00">Gumbel</text>
</g>
<!-- R²_b2 -->
<g id="node17" class="node">
<title>R²_b2</title>
<polygon fill="none" stroke="black" points="1451.26,-341.38 1358.86,-341.38 1358.86,-282.58 1451.26,-282.58 1451.26,-341.38"/>
<text text-anchor="middle" x="1405.06" y="-324.58" font-family="Times,serif" font-size="14.00">R²_b2</text>
<text text-anchor="middle" x="1405.06" y="-307.78" font-family="Times,serif" font-size="14.00">~</text>
<text text-anchor="middle" x="1405.06" y="-290.98" font-family="Times,serif" font-size="14.00">Deterministic</text>
</g>
<!-- R²_b2_dist&#45;&gt;R²_b2 -->
<g id="edge9" class="edge">
<title>R²_b2_dist&#45;&gt;R²_b2</title>
<path fill="none" stroke="black" d="M1572.17,-390.04C1564.55,-385.58 1556.64,-381.13 1549.06,-377.18 1520.51,-362.3 1487.79,-347.54 1460.77,-335.93"/>
<polygon fill="black" stroke="black" points="1462.03,-332.67 1451.46,-331.96 1459.29,-339.1 1462.03,-332.67"/>
</g>
<!-- R²_nuY -->
<g id="node5" class="node">
<title>R²_nuY</title>
<ellipse fill="none" stroke="black" cx="1014.06" cy="-200.69" rx="59.3" ry="41.09"/>
<text text-anchor="middle" x="1014.06" y="-213.29" font-family="Times,serif" font-size="14.00">R²_nuY</text>
<text text-anchor="middle" x="1014.06" y="-196.49" font-family="Times,serif" font-size="14.00">~</text>
<text text-anchor="middle" x="1014.06" y="-179.69" font-family="Times,serif" font-size="14.00">Exponential</text>
</g>
<!-- R²_y -->
<g id="node21" class="node">
<title>R²_y</title>
<ellipse fill="lightgrey" stroke="black" cx="891.06" cy="-82.1" rx="47.72" ry="41.09"/>
<text text-anchor="middle" x="891.06" y="-94.7" font-family="Times,serif" font-size="14.00">R²_y</text>
<text text-anchor="middle" x="891.06" y="-77.9" font-family="Times,serif" font-size="14.00">~</text>
<text text-anchor="middle" x="891.06" y="-61.1" font-family="Times,serif" font-size="14.00">StudentT</text>
</g>
<!-- R²_nuY&#45;&gt;R²_y -->
<g id="edge20" class="edge">
<title>R²_nuY&#45;&gt;R²_y</title>
<path fill="none" stroke="black" d="M979.47,-166.9C964.21,-152.43 946.18,-135.35 930.41,-120.39"/>
<polygon fill="black" stroke="black" points="932.53,-117.58 922.87,-113.24 927.72,-122.66 932.53,-117.58"/>
</g>
<!-- R²_sigma12 -->
<g id="node6" class="node">
<title>R²_sigma12</title>
<ellipse fill="none" stroke="black" cx="373.06" cy="-418.48" rx="64.81" ry="41.09"/>
<text text-anchor="middle" x="373.06" y="-431.08" font-family="Times,serif" font-size="14.00">R²_sigma12</text>
<text text-anchor="middle" x="373.06" y="-414.28" font-family="Times,serif" font-size="14.00">~</text>
<text text-anchor="middle" x="373.06" y="-397.48" font-family="Times,serif" font-size="14.00">HalfNormal</text>
</g>
<!-- R²_sigma12&#45;&gt;R²_M12 -->
<g id="edge13" class="edge">
<title>R²_sigma12&#45;&gt;R²_M12</title>
<path fill="none" stroke="black" d="M331.44,-386.41C314.95,-374.1 295.94,-359.91 279.05,-347.3"/>
<polygon fill="black" stroke="black" points="281.05,-344.43 270.95,-341.26 276.87,-350.04 281.05,-344.43"/>
</g>
<!-- R²_mu -->
<g id="node20" class="node">
<title>R²_mu</title>
<polygon fill="none" stroke="black" points="937.26,-230.09 844.86,-230.09 844.86,-171.28 937.26,-171.28 937.26,-230.09"/>
<text text-anchor="middle" x="891.06" y="-213.29" font-family="Times,serif" font-size="14.00">R²_mu</text>
<text text-anchor="middle" x="891.06" y="-196.49" font-family="Times,serif" font-size="14.00">~</text>
<text text-anchor="middle" x="891.06" y="-179.69" font-family="Times,serif" font-size="14.00">Deterministic</text>
</g>
<!-- R²_b0&#45;&gt;R²_mu -->
<g id="edge17" class="edge">
<title>R²_b0&#45;&gt;R²_mu</title>
<path fill="none" stroke="black" d="M765.28,-282.55C787.71,-268.13 815.11,-250.52 838.6,-235.41"/>
<polygon fill="black" stroke="black" points="840.54,-238.33 847.06,-229.97 836.76,-232.44 840.54,-238.33"/>
</g>
<!-- R²_sigmaY -->
<g id="node8" class="node">
<title>R²_sigmaY</title>
<ellipse fill="none" stroke="black" cx="1153.06" cy="-200.69" rx="61.81" ry="41.09"/>
<text text-anchor="middle" x="1153.06" y="-213.29" font-family="Times,serif" font-size="14.00">R²_sigmaY</text>
<text text-anchor="middle" x="1153.06" y="-196.49" font-family="Times,serif" font-size="14.00">~</text>
<text text-anchor="middle" x="1153.06" y="-179.69" font-family="Times,serif" font-size="14.00">Gamma</text>
</g>
<!-- R²_sigmaY&#45;&gt;R²_y -->
<g id="edge18" class="edge">
<title>R²_sigmaY&#45;&gt;R²_y</title>
<path fill="none" stroke="black" d="M1107.33,-172.53C1099.03,-167.94 1090.36,-163.38 1082.06,-159.39 1036.67,-137.57 983.32,-116.63 944.55,-102.23"/>
<polygon fill="black" stroke="black" points="945.62,-98.89 935.03,-98.71 943.2,-105.46 945.62,-98.89"/>
</g>
<!-- R²_sigma0 -->
<g id="node9" class="node">
<title>R²_sigma0</title>
<ellipse fill="none" stroke="black" cx="789.06" cy="-418.48" rx="59.91" ry="41.09"/>
<text text-anchor="middle" x="789.06" y="-431.08" font-family="Times,serif" font-size="14.00">R²_sigma0</text>
<text text-anchor="middle" x="789.06" y="-414.28" font-family="Times,serif" font-size="14.00">~</text>
<text text-anchor="middle" x="789.06" y="-397.48" font-family="Times,serif" font-size="14.00">HalfNormal</text>
</g>
<!-- R²_sigma0&#45;&gt;R²_b0 -->
<g id="edge2" class="edge">
<title>R²_sigma0&#45;&gt;R²_b0</title>
<path fill="none" stroke="black" d="M765.09,-380.63C758.58,-370.64 751.54,-359.81 745.03,-349.81"/>
<polygon fill="black" stroke="black" points="747.87,-347.75 739.48,-341.28 742,-351.57 747.87,-347.75"/>
</g>
<!-- R²_b1_dist -->
<g id="node10" class="node">
<title>R²_b1_dist</title>
<ellipse fill="none" stroke="black" cx="1199.06" cy="-418.48" rx="60.02" ry="41.09"/>
<text text-anchor="middle" x="1199.06" y="-431.08" font-family="Times,serif" font-size="14.00">R²_b1_dist</text>
<text text-anchor="middle" x="1199.06" y="-414.28" font-family="Times,serif" font-size="14.00">~</text>
<text text-anchor="middle" x="1199.06" y="-397.48" font-family="Times,serif" font-size="14.00">Normal</text>
</g>
<!-- R²_b1 -->
<g id="node12" class="node">
<title>R²_b1</title>
<polygon fill="none" stroke="black" points="1040.26,-341.38 947.86,-341.38 947.86,-282.58 1040.26,-282.58 1040.26,-341.38"/>
<text text-anchor="middle" x="994.06" y="-324.58" font-family="Times,serif" font-size="14.00">R²_b1</text>
<text text-anchor="middle" x="994.06" y="-307.78" font-family="Times,serif" font-size="14.00">~</text>
<text text-anchor="middle" x="994.06" y="-290.98" font-family="Times,serif" font-size="14.00">Deterministic</text>
</g>
<!-- R²_b1_dist&#45;&gt;R²_b1 -->
<g id="edge4" class="edge">
<title>R²_b1_dist&#45;&gt;R²_b1</title>
<path fill="none" stroke="black" d="M1155.45,-389.88C1148.06,-385.49 1140.4,-381.1 1133.06,-377.18 1106.12,-362.8 1075.37,-348.39 1049.65,-336.88"/>
<polygon fill="black" stroke="black" points="1050.97,-333.64 1040.41,-332.78 1048.13,-340.04 1050.97,-333.64"/>
</g>
<!-- R²_mu_b1 -->
<g id="node11" class="node">
<title>R²_mu_b1</title>
<ellipse fill="none" stroke="black" cx="1062.06" cy="-418.48" rx="58.72" ry="41.09"/>
<text text-anchor="middle" x="1062.06" y="-431.08" font-family="Times,serif" font-size="14.00">R²_mu_b1</text>
<text text-anchor="middle" x="1062.06" y="-414.28" font-family="Times,serif" font-size="14.00">~</text>
<text text-anchor="middle" x="1062.06" y="-397.48" font-family="Times,serif" font-size="14.00">Normal</text>
</g>
<!-- R²_mu_b1&#45;&gt;R²_b1 -->
<g id="edge5" class="edge">
<title>R²_mu_b1&#45;&gt;R²_b1</title>
<path fill="none" stroke="black" d="M1038.09,-380.63C1031.58,-370.64 1024.54,-359.81 1018.03,-349.81"/>
<polygon fill="black" stroke="black" points="1020.87,-347.75 1012.48,-341.28 1015,-351.57 1020.87,-347.75"/>
</g>
<!-- R²_b1&#45;&gt;R²_mu -->
<g id="edge14" class="edge">
<title>R²_b1&#45;&gt;R²_mu</title>
<path fill="none" stroke="black" d="M967.27,-282.55C954.27,-268.76 938.53,-252.05 924.73,-237.41"/>
<polygon fill="black" stroke="black" points="927.13,-234.85 917.72,-229.97 922.03,-239.65 927.13,-234.85"/>
</g>
<!-- R²_sigma1 -->
<g id="node13" class="node">
<title>R²_sigma1</title>
<ellipse fill="none" stroke="black" cx="926.06" cy="-418.48" rx="59.91" ry="41.09"/>
<text text-anchor="middle" x="926.06" y="-431.08" font-family="Times,serif" font-size="14.00">R²_sigma1</text>
<text text-anchor="middle" x="926.06" y="-414.28" font-family="Times,serif" font-size="14.00">~</text>
<text text-anchor="middle" x="926.06" y="-397.48" font-family="Times,serif" font-size="14.00">HalfNormal</text>
</g>
<!-- R²_sigma1&#45;&gt;R²_b1 -->
<g id="edge6" class="edge">
<title>R²_sigma1&#45;&gt;R²_b1</title>
<path fill="none" stroke="black" d="M950.04,-380.63C956.54,-370.64 963.59,-359.81 970.09,-349.81"/>
<polygon fill="black" stroke="black" points="973.12,-351.57 975.64,-341.28 967.26,-347.75 973.12,-351.57"/>
</g>
<!-- R²_sigma2 -->
<g id="node14" class="node">
<title>R²_sigma2</title>
<ellipse fill="none" stroke="black" cx="1475.06" cy="-537.07" rx="59.91" ry="41.09"/>
<text text-anchor="middle" x="1475.06" y="-549.67" font-family="Times,serif" font-size="14.00">R²_sigma2</text>
<text text-anchor="middle" x="1475.06" y="-532.87" font-family="Times,serif" font-size="14.00">~</text>
<text text-anchor="middle" x="1475.06" y="-516.07" font-family="Times,serif" font-size="14.00">HalfNormal</text>
</g>
<!-- R²_b2_beta -->
<g id="node16" class="node">
<title>R²_b2_beta</title>
<ellipse fill="none" stroke="black" cx="1475.06" cy="-418.48" rx="62.4" ry="41.09"/>
<text text-anchor="middle" x="1475.06" y="-431.08" font-family="Times,serif" font-size="14.00">R²_b2_beta</text>
<text text-anchor="middle" x="1475.06" y="-414.28" font-family="Times,serif" font-size="14.00">~</text>
<text text-anchor="middle" x="1475.06" y="-397.48" font-family="Times,serif" font-size="14.00">HalfNormal</text>
</g>
<!-- R²_sigma2&#45;&gt;R²_b2_beta -->
<g id="edge7" class="edge">
<title>R²_sigma2&#45;&gt;R²_b2_beta</title>
<path fill="none" stroke="black" d="M1475.06,-495.61C1475.06,-487.39 1475.06,-478.63 1475.06,-470.1"/>
<polygon fill="black" stroke="black" points="1478.56,-469.85 1475.06,-459.85 1471.56,-469.85 1478.56,-469.85"/>
</g>
<!-- R²_mu_b2 -->
<g id="node15" class="node">
<title>R²_mu_b2</title>
<ellipse fill="none" stroke="black" cx="1336.06" cy="-418.48" rx="58.72" ry="41.09"/>
<text text-anchor="middle" x="1336.06" y="-431.08" font-family="Times,serif" font-size="14.00">R²_mu_b2</text>
<text text-anchor="middle" x="1336.06" y="-414.28" font-family="Times,serif" font-size="14.00">~</text>
<text text-anchor="middle" x="1336.06" y="-397.48" font-family="Times,serif" font-size="14.00">Normal</text>
</g>
<!-- R²_mu_b2&#45;&gt;R²_b2 -->
<g id="edge8" class="edge">
<title>R²_mu_b2&#45;&gt;R²_b2</title>
<path fill="none" stroke="black" d="M1360.39,-380.63C1366.99,-370.64 1374.14,-359.81 1380.74,-349.81"/>
<polygon fill="black" stroke="black" points="1383.78,-351.56 1386.37,-341.28 1377.94,-347.7 1383.78,-351.56"/>
</g>
<!-- R²_b2_beta&#45;&gt;R²_b2 -->
<g id="edge10" class="edge">
<title>R²_b2_beta&#45;&gt;R²_b2</title>
<path fill="none" stroke="black" d="M1450.18,-380.34C1443.56,-370.45 1436.4,-359.77 1429.79,-349.89"/>
<polygon fill="black" stroke="black" points="1432.61,-347.81 1424.14,-341.45 1426.79,-351.71 1432.61,-347.81"/>
</g>
<!-- R²_b2&#45;&gt;R²_mu -->
<g id="edge16" class="edge">
<title>R²_b2&#45;&gt;R²_mu</title>
<path fill="none" stroke="black" d="M1358.83,-297.97C1305.07,-283.45 1213.42,-260.62 1133.06,-249.98 1091.83,-244.52 985.31,-255.75 946.06,-241.98 941.23,-240.28 936.46,-238.01 931.87,-235.4"/>
<polygon fill="black" stroke="black" points="933.63,-232.37 923.29,-230.04 929.92,-238.31 933.63,-232.37"/>
</g>
<!-- R²_mu_M12 -->
<g id="node18" class="node">
<title>R²_mu_M12</title>
<ellipse fill="none" stroke="black" cx="223.06" cy="-418.48" rx="67.32" ry="41.09"/>
<text text-anchor="middle" x="223.06" y="-431.08" font-family="Times,serif" font-size="14.00">R²_mu_M12</text>
<text text-anchor="middle" x="223.06" y="-414.28" font-family="Times,serif" font-size="14.00">~</text>
<text text-anchor="middle" x="223.06" y="-397.48" font-family="Times,serif" font-size="14.00">Normal</text>
</g>
<!-- R²_mu_M12&#45;&gt;R²_M12 -->
<g id="edge11" class="edge">
<title>R²_mu_M12&#45;&gt;R²_M12</title>
<path fill="none" stroke="black" d="M226.93,-377.07C227.73,-368.68 228.58,-359.84 229.37,-351.51"/>
<polygon fill="black" stroke="black" points="232.88,-351.59 230.35,-341.3 225.91,-350.92 232.88,-351.59"/>
</g>
<!-- R²_M12&#45;&gt;R²_mu -->
<g id="edge15" class="edge">
<title>R²_M12&#45;&gt;R²_mu</title>
<path fill="none" stroke="black" d="M279.33,-303.29C396.96,-283.76 707.14,-232.23 834.87,-211.02"/>
<polygon fill="black" stroke="black" points="835.55,-214.45 844.84,-209.36 834.4,-207.55 835.55,-214.45"/>
</g>
<!-- R²_mu&#45;&gt;R²_y -->
<g id="edge19" class="edge">
<title>R²_mu&#45;&gt;R²_y</title>
<path fill="none" stroke="black" d="M891.06,-171.46C891.06,-160.08 891.06,-146.6 891.06,-133.63"/>
<polygon fill="black" stroke="black" points="894.56,-133.4 891.06,-123.4 887.56,-133.4 894.56,-133.4"/>
</g>
</g>
</svg>
