<?xml version="1.0" encoding="UTF-8" standalone="no"?>
<!DOCTYPE svg PUBLIC "-//W3C//DTD SVG 1.1//EN"
 "http://www.w3.org/Graphics/SVG/1.1/DTD/svg11.dtd">
<!-- Generated by graphviz version 2.40.1 (20161225.0304)
 -->
<!-- Title: Smfc Pages: 1 -->
<svg width="1774pt" height="452pt"
 viewBox="0.00 0.00 1774.05 451.86" xmlns="http://www.w3.org/2000/svg" xmlns:xlink="http://www.w3.org/1999/xlink">
<g id="graph0" class="graph" transform="scale(1 1) rotate(0) translate(4 447.86)">
<title>Smfc</title>
<polygon fill="#ffffff" stroke="transparent" points="-4,4 -4,-447.86 1770.0538,-447.86 1770.0538,4 -4,4"/>
<g id="clust1" class="cluster">
<title>cluster2</title>
<path fill="none" stroke="#000000" d="M20,-232.9066C20,-232.9066 288,-232.9066 288,-232.9066 294,-232.9066 300,-238.9066 300,-244.9066 300,-244.9066 300,-423.86 300,-423.86 300,-429.86 294,-435.86 288,-435.86 288,-435.86 20,-435.86 20,-435.86 14,-435.86 8,-429.86 8,-423.86 8,-423.86 8,-244.9066 8,-244.9066 8,-238.9066 14,-232.9066 20,-232.9066"/>
<text text-anchor="middle" x="288.5" y="-240.7066" font-family="Times,serif" font-size="14.00" fill="#000000">2</text>
</g>
<g id="clust2" class="cluster">
<title>cluster11</title>
<path fill="none" stroke="#000000" d="M462,-232.9066C462,-232.9066 730,-232.9066 730,-232.9066 736,-232.9066 742,-238.9066 742,-244.9066 742,-244.9066 742,-423.86 742,-423.86 742,-429.86 736,-435.86 730,-435.86 730,-435.86 462,-435.86 462,-435.86 456,-435.86 450,-429.86 450,-423.86 450,-423.86 450,-244.9066 450,-244.9066 450,-238.9066 456,-232.9066 462,-232.9066"/>
<text text-anchor="middle" x="727" y="-240.7066" font-family="Times,serif" font-size="14.00" fill="#000000">11</text>
</g>
<g id="clust3" class="cluster">
<title>cluster139</title>
<path fill="none" stroke="#000000" d="M904,-232.9066C904,-232.9066 1172,-232.9066 1172,-232.9066 1178,-232.9066 1184,-238.9066 1184,-244.9066 1184,-244.9066 1184,-423.86 1184,-423.86 1184,-429.86 1178,-435.86 1172,-435.86 1172,-435.86 904,-435.86 904,-435.86 898,-435.86 892,-429.86 892,-423.86 892,-423.86 892,-244.9066 892,-244.9066 892,-238.9066 898,-232.9066 904,-232.9066"/>
<text text-anchor="middle" x="1165.5" y="-240.7066" font-family="Times,serif" font-size="14.00" fill="#000000">139</text>
</g>
<g id="clust4" class="cluster">
<title>cluster278</title>
<path fill="none" stroke="#000000" d="M819,-8C819,-8 905,-8 905,-8 911,-8 917,-14 917,-20 917,-20 917,-209.93 917,-209.93 917,-215.93 911,-221.93 905,-221.93 905,-221.93 819,-221.93 819,-221.93 813,-221.93 807,-215.93 807,-209.93 807,-209.93 807,-20 807,-20 807,-14 813,-8 819,-8"/>
<text text-anchor="middle" x="898.5" y="-15.8" font-family="Times,serif" font-size="14.00" fill="#000000">278</text>
</g>
<!-- Smfc_sigma0 -->
<g id="node1" class="node">
<title>Smfc_sigma0</title>
<ellipse fill="none" stroke="#000000" cx="1407" cy="-390.3833" rx="65.1077" ry="37.4533"/>
<text text-anchor="middle" x="1407" y="-401.6833" font-family="Times,serif" font-size="14.00" fill="#000000">Smfc_sigma0</text>
<text text-anchor="middle" x="1407" y="-386.6833" font-family="Times,serif" font-size="14.00" fill="#000000">~</text>
<text text-anchor="middle" x="1407" y="-371.6833" font-family="Times,serif" font-size="14.00" fill="#000000">HalfNormal</text>
</g>
<!-- Smfc_b0 -->
<g id="node3" class="node">
<title>Smfc_b0</title>
<polygon fill="none" stroke="#000000" points="1525.5,-316.9066 1434.5,-316.9066 1434.5,-263.9066 1525.5,-263.9066 1525.5,-316.9066"/>
<text text-anchor="middle" x="1480" y="-301.7066" font-family="Times,serif" font-size="14.00" fill="#000000">Smfc_b0</text>
<text text-anchor="middle" x="1480" y="-286.7066" font-family="Times,serif" font-size="14.00" fill="#000000">~</text>
<text text-anchor="middle" x="1480" y="-271.7066" font-family="Times,serif" font-size="14.00" fill="#000000">Deterministic</text>
</g>
<!-- Smfc_sigma0&#45;&gt;Smfc_b0 -->
<g id="edge3" class="edge">
<title>Smfc_sigma0&#45;&gt;Smfc_b0</title>
<path fill="none" stroke="#000000" d="M1432.327,-355.6969C1439.4614,-345.926 1447.2261,-335.2919 1454.3777,-325.4975"/>
<polygon fill="#000000" stroke="#000000" points="1457.4029,-327.2895 1460.4733,-317.1493 1451.7496,-323.1615 1457.4029,-327.2895"/>
</g>
<!-- Smfc_mu_b0 -->
<g id="node2" class="node">
<title>Smfc_mu_b0</title>
<ellipse fill="none" stroke="#000000" cx="1554" cy="-390.3833" rx="64.1938" ry="37.4533"/>
<text text-anchor="middle" x="1554" y="-401.6833" font-family="Times,serif" font-size="14.00" fill="#000000">Smfc_mu_b0</text>
<text text-anchor="middle" x="1554" y="-386.6833" font-family="Times,serif" font-size="14.00" fill="#000000">~</text>
<text text-anchor="middle" x="1554" y="-371.6833" font-family="Times,serif" font-size="14.00" fill="#000000">Normal</text>
</g>
<!-- Smfc_mu_b0&#45;&gt;Smfc_b0 -->
<g id="edge1" class="edge">
<title>Smfc_mu_b0&#45;&gt;Smfc_b0</title>
<path fill="none" stroke="#000000" d="M1528.3261,-355.6969C1521.0209,-345.8273 1513.0637,-335.0769 1505.7538,-325.2009"/>
<polygon fill="#000000" stroke="#000000" points="1508.5568,-323.1048 1499.7942,-317.1493 1502.9303,-327.2693 1508.5568,-323.1048"/>
</g>
<!-- Smfc_mu -->
<g id="node20" class="node">
<title>Smfc_mu</title>
<polygon fill="none" stroke="#000000" points="907.5,-213.93 816.5,-213.93 816.5,-160.93 907.5,-160.93 907.5,-213.93"/>
<text text-anchor="middle" x="862" y="-198.73" font-family="Times,serif" font-size="14.00" fill="#000000">Smfc_mu</text>
<text text-anchor="middle" x="862" y="-183.73" font-family="Times,serif" font-size="14.00" fill="#000000">~</text>
<text text-anchor="middle" x="862" y="-168.73" font-family="Times,serif" font-size="14.00" fill="#000000">Deterministic</text>
</g>
<!-- Smfc_b0&#45;&gt;Smfc_mu -->
<g id="edge16" class="edge">
<title>Smfc_b0&#45;&gt;Smfc_mu</title>
<path fill="none" stroke="#000000" d="M1434.3421,-278.9828C1377.1791,-265.2455 1276.0562,-242.803 1188,-232.9066 1157.9539,-229.5299 944.7189,-234.3617 916,-224.9066 911.4949,-223.4235 907.0293,-221.434 902.7091,-219.1419"/>
<polygon fill="#000000" stroke="#000000" points="904.4754,-216.1202 894.0795,-214.0768 900.9321,-222.1572 904.4754,-216.1202"/>
</g>
<!-- Smfc_b3_dist -->
<g id="node4" class="node">
<title>Smfc_b3_dist</title>
<ellipse fill="none" stroke="#000000" cx="1259" cy="-390.3833" rx="65.1077" ry="37.4533"/>
<text text-anchor="middle" x="1259" y="-401.6833" font-family="Times,serif" font-size="14.00" fill="#000000">Smfc_b3_dist</text>
<text text-anchor="middle" x="1259" y="-386.6833" font-family="Times,serif" font-size="14.00" fill="#000000">~</text>
<text text-anchor="middle" x="1259" y="-371.6833" font-family="Times,serif" font-size="14.00" fill="#000000">Normal</text>
</g>
<!-- Smfc_b3 -->
<g id="node16" class="node">
<title>Smfc_b3</title>
<polygon fill="none" stroke="#000000" points="1083.5,-316.9066 992.5,-316.9066 992.5,-263.9066 1083.5,-263.9066 1083.5,-316.9066"/>
<text text-anchor="middle" x="1038" y="-301.7066" font-family="Times,serif" font-size="14.00" fill="#000000">Smfc_b3</text>
<text text-anchor="middle" x="1038" y="-286.7066" font-family="Times,serif" font-size="14.00" fill="#000000">~</text>
<text text-anchor="middle" x="1038" y="-271.7066" font-family="Times,serif" font-size="14.00" fill="#000000">Deterministic</text>
</g>
<!-- Smfc_b3_dist&#45;&gt;Smfc_b3 -->
<g id="edge11" class="edge">
<title>Smfc_b3_dist&#45;&gt;Smfc_b3</title>
<path fill="none" stroke="#000000" d="M1211.561,-364.5829C1203.7489,-360.5543 1195.6916,-356.5299 1188,-352.9066 1157.0447,-338.3248 1121.7509,-323.5307 1093.1782,-311.9988"/>
<polygon fill="#000000" stroke="#000000" points="1094.346,-308.6961 1083.7619,-308.218 1091.7377,-315.1921 1094.346,-308.6961"/>
</g>
<!-- Smfc_b1_dist -->
<g id="node5" class="node">
<title>Smfc_b1_dist</title>
<ellipse fill="none" stroke="#000000" cx="375" cy="-390.3833" rx="65.1077" ry="37.4533"/>
<text text-anchor="middle" x="375" y="-401.6833" font-family="Times,serif" font-size="14.00" fill="#000000">Smfc_b1_dist</text>
<text text-anchor="middle" x="375" y="-386.6833" font-family="Times,serif" font-size="14.00" fill="#000000">~</text>
<text text-anchor="middle" x="375" y="-371.6833" font-family="Times,serif" font-size="14.00" fill="#000000">Normal</text>
</g>
<!-- Smfc_b1 -->
<g id="node12" class="node">
<title>Smfc_b1</title>
<polygon fill="none" stroke="#000000" points="282.5,-316.9066 191.5,-316.9066 191.5,-263.9066 282.5,-263.9066 282.5,-316.9066"/>
<text text-anchor="middle" x="237" y="-301.7066" font-family="Times,serif" font-size="14.00" fill="#000000">Smfc_b1</text>
<text text-anchor="middle" x="237" y="-286.7066" font-family="Times,serif" font-size="14.00" fill="#000000">~</text>
<text text-anchor="middle" x="237" y="-271.7066" font-family="Times,serif" font-size="14.00" fill="#000000">Deterministic</text>
</g>
<!-- Smfc_b1_dist&#45;&gt;Smfc_b1 -->
<g id="edge6" class="edge">
<title>Smfc_b1_dist&#45;&gt;Smfc_b1</title>
<path fill="none" stroke="#000000" d="M334.3418,-360.9277C317.8073,-348.949 298.6446,-335.0662 281.717,-322.8027"/>
<polygon fill="#000000" stroke="#000000" points="283.7594,-319.9604 273.6079,-316.9279 279.6526,-325.6291 283.7594,-319.9604"/>
</g>
<!-- Smfc_nuY -->
<g id="node6" class="node">
<title>Smfc_nuY</title>
<ellipse fill="none" stroke="#000000" cx="983" cy="-187.43" rx="57.9655" ry="37.4533"/>
<text text-anchor="middle" x="983" y="-198.73" font-family="Times,serif" font-size="14.00" fill="#000000">Smfc_nuY</text>
<text text-anchor="middle" x="983" y="-183.73" font-family="Times,serif" font-size="14.00" fill="#000000">~</text>
<text text-anchor="middle" x="983" y="-168.73" font-family="Times,serif" font-size="14.00" fill="#000000">Exponential</text>
</g>
<!-- Smfc_y -->
<g id="node19" class="node">
<title>Smfc_y</title>
<ellipse fill="#d3d3d3" stroke="#000000" cx="862" cy="-76.4767" rx="46.8387" ry="37.4533"/>
<text text-anchor="middle" x="862" y="-87.7767" font-family="Times,serif" font-size="14.00" fill="#000000">Smfc_y</text>
<text text-anchor="middle" x="862" y="-72.7767" font-family="Times,serif" font-size="14.00" fill="#000000">~</text>
<text text-anchor="middle" x="862" y="-57.7767" font-family="Times,serif" font-size="14.00" fill="#000000">StudentT</text>
</g>
<!-- Smfc_nuY&#45;&gt;Smfc_y -->
<g id="edge19" class="edge">
<title>Smfc_nuY&#45;&gt;Smfc_y</title>
<path fill="none" stroke="#000000" d="M949.2948,-156.5233C934.1511,-142.637 916.2005,-126.1769 900.5269,-111.8046"/>
<polygon fill="#000000" stroke="#000000" points="902.7737,-109.1161 893.0377,-104.9373 898.0427,-114.2755 902.7737,-109.1161"/>
</g>
<!-- Smfc_b2_dist -->
<g id="node7" class="node">
<title>Smfc_b2_dist</title>
<ellipse fill="none" stroke="#000000" cx="817" cy="-390.3833" rx="65.1077" ry="37.4533"/>
<text text-anchor="middle" x="817" y="-401.6833" font-family="Times,serif" font-size="14.00" fill="#000000">Smfc_b2_dist</text>
<text text-anchor="middle" x="817" y="-386.6833" font-family="Times,serif" font-size="14.00" fill="#000000">~</text>
<text text-anchor="middle" x="817" y="-371.6833" font-family="Times,serif" font-size="14.00" fill="#000000">Normal</text>
</g>
<!-- Smfc_b2 -->
<g id="node15" class="node">
<title>Smfc_b2</title>
<polygon fill="none" stroke="#000000" points="723.5,-316.9066 632.5,-316.9066 632.5,-263.9066 723.5,-263.9066 723.5,-316.9066"/>
<text text-anchor="middle" x="678" y="-301.7066" font-family="Times,serif" font-size="14.00" fill="#000000">Smfc_b2</text>
<text text-anchor="middle" x="678" y="-286.7066" font-family="Times,serif" font-size="14.00" fill="#000000">~</text>
<text text-anchor="middle" x="678" y="-271.7066" font-family="Times,serif" font-size="14.00" fill="#000000">Deterministic</text>
</g>
<!-- Smfc_b2_dist&#45;&gt;Smfc_b2 -->
<g id="edge7" class="edge">
<title>Smfc_b2_dist&#45;&gt;Smfc_b2</title>
<path fill="none" stroke="#000000" d="M776.0472,-360.9277C759.3928,-348.949 740.0913,-335.0662 723.041,-322.8027"/>
<polygon fill="#000000" stroke="#000000" points="725.035,-319.9256 714.8731,-316.9279 720.9477,-325.6084 725.035,-319.9256"/>
</g>
<!-- Smfc_b0_dist -->
<g id="node8" class="node">
<title>Smfc_b0_dist</title>
<ellipse fill="none" stroke="#000000" cx="1701" cy="-390.3833" rx="65.1077" ry="37.4533"/>
<text text-anchor="middle" x="1701" y="-401.6833" font-family="Times,serif" font-size="14.00" fill="#000000">Smfc_b0_dist</text>
<text text-anchor="middle" x="1701" y="-386.6833" font-family="Times,serif" font-size="14.00" fill="#000000">~</text>
<text text-anchor="middle" x="1701" y="-371.6833" font-family="Times,serif" font-size="14.00" fill="#000000">Normal</text>
</g>
<!-- Smfc_b0_dist&#45;&gt;Smfc_b0 -->
<g id="edge2" class="edge">
<title>Smfc_b0_dist&#45;&gt;Smfc_b0</title>
<path fill="none" stroke="#000000" d="M1652.2655,-365.1233C1643.885,-360.946 1635.2261,-356.7332 1627,-352.9066 1596.9726,-338.9386 1562.9715,-324.4019 1535.2382,-312.8665"/>
<polygon fill="#000000" stroke="#000000" points="1536.285,-309.5118 1525.7068,-308.9174 1533.6055,-315.9786 1536.285,-309.5118"/>
</g>
<!-- Smfc_sigmaY -->
<g id="node9" class="node">
<title>Smfc_sigmaY</title>
<ellipse fill="none" stroke="#000000" cx="1126" cy="-187.43" rx="67.3507" ry="37.4533"/>
<text text-anchor="middle" x="1126" y="-198.73" font-family="Times,serif" font-size="14.00" fill="#000000">Smfc_sigmaY</text>
<text text-anchor="middle" x="1126" y="-183.73" font-family="Times,serif" font-size="14.00" fill="#000000">~</text>
<text text-anchor="middle" x="1126" y="-168.73" font-family="Times,serif" font-size="14.00" fill="#000000">Gamma</text>
</g>
<!-- Smfc_sigmaY&#45;&gt;Smfc_y -->
<g id="edge17" class="edge">
<title>Smfc_sigmaY&#45;&gt;Smfc_y</title>
<path fill="none" stroke="#000000" d="M1076.0025,-162.0221C1067.3892,-157.8619 1058.4802,-153.6931 1050,-149.9533 1004.8198,-130.0285 952.4186,-109.7769 914.4336,-95.5949"/>
<polygon fill="#000000" stroke="#000000" points="915.204,-92.1473 904.6112,-91.9428 912.7645,-98.7085 915.204,-92.1473"/>
</g>
<!-- Smfc_mu_b1 -->
<g id="node10" class="node">
<title>Smfc_mu_b1</title>
<ellipse fill="none" stroke="#000000" cx="228" cy="-390.3833" rx="64.1938" ry="37.4533"/>
<text text-anchor="middle" x="228" y="-401.6833" font-family="Times,serif" font-size="14.00" fill="#000000">Smfc_mu_b1</text>
<text text-anchor="middle" x="228" y="-386.6833" font-family="Times,serif" font-size="14.00" fill="#000000">~</text>
<text text-anchor="middle" x="228" y="-371.6833" font-family="Times,serif" font-size="14.00" fill="#000000">Normal</text>
</g>
<!-- Smfc_mu_b1&#45;&gt;Smfc_b1 -->
<g id="edge4" class="edge">
<title>Smfc_mu_b1&#45;&gt;Smfc_b1</title>
<path fill="none" stroke="#000000" d="M231.3769,-352.8712C232.1274,-344.5341 232.9224,-335.7023 233.671,-327.3867"/>
<polygon fill="#000000" stroke="#000000" points="237.1767,-327.4793 234.5875,-317.2057 230.2049,-326.8516 237.1767,-327.4793"/>
</g>
<!-- Smfc_sigma1 -->
<g id="node11" class="node">
<title>Smfc_sigma1</title>
<ellipse fill="none" stroke="#000000" cx="81" cy="-390.3833" rx="65.1077" ry="37.4533"/>
<text text-anchor="middle" x="81" y="-401.6833" font-family="Times,serif" font-size="14.00" fill="#000000">Smfc_sigma1</text>
<text text-anchor="middle" x="81" y="-386.6833" font-family="Times,serif" font-size="14.00" fill="#000000">~</text>
<text text-anchor="middle" x="81" y="-371.6833" font-family="Times,serif" font-size="14.00" fill="#000000">HalfNormal</text>
</g>
<!-- Smfc_sigma1&#45;&gt;Smfc_b1 -->
<g id="edge5" class="edge">
<title>Smfc_sigma1&#45;&gt;Smfc_b1</title>
<path fill="none" stroke="#000000" d="M124.8698,-362.2682C144.1814,-349.8919 166.9697,-335.2874 186.9417,-322.4878"/>
<polygon fill="#000000" stroke="#000000" points="189.072,-325.2797 195.6028,-316.9371 185.2949,-319.3861 189.072,-325.2797"/>
</g>
<!-- Smfc_b1&#45;&gt;Smfc_mu -->
<g id="edge14" class="edge">
<title>Smfc_b1&#45;&gt;Smfc_mu</title>
<path fill="none" stroke="#000000" d="M282.578,-275.6003C324.5885,-262.4977 388.8891,-243.8122 446,-232.9066 573.5441,-208.5517 725.7613,-196.0377 806.0346,-190.702"/>
<polygon fill="#000000" stroke="#000000" points="806.6519,-194.1693 816.4031,-190.0263 806.1966,-187.1841 806.6519,-194.1693"/>
</g>
<!-- Smfc_sigma2 -->
<g id="node13" class="node">
<title>Smfc_sigma2</title>
<ellipse fill="none" stroke="#000000" cx="669" cy="-390.3833" rx="65.1077" ry="37.4533"/>
<text text-anchor="middle" x="669" y="-401.6833" font-family="Times,serif" font-size="14.00" fill="#000000">Smfc_sigma2</text>
<text text-anchor="middle" x="669" y="-386.6833" font-family="Times,serif" font-size="14.00" fill="#000000">~</text>
<text text-anchor="middle" x="669" y="-371.6833" font-family="Times,serif" font-size="14.00" fill="#000000">HalfNormal</text>
</g>
<!-- Smfc_sigma2&#45;&gt;Smfc_b2 -->
<g id="edge8" class="edge">
<title>Smfc_sigma2&#45;&gt;Smfc_b2</title>
<path fill="none" stroke="#000000" d="M672.3769,-352.8712C673.1274,-344.5341 673.9224,-335.7023 674.671,-327.3867"/>
<polygon fill="#000000" stroke="#000000" points="678.1767,-327.4793 675.5875,-317.2057 671.2049,-326.8516 678.1767,-327.4793"/>
</g>
<!-- Smfc_mu_b2 -->
<g id="node14" class="node">
<title>Smfc_mu_b2</title>
<ellipse fill="none" stroke="#000000" cx="522" cy="-390.3833" rx="64.1938" ry="37.4533"/>
<text text-anchor="middle" x="522" y="-401.6833" font-family="Times,serif" font-size="14.00" fill="#000000">Smfc_mu_b2</text>
<text text-anchor="middle" x="522" y="-386.6833" font-family="Times,serif" font-size="14.00" fill="#000000">~</text>
<text text-anchor="middle" x="522" y="-371.6833" font-family="Times,serif" font-size="14.00" fill="#000000">Normal</text>
</g>
<!-- Smfc_mu_b2&#45;&gt;Smfc_b2 -->
<g id="edge9" class="edge">
<title>Smfc_mu_b2&#45;&gt;Smfc_b2</title>
<path fill="none" stroke="#000000" d="M565.4547,-362.5342C584.8605,-350.0975 607.8413,-335.3697 627.9612,-322.4753"/>
<polygon fill="#000000" stroke="#000000" points="629.8593,-325.416 636.3902,-317.0734 626.0823,-319.5224 629.8593,-325.416"/>
</g>
<!-- Smfc_b2&#45;&gt;Smfc_mu -->
<g id="edge15" class="edge">
<title>Smfc_b2&#45;&gt;Smfc_mu</title>
<path fill="none" stroke="#000000" d="M723.9563,-264.6869C749.2992,-250.5036 780.9226,-232.8054 807.5055,-217.9282"/>
<polygon fill="#000000" stroke="#000000" points="809.2939,-220.9381 816.3109,-213.0001 805.8753,-214.8297 809.2939,-220.9381"/>
</g>
<!-- Smfc_b3&#45;&gt;Smfc_mu -->
<g id="edge13" class="edge">
<title>Smfc_b3&#45;&gt;Smfc_mu</title>
<path fill="none" stroke="#000000" d="M992.4049,-267.5013C969.1785,-255.4398 940.7007,-240.0408 916,-224.9066 913.2268,-223.2075 910.4019,-221.4222 907.571,-219.591"/>
<polygon fill="#000000" stroke="#000000" points="909.3797,-216.5911 899.1066,-213.9999 905.5215,-222.4319 909.3797,-216.5911"/>
</g>
<!-- Smfc_mu_b3 -->
<g id="node17" class="node">
<title>Smfc_mu_b3</title>
<ellipse fill="none" stroke="#000000" cx="1112" cy="-390.3833" rx="64.1938" ry="37.4533"/>
<text text-anchor="middle" x="1112" y="-401.6833" font-family="Times,serif" font-size="14.00" fill="#000000">Smfc_mu_b3</text>
<text text-anchor="middle" x="1112" y="-386.6833" font-family="Times,serif" font-size="14.00" fill="#000000">~</text>
<text text-anchor="middle" x="1112" y="-371.6833" font-family="Times,serif" font-size="14.00" fill="#000000">Normal</text>
</g>
<!-- Smfc_mu_b3&#45;&gt;Smfc_b3 -->
<g id="edge10" class="edge">
<title>Smfc_mu_b3&#45;&gt;Smfc_b3</title>
<path fill="none" stroke="#000000" d="M1086.3261,-355.6969C1079.0209,-345.8273 1071.0637,-335.0769 1063.7538,-325.2009"/>
<polygon fill="#000000" stroke="#000000" points="1066.5568,-323.1048 1057.7942,-317.1493 1060.9303,-327.2693 1066.5568,-323.1048"/>
</g>
<!-- Smfc_sigma3 -->
<g id="node18" class="node">
<title>Smfc_sigma3</title>
<ellipse fill="none" stroke="#000000" cx="965" cy="-390.3833" rx="65.1077" ry="37.4533"/>
<text text-anchor="middle" x="965" y="-401.6833" font-family="Times,serif" font-size="14.00" fill="#000000">Smfc_sigma3</text>
<text text-anchor="middle" x="965" y="-386.6833" font-family="Times,serif" font-size="14.00" fill="#000000">~</text>
<text text-anchor="middle" x="965" y="-371.6833" font-family="Times,serif" font-size="14.00" fill="#000000">HalfNormal</text>
</g>
<!-- Smfc_sigma3&#45;&gt;Smfc_b3 -->
<g id="edge12" class="edge">
<title>Smfc_sigma3&#45;&gt;Smfc_b3</title>
<path fill="none" stroke="#000000" d="M990.327,-355.6969C997.4614,-345.926 1005.2261,-335.2919 1012.3777,-325.4975"/>
<polygon fill="#000000" stroke="#000000" points="1015.4029,-327.2895 1018.4733,-317.1493 1009.7496,-323.1615 1015.4029,-327.2895"/>
</g>
<!-- Smfc_mu&#45;&gt;Smfc_y -->
<g id="edge18" class="edge">
<title>Smfc_mu&#45;&gt;Smfc_y</title>
<path fill="none" stroke="#000000" d="M862,-160.8539C862,-149.9351 862,-136.944 862,-124.4675"/>
<polygon fill="#000000" stroke="#000000" points="865.5001,-124.1649 862,-114.165 858.5001,-124.165 865.5001,-124.1649"/>
</g>
</g>
</svg>
