<?xml version="1.0" encoding="UTF-8" standalone="no"?>
<!DOCTYPE svg PUBLIC "-//W3C//DTD SVG 1.1//EN"
 "http://www.w3.org/Graphics/SVG/1.1/DTD/svg11.dtd">
<!-- Generated by graphviz version 2.40.1 (20161225.0304)
 -->
<!-- Title: Smfc Pages: 1 -->
<svg width="1758pt" height="452pt"
 viewBox="0.00 0.00 1758.11 451.86" xmlns="http://www.w3.org/2000/svg" xmlns:xlink="http://www.w3.org/1999/xlink">
<g id="graph0" class="graph" transform="scale(1 1) rotate(0) translate(4 447.86)">
<title>Smfc</title>
<polygon fill="#ffffff" stroke="transparent" points="-4,4 -4,-447.86 1754.1076,-447.86 1754.1076,4 -4,4"/>
<g id="clust1" class="cluster">
<title>cluster2</title>
<path fill="none" stroke="#000000" d="M888.0538,-232.9066C888.0538,-232.9066 1156.0538,-232.9066 1156.0538,-232.9066 1162.0538,-232.9066 1168.0538,-238.9066 1168.0538,-244.9066 1168.0538,-244.9066 1168.0538,-423.86 1168.0538,-423.86 1168.0538,-429.86 1162.0538,-435.86 1156.0538,-435.86 1156.0538,-435.86 888.0538,-435.86 888.0538,-435.86 882.0538,-435.86 876.0538,-429.86 876.0538,-423.86 876.0538,-423.86 876.0538,-244.9066 876.0538,-244.9066 876.0538,-238.9066 882.0538,-232.9066 888.0538,-232.9066"/>
<text text-anchor="middle" x="1156.5538" y="-240.7066" font-family="Times,serif" font-size="14.00" fill="#000000">2</text>
</g>
<g id="clust2" class="cluster">
<title>cluster11</title>
<path fill="none" stroke="#000000" d="M1330.0538,-232.9066C1330.0538,-232.9066 1598.0538,-232.9066 1598.0538,-232.9066 1604.0538,-232.9066 1610.0538,-238.9066 1610.0538,-244.9066 1610.0538,-244.9066 1610.0538,-423.86 1610.0538,-423.86 1610.0538,-429.86 1604.0538,-435.86 1598.0538,-435.86 1598.0538,-435.86 1330.0538,-435.86 1330.0538,-435.86 1324.0538,-435.86 1318.0538,-429.86 1318.0538,-423.86 1318.0538,-423.86 1318.0538,-244.9066 1318.0538,-244.9066 1318.0538,-238.9066 1324.0538,-232.9066 1330.0538,-232.9066"/>
<text text-anchor="middle" x="1595.0538" y="-240.7066" font-family="Times,serif" font-size="14.00" fill="#000000">11</text>
</g>
<g id="clust3" class="cluster">
<title>cluster139</title>
<path fill="none" stroke="#000000" d="M152.0538,-232.9066C152.0538,-232.9066 420.0538,-232.9066 420.0538,-232.9066 426.0538,-232.9066 432.0538,-238.9066 432.0538,-244.9066 432.0538,-244.9066 432.0538,-423.86 432.0538,-423.86 432.0538,-429.86 426.0538,-435.86 420.0538,-435.86 420.0538,-435.86 152.0538,-435.86 152.0538,-435.86 146.0538,-435.86 140.0538,-429.86 140.0538,-423.86 140.0538,-423.86 140.0538,-244.9066 140.0538,-244.9066 140.0538,-238.9066 146.0538,-232.9066 152.0538,-232.9066"/>
<text text-anchor="middle" x="413.5538" y="-240.7066" font-family="Times,serif" font-size="14.00" fill="#000000">139</text>
</g>
<g id="clust4" class="cluster">
<title>cluster278</title>
<path fill="none" stroke="#000000" d="M869.0538,-8C869.0538,-8 955.0538,-8 955.0538,-8 961.0538,-8 967.0538,-14 967.0538,-20 967.0538,-20 967.0538,-209.93 967.0538,-209.93 967.0538,-215.93 961.0538,-221.93 955.0538,-221.93 955.0538,-221.93 869.0538,-221.93 869.0538,-221.93 863.0538,-221.93 857.0538,-215.93 857.0538,-209.93 857.0538,-209.93 857.0538,-20 857.0538,-20 857.0538,-14 863.0538,-8 869.0538,-8"/>
<text text-anchor="middle" x="948.5538" y="-15.8" font-family="Times,serif" font-size="14.00" fill="#000000">278</text>
</g>
<!-- Smfc_b3_dist -->
<g id="node1" class="node">
<title>Smfc_b3_dist</title>
<ellipse fill="none" stroke="#000000" cx="65.0538" cy="-390.3833" rx="65.1077" ry="37.4533"/>
<text text-anchor="middle" x="65.0538" y="-401.6833" font-family="Times,serif" font-size="14.00" fill="#000000">Smfc_b3_dist</text>
<text text-anchor="middle" x="65.0538" y="-386.6833" font-family="Times,serif" font-size="14.00" fill="#000000">~</text>
<text text-anchor="middle" x="65.0538" y="-371.6833" font-family="Times,serif" font-size="14.00" fill="#000000">Normal</text>
</g>
<!-- Smfc_b3 -->
<g id="node17" class="node">
<title>Smfc_b3</title>
<polygon fill="none" stroke="#000000" points="330.5538,-316.9066 239.5538,-316.9066 239.5538,-263.9066 330.5538,-263.9066 330.5538,-316.9066"/>
<text text-anchor="middle" x="285.0538" y="-301.7066" font-family="Times,serif" font-size="14.00" fill="#000000">Smfc_b3</text>
<text text-anchor="middle" x="285.0538" y="-286.7066" font-family="Times,serif" font-size="14.00" fill="#000000">~</text>
<text text-anchor="middle" x="285.0538" y="-271.7066" font-family="Times,serif" font-size="14.00" fill="#000000">Deterministic</text>
</g>
<!-- Smfc_b3_dist&#45;&gt;Smfc_b3 -->
<g id="edge10" class="edge">
<title>Smfc_b3_dist&#45;&gt;Smfc_b3</title>
<path fill="none" stroke="#000000" d="M112.5004,-364.5988C120.3115,-360.5682 128.3665,-356.539 136.0538,-352.9066 166.7021,-338.4248 201.6157,-323.6889 229.939,-312.1655"/>
<polygon fill="#000000" stroke="#000000" points="231.32,-315.3824 239.276,-308.3857 228.6933,-308.8939 231.32,-315.3824"/>
</g>
<!-- Smfc_b0 -->
<g id="node2" class="node">
<title>Smfc_b0</title>
<polygon fill="none" stroke="#000000" points="772.5538,-316.9066 681.5538,-316.9066 681.5538,-263.9066 772.5538,-263.9066 772.5538,-316.9066"/>
<text text-anchor="middle" x="727.0538" y="-301.7066" font-family="Times,serif" font-size="14.00" fill="#000000">Smfc_b0</text>
<text text-anchor="middle" x="727.0538" y="-286.7066" font-family="Times,serif" font-size="14.00" fill="#000000">~</text>
<text text-anchor="middle" x="727.0538" y="-271.7066" font-family="Times,serif" font-size="14.00" fill="#000000">Deterministic</text>
</g>
<!-- Smfc_mu -->
<g id="node20" class="node">
<title>Smfc_mu</title>
<polygon fill="none" stroke="#000000" points="956.5538,-213.93 865.5538,-213.93 865.5538,-160.93 956.5538,-160.93 956.5538,-213.93"/>
<text text-anchor="middle" x="911.0538" y="-198.73" font-family="Times,serif" font-size="14.00" fill="#000000">Smfc_mu</text>
<text text-anchor="middle" x="911.0538" y="-183.73" font-family="Times,serif" font-size="14.00" fill="#000000">~</text>
<text text-anchor="middle" x="911.0538" y="-168.73" font-family="Times,serif" font-size="14.00" fill="#000000">Deterministic</text>
</g>
<!-- Smfc_b0&#45;&gt;Smfc_mu -->
<g id="edge15" class="edge">
<title>Smfc_b0&#45;&gt;Smfc_mu</title>
<path fill="none" stroke="#000000" d="M773.0102,-264.6869C798.3531,-250.5036 829.9765,-232.8054 856.5593,-217.9282"/>
<polygon fill="#000000" stroke="#000000" points="858.3477,-220.9381 865.3648,-213.0001 854.9291,-214.8297 858.3477,-220.9381"/>
</g>
<!-- Smfc_sigmaY -->
<g id="node3" class="node">
<title>Smfc_sigmaY</title>
<ellipse fill="none" stroke="#000000" cx="1042.0538" cy="-187.43" rx="67.3507" ry="37.4533"/>
<text text-anchor="middle" x="1042.0538" y="-198.73" font-family="Times,serif" font-size="14.00" fill="#000000">Smfc_sigmaY</text>
<text text-anchor="middle" x="1042.0538" y="-183.73" font-family="Times,serif" font-size="14.00" fill="#000000">~</text>
<text text-anchor="middle" x="1042.0538" y="-168.73" font-family="Times,serif" font-size="14.00" fill="#000000">Gamma</text>
</g>
<!-- Smfc_y -->
<g id="node19" class="node">
<title>Smfc_y</title>
<ellipse fill="#d3d3d3" stroke="#000000" cx="912.0538" cy="-76.4767" rx="46.8387" ry="37.4533"/>
<text text-anchor="middle" x="912.0538" y="-87.7767" font-family="Times,serif" font-size="14.00" fill="#000000">Smfc_y</text>
<text text-anchor="middle" x="912.0538" y="-72.7767" font-family="Times,serif" font-size="14.00" fill="#000000">~</text>
<text text-anchor="middle" x="912.0538" y="-57.7767" font-family="Times,serif" font-size="14.00" fill="#000000">StudentT</text>
</g>
<!-- Smfc_sigmaY&#45;&gt;Smfc_y -->
<g id="edge18" class="edge">
<title>Smfc_sigmaY&#45;&gt;Smfc_y</title>
<path fill="none" stroke="#000000" d="M1005.1488,-155.932C988.6343,-141.8371 969.1237,-125.1851 952.2409,-110.7758"/>
<polygon fill="#000000" stroke="#000000" points="954.0671,-107.733 944.1887,-103.9033 949.5228,-113.0574 954.0671,-107.733"/>
</g>
<!-- Smfc_mu_b0 -->
<g id="node4" class="node">
<title>Smfc_mu_b0</title>
<ellipse fill="none" stroke="#000000" cx="506.0538" cy="-390.3833" rx="64.1938" ry="37.4533"/>
<text text-anchor="middle" x="506.0538" y="-401.6833" font-family="Times,serif" font-size="14.00" fill="#000000">Smfc_mu_b0</text>
<text text-anchor="middle" x="506.0538" y="-386.6833" font-family="Times,serif" font-size="14.00" fill="#000000">~</text>
<text text-anchor="middle" x="506.0538" y="-371.6833" font-family="Times,serif" font-size="14.00" fill="#000000">Normal</text>
</g>
<!-- Smfc_mu_b0&#45;&gt;Smfc_b0 -->
<g id="edge2" class="edge">
<title>Smfc_mu_b0&#45;&gt;Smfc_b0</title>
<path fill="none" stroke="#000000" d="M554.1008,-365.0745C562.3714,-360.9029 570.9219,-356.7046 579.0538,-352.9066 609.3458,-338.759 643.718,-324.1576 671.7083,-312.629"/>
<polygon fill="#000000" stroke="#000000" points="673.4013,-315.7177 681.3255,-308.6852 670.7453,-309.2411 673.4013,-315.7177"/>
</g>
<!-- Smfc_b0_dist -->
<g id="node5" class="node">
<title>Smfc_b0_dist</title>
<ellipse fill="none" stroke="#000000" cx="653.0538" cy="-390.3833" rx="65.1077" ry="37.4533"/>
<text text-anchor="middle" x="653.0538" y="-401.6833" font-family="Times,serif" font-size="14.00" fill="#000000">Smfc_b0_dist</text>
<text text-anchor="middle" x="653.0538" y="-386.6833" font-family="Times,serif" font-size="14.00" fill="#000000">~</text>
<text text-anchor="middle" x="653.0538" y="-371.6833" font-family="Times,serif" font-size="14.00" fill="#000000">Normal</text>
</g>
<!-- Smfc_b0_dist&#45;&gt;Smfc_b0 -->
<g id="edge3" class="edge">
<title>Smfc_b0_dist&#45;&gt;Smfc_b0</title>
<path fill="none" stroke="#000000" d="M678.7278,-355.6969C686.033,-345.8273 693.9901,-335.0769 701.3,-325.2009"/>
<polygon fill="#000000" stroke="#000000" points="704.1235,-327.2693 707.2597,-317.1493 698.4971,-323.1048 704.1235,-327.2693"/>
</g>
<!-- Smfc_b2_dist -->
<g id="node6" class="node">
<title>Smfc_b2_dist</title>
<ellipse fill="none" stroke="#000000" cx="1685.0538" cy="-390.3833" rx="65.1077" ry="37.4533"/>
<text text-anchor="middle" x="1685.0538" y="-401.6833" font-family="Times,serif" font-size="14.00" fill="#000000">Smfc_b2_dist</text>
<text text-anchor="middle" x="1685.0538" y="-386.6833" font-family="Times,serif" font-size="14.00" fill="#000000">~</text>
<text text-anchor="middle" x="1685.0538" y="-371.6833" font-family="Times,serif" font-size="14.00" fill="#000000">Normal</text>
</g>
<!-- Smfc_b2 -->
<g id="node13" class="node">
<title>Smfc_b2</title>
<polygon fill="none" stroke="#000000" points="1508.5538,-316.9066 1417.5538,-316.9066 1417.5538,-263.9066 1508.5538,-263.9066 1508.5538,-316.9066"/>
<text text-anchor="middle" x="1463.0538" y="-301.7066" font-family="Times,serif" font-size="14.00" fill="#000000">Smfc_b2</text>
<text text-anchor="middle" x="1463.0538" y="-286.7066" font-family="Times,serif" font-size="14.00" fill="#000000">~</text>
<text text-anchor="middle" x="1463.0538" y="-271.7066" font-family="Times,serif" font-size="14.00" fill="#000000">Deterministic</text>
</g>
<!-- Smfc_b2_dist&#45;&gt;Smfc_b2 -->
<g id="edge7" class="edge">
<title>Smfc_b2_dist&#45;&gt;Smfc_b2</title>
<path fill="none" stroke="#000000" d="M1637.6222,-364.5671C1629.8092,-360.5405 1621.7497,-356.5208 1614.0538,-352.9066 1582.79,-338.2244 1547.1137,-323.3724 1518.2915,-311.8325"/>
<polygon fill="#000000" stroke="#000000" points="1519.3814,-308.4992 1508.796,-308.0509 1516.7914,-315.0025 1519.3814,-308.4992"/>
</g>
<!-- Smfc_nuY -->
<g id="node7" class="node">
<title>Smfc_nuY</title>
<ellipse fill="none" stroke="#000000" cx="1185.0538" cy="-187.43" rx="57.9655" ry="37.4533"/>
<text text-anchor="middle" x="1185.0538" y="-198.73" font-family="Times,serif" font-size="14.00" fill="#000000">Smfc_nuY</text>
<text text-anchor="middle" x="1185.0538" y="-183.73" font-family="Times,serif" font-size="14.00" fill="#000000">~</text>
<text text-anchor="middle" x="1185.0538" y="-168.73" font-family="Times,serif" font-size="14.00" fill="#000000">Exponential</text>
</g>
<!-- Smfc_nuY&#45;&gt;Smfc_y -->
<g id="edge17" class="edge">
<title>Smfc_nuY&#45;&gt;Smfc_y</title>
<path fill="none" stroke="#000000" d="M1141.9909,-161.9569C1134.1433,-157.7149 1125.9416,-153.5356 1118.0538,-149.9533 1067.6436,-127.0592 1007.8289,-106.408 965.6765,-92.8719"/>
<polygon fill="#000000" stroke="#000000" points="966.4837,-89.4558 955.8931,-89.7561 964.3594,-96.1257 966.4837,-89.4558"/>
</g>
<!-- Smfc_sigma0 -->
<g id="node8" class="node">
<title>Smfc_sigma0</title>
<ellipse fill="none" stroke="#000000" cx="801.0538" cy="-390.3833" rx="65.1077" ry="37.4533"/>
<text text-anchor="middle" x="801.0538" y="-401.6833" font-family="Times,serif" font-size="14.00" fill="#000000">Smfc_sigma0</text>
<text text-anchor="middle" x="801.0538" y="-386.6833" font-family="Times,serif" font-size="14.00" fill="#000000">~</text>
<text text-anchor="middle" x="801.0538" y="-371.6833" font-family="Times,serif" font-size="14.00" fill="#000000">HalfNormal</text>
</g>
<!-- Smfc_sigma0&#45;&gt;Smfc_b0 -->
<g id="edge1" class="edge">
<title>Smfc_sigma0&#45;&gt;Smfc_b0</title>
<path fill="none" stroke="#000000" d="M775.3799,-355.6969C768.0747,-345.8273 760.1176,-335.0769 752.8076,-325.2009"/>
<polygon fill="#000000" stroke="#000000" points="755.6106,-323.1048 746.848,-317.1493 749.9841,-327.2693 755.6106,-323.1048"/>
</g>
<!-- Smfc_b1_dist -->
<g id="node9" class="node">
<title>Smfc_b1_dist</title>
<ellipse fill="none" stroke="#000000" cx="1243.0538" cy="-390.3833" rx="65.1077" ry="37.4533"/>
<text text-anchor="middle" x="1243.0538" y="-401.6833" font-family="Times,serif" font-size="14.00" fill="#000000">Smfc_b1_dist</text>
<text text-anchor="middle" x="1243.0538" y="-386.6833" font-family="Times,serif" font-size="14.00" fill="#000000">~</text>
<text text-anchor="middle" x="1243.0538" y="-371.6833" font-family="Times,serif" font-size="14.00" fill="#000000">Normal</text>
</g>
<!-- Smfc_b1 -->
<g id="node10" class="node">
<title>Smfc_b1</title>
<polygon fill="none" stroke="#000000" points="1067.5538,-316.9066 976.5538,-316.9066 976.5538,-263.9066 1067.5538,-263.9066 1067.5538,-316.9066"/>
<text text-anchor="middle" x="1022.0538" y="-301.7066" font-family="Times,serif" font-size="14.00" fill="#000000">Smfc_b1</text>
<text text-anchor="middle" x="1022.0538" y="-286.7066" font-family="Times,serif" font-size="14.00" fill="#000000">~</text>
<text text-anchor="middle" x="1022.0538" y="-271.7066" font-family="Times,serif" font-size="14.00" fill="#000000">Deterministic</text>
</g>
<!-- Smfc_b1_dist&#45;&gt;Smfc_b1 -->
<g id="edge6" class="edge">
<title>Smfc_b1_dist&#45;&gt;Smfc_b1</title>
<path fill="none" stroke="#000000" d="M1195.6148,-364.5829C1187.8028,-360.5543 1179.7454,-356.5299 1172.0538,-352.9066 1141.0985,-338.3248 1105.8047,-323.5307 1077.232,-311.9988"/>
<polygon fill="#000000" stroke="#000000" points="1078.3998,-308.6961 1067.8158,-308.218 1075.7915,-315.1921 1078.3998,-308.6961"/>
</g>
<!-- Smfc_b1&#45;&gt;Smfc_mu -->
<g id="edge13" class="edge">
<title>Smfc_b1&#45;&gt;Smfc_mu</title>
<path fill="none" stroke="#000000" d="M993.4686,-263.8876C979.4653,-250.8965 962.4457,-235.1071 947.5171,-221.2576"/>
<polygon fill="#000000" stroke="#000000" points="949.6395,-218.4524 939.928,-214.2171 944.8787,-223.5841 949.6395,-218.4524"/>
</g>
<!-- Smfc_mu_b1 -->
<g id="node11" class="node">
<title>Smfc_mu_b1</title>
<ellipse fill="none" stroke="#000000" cx="1096.0538" cy="-390.3833" rx="64.1938" ry="37.4533"/>
<text text-anchor="middle" x="1096.0538" y="-401.6833" font-family="Times,serif" font-size="14.00" fill="#000000">Smfc_mu_b1</text>
<text text-anchor="middle" x="1096.0538" y="-386.6833" font-family="Times,serif" font-size="14.00" fill="#000000">~</text>
<text text-anchor="middle" x="1096.0538" y="-371.6833" font-family="Times,serif" font-size="14.00" fill="#000000">Normal</text>
</g>
<!-- Smfc_mu_b1&#45;&gt;Smfc_b1 -->
<g id="edge4" class="edge">
<title>Smfc_mu_b1&#45;&gt;Smfc_b1</title>
<path fill="none" stroke="#000000" d="M1070.3799,-355.6969C1063.0747,-345.8273 1055.1176,-335.0769 1047.8076,-325.2009"/>
<polygon fill="#000000" stroke="#000000" points="1050.6106,-323.1048 1041.848,-317.1493 1044.9841,-327.2693 1050.6106,-323.1048"/>
</g>
<!-- Smfc_sigma1 -->
<g id="node12" class="node">
<title>Smfc_sigma1</title>
<ellipse fill="none" stroke="#000000" cx="949.0538" cy="-390.3833" rx="65.1077" ry="37.4533"/>
<text text-anchor="middle" x="949.0538" y="-401.6833" font-family="Times,serif" font-size="14.00" fill="#000000">Smfc_sigma1</text>
<text text-anchor="middle" x="949.0538" y="-386.6833" font-family="Times,serif" font-size="14.00" fill="#000000">~</text>
<text text-anchor="middle" x="949.0538" y="-371.6833" font-family="Times,serif" font-size="14.00" fill="#000000">HalfNormal</text>
</g>
<!-- Smfc_sigma1&#45;&gt;Smfc_b1 -->
<g id="edge5" class="edge">
<title>Smfc_sigma1&#45;&gt;Smfc_b1</title>
<path fill="none" stroke="#000000" d="M974.3808,-355.6969C981.5152,-345.926 989.28,-335.2919 996.4315,-325.4975"/>
<polygon fill="#000000" stroke="#000000" points="999.4568,-327.2895 1002.5271,-317.1493 993.8034,-323.1615 999.4568,-327.2895"/>
</g>
<!-- Smfc_b2&#45;&gt;Smfc_mu -->
<g id="edge16" class="edge">
<title>Smfc_b2&#45;&gt;Smfc_mu</title>
<path fill="none" stroke="#000000" d="M1417.5394,-279.1165C1360.559,-265.5154 1259.769,-243.2118 1172.0538,-232.9066 1126.5545,-227.5612 1009.5624,-239.2512 966.0538,-224.9066 961.4929,-223.4029 956.9633,-221.3997 952.5749,-219.0987"/>
<polygon fill="#000000" stroke="#000000" points="954.2094,-216.0008 943.8009,-214.0221 950.7037,-222.0597 954.2094,-216.0008"/>
</g>
<!-- Smfc_sigma2 -->
<g id="node14" class="node">
<title>Smfc_sigma2</title>
<ellipse fill="none" stroke="#000000" cx="1537.0538" cy="-390.3833" rx="65.1077" ry="37.4533"/>
<text text-anchor="middle" x="1537.0538" y="-401.6833" font-family="Times,serif" font-size="14.00" fill="#000000">Smfc_sigma2</text>
<text text-anchor="middle" x="1537.0538" y="-386.6833" font-family="Times,serif" font-size="14.00" fill="#000000">~</text>
<text text-anchor="middle" x="1537.0538" y="-371.6833" font-family="Times,serif" font-size="14.00" fill="#000000">HalfNormal</text>
</g>
<!-- Smfc_sigma2&#45;&gt;Smfc_b2 -->
<g id="edge8" class="edge">
<title>Smfc_sigma2&#45;&gt;Smfc_b2</title>
<path fill="none" stroke="#000000" d="M1511.3799,-355.6969C1504.0747,-345.8273 1496.1176,-335.0769 1488.8076,-325.2009"/>
<polygon fill="#000000" stroke="#000000" points="1491.6106,-323.1048 1482.848,-317.1493 1485.9841,-327.2693 1491.6106,-323.1048"/>
</g>
<!-- Smfc_mu_b2 -->
<g id="node15" class="node">
<title>Smfc_mu_b2</title>
<ellipse fill="none" stroke="#000000" cx="1390.0538" cy="-390.3833" rx="64.1938" ry="37.4533"/>
<text text-anchor="middle" x="1390.0538" y="-401.6833" font-family="Times,serif" font-size="14.00" fill="#000000">Smfc_mu_b2</text>
<text text-anchor="middle" x="1390.0538" y="-386.6833" font-family="Times,serif" font-size="14.00" fill="#000000">~</text>
<text text-anchor="middle" x="1390.0538" y="-371.6833" font-family="Times,serif" font-size="14.00" fill="#000000">Normal</text>
</g>
<!-- Smfc_mu_b2&#45;&gt;Smfc_b2 -->
<g id="edge9" class="edge">
<title>Smfc_mu_b2&#45;&gt;Smfc_b2</title>
<path fill="none" stroke="#000000" d="M1415.3808,-355.6969C1422.5152,-345.926 1430.28,-335.2919 1437.4315,-325.4975"/>
<polygon fill="#000000" stroke="#000000" points="1440.4568,-327.2895 1443.5271,-317.1493 1434.8034,-323.1615 1440.4568,-327.2895"/>
</g>
<!-- Smfc_sigma3 -->
<g id="node16" class="node">
<title>Smfc_sigma3</title>
<ellipse fill="none" stroke="#000000" cx="359.0538" cy="-390.3833" rx="65.1077" ry="37.4533"/>
<text text-anchor="middle" x="359.0538" y="-401.6833" font-family="Times,serif" font-size="14.00" fill="#000000">Smfc_sigma3</text>
<text text-anchor="middle" x="359.0538" y="-386.6833" font-family="Times,serif" font-size="14.00" fill="#000000">~</text>
<text text-anchor="middle" x="359.0538" y="-371.6833" font-family="Times,serif" font-size="14.00" fill="#000000">HalfNormal</text>
</g>
<!-- Smfc_sigma3&#45;&gt;Smfc_b3 -->
<g id="edge12" class="edge">
<title>Smfc_sigma3&#45;&gt;Smfc_b3</title>
<path fill="none" stroke="#000000" d="M333.3799,-355.6969C326.0747,-345.8273 318.1176,-335.0769 310.8076,-325.2009"/>
<polygon fill="#000000" stroke="#000000" points="313.6106,-323.1048 304.848,-317.1493 307.9841,-327.2693 313.6106,-323.1048"/>
</g>
<!-- Smfc_b3&#45;&gt;Smfc_mu -->
<g id="edge14" class="edge">
<title>Smfc_b3&#45;&gt;Smfc_mu</title>
<path fill="none" stroke="#000000" d="M330.5784,-282.9179C442.9163,-264.4384 733.0558,-216.7106 855.3678,-196.5903"/>
<polygon fill="#000000" stroke="#000000" points="855.9784,-200.037 865.2777,-194.9601 854.8421,-193.1298 855.9784,-200.037"/>
</g>
<!-- Smfc_mu_b3 -->
<g id="node18" class="node">
<title>Smfc_mu_b3</title>
<ellipse fill="none" stroke="#000000" cx="212.0538" cy="-390.3833" rx="64.1938" ry="37.4533"/>
<text text-anchor="middle" x="212.0538" y="-401.6833" font-family="Times,serif" font-size="14.00" fill="#000000">Smfc_mu_b3</text>
<text text-anchor="middle" x="212.0538" y="-386.6833" font-family="Times,serif" font-size="14.00" fill="#000000">~</text>
<text text-anchor="middle" x="212.0538" y="-371.6833" font-family="Times,serif" font-size="14.00" fill="#000000">Normal</text>
</g>
<!-- Smfc_mu_b3&#45;&gt;Smfc_b3 -->
<g id="edge11" class="edge">
<title>Smfc_mu_b3&#45;&gt;Smfc_b3</title>
<path fill="none" stroke="#000000" d="M237.3808,-355.6969C244.5152,-345.926 252.28,-335.2919 259.4315,-325.4975"/>
<polygon fill="#000000" stroke="#000000" points="262.4568,-327.2895 265.5271,-317.1493 256.8034,-323.1615 262.4568,-327.2895"/>
</g>
<!-- Smfc_mu&#45;&gt;Smfc_y -->
<g id="edge19" class="edge">
<title>Smfc_mu&#45;&gt;Smfc_y</title>
<path fill="none" stroke="#000000" d="M911.2933,-160.8539C911.3918,-149.9351 911.5088,-136.944 911.6213,-124.4675"/>
<polygon fill="#000000" stroke="#000000" points="915.1238,-124.1961 911.7141,-114.165 908.1241,-124.133 915.1238,-124.1961"/>
</g>
</g>
</svg>
