<?xml version="1.0" encoding="UTF-8" standalone="no"?>
<!DOCTYPE svg PUBLIC "-//W3C//DTD SVG 1.1//EN"
 "http://www.w3.org/Graphics/SVG/1.1/DTD/svg11.dtd">
<!-- Generated by graphviz version 2.40.1 (20161225.0304)
 -->
<!-- Title: Rsquared Pages: 1 -->
<svg width="2138pt" height="452pt"
 viewBox="0.00 0.00 2138.22 451.86" xmlns="http://www.w3.org/2000/svg" xmlns:xlink="http://www.w3.org/1999/xlink">
<g id="graph0" class="graph" transform="scale(1 1) rotate(0) translate(4 447.86)">
<title>Rsquared</title>
<polygon fill="#ffffff" stroke="transparent" points="-4,4 -4,-447.86 2134.2203,-447.86 2134.2203,4 -4,4"/>
<g id="clust1" class="cluster">
<title>cluster2</title>
<path fill="none" stroke="#000000" d="M541.6102,-232.9066C541.6102,-232.9066 873.6102,-232.9066 873.6102,-232.9066 879.6102,-232.9066 885.6102,-238.9066 885.6102,-244.9066 885.6102,-244.9066 885.6102,-423.86 885.6102,-423.86 885.6102,-429.86 879.6102,-435.86 873.6102,-435.86 873.6102,-435.86 541.6102,-435.86 541.6102,-435.86 535.6102,-435.86 529.6102,-429.86 529.6102,-423.86 529.6102,-423.86 529.6102,-244.9066 529.6102,-244.9066 529.6102,-238.9066 535.6102,-232.9066 541.6102,-232.9066"/>
<text text-anchor="middle" x="874.1102" y="-240.7066" font-family="Times,serif" font-size="14.00" fill="#000000">2</text>
</g>
<g id="clust2" class="cluster">
<title>cluster11</title>
<path fill="none" stroke="#000000" d="M1078.6102,-232.9066C1078.6102,-232.9066 1410.6102,-232.9066 1410.6102,-232.9066 1416.6102,-232.9066 1422.6102,-238.9066 1422.6102,-244.9066 1422.6102,-244.9066 1422.6102,-423.86 1422.6102,-423.86 1422.6102,-429.86 1416.6102,-435.86 1410.6102,-435.86 1410.6102,-435.86 1078.6102,-435.86 1078.6102,-435.86 1072.6102,-435.86 1066.6102,-429.86 1066.6102,-423.86 1066.6102,-423.86 1066.6102,-244.9066 1066.6102,-244.9066 1066.6102,-238.9066 1072.6102,-232.9066 1078.6102,-232.9066"/>
<text text-anchor="middle" x="1407.6102" y="-240.7066" font-family="Times,serif" font-size="14.00" fill="#000000">11</text>
</g>
<g id="clust3" class="cluster">
<title>cluster139</title>
<path fill="none" stroke="#000000" d="M1614.6102,-232.9066C1614.6102,-232.9066 1946.6102,-232.9066 1946.6102,-232.9066 1952.6102,-232.9066 1958.6102,-238.9066 1958.6102,-244.9066 1958.6102,-244.9066 1958.6102,-423.86 1958.6102,-423.86 1958.6102,-429.86 1952.6102,-435.86 1946.6102,-435.86 1946.6102,-435.86 1614.6102,-435.86 1614.6102,-435.86 1608.6102,-435.86 1602.6102,-429.86 1602.6102,-423.86 1602.6102,-423.86 1602.6102,-244.9066 1602.6102,-244.9066 1602.6102,-238.9066 1608.6102,-232.9066 1614.6102,-232.9066"/>
<text text-anchor="middle" x="1940.1102" y="-240.7066" font-family="Times,serif" font-size="14.00" fill="#000000">139</text>
</g>
<g id="clust4" class="cluster">
<title>cluster278</title>
<path fill="none" stroke="#000000" d="M983.6102,-8C983.6102,-8 1089.6102,-8 1089.6102,-8 1095.6102,-8 1101.6102,-14 1101.6102,-20 1101.6102,-20 1101.6102,-209.93 1101.6102,-209.93 1101.6102,-215.93 1095.6102,-221.93 1089.6102,-221.93 1089.6102,-221.93 983.6102,-221.93 983.6102,-221.93 977.6102,-221.93 971.6102,-215.93 971.6102,-209.93 971.6102,-209.93 971.6102,-20 971.6102,-20 971.6102,-14 977.6102,-8 983.6102,-8"/>
<text text-anchor="middle" x="1083.1102" y="-15.8" font-family="Times,serif" font-size="14.00" fill="#000000">278</text>
</g>
<!-- Rsquared_nuY -->
<g id="node1" class="node">
<title>Rsquared_nuY</title>
<ellipse fill="none" stroke="#000000" cx="894.6102" cy="-187.43" rx="69.0935" ry="37.4533"/>
<text text-anchor="middle" x="894.6102" y="-198.73" font-family="Times,serif" font-size="14.00" fill="#000000">Rsquared_nuY</text>
<text text-anchor="middle" x="894.6102" y="-183.73" font-family="Times,serif" font-size="14.00" fill="#000000">~</text>
<text text-anchor="middle" x="894.6102" y="-168.73" font-family="Times,serif" font-size="14.00" fill="#000000">Exponential</text>
</g>
<!-- Rsquared_y -->
<g id="node19" class="node">
<title>Rsquared_y</title>
<ellipse fill="#d3d3d3" stroke="#000000" cx="1036.6102" cy="-76.4767" rx="57.0522" ry="37.4533"/>
<text text-anchor="middle" x="1036.6102" y="-87.7767" font-family="Times,serif" font-size="14.00" fill="#000000">Rsquared_y</text>
<text text-anchor="middle" x="1036.6102" y="-72.7767" font-family="Times,serif" font-size="14.00" fill="#000000">~</text>
<text text-anchor="middle" x="1036.6102" y="-57.7767" font-family="Times,serif" font-size="14.00" fill="#000000">StudentT</text>
</g>
<!-- Rsquared_nuY&#45;&gt;Rsquared_y -->
<g id="edge18" class="edge">
<title>Rsquared_nuY&#45;&gt;Rsquared_y</title>
<path fill="none" stroke="#000000" d="M934.1651,-156.5233C951.9563,-142.622 973.0486,-126.1413 991.4565,-111.758"/>
<polygon fill="#000000" stroke="#000000" points="993.979,-114.2288 999.7038,-105.3138 989.669,-108.7129 993.979,-114.2288"/>
</g>
<!-- Rsquared_b0 -->
<g id="node2" class="node">
<title>Rsquared_b0</title>
<polygon fill="none" stroke="#000000" points="395.1102,-316.9066 304.1102,-316.9066 304.1102,-263.9066 395.1102,-263.9066 395.1102,-316.9066"/>
<text text-anchor="middle" x="349.6102" y="-301.7066" font-family="Times,serif" font-size="14.00" fill="#000000">Rsquared_b0</text>
<text text-anchor="middle" x="349.6102" y="-286.7066" font-family="Times,serif" font-size="14.00" fill="#000000">~</text>
<text text-anchor="middle" x="349.6102" y="-271.7066" font-family="Times,serif" font-size="14.00" fill="#000000">Deterministic</text>
</g>
<!-- Rsquared_mu -->
<g id="node20" class="node">
<title>Rsquared_mu</title>
<polygon fill="none" stroke="#000000" points="1082.6102,-213.93 990.6102,-213.93 990.6102,-160.93 1082.6102,-160.93 1082.6102,-213.93"/>
<text text-anchor="middle" x="1036.6102" y="-198.73" font-family="Times,serif" font-size="14.00" fill="#000000">Rsquared_mu</text>
<text text-anchor="middle" x="1036.6102" y="-183.73" font-family="Times,serif" font-size="14.00" fill="#000000">~</text>
<text text-anchor="middle" x="1036.6102" y="-168.73" font-family="Times,serif" font-size="14.00" fill="#000000">Deterministic</text>
</g>
<!-- Rsquared_b0&#45;&gt;Rsquared_mu -->
<g id="edge15" class="edge">
<title>Rsquared_b0&#45;&gt;Rsquared_mu</title>
<path fill="none" stroke="#000000" d="M395.3504,-271.2912C430.3295,-257.7063 480.1227,-240.5667 525.6102,-232.9066 574.5951,-224.6576 924.7862,-238.3392 972.6102,-224.9066 978.2485,-223.323 983.9036,-221.119 989.3916,-218.5651"/>
<polygon fill="#000000" stroke="#000000" points="991.0969,-221.6248 998.4371,-213.9846 987.9345,-215.3798 991.0969,-221.6248"/>
</g>
<!-- Rsquared_b0_dist -->
<g id="node3" class="node">
<title>Rsquared_b0_dist</title>
<ellipse fill="none" stroke="#000000" cx="80.6102" cy="-390.3833" rx="80.7205" ry="37.4533"/>
<text text-anchor="middle" x="80.6102" y="-401.6833" font-family="Times,serif" font-size="14.00" fill="#000000">Rsquared_b0_dist</text>
<text text-anchor="middle" x="80.6102" y="-386.6833" font-family="Times,serif" font-size="14.00" fill="#000000">~</text>
<text text-anchor="middle" x="80.6102" y="-371.6833" font-family="Times,serif" font-size="14.00" fill="#000000">Normal</text>
</g>
<!-- Rsquared_b0_dist&#45;&gt;Rsquared_b0 -->
<g id="edge2" class="edge">
<title>Rsquared_b0_dist&#45;&gt;Rsquared_b0</title>
<path fill="none" stroke="#000000" d="M140.4438,-364.894C150.4757,-360.7857 160.8086,-356.6548 170.6102,-352.9066 211.7807,-337.1627 258.8577,-320.7884 294.3968,-308.7511"/>
<polygon fill="#000000" stroke="#000000" points="295.7452,-311.99 304.1002,-305.4751 293.506,-305.3578 295.7452,-311.99"/>
</g>
<!-- Rsquared_sigmaY -->
<g id="node4" class="node">
<title>Rsquared_sigmaY</title>
<ellipse fill="none" stroke="#000000" cx="1192.6102" cy="-187.43" rx="82.9636" ry="37.4533"/>
<text text-anchor="middle" x="1192.6102" y="-198.73" font-family="Times,serif" font-size="14.00" fill="#000000">Rsquared_sigmaY</text>
<text text-anchor="middle" x="1192.6102" y="-183.73" font-family="Times,serif" font-size="14.00" fill="#000000">~</text>
<text text-anchor="middle" x="1192.6102" y="-168.73" font-family="Times,serif" font-size="14.00" fill="#000000">Gamma</text>
</g>
<!-- Rsquared_sigmaY&#45;&gt;Rsquared_y -->
<g id="edge17" class="edge">
<title>Rsquared_sigmaY&#45;&gt;Rsquared_y</title>
<path fill="none" stroke="#000000" d="M1147.9068,-155.6352C1127.8073,-141.3396 1104.0764,-124.4613 1083.702,-109.9702"/>
<polygon fill="#000000" stroke="#000000" points="1085.6677,-107.0733 1075.49,-104.1295 1081.6105,-112.7777 1085.6677,-107.0733"/>
</g>
<!-- Rsquared_mu_b0 -->
<g id="node5" class="node">
<title>Rsquared_mu_b0</title>
<ellipse fill="none" stroke="#000000" cx="259.6102" cy="-390.3833" rx="79.8063" ry="37.4533"/>
<text text-anchor="middle" x="259.6102" y="-401.6833" font-family="Times,serif" font-size="14.00" fill="#000000">Rsquared_mu_b0</text>
<text text-anchor="middle" x="259.6102" y="-386.6833" font-family="Times,serif" font-size="14.00" fill="#000000">~</text>
<text text-anchor="middle" x="259.6102" y="-371.6833" font-family="Times,serif" font-size="14.00" fill="#000000">Normal</text>
</g>
<!-- Rsquared_mu_b0&#45;&gt;Rsquared_b0 -->
<g id="edge3" class="edge">
<title>Rsquared_mu_b0&#45;&gt;Rsquared_b0</title>
<path fill="none" stroke="#000000" d="M290.8352,-355.6969C299.8976,-345.6299 309.7849,-334.6466 318.8205,-324.6094"/>
<polygon fill="#000000" stroke="#000000" points="321.4469,-326.9232 325.5362,-317.1493 316.2444,-322.2398 321.4469,-326.9232"/>
</g>
<!-- Rsquared_b1_dist -->
<g id="node6" class="node">
<title>Rsquared_b1_dist</title>
<ellipse fill="none" stroke="#000000" cx="975.6102" cy="-390.3833" rx="80.7205" ry="37.4533"/>
<text text-anchor="middle" x="975.6102" y="-401.6833" font-family="Times,serif" font-size="14.00" fill="#000000">Rsquared_b1_dist</text>
<text text-anchor="middle" x="975.6102" y="-386.6833" font-family="Times,serif" font-size="14.00" fill="#000000">~</text>
<text text-anchor="middle" x="975.6102" y="-371.6833" font-family="Times,serif" font-size="14.00" fill="#000000">Normal</text>
</g>
<!-- Rsquared_b1 -->
<g id="node11" class="node">
<title>Rsquared_b1</title>
<polygon fill="none" stroke="#000000" points="859.1102,-316.9066 768.1102,-316.9066 768.1102,-263.9066 859.1102,-263.9066 859.1102,-316.9066"/>
<text text-anchor="middle" x="813.6102" y="-301.7066" font-family="Times,serif" font-size="14.00" fill="#000000">Rsquared_b1</text>
<text text-anchor="middle" x="813.6102" y="-286.7066" font-family="Times,serif" font-size="14.00" fill="#000000">~</text>
<text text-anchor="middle" x="813.6102" y="-271.7066" font-family="Times,serif" font-size="14.00" fill="#000000">Deterministic</text>
</g>
<!-- Rsquared_b1_dist&#45;&gt;Rsquared_b1 -->
<g id="edge5" class="edge">
<title>Rsquared_b1_dist&#45;&gt;Rsquared_b1</title>
<path fill="none" stroke="#000000" d="M927.0048,-360.387C907.5203,-348.3623 885.0416,-334.4898 865.2626,-322.2834"/>
<polygon fill="#000000" stroke="#000000" points="867.0256,-319.2586 856.6775,-316.9852 863.3493,-325.2156 867.0256,-319.2586"/>
</g>
<!-- Rsquared_b2_dist -->
<g id="node7" class="node">
<title>Rsquared_b2_dist</title>
<ellipse fill="none" stroke="#000000" cx="1512.6102" cy="-390.3833" rx="80.7205" ry="37.4533"/>
<text text-anchor="middle" x="1512.6102" y="-401.6833" font-family="Times,serif" font-size="14.00" fill="#000000">Rsquared_b2_dist</text>
<text text-anchor="middle" x="1512.6102" y="-386.6833" font-family="Times,serif" font-size="14.00" fill="#000000">~</text>
<text text-anchor="middle" x="1512.6102" y="-371.6833" font-family="Times,serif" font-size="14.00" fill="#000000">Normal</text>
</g>
<!-- Rsquared_b2 -->
<g id="node13" class="node">
<title>Rsquared_b2</title>
<polygon fill="none" stroke="#000000" points="1289.1102,-316.9066 1198.1102,-316.9066 1198.1102,-263.9066 1289.1102,-263.9066 1289.1102,-316.9066"/>
<text text-anchor="middle" x="1243.6102" y="-301.7066" font-family="Times,serif" font-size="14.00" fill="#000000">Rsquared_b2</text>
<text text-anchor="middle" x="1243.6102" y="-286.7066" font-family="Times,serif" font-size="14.00" fill="#000000">~</text>
<text text-anchor="middle" x="1243.6102" y="-271.7066" font-family="Times,serif" font-size="14.00" fill="#000000">Deterministic</text>
</g>
<!-- Rsquared_b2_dist&#45;&gt;Rsquared_b2 -->
<g id="edge7" class="edge">
<title>Rsquared_b2_dist&#45;&gt;Rsquared_b2</title>
<path fill="none" stroke="#000000" d="M1454.5894,-364.3323C1445.2848,-360.3768 1435.7207,-356.4407 1426.6102,-352.9066 1384.4098,-336.5369 1335.9014,-320.0742 1299.4343,-308.1568"/>
<polygon fill="#000000" stroke="#000000" points="1300.0755,-304.685 1289.4833,-304.9199 1297.9102,-311.3416 1300.0755,-304.685"/>
</g>
<!-- Rsquared_b3_dist -->
<g id="node8" class="node">
<title>Rsquared_b3_dist</title>
<ellipse fill="none" stroke="#000000" cx="2049.6102" cy="-390.3833" rx="80.7205" ry="37.4533"/>
<text text-anchor="middle" x="2049.6102" y="-401.6833" font-family="Times,serif" font-size="14.00" fill="#000000">Rsquared_b3_dist</text>
<text text-anchor="middle" x="2049.6102" y="-386.6833" font-family="Times,serif" font-size="14.00" fill="#000000">~</text>
<text text-anchor="middle" x="2049.6102" y="-371.6833" font-family="Times,serif" font-size="14.00" fill="#000000">Normal</text>
</g>
<!-- Rsquared_b3 -->
<g id="node17" class="node">
<title>Rsquared_b3</title>
<polygon fill="none" stroke="#000000" points="1826.1102,-316.9066 1735.1102,-316.9066 1735.1102,-263.9066 1826.1102,-263.9066 1826.1102,-316.9066"/>
<text text-anchor="middle" x="1780.6102" y="-301.7066" font-family="Times,serif" font-size="14.00" fill="#000000">Rsquared_b3</text>
<text text-anchor="middle" x="1780.6102" y="-286.7066" font-family="Times,serif" font-size="14.00" fill="#000000">~</text>
<text text-anchor="middle" x="1780.6102" y="-271.7066" font-family="Times,serif" font-size="14.00" fill="#000000">Deterministic</text>
</g>
<!-- Rsquared_b3_dist&#45;&gt;Rsquared_b3 -->
<g id="edge11" class="edge">
<title>Rsquared_b3_dist&#45;&gt;Rsquared_b3</title>
<path fill="none" stroke="#000000" d="M1990.8931,-364.3726C1981.4831,-360.4118 1971.8144,-356.4636 1962.6102,-352.9066 1920.5956,-336.6703 1872.3547,-320.2005 1836.0992,-308.2465"/>
<polygon fill="#000000" stroke="#000000" points="1836.799,-304.7925 1826.2062,-304.9986 1834.6155,-311.4433 1836.799,-304.7925"/>
</g>
<!-- Rsquared_sigma0 -->
<g id="node9" class="node">
<title>Rsquared_sigma0</title>
<ellipse fill="none" stroke="#000000" cx="438.6102" cy="-390.3833" rx="80.7205" ry="37.4533"/>
<text text-anchor="middle" x="438.6102" y="-401.6833" font-family="Times,serif" font-size="14.00" fill="#000000">Rsquared_sigma0</text>
<text text-anchor="middle" x="438.6102" y="-386.6833" font-family="Times,serif" font-size="14.00" fill="#000000">~</text>
<text text-anchor="middle" x="438.6102" y="-371.6833" font-family="Times,serif" font-size="14.00" fill="#000000">HalfNormal</text>
</g>
<!-- Rsquared_sigma0&#45;&gt;Rsquared_b0 -->
<g id="edge1" class="edge">
<title>Rsquared_sigma0&#45;&gt;Rsquared_b0</title>
<path fill="none" stroke="#000000" d="M407.7321,-355.6969C398.8582,-345.7286 389.1845,-334.8618 380.3208,-324.9049"/>
<polygon fill="#000000" stroke="#000000" points="382.6801,-322.2913 373.4167,-317.1493 377.4516,-326.9457 382.6801,-322.2913"/>
</g>
<!-- Rsquared_sigma1 -->
<g id="node10" class="node">
<title>Rsquared_sigma1</title>
<ellipse fill="none" stroke="#000000" cx="796.6102" cy="-390.3833" rx="80.7205" ry="37.4533"/>
<text text-anchor="middle" x="796.6102" y="-401.6833" font-family="Times,serif" font-size="14.00" fill="#000000">Rsquared_sigma1</text>
<text text-anchor="middle" x="796.6102" y="-386.6833" font-family="Times,serif" font-size="14.00" fill="#000000">~</text>
<text text-anchor="middle" x="796.6102" y="-371.6833" font-family="Times,serif" font-size="14.00" fill="#000000">HalfNormal</text>
</g>
<!-- Rsquared_sigma1&#45;&gt;Rsquared_b1 -->
<g id="edge4" class="edge">
<title>Rsquared_sigma1&#45;&gt;Rsquared_b1</title>
<path fill="none" stroke="#000000" d="M802.9887,-352.8712C804.4221,-344.4415 805.9415,-335.506 807.3692,-327.1097"/>
<polygon fill="#000000" stroke="#000000" points="810.8273,-327.651 809.0533,-317.2057 803.9264,-326.4775 810.8273,-327.651"/>
</g>
<!-- Rsquared_b1&#45;&gt;Rsquared_mu -->
<g id="edge14" class="edge">
<title>Rsquared_b1&#45;&gt;Rsquared_mu</title>
<path fill="none" stroke="#000000" d="M859.2427,-273.5514C891.4357,-261.1929 935.2967,-243.4054 972.6102,-224.9066 976.3738,-223.0408 980.2176,-221.0418 984.06,-218.974"/>
<polygon fill="#000000" stroke="#000000" points="985.9168,-221.947 992.9847,-214.0543 982.5375,-215.8167 985.9168,-221.947"/>
</g>
<!-- Rsquared_mu_b1 -->
<g id="node12" class="node">
<title>Rsquared_mu_b1</title>
<ellipse fill="none" stroke="#000000" cx="617.6102" cy="-390.3833" rx="79.8062" ry="37.4533"/>
<text text-anchor="middle" x="617.6102" y="-401.6833" font-family="Times,serif" font-size="14.00" fill="#000000">Rsquared_mu_b1</text>
<text text-anchor="middle" x="617.6102" y="-386.6833" font-family="Times,serif" font-size="14.00" fill="#000000">~</text>
<text text-anchor="middle" x="617.6102" y="-371.6833" font-family="Times,serif" font-size="14.00" fill="#000000">Normal</text>
</g>
<!-- Rsquared_mu_b1&#45;&gt;Rsquared_b1 -->
<g id="edge6" class="edge">
<title>Rsquared_mu_b1&#45;&gt;Rsquared_b1</title>
<path fill="none" stroke="#000000" d="M671.9468,-362.667C699.0217,-348.8565 731.6856,-332.1951 758.8222,-318.3532"/>
<polygon fill="#000000" stroke="#000000" points="760.4794,-321.437 767.797,-313.7752 757.2986,-315.2013 760.4794,-321.437"/>
</g>
<!-- Rsquared_b2&#45;&gt;Rsquared_mu -->
<g id="edge13" class="edge">
<title>Rsquared_b2&#45;&gt;Rsquared_mu</title>
<path fill="none" stroke="#000000" d="M1197.9685,-270.8986C1169.608,-258.4344 1132.588,-241.5397 1100.6102,-224.9066 1096.9477,-223.0016 1093.1986,-220.9859 1089.4423,-218.9171"/>
<polygon fill="#000000" stroke="#000000" points="1091.1362,-215.8543 1080.7012,-214.0208 1087.7152,-221.9614 1091.1362,-215.8543"/>
</g>
<!-- Rsquared_sigma2 -->
<g id="node14" class="node">
<title>Rsquared_sigma2</title>
<ellipse fill="none" stroke="#000000" cx="1333.6102" cy="-390.3833" rx="80.7205" ry="37.4533"/>
<text text-anchor="middle" x="1333.6102" y="-401.6833" font-family="Times,serif" font-size="14.00" fill="#000000">Rsquared_sigma2</text>
<text text-anchor="middle" x="1333.6102" y="-386.6833" font-family="Times,serif" font-size="14.00" fill="#000000">~</text>
<text text-anchor="middle" x="1333.6102" y="-371.6833" font-family="Times,serif" font-size="14.00" fill="#000000">HalfNormal</text>
</g>
<!-- Rsquared_sigma2&#45;&gt;Rsquared_b2 -->
<g id="edge8" class="edge">
<title>Rsquared_sigma2&#45;&gt;Rsquared_b2</title>
<path fill="none" stroke="#000000" d="M1302.3851,-355.6969C1293.3227,-345.6299 1283.4354,-334.6466 1274.3999,-324.6094"/>
<polygon fill="#000000" stroke="#000000" points="1276.976,-322.2398 1267.6842,-317.1493 1271.7734,-326.9232 1276.976,-322.2398"/>
</g>
<!-- Rsquared_mu_b2 -->
<g id="node15" class="node">
<title>Rsquared_mu_b2</title>
<ellipse fill="none" stroke="#000000" cx="1154.6102" cy="-390.3833" rx="79.8063" ry="37.4533"/>
<text text-anchor="middle" x="1154.6102" y="-401.6833" font-family="Times,serif" font-size="14.00" fill="#000000">Rsquared_mu_b2</text>
<text text-anchor="middle" x="1154.6102" y="-386.6833" font-family="Times,serif" font-size="14.00" fill="#000000">~</text>
<text text-anchor="middle" x="1154.6102" y="-371.6833" font-family="Times,serif" font-size="14.00" fill="#000000">Normal</text>
</g>
<!-- Rsquared_mu_b2&#45;&gt;Rsquared_b2 -->
<g id="edge9" class="edge">
<title>Rsquared_mu_b2&#45;&gt;Rsquared_b2</title>
<path fill="none" stroke="#000000" d="M1185.4883,-355.6969C1194.3621,-345.7286 1204.0358,-334.8618 1212.8995,-324.9049"/>
<polygon fill="#000000" stroke="#000000" points="1215.7687,-326.9457 1219.8037,-317.1493 1210.5403,-322.2913 1215.7687,-326.9457"/>
</g>
<!-- Rsquared_mu_b3 -->
<g id="node16" class="node">
<title>Rsquared_mu_b3</title>
<ellipse fill="none" stroke="#000000" cx="1870.6102" cy="-390.3833" rx="79.8063" ry="37.4533"/>
<text text-anchor="middle" x="1870.6102" y="-401.6833" font-family="Times,serif" font-size="14.00" fill="#000000">Rsquared_mu_b3</text>
<text text-anchor="middle" x="1870.6102" y="-386.6833" font-family="Times,serif" font-size="14.00" fill="#000000">~</text>
<text text-anchor="middle" x="1870.6102" y="-371.6833" font-family="Times,serif" font-size="14.00" fill="#000000">Normal</text>
</g>
<!-- Rsquared_mu_b3&#45;&gt;Rsquared_b3 -->
<g id="edge10" class="edge">
<title>Rsquared_mu_b3&#45;&gt;Rsquared_b3</title>
<path fill="none" stroke="#000000" d="M1839.3851,-355.6969C1830.3227,-345.6299 1820.4354,-334.6466 1811.3999,-324.6094"/>
<polygon fill="#000000" stroke="#000000" points="1813.976,-322.2398 1804.6842,-317.1493 1808.7734,-326.9232 1813.976,-322.2398"/>
</g>
<!-- Rsquared_b3&#45;&gt;Rsquared_mu -->
<g id="edge16" class="edge">
<title>Rsquared_b3&#45;&gt;Rsquared_mu</title>
<path fill="none" stroke="#000000" d="M1735.0415,-280.9578C1667.8806,-267.4988 1538.203,-243.2899 1426.6102,-232.9066 1390.5329,-229.5498 1135.4607,-234.8202 1100.6102,-224.9066 1094.9771,-223.3043 1089.3254,-221.0882 1083.8395,-218.5272"/>
<polygon fill="#000000" stroke="#000000" points="1085.2977,-215.3423 1074.7962,-213.9388 1082.1303,-221.5848 1085.2977,-215.3423"/>
</g>
<!-- Rsquared_sigma3 -->
<g id="node18" class="node">
<title>Rsquared_sigma3</title>
<ellipse fill="none" stroke="#000000" cx="1691.6102" cy="-390.3833" rx="80.7205" ry="37.4533"/>
<text text-anchor="middle" x="1691.6102" y="-401.6833" font-family="Times,serif" font-size="14.00" fill="#000000">Rsquared_sigma3</text>
<text text-anchor="middle" x="1691.6102" y="-386.6833" font-family="Times,serif" font-size="14.00" fill="#000000">~</text>
<text text-anchor="middle" x="1691.6102" y="-371.6833" font-family="Times,serif" font-size="14.00" fill="#000000">HalfNormal</text>
</g>
<!-- Rsquared_sigma3&#45;&gt;Rsquared_b3 -->
<g id="edge12" class="edge">
<title>Rsquared_sigma3&#45;&gt;Rsquared_b3</title>
<path fill="none" stroke="#000000" d="M1722.4883,-355.6969C1731.3621,-345.7286 1741.0358,-334.8618 1749.8995,-324.9049"/>
<polygon fill="#000000" stroke="#000000" points="1752.7687,-326.9457 1756.8037,-317.1493 1747.5403,-322.2913 1752.7687,-326.9457"/>
</g>
<!-- Rsquared_mu&#45;&gt;Rsquared_y -->
<g id="edge19" class="edge">
<title>Rsquared_mu&#45;&gt;Rsquared_y</title>
<path fill="none" stroke="#000000" d="M1036.6102,-160.8539C1036.6102,-149.9351 1036.6102,-136.944 1036.6102,-124.4675"/>
<polygon fill="#000000" stroke="#000000" points="1040.1103,-124.1649 1036.6102,-114.165 1033.1103,-124.165 1040.1103,-124.1649"/>
</g>
</g>
</svg>
