<?xml version="1.0" encoding="UTF-8" standalone="no"?>
<!DOCTYPE svg PUBLIC "-//W3C//DTD SVG 1.1//EN"
 "http://www.w3.org/Graphics/SVG/1.1/DTD/svg11.dtd">
<!-- Generated by graphviz version 2.40.1 (20161225.0304)
 -->
<!-- Title: Rsquared Pages: 1 -->
<svg width="2154pt" height="452pt"
 viewBox="0.00 0.00 2153.90 451.86" xmlns="http://www.w3.org/2000/svg" xmlns:xlink="http://www.w3.org/1999/xlink">
<g id="graph0" class="graph" transform="scale(1 1) rotate(0) translate(4 447.86)">
<title>Rsquared</title>
<polygon fill="#ffffff" stroke="transparent" points="-4,4 -4,-447.86 2149.9031,-447.86 2149.9031,4 -4,4"/>
<g id="clust1" class="cluster">
<title>cluster2</title>
<path fill="none" stroke="#000000" d="M20,-232.9066C20,-232.9066 352,-232.9066 352,-232.9066 358,-232.9066 364,-238.9066 364,-244.9066 364,-244.9066 364,-423.86 364,-423.86 364,-429.86 358,-435.86 352,-435.86 352,-435.86 20,-435.86 20,-435.86 14,-435.86 8,-429.86 8,-423.86 8,-423.86 8,-244.9066 8,-244.9066 8,-238.9066 14,-232.9066 20,-232.9066"/>
<text text-anchor="middle" x="352.5" y="-240.7066" font-family="Times,serif" font-size="14.00" fill="#000000">2</text>
</g>
<g id="clust2" class="cluster">
<title>cluster11</title>
<path fill="none" stroke="#000000" d="M557,-232.9066C557,-232.9066 889,-232.9066 889,-232.9066 895,-232.9066 901,-238.9066 901,-244.9066 901,-244.9066 901,-423.86 901,-423.86 901,-429.86 895,-435.86 889,-435.86 889,-435.86 557,-435.86 557,-435.86 551,-435.86 545,-429.86 545,-423.86 545,-423.86 545,-244.9066 545,-244.9066 545,-238.9066 551,-232.9066 557,-232.9066"/>
<text text-anchor="middle" x="886" y="-240.7066" font-family="Times,serif" font-size="14.00" fill="#000000">11</text>
</g>
<g id="clust3" class="cluster">
<title>cluster139</title>
<path fill="none" stroke="#000000" d="M1095,-232.9066C1095,-232.9066 1427,-232.9066 1427,-232.9066 1433,-232.9066 1439,-238.9066 1439,-244.9066 1439,-244.9066 1439,-423.86 1439,-423.86 1439,-429.86 1433,-435.86 1427,-435.86 1427,-435.86 1095,-435.86 1095,-435.86 1089,-435.86 1083,-429.86 1083,-423.86 1083,-423.86 1083,-244.9066 1083,-244.9066 1083,-238.9066 1089,-232.9066 1095,-232.9066"/>
<text text-anchor="middle" x="1420.5" y="-240.7066" font-family="Times,serif" font-size="14.00" fill="#000000">139</text>
</g>
<g id="clust4" class="cluster">
<title>cluster278</title>
<path fill="none" stroke="#000000" d="M1000,-8C1000,-8 1106,-8 1106,-8 1112,-8 1118,-14 1118,-20 1118,-20 1118,-209.93 1118,-209.93 1118,-215.93 1112,-221.93 1106,-221.93 1106,-221.93 1000,-221.93 1000,-221.93 994,-221.93 988,-215.93 988,-209.93 988,-209.93 988,-20 988,-20 988,-14 994,-8 1000,-8"/>
<text text-anchor="middle" x="1099.5" y="-15.8" font-family="Times,serif" font-size="14.00" fill="#000000">278</text>
</g>
<!-- Rsquared_b0_dist -->
<g id="node1" class="node">
<title>Rsquared_b0_dist</title>
<ellipse fill="none" stroke="#000000" cx="1708" cy="-390.3833" rx="80.7205" ry="37.4533"/>
<text text-anchor="middle" x="1708" y="-401.6833" font-family="Times,serif" font-size="14.00" fill="#000000">Rsquared_b0_dist</text>
<text text-anchor="middle" x="1708" y="-386.6833" font-family="Times,serif" font-size="14.00" fill="#000000">~</text>
<text text-anchor="middle" x="1708" y="-371.6833" font-family="Times,serif" font-size="14.00" fill="#000000">Normal</text>
</g>
<!-- Rsquared_b0 -->
<g id="node8" class="node">
<title>Rsquared_b0</title>
<polygon fill="none" stroke="#000000" points="1842.5,-316.9066 1751.5,-316.9066 1751.5,-263.9066 1842.5,-263.9066 1842.5,-316.9066"/>
<text text-anchor="middle" x="1797" y="-301.7066" font-family="Times,serif" font-size="14.00" fill="#000000">Rsquared_b0</text>
<text text-anchor="middle" x="1797" y="-286.7066" font-family="Times,serif" font-size="14.00" fill="#000000">~</text>
<text text-anchor="middle" x="1797" y="-271.7066" font-family="Times,serif" font-size="14.00" fill="#000000">Deterministic</text>
</g>
<!-- Rsquared_b0_dist&#45;&gt;Rsquared_b0 -->
<g id="edge1" class="edge">
<title>Rsquared_b0_dist&#45;&gt;Rsquared_b0</title>
<path fill="none" stroke="#000000" d="M1738.8781,-355.6969C1747.752,-345.7286 1757.4256,-334.8618 1766.2894,-324.9049"/>
<polygon fill="#000000" stroke="#000000" points="1769.1586,-326.9457 1773.1935,-317.1493 1763.9301,-322.2913 1769.1586,-326.9457"/>
</g>
<!-- Rsquared_b2_dist -->
<g id="node2" class="node">
<title>Rsquared_b2_dist</title>
<ellipse fill="none" stroke="#000000" cx="992" cy="-390.3833" rx="80.7205" ry="37.4533"/>
<text text-anchor="middle" x="992" y="-401.6833" font-family="Times,serif" font-size="14.00" fill="#000000">Rsquared_b2_dist</text>
<text text-anchor="middle" x="992" y="-386.6833" font-family="Times,serif" font-size="14.00" fill="#000000">~</text>
<text text-anchor="middle" x="992" y="-371.6833" font-family="Times,serif" font-size="14.00" fill="#000000">Normal</text>
</g>
<!-- Rsquared_b2 -->
<g id="node13" class="node">
<title>Rsquared_b2</title>
<polygon fill="none" stroke="#000000" points="875.5,-316.9066 784.5,-316.9066 784.5,-263.9066 875.5,-263.9066 875.5,-316.9066"/>
<text text-anchor="middle" x="830" y="-301.7066" font-family="Times,serif" font-size="14.00" fill="#000000">Rsquared_b2</text>
<text text-anchor="middle" x="830" y="-286.7066" font-family="Times,serif" font-size="14.00" fill="#000000">~</text>
<text text-anchor="middle" x="830" y="-271.7066" font-family="Times,serif" font-size="14.00" fill="#000000">Deterministic</text>
</g>
<!-- Rsquared_b2_dist&#45;&gt;Rsquared_b2 -->
<g id="edge9" class="edge">
<title>Rsquared_b2_dist&#45;&gt;Rsquared_b2</title>
<path fill="none" stroke="#000000" d="M943.3947,-360.387C923.9102,-348.3623 901.4314,-334.4898 881.6524,-322.2834"/>
<polygon fill="#000000" stroke="#000000" points="883.4154,-319.2586 873.0674,-316.9852 879.7391,-325.2156 883.4154,-319.2586"/>
</g>
<!-- Rsquared_sigma0 -->
<g id="node3" class="node">
<title>Rsquared_sigma0</title>
<ellipse fill="none" stroke="#000000" cx="1887" cy="-390.3833" rx="80.7205" ry="37.4533"/>
<text text-anchor="middle" x="1887" y="-401.6833" font-family="Times,serif" font-size="14.00" fill="#000000">Rsquared_sigma0</text>
<text text-anchor="middle" x="1887" y="-386.6833" font-family="Times,serif" font-size="14.00" fill="#000000">~</text>
<text text-anchor="middle" x="1887" y="-371.6833" font-family="Times,serif" font-size="14.00" fill="#000000">HalfNormal</text>
</g>
<!-- Rsquared_sigma0&#45;&gt;Rsquared_b0 -->
<g id="edge2" class="edge">
<title>Rsquared_sigma0&#45;&gt;Rsquared_b0</title>
<path fill="none" stroke="#000000" d="M1855.7749,-355.6969C1846.7125,-345.6299 1836.8252,-334.6466 1827.7897,-324.6094"/>
<polygon fill="#000000" stroke="#000000" points="1830.3658,-322.2398 1821.074,-317.1493 1825.1633,-326.9232 1830.3658,-322.2398"/>
</g>
<!-- Rsquared_b3_dist -->
<g id="node4" class="node">
<title>Rsquared_b3_dist</title>
<ellipse fill="none" stroke="#000000" cx="1529" cy="-390.3833" rx="80.7205" ry="37.4533"/>
<text text-anchor="middle" x="1529" y="-401.6833" font-family="Times,serif" font-size="14.00" fill="#000000">Rsquared_b3_dist</text>
<text text-anchor="middle" x="1529" y="-386.6833" font-family="Times,serif" font-size="14.00" fill="#000000">~</text>
<text text-anchor="middle" x="1529" y="-371.6833" font-family="Times,serif" font-size="14.00" fill="#000000">Normal</text>
</g>
<!-- Rsquared_b3 -->
<g id="node18" class="node">
<title>Rsquared_b3</title>
<polygon fill="none" stroke="#000000" points="1305.5,-316.9066 1214.5,-316.9066 1214.5,-263.9066 1305.5,-263.9066 1305.5,-316.9066"/>
<text text-anchor="middle" x="1260" y="-301.7066" font-family="Times,serif" font-size="14.00" fill="#000000">Rsquared_b3</text>
<text text-anchor="middle" x="1260" y="-286.7066" font-family="Times,serif" font-size="14.00" fill="#000000">~</text>
<text text-anchor="middle" x="1260" y="-271.7066" font-family="Times,serif" font-size="14.00" fill="#000000">Deterministic</text>
</g>
<!-- Rsquared_b3_dist&#45;&gt;Rsquared_b3 -->
<g id="edge10" class="edge">
<title>Rsquared_b3_dist&#45;&gt;Rsquared_b3</title>
<path fill="none" stroke="#000000" d="M1470.9793,-364.3323C1461.6747,-360.3768 1452.1106,-356.4407 1443,-352.9066 1400.7996,-336.5369 1352.2912,-320.0742 1315.8241,-308.1568"/>
<polygon fill="#000000" stroke="#000000" points="1316.4653,-304.685 1305.8731,-304.9199 1314.3,-311.3416 1316.4653,-304.685"/>
</g>
<!-- Rsquared_sigmaY -->
<g id="node5" class="node">
<title>Rsquared_sigmaY</title>
<ellipse fill="none" stroke="#000000" cx="1209" cy="-187.43" rx="82.9636" ry="37.4533"/>
<text text-anchor="middle" x="1209" y="-198.73" font-family="Times,serif" font-size="14.00" fill="#000000">Rsquared_sigmaY</text>
<text text-anchor="middle" x="1209" y="-183.73" font-family="Times,serif" font-size="14.00" fill="#000000">~</text>
<text text-anchor="middle" x="1209" y="-168.73" font-family="Times,serif" font-size="14.00" fill="#000000">Gamma</text>
</g>
<!-- Rsquared_y -->
<g id="node20" class="node">
<title>Rsquared_y</title>
<ellipse fill="#d3d3d3" stroke="#000000" cx="1053" cy="-76.4767" rx="57.0522" ry="37.4533"/>
<text text-anchor="middle" x="1053" y="-87.7767" font-family="Times,serif" font-size="14.00" fill="#000000">Rsquared_y</text>
<text text-anchor="middle" x="1053" y="-72.7767" font-family="Times,serif" font-size="14.00" fill="#000000">~</text>
<text text-anchor="middle" x="1053" y="-57.7767" font-family="Times,serif" font-size="14.00" fill="#000000">StudentT</text>
</g>
<!-- Rsquared_sigmaY&#45;&gt;Rsquared_y -->
<g id="edge18" class="edge">
<title>Rsquared_sigmaY&#45;&gt;Rsquared_y</title>
<path fill="none" stroke="#000000" d="M1164.2967,-155.6352C1144.1971,-141.3396 1120.4662,-124.4613 1100.0918,-109.9702"/>
<polygon fill="#000000" stroke="#000000" points="1102.0575,-107.0733 1091.8798,-104.1295 1098.0003,-112.7777 1102.0575,-107.0733"/>
</g>
<!-- Rsquared_b1_dist -->
<g id="node6" class="node">
<title>Rsquared_b1_dist</title>
<ellipse fill="none" stroke="#000000" cx="455" cy="-390.3833" rx="80.7205" ry="37.4533"/>
<text text-anchor="middle" x="455" y="-401.6833" font-family="Times,serif" font-size="14.00" fill="#000000">Rsquared_b1_dist</text>
<text text-anchor="middle" x="455" y="-386.6833" font-family="Times,serif" font-size="14.00" fill="#000000">~</text>
<text text-anchor="middle" x="455" y="-371.6833" font-family="Times,serif" font-size="14.00" fill="#000000">Normal</text>
</g>
<!-- Rsquared_b1 -->
<g id="node12" class="node">
<title>Rsquared_b1</title>
<polygon fill="none" stroke="#000000" points="338.5,-316.9066 247.5,-316.9066 247.5,-263.9066 338.5,-263.9066 338.5,-316.9066"/>
<text text-anchor="middle" x="293" y="-301.7066" font-family="Times,serif" font-size="14.00" fill="#000000">Rsquared_b1</text>
<text text-anchor="middle" x="293" y="-286.7066" font-family="Times,serif" font-size="14.00" fill="#000000">~</text>
<text text-anchor="middle" x="293" y="-271.7066" font-family="Times,serif" font-size="14.00" fill="#000000">Deterministic</text>
</g>
<!-- Rsquared_b1_dist&#45;&gt;Rsquared_b1 -->
<g id="edge4" class="edge">
<title>Rsquared_b1_dist&#45;&gt;Rsquared_b1</title>
<path fill="none" stroke="#000000" d="M406.3947,-360.387C386.9102,-348.3623 364.4314,-334.4898 344.6524,-322.2834"/>
<polygon fill="#000000" stroke="#000000" points="346.4154,-319.2586 336.0674,-316.9852 342.7391,-325.2156 346.4154,-319.2586"/>
</g>
<!-- Rsquared_nuY -->
<g id="node7" class="node">
<title>Rsquared_nuY</title>
<ellipse fill="none" stroke="#000000" cx="1379" cy="-187.43" rx="69.0935" ry="37.4533"/>
<text text-anchor="middle" x="1379" y="-198.73" font-family="Times,serif" font-size="14.00" fill="#000000">Rsquared_nuY</text>
<text text-anchor="middle" x="1379" y="-183.73" font-family="Times,serif" font-size="14.00" fill="#000000">~</text>
<text text-anchor="middle" x="1379" y="-168.73" font-family="Times,serif" font-size="14.00" fill="#000000">Exponential</text>
</g>
<!-- Rsquared_nuY&#45;&gt;Rsquared_y -->
<g id="edge17" class="edge">
<title>Rsquared_nuY&#45;&gt;Rsquared_y</title>
<path fill="none" stroke="#000000" d="M1328.3269,-161.6457C1319.3322,-157.4838 1309.9715,-153.4121 1301,-149.9533 1239.7219,-126.3288 1167.5188,-105.7165 1116.8727,-92.3851"/>
<polygon fill="#000000" stroke="#000000" points="1117.6005,-88.9578 1107.0406,-89.8171 1115.8315,-95.7306 1117.6005,-88.9578"/>
</g>
<!-- Rsquared_mu -->
<g id="node19" class="node">
<title>Rsquared_mu</title>
<polygon fill="none" stroke="#000000" points="1099,-213.93 1007,-213.93 1007,-160.93 1099,-160.93 1099,-213.93"/>
<text text-anchor="middle" x="1053" y="-198.73" font-family="Times,serif" font-size="14.00" fill="#000000">Rsquared_mu</text>
<text text-anchor="middle" x="1053" y="-183.73" font-family="Times,serif" font-size="14.00" fill="#000000">~</text>
<text text-anchor="middle" x="1053" y="-168.73" font-family="Times,serif" font-size="14.00" fill="#000000">Deterministic</text>
</g>
<!-- Rsquared_b0&#45;&gt;Rsquared_mu -->
<g id="edge15" class="edge">
<title>Rsquared_b0&#45;&gt;Rsquared_mu</title>
<path fill="none" stroke="#000000" d="M1751.4313,-280.9578C1684.2704,-267.4988 1554.5928,-243.2899 1443,-232.9066 1406.9227,-229.5498 1151.8505,-234.8202 1117,-224.9066 1111.3669,-223.3043 1105.7152,-221.0882 1100.2293,-218.5272"/>
<polygon fill="#000000" stroke="#000000" points="1101.6875,-215.3423 1091.186,-213.9388 1098.5202,-221.5848 1101.6875,-215.3423"/>
</g>
<!-- Rsquared_mu_b0 -->
<g id="node9" class="node">
<title>Rsquared_mu_b0</title>
<ellipse fill="none" stroke="#000000" cx="2066" cy="-390.3833" rx="79.8063" ry="37.4533"/>
<text text-anchor="middle" x="2066" y="-401.6833" font-family="Times,serif" font-size="14.00" fill="#000000">Rsquared_mu_b0</text>
<text text-anchor="middle" x="2066" y="-386.6833" font-family="Times,serif" font-size="14.00" fill="#000000">~</text>
<text text-anchor="middle" x="2066" y="-371.6833" font-family="Times,serif" font-size="14.00" fill="#000000">Normal</text>
</g>
<!-- Rsquared_mu_b0&#45;&gt;Rsquared_b0 -->
<g id="edge3" class="edge">
<title>Rsquared_mu_b0&#45;&gt;Rsquared_b0</title>
<path fill="none" stroke="#000000" d="M2006.8519,-364.8517C1996.9289,-360.7485 1986.7047,-356.6303 1977,-352.9066 1935.6422,-337.0377 1888.3003,-320.6692 1852.551,-308.6658"/>
<polygon fill="#000000" stroke="#000000" points="1853.3837,-305.2538 1842.7899,-305.4001 1851.1627,-311.8921 1853.3837,-305.2538"/>
</g>
<!-- Rsquared_mu_b1 -->
<g id="node10" class="node">
<title>Rsquared_mu_b1</title>
<ellipse fill="none" stroke="#000000" cx="276" cy="-390.3833" rx="79.8062" ry="37.4533"/>
<text text-anchor="middle" x="276" y="-401.6833" font-family="Times,serif" font-size="14.00" fill="#000000">Rsquared_mu_b1</text>
<text text-anchor="middle" x="276" y="-386.6833" font-family="Times,serif" font-size="14.00" fill="#000000">~</text>
<text text-anchor="middle" x="276" y="-371.6833" font-family="Times,serif" font-size="14.00" fill="#000000">Normal</text>
</g>
<!-- Rsquared_mu_b1&#45;&gt;Rsquared_b1 -->
<g id="edge5" class="edge">
<title>Rsquared_mu_b1&#45;&gt;Rsquared_b1</title>
<path fill="none" stroke="#000000" d="M282.3785,-352.8712C283.8119,-344.4415 285.3313,-335.506 286.759,-327.1097"/>
<polygon fill="#000000" stroke="#000000" points="290.2171,-327.651 288.4431,-317.2057 283.3162,-326.4775 290.2171,-327.651"/>
</g>
<!-- Rsquared_sigma1 -->
<g id="node11" class="node">
<title>Rsquared_sigma1</title>
<ellipse fill="none" stroke="#000000" cx="97" cy="-390.3833" rx="80.7205" ry="37.4533"/>
<text text-anchor="middle" x="97" y="-401.6833" font-family="Times,serif" font-size="14.00" fill="#000000">Rsquared_sigma1</text>
<text text-anchor="middle" x="97" y="-386.6833" font-family="Times,serif" font-size="14.00" fill="#000000">~</text>
<text text-anchor="middle" x="97" y="-371.6833" font-family="Times,serif" font-size="14.00" fill="#000000">HalfNormal</text>
</g>
<!-- Rsquared_sigma1&#45;&gt;Rsquared_b1 -->
<g id="edge6" class="edge">
<title>Rsquared_sigma1&#45;&gt;Rsquared_b1</title>
<path fill="none" stroke="#000000" d="M151.3366,-362.667C178.4115,-348.8565 211.0754,-332.1951 238.212,-318.3532"/>
<polygon fill="#000000" stroke="#000000" points="239.8692,-321.437 247.1869,-313.7752 236.6884,-315.2013 239.8692,-321.437"/>
</g>
<!-- Rsquared_b1&#45;&gt;Rsquared_mu -->
<g id="edge13" class="edge">
<title>Rsquared_b1&#45;&gt;Rsquared_mu</title>
<path fill="none" stroke="#000000" d="M338.7866,-277.7697C388.2711,-264.5885 469.6393,-244.2917 541,-232.9066 705.3592,-206.6843 901.9918,-194.5323 996.6334,-189.867"/>
<polygon fill="#000000" stroke="#000000" points="997.0206,-193.3525 1006.8399,-189.3736 996.6825,-186.3607 997.0206,-193.3525"/>
</g>
<!-- Rsquared_b2&#45;&gt;Rsquared_mu -->
<g id="edge14" class="edge">
<title>Rsquared_b2&#45;&gt;Rsquared_mu</title>
<path fill="none" stroke="#000000" d="M875.6655,-269.3193C910.9065,-253.0458 959.8174,-230.4597 997.348,-213.1289"/>
<polygon fill="#000000" stroke="#000000" points="999.0178,-216.213 1006.6292,-208.843 996.0831,-209.8579 999.0178,-216.213"/>
</g>
<!-- Rsquared_mu_b2 -->
<g id="node14" class="node">
<title>Rsquared_mu_b2</title>
<ellipse fill="none" stroke="#000000" cx="813" cy="-390.3833" rx="79.8062" ry="37.4533"/>
<text text-anchor="middle" x="813" y="-401.6833" font-family="Times,serif" font-size="14.00" fill="#000000">Rsquared_mu_b2</text>
<text text-anchor="middle" x="813" y="-386.6833" font-family="Times,serif" font-size="14.00" fill="#000000">~</text>
<text text-anchor="middle" x="813" y="-371.6833" font-family="Times,serif" font-size="14.00" fill="#000000">Normal</text>
</g>
<!-- Rsquared_mu_b2&#45;&gt;Rsquared_b2 -->
<g id="edge7" class="edge">
<title>Rsquared_mu_b2&#45;&gt;Rsquared_b2</title>
<path fill="none" stroke="#000000" d="M819.3785,-352.8712C820.8119,-344.4415 822.3313,-335.506 823.759,-327.1097"/>
<polygon fill="#000000" stroke="#000000" points="827.2171,-327.651 825.4431,-317.2057 820.3162,-326.4775 827.2171,-327.651"/>
</g>
<!-- Rsquared_sigma2 -->
<g id="node15" class="node">
<title>Rsquared_sigma2</title>
<ellipse fill="none" stroke="#000000" cx="634" cy="-390.3833" rx="80.7205" ry="37.4533"/>
<text text-anchor="middle" x="634" y="-401.6833" font-family="Times,serif" font-size="14.00" fill="#000000">Rsquared_sigma2</text>
<text text-anchor="middle" x="634" y="-386.6833" font-family="Times,serif" font-size="14.00" fill="#000000">~</text>
<text text-anchor="middle" x="634" y="-371.6833" font-family="Times,serif" font-size="14.00" fill="#000000">HalfNormal</text>
</g>
<!-- Rsquared_sigma2&#45;&gt;Rsquared_b2 -->
<g id="edge8" class="edge">
<title>Rsquared_sigma2&#45;&gt;Rsquared_b2</title>
<path fill="none" stroke="#000000" d="M688.3366,-362.667C715.4115,-348.8565 748.0754,-332.1951 775.212,-318.3532"/>
<polygon fill="#000000" stroke="#000000" points="776.8692,-321.437 784.1869,-313.7752 773.6884,-315.2013 776.8692,-321.437"/>
</g>
<!-- Rsquared_sigma3 -->
<g id="node16" class="node">
<title>Rsquared_sigma3</title>
<ellipse fill="none" stroke="#000000" cx="1350" cy="-390.3833" rx="80.7205" ry="37.4533"/>
<text text-anchor="middle" x="1350" y="-401.6833" font-family="Times,serif" font-size="14.00" fill="#000000">Rsquared_sigma3</text>
<text text-anchor="middle" x="1350" y="-386.6833" font-family="Times,serif" font-size="14.00" fill="#000000">~</text>
<text text-anchor="middle" x="1350" y="-371.6833" font-family="Times,serif" font-size="14.00" fill="#000000">HalfNormal</text>
</g>
<!-- Rsquared_sigma3&#45;&gt;Rsquared_b3 -->
<g id="edge11" class="edge">
<title>Rsquared_sigma3&#45;&gt;Rsquared_b3</title>
<path fill="none" stroke="#000000" d="M1318.7749,-355.6969C1309.7125,-345.6299 1299.8252,-334.6466 1290.7897,-324.6094"/>
<polygon fill="#000000" stroke="#000000" points="1293.3658,-322.2398 1284.074,-317.1493 1288.1633,-326.9232 1293.3658,-322.2398"/>
</g>
<!-- Rsquared_mu_b3 -->
<g id="node17" class="node">
<title>Rsquared_mu_b3</title>
<ellipse fill="none" stroke="#000000" cx="1171" cy="-390.3833" rx="79.8063" ry="37.4533"/>
<text text-anchor="middle" x="1171" y="-401.6833" font-family="Times,serif" font-size="14.00" fill="#000000">Rsquared_mu_b3</text>
<text text-anchor="middle" x="1171" y="-386.6833" font-family="Times,serif" font-size="14.00" fill="#000000">~</text>
<text text-anchor="middle" x="1171" y="-371.6833" font-family="Times,serif" font-size="14.00" fill="#000000">Normal</text>
</g>
<!-- Rsquared_mu_b3&#45;&gt;Rsquared_b3 -->
<g id="edge12" class="edge">
<title>Rsquared_mu_b3&#45;&gt;Rsquared_b3</title>
<path fill="none" stroke="#000000" d="M1201.8781,-355.6969C1210.752,-345.7286 1220.4256,-334.8618 1229.2894,-324.9049"/>
<polygon fill="#000000" stroke="#000000" points="1232.1586,-326.9457 1236.1935,-317.1493 1226.9301,-322.2913 1232.1586,-326.9457"/>
</g>
<!-- Rsquared_b3&#45;&gt;Rsquared_mu -->
<g id="edge16" class="edge">
<title>Rsquared_b3&#45;&gt;Rsquared_mu</title>
<path fill="none" stroke="#000000" d="M1214.3583,-270.8986C1185.9978,-258.4344 1148.9778,-241.5397 1117,-224.9066 1113.3375,-223.0016 1109.5885,-220.9859 1105.8321,-218.9171"/>
<polygon fill="#000000" stroke="#000000" points="1107.526,-215.8543 1097.091,-214.0208 1104.105,-221.9614 1107.526,-215.8543"/>
</g>
<!-- Rsquared_mu&#45;&gt;Rsquared_y -->
<g id="edge19" class="edge">
<title>Rsquared_mu&#45;&gt;Rsquared_y</title>
<path fill="none" stroke="#000000" d="M1053,-160.8539C1053,-149.9351 1053,-136.944 1053,-124.4675"/>
<polygon fill="#000000" stroke="#000000" points="1056.5001,-124.1649 1053,-114.165 1049.5001,-124.165 1056.5001,-124.1649"/>
</g>
</g>
</svg>
