<?xml version="1.0" encoding="UTF-8" standalone="no"?>
<!DOCTYPE svg PUBLIC "-//W3C//DTD SVG 1.1//EN"
 "http://www.w3.org/Graphics/SVG/1.1/DTD/svg11.dtd">
<!-- Generated by graphviz version 2.40.1 (20161225.0304)
 -->
<!-- Title: Asfc Pages: 1 -->
<svg width="1703pt" height="452pt"
 viewBox="0.00 0.00 1702.87 451.86" xmlns="http://www.w3.org/2000/svg" xmlns:xlink="http://www.w3.org/1999/xlink">
<g id="graph0" class="graph" transform="scale(1 1) rotate(0) translate(4 447.86)">
<title>Asfc</title>
<polygon fill="#ffffff" stroke="transparent" points="-4,4 -4,-447.86 1698.865,-447.86 1698.865,4 -4,4"/>
<g id="clust1" class="cluster">
<title>cluster2</title>
<path fill="none" stroke="#000000" d="M147.9325,-232.9066C147.9325,-232.9066 406.9325,-232.9066 406.9325,-232.9066 412.9325,-232.9066 418.9325,-238.9066 418.9325,-244.9066 418.9325,-244.9066 418.9325,-423.86 418.9325,-423.86 418.9325,-429.86 412.9325,-435.86 406.9325,-435.86 406.9325,-435.86 147.9325,-435.86 147.9325,-435.86 141.9325,-435.86 135.9325,-429.86 135.9325,-423.86 135.9325,-423.86 135.9325,-244.9066 135.9325,-244.9066 135.9325,-238.9066 141.9325,-232.9066 147.9325,-232.9066"/>
<text text-anchor="middle" x="407.4325" y="-240.7066" font-family="Times,serif" font-size="14.00" fill="#000000">2</text>
</g>
<g id="clust2" class="cluster">
<title>cluster11</title>
<path fill="none" stroke="#000000" d="M860.9325,-232.9066C860.9325,-232.9066 1119.9325,-232.9066 1119.9325,-232.9066 1125.9325,-232.9066 1131.9325,-238.9066 1131.9325,-244.9066 1131.9325,-244.9066 1131.9325,-423.86 1131.9325,-423.86 1131.9325,-429.86 1125.9325,-435.86 1119.9325,-435.86 1119.9325,-435.86 860.9325,-435.86 860.9325,-435.86 854.9325,-435.86 848.9325,-429.86 848.9325,-423.86 848.9325,-423.86 848.9325,-244.9066 848.9325,-244.9066 848.9325,-238.9066 854.9325,-232.9066 860.9325,-232.9066"/>
<text text-anchor="middle" x="1116.9325" y="-240.7066" font-family="Times,serif" font-size="14.00" fill="#000000">11</text>
</g>
<g id="clust3" class="cluster">
<title>cluster139</title>
<path fill="none" stroke="#000000" d="M1288.9325,-232.9066C1288.9325,-232.9066 1547.9325,-232.9066 1547.9325,-232.9066 1553.9325,-232.9066 1559.9325,-238.9066 1559.9325,-244.9066 1559.9325,-244.9066 1559.9325,-423.86 1559.9325,-423.86 1559.9325,-429.86 1553.9325,-435.86 1547.9325,-435.86 1547.9325,-435.86 1288.9325,-435.86 1288.9325,-435.86 1282.9325,-435.86 1276.9325,-429.86 1276.9325,-423.86 1276.9325,-423.86 1276.9325,-244.9066 1276.9325,-244.9066 1276.9325,-238.9066 1282.9325,-232.9066 1288.9325,-232.9066"/>
<text text-anchor="middle" x="1541.4325" y="-240.7066" font-family="Times,serif" font-size="14.00" fill="#000000">139</text>
</g>
<g id="clust4" class="cluster">
<title>cluster278</title>
<path fill="none" stroke="#000000" d="M839.9325,-8C839.9325,-8 925.9325,-8 925.9325,-8 931.9325,-8 937.9325,-14 937.9325,-20 937.9325,-20 937.9325,-209.93 937.9325,-209.93 937.9325,-215.93 931.9325,-221.93 925.9325,-221.93 925.9325,-221.93 839.9325,-221.93 839.9325,-221.93 833.9325,-221.93 827.9325,-215.93 827.9325,-209.93 827.9325,-209.93 827.9325,-20 827.9325,-20 827.9325,-14 833.9325,-8 839.9325,-8"/>
<text text-anchor="middle" x="919.4325" y="-15.8" font-family="Times,serif" font-size="14.00" fill="#000000">278</text>
</g>
<!-- Asfc_b1_dist -->
<g id="node1" class="node">
<title>Asfc_b1_dist</title>
<ellipse fill="none" stroke="#000000" cx="62.9325" cy="-390.3833" rx="62.8651" ry="37.4533"/>
<text text-anchor="middle" x="62.9325" y="-401.6833" font-family="Times,serif" font-size="14.00" fill="#000000">Asfc_b1_dist</text>
<text text-anchor="middle" x="62.9325" y="-386.6833" font-family="Times,serif" font-size="14.00" fill="#000000">~</text>
<text text-anchor="middle" x="62.9325" y="-371.6833" font-family="Times,serif" font-size="14.00" fill="#000000">Normal</text>
</g>
<!-- Asfc_b1 -->
<g id="node11" class="node">
<title>Asfc_b1</title>
<polygon fill="none" stroke="#000000" points="323.4325,-316.9066 232.4325,-316.9066 232.4325,-263.9066 323.4325,-263.9066 323.4325,-316.9066"/>
<text text-anchor="middle" x="277.9325" y="-301.7066" font-family="Times,serif" font-size="14.00" fill="#000000">Asfc_b1</text>
<text text-anchor="middle" x="277.9325" y="-286.7066" font-family="Times,serif" font-size="14.00" fill="#000000">~</text>
<text text-anchor="middle" x="277.9325" y="-271.7066" font-family="Times,serif" font-size="14.00" fill="#000000">Deterministic</text>
</g>
<!-- Asfc_b1_dist&#45;&gt;Asfc_b1 -->
<g id="edge5" class="edge">
<title>Asfc_b1_dist&#45;&gt;Asfc_b1</title>
<path fill="none" stroke="#000000" d="M109.0194,-364.5853C116.6134,-360.5564 124.4485,-356.5313 131.9325,-352.9066 161.5665,-338.5545 195.3236,-323.992 222.9085,-312.5385"/>
<polygon fill="#000000" stroke="#000000" points="224.4845,-315.6745 232.3913,-308.6224 221.8125,-309.2045 224.4845,-315.6745"/>
</g>
<!-- Asfc_b2_dist -->
<g id="node2" class="node">
<title>Asfc_b2_dist</title>
<ellipse fill="none" stroke="#000000" cx="1203.9325" cy="-390.3833" rx="62.8651" ry="37.4533"/>
<text text-anchor="middle" x="1203.9325" y="-401.6833" font-family="Times,serif" font-size="14.00" fill="#000000">Asfc_b2_dist</text>
<text text-anchor="middle" x="1203.9325" y="-386.6833" font-family="Times,serif" font-size="14.00" fill="#000000">~</text>
<text text-anchor="middle" x="1203.9325" y="-371.6833" font-family="Times,serif" font-size="14.00" fill="#000000">Normal</text>
</g>
<!-- Asfc_b2 -->
<g id="node13" class="node">
<title>Asfc_b2</title>
<polygon fill="none" stroke="#000000" points="1036.4325,-316.9066 945.4325,-316.9066 945.4325,-263.9066 1036.4325,-263.9066 1036.4325,-316.9066"/>
<text text-anchor="middle" x="990.9325" y="-301.7066" font-family="Times,serif" font-size="14.00" fill="#000000">Asfc_b2</text>
<text text-anchor="middle" x="990.9325" y="-286.7066" font-family="Times,serif" font-size="14.00" fill="#000000">~</text>
<text text-anchor="middle" x="990.9325" y="-271.7066" font-family="Times,serif" font-size="14.00" fill="#000000">Deterministic</text>
</g>
<!-- Asfc_b2_dist&#45;&gt;Asfc_b2 -->
<g id="edge9" class="edge">
<title>Asfc_b2_dist&#45;&gt;Asfc_b2</title>
<path fill="none" stroke="#000000" d="M1158.1613,-364.3724C1150.7905,-360.4116 1143.1963,-356.4634 1135.9325,-352.9066 1106.642,-338.5643 1073.2591,-324.054 1045.9137,-312.6296"/>
<polygon fill="#000000" stroke="#000000" points="1047.0873,-309.3271 1036.5097,-308.7226 1044.4016,-315.7915 1047.0873,-309.3271"/>
</g>
<!-- Asfc_b0 -->
<g id="node3" class="node">
<title>Asfc_b0</title>
<polygon fill="none" stroke="#000000" points="749.4325,-316.9066 658.4325,-316.9066 658.4325,-263.9066 749.4325,-263.9066 749.4325,-316.9066"/>
<text text-anchor="middle" x="703.9325" y="-301.7066" font-family="Times,serif" font-size="14.00" fill="#000000">Asfc_b0</text>
<text text-anchor="middle" x="703.9325" y="-286.7066" font-family="Times,serif" font-size="14.00" fill="#000000">~</text>
<text text-anchor="middle" x="703.9325" y="-271.7066" font-family="Times,serif" font-size="14.00" fill="#000000">Deterministic</text>
</g>
<!-- Asfc_mu -->
<g id="node19" class="node">
<title>Asfc_mu</title>
<polygon fill="none" stroke="#000000" points="928.4325,-213.93 837.4325,-213.93 837.4325,-160.93 928.4325,-160.93 928.4325,-213.93"/>
<text text-anchor="middle" x="882.9325" y="-198.73" font-family="Times,serif" font-size="14.00" fill="#000000">Asfc_mu</text>
<text text-anchor="middle" x="882.9325" y="-183.73" font-family="Times,serif" font-size="14.00" fill="#000000">~</text>
<text text-anchor="middle" x="882.9325" y="-168.73" font-family="Times,serif" font-size="14.00" fill="#000000">Deterministic</text>
</g>
<!-- Asfc_b0&#45;&gt;Asfc_mu -->
<g id="edge14" class="edge">
<title>Asfc_b0&#45;&gt;Asfc_mu</title>
<path fill="none" stroke="#000000" d="M749.5649,-264.1548C773.6555,-250.2958 803.3795,-233.1959 828.648,-218.6592"/>
<polygon fill="#000000" stroke="#000000" points="830.4608,-221.6543 837.3834,-213.6338 826.9701,-215.5867 830.4608,-221.6543"/>
</g>
<!-- Asfc_mu_b0 -->
<g id="node4" class="node">
<title>Asfc_mu_b0</title>
<ellipse fill="none" stroke="#000000" cx="489.9325" cy="-390.3833" rx="61.5366" ry="37.4533"/>
<text text-anchor="middle" x="489.9325" y="-401.6833" font-family="Times,serif" font-size="14.00" fill="#000000">Asfc_mu_b0</text>
<text text-anchor="middle" x="489.9325" y="-386.6833" font-family="Times,serif" font-size="14.00" fill="#000000">~</text>
<text text-anchor="middle" x="489.9325" y="-371.6833" font-family="Times,serif" font-size="14.00" fill="#000000">Normal</text>
</g>
<!-- Asfc_mu_b0&#45;&gt;Asfc_b0 -->
<g id="edge3" class="edge">
<title>Asfc_mu_b0&#45;&gt;Asfc_b0</title>
<path fill="none" stroke="#000000" d="M535.5928,-365.245C543.6445,-361.0112 551.9905,-356.7482 559.9325,-352.9066 589.0114,-338.8412 622.0316,-324.4026 649.1102,-312.9515"/>
<polygon fill="#000000" stroke="#000000" points="650.5652,-316.1365 658.4242,-309.0311 647.8496,-309.6847 650.5652,-316.1365"/>
</g>
<!-- Asfc_b3_dist -->
<g id="node5" class="node">
<title>Asfc_b3_dist</title>
<ellipse fill="none" stroke="#000000" cx="1631.9325" cy="-390.3833" rx="62.8651" ry="37.4533"/>
<text text-anchor="middle" x="1631.9325" y="-401.6833" font-family="Times,serif" font-size="14.00" fill="#000000">Asfc_b3_dist</text>
<text text-anchor="middle" x="1631.9325" y="-386.6833" font-family="Times,serif" font-size="14.00" fill="#000000">~</text>
<text text-anchor="middle" x="1631.9325" y="-371.6833" font-family="Times,serif" font-size="14.00" fill="#000000">Normal</text>
</g>
<!-- Asfc_b3 -->
<g id="node18" class="node">
<title>Asfc_b3</title>
<polygon fill="none" stroke="#000000" points="1464.4325,-316.9066 1373.4325,-316.9066 1373.4325,-263.9066 1464.4325,-263.9066 1464.4325,-316.9066"/>
<text text-anchor="middle" x="1418.9325" y="-301.7066" font-family="Times,serif" font-size="14.00" fill="#000000">Asfc_b3</text>
<text text-anchor="middle" x="1418.9325" y="-286.7066" font-family="Times,serif" font-size="14.00" fill="#000000">~</text>
<text text-anchor="middle" x="1418.9325" y="-271.7066" font-family="Times,serif" font-size="14.00" fill="#000000">Deterministic</text>
</g>
<!-- Asfc_b3_dist&#45;&gt;Asfc_b3 -->
<g id="edge12" class="edge">
<title>Asfc_b3_dist&#45;&gt;Asfc_b3</title>
<path fill="none" stroke="#000000" d="M1586.1613,-364.3724C1578.7905,-360.4116 1571.1963,-356.4634 1563.9325,-352.9066 1534.642,-338.5643 1501.2591,-324.054 1473.9137,-312.6296"/>
<polygon fill="#000000" stroke="#000000" points="1475.0873,-309.3271 1464.5097,-308.7226 1472.4016,-315.7915 1475.0873,-309.3271"/>
</g>
<!-- Asfc_nuY -->
<g id="node6" class="node">
<title>Asfc_nuY</title>
<ellipse fill="none" stroke="#000000" cx="1003.9325" cy="-187.43" rx="57.9655" ry="37.4533"/>
<text text-anchor="middle" x="1003.9325" y="-198.73" font-family="Times,serif" font-size="14.00" fill="#000000">Asfc_nuY</text>
<text text-anchor="middle" x="1003.9325" y="-183.73" font-family="Times,serif" font-size="14.00" fill="#000000">~</text>
<text text-anchor="middle" x="1003.9325" y="-168.73" font-family="Times,serif" font-size="14.00" fill="#000000">Exponential</text>
</g>
<!-- Asfc_y -->
<g id="node20" class="node">
<title>Asfc_y</title>
<ellipse fill="#d3d3d3" stroke="#000000" cx="882.9325" cy="-76.4767" rx="46.8387" ry="37.4533"/>
<text text-anchor="middle" x="882.9325" y="-87.7767" font-family="Times,serif" font-size="14.00" fill="#000000">Asfc_y</text>
<text text-anchor="middle" x="882.9325" y="-72.7767" font-family="Times,serif" font-size="14.00" fill="#000000">~</text>
<text text-anchor="middle" x="882.9325" y="-57.7767" font-family="Times,serif" font-size="14.00" fill="#000000">StudentT</text>
</g>
<!-- Asfc_nuY&#45;&gt;Asfc_y -->
<g id="edge17" class="edge">
<title>Asfc_nuY&#45;&gt;Asfc_y</title>
<path fill="none" stroke="#000000" d="M970.2273,-156.5233C955.0836,-142.637 937.133,-126.1769 921.4594,-111.8046"/>
<polygon fill="#000000" stroke="#000000" points="923.7062,-109.1161 913.9702,-104.9373 918.9752,-114.2755 923.7062,-109.1161"/>
</g>
<!-- Asfc_sigma0 -->
<g id="node7" class="node">
<title>Asfc_sigma0</title>
<ellipse fill="none" stroke="#000000" cx="631.9325" cy="-390.3833" rx="62.8651" ry="37.4533"/>
<text text-anchor="middle" x="631.9325" y="-401.6833" font-family="Times,serif" font-size="14.00" fill="#000000">Asfc_sigma0</text>
<text text-anchor="middle" x="631.9325" y="-386.6833" font-family="Times,serif" font-size="14.00" fill="#000000">~</text>
<text text-anchor="middle" x="631.9325" y="-371.6833" font-family="Times,serif" font-size="14.00" fill="#000000">HalfNormal</text>
</g>
<!-- Asfc_sigma0&#45;&gt;Asfc_b0 -->
<g id="edge1" class="edge">
<title>Asfc_sigma0&#45;&gt;Asfc_b0</title>
<path fill="none" stroke="#000000" d="M656.9125,-355.6969C663.9492,-345.926 671.6076,-335.2919 678.6612,-325.4975"/>
<polygon fill="#000000" stroke="#000000" points="681.6695,-327.3094 684.6733,-317.1493 675.9892,-323.2186 681.6695,-327.3094"/>
</g>
<!-- Asfc_b0_dist -->
<g id="node8" class="node">
<title>Asfc_b0_dist</title>
<ellipse fill="none" stroke="#000000" cx="775.9325" cy="-390.3833" rx="62.8651" ry="37.4533"/>
<text text-anchor="middle" x="775.9325" y="-401.6833" font-family="Times,serif" font-size="14.00" fill="#000000">Asfc_b0_dist</text>
<text text-anchor="middle" x="775.9325" y="-386.6833" font-family="Times,serif" font-size="14.00" fill="#000000">~</text>
<text text-anchor="middle" x="775.9325" y="-371.6833" font-family="Times,serif" font-size="14.00" fill="#000000">Normal</text>
</g>
<!-- Asfc_b0_dist&#45;&gt;Asfc_b0 -->
<g id="edge2" class="edge">
<title>Asfc_b0_dist&#45;&gt;Asfc_b0</title>
<path fill="none" stroke="#000000" d="M750.9525,-355.6969C743.9158,-345.926 736.2574,-335.2919 729.2038,-325.4975"/>
<polygon fill="#000000" stroke="#000000" points="731.8758,-323.2186 723.1917,-317.1493 726.1955,-327.3094 731.8758,-323.2186"/>
</g>
<!-- Asfc_sigmaY -->
<g id="node9" class="node">
<title>Asfc_sigmaY</title>
<ellipse fill="none" stroke="#000000" cx="1144.9325" cy="-187.43" rx="65.1077" ry="37.4533"/>
<text text-anchor="middle" x="1144.9325" y="-198.73" font-family="Times,serif" font-size="14.00" fill="#000000">Asfc_sigmaY</text>
<text text-anchor="middle" x="1144.9325" y="-183.73" font-family="Times,serif" font-size="14.00" fill="#000000">~</text>
<text text-anchor="middle" x="1144.9325" y="-168.73" font-family="Times,serif" font-size="14.00" fill="#000000">Gamma</text>
</g>
<!-- Asfc_sigmaY&#45;&gt;Asfc_y -->
<g id="edge19" class="edge">
<title>Asfc_sigmaY&#45;&gt;Asfc_y</title>
<path fill="none" stroke="#000000" d="M1096.6918,-162.1606C1088.1769,-157.9414 1079.3454,-153.7172 1070.9325,-149.9533 1025.8592,-129.7879 973.4472,-109.5606 935.4309,-95.449"/>
<polygon fill="#000000" stroke="#000000" points="936.1929,-91.9993 925.5997,-91.8168 933.767,-98.5655 936.1929,-91.9993"/>
</g>
<!-- Asfc_mu_b1 -->
<g id="node10" class="node">
<title>Asfc_mu_b1</title>
<ellipse fill="none" stroke="#000000" cx="348.9325" cy="-390.3833" rx="61.5366" ry="37.4533"/>
<text text-anchor="middle" x="348.9325" y="-401.6833" font-family="Times,serif" font-size="14.00" fill="#000000">Asfc_mu_b1</text>
<text text-anchor="middle" x="348.9325" y="-386.6833" font-family="Times,serif" font-size="14.00" fill="#000000">~</text>
<text text-anchor="middle" x="348.9325" y="-371.6833" font-family="Times,serif" font-size="14.00" fill="#000000">Normal</text>
</g>
<!-- Asfc_mu_b1&#45;&gt;Asfc_b1 -->
<g id="edge4" class="edge">
<title>Asfc_mu_b1&#45;&gt;Asfc_b1</title>
<path fill="none" stroke="#000000" d="M324.4983,-355.977C317.4867,-346.1038 309.8352,-335.3296 302.798,-325.4202"/>
<polygon fill="#000000" stroke="#000000" points="305.4471,-323.1057 296.8033,-316.9791 299.7399,-327.1588 305.4471,-323.1057"/>
</g>
<!-- Asfc_b1&#45;&gt;Asfc_mu -->
<g id="edge16" class="edge">
<title>Asfc_b1&#45;&gt;Asfc_mu</title>
<path fill="none" stroke="#000000" d="M323.9024,-282.5821C433.2235,-263.9747 708.4158,-217.1343 827.0651,-196.9391"/>
<polygon fill="#000000" stroke="#000000" points="827.7617,-200.371 837.0326,-195.2426 826.587,-193.4702 827.7617,-200.371"/>
</g>
<!-- Asfc_sigma1 -->
<g id="node12" class="node">
<title>Asfc_sigma1</title>
<ellipse fill="none" stroke="#000000" cx="206.9325" cy="-390.3833" rx="62.8651" ry="37.4533"/>
<text text-anchor="middle" x="206.9325" y="-401.6833" font-family="Times,serif" font-size="14.00" fill="#000000">Asfc_sigma1</text>
<text text-anchor="middle" x="206.9325" y="-386.6833" font-family="Times,serif" font-size="14.00" fill="#000000">~</text>
<text text-anchor="middle" x="206.9325" y="-371.6833" font-family="Times,serif" font-size="14.00" fill="#000000">HalfNormal</text>
</g>
<!-- Asfc_sigma1&#45;&gt;Asfc_b1 -->
<g id="edge6" class="edge">
<title>Asfc_sigma1&#45;&gt;Asfc_b1</title>
<path fill="none" stroke="#000000" d="M231.5656,-355.6969C238.5046,-345.926 246.0566,-335.2919 253.0122,-325.4975"/>
<polygon fill="#000000" stroke="#000000" points="256.0043,-327.329 258.9408,-317.1493 250.297,-323.2759 256.0043,-327.329"/>
</g>
<!-- Asfc_b2&#45;&gt;Asfc_mu -->
<g id="edge15" class="edge">
<title>Asfc_b2&#45;&gt;Asfc_mu</title>
<path fill="none" stroke="#000000" d="M963.1198,-263.8876C949.495,-250.8965 932.9354,-235.1071 918.4103,-221.2576"/>
<polygon fill="#000000" stroke="#000000" points="920.679,-218.5848 911.0263,-214.2171 915.8484,-223.6509 920.679,-218.5848"/>
</g>
<!-- Asfc_mu_b2 -->
<g id="node14" class="node">
<title>Asfc_mu_b2</title>
<ellipse fill="none" stroke="#000000" cx="1061.9325" cy="-390.3833" rx="61.5366" ry="37.4533"/>
<text text-anchor="middle" x="1061.9325" y="-401.6833" font-family="Times,serif" font-size="14.00" fill="#000000">Asfc_mu_b2</text>
<text text-anchor="middle" x="1061.9325" y="-386.6833" font-family="Times,serif" font-size="14.00" fill="#000000">~</text>
<text text-anchor="middle" x="1061.9325" y="-371.6833" font-family="Times,serif" font-size="14.00" fill="#000000">Normal</text>
</g>
<!-- Asfc_mu_b2&#45;&gt;Asfc_b2 -->
<g id="edge7" class="edge">
<title>Asfc_mu_b2&#45;&gt;Asfc_b2</title>
<path fill="none" stroke="#000000" d="M1037.4983,-355.977C1030.4867,-346.1038 1022.8352,-335.3296 1015.798,-325.4202"/>
<polygon fill="#000000" stroke="#000000" points="1018.4471,-323.1057 1009.8033,-316.9791 1012.7399,-327.1588 1018.4471,-323.1057"/>
</g>
<!-- Asfc_sigma2 -->
<g id="node15" class="node">
<title>Asfc_sigma2</title>
<ellipse fill="none" stroke="#000000" cx="919.9325" cy="-390.3833" rx="62.8651" ry="37.4533"/>
<text text-anchor="middle" x="919.9325" y="-401.6833" font-family="Times,serif" font-size="14.00" fill="#000000">Asfc_sigma2</text>
<text text-anchor="middle" x="919.9325" y="-386.6833" font-family="Times,serif" font-size="14.00" fill="#000000">~</text>
<text text-anchor="middle" x="919.9325" y="-371.6833" font-family="Times,serif" font-size="14.00" fill="#000000">HalfNormal</text>
</g>
<!-- Asfc_sigma2&#45;&gt;Asfc_b2 -->
<g id="edge8" class="edge">
<title>Asfc_sigma2&#45;&gt;Asfc_b2</title>
<path fill="none" stroke="#000000" d="M944.5656,-355.6969C951.5046,-345.926 959.0566,-335.2919 966.0122,-325.4975"/>
<polygon fill="#000000" stroke="#000000" points="969.0043,-327.329 971.9408,-317.1493 963.297,-323.2759 969.0043,-327.329"/>
</g>
<!-- Asfc_mu_b3 -->
<g id="node16" class="node">
<title>Asfc_mu_b3</title>
<ellipse fill="none" stroke="#000000" cx="1489.9325" cy="-390.3833" rx="61.5366" ry="37.4533"/>
<text text-anchor="middle" x="1489.9325" y="-401.6833" font-family="Times,serif" font-size="14.00" fill="#000000">Asfc_mu_b3</text>
<text text-anchor="middle" x="1489.9325" y="-386.6833" font-family="Times,serif" font-size="14.00" fill="#000000">~</text>
<text text-anchor="middle" x="1489.9325" y="-371.6833" font-family="Times,serif" font-size="14.00" fill="#000000">Normal</text>
</g>
<!-- Asfc_mu_b3&#45;&gt;Asfc_b3 -->
<g id="edge10" class="edge">
<title>Asfc_mu_b3&#45;&gt;Asfc_b3</title>
<path fill="none" stroke="#000000" d="M1465.4983,-355.977C1458.4867,-346.1038 1450.8352,-335.3296 1443.798,-325.4202"/>
<polygon fill="#000000" stroke="#000000" points="1446.4471,-323.1057 1437.8033,-316.9791 1440.7399,-327.1588 1446.4471,-323.1057"/>
</g>
<!-- Asfc_sigma3 -->
<g id="node17" class="node">
<title>Asfc_sigma3</title>
<ellipse fill="none" stroke="#000000" cx="1347.9325" cy="-390.3833" rx="62.8651" ry="37.4533"/>
<text text-anchor="middle" x="1347.9325" y="-401.6833" font-family="Times,serif" font-size="14.00" fill="#000000">Asfc_sigma3</text>
<text text-anchor="middle" x="1347.9325" y="-386.6833" font-family="Times,serif" font-size="14.00" fill="#000000">~</text>
<text text-anchor="middle" x="1347.9325" y="-371.6833" font-family="Times,serif" font-size="14.00" fill="#000000">HalfNormal</text>
</g>
<!-- Asfc_sigma3&#45;&gt;Asfc_b3 -->
<g id="edge11" class="edge">
<title>Asfc_sigma3&#45;&gt;Asfc_b3</title>
<path fill="none" stroke="#000000" d="M1372.5656,-355.6969C1379.5046,-345.926 1387.0566,-335.2919 1394.0122,-325.4975"/>
<polygon fill="#000000" stroke="#000000" points="1397.0043,-327.329 1399.9408,-317.1493 1391.297,-323.2759 1397.0043,-327.329"/>
</g>
<!-- Asfc_b3&#45;&gt;Asfc_mu -->
<g id="edge13" class="edge">
<title>Asfc_b3&#45;&gt;Asfc_mu</title>
<path fill="none" stroke="#000000" d="M1373.2249,-278.7626C1317.5801,-265.1361 1220.5473,-243.1365 1135.9325,-232.9066 1091.9945,-227.5946 978.8956,-238.973 936.9325,-224.9066 932.4355,-223.3992 927.9753,-221.3934 923.6586,-219.0908"/>
<polygon fill="#000000" stroke="#000000" points="925.4265,-216.0701 915.0335,-214.0121 921.8747,-222.1021 925.4265,-216.0701"/>
</g>
<!-- Asfc_mu&#45;&gt;Asfc_y -->
<g id="edge18" class="edge">
<title>Asfc_mu&#45;&gt;Asfc_y</title>
<path fill="none" stroke="#000000" d="M882.9325,-160.8539C882.9325,-149.9351 882.9325,-136.944 882.9325,-124.4675"/>
<polygon fill="#000000" stroke="#000000" points="886.4326,-124.1649 882.9325,-114.165 879.4326,-124.165 886.4326,-124.1649"/>
</g>
</g>
</svg>
