<?xml version="1.0" encoding="UTF-8" standalone="no"?>
<!DOCTYPE svg PUBLIC "-//W3C//DTD SVG 1.1//EN"
 "http://www.w3.org/Graphics/SVG/1.1/DTD/svg11.dtd">
<!-- Generated by graphviz version 2.40.1 (20161225.0304)
 -->
<!-- Title: Asfc Pages: 1 -->
<svg width="1702pt" height="452pt"
 viewBox="0.00 0.00 1702.45 451.86" xmlns="http://www.w3.org/2000/svg" xmlns:xlink="http://www.w3.org/1999/xlink">
<g id="graph0" class="graph" transform="scale(1 1) rotate(0) translate(4 447.86)">
<title>Asfc</title>
<polygon fill="#ffffff" stroke="transparent" points="-4,4 -4,-447.86 1698.4508,-447.86 1698.4508,4 -4,4"/>
<g id="clust1" class="cluster">
<title>cluster2</title>
<path fill="none" stroke="#000000" d="M432.5183,-232.9066C432.5183,-232.9066 691.5183,-232.9066 691.5183,-232.9066 697.5183,-232.9066 703.5183,-238.9066 703.5183,-244.9066 703.5183,-244.9066 703.5183,-423.86 703.5183,-423.86 703.5183,-429.86 697.5183,-435.86 691.5183,-435.86 691.5183,-435.86 432.5183,-435.86 432.5183,-435.86 426.5183,-435.86 420.5183,-429.86 420.5183,-423.86 420.5183,-423.86 420.5183,-244.9066 420.5183,-244.9066 420.5183,-238.9066 426.5183,-232.9066 432.5183,-232.9066"/>
<text text-anchor="middle" x="692.0183" y="-240.7066" font-family="Times,serif" font-size="14.00" fill="#000000">2</text>
</g>
<g id="clust2" class="cluster">
<title>cluster11</title>
<path fill="none" stroke="#000000" d="M860.5183,-232.9066C860.5183,-232.9066 1119.5183,-232.9066 1119.5183,-232.9066 1125.5183,-232.9066 1131.5183,-238.9066 1131.5183,-244.9066 1131.5183,-244.9066 1131.5183,-423.86 1131.5183,-423.86 1131.5183,-429.86 1125.5183,-435.86 1119.5183,-435.86 1119.5183,-435.86 860.5183,-435.86 860.5183,-435.86 854.5183,-435.86 848.5183,-429.86 848.5183,-423.86 848.5183,-423.86 848.5183,-244.9066 848.5183,-244.9066 848.5183,-238.9066 854.5183,-232.9066 860.5183,-232.9066"/>
<text text-anchor="middle" x="1116.5183" y="-240.7066" font-family="Times,serif" font-size="14.00" fill="#000000">11</text>
</g>
<g id="clust3" class="cluster">
<title>cluster139</title>
<path fill="none" stroke="#000000" d="M1288.5183,-232.9066C1288.5183,-232.9066 1547.5183,-232.9066 1547.5183,-232.9066 1553.5183,-232.9066 1559.5183,-238.9066 1559.5183,-244.9066 1559.5183,-244.9066 1559.5183,-423.86 1559.5183,-423.86 1559.5183,-429.86 1553.5183,-435.86 1547.5183,-435.86 1547.5183,-435.86 1288.5183,-435.86 1288.5183,-435.86 1282.5183,-435.86 1276.5183,-429.86 1276.5183,-423.86 1276.5183,-423.86 1276.5183,-244.9066 1276.5183,-244.9066 1276.5183,-238.9066 1282.5183,-232.9066 1288.5183,-232.9066"/>
<text text-anchor="middle" x="1541.0183" y="-240.7066" font-family="Times,serif" font-size="14.00" fill="#000000">139</text>
</g>
<g id="clust4" class="cluster">
<title>cluster278</title>
<path fill="none" stroke="#000000" d="M776.5183,-8C776.5183,-8 862.5183,-8 862.5183,-8 868.5183,-8 874.5183,-14 874.5183,-20 874.5183,-20 874.5183,-209.93 874.5183,-209.93 874.5183,-215.93 868.5183,-221.93 862.5183,-221.93 862.5183,-221.93 776.5183,-221.93 776.5183,-221.93 770.5183,-221.93 764.5183,-215.93 764.5183,-209.93 764.5183,-209.93 764.5183,-20 764.5183,-20 764.5183,-14 770.5183,-8 776.5183,-8"/>
<text text-anchor="middle" x="856.0183" y="-15.8" font-family="Times,serif" font-size="14.00" fill="#000000">278</text>
</g>
<!-- Asfc_sigmaY -->
<g id="node1" class="node">
<title>Asfc_sigmaY</title>
<ellipse fill="none" stroke="#000000" cx="690.5183" cy="-187.43" rx="65.1077" ry="37.4533"/>
<text text-anchor="middle" x="690.5183" y="-198.73" font-family="Times,serif" font-size="14.00" fill="#000000">Asfc_sigmaY</text>
<text text-anchor="middle" x="690.5183" y="-183.73" font-family="Times,serif" font-size="14.00" fill="#000000">~</text>
<text text-anchor="middle" x="690.5183" y="-168.73" font-family="Times,serif" font-size="14.00" fill="#000000">Gamma</text>
</g>
<!-- Asfc_y -->
<g id="node20" class="node">
<title>Asfc_y</title>
<ellipse fill="#d3d3d3" stroke="#000000" cx="819.5183" cy="-76.4767" rx="46.8387" ry="37.4533"/>
<text text-anchor="middle" x="819.5183" y="-87.7767" font-family="Times,serif" font-size="14.00" fill="#000000">Asfc_y</text>
<text text-anchor="middle" x="819.5183" y="-72.7767" font-family="Times,serif" font-size="14.00" fill="#000000">~</text>
<text text-anchor="middle" x="819.5183" y="-57.7767" font-family="Times,serif" font-size="14.00" fill="#000000">StudentT</text>
</g>
<!-- Asfc_sigmaY&#45;&gt;Asfc_y -->
<g id="edge17" class="edge">
<title>Asfc_sigmaY&#45;&gt;Asfc_y</title>
<path fill="none" stroke="#000000" d="M726.7953,-156.228C743.19,-142.1269 762.6151,-125.4193 779.4393,-110.9487"/>
<polygon fill="#000000" stroke="#000000" points="782.1657,-113.2203 787.4649,-104.0459 777.6011,-107.9132 782.1657,-113.2203"/>
</g>
<!-- Asfc_b0 -->
<g id="node2" class="node">
<title>Asfc_b0</title>
<polygon fill="none" stroke="#000000" points="321.0183,-316.9066 230.0183,-316.9066 230.0183,-263.9066 321.0183,-263.9066 321.0183,-316.9066"/>
<text text-anchor="middle" x="275.5183" y="-301.7066" font-family="Times,serif" font-size="14.00" fill="#000000">Asfc_b0</text>
<text text-anchor="middle" x="275.5183" y="-286.7066" font-family="Times,serif" font-size="14.00" fill="#000000">~</text>
<text text-anchor="middle" x="275.5183" y="-271.7066" font-family="Times,serif" font-size="14.00" fill="#000000">Deterministic</text>
</g>
<!-- Asfc_mu -->
<g id="node19" class="node">
<title>Asfc_mu</title>
<polygon fill="none" stroke="#000000" points="865.0183,-213.93 774.0183,-213.93 774.0183,-160.93 865.0183,-160.93 865.0183,-213.93"/>
<text text-anchor="middle" x="819.5183" y="-198.73" font-family="Times,serif" font-size="14.00" fill="#000000">Asfc_mu</text>
<text text-anchor="middle" x="819.5183" y="-183.73" font-family="Times,serif" font-size="14.00" fill="#000000">~</text>
<text text-anchor="middle" x="819.5183" y="-168.73" font-family="Times,serif" font-size="14.00" fill="#000000">Deterministic</text>
</g>
<!-- Asfc_b0&#45;&gt;Asfc_mu -->
<g id="edge13" class="edge">
<title>Asfc_b0&#45;&gt;Asfc_mu</title>
<path fill="none" stroke="#000000" d="M321.1713,-266.8254C348.1389,-254.1733 383.3889,-239.7983 416.5183,-232.9066 454.3845,-225.0295 727.6916,-236.7259 764.5183,-224.9066 769.0909,-223.4391 773.6285,-221.4602 778.022,-219.1748"/>
<polygon fill="#000000" stroke="#000000" points="779.8832,-222.1418 786.8025,-214.1185 776.39,-216.0757 779.8832,-222.1418"/>
</g>
<!-- Asfc_b3_dist -->
<g id="node3" class="node">
<title>Asfc_b3_dist</title>
<ellipse fill="none" stroke="#000000" cx="1631.5183" cy="-390.3833" rx="62.8651" ry="37.4533"/>
<text text-anchor="middle" x="1631.5183" y="-401.6833" font-family="Times,serif" font-size="14.00" fill="#000000">Asfc_b3_dist</text>
<text text-anchor="middle" x="1631.5183" y="-386.6833" font-family="Times,serif" font-size="14.00" fill="#000000">~</text>
<text text-anchor="middle" x="1631.5183" y="-371.6833" font-family="Times,serif" font-size="14.00" fill="#000000">Normal</text>
</g>
<!-- Asfc_b3 -->
<g id="node18" class="node">
<title>Asfc_b3</title>
<polygon fill="none" stroke="#000000" points="1464.0183,-316.9066 1373.0183,-316.9066 1373.0183,-263.9066 1464.0183,-263.9066 1464.0183,-316.9066"/>
<text text-anchor="middle" x="1418.5183" y="-301.7066" font-family="Times,serif" font-size="14.00" fill="#000000">Asfc_b3</text>
<text text-anchor="middle" x="1418.5183" y="-286.7066" font-family="Times,serif" font-size="14.00" fill="#000000">~</text>
<text text-anchor="middle" x="1418.5183" y="-271.7066" font-family="Times,serif" font-size="14.00" fill="#000000">Deterministic</text>
</g>
<!-- Asfc_b3_dist&#45;&gt;Asfc_b3 -->
<g id="edge11" class="edge">
<title>Asfc_b3_dist&#45;&gt;Asfc_b3</title>
<path fill="none" stroke="#000000" d="M1585.7471,-364.3724C1578.3763,-360.4116 1570.7821,-356.4634 1563.5183,-352.9066 1534.2278,-338.5643 1500.8449,-324.054 1473.4995,-312.6296"/>
<polygon fill="#000000" stroke="#000000" points="1474.6731,-309.3271 1464.0955,-308.7226 1471.9874,-315.7915 1474.6731,-309.3271"/>
</g>
<!-- Asfc_mu_b0 -->
<g id="node4" class="node">
<title>Asfc_mu_b0</title>
<ellipse fill="none" stroke="#000000" cx="61.5183" cy="-390.3833" rx="61.5366" ry="37.4533"/>
<text text-anchor="middle" x="61.5183" y="-401.6833" font-family="Times,serif" font-size="14.00" fill="#000000">Asfc_mu_b0</text>
<text text-anchor="middle" x="61.5183" y="-386.6833" font-family="Times,serif" font-size="14.00" fill="#000000">~</text>
<text text-anchor="middle" x="61.5183" y="-371.6833" font-family="Times,serif" font-size="14.00" fill="#000000">Normal</text>
</g>
<!-- Asfc_mu_b0&#45;&gt;Asfc_b0 -->
<g id="edge2" class="edge">
<title>Asfc_mu_b0&#45;&gt;Asfc_b0</title>
<path fill="none" stroke="#000000" d="M107.1786,-365.245C115.2302,-361.0112 123.5763,-356.7482 131.5183,-352.9066 160.5972,-338.8412 193.6174,-324.4026 220.696,-312.9515"/>
<polygon fill="#000000" stroke="#000000" points="222.151,-316.1365 230.01,-309.0311 219.4354,-309.6847 222.151,-316.1365"/>
</g>
<!-- Asfc_b0_dist -->
<g id="node5" class="node">
<title>Asfc_b0_dist</title>
<ellipse fill="none" stroke="#000000" cx="203.5183" cy="-390.3833" rx="62.8651" ry="37.4533"/>
<text text-anchor="middle" x="203.5183" y="-401.6833" font-family="Times,serif" font-size="14.00" fill="#000000">Asfc_b0_dist</text>
<text text-anchor="middle" x="203.5183" y="-386.6833" font-family="Times,serif" font-size="14.00" fill="#000000">~</text>
<text text-anchor="middle" x="203.5183" y="-371.6833" font-family="Times,serif" font-size="14.00" fill="#000000">Normal</text>
</g>
<!-- Asfc_b0_dist&#45;&gt;Asfc_b0 -->
<g id="edge1" class="edge">
<title>Asfc_b0_dist&#45;&gt;Asfc_b0</title>
<path fill="none" stroke="#000000" d="M228.4983,-355.6969C235.535,-345.926 243.1934,-335.2919 250.247,-325.4975"/>
<polygon fill="#000000" stroke="#000000" points="253.2553,-327.3094 256.2591,-317.1493 247.575,-323.2186 253.2553,-327.3094"/>
</g>
<!-- Asfc_b1_dist -->
<g id="node6" class="node">
<title>Asfc_b1_dist</title>
<ellipse fill="none" stroke="#000000" cx="775.5183" cy="-390.3833" rx="62.8651" ry="37.4533"/>
<text text-anchor="middle" x="775.5183" y="-401.6833" font-family="Times,serif" font-size="14.00" fill="#000000">Asfc_b1_dist</text>
<text text-anchor="middle" x="775.5183" y="-386.6833" font-family="Times,serif" font-size="14.00" fill="#000000">~</text>
<text text-anchor="middle" x="775.5183" y="-371.6833" font-family="Times,serif" font-size="14.00" fill="#000000">Normal</text>
</g>
<!-- Asfc_b1 -->
<g id="node11" class="node">
<title>Asfc_b1</title>
<polygon fill="none" stroke="#000000" points="687.0183,-316.9066 596.0183,-316.9066 596.0183,-263.9066 687.0183,-263.9066 687.0183,-316.9066"/>
<text text-anchor="middle" x="641.5183" y="-301.7066" font-family="Times,serif" font-size="14.00" fill="#000000">Asfc_b1</text>
<text text-anchor="middle" x="641.5183" y="-286.7066" font-family="Times,serif" font-size="14.00" fill="#000000">~</text>
<text text-anchor="middle" x="641.5183" y="-271.7066" font-family="Times,serif" font-size="14.00" fill="#000000">Deterministic</text>
</g>
<!-- Asfc_b1_dist&#45;&gt;Asfc_b1 -->
<g id="edge5" class="edge">
<title>Asfc_b1_dist&#45;&gt;Asfc_b1</title>
<path fill="none" stroke="#000000" d="M736.0386,-360.9277C720.1293,-349.0579 701.7142,-335.3185 685.3879,-323.1375"/>
<polygon fill="#000000" stroke="#000000" points="687.1731,-320.1026 677.065,-316.9279 682.9871,-325.7131 687.1731,-320.1026"/>
</g>
<!-- Asfc_b2_dist -->
<g id="node7" class="node">
<title>Asfc_b2_dist</title>
<ellipse fill="none" stroke="#000000" cx="1203.5183" cy="-390.3833" rx="62.8651" ry="37.4533"/>
<text text-anchor="middle" x="1203.5183" y="-401.6833" font-family="Times,serif" font-size="14.00" fill="#000000">Asfc_b2_dist</text>
<text text-anchor="middle" x="1203.5183" y="-386.6833" font-family="Times,serif" font-size="14.00" fill="#000000">~</text>
<text text-anchor="middle" x="1203.5183" y="-371.6833" font-family="Times,serif" font-size="14.00" fill="#000000">Normal</text>
</g>
<!-- Asfc_b2 -->
<g id="node14" class="node">
<title>Asfc_b2</title>
<polygon fill="none" stroke="#000000" points="1036.0183,-316.9066 945.0183,-316.9066 945.0183,-263.9066 1036.0183,-263.9066 1036.0183,-316.9066"/>
<text text-anchor="middle" x="990.5183" y="-301.7066" font-family="Times,serif" font-size="14.00" fill="#000000">Asfc_b2</text>
<text text-anchor="middle" x="990.5183" y="-286.7066" font-family="Times,serif" font-size="14.00" fill="#000000">~</text>
<text text-anchor="middle" x="990.5183" y="-271.7066" font-family="Times,serif" font-size="14.00" fill="#000000">Deterministic</text>
</g>
<!-- Asfc_b2_dist&#45;&gt;Asfc_b2 -->
<g id="edge8" class="edge">
<title>Asfc_b2_dist&#45;&gt;Asfc_b2</title>
<path fill="none" stroke="#000000" d="M1157.7471,-364.3724C1150.3763,-360.4116 1142.7821,-356.4634 1135.5183,-352.9066 1106.2278,-338.5643 1072.8449,-324.054 1045.4995,-312.6296"/>
<polygon fill="#000000" stroke="#000000" points="1046.6731,-309.3271 1036.0955,-308.7226 1043.9874,-315.7915 1046.6731,-309.3271"/>
</g>
<!-- Asfc_nuY -->
<g id="node8" class="node">
<title>Asfc_nuY</title>
<ellipse fill="none" stroke="#000000" cx="940.5183" cy="-187.43" rx="57.9655" ry="37.4533"/>
<text text-anchor="middle" x="940.5183" y="-198.73" font-family="Times,serif" font-size="14.00" fill="#000000">Asfc_nuY</text>
<text text-anchor="middle" x="940.5183" y="-183.73" font-family="Times,serif" font-size="14.00" fill="#000000">~</text>
<text text-anchor="middle" x="940.5183" y="-168.73" font-family="Times,serif" font-size="14.00" fill="#000000">Exponential</text>
</g>
<!-- Asfc_nuY&#45;&gt;Asfc_y -->
<g id="edge19" class="edge">
<title>Asfc_nuY&#45;&gt;Asfc_y</title>
<path fill="none" stroke="#000000" d="M906.813,-156.5233C891.6694,-142.637 873.7188,-126.1769 858.0452,-111.8046"/>
<polygon fill="#000000" stroke="#000000" points="860.2919,-109.1161 850.556,-104.9373 855.561,-114.2755 860.2919,-109.1161"/>
</g>
<!-- Asfc_sigma0 -->
<g id="node9" class="node">
<title>Asfc_sigma0</title>
<ellipse fill="none" stroke="#000000" cx="347.5183" cy="-390.3833" rx="62.8651" ry="37.4533"/>
<text text-anchor="middle" x="347.5183" y="-401.6833" font-family="Times,serif" font-size="14.00" fill="#000000">Asfc_sigma0</text>
<text text-anchor="middle" x="347.5183" y="-386.6833" font-family="Times,serif" font-size="14.00" fill="#000000">~</text>
<text text-anchor="middle" x="347.5183" y="-371.6833" font-family="Times,serif" font-size="14.00" fill="#000000">HalfNormal</text>
</g>
<!-- Asfc_sigma0&#45;&gt;Asfc_b0 -->
<g id="edge3" class="edge">
<title>Asfc_sigma0&#45;&gt;Asfc_b0</title>
<path fill="none" stroke="#000000" d="M322.5382,-355.6969C315.5016,-345.926 307.8432,-335.2919 300.7896,-325.4975"/>
<polygon fill="#000000" stroke="#000000" points="303.4616,-323.2186 294.7775,-317.1493 297.7813,-327.3094 303.4616,-323.2186"/>
</g>
<!-- Asfc_mu_b1 -->
<g id="node10" class="node">
<title>Asfc_mu_b1</title>
<ellipse fill="none" stroke="#000000" cx="633.5183" cy="-390.3833" rx="61.5366" ry="37.4533"/>
<text text-anchor="middle" x="633.5183" y="-401.6833" font-family="Times,serif" font-size="14.00" fill="#000000">Asfc_mu_b1</text>
<text text-anchor="middle" x="633.5183" y="-386.6833" font-family="Times,serif" font-size="14.00" fill="#000000">~</text>
<text text-anchor="middle" x="633.5183" y="-371.6833" font-family="Times,serif" font-size="14.00" fill="#000000">Normal</text>
</g>
<!-- Asfc_mu_b1&#45;&gt;Asfc_b1 -->
<g id="edge4" class="edge">
<title>Asfc_mu_b1&#45;&gt;Asfc_b1</title>
<path fill="none" stroke="#000000" d="M636.52,-352.8712C637.1871,-344.5341 637.8938,-335.7023 638.5592,-327.3867"/>
<polygon fill="#000000" stroke="#000000" points="642.065,-327.4531 639.3739,-317.2057 635.0873,-326.8947 642.065,-327.4531"/>
</g>
<!-- Asfc_b1&#45;&gt;Asfc_mu -->
<g id="edge14" class="edge">
<title>Asfc_b1&#45;&gt;Asfc_mu</title>
<path fill="none" stroke="#000000" d="M687.1578,-267.6072C710.6174,-255.512 739.4662,-240.0508 764.5183,-224.9066 767.3364,-223.203 770.2088,-221.4143 773.0883,-219.5804"/>
<polygon fill="#000000" stroke="#000000" points="775.2233,-222.3672 781.7015,-213.9837 771.4092,-216.4975 775.2233,-222.3672"/>
</g>
<!-- Asfc_sigma1 -->
<g id="node12" class="node">
<title>Asfc_sigma1</title>
<ellipse fill="none" stroke="#000000" cx="491.5183" cy="-390.3833" rx="62.8651" ry="37.4533"/>
<text text-anchor="middle" x="491.5183" y="-401.6833" font-family="Times,serif" font-size="14.00" fill="#000000">Asfc_sigma1</text>
<text text-anchor="middle" x="491.5183" y="-386.6833" font-family="Times,serif" font-size="14.00" fill="#000000">~</text>
<text text-anchor="middle" x="491.5183" y="-371.6833" font-family="Times,serif" font-size="14.00" fill="#000000">HalfNormal</text>
</g>
<!-- Asfc_sigma1&#45;&gt;Asfc_b1 -->
<g id="edge6" class="edge">
<title>Asfc_sigma1&#45;&gt;Asfc_b1</title>
<path fill="none" stroke="#000000" d="M533.7008,-362.2682C552.2696,-349.8919 574.1815,-335.2874 593.3853,-322.4878"/>
<polygon fill="#000000" stroke="#000000" points="595.3334,-325.3956 601.7133,-316.9371 591.451,-319.5708 595.3334,-325.3956"/>
</g>
<!-- Asfc_mu_b2 -->
<g id="node13" class="node">
<title>Asfc_mu_b2</title>
<ellipse fill="none" stroke="#000000" cx="1061.5183" cy="-390.3833" rx="61.5366" ry="37.4533"/>
<text text-anchor="middle" x="1061.5183" y="-401.6833" font-family="Times,serif" font-size="14.00" fill="#000000">Asfc_mu_b2</text>
<text text-anchor="middle" x="1061.5183" y="-386.6833" font-family="Times,serif" font-size="14.00" fill="#000000">~</text>
<text text-anchor="middle" x="1061.5183" y="-371.6833" font-family="Times,serif" font-size="14.00" fill="#000000">Normal</text>
</g>
<!-- Asfc_mu_b2&#45;&gt;Asfc_b2 -->
<g id="edge7" class="edge">
<title>Asfc_mu_b2&#45;&gt;Asfc_b2</title>
<path fill="none" stroke="#000000" d="M1037.0841,-355.977C1030.0725,-346.1038 1022.421,-335.3296 1015.3837,-325.4202"/>
<polygon fill="#000000" stroke="#000000" points="1018.0329,-323.1057 1009.3891,-316.9791 1012.3257,-327.1588 1018.0329,-323.1057"/>
</g>
<!-- Asfc_b2&#45;&gt;Asfc_mu -->
<g id="edge16" class="edge">
<title>Asfc_b2&#45;&gt;Asfc_mu</title>
<path fill="none" stroke="#000000" d="M944.9243,-266.2111C923.0393,-254.2621 896.6157,-239.3402 873.5183,-224.9066 870.8933,-223.2663 868.2183,-221.5528 865.5334,-219.8001"/>
<polygon fill="#000000" stroke="#000000" points="867.2392,-216.7313 856.9737,-214.1103 863.3642,-222.5609 867.2392,-216.7313"/>
</g>
<!-- Asfc_sigma2 -->
<g id="node15" class="node">
<title>Asfc_sigma2</title>
<ellipse fill="none" stroke="#000000" cx="919.5183" cy="-390.3833" rx="62.8651" ry="37.4533"/>
<text text-anchor="middle" x="919.5183" y="-401.6833" font-family="Times,serif" font-size="14.00" fill="#000000">Asfc_sigma2</text>
<text text-anchor="middle" x="919.5183" y="-386.6833" font-family="Times,serif" font-size="14.00" fill="#000000">~</text>
<text text-anchor="middle" x="919.5183" y="-371.6833" font-family="Times,serif" font-size="14.00" fill="#000000">HalfNormal</text>
</g>
<!-- Asfc_sigma2&#45;&gt;Asfc_b2 -->
<g id="edge9" class="edge">
<title>Asfc_sigma2&#45;&gt;Asfc_b2</title>
<path fill="none" stroke="#000000" d="M944.1514,-355.6969C951.0904,-345.926 958.6423,-335.2919 965.598,-325.4975"/>
<polygon fill="#000000" stroke="#000000" points="968.59,-327.329 971.5266,-317.1493 962.8828,-323.2759 968.59,-327.329"/>
</g>
<!-- Asfc_mu_b3 -->
<g id="node16" class="node">
<title>Asfc_mu_b3</title>
<ellipse fill="none" stroke="#000000" cx="1489.5183" cy="-390.3833" rx="61.5366" ry="37.4533"/>
<text text-anchor="middle" x="1489.5183" y="-401.6833" font-family="Times,serif" font-size="14.00" fill="#000000">Asfc_mu_b3</text>
<text text-anchor="middle" x="1489.5183" y="-386.6833" font-family="Times,serif" font-size="14.00" fill="#000000">~</text>
<text text-anchor="middle" x="1489.5183" y="-371.6833" font-family="Times,serif" font-size="14.00" fill="#000000">Normal</text>
</g>
<!-- Asfc_mu_b3&#45;&gt;Asfc_b3 -->
<g id="edge10" class="edge">
<title>Asfc_mu_b3&#45;&gt;Asfc_b3</title>
<path fill="none" stroke="#000000" d="M1465.0841,-355.977C1458.0725,-346.1038 1450.421,-335.3296 1443.3837,-325.4202"/>
<polygon fill="#000000" stroke="#000000" points="1446.0329,-323.1057 1437.3891,-316.9791 1440.3257,-327.1588 1446.0329,-323.1057"/>
</g>
<!-- Asfc_sigma3 -->
<g id="node17" class="node">
<title>Asfc_sigma3</title>
<ellipse fill="none" stroke="#000000" cx="1347.5183" cy="-390.3833" rx="62.8651" ry="37.4533"/>
<text text-anchor="middle" x="1347.5183" y="-401.6833" font-family="Times,serif" font-size="14.00" fill="#000000">Asfc_sigma3</text>
<text text-anchor="middle" x="1347.5183" y="-386.6833" font-family="Times,serif" font-size="14.00" fill="#000000">~</text>
<text text-anchor="middle" x="1347.5183" y="-371.6833" font-family="Times,serif" font-size="14.00" fill="#000000">HalfNormal</text>
</g>
<!-- Asfc_sigma3&#45;&gt;Asfc_b3 -->
<g id="edge12" class="edge">
<title>Asfc_sigma3&#45;&gt;Asfc_b3</title>
<path fill="none" stroke="#000000" d="M1372.1514,-355.6969C1379.0904,-345.926 1386.6423,-335.2919 1393.598,-325.4975"/>
<polygon fill="#000000" stroke="#000000" points="1396.59,-327.329 1399.5266,-317.1493 1390.8828,-323.2759 1396.59,-327.329"/>
</g>
<!-- Asfc_b3&#45;&gt;Asfc_mu -->
<g id="edge15" class="edge">
<title>Asfc_b3&#45;&gt;Asfc_mu</title>
<path fill="none" stroke="#000000" d="M1372.8271,-278.6243C1317.1984,-264.8616 1220.1814,-242.7279 1135.5183,-232.9066 1106.5876,-229.5506 901.1772,-234.0299 873.5183,-224.9066 869.0141,-223.4209 864.549,-221.4298 860.2292,-219.1365"/>
<polygon fill="#000000" stroke="#000000" points="861.9956,-216.115 851.6,-214.0701 858.4514,-222.1515 861.9956,-216.115"/>
</g>
<!-- Asfc_mu&#45;&gt;Asfc_y -->
<g id="edge18" class="edge">
<title>Asfc_mu&#45;&gt;Asfc_y</title>
<path fill="none" stroke="#000000" d="M819.5183,-160.8539C819.5183,-149.9351 819.5183,-136.944 819.5183,-124.4675"/>
<polygon fill="#000000" stroke="#000000" points="823.0184,-124.1649 819.5183,-114.165 816.0184,-124.165 823.0184,-124.1649"/>
</g>
</g>
</svg>
