<?xml version="1.0" encoding="UTF-8" standalone="no"?>
<!DOCTYPE svg PUBLIC "-//W3C//DTD SVG 1.1//EN"
 "http://www.w3.org/Graphics/SVG/1.1/DTD/svg11.dtd">
<!-- Generated by graphviz version 2.40.1 (20161225.0304)
 -->
<!-- Title: HAsfc9 Pages: 1 -->
<svg width="1998pt" height="452pt"
 viewBox="0.00 0.00 1997.54 451.86" xmlns="http://www.w3.org/2000/svg" xmlns:xlink="http://www.w3.org/1999/xlink">
<g id="graph0" class="graph" transform="scale(1 1) rotate(0) translate(4 447.86)">
<title>HAsfc9</title>
<polygon fill="#ffffff" stroke="transparent" points="-4,4 -4,-447.86 1993.5391,-447.86 1993.5391,4 -4,4"/>
<g id="clust1" class="cluster">
<title>cluster2</title>
<path fill="none" stroke="#000000" d="M20,-232.9066C20,-232.9066 326,-232.9066 326,-232.9066 332,-232.9066 338,-238.9066 338,-244.9066 338,-244.9066 338,-423.86 338,-423.86 338,-429.86 332,-435.86 326,-435.86 326,-435.86 20,-435.86 20,-435.86 14,-435.86 8,-429.86 8,-423.86 8,-423.86 8,-244.9066 8,-244.9066 8,-238.9066 14,-232.9066 20,-232.9066"/>
<text text-anchor="middle" x="326.5" y="-240.7066" font-family="Times,serif" font-size="14.00" fill="#000000">2</text>
</g>
<g id="clust2" class="cluster">
<title>cluster11</title>
<path fill="none" stroke="#000000" d="M518,-232.9066C518,-232.9066 824,-232.9066 824,-232.9066 830,-232.9066 836,-238.9066 836,-244.9066 836,-244.9066 836,-423.86 836,-423.86 836,-429.86 830,-435.86 824,-435.86 824,-435.86 518,-435.86 518,-435.86 512,-435.86 506,-429.86 506,-423.86 506,-423.86 506,-244.9066 506,-244.9066 506,-238.9066 512,-232.9066 518,-232.9066"/>
<text text-anchor="middle" x="821" y="-240.7066" font-family="Times,serif" font-size="14.00" fill="#000000">11</text>
</g>
<g id="clust3" class="cluster">
<title>cluster139</title>
<path fill="none" stroke="#000000" d="M1016,-232.9066C1016,-232.9066 1322,-232.9066 1322,-232.9066 1328,-232.9066 1334,-238.9066 1334,-244.9066 1334,-244.9066 1334,-423.86 1334,-423.86 1334,-429.86 1328,-435.86 1322,-435.86 1322,-435.86 1016,-435.86 1016,-435.86 1010,-435.86 1004,-429.86 1004,-423.86 1004,-423.86 1004,-244.9066 1004,-244.9066 1004,-238.9066 1010,-232.9066 1016,-232.9066"/>
<text text-anchor="middle" x="1315.5" y="-240.7066" font-family="Times,serif" font-size="14.00" fill="#000000">139</text>
</g>
<g id="clust4" class="cluster">
<title>cluster278</title>
<path fill="none" stroke="#000000" d="M928,-8C928,-8 1022,-8 1022,-8 1028,-8 1034,-14 1034,-20 1034,-20 1034,-209.93 1034,-209.93 1034,-215.93 1028,-221.93 1022,-221.93 1022,-221.93 928,-221.93 928,-221.93 922,-221.93 916,-215.93 916,-209.93 916,-209.93 916,-20 916,-20 916,-14 922,-8 928,-8"/>
<text text-anchor="middle" x="1015.5" y="-15.8" font-family="Times,serif" font-size="14.00" fill="#000000">278</text>
</g>
<!-- HAsfc9_sigma0 -->
<g id="node1" class="node">
<title>HAsfc9_sigma0</title>
<ellipse fill="none" stroke="#000000" cx="1584" cy="-390.3833" rx="74.4932" ry="37.4533"/>
<text text-anchor="middle" x="1584" y="-401.6833" font-family="Times,serif" font-size="14.00" fill="#000000">HAsfc9_sigma0</text>
<text text-anchor="middle" x="1584" y="-386.6833" font-family="Times,serif" font-size="14.00" fill="#000000">~</text>
<text text-anchor="middle" x="1584" y="-371.6833" font-family="Times,serif" font-size="14.00" fill="#000000">HalfNormal</text>
</g>
<!-- HAsfc9_b0 -->
<g id="node4" class="node">
<title>HAsfc9_b0</title>
<polygon fill="none" stroke="#000000" points="1712.5,-316.9066 1621.5,-316.9066 1621.5,-263.9066 1712.5,-263.9066 1712.5,-316.9066"/>
<text text-anchor="middle" x="1667" y="-301.7066" font-family="Times,serif" font-size="14.00" fill="#000000">HAsfc9_b0</text>
<text text-anchor="middle" x="1667" y="-286.7066" font-family="Times,serif" font-size="14.00" fill="#000000">~</text>
<text text-anchor="middle" x="1667" y="-271.7066" font-family="Times,serif" font-size="14.00" fill="#000000">Deterministic</text>
</g>
<!-- HAsfc9_sigma0&#45;&gt;HAsfc9_b0 -->
<g id="edge2" class="edge">
<title>HAsfc9_sigma0&#45;&gt;HAsfc9_b0</title>
<path fill="none" stroke="#000000" d="M1612.7964,-355.6969C1621.0721,-345.7286 1630.0936,-334.8618 1638.3597,-324.9049"/>
<polygon fill="#000000" stroke="#000000" points="1641.1038,-327.079 1644.7984,-317.1493 1635.7179,-322.6077 1641.1038,-327.079"/>
</g>
<!-- HAsfc9_b3_dist -->
<g id="node2" class="node">
<title>HAsfc9_b3_dist</title>
<ellipse fill="none" stroke="#000000" cx="1418" cy="-390.3833" rx="74.4932" ry="37.4533"/>
<text text-anchor="middle" x="1418" y="-401.6833" font-family="Times,serif" font-size="14.00" fill="#000000">HAsfc9_b3_dist</text>
<text text-anchor="middle" x="1418" y="-386.6833" font-family="Times,serif" font-size="14.00" fill="#000000">~</text>
<text text-anchor="middle" x="1418" y="-371.6833" font-family="Times,serif" font-size="14.00" fill="#000000">Normal</text>
</g>
<!-- HAsfc9_b3 -->
<g id="node16" class="node">
<title>HAsfc9_b3</title>
<polygon fill="none" stroke="#000000" points="1214.5,-316.9066 1123.5,-316.9066 1123.5,-263.9066 1214.5,-263.9066 1214.5,-316.9066"/>
<text text-anchor="middle" x="1169" y="-301.7066" font-family="Times,serif" font-size="14.00" fill="#000000">HAsfc9_b3</text>
<text text-anchor="middle" x="1169" y="-286.7066" font-family="Times,serif" font-size="14.00" fill="#000000">~</text>
<text text-anchor="middle" x="1169" y="-271.7066" font-family="Times,serif" font-size="14.00" fill="#000000">Deterministic</text>
</g>
<!-- HAsfc9_b3_dist&#45;&gt;HAsfc9_b3 -->
<g id="edge12" class="edge">
<title>HAsfc9_b3_dist&#45;&gt;HAsfc9_b3</title>
<path fill="none" stroke="#000000" d="M1364.0531,-364.3622C1355.3943,-360.4028 1346.4897,-356.4577 1338,-352.9066 1300.4386,-337.1956 1257.3874,-321.3049 1224.1373,-309.4782"/>
<polygon fill="#000000" stroke="#000000" points="1225.1866,-306.1369 1214.5919,-306.0987 1222.8504,-312.7356 1225.1866,-306.1369"/>
</g>
<!-- HAsfc9_b0_dist -->
<g id="node3" class="node">
<title>HAsfc9_b0_dist</title>
<ellipse fill="none" stroke="#000000" cx="1750" cy="-390.3833" rx="74.4932" ry="37.4533"/>
<text text-anchor="middle" x="1750" y="-401.6833" font-family="Times,serif" font-size="14.00" fill="#000000">HAsfc9_b0_dist</text>
<text text-anchor="middle" x="1750" y="-386.6833" font-family="Times,serif" font-size="14.00" fill="#000000">~</text>
<text text-anchor="middle" x="1750" y="-371.6833" font-family="Times,serif" font-size="14.00" fill="#000000">Normal</text>
</g>
<!-- HAsfc9_b0_dist&#45;&gt;HAsfc9_b0 -->
<g id="edge1" class="edge">
<title>HAsfc9_b0_dist&#45;&gt;HAsfc9_b0</title>
<path fill="none" stroke="#000000" d="M1721.2036,-355.6969C1712.9279,-345.7286 1703.9064,-334.8618 1695.6403,-324.9049"/>
<polygon fill="#000000" stroke="#000000" points="1698.2821,-322.6077 1689.2016,-317.1493 1692.8962,-327.079 1698.2821,-322.6077"/>
</g>
<!-- HAsfc9_mu -->
<g id="node20" class="node">
<title>HAsfc9_mu</title>
<polygon fill="none" stroke="#000000" points="1020.5,-213.93 929.5,-213.93 929.5,-160.93 1020.5,-160.93 1020.5,-213.93"/>
<text text-anchor="middle" x="975" y="-198.73" font-family="Times,serif" font-size="14.00" fill="#000000">HAsfc9_mu</text>
<text text-anchor="middle" x="975" y="-183.73" font-family="Times,serif" font-size="14.00" fill="#000000">~</text>
<text text-anchor="middle" x="975" y="-168.73" font-family="Times,serif" font-size="14.00" fill="#000000">Deterministic</text>
</g>
<!-- HAsfc9_b0&#45;&gt;HAsfc9_mu -->
<g id="edge13" class="edge">
<title>HAsfc9_b0&#45;&gt;HAsfc9_mu</title>
<path fill="none" stroke="#000000" d="M1621.252,-280.2176C1557.9709,-266.6275 1439.9783,-243.0999 1338,-232.9066 1304.2675,-229.5349 1065.387,-234.9231 1033,-224.9066 1028.1144,-223.3957 1023.2467,-221.3477 1018.5264,-218.9837"/>
<polygon fill="#000000" stroke="#000000" points="1020.1133,-215.862 1009.665,-214.106 1016.7378,-221.9944 1020.1133,-215.862"/>
</g>
<!-- HAsfc9_sigmaY -->
<g id="node5" class="node">
<title>HAsfc9_sigmaY</title>
<ellipse fill="none" stroke="#000000" cx="1118" cy="-187.43" rx="76.2353" ry="37.4533"/>
<text text-anchor="middle" x="1118" y="-198.73" font-family="Times,serif" font-size="14.00" fill="#000000">HAsfc9_sigmaY</text>
<text text-anchor="middle" x="1118" y="-183.73" font-family="Times,serif" font-size="14.00" fill="#000000">~</text>
<text text-anchor="middle" x="1118" y="-168.73" font-family="Times,serif" font-size="14.00" fill="#000000">Gamma</text>
</g>
<!-- HAsfc9_y -->
<g id="node19" class="node">
<title>HAsfc9_y</title>
<ellipse fill="#d3d3d3" stroke="#000000" cx="975" cy="-76.4767" rx="50.8235" ry="37.4533"/>
<text text-anchor="middle" x="975" y="-87.7767" font-family="Times,serif" font-size="14.00" fill="#000000">HAsfc9_y</text>
<text text-anchor="middle" x="975" y="-72.7767" font-family="Times,serif" font-size="14.00" fill="#000000">~</text>
<text text-anchor="middle" x="975" y="-57.7767" font-family="Times,serif" font-size="14.00" fill="#000000">StudentT</text>
</g>
<!-- HAsfc9_sigmaY&#45;&gt;HAsfc9_y -->
<g id="edge17" class="edge">
<title>HAsfc9_sigmaY&#45;&gt;HAsfc9_y</title>
<path fill="none" stroke="#000000" d="M1077.0219,-155.6352C1058.6174,-141.3552 1036.8912,-124.4979 1018.2283,-110.0174"/>
<polygon fill="#000000" stroke="#000000" points="1020.2112,-107.1259 1010.1649,-103.761 1015.9201,-112.6564 1020.2112,-107.1259"/>
</g>
<!-- HAsfc9_nuY -->
<g id="node6" class="node">
<title>HAsfc9_nuY</title>
<ellipse fill="none" stroke="#000000" cx="1275" cy="-187.43" rx="62.8651" ry="37.4533"/>
<text text-anchor="middle" x="1275" y="-198.73" font-family="Times,serif" font-size="14.00" fill="#000000">HAsfc9_nuY</text>
<text text-anchor="middle" x="1275" y="-183.73" font-family="Times,serif" font-size="14.00" fill="#000000">~</text>
<text text-anchor="middle" x="1275" y="-168.73" font-family="Times,serif" font-size="14.00" fill="#000000">Exponential</text>
</g>
<!-- HAsfc9_nuY&#45;&gt;HAsfc9_y -->
<g id="edge19" class="edge">
<title>HAsfc9_nuY&#45;&gt;HAsfc9_y</title>
<path fill="none" stroke="#000000" d="M1228.6817,-161.8727C1220.2529,-157.6395 1211.4515,-153.4852 1203,-149.9533 1146.398,-126.2996 1079.3263,-105.5096 1032.6427,-92.1364"/>
<polygon fill="#000000" stroke="#000000" points="1033.5773,-88.7635 1023.0014,-89.3969 1031.664,-95.497 1033.5773,-88.7635"/>
</g>
<!-- HAsfc9_b1_dist -->
<g id="node7" class="node">
<title>HAsfc9_b1_dist</title>
<ellipse fill="none" stroke="#000000" cx="422" cy="-390.3833" rx="74.4932" ry="37.4533"/>
<text text-anchor="middle" x="422" y="-401.6833" font-family="Times,serif" font-size="14.00" fill="#000000">HAsfc9_b1_dist</text>
<text text-anchor="middle" x="422" y="-386.6833" font-family="Times,serif" font-size="14.00" fill="#000000">~</text>
<text text-anchor="middle" x="422" y="-371.6833" font-family="Times,serif" font-size="14.00" fill="#000000">Normal</text>
</g>
<!-- HAsfc9_b1 -->
<g id="node10" class="node">
<title>HAsfc9_b1</title>
<polygon fill="none" stroke="#000000" points="315.5,-316.9066 224.5,-316.9066 224.5,-263.9066 315.5,-263.9066 315.5,-316.9066"/>
<text text-anchor="middle" x="270" y="-301.7066" font-family="Times,serif" font-size="14.00" fill="#000000">HAsfc9_b1</text>
<text text-anchor="middle" x="270" y="-286.7066" font-family="Times,serif" font-size="14.00" fill="#000000">~</text>
<text text-anchor="middle" x="270" y="-271.7066" font-family="Times,serif" font-size="14.00" fill="#000000">Deterministic</text>
</g>
<!-- HAsfc9_b1_dist&#45;&gt;HAsfc9_b1 -->
<g id="edge5" class="edge">
<title>HAsfc9_b1_dist&#45;&gt;HAsfc9_b1</title>
<path fill="none" stroke="#000000" d="M376.395,-360.387C358.2772,-348.4702 337.4002,-334.7385 318.9639,-322.6122"/>
<polygon fill="#000000" stroke="#000000" points="320.687,-319.5564 310.4089,-316.9852 316.8403,-325.4047 320.687,-319.5564"/>
</g>
<!-- HAsfc9_mu_b0 -->
<g id="node8" class="node">
<title>HAsfc9_mu_b0</title>
<ellipse fill="none" stroke="#000000" cx="1916" cy="-390.3833" rx="73.5782" ry="37.4533"/>
<text text-anchor="middle" x="1916" y="-401.6833" font-family="Times,serif" font-size="14.00" fill="#000000">HAsfc9_mu_b0</text>
<text text-anchor="middle" x="1916" y="-386.6833" font-family="Times,serif" font-size="14.00" fill="#000000">~</text>
<text text-anchor="middle" x="1916" y="-371.6833" font-family="Times,serif" font-size="14.00" fill="#000000">Normal</text>
</g>
<!-- HAsfc9_mu_b0&#45;&gt;HAsfc9_b0 -->
<g id="edge3" class="edge">
<title>HAsfc9_mu_b0&#45;&gt;HAsfc9_b0</title>
<path fill="none" stroke="#000000" d="M1861.301,-365.0888C1851.9056,-360.9155 1842.2047,-356.713 1833,-352.9066 1796.5079,-337.8165 1754.9226,-322.1618 1722.5031,-310.2946"/>
<polygon fill="#000000" stroke="#000000" points="1723.3459,-306.8765 1712.7519,-306.7381 1720.9473,-313.4527 1723.3459,-306.8765"/>
</g>
<!-- HAsfc9_b2_dist -->
<g id="node9" class="node">
<title>HAsfc9_b2_dist</title>
<ellipse fill="none" stroke="#000000" cx="920" cy="-390.3833" rx="74.4932" ry="37.4533"/>
<text text-anchor="middle" x="920" y="-401.6833" font-family="Times,serif" font-size="14.00" fill="#000000">HAsfc9_b2_dist</text>
<text text-anchor="middle" x="920" y="-386.6833" font-family="Times,serif" font-size="14.00" fill="#000000">~</text>
<text text-anchor="middle" x="920" y="-371.6833" font-family="Times,serif" font-size="14.00" fill="#000000">Normal</text>
</g>
<!-- HAsfc9_b2 -->
<g id="node13" class="node">
<title>HAsfc9_b2</title>
<polygon fill="none" stroke="#000000" points="813.5,-316.9066 722.5,-316.9066 722.5,-263.9066 813.5,-263.9066 813.5,-316.9066"/>
<text text-anchor="middle" x="768" y="-301.7066" font-family="Times,serif" font-size="14.00" fill="#000000">HAsfc9_b2</text>
<text text-anchor="middle" x="768" y="-286.7066" font-family="Times,serif" font-size="14.00" fill="#000000">~</text>
<text text-anchor="middle" x="768" y="-271.7066" font-family="Times,serif" font-size="14.00" fill="#000000">Deterministic</text>
</g>
<!-- HAsfc9_b2_dist&#45;&gt;HAsfc9_b2 -->
<g id="edge8" class="edge">
<title>HAsfc9_b2_dist&#45;&gt;HAsfc9_b2</title>
<path fill="none" stroke="#000000" d="M874.395,-360.387C856.2772,-348.4702 835.4002,-334.7385 816.9639,-322.6122"/>
<polygon fill="#000000" stroke="#000000" points="818.687,-319.5564 808.4089,-316.9852 814.8403,-325.4047 818.687,-319.5564"/>
</g>
<!-- HAsfc9_b1&#45;&gt;HAsfc9_mu -->
<g id="edge14" class="edge">
<title>HAsfc9_b1&#45;&gt;HAsfc9_mu</title>
<path fill="none" stroke="#000000" d="M315.7971,-276.9355C362.2921,-263.7627 436.5561,-244.1001 502,-232.9066 651.5936,-207.3203 830.4485,-195.0229 919.2575,-190.1282"/>
<polygon fill="#000000" stroke="#000000" points="919.5791,-193.616 929.3755,-189.5812 919.2011,-186.6262 919.5791,-193.616"/>
</g>
<!-- HAsfc9_sigma1 -->
<g id="node11" class="node">
<title>HAsfc9_sigma1</title>
<ellipse fill="none" stroke="#000000" cx="256" cy="-390.3833" rx="74.4932" ry="37.4533"/>
<text text-anchor="middle" x="256" y="-401.6833" font-family="Times,serif" font-size="14.00" fill="#000000">HAsfc9_sigma1</text>
<text text-anchor="middle" x="256" y="-386.6833" font-family="Times,serif" font-size="14.00" fill="#000000">~</text>
<text text-anchor="middle" x="256" y="-371.6833" font-family="Times,serif" font-size="14.00" fill="#000000">HalfNormal</text>
</g>
<!-- HAsfc9_sigma1&#45;&gt;HAsfc9_b1 -->
<g id="edge4" class="edge">
<title>HAsfc9_sigma1&#45;&gt;HAsfc9_b1</title>
<path fill="none" stroke="#000000" d="M261.2529,-352.8712C262.4334,-344.4415 263.6846,-335.506 264.8604,-327.1097"/>
<polygon fill="#000000" stroke="#000000" points="268.3265,-327.5945 266.2473,-317.2057 261.3942,-326.6237 268.3265,-327.5945"/>
</g>
<!-- HAsfc9_mu_b1 -->
<g id="node12" class="node">
<title>HAsfc9_mu_b1</title>
<ellipse fill="none" stroke="#000000" cx="90" cy="-390.3833" rx="73.5782" ry="37.4533"/>
<text text-anchor="middle" x="90" y="-401.6833" font-family="Times,serif" font-size="14.00" fill="#000000">HAsfc9_mu_b1</text>
<text text-anchor="middle" x="90" y="-386.6833" font-family="Times,serif" font-size="14.00" fill="#000000">~</text>
<text text-anchor="middle" x="90" y="-371.6833" font-family="Times,serif" font-size="14.00" fill="#000000">Normal</text>
</g>
<!-- HAsfc9_mu_b1&#45;&gt;HAsfc9_b1 -->
<g id="edge6" class="edge">
<title>HAsfc9_mu_b1&#45;&gt;HAsfc9_b1</title>
<path fill="none" stroke="#000000" d="M140.14,-362.5342C163.5691,-349.5211 191.5145,-333.9995 215.469,-320.6946"/>
<polygon fill="#000000" stroke="#000000" points="217.394,-323.629 224.4366,-315.7137 213.9951,-317.5096 217.394,-323.629"/>
</g>
<!-- HAsfc9_b2&#45;&gt;HAsfc9_mu -->
<g id="edge16" class="edge">
<title>HAsfc9_b2&#45;&gt;HAsfc9_mu</title>
<path fill="none" stroke="#000000" d="M813.6833,-267.6805C845.135,-252.0342 887.0744,-231.1705 920.3069,-214.6382"/>
<polygon fill="#000000" stroke="#000000" points="922.039,-217.6858 929.4334,-210.0981 918.9211,-211.4185 922.039,-217.6858"/>
</g>
<!-- HAsfc9_sigma2 -->
<g id="node14" class="node">
<title>HAsfc9_sigma2</title>
<ellipse fill="none" stroke="#000000" cx="754" cy="-390.3833" rx="74.4932" ry="37.4533"/>
<text text-anchor="middle" x="754" y="-401.6833" font-family="Times,serif" font-size="14.00" fill="#000000">HAsfc9_sigma2</text>
<text text-anchor="middle" x="754" y="-386.6833" font-family="Times,serif" font-size="14.00" fill="#000000">~</text>
<text text-anchor="middle" x="754" y="-371.6833" font-family="Times,serif" font-size="14.00" fill="#000000">HalfNormal</text>
</g>
<!-- HAsfc9_sigma2&#45;&gt;HAsfc9_b2 -->
<g id="edge7" class="edge">
<title>HAsfc9_sigma2&#45;&gt;HAsfc9_b2</title>
<path fill="none" stroke="#000000" d="M759.2529,-352.8712C760.4334,-344.4415 761.6846,-335.506 762.8604,-327.1097"/>
<polygon fill="#000000" stroke="#000000" points="766.3265,-327.5945 764.2473,-317.2057 759.3942,-326.6237 766.3265,-327.5945"/>
</g>
<!-- HAsfc9_mu_b2 -->
<g id="node15" class="node">
<title>HAsfc9_mu_b2</title>
<ellipse fill="none" stroke="#000000" cx="588" cy="-390.3833" rx="73.5782" ry="37.4533"/>
<text text-anchor="middle" x="588" y="-401.6833" font-family="Times,serif" font-size="14.00" fill="#000000">HAsfc9_mu_b2</text>
<text text-anchor="middle" x="588" y="-386.6833" font-family="Times,serif" font-size="14.00" fill="#000000">~</text>
<text text-anchor="middle" x="588" y="-371.6833" font-family="Times,serif" font-size="14.00" fill="#000000">Normal</text>
</g>
<!-- HAsfc9_mu_b2&#45;&gt;HAsfc9_b2 -->
<g id="edge9" class="edge">
<title>HAsfc9_mu_b2&#45;&gt;HAsfc9_b2</title>
<path fill="none" stroke="#000000" d="M638.14,-362.5342C661.5691,-349.5211 689.5145,-333.9995 713.469,-320.6946"/>
<polygon fill="#000000" stroke="#000000" points="715.394,-323.629 722.4366,-315.7137 711.9951,-317.5096 715.394,-323.629"/>
</g>
<!-- HAsfc9_b3&#45;&gt;HAsfc9_mu -->
<g id="edge15" class="edge">
<title>HAsfc9_b3&#45;&gt;HAsfc9_mu</title>
<path fill="none" stroke="#000000" d="M1123.254,-270.1095C1096.5212,-257.8219 1062.3698,-241.3831 1033,-224.9066 1029.927,-223.1827 1026.7952,-221.3606 1023.6584,-219.4857"/>
<polygon fill="#000000" stroke="#000000" points="1025.2077,-216.3306 1014.8505,-214.0993 1021.5557,-222.3024 1025.2077,-216.3306"/>
</g>
<!-- HAsfc9_sigma3 -->
<g id="node17" class="node">
<title>HAsfc9_sigma3</title>
<ellipse fill="none" stroke="#000000" cx="1252" cy="-390.3833" rx="74.4932" ry="37.4533"/>
<text text-anchor="middle" x="1252" y="-401.6833" font-family="Times,serif" font-size="14.00" fill="#000000">HAsfc9_sigma3</text>
<text text-anchor="middle" x="1252" y="-386.6833" font-family="Times,serif" font-size="14.00" fill="#000000">~</text>
<text text-anchor="middle" x="1252" y="-371.6833" font-family="Times,serif" font-size="14.00" fill="#000000">HalfNormal</text>
</g>
<!-- HAsfc9_sigma3&#45;&gt;HAsfc9_b3 -->
<g id="edge10" class="edge">
<title>HAsfc9_sigma3&#45;&gt;HAsfc9_b3</title>
<path fill="none" stroke="#000000" d="M1223.2036,-355.6969C1214.9279,-345.7286 1205.9064,-334.8618 1197.6403,-324.9049"/>
<polygon fill="#000000" stroke="#000000" points="1200.2821,-322.6077 1191.2016,-317.1493 1194.8962,-327.079 1200.2821,-322.6077"/>
</g>
<!-- HAsfc9_mu_b3 -->
<g id="node18" class="node">
<title>HAsfc9_mu_b3</title>
<ellipse fill="none" stroke="#000000" cx="1086" cy="-390.3833" rx="73.5782" ry="37.4533"/>
<text text-anchor="middle" x="1086" y="-401.6833" font-family="Times,serif" font-size="14.00" fill="#000000">HAsfc9_mu_b3</text>
<text text-anchor="middle" x="1086" y="-386.6833" font-family="Times,serif" font-size="14.00" fill="#000000">~</text>
<text text-anchor="middle" x="1086" y="-371.6833" font-family="Times,serif" font-size="14.00" fill="#000000">Normal</text>
</g>
<!-- HAsfc9_mu_b3&#45;&gt;HAsfc9_b3 -->
<g id="edge11" class="edge">
<title>HAsfc9_mu_b3&#45;&gt;HAsfc9_b3</title>
<path fill="none" stroke="#000000" d="M1114.7964,-355.6969C1123.0721,-345.7286 1132.0936,-334.8618 1140.3597,-324.9049"/>
<polygon fill="#000000" stroke="#000000" points="1143.1038,-327.079 1146.7984,-317.1493 1137.7179,-322.6077 1143.1038,-327.079"/>
</g>
<!-- HAsfc9_mu&#45;&gt;HAsfc9_y -->
<g id="edge18" class="edge">
<title>HAsfc9_mu&#45;&gt;HAsfc9_y</title>
<path fill="none" stroke="#000000" d="M975,-160.8539C975,-149.9351 975,-136.944 975,-124.4675"/>
<polygon fill="#000000" stroke="#000000" points="978.5001,-124.1649 975,-114.165 971.5001,-124.165 978.5001,-124.1649"/>
</g>
</g>
</svg>
