<?xml version="1.0" encoding="UTF-8" standalone="no"?>
<!DOCTYPE svg PUBLIC "-//W3C//DTD SVG 1.1//EN"
 "http://www.w3.org/Graphics/SVG/1.1/DTD/svg11.dtd">
<!-- Generated by graphviz version 2.40.1 (20161225.0304)
 -->
<!-- Title: epLsar Pages: 1 -->
<svg width="1906pt" height="452pt"
 viewBox="0.00 0.00 1905.71 451.86" xmlns="http://www.w3.org/2000/svg" xmlns:xlink="http://www.w3.org/1999/xlink">
<g id="graph0" class="graph" transform="scale(1 1) rotate(0) translate(4 447.86)">
<title>epLsar</title>
<polygon fill="#ffffff" stroke="transparent" points="-4,4 -4,-447.86 1901.7107,-447.86 1901.7107,4 -4,4"/>
<g id="clust1" class="cluster">
<title>cluster2</title>
<path fill="none" stroke="#000000" d="M20,-232.9066C20,-232.9066 310,-232.9066 310,-232.9066 316,-232.9066 322,-238.9066 322,-244.9066 322,-244.9066 322,-423.86 322,-423.86 322,-429.86 316,-435.86 310,-435.86 310,-435.86 20,-435.86 20,-435.86 14,-435.86 8,-429.86 8,-423.86 8,-423.86 8,-244.9066 8,-244.9066 8,-238.9066 14,-232.9066 20,-232.9066"/>
<text text-anchor="middle" x="310.5" y="-240.7066" font-family="Times,serif" font-size="14.00" fill="#000000">2</text>
</g>
<g id="clust2" class="cluster">
<title>cluster11</title>
<path fill="none" stroke="#000000" d="M495,-232.9066C495,-232.9066 785,-232.9066 785,-232.9066 791,-232.9066 797,-238.9066 797,-244.9066 797,-244.9066 797,-423.86 797,-423.86 797,-429.86 791,-435.86 785,-435.86 785,-435.86 495,-435.86 495,-435.86 489,-435.86 483,-429.86 483,-423.86 483,-423.86 483,-244.9066 483,-244.9066 483,-238.9066 489,-232.9066 495,-232.9066"/>
<text text-anchor="middle" x="782" y="-240.7066" font-family="Times,serif" font-size="14.00" fill="#000000">11</text>
</g>
<g id="clust3" class="cluster">
<title>cluster139</title>
<path fill="none" stroke="#000000" d="M970,-232.9066C970,-232.9066 1260,-232.9066 1260,-232.9066 1266,-232.9066 1272,-238.9066 1272,-244.9066 1272,-244.9066 1272,-423.86 1272,-423.86 1272,-429.86 1266,-435.86 1260,-435.86 1260,-435.86 970,-435.86 970,-435.86 964,-435.86 958,-429.86 958,-423.86 958,-423.86 958,-244.9066 958,-244.9066 958,-238.9066 964,-232.9066 970,-232.9066"/>
<text text-anchor="middle" x="1253.5" y="-240.7066" font-family="Times,serif" font-size="14.00" fill="#000000">139</text>
</g>
<g id="clust4" class="cluster">
<title>cluster278</title>
<path fill="none" stroke="#000000" d="M885,-8C885,-8 971,-8 971,-8 977,-8 983,-14 983,-20 983,-20 983,-209.93 983,-209.93 983,-215.93 977,-221.93 971,-221.93 971,-221.93 885,-221.93 885,-221.93 879,-221.93 873,-215.93 873,-209.93 873,-209.93 873,-20 873,-20 873,-14 879,-8 885,-8"/>
<text text-anchor="middle" x="964.5" y="-15.8" font-family="Times,serif" font-size="14.00" fill="#000000">278</text>
</g>
<!-- epLsar_mu_b0 -->
<g id="node1" class="node">
<title>epLsar_mu_b0</title>
<ellipse fill="none" stroke="#000000" cx="1510" cy="-390.3833" rx="69.0935" ry="37.4533"/>
<text text-anchor="middle" x="1510" y="-401.6833" font-family="Times,serif" font-size="14.00" fill="#000000">epLsar_mu_b0</text>
<text text-anchor="middle" x="1510" y="-386.6833" font-family="Times,serif" font-size="14.00" fill="#000000">~</text>
<text text-anchor="middle" x="1510" y="-371.6833" font-family="Times,serif" font-size="14.00" fill="#000000">Normal</text>
</g>
<!-- epLsar_b0 -->
<g id="node7" class="node">
<title>epLsar_b0</title>
<polygon fill="none" stroke="#000000" points="1634.5,-316.9066 1543.5,-316.9066 1543.5,-263.9066 1634.5,-263.9066 1634.5,-316.9066"/>
<text text-anchor="middle" x="1589" y="-301.7066" font-family="Times,serif" font-size="14.00" fill="#000000">epLsar_b0</text>
<text text-anchor="middle" x="1589" y="-286.7066" font-family="Times,serif" font-size="14.00" fill="#000000">~</text>
<text text-anchor="middle" x="1589" y="-271.7066" font-family="Times,serif" font-size="14.00" fill="#000000">Deterministic</text>
</g>
<!-- epLsar_mu_b0&#45;&gt;epLsar_b0 -->
<g id="edge3" class="edge">
<title>epLsar_mu_b0&#45;&gt;epLsar_b0</title>
<path fill="none" stroke="#000000" d="M1537.4087,-355.6969C1545.2075,-345.8273 1553.7022,-335.0769 1561.5061,-325.2009"/>
<polygon fill="#000000" stroke="#000000" points="1564.4146,-327.1654 1567.8684,-317.1493 1558.9223,-322.8254 1564.4146,-327.1654"/>
</g>
<!-- epLsar_nuY -->
<g id="node2" class="node">
<title>epLsar_nuY</title>
<ellipse fill="none" stroke="#000000" cx="1050" cy="-187.43" rx="58.8803" ry="37.4533"/>
<text text-anchor="middle" x="1050" y="-198.73" font-family="Times,serif" font-size="14.00" fill="#000000">epLsar_nuY</text>
<text text-anchor="middle" x="1050" y="-183.73" font-family="Times,serif" font-size="14.00" fill="#000000">~</text>
<text text-anchor="middle" x="1050" y="-168.73" font-family="Times,serif" font-size="14.00" fill="#000000">Exponential</text>
</g>
<!-- epLsar_y -->
<g id="node19" class="node">
<title>epLsar_y</title>
<ellipse fill="#d3d3d3" stroke="#000000" cx="928" cy="-76.4767" rx="47.2526" ry="37.4533"/>
<text text-anchor="middle" x="928" y="-87.7767" font-family="Times,serif" font-size="14.00" fill="#000000">epLsar_y</text>
<text text-anchor="middle" x="928" y="-72.7767" font-family="Times,serif" font-size="14.00" fill="#000000">~</text>
<text text-anchor="middle" x="928" y="-57.7767" font-family="Times,serif" font-size="14.00" fill="#000000">StudentT</text>
</g>
<!-- epLsar_nuY&#45;&gt;epLsar_y -->
<g id="edge19" class="edge">
<title>epLsar_nuY&#45;&gt;epLsar_y</title>
<path fill="none" stroke="#000000" d="M1016.0162,-156.5233C1000.7474,-142.637 982.6485,-126.1769 966.8453,-111.8046"/>
<polygon fill="#000000" stroke="#000000" points="969.0472,-109.0762 959.2942,-104.9373 964.3375,-114.2549 969.0472,-109.0762"/>
</g>
<!-- epLsar_sigma0 -->
<g id="node3" class="node">
<title>epLsar_sigma0</title>
<ellipse fill="none" stroke="#000000" cx="1668" cy="-390.3833" rx="70.922" ry="37.4533"/>
<text text-anchor="middle" x="1668" y="-401.6833" font-family="Times,serif" font-size="14.00" fill="#000000">epLsar_sigma0</text>
<text text-anchor="middle" x="1668" y="-386.6833" font-family="Times,serif" font-size="14.00" fill="#000000">~</text>
<text text-anchor="middle" x="1668" y="-371.6833" font-family="Times,serif" font-size="14.00" fill="#000000">HalfNormal</text>
</g>
<!-- epLsar_sigma0&#45;&gt;epLsar_b0 -->
<g id="edge1" class="edge">
<title>epLsar_sigma0&#45;&gt;epLsar_b0</title>
<path fill="none" stroke="#000000" d="M1640.5913,-355.6969C1632.7925,-345.8273 1624.2978,-335.0769 1616.4939,-325.2009"/>
<polygon fill="#000000" stroke="#000000" points="1619.0777,-322.8254 1610.1316,-317.1493 1613.5854,-327.1654 1619.0777,-322.8254"/>
</g>
<!-- epLsar_b3_dist -->
<g id="node4" class="node">
<title>epLsar_b3_dist</title>
<ellipse fill="none" stroke="#000000" cx="1352" cy="-390.3833" rx="70.922" ry="37.4533"/>
<text text-anchor="middle" x="1352" y="-401.6833" font-family="Times,serif" font-size="14.00" fill="#000000">epLsar_b3_dist</text>
<text text-anchor="middle" x="1352" y="-386.6833" font-family="Times,serif" font-size="14.00" fill="#000000">~</text>
<text text-anchor="middle" x="1352" y="-371.6833" font-family="Times,serif" font-size="14.00" fill="#000000">Normal</text>
</g>
<!-- epLsar_b3 -->
<g id="node17" class="node">
<title>epLsar_b3</title>
<polygon fill="none" stroke="#000000" points="1159.5,-316.9066 1068.5,-316.9066 1068.5,-263.9066 1159.5,-263.9066 1159.5,-316.9066"/>
<text text-anchor="middle" x="1114" y="-301.7066" font-family="Times,serif" font-size="14.00" fill="#000000">epLsar_b3</text>
<text text-anchor="middle" x="1114" y="-286.7066" font-family="Times,serif" font-size="14.00" fill="#000000">~</text>
<text text-anchor="middle" x="1114" y="-271.7066" font-family="Times,serif" font-size="14.00" fill="#000000">Deterministic</text>
</g>
<!-- epLsar_b3_dist&#45;&gt;epLsar_b3 -->
<g id="edge11" class="edge">
<title>epLsar_b3_dist&#45;&gt;epLsar_b3</title>
<path fill="none" stroke="#000000" d="M1300.7838,-364.35C1292.5536,-360.3922 1284.0841,-356.4507 1276,-352.9066 1240.9712,-337.55 1200.8721,-322.0635 1169.3324,-310.3478"/>
<polygon fill="#000000" stroke="#000000" points="1170.4273,-307.0211 1159.8341,-306.8373 1168.0006,-313.587 1170.4273,-307.0211"/>
</g>
<!-- epLsar_b0_dist -->
<g id="node5" class="node">
<title>epLsar_b0_dist</title>
<ellipse fill="none" stroke="#000000" cx="1827" cy="-390.3833" rx="70.922" ry="37.4533"/>
<text text-anchor="middle" x="1827" y="-401.6833" font-family="Times,serif" font-size="14.00" fill="#000000">epLsar_b0_dist</text>
<text text-anchor="middle" x="1827" y="-386.6833" font-family="Times,serif" font-size="14.00" fill="#000000">~</text>
<text text-anchor="middle" x="1827" y="-371.6833" font-family="Times,serif" font-size="14.00" fill="#000000">Normal</text>
</g>
<!-- epLsar_b0_dist&#45;&gt;epLsar_b0 -->
<g id="edge2" class="edge">
<title>epLsar_b0_dist&#45;&gt;epLsar_b0</title>
<path fill="none" stroke="#000000" d="M1774.536,-364.8811C1765.7234,-360.7744 1756.6365,-356.6474 1748,-352.9066 1713.863,-338.1208 1675.0092,-322.8206 1644.255,-311.0593"/>
<polygon fill="#000000" stroke="#000000" points="1645.1616,-307.6594 1634.5707,-307.3702 1642.6697,-314.2008 1645.1616,-307.6594"/>
</g>
<!-- epLsar_sigmaY -->
<g id="node6" class="node">
<title>epLsar_sigmaY</title>
<ellipse fill="none" stroke="#000000" cx="1200" cy="-187.43" rx="72.6644" ry="37.4533"/>
<text text-anchor="middle" x="1200" y="-198.73" font-family="Times,serif" font-size="14.00" fill="#000000">epLsar_sigmaY</text>
<text text-anchor="middle" x="1200" y="-183.73" font-family="Times,serif" font-size="14.00" fill="#000000">~</text>
<text text-anchor="middle" x="1200" y="-168.73" font-family="Times,serif" font-size="14.00" fill="#000000">Gamma</text>
</g>
<!-- epLsar_sigmaY&#45;&gt;epLsar_y -->
<g id="edge17" class="edge">
<title>epLsar_sigmaY&#45;&gt;epLsar_y</title>
<path fill="none" stroke="#000000" d="M1145.9486,-162.1751C1136.6677,-157.9973 1127.0871,-153.7829 1118,-149.9533 1072.0317,-130.5807 1019.0404,-110.2506 980.7193,-95.8989"/>
<polygon fill="#000000" stroke="#000000" points="981.8984,-92.6032 971.3059,-92.3832 979.4493,-99.1608 981.8984,-92.6032"/>
</g>
<!-- epLsar_mu -->
<g id="node20" class="node">
<title>epLsar_mu</title>
<polygon fill="none" stroke="#000000" points="973.5,-213.93 882.5,-213.93 882.5,-160.93 973.5,-160.93 973.5,-213.93"/>
<text text-anchor="middle" x="928" y="-198.73" font-family="Times,serif" font-size="14.00" fill="#000000">epLsar_mu</text>
<text text-anchor="middle" x="928" y="-183.73" font-family="Times,serif" font-size="14.00" fill="#000000">~</text>
<text text-anchor="middle" x="928" y="-168.73" font-family="Times,serif" font-size="14.00" fill="#000000">Deterministic</text>
</g>
<!-- epLsar_b0&#45;&gt;epLsar_mu -->
<g id="edge16" class="edge">
<title>epLsar_b0&#45;&gt;epLsar_mu</title>
<path fill="none" stroke="#000000" d="M1543.444,-279.7487C1482.7993,-266.0889 1372.0226,-242.9721 1276,-232.9066 1243.4993,-229.4998 1013.051,-235.0916 982,-224.9066 977.4933,-223.4284 973.0266,-221.4423 968.7057,-219.1523"/>
<polygon fill="#000000" stroke="#000000" points="970.4716,-216.1305 960.0751,-214.09 966.93,-222.1685 970.4716,-216.1305"/>
</g>
<!-- epLsar_b1_dist -->
<g id="node8" class="node">
<title>epLsar_b1_dist</title>
<ellipse fill="none" stroke="#000000" cx="402" cy="-390.3833" rx="70.922" ry="37.4533"/>
<text text-anchor="middle" x="402" y="-401.6833" font-family="Times,serif" font-size="14.00" fill="#000000">epLsar_b1_dist</text>
<text text-anchor="middle" x="402" y="-386.6833" font-family="Times,serif" font-size="14.00" fill="#000000">~</text>
<text text-anchor="middle" x="402" y="-371.6833" font-family="Times,serif" font-size="14.00" fill="#000000">Normal</text>
</g>
<!-- epLsar_b1 -->
<g id="node10" class="node">
<title>epLsar_b1</title>
<polygon fill="none" stroke="#000000" points="300.5,-316.9066 209.5,-316.9066 209.5,-263.9066 300.5,-263.9066 300.5,-316.9066"/>
<text text-anchor="middle" x="255" y="-301.7066" font-family="Times,serif" font-size="14.00" fill="#000000">epLsar_b1</text>
<text text-anchor="middle" x="255" y="-286.7066" font-family="Times,serif" font-size="14.00" fill="#000000">~</text>
<text text-anchor="middle" x="255" y="-271.7066" font-family="Times,serif" font-size="14.00" fill="#000000">Deterministic</text>
</g>
<!-- epLsar_b1_dist&#45;&gt;epLsar_b1 -->
<g id="edge4" class="edge">
<title>epLsar_b1_dist&#45;&gt;epLsar_b1</title>
<path fill="none" stroke="#000000" d="M358.2932,-360.6577C340.8378,-348.7861 320.6838,-335.0791 302.838,-322.9419"/>
<polygon fill="#000000" stroke="#000000" points="304.5218,-319.8543 294.2846,-317.1247 300.5852,-325.6425 304.5218,-319.8543"/>
</g>
<!-- epLsar_b2_dist -->
<g id="node9" class="node">
<title>epLsar_b2_dist</title>
<ellipse fill="none" stroke="#000000" cx="877" cy="-390.3833" rx="70.922" ry="37.4533"/>
<text text-anchor="middle" x="877" y="-401.6833" font-family="Times,serif" font-size="14.00" fill="#000000">epLsar_b2_dist</text>
<text text-anchor="middle" x="877" y="-386.6833" font-family="Times,serif" font-size="14.00" fill="#000000">~</text>
<text text-anchor="middle" x="877" y="-371.6833" font-family="Times,serif" font-size="14.00" fill="#000000">Normal</text>
</g>
<!-- epLsar_b2 -->
<g id="node14" class="node">
<title>epLsar_b2</title>
<polygon fill="none" stroke="#000000" points="775.5,-316.9066 684.5,-316.9066 684.5,-263.9066 775.5,-263.9066 775.5,-316.9066"/>
<text text-anchor="middle" x="730" y="-301.7066" font-family="Times,serif" font-size="14.00" fill="#000000">epLsar_b2</text>
<text text-anchor="middle" x="730" y="-286.7066" font-family="Times,serif" font-size="14.00" fill="#000000">~</text>
<text text-anchor="middle" x="730" y="-271.7066" font-family="Times,serif" font-size="14.00" fill="#000000">Deterministic</text>
</g>
<!-- epLsar_b2_dist&#45;&gt;epLsar_b2 -->
<g id="edge9" class="edge">
<title>epLsar_b2_dist&#45;&gt;epLsar_b2</title>
<path fill="none" stroke="#000000" d="M833.2932,-360.6577C815.8378,-348.7861 795.6838,-335.0791 777.838,-322.9419"/>
<polygon fill="#000000" stroke="#000000" points="779.5218,-319.8543 769.2846,-317.1247 775.5852,-325.6425 779.5218,-319.8543"/>
</g>
<!-- epLsar_b1&#45;&gt;epLsar_mu -->
<g id="edge13" class="edge">
<title>epLsar_b1&#45;&gt;epLsar_mu</title>
<path fill="none" stroke="#000000" d="M300.8883,-276.465C345.8564,-263.3186 416.5446,-244.0205 479,-232.9066 619.3245,-207.936 786.942,-195.4902 872.2075,-190.3778"/>
<polygon fill="#000000" stroke="#000000" points="872.6616,-193.8572 882.4388,-189.776 872.2505,-186.8693 872.6616,-193.8572"/>
</g>
<!-- epLsar_sigma1 -->
<g id="node11" class="node">
<title>epLsar_sigma1</title>
<ellipse fill="none" stroke="#000000" cx="243" cy="-390.3833" rx="70.922" ry="37.4533"/>
<text text-anchor="middle" x="243" y="-401.6833" font-family="Times,serif" font-size="14.00" fill="#000000">epLsar_sigma1</text>
<text text-anchor="middle" x="243" y="-386.6833" font-family="Times,serif" font-size="14.00" fill="#000000">~</text>
<text text-anchor="middle" x="243" y="-371.6833" font-family="Times,serif" font-size="14.00" fill="#000000">HalfNormal</text>
</g>
<!-- epLsar_sigma1&#45;&gt;epLsar_b1 -->
<g id="edge5" class="edge">
<title>epLsar_sigma1&#45;&gt;epLsar_b1</title>
<path fill="none" stroke="#000000" d="M247.5025,-352.8712C248.5032,-344.5341 249.5632,-335.7023 250.5614,-327.3867"/>
<polygon fill="#000000" stroke="#000000" points="254.0666,-327.5516 251.7834,-317.2057 247.1165,-326.7173 254.0666,-327.5516"/>
</g>
<!-- epLsar_mu_b1 -->
<g id="node12" class="node">
<title>epLsar_mu_b1</title>
<ellipse fill="none" stroke="#000000" cx="85" cy="-390.3833" rx="69.0935" ry="37.4533"/>
<text text-anchor="middle" x="85" y="-401.6833" font-family="Times,serif" font-size="14.00" fill="#000000">epLsar_mu_b1</text>
<text text-anchor="middle" x="85" y="-386.6833" font-family="Times,serif" font-size="14.00" fill="#000000">~</text>
<text text-anchor="middle" x="85" y="-371.6833" font-family="Times,serif" font-size="14.00" fill="#000000">Normal</text>
</g>
<!-- epLsar_mu_b1&#45;&gt;epLsar_b1 -->
<g id="edge6" class="edge">
<title>epLsar_mu_b1&#45;&gt;epLsar_b1</title>
<path fill="none" stroke="#000000" d="M132.3545,-362.5342C153.5962,-350.042 178.7686,-335.2382 200.7641,-322.3027"/>
<polygon fill="#000000" stroke="#000000" points="202.8104,-325.1597 209.656,-317.0734 199.2618,-319.1258 202.8104,-325.1597"/>
</g>
<!-- epLsar_sigma2 -->
<g id="node13" class="node">
<title>epLsar_sigma2</title>
<ellipse fill="none" stroke="#000000" cx="718" cy="-390.3833" rx="70.922" ry="37.4533"/>
<text text-anchor="middle" x="718" y="-401.6833" font-family="Times,serif" font-size="14.00" fill="#000000">epLsar_sigma2</text>
<text text-anchor="middle" x="718" y="-386.6833" font-family="Times,serif" font-size="14.00" fill="#000000">~</text>
<text text-anchor="middle" x="718" y="-371.6833" font-family="Times,serif" font-size="14.00" fill="#000000">HalfNormal</text>
</g>
<!-- epLsar_sigma2&#45;&gt;epLsar_b2 -->
<g id="edge7" class="edge">
<title>epLsar_sigma2&#45;&gt;epLsar_b2</title>
<path fill="none" stroke="#000000" d="M722.5025,-352.8712C723.5032,-344.5341 724.5632,-335.7023 725.5614,-327.3867"/>
<polygon fill="#000000" stroke="#000000" points="729.0666,-327.5516 726.7834,-317.2057 722.1165,-326.7173 729.0666,-327.5516"/>
</g>
<!-- epLsar_b2&#45;&gt;epLsar_mu -->
<g id="edge14" class="edge">
<title>epLsar_b2&#45;&gt;epLsar_mu</title>
<path fill="none" stroke="#000000" d="M775.9229,-266.5229C804.9114,-251.4464 842.5201,-231.8867 873.0843,-215.9908"/>
<polygon fill="#000000" stroke="#000000" points="875.0693,-218.9035 882.3262,-211.1842 871.8394,-212.6932 875.0693,-218.9035"/>
</g>
<!-- epLsar_mu_b2 -->
<g id="node15" class="node">
<title>epLsar_mu_b2</title>
<ellipse fill="none" stroke="#000000" cx="560" cy="-390.3833" rx="69.0935" ry="37.4533"/>
<text text-anchor="middle" x="560" y="-401.6833" font-family="Times,serif" font-size="14.00" fill="#000000">epLsar_mu_b2</text>
<text text-anchor="middle" x="560" y="-386.6833" font-family="Times,serif" font-size="14.00" fill="#000000">~</text>
<text text-anchor="middle" x="560" y="-371.6833" font-family="Times,serif" font-size="14.00" fill="#000000">Normal</text>
</g>
<!-- epLsar_mu_b2&#45;&gt;epLsar_b2 -->
<g id="edge8" class="edge">
<title>epLsar_mu_b2&#45;&gt;epLsar_b2</title>
<path fill="none" stroke="#000000" d="M607.3545,-362.5342C628.5962,-350.042 653.7686,-335.2382 675.7641,-322.3027"/>
<polygon fill="#000000" stroke="#000000" points="677.8104,-325.1597 684.656,-317.0734 674.2618,-319.1258 677.8104,-325.1597"/>
</g>
<!-- epLsar_sigma3 -->
<g id="node16" class="node">
<title>epLsar_sigma3</title>
<ellipse fill="none" stroke="#000000" cx="1193" cy="-390.3833" rx="70.922" ry="37.4533"/>
<text text-anchor="middle" x="1193" y="-401.6833" font-family="Times,serif" font-size="14.00" fill="#000000">epLsar_sigma3</text>
<text text-anchor="middle" x="1193" y="-386.6833" font-family="Times,serif" font-size="14.00" fill="#000000">~</text>
<text text-anchor="middle" x="1193" y="-371.6833" font-family="Times,serif" font-size="14.00" fill="#000000">HalfNormal</text>
</g>
<!-- epLsar_sigma3&#45;&gt;epLsar_b3 -->
<g id="edge10" class="edge">
<title>epLsar_sigma3&#45;&gt;epLsar_b3</title>
<path fill="none" stroke="#000000" d="M1165.5913,-355.6969C1157.7925,-345.8273 1149.2978,-335.0769 1141.4939,-325.2009"/>
<polygon fill="#000000" stroke="#000000" points="1144.0777,-322.8254 1135.1316,-317.1493 1138.5854,-327.1654 1144.0777,-322.8254"/>
</g>
<!-- epLsar_b3&#45;&gt;epLsar_mu -->
<g id="edge15" class="edge">
<title>epLsar_b3&#45;&gt;epLsar_mu</title>
<path fill="none" stroke="#000000" d="M1068.2294,-269.7187C1042.4201,-257.5552 1009.8625,-241.3688 982,-224.9066 979.1508,-223.2232 976.2542,-221.4403 973.3574,-219.602"/>
<polygon fill="#000000" stroke="#000000" points="975.0021,-216.4961 964.714,-213.9651 971.1782,-222.3594 975.0021,-216.4961"/>
</g>
<!-- epLsar_mu_b3 -->
<g id="node18" class="node">
<title>epLsar_mu_b3</title>
<ellipse fill="none" stroke="#000000" cx="1035" cy="-390.3833" rx="69.0935" ry="37.4533"/>
<text text-anchor="middle" x="1035" y="-401.6833" font-family="Times,serif" font-size="14.00" fill="#000000">epLsar_mu_b3</text>
<text text-anchor="middle" x="1035" y="-386.6833" font-family="Times,serif" font-size="14.00" fill="#000000">~</text>
<text text-anchor="middle" x="1035" y="-371.6833" font-family="Times,serif" font-size="14.00" fill="#000000">Normal</text>
</g>
<!-- epLsar_mu_b3&#45;&gt;epLsar_b3 -->
<g id="edge12" class="edge">
<title>epLsar_mu_b3&#45;&gt;epLsar_b3</title>
<path fill="none" stroke="#000000" d="M1062.4087,-355.6969C1070.2075,-345.8273 1078.7022,-335.0769 1086.5061,-325.2009"/>
<polygon fill="#000000" stroke="#000000" points="1089.4146,-327.1654 1092.8684,-317.1493 1083.9223,-322.8254 1089.4146,-327.1654"/>
</g>
<!-- epLsar_mu&#45;&gt;epLsar_y -->
<g id="edge18" class="edge">
<title>epLsar_mu&#45;&gt;epLsar_y</title>
<path fill="none" stroke="#000000" d="M928,-160.8539C928,-149.9351 928,-136.944 928,-124.4675"/>
<polygon fill="#000000" stroke="#000000" points="931.5001,-124.1649 928,-114.165 924.5001,-124.165 931.5001,-124.1649"/>
</g>
</g>
</svg>
