<?xml version="1.0" encoding="UTF-8" standalone="no"?>
<!DOCTYPE svg PUBLIC "-//W3C//DTD SVG 1.1//EN"
 "http://www.w3.org/Graphics/SVG/1.1/DTD/svg11.dtd">
<!-- Generated by graphviz version 2.40.1 (20161225.0304)
 -->
<!-- Title: epLsar Pages: 1 -->
<svg width="1890pt" height="452pt"
 viewBox="0.00 0.00 1890.01 451.86" xmlns="http://www.w3.org/2000/svg" xmlns:xlink="http://www.w3.org/1999/xlink">
<g id="graph0" class="graph" transform="scale(1 1) rotate(0) translate(4 447.86)">
<title>epLsar</title>
<polygon fill="#ffffff" stroke="transparent" points="-4,4 -4,-447.86 1886.0071,-447.86 1886.0071,4 -4,4"/>
<g id="clust1" class="cluster">
<title>cluster2</title>
<path fill="none" stroke="#000000" d="M479.2965,-232.9066C479.2965,-232.9066 769.2965,-232.9066 769.2965,-232.9066 775.2965,-232.9066 781.2965,-238.9066 781.2965,-244.9066 781.2965,-244.9066 781.2965,-423.86 781.2965,-423.86 781.2965,-429.86 775.2965,-435.86 769.2965,-435.86 769.2965,-435.86 479.2965,-435.86 479.2965,-435.86 473.2965,-435.86 467.2965,-429.86 467.2965,-423.86 467.2965,-423.86 467.2965,-244.9066 467.2965,-244.9066 467.2965,-238.9066 473.2965,-232.9066 479.2965,-232.9066"/>
<text text-anchor="middle" x="769.7965" y="-240.7066" font-family="Times,serif" font-size="14.00" fill="#000000">2</text>
</g>
<g id="clust2" class="cluster">
<title>cluster11</title>
<path fill="none" stroke="#000000" d="M953.2965,-232.9066C953.2965,-232.9066 1243.2965,-232.9066 1243.2965,-232.9066 1249.2965,-232.9066 1255.2965,-238.9066 1255.2965,-244.9066 1255.2965,-244.9066 1255.2965,-423.86 1255.2965,-423.86 1255.2965,-429.86 1249.2965,-435.86 1243.2965,-435.86 1243.2965,-435.86 953.2965,-435.86 953.2965,-435.86 947.2965,-435.86 941.2965,-429.86 941.2965,-423.86 941.2965,-423.86 941.2965,-244.9066 941.2965,-244.9066 941.2965,-238.9066 947.2965,-232.9066 953.2965,-232.9066"/>
<text text-anchor="middle" x="1240.2965" y="-240.7066" font-family="Times,serif" font-size="14.00" fill="#000000">11</text>
</g>
<g id="clust3" class="cluster">
<title>cluster139</title>
<path fill="none" stroke="#000000" d="M1428.2965,-232.9066C1428.2965,-232.9066 1718.2965,-232.9066 1718.2965,-232.9066 1724.2965,-232.9066 1730.2965,-238.9066 1730.2965,-244.9066 1730.2965,-244.9066 1730.2965,-423.86 1730.2965,-423.86 1730.2965,-429.86 1724.2965,-435.86 1718.2965,-435.86 1718.2965,-435.86 1428.2965,-435.86 1428.2965,-435.86 1422.2965,-435.86 1416.2965,-429.86 1416.2965,-423.86 1416.2965,-423.86 1416.2965,-244.9066 1416.2965,-244.9066 1416.2965,-238.9066 1422.2965,-232.9066 1428.2965,-232.9066"/>
<text text-anchor="middle" x="1711.7965" y="-240.7066" font-family="Times,serif" font-size="14.00" fill="#000000">139</text>
</g>
<g id="clust4" class="cluster">
<title>cluster278</title>
<path fill="none" stroke="#000000" d="M869.2965,-8C869.2965,-8 955.2965,-8 955.2965,-8 961.2965,-8 967.2965,-14 967.2965,-20 967.2965,-20 967.2965,-209.93 967.2965,-209.93 967.2965,-215.93 961.2965,-221.93 955.2965,-221.93 955.2965,-221.93 869.2965,-221.93 869.2965,-221.93 863.2965,-221.93 857.2965,-215.93 857.2965,-209.93 857.2965,-209.93 857.2965,-20 857.2965,-20 857.2965,-14 863.2965,-8 869.2965,-8"/>
<text text-anchor="middle" x="948.7965" y="-15.8" font-family="Times,serif" font-size="14.00" fill="#000000">278</text>
</g>
<!-- epLsar_nuY -->
<g id="node1" class="node">
<title>epLsar_nuY</title>
<ellipse fill="none" stroke="#000000" cx="790.2965" cy="-187.43" rx="58.8803" ry="37.4533"/>
<text text-anchor="middle" x="790.2965" y="-198.73" font-family="Times,serif" font-size="14.00" fill="#000000">epLsar_nuY</text>
<text text-anchor="middle" x="790.2965" y="-183.73" font-family="Times,serif" font-size="14.00" fill="#000000">~</text>
<text text-anchor="middle" x="790.2965" y="-168.73" font-family="Times,serif" font-size="14.00" fill="#000000">Exponential</text>
</g>
<!-- epLsar_y -->
<g id="node19" class="node">
<title>epLsar_y</title>
<ellipse fill="#d3d3d3" stroke="#000000" cx="912.2965" cy="-76.4767" rx="47.2526" ry="37.4533"/>
<text text-anchor="middle" x="912.2965" y="-87.7767" font-family="Times,serif" font-size="14.00" fill="#000000">epLsar_y</text>
<text text-anchor="middle" x="912.2965" y="-72.7767" font-family="Times,serif" font-size="14.00" fill="#000000">~</text>
<text text-anchor="middle" x="912.2965" y="-57.7767" font-family="Times,serif" font-size="14.00" fill="#000000">StudentT</text>
</g>
<!-- epLsar_nuY&#45;&gt;epLsar_y -->
<g id="edge17" class="edge">
<title>epLsar_nuY&#45;&gt;epLsar_y</title>
<path fill="none" stroke="#000000" d="M824.2803,-156.5233C839.5491,-142.637 857.648,-126.1769 873.4512,-111.8046"/>
<polygon fill="#000000" stroke="#000000" points="875.959,-114.2549 881.0022,-104.9373 871.2493,-109.0762 875.959,-114.2549"/>
</g>
<!-- epLsar_b0 -->
<g id="node2" class="node">
<title>epLsar_b0</title>
<polygon fill="none" stroke="#000000" points="352.7965,-316.9066 261.7965,-316.9066 261.7965,-263.9066 352.7965,-263.9066 352.7965,-316.9066"/>
<text text-anchor="middle" x="307.2965" y="-301.7066" font-family="Times,serif" font-size="14.00" fill="#000000">epLsar_b0</text>
<text text-anchor="middle" x="307.2965" y="-286.7066" font-family="Times,serif" font-size="14.00" fill="#000000">~</text>
<text text-anchor="middle" x="307.2965" y="-271.7066" font-family="Times,serif" font-size="14.00" fill="#000000">Deterministic</text>
</g>
<!-- epLsar_mu -->
<g id="node20" class="node">
<title>epLsar_mu</title>
<polygon fill="none" stroke="#000000" points="957.7965,-213.93 866.7965,-213.93 866.7965,-160.93 957.7965,-160.93 957.7965,-213.93"/>
<text text-anchor="middle" x="912.2965" y="-198.73" font-family="Times,serif" font-size="14.00" fill="#000000">epLsar_mu</text>
<text text-anchor="middle" x="912.2965" y="-183.73" font-family="Times,serif" font-size="14.00" fill="#000000">~</text>
<text text-anchor="middle" x="912.2965" y="-168.73" font-family="Times,serif" font-size="14.00" fill="#000000">Deterministic</text>
</g>
<!-- epLsar_b0&#45;&gt;epLsar_mu -->
<g id="edge16" class="edge">
<title>epLsar_b0&#45;&gt;epLsar_mu</title>
<path fill="none" stroke="#000000" d="M352.9038,-269.0059C383.4123,-255.8497 424.8647,-240.1662 463.2965,-232.9066 506.4315,-224.7587 816.5378,-238.4432 858.2965,-224.9066 862.8727,-223.4232 867.4061,-221.4121 871.7867,-219.0872"/>
<polygon fill="#000000" stroke="#000000" points="873.6849,-222.0313 880.5285,-213.9433 870.1349,-215.9983 873.6849,-222.0313"/>
</g>
<!-- epLsar_sigmaY -->
<g id="node3" class="node">
<title>epLsar_sigmaY</title>
<ellipse fill="none" stroke="#000000" cx="1048.2965" cy="-187.43" rx="72.6644" ry="37.4533"/>
<text text-anchor="middle" x="1048.2965" y="-198.73" font-family="Times,serif" font-size="14.00" fill="#000000">epLsar_sigmaY</text>
<text text-anchor="middle" x="1048.2965" y="-183.73" font-family="Times,serif" font-size="14.00" fill="#000000">~</text>
<text text-anchor="middle" x="1048.2965" y="-168.73" font-family="Times,serif" font-size="14.00" fill="#000000">Gamma</text>
</g>
<!-- epLsar_sigmaY&#45;&gt;epLsar_y -->
<g id="edge19" class="edge">
<title>epLsar_sigmaY&#45;&gt;epLsar_y</title>
<path fill="none" stroke="#000000" d="M1009.3243,-155.6352C991.763,-141.3081 971.0219,-124.3868 953.2334,-109.8744"/>
<polygon fill="#000000" stroke="#000000" points="955.2512,-107.0035 945.2901,-103.394 950.8261,-112.4275 955.2512,-107.0035"/>
</g>
<!-- epLsar_b1_dist -->
<g id="node4" class="node">
<title>epLsar_b1_dist</title>
<ellipse fill="none" stroke="#000000" cx="861.2965" cy="-390.3833" rx="70.922" ry="37.4533"/>
<text text-anchor="middle" x="861.2965" y="-401.6833" font-family="Times,serif" font-size="14.00" fill="#000000">epLsar_b1_dist</text>
<text text-anchor="middle" x="861.2965" y="-386.6833" font-family="Times,serif" font-size="14.00" fill="#000000">~</text>
<text text-anchor="middle" x="861.2965" y="-371.6833" font-family="Times,serif" font-size="14.00" fill="#000000">Normal</text>
</g>
<!-- epLsar_b1 -->
<g id="node10" class="node">
<title>epLsar_b1</title>
<polygon fill="none" stroke="#000000" points="759.7965,-316.9066 668.7965,-316.9066 668.7965,-263.9066 759.7965,-263.9066 759.7965,-316.9066"/>
<text text-anchor="middle" x="714.2965" y="-301.7066" font-family="Times,serif" font-size="14.00" fill="#000000">epLsar_b1</text>
<text text-anchor="middle" x="714.2965" y="-286.7066" font-family="Times,serif" font-size="14.00" fill="#000000">~</text>
<text text-anchor="middle" x="714.2965" y="-271.7066" font-family="Times,serif" font-size="14.00" fill="#000000">Deterministic</text>
</g>
<!-- epLsar_b1_dist&#45;&gt;epLsar_b1 -->
<g id="edge4" class="edge">
<title>epLsar_b1_dist&#45;&gt;epLsar_b1</title>
<path fill="none" stroke="#000000" d="M817.5896,-360.6577C800.1343,-348.7861 779.9803,-335.0791 762.1345,-322.9419"/>
<polygon fill="#000000" stroke="#000000" points="763.8183,-319.8543 753.5811,-317.1247 759.8816,-325.6425 763.8183,-319.8543"/>
</g>
<!-- epLsar_mu_b0 -->
<g id="node5" class="node">
<title>epLsar_mu_b0</title>
<ellipse fill="none" stroke="#000000" cx="69.2965" cy="-390.3833" rx="69.0935" ry="37.4533"/>
<text text-anchor="middle" x="69.2965" y="-401.6833" font-family="Times,serif" font-size="14.00" fill="#000000">epLsar_mu_b0</text>
<text text-anchor="middle" x="69.2965" y="-386.6833" font-family="Times,serif" font-size="14.00" fill="#000000">~</text>
<text text-anchor="middle" x="69.2965" y="-371.6833" font-family="Times,serif" font-size="14.00" fill="#000000">Normal</text>
</g>
<!-- epLsar_mu_b0&#45;&gt;epLsar_b0 -->
<g id="edge1" class="edge">
<title>epLsar_mu_b0&#45;&gt;epLsar_b0</title>
<path fill="none" stroke="#000000" d="M120.6497,-365.0338C129.485,-360.8669 138.6166,-356.6807 147.2965,-352.9066 181.8709,-337.8733 221.3169,-322.4459 252.3912,-310.6798"/>
<polygon fill="#000000" stroke="#000000" points="253.6295,-313.9535 261.7515,-307.1503 251.1597,-307.4037 253.6295,-313.9535"/>
</g>
<!-- epLsar_b3_dist -->
<g id="node6" class="node">
<title>epLsar_b3_dist</title>
<ellipse fill="none" stroke="#000000" cx="1811.2965" cy="-390.3833" rx="70.922" ry="37.4533"/>
<text text-anchor="middle" x="1811.2965" y="-401.6833" font-family="Times,serif" font-size="14.00" fill="#000000">epLsar_b3_dist</text>
<text text-anchor="middle" x="1811.2965" y="-386.6833" font-family="Times,serif" font-size="14.00" fill="#000000">~</text>
<text text-anchor="middle" x="1811.2965" y="-371.6833" font-family="Times,serif" font-size="14.00" fill="#000000">Normal</text>
</g>
<!-- epLsar_b3 -->
<g id="node16" class="node">
<title>epLsar_b3</title>
<polygon fill="none" stroke="#000000" points="1619.7965,-316.9066 1528.7965,-316.9066 1528.7965,-263.9066 1619.7965,-263.9066 1619.7965,-316.9066"/>
<text text-anchor="middle" x="1574.2965" y="-301.7066" font-family="Times,serif" font-size="14.00" fill="#000000">epLsar_b3</text>
<text text-anchor="middle" x="1574.2965" y="-286.7066" font-family="Times,serif" font-size="14.00" fill="#000000">~</text>
<text text-anchor="middle" x="1574.2965" y="-271.7066" font-family="Times,serif" font-size="14.00" fill="#000000">Deterministic</text>
</g>
<!-- epLsar_b3_dist&#45;&gt;epLsar_b3 -->
<g id="edge12" class="edge">
<title>epLsar_b3_dist&#45;&gt;epLsar_b3</title>
<path fill="none" stroke="#000000" d="M1759.7895,-364.6074C1751.3247,-360.5757 1742.6042,-356.5439 1734.2965,-352.9066 1699.7602,-337.786 1660.3146,-322.3574 1629.231,-310.6127"/>
<polygon fill="#000000" stroke="#000000" points="1630.4595,-307.3354 1619.8675,-307.0904 1627.9949,-313.8872 1630.4595,-307.3354"/>
</g>
<!-- epLsar_b0_dist -->
<g id="node7" class="node">
<title>epLsar_b0_dist</title>
<ellipse fill="none" stroke="#000000" cx="227.2965" cy="-390.3833" rx="70.922" ry="37.4533"/>
<text text-anchor="middle" x="227.2965" y="-401.6833" font-family="Times,serif" font-size="14.00" fill="#000000">epLsar_b0_dist</text>
<text text-anchor="middle" x="227.2965" y="-386.6833" font-family="Times,serif" font-size="14.00" fill="#000000">~</text>
<text text-anchor="middle" x="227.2965" y="-371.6833" font-family="Times,serif" font-size="14.00" fill="#000000">Normal</text>
</g>
<!-- epLsar_b0_dist&#45;&gt;epLsar_b0 -->
<g id="edge2" class="edge">
<title>epLsar_b0_dist&#45;&gt;epLsar_b0</title>
<path fill="none" stroke="#000000" d="M255.0521,-355.6969C262.9496,-345.8273 271.5519,-335.0769 279.4545,-325.2009"/>
<polygon fill="#000000" stroke="#000000" points="282.3823,-327.144 285.8974,-317.1493 276.9167,-322.7705 282.3823,-327.144"/>
</g>
<!-- epLsar_b2_dist -->
<g id="node8" class="node">
<title>epLsar_b2_dist</title>
<ellipse fill="none" stroke="#000000" cx="1336.2965" cy="-390.3833" rx="70.922" ry="37.4533"/>
<text text-anchor="middle" x="1336.2965" y="-401.6833" font-family="Times,serif" font-size="14.00" fill="#000000">epLsar_b2_dist</text>
<text text-anchor="middle" x="1336.2965" y="-386.6833" font-family="Times,serif" font-size="14.00" fill="#000000">~</text>
<text text-anchor="middle" x="1336.2965" y="-371.6833" font-family="Times,serif" font-size="14.00" fill="#000000">Normal</text>
</g>
<!-- epLsar_b2 -->
<g id="node13" class="node">
<title>epLsar_b2</title>
<polygon fill="none" stroke="#000000" points="1144.7965,-316.9066 1053.7965,-316.9066 1053.7965,-263.9066 1144.7965,-263.9066 1144.7965,-316.9066"/>
<text text-anchor="middle" x="1099.2965" y="-301.7066" font-family="Times,serif" font-size="14.00" fill="#000000">epLsar_b2</text>
<text text-anchor="middle" x="1099.2965" y="-286.7066" font-family="Times,serif" font-size="14.00" fill="#000000">~</text>
<text text-anchor="middle" x="1099.2965" y="-271.7066" font-family="Times,serif" font-size="14.00" fill="#000000">Deterministic</text>
</g>
<!-- epLsar_b2_dist&#45;&gt;epLsar_b2 -->
<g id="edge9" class="edge">
<title>epLsar_b2_dist&#45;&gt;epLsar_b2</title>
<path fill="none" stroke="#000000" d="M1284.7895,-364.6074C1276.3247,-360.5757 1267.6042,-356.5439 1259.2965,-352.9066 1224.7602,-337.786 1185.3146,-322.3574 1154.231,-310.6127"/>
<polygon fill="#000000" stroke="#000000" points="1155.4595,-307.3354 1144.8675,-307.0904 1152.9949,-313.8872 1155.4595,-307.3354"/>
</g>
<!-- epLsar_sigma0 -->
<g id="node9" class="node">
<title>epLsar_sigma0</title>
<ellipse fill="none" stroke="#000000" cx="386.2965" cy="-390.3833" rx="70.922" ry="37.4533"/>
<text text-anchor="middle" x="386.2965" y="-401.6833" font-family="Times,serif" font-size="14.00" fill="#000000">epLsar_sigma0</text>
<text text-anchor="middle" x="386.2965" y="-386.6833" font-family="Times,serif" font-size="14.00" fill="#000000">~</text>
<text text-anchor="middle" x="386.2965" y="-371.6833" font-family="Times,serif" font-size="14.00" fill="#000000">HalfNormal</text>
</g>
<!-- epLsar_sigma0&#45;&gt;epLsar_b0 -->
<g id="edge3" class="edge">
<title>epLsar_sigma0&#45;&gt;epLsar_b0</title>
<path fill="none" stroke="#000000" d="M358.8878,-355.6969C351.089,-345.8273 342.5942,-335.0769 334.7904,-325.2009"/>
<polygon fill="#000000" stroke="#000000" points="337.3741,-322.8254 328.4281,-317.1493 331.8818,-327.1654 337.3741,-322.8254"/>
</g>
<!-- epLsar_b1&#45;&gt;epLsar_mu -->
<g id="edge14" class="edge">
<title>epLsar_b1&#45;&gt;epLsar_mu</title>
<path fill="none" stroke="#000000" d="M760.086,-272.074C788.9117,-259.9292 826.5386,-242.955 858.2965,-224.9066 861.3147,-223.1913 864.3782,-221.3545 867.4335,-219.4492"/>
<polygon fill="#000000" stroke="#000000" points="869.4685,-222.3016 875.9782,-213.9425 865.6765,-216.4176 869.4685,-222.3016"/>
</g>
<!-- epLsar_sigma1 -->
<g id="node11" class="node">
<title>epLsar_sigma1</title>
<ellipse fill="none" stroke="#000000" cx="702.2965" cy="-390.3833" rx="70.922" ry="37.4533"/>
<text text-anchor="middle" x="702.2965" y="-401.6833" font-family="Times,serif" font-size="14.00" fill="#000000">epLsar_sigma1</text>
<text text-anchor="middle" x="702.2965" y="-386.6833" font-family="Times,serif" font-size="14.00" fill="#000000">~</text>
<text text-anchor="middle" x="702.2965" y="-371.6833" font-family="Times,serif" font-size="14.00" fill="#000000">HalfNormal</text>
</g>
<!-- epLsar_sigma1&#45;&gt;epLsar_b1 -->
<g id="edge5" class="edge">
<title>epLsar_sigma1&#45;&gt;epLsar_b1</title>
<path fill="none" stroke="#000000" d="M706.799,-352.8712C707.7997,-344.5341 708.8597,-335.7023 709.8578,-327.3867"/>
<polygon fill="#000000" stroke="#000000" points="713.3631,-327.5516 711.0798,-317.2057 706.413,-326.7173 713.3631,-327.5516"/>
</g>
<!-- epLsar_mu_b1 -->
<g id="node12" class="node">
<title>epLsar_mu_b1</title>
<ellipse fill="none" stroke="#000000" cx="544.2965" cy="-390.3833" rx="69.0935" ry="37.4533"/>
<text text-anchor="middle" x="544.2965" y="-401.6833" font-family="Times,serif" font-size="14.00" fill="#000000">epLsar_mu_b1</text>
<text text-anchor="middle" x="544.2965" y="-386.6833" font-family="Times,serif" font-size="14.00" fill="#000000">~</text>
<text text-anchor="middle" x="544.2965" y="-371.6833" font-family="Times,serif" font-size="14.00" fill="#000000">Normal</text>
</g>
<!-- epLsar_mu_b1&#45;&gt;epLsar_b1 -->
<g id="edge6" class="edge">
<title>epLsar_mu_b1&#45;&gt;epLsar_b1</title>
<path fill="none" stroke="#000000" d="M591.6509,-362.5342C612.8927,-350.042 638.0651,-335.2382 660.0605,-322.3027"/>
<polygon fill="#000000" stroke="#000000" points="662.1068,-325.1597 668.9524,-317.0734 658.5583,-319.1258 662.1068,-325.1597"/>
</g>
<!-- epLsar_b2&#45;&gt;epLsar_mu -->
<g id="edge13" class="edge">
<title>epLsar_b2&#45;&gt;epLsar_mu</title>
<path fill="none" stroke="#000000" d="M1053.7818,-270.0507C1027.6763,-257.8699 994.5751,-241.5575 966.2965,-224.9066 963.4447,-223.2275 960.5462,-221.4479 957.6479,-219.6121"/>
<polygon fill="#000000" stroke="#000000" points="959.291,-216.5053 949.0014,-213.9804 955.4706,-222.3709 959.291,-216.5053"/>
</g>
<!-- epLsar_mu_b2 -->
<g id="node14" class="node">
<title>epLsar_mu_b2</title>
<ellipse fill="none" stroke="#000000" cx="1178.2965" cy="-390.3833" rx="69.0935" ry="37.4533"/>
<text text-anchor="middle" x="1178.2965" y="-401.6833" font-family="Times,serif" font-size="14.00" fill="#000000">epLsar_mu_b2</text>
<text text-anchor="middle" x="1178.2965" y="-386.6833" font-family="Times,serif" font-size="14.00" fill="#000000">~</text>
<text text-anchor="middle" x="1178.2965" y="-371.6833" font-family="Times,serif" font-size="14.00" fill="#000000">Normal</text>
</g>
<!-- epLsar_mu_b2&#45;&gt;epLsar_b2 -->
<g id="edge7" class="edge">
<title>epLsar_mu_b2&#45;&gt;epLsar_b2</title>
<path fill="none" stroke="#000000" d="M1150.8878,-355.6969C1143.089,-345.8273 1134.5942,-335.0769 1126.7904,-325.2009"/>
<polygon fill="#000000" stroke="#000000" points="1129.3741,-322.8254 1120.4281,-317.1493 1123.8818,-327.1654 1129.3741,-322.8254"/>
</g>
<!-- epLsar_sigma2 -->
<g id="node15" class="node">
<title>epLsar_sigma2</title>
<ellipse fill="none" stroke="#000000" cx="1020.2965" cy="-390.3833" rx="70.922" ry="37.4533"/>
<text text-anchor="middle" x="1020.2965" y="-401.6833" font-family="Times,serif" font-size="14.00" fill="#000000">epLsar_sigma2</text>
<text text-anchor="middle" x="1020.2965" y="-386.6833" font-family="Times,serif" font-size="14.00" fill="#000000">~</text>
<text text-anchor="middle" x="1020.2965" y="-371.6833" font-family="Times,serif" font-size="14.00" fill="#000000">HalfNormal</text>
</g>
<!-- epLsar_sigma2&#45;&gt;epLsar_b2 -->
<g id="edge8" class="edge">
<title>epLsar_sigma2&#45;&gt;epLsar_b2</title>
<path fill="none" stroke="#000000" d="M1047.7051,-355.6969C1055.5039,-345.8273 1063.9987,-335.0769 1071.8025,-325.2009"/>
<polygon fill="#000000" stroke="#000000" points="1074.7111,-327.1654 1078.1648,-317.1493 1069.2188,-322.8254 1074.7111,-327.1654"/>
</g>
<!-- epLsar_b3&#45;&gt;epLsar_mu -->
<g id="edge15" class="edge">
<title>epLsar_b3&#45;&gt;epLsar_mu</title>
<path fill="none" stroke="#000000" d="M1528.7065,-279.811C1467.7268,-266.1628 1356.0561,-242.9987 1259.2965,-232.9066 1226.9045,-229.5281 997.2415,-235.0584 966.2965,-224.9066 961.7899,-223.4282 957.3232,-221.442 953.0023,-219.1518"/>
<polygon fill="#000000" stroke="#000000" points="954.7683,-216.13 944.3718,-214.0895 951.2266,-222.168 954.7683,-216.13"/>
</g>
<!-- epLsar_mu_b3 -->
<g id="node17" class="node">
<title>epLsar_mu_b3</title>
<ellipse fill="none" stroke="#000000" cx="1653.2965" cy="-390.3833" rx="69.0935" ry="37.4533"/>
<text text-anchor="middle" x="1653.2965" y="-401.6833" font-family="Times,serif" font-size="14.00" fill="#000000">epLsar_mu_b3</text>
<text text-anchor="middle" x="1653.2965" y="-386.6833" font-family="Times,serif" font-size="14.00" fill="#000000">~</text>
<text text-anchor="middle" x="1653.2965" y="-371.6833" font-family="Times,serif" font-size="14.00" fill="#000000">Normal</text>
</g>
<!-- epLsar_mu_b3&#45;&gt;epLsar_b3 -->
<g id="edge11" class="edge">
<title>epLsar_mu_b3&#45;&gt;epLsar_b3</title>
<path fill="none" stroke="#000000" d="M1625.8878,-355.6969C1618.089,-345.8273 1609.5942,-335.0769 1601.7904,-325.2009"/>
<polygon fill="#000000" stroke="#000000" points="1604.3741,-322.8254 1595.4281,-317.1493 1598.8818,-327.1654 1604.3741,-322.8254"/>
</g>
<!-- epLsar_sigma3 -->
<g id="node18" class="node">
<title>epLsar_sigma3</title>
<ellipse fill="none" stroke="#000000" cx="1495.2965" cy="-390.3833" rx="70.922" ry="37.4533"/>
<text text-anchor="middle" x="1495.2965" y="-401.6833" font-family="Times,serif" font-size="14.00" fill="#000000">epLsar_sigma3</text>
<text text-anchor="middle" x="1495.2965" y="-386.6833" font-family="Times,serif" font-size="14.00" fill="#000000">~</text>
<text text-anchor="middle" x="1495.2965" y="-371.6833" font-family="Times,serif" font-size="14.00" fill="#000000">HalfNormal</text>
</g>
<!-- epLsar_sigma3&#45;&gt;epLsar_b3 -->
<g id="edge10" class="edge">
<title>epLsar_sigma3&#45;&gt;epLsar_b3</title>
<path fill="none" stroke="#000000" d="M1522.7051,-355.6969C1530.5039,-345.8273 1538.9987,-335.0769 1546.8025,-325.2009"/>
<polygon fill="#000000" stroke="#000000" points="1549.7111,-327.1654 1553.1648,-317.1493 1544.2188,-322.8254 1549.7111,-327.1654"/>
</g>
<!-- epLsar_mu&#45;&gt;epLsar_y -->
<g id="edge18" class="edge">
<title>epLsar_mu&#45;&gt;epLsar_y</title>
<path fill="none" stroke="#000000" d="M912.2965,-160.8539C912.2965,-149.9351 912.2965,-136.944 912.2965,-124.4675"/>
<polygon fill="#000000" stroke="#000000" points="915.7966,-124.1649 912.2965,-114.165 908.7966,-124.165 915.7966,-124.1649"/>
</g>
</g>
</svg>
