<?xml version="1.0" encoding="UTF-8" standalone="no"?>
<!DOCTYPE svg PUBLIC "-//W3C//DTD SVG 1.1//EN"
 "http://www.w3.org/Graphics/SVG/1.1/DTD/svg11.dtd">
<!-- Generated by graphviz version 2.40.1 (20161225.0304)
 -->
<!-- Title: Smfc Pages: 1 -->
<svg width="1812pt" height="563pt"
 viewBox="0.00 0.00 1812.30 562.81" xmlns="http://www.w3.org/2000/svg" xmlns:xlink="http://www.w3.org/1999/xlink">
<g id="graph0" class="graph" transform="scale(1 1) rotate(0) translate(4 558.8133)">
<title>Smfc</title>
<polygon fill="#ffffff" stroke="transparent" points="-4,4 -4,-558.8133 1808.3,-558.8133 1808.3,4 -4,4"/>
<g id="clust1" class="cluster">
<title>cluster2</title>
<path fill="none" stroke="#000000" d="M894.0538,-232.9066C894.0538,-232.9066 1162.0538,-232.9066 1162.0538,-232.9066 1168.0538,-232.9066 1174.0538,-238.9066 1174.0538,-244.9066 1174.0538,-244.9066 1174.0538,-423.86 1174.0538,-423.86 1174.0538,-429.86 1168.0538,-435.86 1162.0538,-435.86 1162.0538,-435.86 894.0538,-435.86 894.0538,-435.86 888.0538,-435.86 882.0538,-429.86 882.0538,-423.86 882.0538,-423.86 882.0538,-244.9066 882.0538,-244.9066 882.0538,-238.9066 888.0538,-232.9066 894.0538,-232.9066"/>
<text text-anchor="middle" x="1162.5538" y="-240.7066" font-family="Times,serif" font-size="14.00" fill="#000000">2</text>
</g>
<g id="clust2" class="cluster">
<title>cluster11</title>
<path fill="none" stroke="#000000" d="M152.0538,-232.9066C152.0538,-232.9066 425.0538,-232.9066 425.0538,-232.9066 431.0538,-232.9066 437.0538,-238.9066 437.0538,-244.9066 437.0538,-244.9066 437.0538,-534.8133 437.0538,-534.8133 437.0538,-540.8133 431.0538,-546.8133 425.0538,-546.8133 425.0538,-546.8133 152.0538,-546.8133 152.0538,-546.8133 146.0538,-546.8133 140.0538,-540.8133 140.0538,-534.8133 140.0538,-534.8133 140.0538,-244.9066 140.0538,-244.9066 140.0538,-238.9066 146.0538,-232.9066 152.0538,-232.9066"/>
<text text-anchor="middle" x="422.0538" y="-240.7066" font-family="Times,serif" font-size="14.00" fill="#000000">11</text>
</g>
<g id="clust3" class="cluster">
<title>cluster2 x 11</title>
<path fill="none" stroke="#000000" d="M1336.0538,-232.9066C1336.0538,-232.9066 1476.0538,-232.9066 1476.0538,-232.9066 1482.0538,-232.9066 1488.0538,-238.9066 1488.0538,-244.9066 1488.0538,-244.9066 1488.0538,-423.86 1488.0538,-423.86 1488.0538,-429.86 1482.0538,-435.86 1476.0538,-435.86 1476.0538,-435.86 1336.0538,-435.86 1336.0538,-435.86 1330.0538,-435.86 1324.0538,-429.86 1324.0538,-423.86 1324.0538,-423.86 1324.0538,-244.9066 1324.0538,-244.9066 1324.0538,-238.9066 1330.0538,-232.9066 1336.0538,-232.9066"/>
<text text-anchor="middle" x="1462.5538" y="-240.7066" font-family="Times,serif" font-size="14.00" fill="#000000">2 x 11</text>
</g>
<g id="clust4" class="cluster">
<title>cluster230</title>
<path fill="none" stroke="#000000" d="M874.0538,-8C874.0538,-8 960.0538,-8 960.0538,-8 966.0538,-8 972.0538,-14 972.0538,-20 972.0538,-20 972.0538,-209.93 972.0538,-209.93 972.0538,-215.93 966.0538,-221.93 960.0538,-221.93 960.0538,-221.93 874.0538,-221.93 874.0538,-221.93 868.0538,-221.93 862.0538,-215.93 862.0538,-209.93 862.0538,-209.93 862.0538,-20 862.0538,-20 862.0538,-14 868.0538,-8 874.0538,-8"/>
<text text-anchor="middle" x="953.5538" y="-15.8" font-family="Times,serif" font-size="14.00" fill="#000000">230</text>
</g>
<!-- Smfc_b2_dist -->
<g id="node1" class="node">
<title>Smfc_b2_dist</title>
<ellipse fill="none" stroke="#000000" cx="65.0538" cy="-390.3833" rx="65.1077" ry="37.4533"/>
<text text-anchor="middle" x="65.0538" y="-401.6833" font-family="Times,serif" font-size="14.00" fill="#000000">Smfc_b2_dist</text>
<text text-anchor="middle" x="65.0538" y="-386.6833" font-family="Times,serif" font-size="14.00" fill="#000000">~</text>
<text text-anchor="middle" x="65.0538" y="-371.6833" font-family="Times,serif" font-size="14.00" fill="#000000">Gumbel</text>
</g>
<!-- Smfc_b2 -->
<g id="node17" class="node">
<title>Smfc_b2</title>
<polygon fill="none" stroke="#000000" points="332.5538,-316.9066 241.5538,-316.9066 241.5538,-263.9066 332.5538,-263.9066 332.5538,-316.9066"/>
<text text-anchor="middle" x="287.0538" y="-301.7066" font-family="Times,serif" font-size="14.00" fill="#000000">Smfc_b2</text>
<text text-anchor="middle" x="287.0538" y="-286.7066" font-family="Times,serif" font-size="14.00" fill="#000000">~</text>
<text text-anchor="middle" x="287.0538" y="-271.7066" font-family="Times,serif" font-size="14.00" fill="#000000">Deterministic</text>
</g>
<!-- Smfc_b2_dist&#45;&gt;Smfc_b2 -->
<g id="edge8" class="edge">
<title>Smfc_b2_dist&#45;&gt;Smfc_b2</title>
<path fill="none" stroke="#000000" d="M112.4855,-364.5671C120.2984,-360.5405 128.3579,-356.5208 136.0538,-352.9066 167.3176,-338.2244 202.9939,-323.3724 231.8162,-311.8325"/>
<polygon fill="#000000" stroke="#000000" points="233.3162,-315.0025 241.3116,-308.0509 230.7263,-308.4992 233.3162,-315.0025"/>
</g>
<!-- Smfc_mu_b0 -->
<g id="node2" class="node">
<title>Smfc_mu_b0</title>
<ellipse fill="none" stroke="#000000" cx="512.0538" cy="-390.3833" rx="64.1938" ry="37.4533"/>
<text text-anchor="middle" x="512.0538" y="-401.6833" font-family="Times,serif" font-size="14.00" fill="#000000">Smfc_mu_b0</text>
<text text-anchor="middle" x="512.0538" y="-386.6833" font-family="Times,serif" font-size="14.00" fill="#000000">~</text>
<text text-anchor="middle" x="512.0538" y="-371.6833" font-family="Times,serif" font-size="14.00" fill="#000000">Normal</text>
</g>
<!-- Smfc_b0 -->
<g id="node6" class="node">
<title>Smfc_b0</title>
<polygon fill="none" stroke="#000000" points="778.5538,-316.9066 687.5538,-316.9066 687.5538,-263.9066 778.5538,-263.9066 778.5538,-316.9066"/>
<text text-anchor="middle" x="733.0538" y="-301.7066" font-family="Times,serif" font-size="14.00" fill="#000000">Smfc_b0</text>
<text text-anchor="middle" x="733.0538" y="-286.7066" font-family="Times,serif" font-size="14.00" fill="#000000">~</text>
<text text-anchor="middle" x="733.0538" y="-271.7066" font-family="Times,serif" font-size="14.00" fill="#000000">Deterministic</text>
</g>
<!-- Smfc_mu_b0&#45;&gt;Smfc_b0 -->
<g id="edge2" class="edge">
<title>Smfc_mu_b0&#45;&gt;Smfc_b0</title>
<path fill="none" stroke="#000000" d="M560.1008,-365.0745C568.3714,-360.9029 576.9219,-356.7046 585.0538,-352.9066 615.3458,-338.759 649.718,-324.1576 677.7083,-312.629"/>
<polygon fill="#000000" stroke="#000000" points="679.4013,-315.7177 687.3255,-308.6852 676.7453,-309.2411 679.4013,-315.7177"/>
</g>
<!-- Smfc_nuY -->
<g id="node3" class="node">
<title>Smfc_nuY</title>
<ellipse fill="none" stroke="#000000" cx="1038.0538" cy="-187.43" rx="57.9655" ry="37.4533"/>
<text text-anchor="middle" x="1038.0538" y="-198.73" font-family="Times,serif" font-size="14.00" fill="#000000">Smfc_nuY</text>
<text text-anchor="middle" x="1038.0538" y="-183.73" font-family="Times,serif" font-size="14.00" fill="#000000">~</text>
<text text-anchor="middle" x="1038.0538" y="-168.73" font-family="Times,serif" font-size="14.00" fill="#000000">Exponential</text>
</g>
<!-- Smfc_y -->
<g id="node21" class="node">
<title>Smfc_y</title>
<ellipse fill="#d3d3d3" stroke="#000000" cx="917.0538" cy="-76.4767" rx="46.8387" ry="37.4533"/>
<text text-anchor="middle" x="917.0538" y="-87.7767" font-family="Times,serif" font-size="14.00" fill="#000000">Smfc_y</text>
<text text-anchor="middle" x="917.0538" y="-72.7767" font-family="Times,serif" font-size="14.00" fill="#000000">~</text>
<text text-anchor="middle" x="917.0538" y="-57.7767" font-family="Times,serif" font-size="14.00" fill="#000000">StudentT</text>
</g>
<!-- Smfc_nuY&#45;&gt;Smfc_y -->
<g id="edge19" class="edge">
<title>Smfc_nuY&#45;&gt;Smfc_y</title>
<path fill="none" stroke="#000000" d="M1004.3486,-156.5233C989.2049,-142.637 971.2543,-126.1769 955.5807,-111.8046"/>
<polygon fill="#000000" stroke="#000000" points="957.8275,-109.1161 948.0916,-104.9373 953.0965,-114.2755 957.8275,-109.1161"/>
</g>
<!-- Smfc_sigma12 -->
<g id="node4" class="node">
<title>Smfc_sigma12</title>
<ellipse fill="none" stroke="#000000" cx="1568.0538" cy="-390.3833" rx="70.0071" ry="37.4533"/>
<text text-anchor="middle" x="1568.0538" y="-401.6833" font-family="Times,serif" font-size="14.00" fill="#000000">Smfc_sigma12</text>
<text text-anchor="middle" x="1568.0538" y="-386.6833" font-family="Times,serif" font-size="14.00" fill="#000000">~</text>
<text text-anchor="middle" x="1568.0538" y="-371.6833" font-family="Times,serif" font-size="14.00" fill="#000000">HalfNormal</text>
</g>
<!-- Smfc_M12 -->
<g id="node18" class="node">
<title>Smfc_M12</title>
<polygon fill="none" stroke="#000000" points="1465.5538,-316.9066 1374.5538,-316.9066 1374.5538,-263.9066 1465.5538,-263.9066 1465.5538,-316.9066"/>
<text text-anchor="middle" x="1420.0538" y="-301.7066" font-family="Times,serif" font-size="14.00" fill="#000000">Smfc_M12</text>
<text text-anchor="middle" x="1420.0538" y="-286.7066" font-family="Times,serif" font-size="14.00" fill="#000000">~</text>
<text text-anchor="middle" x="1420.0538" y="-271.7066" font-family="Times,serif" font-size="14.00" fill="#000000">Deterministic</text>
</g>
<!-- Smfc_sigma12&#45;&gt;Smfc_M12 -->
<g id="edge13" class="edge">
<title>Smfc_sigma12&#45;&gt;Smfc_M12</title>
<path fill="none" stroke="#000000" d="M1524.4494,-360.9277C1506.7167,-348.949 1486.1655,-335.0662 1468.0111,-322.8027"/>
<polygon fill="#000000" stroke="#000000" points="1469.5601,-319.6253 1459.3144,-316.9279 1465.6417,-325.4259 1469.5601,-319.6253"/>
</g>
<!-- Smfc_b0_dist -->
<g id="node5" class="node">
<title>Smfc_b0_dist</title>
<ellipse fill="none" stroke="#000000" cx="659.0538" cy="-390.3833" rx="65.1077" ry="37.4533"/>
<text text-anchor="middle" x="659.0538" y="-401.6833" font-family="Times,serif" font-size="14.00" fill="#000000">Smfc_b0_dist</text>
<text text-anchor="middle" x="659.0538" y="-386.6833" font-family="Times,serif" font-size="14.00" fill="#000000">~</text>
<text text-anchor="middle" x="659.0538" y="-371.6833" font-family="Times,serif" font-size="14.00" fill="#000000">Normal</text>
</g>
<!-- Smfc_b0_dist&#45;&gt;Smfc_b0 -->
<g id="edge1" class="edge">
<title>Smfc_b0_dist&#45;&gt;Smfc_b0</title>
<path fill="none" stroke="#000000" d="M684.7278,-355.6969C692.033,-345.8273 699.9901,-335.0769 707.3,-325.2009"/>
<polygon fill="#000000" stroke="#000000" points="710.1235,-327.2693 713.2597,-317.1493 704.4971,-323.1048 710.1235,-327.2693"/>
</g>
<!-- Smfc_mu -->
<g id="node20" class="node">
<title>Smfc_mu</title>
<polygon fill="none" stroke="#000000" points="962.5538,-213.93 871.5538,-213.93 871.5538,-160.93 962.5538,-160.93 962.5538,-213.93"/>
<text text-anchor="middle" x="917.0538" y="-198.73" font-family="Times,serif" font-size="14.00" fill="#000000">Smfc_mu</text>
<text text-anchor="middle" x="917.0538" y="-183.73" font-family="Times,serif" font-size="14.00" fill="#000000">~</text>
<text text-anchor="middle" x="917.0538" y="-168.73" font-family="Times,serif" font-size="14.00" fill="#000000">Deterministic</text>
</g>
<!-- Smfc_b0&#45;&gt;Smfc_mu -->
<g id="edge15" class="edge">
<title>Smfc_b0&#45;&gt;Smfc_mu</title>
<path fill="none" stroke="#000000" d="M779.0102,-264.6869C804.3531,-250.5036 835.9765,-232.8054 862.5593,-217.9282"/>
<polygon fill="#000000" stroke="#000000" points="864.3477,-220.9381 871.3648,-213.0001 860.9291,-214.8297 864.3477,-220.9381"/>
</g>
<!-- Smfc_sigma0 -->
<g id="node7" class="node">
<title>Smfc_sigma0</title>
<ellipse fill="none" stroke="#000000" cx="807.0538" cy="-390.3833" rx="65.1077" ry="37.4533"/>
<text text-anchor="middle" x="807.0538" y="-401.6833" font-family="Times,serif" font-size="14.00" fill="#000000">Smfc_sigma0</text>
<text text-anchor="middle" x="807.0538" y="-386.6833" font-family="Times,serif" font-size="14.00" fill="#000000">~</text>
<text text-anchor="middle" x="807.0538" y="-371.6833" font-family="Times,serif" font-size="14.00" fill="#000000">HalfNormal</text>
</g>
<!-- Smfc_sigma0&#45;&gt;Smfc_b0 -->
<g id="edge3" class="edge">
<title>Smfc_sigma0&#45;&gt;Smfc_b0</title>
<path fill="none" stroke="#000000" d="M781.3799,-355.6969C774.0747,-345.8273 766.1176,-335.0769 758.8076,-325.2009"/>
<polygon fill="#000000" stroke="#000000" points="761.6106,-323.1048 752.848,-317.1493 755.9841,-327.2693 761.6106,-323.1048"/>
</g>
<!-- Smfc_b1_dist -->
<g id="node8" class="node">
<title>Smfc_b1_dist</title>
<ellipse fill="none" stroke="#000000" cx="1249.0538" cy="-390.3833" rx="65.1077" ry="37.4533"/>
<text text-anchor="middle" x="1249.0538" y="-401.6833" font-family="Times,serif" font-size="14.00" fill="#000000">Smfc_b1_dist</text>
<text text-anchor="middle" x="1249.0538" y="-386.6833" font-family="Times,serif" font-size="14.00" fill="#000000">~</text>
<text text-anchor="middle" x="1249.0538" y="-371.6833" font-family="Times,serif" font-size="14.00" fill="#000000">Normal</text>
</g>
<!-- Smfc_b1 -->
<g id="node11" class="node">
<title>Smfc_b1</title>
<polygon fill="none" stroke="#000000" points="1072.5538,-316.9066 981.5538,-316.9066 981.5538,-263.9066 1072.5538,-263.9066 1072.5538,-316.9066"/>
<text text-anchor="middle" x="1027.0538" y="-301.7066" font-family="Times,serif" font-size="14.00" fill="#000000">Smfc_b1</text>
<text text-anchor="middle" x="1027.0538" y="-286.7066" font-family="Times,serif" font-size="14.00" fill="#000000">~</text>
<text text-anchor="middle" x="1027.0538" y="-271.7066" font-family="Times,serif" font-size="14.00" fill="#000000">Deterministic</text>
</g>
<!-- Smfc_b1_dist&#45;&gt;Smfc_b1 -->
<g id="edge5" class="edge">
<title>Smfc_b1_dist&#45;&gt;Smfc_b1</title>
<path fill="none" stroke="#000000" d="M1201.6222,-364.5671C1193.8092,-360.5405 1185.7497,-356.5208 1178.0538,-352.9066 1146.79,-338.2244 1111.1137,-323.3724 1082.2915,-311.8325"/>
<polygon fill="#000000" stroke="#000000" points="1083.3814,-308.4992 1072.796,-308.0509 1080.7914,-315.0025 1083.3814,-308.4992"/>
</g>
<!-- Smfc_sigmaY -->
<g id="node9" class="node">
<title>Smfc_sigmaY</title>
<ellipse fill="none" stroke="#000000" cx="1181.0538" cy="-187.43" rx="67.3507" ry="37.4533"/>
<text text-anchor="middle" x="1181.0538" y="-198.73" font-family="Times,serif" font-size="14.00" fill="#000000">Smfc_sigmaY</text>
<text text-anchor="middle" x="1181.0538" y="-183.73" font-family="Times,serif" font-size="14.00" fill="#000000">~</text>
<text text-anchor="middle" x="1181.0538" y="-168.73" font-family="Times,serif" font-size="14.00" fill="#000000">Gamma</text>
</g>
<!-- Smfc_sigmaY&#45;&gt;Smfc_y -->
<g id="edge18" class="edge">
<title>Smfc_sigmaY&#45;&gt;Smfc_y</title>
<path fill="none" stroke="#000000" d="M1131.0563,-162.0221C1122.443,-157.8619 1113.534,-153.6931 1105.0538,-149.9533 1059.8736,-130.0285 1007.4724,-109.7769 969.4874,-95.5949"/>
<polygon fill="#000000" stroke="#000000" points="970.2578,-92.1473 959.665,-91.9428 967.8183,-98.7085 970.2578,-92.1473"/>
</g>
<!-- Smfc_M12_dist -->
<g id="node10" class="node">
<title>Smfc_M12_dist</title>
<ellipse fill="none" stroke="#000000" cx="1730.0538" cy="-390.3833" rx="74.4932" ry="37.4533"/>
<text text-anchor="middle" x="1730.0538" y="-401.6833" font-family="Times,serif" font-size="14.00" fill="#000000">Smfc_M12_dist</text>
<text text-anchor="middle" x="1730.0538" y="-386.6833" font-family="Times,serif" font-size="14.00" fill="#000000">~</text>
<text text-anchor="middle" x="1730.0538" y="-371.6833" font-family="Times,serif" font-size="14.00" fill="#000000">Normal</text>
</g>
<!-- Smfc_M12_dist&#45;&gt;Smfc_M12 -->
<g id="edge11" class="edge">
<title>Smfc_M12_dist&#45;&gt;Smfc_M12</title>
<path fill="none" stroke="#000000" d="M1676.0837,-364.5597C1666.5179,-360.4021 1656.5715,-356.3421 1647.0538,-352.9066 1589.7419,-332.2198 1522.2095,-314.4336 1475.7902,-303.1838"/>
<polygon fill="#000000" stroke="#000000" points="1476.4664,-299.7467 1465.9255,-300.8144 1474.8315,-306.5531 1476.4664,-299.7467"/>
</g>
<!-- Smfc_b1&#45;&gt;Smfc_mu -->
<g id="edge14" class="edge">
<title>Smfc_b1&#45;&gt;Smfc_mu</title>
<path fill="none" stroke="#000000" d="M998.7261,-263.8876C984.8489,-250.8965 967.9827,-235.1071 953.1886,-221.2576"/>
<polygon fill="#000000" stroke="#000000" points="955.3602,-218.4962 945.6679,-214.2171 950.5762,-223.6064 955.3602,-218.4962"/>
</g>
<!-- Smfc_sigma1 -->
<g id="node12" class="node">
<title>Smfc_sigma1</title>
<ellipse fill="none" stroke="#000000" cx="1101.0538" cy="-390.3833" rx="65.1077" ry="37.4533"/>
<text text-anchor="middle" x="1101.0538" y="-401.6833" font-family="Times,serif" font-size="14.00" fill="#000000">Smfc_sigma1</text>
<text text-anchor="middle" x="1101.0538" y="-386.6833" font-family="Times,serif" font-size="14.00" fill="#000000">~</text>
<text text-anchor="middle" x="1101.0538" y="-371.6833" font-family="Times,serif" font-size="14.00" fill="#000000">HalfNormal</text>
</g>
<!-- Smfc_sigma1&#45;&gt;Smfc_b1 -->
<g id="edge4" class="edge">
<title>Smfc_sigma1&#45;&gt;Smfc_b1</title>
<path fill="none" stroke="#000000" d="M1075.3799,-355.6969C1068.0747,-345.8273 1060.1176,-335.0769 1052.8076,-325.2009"/>
<polygon fill="#000000" stroke="#000000" points="1055.6106,-323.1048 1046.848,-317.1493 1049.9841,-327.2693 1055.6106,-323.1048"/>
</g>
<!-- Smfc_mu_b1 -->
<g id="node13" class="node">
<title>Smfc_mu_b1</title>
<ellipse fill="none" stroke="#000000" cx="954.0538" cy="-390.3833" rx="64.1938" ry="37.4533"/>
<text text-anchor="middle" x="954.0538" y="-401.6833" font-family="Times,serif" font-size="14.00" fill="#000000">Smfc_mu_b1</text>
<text text-anchor="middle" x="954.0538" y="-386.6833" font-family="Times,serif" font-size="14.00" fill="#000000">~</text>
<text text-anchor="middle" x="954.0538" y="-371.6833" font-family="Times,serif" font-size="14.00" fill="#000000">Normal</text>
</g>
<!-- Smfc_mu_b1&#45;&gt;Smfc_b1 -->
<g id="edge6" class="edge">
<title>Smfc_mu_b1&#45;&gt;Smfc_b1</title>
<path fill="none" stroke="#000000" d="M979.3808,-355.6969C986.5152,-345.926 994.28,-335.2919 1001.4315,-325.4975"/>
<polygon fill="#000000" stroke="#000000" points="1004.4568,-327.2895 1007.5271,-317.1493 998.8034,-323.1615 1004.4568,-327.2895"/>
</g>
<!-- Smfc_sigma2 -->
<g id="node14" class="node">
<title>Smfc_sigma2</title>
<ellipse fill="none" stroke="#000000" cx="362.0538" cy="-501.3366" rx="65.1077" ry="37.4533"/>
<text text-anchor="middle" x="362.0538" y="-512.6366" font-family="Times,serif" font-size="14.00" fill="#000000">Smfc_sigma2</text>
<text text-anchor="middle" x="362.0538" y="-497.6366" font-family="Times,serif" font-size="14.00" fill="#000000">~</text>
<text text-anchor="middle" x="362.0538" y="-482.6366" font-family="Times,serif" font-size="14.00" fill="#000000">HalfNormal</text>
</g>
<!-- Smfc_b2_beta -->
<g id="node16" class="node">
<title>Smfc_b2_beta</title>
<ellipse fill="none" stroke="#000000" cx="362.0538" cy="-390.3833" rx="67.3507" ry="37.4533"/>
<text text-anchor="middle" x="362.0538" y="-401.6833" font-family="Times,serif" font-size="14.00" fill="#000000">Smfc_b2_beta</text>
<text text-anchor="middle" x="362.0538" y="-386.6833" font-family="Times,serif" font-size="14.00" fill="#000000">~</text>
<text text-anchor="middle" x="362.0538" y="-371.6833" font-family="Times,serif" font-size="14.00" fill="#000000">HalfNormal</text>
</g>
<!-- Smfc_sigma2&#45;&gt;Smfc_b2_beta -->
<g id="edge7" class="edge">
<title>Smfc_sigma2&#45;&gt;Smfc_b2_beta</title>
<path fill="none" stroke="#000000" d="M362.0538,-463.7729C362.0538,-455.549 362.0538,-446.7367 362.0538,-438.1736"/>
<polygon fill="#000000" stroke="#000000" points="365.5539,-437.9083 362.0538,-427.9083 358.5539,-437.9084 365.5539,-437.9083"/>
</g>
<!-- Smfc_mu_b2 -->
<g id="node15" class="node">
<title>Smfc_mu_b2</title>
<ellipse fill="none" stroke="#000000" cx="212.0538" cy="-390.3833" rx="64.1938" ry="37.4533"/>
<text text-anchor="middle" x="212.0538" y="-401.6833" font-family="Times,serif" font-size="14.00" fill="#000000">Smfc_mu_b2</text>
<text text-anchor="middle" x="212.0538" y="-386.6833" font-family="Times,serif" font-size="14.00" fill="#000000">~</text>
<text text-anchor="middle" x="212.0538" y="-371.6833" font-family="Times,serif" font-size="14.00" fill="#000000">Normal</text>
</g>
<!-- Smfc_mu_b2&#45;&gt;Smfc_b2 -->
<g id="edge10" class="edge">
<title>Smfc_mu_b2&#45;&gt;Smfc_b2</title>
<path fill="none" stroke="#000000" d="M237.8646,-355.977C245.346,-346.0041 253.5171,-335.1118 261.0126,-325.1202"/>
<polygon fill="#000000" stroke="#000000" points="263.9187,-327.0788 267.1198,-316.9791 258.3191,-322.8781 263.9187,-327.0788"/>
</g>
<!-- Smfc_b2_beta&#45;&gt;Smfc_b2 -->
<g id="edge9" class="edge">
<title>Smfc_b2_beta&#45;&gt;Smfc_b2</title>
<path fill="none" stroke="#000000" d="M336.0329,-355.6969C328.629,-345.8273 320.5644,-335.0769 313.1556,-325.2009"/>
<polygon fill="#000000" stroke="#000000" points="315.9162,-323.0483 307.1155,-317.1493 310.3166,-327.249 315.9162,-323.0483"/>
</g>
<!-- Smfc_b2&#45;&gt;Smfc_mu -->
<g id="edge17" class="edge">
<title>Smfc_b2&#45;&gt;Smfc_mu</title>
<path fill="none" stroke="#000000" d="M332.6153,-282.9594C445.6058,-264.4905 738.4419,-216.625 861.4005,-196.5268"/>
<polygon fill="#000000" stroke="#000000" points="862.0555,-199.9663 871.3599,-194.8989 860.9263,-193.0579 862.0555,-199.9663"/>
</g>
<!-- Smfc_M12&#45;&gt;Smfc_mu -->
<g id="edge16" class="edge">
<title>Smfc_M12&#45;&gt;Smfc_mu</title>
<path fill="none" stroke="#000000" d="M1374.1661,-276.6774C1325.864,-262.8957 1247.3657,-242.3883 1178.0538,-232.9066 1132.4443,-226.6674 1014.7125,-239.5038 971.0538,-224.9066 966.5557,-223.4027 962.0947,-221.3993 957.7775,-219.0982"/>
<polygon fill="#000000" stroke="#000000" points="959.5451,-216.0773 949.1517,-214.0214 955.9945,-222.1101 959.5451,-216.0773"/>
</g>
<!-- Smfc_mu_M12 -->
<g id="node19" class="node">
<title>Smfc_mu_M12</title>
<ellipse fill="none" stroke="#000000" cx="1406.0538" cy="-390.3833" rx="73.5782" ry="37.4533"/>
<text text-anchor="middle" x="1406.0538" y="-401.6833" font-family="Times,serif" font-size="14.00" fill="#000000">Smfc_mu_M12</text>
<text text-anchor="middle" x="1406.0538" y="-386.6833" font-family="Times,serif" font-size="14.00" fill="#000000">~</text>
<text text-anchor="middle" x="1406.0538" y="-371.6833" font-family="Times,serif" font-size="14.00" fill="#000000">Normal</text>
</g>
<!-- Smfc_mu_M12&#45;&gt;Smfc_M12 -->
<g id="edge12" class="edge">
<title>Smfc_mu_M12&#45;&gt;Smfc_M12</title>
<path fill="none" stroke="#000000" d="M1411.3067,-352.8712C1412.4872,-344.4415 1413.7384,-335.506 1414.9142,-327.1097"/>
<polygon fill="#000000" stroke="#000000" points="1418.3804,-327.5945 1416.3011,-317.2057 1411.448,-326.6237 1418.3804,-327.5945"/>
</g>
<!-- Smfc_mu&#45;&gt;Smfc_y -->
<g id="edge20" class="edge">
<title>Smfc_mu&#45;&gt;Smfc_y</title>
<path fill="none" stroke="#000000" d="M917.0538,-160.8539C917.0538,-149.9351 917.0538,-136.944 917.0538,-124.4675"/>
<polygon fill="#000000" stroke="#000000" points="920.5539,-124.1649 917.0538,-114.165 913.5539,-124.165 920.5539,-124.1649"/>
</g>
</g>
</svg>
