<?xml version="1.0" encoding="UTF-8" standalone="no"?>
<!DOCTYPE svg PUBLIC "-//W3C//DTD SVG 1.1//EN"
 "http://www.w3.org/Graphics/SVG/1.1/DTD/svg11.dtd">
<!-- Generated by graphviz version 2.40.1 (20161225.0304)
 -->
<!-- Title: HAsfc9 Pages: 1 -->
<svg width="2032pt" height="563pt"
 viewBox="0.00 0.00 2031.98 562.81" xmlns="http://www.w3.org/2000/svg" xmlns:xlink="http://www.w3.org/1999/xlink">
<g id="graph0" class="graph" transform="scale(1 1) rotate(0) translate(4 558.8133)">
<title>HAsfc9</title>
<polygon fill="#ffffff" stroke="transparent" points="-4,4 -4,-558.8133 2027.9777,-558.8133 2027.9777,4 -4,4"/>
<g id="clust1" class="cluster">
<title>cluster2</title>
<path fill="none" stroke="#000000" d="M501.5391,-232.9066C501.5391,-232.9066 807.5391,-232.9066 807.5391,-232.9066 813.5391,-232.9066 819.5391,-238.9066 819.5391,-244.9066 819.5391,-244.9066 819.5391,-423.86 819.5391,-423.86 819.5391,-429.86 813.5391,-435.86 807.5391,-435.86 807.5391,-435.86 501.5391,-435.86 501.5391,-435.86 495.5391,-435.86 489.5391,-429.86 489.5391,-423.86 489.5391,-423.86 489.5391,-244.9066 489.5391,-244.9066 489.5391,-238.9066 495.5391,-232.9066 501.5391,-232.9066"/>
<text text-anchor="middle" x="808.0391" y="-240.7066" font-family="Times,serif" font-size="14.00" fill="#000000">2</text>
</g>
<g id="clust2" class="cluster">
<title>cluster11</title>
<path fill="none" stroke="#000000" d="M999.5391,-232.9066C999.5391,-232.9066 1309.5391,-232.9066 1309.5391,-232.9066 1315.5391,-232.9066 1321.5391,-238.9066 1321.5391,-244.9066 1321.5391,-244.9066 1321.5391,-534.8133 1321.5391,-534.8133 1321.5391,-540.8133 1315.5391,-546.8133 1309.5391,-546.8133 1309.5391,-546.8133 999.5391,-546.8133 999.5391,-546.8133 993.5391,-546.8133 987.5391,-540.8133 987.5391,-534.8133 987.5391,-534.8133 987.5391,-244.9066 987.5391,-244.9066 987.5391,-238.9066 993.5391,-232.9066 999.5391,-232.9066"/>
<text text-anchor="middle" x="1306.5391" y="-240.7066" font-family="Times,serif" font-size="14.00" fill="#000000">11</text>
</g>
<g id="clust3" class="cluster">
<title>cluster2 x 11</title>
<path fill="none" stroke="#000000" d="M1502.5391,-232.9066C1502.5391,-232.9066 1658.5391,-232.9066 1658.5391,-232.9066 1664.5391,-232.9066 1670.5391,-238.9066 1670.5391,-244.9066 1670.5391,-244.9066 1670.5391,-423.86 1670.5391,-423.86 1670.5391,-429.86 1664.5391,-435.86 1658.5391,-435.86 1658.5391,-435.86 1502.5391,-435.86 1502.5391,-435.86 1496.5391,-435.86 1490.5391,-429.86 1490.5391,-423.86 1490.5391,-423.86 1490.5391,-244.9066 1490.5391,-244.9066 1490.5391,-238.9066 1496.5391,-232.9066 1502.5391,-232.9066"/>
<text text-anchor="middle" x="1645.0391" y="-240.7066" font-family="Times,serif" font-size="14.00" fill="#000000">2 x 11</text>
</g>
<g id="clust4" class="cluster">
<title>cluster230</title>
<path fill="none" stroke="#000000" d="M912.5391,-8C912.5391,-8 1006.5391,-8 1006.5391,-8 1012.5391,-8 1018.5391,-14 1018.5391,-20 1018.5391,-20 1018.5391,-209.93 1018.5391,-209.93 1018.5391,-215.93 1012.5391,-221.93 1006.5391,-221.93 1006.5391,-221.93 912.5391,-221.93 912.5391,-221.93 906.5391,-221.93 900.5391,-215.93 900.5391,-209.93 900.5391,-209.93 900.5391,-20 900.5391,-20 900.5391,-14 906.5391,-8 912.5391,-8"/>
<text text-anchor="middle" x="1000.0391" y="-15.8" font-family="Times,serif" font-size="14.00" fill="#000000">230</text>
</g>
<!-- HAsfc9_sigmaY -->
<g id="node1" class="node">
<title>HAsfc9_sigmaY</title>
<ellipse fill="none" stroke="#000000" cx="816.5391" cy="-187.43" rx="76.2353" ry="37.4533"/>
<text text-anchor="middle" x="816.5391" y="-198.73" font-family="Times,serif" font-size="14.00" fill="#000000">HAsfc9_sigmaY</text>
<text text-anchor="middle" x="816.5391" y="-183.73" font-family="Times,serif" font-size="14.00" fill="#000000">~</text>
<text text-anchor="middle" x="816.5391" y="-168.73" font-family="Times,serif" font-size="14.00" fill="#000000">Gamma</text>
</g>
<!-- HAsfc9_y -->
<g id="node20" class="node">
<title>HAsfc9_y</title>
<ellipse fill="#d3d3d3" stroke="#000000" cx="959.5391" cy="-76.4767" rx="50.8235" ry="37.4533"/>
<text text-anchor="middle" x="959.5391" y="-87.7767" font-family="Times,serif" font-size="14.00" fill="#000000">HAsfc9_y</text>
<text text-anchor="middle" x="959.5391" y="-72.7767" font-family="Times,serif" font-size="14.00" fill="#000000">~</text>
<text text-anchor="middle" x="959.5391" y="-57.7767" font-family="Times,serif" font-size="14.00" fill="#000000">StudentT</text>
</g>
<!-- HAsfc9_sigmaY&#45;&gt;HAsfc9_y -->
<g id="edge19" class="edge">
<title>HAsfc9_sigmaY&#45;&gt;HAsfc9_y</title>
<path fill="none" stroke="#000000" d="M857.5172,-155.6352C875.9217,-141.3552 897.6479,-124.4979 916.3108,-110.0174"/>
<polygon fill="#000000" stroke="#000000" points="918.619,-112.6564 924.3742,-103.761 914.3279,-107.1259 918.619,-112.6564"/>
</g>
<!-- HAsfc9_nuY -->
<g id="node2" class="node">
<title>HAsfc9_nuY</title>
<ellipse fill="none" stroke="#000000" cx="1089.5391" cy="-187.43" rx="62.8651" ry="37.4533"/>
<text text-anchor="middle" x="1089.5391" y="-198.73" font-family="Times,serif" font-size="14.00" fill="#000000">HAsfc9_nuY</text>
<text text-anchor="middle" x="1089.5391" y="-183.73" font-family="Times,serif" font-size="14.00" fill="#000000">~</text>
<text text-anchor="middle" x="1089.5391" y="-168.73" font-family="Times,serif" font-size="14.00" fill="#000000">Exponential</text>
</g>
<!-- HAsfc9_nuY&#45;&gt;HAsfc9_y -->
<g id="edge20" class="edge">
<title>HAsfc9_nuY&#45;&gt;HAsfc9_y</title>
<path fill="none" stroke="#000000" d="M1053.3269,-156.5233C1037.0568,-142.637 1017.7711,-126.1769 1000.9316,-111.8046"/>
<polygon fill="#000000" stroke="#000000" points="1002.7639,-108.767 992.8854,-104.9373 998.2196,-114.0914 1002.7639,-108.767"/>
</g>
<!-- HAsfc9_sigma12 -->
<g id="node3" class="node">
<title>HAsfc9_sigma12</title>
<ellipse fill="none" stroke="#000000" cx="1759.5391" cy="-390.3833" rx="79.3924" ry="37.4533"/>
<text text-anchor="middle" x="1759.5391" y="-401.6833" font-family="Times,serif" font-size="14.00" fill="#000000">HAsfc9_sigma12</text>
<text text-anchor="middle" x="1759.5391" y="-386.6833" font-family="Times,serif" font-size="14.00" fill="#000000">~</text>
<text text-anchor="middle" x="1759.5391" y="-371.6833" font-family="Times,serif" font-size="14.00" fill="#000000">HalfNormal</text>
</g>
<!-- HAsfc9_M12 -->
<g id="node18" class="node">
<title>HAsfc9_M12</title>
<polygon fill="none" stroke="#000000" points="1644.5391,-316.9066 1552.5391,-316.9066 1552.5391,-263.9066 1644.5391,-263.9066 1644.5391,-316.9066"/>
<text text-anchor="middle" x="1598.5391" y="-301.7066" font-family="Times,serif" font-size="14.00" fill="#000000">HAsfc9_M12</text>
<text text-anchor="middle" x="1598.5391" y="-286.7066" font-family="Times,serif" font-size="14.00" fill="#000000">~</text>
<text text-anchor="middle" x="1598.5391" y="-271.7066" font-family="Times,serif" font-size="14.00" fill="#000000">Deterministic</text>
</g>
<!-- HAsfc9_sigma12&#45;&gt;HAsfc9_M12 -->
<g id="edge11" class="edge">
<title>HAsfc9_sigma12&#45;&gt;HAsfc9_M12</title>
<path fill="none" stroke="#000000" d="M1711.2338,-360.387C1691.8696,-348.3623 1669.5296,-334.4898 1649.8727,-322.2834"/>
<polygon fill="#000000" stroke="#000000" points="1651.6824,-319.2873 1641.3406,-316.9852 1647.9896,-325.234 1651.6824,-319.2873"/>
</g>
<!-- HAsfc9_b2_dist -->
<g id="node4" class="node">
<title>HAsfc9_b2_dist</title>
<ellipse fill="none" stroke="#000000" cx="1406.5391" cy="-390.3833" rx="74.4932" ry="37.4533"/>
<text text-anchor="middle" x="1406.5391" y="-401.6833" font-family="Times,serif" font-size="14.00" fill="#000000">HAsfc9_b2_dist</text>
<text text-anchor="middle" x="1406.5391" y="-386.6833" font-family="Times,serif" font-size="14.00" fill="#000000">~</text>
<text text-anchor="middle" x="1406.5391" y="-371.6833" font-family="Times,serif" font-size="14.00" fill="#000000">Gumbel</text>
</g>
<!-- HAsfc9_b2 -->
<g id="node14" class="node">
<title>HAsfc9_b2</title>
<polygon fill="none" stroke="#000000" points="1199.0391,-316.9066 1108.0391,-316.9066 1108.0391,-263.9066 1199.0391,-263.9066 1199.0391,-316.9066"/>
<text text-anchor="middle" x="1153.5391" y="-301.7066" font-family="Times,serif" font-size="14.00" fill="#000000">HAsfc9_b2</text>
<text text-anchor="middle" x="1153.5391" y="-286.7066" font-family="Times,serif" font-size="14.00" fill="#000000">~</text>
<text text-anchor="middle" x="1153.5391" y="-271.7066" font-family="Times,serif" font-size="14.00" fill="#000000">Deterministic</text>
</g>
<!-- HAsfc9_b2_dist&#45;&gt;HAsfc9_b2 -->
<g id="edge8" class="edge">
<title>HAsfc9_b2_dist&#45;&gt;HAsfc9_b2</title>
<path fill="none" stroke="#000000" d="M1352.3553,-364.5454C1343.4509,-360.5214 1334.2778,-356.5083 1325.5391,-352.9066 1287.0404,-337.0392 1242.8793,-321.0372 1208.9444,-309.1974"/>
<polygon fill="#000000" stroke="#000000" points="1209.804,-305.791 1199.2092,-305.817 1207.5078,-312.4036 1209.804,-305.791"/>
</g>
<!-- HAsfc9_b0 -->
<g id="node5" class="node">
<title>HAsfc9_b0</title>
<polygon fill="none" stroke="#000000" points="368.0391,-316.9066 277.0391,-316.9066 277.0391,-263.9066 368.0391,-263.9066 368.0391,-316.9066"/>
<text text-anchor="middle" x="322.5391" y="-301.7066" font-family="Times,serif" font-size="14.00" fill="#000000">HAsfc9_b0</text>
<text text-anchor="middle" x="322.5391" y="-286.7066" font-family="Times,serif" font-size="14.00" fill="#000000">~</text>
<text text-anchor="middle" x="322.5391" y="-271.7066" font-family="Times,serif" font-size="14.00" fill="#000000">Deterministic</text>
</g>
<!-- HAsfc9_mu -->
<g id="node21" class="node">
<title>HAsfc9_mu</title>
<polygon fill="none" stroke="#000000" points="1005.0391,-213.93 914.0391,-213.93 914.0391,-160.93 1005.0391,-160.93 1005.0391,-213.93"/>
<text text-anchor="middle" x="959.5391" y="-198.73" font-family="Times,serif" font-size="14.00" fill="#000000">HAsfc9_mu</text>
<text text-anchor="middle" x="959.5391" y="-183.73" font-family="Times,serif" font-size="14.00" fill="#000000">~</text>
<text text-anchor="middle" x="959.5391" y="-168.73" font-family="Times,serif" font-size="14.00" fill="#000000">Deterministic</text>
</g>
<!-- HAsfc9_b0&#45;&gt;HAsfc9_mu -->
<g id="edge15" class="edge">
<title>HAsfc9_b0&#45;&gt;HAsfc9_mu</title>
<path fill="none" stroke="#000000" d="M368.1874,-269.8676C400.2887,-256.5362 444.6438,-240.3137 485.5391,-232.9066 531.0297,-224.6672 857.3249,-238.4117 901.5391,-224.9066 906.4998,-223.3914 911.4404,-221.3179 916.2259,-218.9181"/>
<polygon fill="#000000" stroke="#000000" points="918.1398,-221.8595 925.2023,-213.9619 914.7563,-215.7315 918.1398,-221.8595"/>
</g>
<!-- HAsfc9_mu_b0 -->
<g id="node6" class="node">
<title>HAsfc9_mu_b0</title>
<ellipse fill="none" stroke="#000000" cx="73.5391" cy="-390.3833" rx="73.5782" ry="37.4533"/>
<text text-anchor="middle" x="73.5391" y="-401.6833" font-family="Times,serif" font-size="14.00" fill="#000000">HAsfc9_mu_b0</text>
<text text-anchor="middle" x="73.5391" y="-386.6833" font-family="Times,serif" font-size="14.00" fill="#000000">~</text>
<text text-anchor="middle" x="73.5391" y="-371.6833" font-family="Times,serif" font-size="14.00" fill="#000000">Normal</text>
</g>
<!-- HAsfc9_mu_b0&#45;&gt;HAsfc9_b0 -->
<g id="edge1" class="edge">
<title>HAsfc9_mu_b0&#45;&gt;HAsfc9_b0</title>
<path fill="none" stroke="#000000" d="M128.2381,-365.0888C137.6335,-360.9155 147.3344,-356.713 156.5391,-352.9066 193.0312,-337.8165 234.6165,-322.1618 267.036,-310.2946"/>
<polygon fill="#000000" stroke="#000000" points="268.5918,-313.4527 276.7872,-306.7381 266.1932,-306.8765 268.5918,-313.4527"/>
</g>
<!-- HAsfc9_sigma0 -->
<g id="node7" class="node">
<title>HAsfc9_sigma0</title>
<ellipse fill="none" stroke="#000000" cx="239.5391" cy="-390.3833" rx="74.4932" ry="37.4533"/>
<text text-anchor="middle" x="239.5391" y="-401.6833" font-family="Times,serif" font-size="14.00" fill="#000000">HAsfc9_sigma0</text>
<text text-anchor="middle" x="239.5391" y="-386.6833" font-family="Times,serif" font-size="14.00" fill="#000000">~</text>
<text text-anchor="middle" x="239.5391" y="-371.6833" font-family="Times,serif" font-size="14.00" fill="#000000">HalfNormal</text>
</g>
<!-- HAsfc9_sigma0&#45;&gt;HAsfc9_b0 -->
<g id="edge3" class="edge">
<title>HAsfc9_sigma0&#45;&gt;HAsfc9_b0</title>
<path fill="none" stroke="#000000" d="M268.3355,-355.6969C276.6112,-345.7286 285.6327,-334.8618 293.8988,-324.9049"/>
<polygon fill="#000000" stroke="#000000" points="296.6429,-327.079 300.3375,-317.1493 291.257,-322.6077 296.6429,-327.079"/>
</g>
<!-- HAsfc9_b1_dist -->
<g id="node8" class="node">
<title>HAsfc9_b1_dist</title>
<ellipse fill="none" stroke="#000000" cx="903.5391" cy="-390.3833" rx="74.4932" ry="37.4533"/>
<text text-anchor="middle" x="903.5391" y="-401.6833" font-family="Times,serif" font-size="14.00" fill="#000000">HAsfc9_b1_dist</text>
<text text-anchor="middle" x="903.5391" y="-386.6833" font-family="Times,serif" font-size="14.00" fill="#000000">~</text>
<text text-anchor="middle" x="903.5391" y="-371.6833" font-family="Times,serif" font-size="14.00" fill="#000000">Normal</text>
</g>
<!-- HAsfc9_b1 -->
<g id="node13" class="node">
<title>HAsfc9_b1</title>
<polygon fill="none" stroke="#000000" points="797.0391,-316.9066 706.0391,-316.9066 706.0391,-263.9066 797.0391,-263.9066 797.0391,-316.9066"/>
<text text-anchor="middle" x="751.5391" y="-301.7066" font-family="Times,serif" font-size="14.00" fill="#000000">HAsfc9_b1</text>
<text text-anchor="middle" x="751.5391" y="-286.7066" font-family="Times,serif" font-size="14.00" fill="#000000">~</text>
<text text-anchor="middle" x="751.5391" y="-271.7066" font-family="Times,serif" font-size="14.00" fill="#000000">Deterministic</text>
</g>
<!-- HAsfc9_b1_dist&#45;&gt;HAsfc9_b1 -->
<g id="edge6" class="edge">
<title>HAsfc9_b1_dist&#45;&gt;HAsfc9_b1</title>
<path fill="none" stroke="#000000" d="M857.9341,-360.387C839.8163,-348.4702 818.9393,-334.7385 800.503,-322.6122"/>
<polygon fill="#000000" stroke="#000000" points="802.2261,-319.5564 791.948,-316.9852 798.3794,-325.4047 802.2261,-319.5564"/>
</g>
<!-- HAsfc9_M12_dist -->
<g id="node9" class="node">
<title>HAsfc9_M12_dist</title>
<ellipse fill="none" stroke="#000000" cx="1940.5391" cy="-390.3833" rx="83.3772" ry="37.4533"/>
<text text-anchor="middle" x="1940.5391" y="-401.6833" font-family="Times,serif" font-size="14.00" fill="#000000">HAsfc9_M12_dist</text>
<text text-anchor="middle" x="1940.5391" y="-386.6833" font-family="Times,serif" font-size="14.00" fill="#000000">~</text>
<text text-anchor="middle" x="1940.5391" y="-371.6833" font-family="Times,serif" font-size="14.00" fill="#000000">Normal</text>
</g>
<!-- HAsfc9_M12_dist&#45;&gt;HAsfc9_M12 -->
<g id="edge12" class="edge">
<title>HAsfc9_M12_dist&#45;&gt;HAsfc9_M12</title>
<path fill="none" stroke="#000000" d="M1879.9483,-364.5779C1869.2432,-360.4183 1858.1335,-356.3529 1847.5391,-352.9066 1782.3736,-331.7088 1705.6679,-313.4293 1654.7892,-302.2088"/>
<polygon fill="#000000" stroke="#000000" points="1655.4859,-298.7785 1644.9689,-300.06 1653.9896,-305.6167 1655.4859,-298.7785"/>
</g>
<!-- HAsfc9_b0_dist -->
<g id="node10" class="node">
<title>HAsfc9_b0_dist</title>
<ellipse fill="none" stroke="#000000" cx="405.5391" cy="-390.3833" rx="74.4932" ry="37.4533"/>
<text text-anchor="middle" x="405.5391" y="-401.6833" font-family="Times,serif" font-size="14.00" fill="#000000">HAsfc9_b0_dist</text>
<text text-anchor="middle" x="405.5391" y="-386.6833" font-family="Times,serif" font-size="14.00" fill="#000000">~</text>
<text text-anchor="middle" x="405.5391" y="-371.6833" font-family="Times,serif" font-size="14.00" fill="#000000">Normal</text>
</g>
<!-- HAsfc9_b0_dist&#45;&gt;HAsfc9_b0 -->
<g id="edge2" class="edge">
<title>HAsfc9_b0_dist&#45;&gt;HAsfc9_b0</title>
<path fill="none" stroke="#000000" d="M376.7427,-355.6969C368.467,-345.7286 359.4455,-334.8618 351.1794,-324.9049"/>
<polygon fill="#000000" stroke="#000000" points="353.8212,-322.6077 344.7407,-317.1493 348.4354,-327.079 353.8212,-322.6077"/>
</g>
<!-- HAsfc9_sigma1 -->
<g id="node11" class="node">
<title>HAsfc9_sigma1</title>
<ellipse fill="none" stroke="#000000" cx="737.5391" cy="-390.3833" rx="74.4932" ry="37.4533"/>
<text text-anchor="middle" x="737.5391" y="-401.6833" font-family="Times,serif" font-size="14.00" fill="#000000">HAsfc9_sigma1</text>
<text text-anchor="middle" x="737.5391" y="-386.6833" font-family="Times,serif" font-size="14.00" fill="#000000">~</text>
<text text-anchor="middle" x="737.5391" y="-371.6833" font-family="Times,serif" font-size="14.00" fill="#000000">HalfNormal</text>
</g>
<!-- HAsfc9_sigma1&#45;&gt;HAsfc9_b1 -->
<g id="edge4" class="edge">
<title>HAsfc9_sigma1&#45;&gt;HAsfc9_b1</title>
<path fill="none" stroke="#000000" d="M742.792,-352.8712C743.9725,-344.4415 745.2237,-335.506 746.3995,-327.1097"/>
<polygon fill="#000000" stroke="#000000" points="749.8657,-327.5945 747.7864,-317.2057 742.9333,-326.6237 749.8657,-327.5945"/>
</g>
<!-- HAsfc9_mu_b1 -->
<g id="node12" class="node">
<title>HAsfc9_mu_b1</title>
<ellipse fill="none" stroke="#000000" cx="571.5391" cy="-390.3833" rx="73.5782" ry="37.4533"/>
<text text-anchor="middle" x="571.5391" y="-401.6833" font-family="Times,serif" font-size="14.00" fill="#000000">HAsfc9_mu_b1</text>
<text text-anchor="middle" x="571.5391" y="-386.6833" font-family="Times,serif" font-size="14.00" fill="#000000">~</text>
<text text-anchor="middle" x="571.5391" y="-371.6833" font-family="Times,serif" font-size="14.00" fill="#000000">Normal</text>
</g>
<!-- HAsfc9_mu_b1&#45;&gt;HAsfc9_b1 -->
<g id="edge5" class="edge">
<title>HAsfc9_mu_b1&#45;&gt;HAsfc9_b1</title>
<path fill="none" stroke="#000000" d="M621.6791,-362.5342C645.1082,-349.5211 673.0536,-333.9995 697.0081,-320.6946"/>
<polygon fill="#000000" stroke="#000000" points="698.9331,-323.629 705.9758,-315.7137 695.5342,-317.5096 698.9331,-323.629"/>
</g>
<!-- HAsfc9_b1&#45;&gt;HAsfc9_mu -->
<g id="edge17" class="edge">
<title>HAsfc9_b1&#45;&gt;HAsfc9_mu</title>
<path fill="none" stroke="#000000" d="M797.0722,-272.7723C827.2836,-260.5294 867.4894,-243.186 901.5391,-224.9066 904.7937,-223.1594 908.1052,-221.2898 911.4125,-219.3527"/>
<polygon fill="#000000" stroke="#000000" points="913.3596,-222.2658 920.1161,-214.1049 909.7451,-216.2711 913.3596,-222.2658"/>
</g>
<!-- HAsfc9_b2&#45;&gt;HAsfc9_mu -->
<g id="edge14" class="edge">
<title>HAsfc9_b2&#45;&gt;HAsfc9_mu</title>
<path fill="none" stroke="#000000" d="M1107.7931,-270.1095C1081.0603,-257.8219 1046.9089,-241.3831 1017.5391,-224.9066 1014.4661,-223.1827 1011.3343,-221.3606 1008.1975,-219.4857"/>
<polygon fill="#000000" stroke="#000000" points="1009.7469,-216.3306 999.3896,-214.0993 1006.0948,-222.3024 1009.7469,-216.3306"/>
</g>
<!-- HAsfc9_sigma2 -->
<g id="node15" class="node">
<title>HAsfc9_sigma2</title>
<ellipse fill="none" stroke="#000000" cx="1237.5391" cy="-501.3366" rx="74.4932" ry="37.4533"/>
<text text-anchor="middle" x="1237.5391" y="-512.6366" font-family="Times,serif" font-size="14.00" fill="#000000">HAsfc9_sigma2</text>
<text text-anchor="middle" x="1237.5391" y="-497.6366" font-family="Times,serif" font-size="14.00" fill="#000000">~</text>
<text text-anchor="middle" x="1237.5391" y="-482.6366" font-family="Times,serif" font-size="14.00" fill="#000000">HalfNormal</text>
</g>
<!-- HAsfc9_b2_beta -->
<g id="node17" class="node">
<title>HAsfc9_b2_beta</title>
<ellipse fill="none" stroke="#000000" cx="1237.5391" cy="-390.3833" rx="76.2353" ry="37.4533"/>
<text text-anchor="middle" x="1237.5391" y="-401.6833" font-family="Times,serif" font-size="14.00" fill="#000000">HAsfc9_b2_beta</text>
<text text-anchor="middle" x="1237.5391" y="-386.6833" font-family="Times,serif" font-size="14.00" fill="#000000">~</text>
<text text-anchor="middle" x="1237.5391" y="-371.6833" font-family="Times,serif" font-size="14.00" fill="#000000">HalfNormal</text>
</g>
<!-- HAsfc9_sigma2&#45;&gt;HAsfc9_b2_beta -->
<g id="edge7" class="edge">
<title>HAsfc9_sigma2&#45;&gt;HAsfc9_b2_beta</title>
<path fill="none" stroke="#000000" d="M1237.5391,-463.7729C1237.5391,-455.549 1237.5391,-446.7367 1237.5391,-438.1736"/>
<polygon fill="#000000" stroke="#000000" points="1241.0392,-437.9083 1237.5391,-427.9083 1234.0392,-437.9084 1241.0392,-437.9083"/>
</g>
<!-- HAsfc9_mu_b2 -->
<g id="node16" class="node">
<title>HAsfc9_mu_b2</title>
<ellipse fill="none" stroke="#000000" cx="1069.5391" cy="-390.3833" rx="73.5782" ry="37.4533"/>
<text text-anchor="middle" x="1069.5391" y="-401.6833" font-family="Times,serif" font-size="14.00" fill="#000000">HAsfc9_mu_b2</text>
<text text-anchor="middle" x="1069.5391" y="-386.6833" font-family="Times,serif" font-size="14.00" fill="#000000">~</text>
<text text-anchor="middle" x="1069.5391" y="-371.6833" font-family="Times,serif" font-size="14.00" fill="#000000">Normal</text>
</g>
<!-- HAsfc9_mu_b2&#45;&gt;HAsfc9_b2 -->
<g id="edge9" class="edge">
<title>HAsfc9_mu_b2&#45;&gt;HAsfc9_b2</title>
<path fill="none" stroke="#000000" d="M1098.6825,-355.6969C1107.0578,-345.7286 1116.188,-334.8618 1124.5538,-324.9049"/>
<polygon fill="#000000" stroke="#000000" points="1127.3169,-327.0571 1131.07,-317.1493 1121.9575,-322.5541 1127.3169,-327.0571"/>
</g>
<!-- HAsfc9_b2_beta&#45;&gt;HAsfc9_b2 -->
<g id="edge10" class="edge">
<title>HAsfc9_b2_beta&#45;&gt;HAsfc9_b2</title>
<path fill="none" stroke="#000000" d="M1208.3957,-355.6969C1200.0204,-345.7286 1190.8902,-334.8618 1182.5244,-324.9049"/>
<polygon fill="#000000" stroke="#000000" points="1185.1207,-322.5541 1176.0082,-317.1493 1179.7613,-327.0571 1185.1207,-322.5541"/>
</g>
<!-- HAsfc9_M12&#45;&gt;HAsfc9_mu -->
<g id="edge16" class="edge">
<title>HAsfc9_M12&#45;&gt;HAsfc9_mu</title>
<path fill="none" stroke="#000000" d="M1552.1075,-277.9314C1498.1232,-264.0583 1406.1164,-242.3593 1325.5391,-232.9066 1291.5385,-228.918 1050.2457,-235.0174 1017.5391,-224.9066 1012.6533,-223.3963 1007.7854,-221.3487 1003.0651,-218.985"/>
<polygon fill="#000000" stroke="#000000" points="1004.652,-215.8633 994.2036,-214.1076 1001.2767,-221.9958 1004.652,-215.8633"/>
</g>
<!-- HAsfc9_mu_M12 -->
<g id="node19" class="node">
<title>HAsfc9_mu_M12</title>
<ellipse fill="none" stroke="#000000" cx="1580.5391" cy="-390.3833" rx="82.0488" ry="37.4533"/>
<text text-anchor="middle" x="1580.5391" y="-401.6833" font-family="Times,serif" font-size="14.00" fill="#000000">HAsfc9_mu_M12</text>
<text text-anchor="middle" x="1580.5391" y="-386.6833" font-family="Times,serif" font-size="14.00" fill="#000000">~</text>
<text text-anchor="middle" x="1580.5391" y="-371.6833" font-family="Times,serif" font-size="14.00" fill="#000000">Normal</text>
</g>
<!-- HAsfc9_mu_M12&#45;&gt;HAsfc9_M12 -->
<g id="edge13" class="edge">
<title>HAsfc9_mu_M12&#45;&gt;HAsfc9_M12</title>
<path fill="none" stroke="#000000" d="M1587.2929,-352.8712C1588.8106,-344.4415 1590.4193,-335.506 1591.931,-327.1097"/>
<polygon fill="#000000" stroke="#000000" points="1595.3867,-327.6677 1593.7141,-317.2057 1588.4975,-326.4273 1595.3867,-327.6677"/>
</g>
<!-- HAsfc9_mu&#45;&gt;HAsfc9_y -->
<g id="edge18" class="edge">
<title>HAsfc9_mu&#45;&gt;HAsfc9_y</title>
<path fill="none" stroke="#000000" d="M959.5391,-160.8539C959.5391,-149.9351 959.5391,-136.944 959.5391,-124.4675"/>
<polygon fill="#000000" stroke="#000000" points="963.0392,-124.1649 959.5391,-114.165 956.0392,-124.165 963.0392,-124.1649"/>
</g>
</g>
</svg>
