<?xml version="1.0" encoding="UTF-8" standalone="no"?>
<!DOCTYPE svg PUBLIC "-//W3C//DTD SVG 1.1//EN"
 "http://www.w3.org/Graphics/SVG/1.1/DTD/svg11.dtd">
<!-- Generated by graphviz version 2.40.1 (20161225.0304)
 -->
<!-- Title: epLsar Pages: 1 -->
<svg width="1957pt" height="563pt"
 viewBox="0.00 0.00 1957.30 562.81" xmlns="http://www.w3.org/2000/svg" xmlns:xlink="http://www.w3.org/1999/xlink">
<g id="graph0" class="graph" transform="scale(1 1) rotate(0) translate(4 558.8133)">
<title>epLsar</title>
<polygon fill="#ffffff" stroke="transparent" points="-4,4 -4,-558.8133 1953.2965,-558.8133 1953.2965,4 -4,4"/>
<g id="clust1" class="cluster">
<title>cluster2</title>
<path fill="none" stroke="#000000" d="M20,-232.9066C20,-232.9066 310,-232.9066 310,-232.9066 316,-232.9066 322,-238.9066 322,-244.9066 322,-244.9066 322,-423.86 322,-423.86 322,-429.86 316,-435.86 310,-435.86 310,-435.86 20,-435.86 20,-435.86 14,-435.86 8,-429.86 8,-423.86 8,-423.86 8,-244.9066 8,-244.9066 8,-238.9066 14,-232.9066 20,-232.9066"/>
<text text-anchor="middle" x="310.5" y="-240.7066" font-family="Times,serif" font-size="14.00" fill="#000000">2</text>
</g>
<g id="clust2" class="cluster">
<title>cluster11</title>
<path fill="none" stroke="#000000" d="M495,-232.9066C495,-232.9066 789,-232.9066 789,-232.9066 795,-232.9066 801,-238.9066 801,-244.9066 801,-244.9066 801,-534.8133 801,-534.8133 801,-540.8133 795,-546.8133 789,-546.8133 789,-546.8133 495,-546.8133 495,-546.8133 489,-546.8133 483,-540.8133 483,-534.8133 483,-534.8133 483,-244.9066 483,-244.9066 483,-238.9066 489,-232.9066 495,-232.9066"/>
<text text-anchor="middle" x="786" y="-240.7066" font-family="Times,serif" font-size="14.00" fill="#000000">11</text>
</g>
<g id="clust3" class="cluster">
<title>cluster2 x 11</title>
<path fill="none" stroke="#000000" d="M975,-232.9066C975,-232.9066 1123,-232.9066 1123,-232.9066 1129,-232.9066 1135,-238.9066 1135,-244.9066 1135,-244.9066 1135,-423.86 1135,-423.86 1135,-429.86 1129,-435.86 1123,-435.86 1123,-435.86 975,-435.86 975,-435.86 969,-435.86 963,-429.86 963,-423.86 963,-423.86 963,-244.9066 963,-244.9066 963,-238.9066 969,-232.9066 975,-232.9066"/>
<text text-anchor="middle" x="1109.5" y="-240.7066" font-family="Times,serif" font-size="14.00" fill="#000000">2 x 11</text>
</g>
<g id="clust4" class="cluster">
<title>cluster230</title>
<path fill="none" stroke="#000000" d="M862,-8C862,-8 948,-8 948,-8 954,-8 960,-14 960,-20 960,-20 960,-209.93 960,-209.93 960,-215.93 954,-221.93 948,-221.93 948,-221.93 862,-221.93 862,-221.93 856,-221.93 850,-215.93 850,-209.93 850,-209.93 850,-20 850,-20 850,-14 856,-8 862,-8"/>
<text text-anchor="middle" x="941.5" y="-15.8" font-family="Times,serif" font-size="14.00" fill="#000000">230</text>
</g>
<!-- epLsar_b0_dist -->
<g id="node1" class="node">
<title>epLsar_b0_dist</title>
<ellipse fill="none" stroke="#000000" cx="1563" cy="-390.3833" rx="70.922" ry="37.4533"/>
<text text-anchor="middle" x="1563" y="-401.6833" font-family="Times,serif" font-size="14.00" fill="#000000">epLsar_b0_dist</text>
<text text-anchor="middle" x="1563" y="-386.6833" font-family="Times,serif" font-size="14.00" fill="#000000">~</text>
<text text-anchor="middle" x="1563" y="-371.6833" font-family="Times,serif" font-size="14.00" fill="#000000">Normal</text>
</g>
<!-- epLsar_b0 -->
<g id="node2" class="node">
<title>epLsar_b0</title>
<polygon fill="none" stroke="#000000" points="1687.5,-316.9066 1596.5,-316.9066 1596.5,-263.9066 1687.5,-263.9066 1687.5,-316.9066"/>
<text text-anchor="middle" x="1642" y="-301.7066" font-family="Times,serif" font-size="14.00" fill="#000000">epLsar_b0</text>
<text text-anchor="middle" x="1642" y="-286.7066" font-family="Times,serif" font-size="14.00" fill="#000000">~</text>
<text text-anchor="middle" x="1642" y="-271.7066" font-family="Times,serif" font-size="14.00" fill="#000000">Deterministic</text>
</g>
<!-- epLsar_b0_dist&#45;&gt;epLsar_b0 -->
<g id="edge1" class="edge">
<title>epLsar_b0_dist&#45;&gt;epLsar_b0</title>
<path fill="none" stroke="#000000" d="M1590.4087,-355.6969C1598.2075,-345.8273 1606.7022,-335.0769 1614.5061,-325.2009"/>
<polygon fill="#000000" stroke="#000000" points="1617.4146,-327.1654 1620.8684,-317.1493 1611.9223,-322.8254 1617.4146,-327.1654"/>
</g>
<!-- epLsar_mu -->
<g id="node21" class="node">
<title>epLsar_mu</title>
<polygon fill="none" stroke="#000000" points="950.5,-213.93 859.5,-213.93 859.5,-160.93 950.5,-160.93 950.5,-213.93"/>
<text text-anchor="middle" x="905" y="-198.73" font-family="Times,serif" font-size="14.00" fill="#000000">epLsar_mu</text>
<text text-anchor="middle" x="905" y="-183.73" font-family="Times,serif" font-size="14.00" fill="#000000">~</text>
<text text-anchor="middle" x="905" y="-168.73" font-family="Times,serif" font-size="14.00" fill="#000000">Deterministic</text>
</g>
<!-- epLsar_b0&#45;&gt;epLsar_mu -->
<g id="edge16" class="edge">
<title>epLsar_b0&#45;&gt;epLsar_mu</title>
<path fill="none" stroke="#000000" d="M1596.3296,-284.1096C1508.1248,-272.1871 1308.1069,-246.314 1139,-232.9066 1099.0858,-229.7421 996.9363,-237.7127 959,-224.9066 954.5062,-223.3897 950.0482,-221.3775 945.7328,-219.0708"/>
<polygon fill="#000000" stroke="#000000" points="947.5014,-216.0505 937.1095,-213.9867 943.9463,-222.0805 947.5014,-216.0505"/>
</g>
<!-- epLsar_sigma0 -->
<g id="node3" class="node">
<title>epLsar_sigma0</title>
<ellipse fill="none" stroke="#000000" cx="1722" cy="-390.3833" rx="70.922" ry="37.4533"/>
<text text-anchor="middle" x="1722" y="-401.6833" font-family="Times,serif" font-size="14.00" fill="#000000">epLsar_sigma0</text>
<text text-anchor="middle" x="1722" y="-386.6833" font-family="Times,serif" font-size="14.00" fill="#000000">~</text>
<text text-anchor="middle" x="1722" y="-371.6833" font-family="Times,serif" font-size="14.00" fill="#000000">HalfNormal</text>
</g>
<!-- epLsar_sigma0&#45;&gt;epLsar_b0 -->
<g id="edge2" class="edge">
<title>epLsar_sigma0&#45;&gt;epLsar_b0</title>
<path fill="none" stroke="#000000" d="M1694.2444,-355.6969C1686.3469,-345.8273 1677.7446,-335.0769 1669.8419,-325.2009"/>
<polygon fill="#000000" stroke="#000000" points="1672.3798,-322.7705 1663.3991,-317.1493 1666.9142,-327.144 1672.3798,-322.7705"/>
</g>
<!-- epLsar_b1_dist -->
<g id="node4" class="node">
<title>epLsar_b1_dist</title>
<ellipse fill="none" stroke="#000000" cx="402" cy="-390.3833" rx="70.922" ry="37.4533"/>
<text text-anchor="middle" x="402" y="-401.6833" font-family="Times,serif" font-size="14.00" fill="#000000">epLsar_b1_dist</text>
<text text-anchor="middle" x="402" y="-386.6833" font-family="Times,serif" font-size="14.00" fill="#000000">~</text>
<text text-anchor="middle" x="402" y="-371.6833" font-family="Times,serif" font-size="14.00" fill="#000000">Normal</text>
</g>
<!-- epLsar_b1 -->
<g id="node12" class="node">
<title>epLsar_b1</title>
<polygon fill="none" stroke="#000000" points="300.5,-316.9066 209.5,-316.9066 209.5,-263.9066 300.5,-263.9066 300.5,-316.9066"/>
<text text-anchor="middle" x="255" y="-301.7066" font-family="Times,serif" font-size="14.00" fill="#000000">epLsar_b1</text>
<text text-anchor="middle" x="255" y="-286.7066" font-family="Times,serif" font-size="14.00" fill="#000000">~</text>
<text text-anchor="middle" x="255" y="-271.7066" font-family="Times,serif" font-size="14.00" fill="#000000">Deterministic</text>
</g>
<!-- epLsar_b1_dist&#45;&gt;epLsar_b1 -->
<g id="edge4" class="edge">
<title>epLsar_b1_dist&#45;&gt;epLsar_b1</title>
<path fill="none" stroke="#000000" d="M358.2932,-360.6577C340.8378,-348.7861 320.6838,-335.0791 302.838,-322.9419"/>
<polygon fill="#000000" stroke="#000000" points="304.5218,-319.8543 294.2846,-317.1247 300.5852,-325.6425 304.5218,-319.8543"/>
</g>
<!-- epLsar_sigmaY -->
<g id="node5" class="node">
<title>epLsar_sigmaY</title>
<ellipse fill="none" stroke="#000000" cx="1041" cy="-187.43" rx="72.6644" ry="37.4533"/>
<text text-anchor="middle" x="1041" y="-198.73" font-family="Times,serif" font-size="14.00" fill="#000000">epLsar_sigmaY</text>
<text text-anchor="middle" x="1041" y="-183.73" font-family="Times,serif" font-size="14.00" fill="#000000">~</text>
<text text-anchor="middle" x="1041" y="-168.73" font-family="Times,serif" font-size="14.00" fill="#000000">Gamma</text>
</g>
<!-- epLsar_y -->
<g id="node20" class="node">
<title>epLsar_y</title>
<ellipse fill="#d3d3d3" stroke="#000000" cx="905" cy="-76.4767" rx="47.2526" ry="37.4533"/>
<text text-anchor="middle" x="905" y="-87.7767" font-family="Times,serif" font-size="14.00" fill="#000000">epLsar_y</text>
<text text-anchor="middle" x="905" y="-72.7767" font-family="Times,serif" font-size="14.00" fill="#000000">~</text>
<text text-anchor="middle" x="905" y="-57.7767" font-family="Times,serif" font-size="14.00" fill="#000000">StudentT</text>
</g>
<!-- epLsar_sigmaY&#45;&gt;epLsar_y -->
<g id="edge19" class="edge">
<title>epLsar_sigmaY&#45;&gt;epLsar_y</title>
<path fill="none" stroke="#000000" d="M1002.0279,-155.6352C984.4666,-141.3081 963.7255,-124.3868 945.937,-109.8744"/>
<polygon fill="#000000" stroke="#000000" points="947.9547,-107.0035 937.9937,-103.394 943.5296,-112.4275 947.9547,-107.0035"/>
</g>
<!-- epLsar_b2_dist -->
<g id="node6" class="node">
<title>epLsar_b2_dist</title>
<ellipse fill="none" stroke="#000000" cx="882" cy="-390.3833" rx="70.922" ry="37.4533"/>
<text text-anchor="middle" x="882" y="-401.6833" font-family="Times,serif" font-size="14.00" fill="#000000">epLsar_b2_dist</text>
<text text-anchor="middle" x="882" y="-386.6833" font-family="Times,serif" font-size="14.00" fill="#000000">~</text>
<text text-anchor="middle" x="882" y="-371.6833" font-family="Times,serif" font-size="14.00" fill="#000000">Gumbel</text>
</g>
<!-- epLsar_b2 -->
<g id="node14" class="node">
<title>epLsar_b2</title>
<polygon fill="none" stroke="#000000" points="778.5,-316.9066 687.5,-316.9066 687.5,-263.9066 778.5,-263.9066 778.5,-316.9066"/>
<text text-anchor="middle" x="733" y="-301.7066" font-family="Times,serif" font-size="14.00" fill="#000000">epLsar_b2</text>
<text text-anchor="middle" x="733" y="-286.7066" font-family="Times,serif" font-size="14.00" fill="#000000">~</text>
<text text-anchor="middle" x="733" y="-271.7066" font-family="Times,serif" font-size="14.00" fill="#000000">Deterministic</text>
</g>
<!-- epLsar_b2_dist&#45;&gt;epLsar_b2 -->
<g id="edge9" class="edge">
<title>epLsar_b2_dist&#45;&gt;epLsar_b2</title>
<path fill="none" stroke="#000000" d="M838.101,-360.9277C820.2484,-348.949 799.5583,-335.0662 781.2814,-322.8027"/>
<polygon fill="#000000" stroke="#000000" points="782.7799,-319.5933 772.5259,-316.9279 778.8797,-325.4061 782.7799,-319.5933"/>
</g>
<!-- epLsar_M12_dist -->
<g id="node7" class="node">
<title>epLsar_M12_dist</title>
<ellipse fill="none" stroke="#000000" cx="1225" cy="-390.3833" rx="79.8063" ry="37.4533"/>
<text text-anchor="middle" x="1225" y="-401.6833" font-family="Times,serif" font-size="14.00" fill="#000000">epLsar_M12_dist</text>
<text text-anchor="middle" x="1225" y="-386.6833" font-family="Times,serif" font-size="14.00" fill="#000000">~</text>
<text text-anchor="middle" x="1225" y="-371.6833" font-family="Times,serif" font-size="14.00" fill="#000000">Normal</text>
</g>
<!-- epLsar_M12 -->
<g id="node19" class="node">
<title>epLsar_M12</title>
<polygon fill="none" stroke="#000000" points="1110.5,-316.9066 1019.5,-316.9066 1019.5,-263.9066 1110.5,-263.9066 1110.5,-316.9066"/>
<text text-anchor="middle" x="1065" y="-301.7066" font-family="Times,serif" font-size="14.00" fill="#000000">epLsar_M12</text>
<text text-anchor="middle" x="1065" y="-286.7066" font-family="Times,serif" font-size="14.00" fill="#000000">~</text>
<text text-anchor="middle" x="1065" y="-271.7066" font-family="Times,serif" font-size="14.00" fill="#000000">Deterministic</text>
</g>
<!-- epLsar_M12_dist&#45;&gt;epLsar_M12 -->
<g id="edge13" class="edge">
<title>epLsar_M12_dist&#45;&gt;epLsar_M12</title>
<path fill="none" stroke="#000000" d="M1176.9947,-360.387C1157.8371,-348.4163 1135.7486,-334.6142 1116.2777,-322.4477"/>
<polygon fill="#000000" stroke="#000000" points="1117.8709,-319.3162 1107.5357,-316.9852 1114.1615,-325.2526 1117.8709,-319.3162"/>
</g>
<!-- epLsar_nuY -->
<g id="node8" class="node">
<title>epLsar_nuY</title>
<ellipse fill="none" stroke="#000000" cx="1191" cy="-187.43" rx="58.8803" ry="37.4533"/>
<text text-anchor="middle" x="1191" y="-198.73" font-family="Times,serif" font-size="14.00" fill="#000000">epLsar_nuY</text>
<text text-anchor="middle" x="1191" y="-183.73" font-family="Times,serif" font-size="14.00" fill="#000000">~</text>
<text text-anchor="middle" x="1191" y="-168.73" font-family="Times,serif" font-size="14.00" fill="#000000">Exponential</text>
</g>
<!-- epLsar_nuY&#45;&gt;epLsar_y -->
<g id="edge20" class="edge">
<title>epLsar_nuY&#45;&gt;epLsar_y</title>
<path fill="none" stroke="#000000" d="M1147.6864,-162.0614C1139.608,-157.7615 1131.1436,-153.5355 1123,-149.9533 1068.789,-126.1074 1004.2373,-105.2337 959.5132,-91.8898"/>
<polygon fill="#000000" stroke="#000000" points="960.3011,-88.473 949.7191,-88.9933 958.3159,-95.1856 960.3011,-88.473"/>
</g>
<!-- epLsar_sigma12 -->
<g id="node9" class="node">
<title>epLsar_sigma12</title>
<ellipse fill="none" stroke="#000000" cx="1399" cy="-390.3833" rx="75.8212" ry="37.4533"/>
<text text-anchor="middle" x="1399" y="-401.6833" font-family="Times,serif" font-size="14.00" fill="#000000">epLsar_sigma12</text>
<text text-anchor="middle" x="1399" y="-386.6833" font-family="Times,serif" font-size="14.00" fill="#000000">~</text>
<text text-anchor="middle" x="1399" y="-371.6833" font-family="Times,serif" font-size="14.00" fill="#000000">HalfNormal</text>
</g>
<!-- epLsar_sigma12&#45;&gt;epLsar_M12 -->
<g id="edge12" class="edge">
<title>epLsar_sigma12&#45;&gt;epLsar_M12</title>
<path fill="none" stroke="#000000" d="M1343.7559,-364.4163C1333.9566,-360.2746 1323.7628,-356.2571 1314,-352.9066 1248.7889,-330.527 1171.4713,-312.3733 1120.4875,-301.5097"/>
<polygon fill="#000000" stroke="#000000" points="1121.1604,-298.0747 1110.6533,-299.4351 1119.7155,-304.924 1121.1604,-298.0747"/>
</g>
<!-- epLsar_mu_b0 -->
<g id="node10" class="node">
<title>epLsar_mu_b0</title>
<ellipse fill="none" stroke="#000000" cx="1880" cy="-390.3833" rx="69.0935" ry="37.4533"/>
<text text-anchor="middle" x="1880" y="-401.6833" font-family="Times,serif" font-size="14.00" fill="#000000">epLsar_mu_b0</text>
<text text-anchor="middle" x="1880" y="-386.6833" font-family="Times,serif" font-size="14.00" fill="#000000">~</text>
<text text-anchor="middle" x="1880" y="-371.6833" font-family="Times,serif" font-size="14.00" fill="#000000">Normal</text>
</g>
<!-- epLsar_mu_b0&#45;&gt;epLsar_b0 -->
<g id="edge3" class="edge">
<title>epLsar_mu_b0&#45;&gt;epLsar_b0</title>
<path fill="none" stroke="#000000" d="M1828.6468,-365.0338C1819.8115,-360.8669 1810.6799,-356.6807 1802,-352.9066 1767.4256,-337.8733 1727.9796,-322.4459 1696.9053,-310.6798"/>
<polygon fill="#000000" stroke="#000000" points="1698.1367,-307.4037 1687.5449,-307.1503 1695.6669,-313.9535 1698.1367,-307.4037"/>
</g>
<!-- epLsar_sigma1 -->
<g id="node11" class="node">
<title>epLsar_sigma1</title>
<ellipse fill="none" stroke="#000000" cx="243" cy="-390.3833" rx="70.922" ry="37.4533"/>
<text text-anchor="middle" x="243" y="-401.6833" font-family="Times,serif" font-size="14.00" fill="#000000">epLsar_sigma1</text>
<text text-anchor="middle" x="243" y="-386.6833" font-family="Times,serif" font-size="14.00" fill="#000000">~</text>
<text text-anchor="middle" x="243" y="-371.6833" font-family="Times,serif" font-size="14.00" fill="#000000">HalfNormal</text>
</g>
<!-- epLsar_sigma1&#45;&gt;epLsar_b1 -->
<g id="edge5" class="edge">
<title>epLsar_sigma1&#45;&gt;epLsar_b1</title>
<path fill="none" stroke="#000000" d="M247.5025,-352.8712C248.5032,-344.5341 249.5632,-335.7023 250.5614,-327.3867"/>
<polygon fill="#000000" stroke="#000000" points="254.0666,-327.5516 251.7834,-317.2057 247.1165,-326.7173 254.0666,-327.5516"/>
</g>
<!-- epLsar_b1&#45;&gt;epLsar_mu -->
<g id="edge15" class="edge">
<title>epLsar_b1&#45;&gt;epLsar_mu</title>
<path fill="none" stroke="#000000" d="M300.9016,-276.5393C345.8796,-263.4479 416.5749,-244.1894 479,-232.9066 610.6074,-209.1198 767.5002,-196.3124 849.2314,-190.7959"/>
<polygon fill="#000000" stroke="#000000" points="849.5517,-194.2824 859.2979,-190.1278 849.0881,-187.2978 849.5517,-194.2824"/>
</g>
<!-- epLsar_mu_b1 -->
<g id="node13" class="node">
<title>epLsar_mu_b1</title>
<ellipse fill="none" stroke="#000000" cx="85" cy="-390.3833" rx="69.0935" ry="37.4533"/>
<text text-anchor="middle" x="85" y="-401.6833" font-family="Times,serif" font-size="14.00" fill="#000000">epLsar_mu_b1</text>
<text text-anchor="middle" x="85" y="-386.6833" font-family="Times,serif" font-size="14.00" fill="#000000">~</text>
<text text-anchor="middle" x="85" y="-371.6833" font-family="Times,serif" font-size="14.00" fill="#000000">Normal</text>
</g>
<!-- epLsar_mu_b1&#45;&gt;epLsar_b1 -->
<g id="edge6" class="edge">
<title>epLsar_mu_b1&#45;&gt;epLsar_b1</title>
<path fill="none" stroke="#000000" d="M132.3545,-362.5342C153.5962,-350.042 178.7686,-335.2382 200.7641,-322.3027"/>
<polygon fill="#000000" stroke="#000000" points="202.8104,-325.1597 209.656,-317.0734 199.2618,-319.1258 202.8104,-325.1597"/>
</g>
<!-- epLsar_b2&#45;&gt;epLsar_mu -->
<g id="edge14" class="edge">
<title>epLsar_b2&#45;&gt;epLsar_mu</title>
<path fill="none" stroke="#000000" d="M777.2943,-263.8876C800.0771,-250.2475 828.0124,-233.5226 851.9401,-219.197"/>
<polygon fill="#000000" stroke="#000000" points="853.7753,-222.1777 860.5572,-214.0379 850.1795,-216.1718 853.7753,-222.1777"/>
</g>
<!-- epLsar_b2_beta -->
<g id="node15" class="node">
<title>epLsar_b2_beta</title>
<ellipse fill="none" stroke="#000000" cx="720" cy="-390.3833" rx="72.6644" ry="37.4533"/>
<text text-anchor="middle" x="720" y="-401.6833" font-family="Times,serif" font-size="14.00" fill="#000000">epLsar_b2_beta</text>
<text text-anchor="middle" x="720" y="-386.6833" font-family="Times,serif" font-size="14.00" fill="#000000">~</text>
<text text-anchor="middle" x="720" y="-371.6833" font-family="Times,serif" font-size="14.00" fill="#000000">HalfNormal</text>
</g>
<!-- epLsar_b2_beta&#45;&gt;epLsar_b2 -->
<g id="edge8" class="edge">
<title>epLsar_b2_beta&#45;&gt;epLsar_b2</title>
<path fill="none" stroke="#000000" d="M724.8777,-352.8712C725.9618,-344.5341 727.1102,-335.7023 728.1915,-327.3867"/>
<polygon fill="#000000" stroke="#000000" points="731.6966,-327.5736 729.5153,-317.2057 724.755,-326.6709 731.6966,-327.5736"/>
</g>
<!-- epLsar_sigma2 -->
<g id="node16" class="node">
<title>epLsar_sigma2</title>
<ellipse fill="none" stroke="#000000" cx="720" cy="-501.3366" rx="70.922" ry="37.4533"/>
<text text-anchor="middle" x="720" y="-512.6366" font-family="Times,serif" font-size="14.00" fill="#000000">epLsar_sigma2</text>
<text text-anchor="middle" x="720" y="-497.6366" font-family="Times,serif" font-size="14.00" fill="#000000">~</text>
<text text-anchor="middle" x="720" y="-482.6366" font-family="Times,serif" font-size="14.00" fill="#000000">HalfNormal</text>
</g>
<!-- epLsar_sigma2&#45;&gt;epLsar_b2_beta -->
<g id="edge7" class="edge">
<title>epLsar_sigma2&#45;&gt;epLsar_b2_beta</title>
<path fill="none" stroke="#000000" d="M720,-463.7729C720,-455.549 720,-446.7367 720,-438.1736"/>
<polygon fill="#000000" stroke="#000000" points="723.5001,-437.9083 720,-427.9083 716.5001,-437.9084 723.5001,-437.9083"/>
</g>
<!-- epLsar_mu_b2 -->
<g id="node17" class="node">
<title>epLsar_mu_b2</title>
<ellipse fill="none" stroke="#000000" cx="560" cy="-390.3833" rx="69.0935" ry="37.4533"/>
<text text-anchor="middle" x="560" y="-401.6833" font-family="Times,serif" font-size="14.00" fill="#000000">epLsar_mu_b2</text>
<text text-anchor="middle" x="560" y="-386.6833" font-family="Times,serif" font-size="14.00" fill="#000000">~</text>
<text text-anchor="middle" x="560" y="-371.6833" font-family="Times,serif" font-size="14.00" fill="#000000">Normal</text>
</g>
<!-- epLsar_mu_b2&#45;&gt;epLsar_b2 -->
<g id="edge10" class="edge">
<title>epLsar_mu_b2&#45;&gt;epLsar_b2</title>
<path fill="none" stroke="#000000" d="M607.731,-362.7996C629.6277,-350.1455 655.7035,-335.0762 678.3805,-321.9712"/>
<polygon fill="#000000" stroke="#000000" points="680.3069,-324.9005 687.2138,-316.8665 676.8043,-318.8397 680.3069,-324.9005"/>
</g>
<!-- epLsar_mu_M12 -->
<g id="node18" class="node">
<title>epLsar_mu_M12</title>
<ellipse fill="none" stroke="#000000" cx="1049" cy="-390.3833" rx="78.4777" ry="37.4533"/>
<text text-anchor="middle" x="1049" y="-401.6833" font-family="Times,serif" font-size="14.00" fill="#000000">epLsar_mu_M12</text>
<text text-anchor="middle" x="1049" y="-386.6833" font-family="Times,serif" font-size="14.00" fill="#000000">~</text>
<text text-anchor="middle" x="1049" y="-371.6833" font-family="Times,serif" font-size="14.00" fill="#000000">Normal</text>
</g>
<!-- epLsar_mu_M12&#45;&gt;epLsar_M12 -->
<g id="edge11" class="edge">
<title>epLsar_mu_M12&#45;&gt;epLsar_M12</title>
<path fill="none" stroke="#000000" d="M1055.0033,-352.8712C1056.3524,-344.4415 1057.7824,-335.506 1059.1261,-327.1097"/>
<polygon fill="#000000" stroke="#000000" points="1062.5868,-327.6332 1060.7111,-317.2057 1055.6748,-326.527 1062.5868,-327.6332"/>
</g>
<!-- epLsar_M12&#45;&gt;epLsar_mu -->
<g id="edge17" class="edge">
<title>epLsar_M12&#45;&gt;epLsar_mu</title>
<path fill="none" stroke="#000000" d="M1020.8334,-263.8376C1001.6799,-252.1301 979.0841,-238.0679 959,-224.9066 956.4572,-223.2403 953.8589,-221.515 951.2441,-219.7609"/>
<polygon fill="#000000" stroke="#000000" points="953.127,-216.809 942.8848,-214.0983 949.201,-222.6045 953.127,-216.809"/>
</g>
<!-- epLsar_mu&#45;&gt;epLsar_y -->
<g id="edge18" class="edge">
<title>epLsar_mu&#45;&gt;epLsar_y</title>
<path fill="none" stroke="#000000" d="M905,-160.8539C905,-149.9351 905,-136.944 905,-124.4675"/>
<polygon fill="#000000" stroke="#000000" points="908.5001,-124.1649 905,-114.165 901.5001,-124.165 908.5001,-124.1649"/>
</g>
</g>
</svg>
