<?xml version="1.0" encoding="UTF-8" standalone="no"?>
<!DOCTYPE svg PUBLIC "-//W3C//DTD SVG 1.1//EN"
 "http://www.w3.org/Graphics/SVG/1.1/DTD/svg11.dtd">
<!-- Generated by graphviz version 2.40.1 (20161225.0304)
 -->
<!-- Title: Smfc Pages: 1 -->
<svg width="1811pt" height="563pt"
 viewBox="0.00 0.00 1811.30 562.81" xmlns="http://www.w3.org/2000/svg" xmlns:xlink="http://www.w3.org/1999/xlink">
<g id="graph0" class="graph" transform="scale(1 1) rotate(0) translate(4 558.8133)">
<title>Smfc</title>
<polygon fill="#ffffff" stroke="transparent" points="-4,4 -4,-558.8133 1807.3,-558.8133 1807.3,4 -4,4"/>
<g id="clust1" class="cluster">
<title>cluster2</title>
<path fill="none" stroke="#000000" d="M446.0538,-232.9066C446.0538,-232.9066 714.0538,-232.9066 714.0538,-232.9066 720.0538,-232.9066 726.0538,-238.9066 726.0538,-244.9066 726.0538,-244.9066 726.0538,-423.86 726.0538,-423.86 726.0538,-429.86 720.0538,-435.86 714.0538,-435.86 714.0538,-435.86 446.0538,-435.86 446.0538,-435.86 440.0538,-435.86 434.0538,-429.86 434.0538,-423.86 434.0538,-423.86 434.0538,-244.9066 434.0538,-244.9066 434.0538,-238.9066 440.0538,-232.9066 446.0538,-232.9066"/>
<text text-anchor="middle" x="714.5538" y="-240.7066" font-family="Times,serif" font-size="14.00" fill="#000000">2</text>
</g>
<g id="clust2" class="cluster">
<title>cluster11</title>
<path fill="none" stroke="#000000" d="M888.0538,-232.9066C888.0538,-232.9066 1161.0538,-232.9066 1161.0538,-232.9066 1167.0538,-232.9066 1173.0538,-238.9066 1173.0538,-244.9066 1173.0538,-244.9066 1173.0538,-534.8133 1173.0538,-534.8133 1173.0538,-540.8133 1167.0538,-546.8133 1161.0538,-546.8133 1161.0538,-546.8133 888.0538,-546.8133 888.0538,-546.8133 882.0538,-546.8133 876.0538,-540.8133 876.0538,-534.8133 876.0538,-534.8133 876.0538,-244.9066 876.0538,-244.9066 876.0538,-238.9066 882.0538,-232.9066 888.0538,-232.9066"/>
<text text-anchor="middle" x="1158.0538" y="-240.7066" font-family="Times,serif" font-size="14.00" fill="#000000">11</text>
</g>
<g id="clust3" class="cluster">
<title>cluster2 x 11</title>
<path fill="none" stroke="#000000" d="M1335.0538,-232.9066C1335.0538,-232.9066 1475.0538,-232.9066 1475.0538,-232.9066 1481.0538,-232.9066 1487.0538,-238.9066 1487.0538,-244.9066 1487.0538,-244.9066 1487.0538,-423.86 1487.0538,-423.86 1487.0538,-429.86 1481.0538,-435.86 1475.0538,-435.86 1475.0538,-435.86 1335.0538,-435.86 1335.0538,-435.86 1329.0538,-435.86 1323.0538,-429.86 1323.0538,-423.86 1323.0538,-423.86 1323.0538,-244.9066 1323.0538,-244.9066 1323.0538,-238.9066 1329.0538,-232.9066 1335.0538,-232.9066"/>
<text text-anchor="middle" x="1461.5538" y="-240.7066" font-family="Times,serif" font-size="14.00" fill="#000000">2 x 11</text>
</g>
<g id="clust4" class="cluster">
<title>cluster230</title>
<path fill="none" stroke="#000000" d="M804.0538,-8C804.0538,-8 890.0538,-8 890.0538,-8 896.0538,-8 902.0538,-14 902.0538,-20 902.0538,-20 902.0538,-209.93 902.0538,-209.93 902.0538,-215.93 896.0538,-221.93 890.0538,-221.93 890.0538,-221.93 804.0538,-221.93 804.0538,-221.93 798.0538,-221.93 792.0538,-215.93 792.0538,-209.93 792.0538,-209.93 792.0538,-20 792.0538,-20 792.0538,-14 798.0538,-8 804.0538,-8"/>
<text text-anchor="middle" x="883.5538" y="-15.8" font-family="Times,serif" font-size="14.00" fill="#000000">230</text>
</g>
<!-- Smfc_sigmaY -->
<g id="node1" class="node">
<title>Smfc_sigmaY</title>
<ellipse fill="none" stroke="#000000" cx="716.0538" cy="-187.43" rx="67.3507" ry="37.4533"/>
<text text-anchor="middle" x="716.0538" y="-198.73" font-family="Times,serif" font-size="14.00" fill="#000000">Smfc_sigmaY</text>
<text text-anchor="middle" x="716.0538" y="-183.73" font-family="Times,serif" font-size="14.00" fill="#000000">~</text>
<text text-anchor="middle" x="716.0538" y="-168.73" font-family="Times,serif" font-size="14.00" fill="#000000">Gamma</text>
</g>
<!-- Smfc_y -->
<g id="node21" class="node">
<title>Smfc_y</title>
<ellipse fill="#d3d3d3" stroke="#000000" cx="847.0538" cy="-76.4767" rx="46.8387" ry="37.4533"/>
<text text-anchor="middle" x="847.0538" y="-87.7767" font-family="Times,serif" font-size="14.00" fill="#000000">Smfc_y</text>
<text text-anchor="middle" x="847.0538" y="-72.7767" font-family="Times,serif" font-size="14.00" fill="#000000">~</text>
<text text-anchor="middle" x="847.0538" y="-57.7767" font-family="Times,serif" font-size="14.00" fill="#000000">StudentT</text>
</g>
<!-- Smfc_sigmaY&#45;&gt;Smfc_y -->
<g id="edge18" class="edge">
<title>Smfc_sigmaY&#45;&gt;Smfc_y</title>
<path fill="none" stroke="#000000" d="M753.2428,-155.932C770.0356,-141.709 789.9027,-124.8821 807.021,-110.3834"/>
<polygon fill="#000000" stroke="#000000" points="809.3031,-113.0372 814.6718,-103.9033 804.7789,-107.6956 809.3031,-113.0372"/>
</g>
<!-- Smfc_b0 -->
<g id="node2" class="node">
<title>Smfc_b0</title>
<polygon fill="none" stroke="#000000" points="332.5538,-316.9066 241.5538,-316.9066 241.5538,-263.9066 332.5538,-263.9066 332.5538,-316.9066"/>
<text text-anchor="middle" x="287.0538" y="-301.7066" font-family="Times,serif" font-size="14.00" fill="#000000">Smfc_b0</text>
<text text-anchor="middle" x="287.0538" y="-286.7066" font-family="Times,serif" font-size="14.00" fill="#000000">~</text>
<text text-anchor="middle" x="287.0538" y="-271.7066" font-family="Times,serif" font-size="14.00" fill="#000000">Deterministic</text>
</g>
<!-- Smfc_mu -->
<g id="node20" class="node">
<title>Smfc_mu</title>
<polygon fill="none" stroke="#000000" points="892.5538,-213.93 801.5538,-213.93 801.5538,-160.93 892.5538,-160.93 892.5538,-213.93"/>
<text text-anchor="middle" x="847.0538" y="-198.73" font-family="Times,serif" font-size="14.00" fill="#000000">Smfc_mu</text>
<text text-anchor="middle" x="847.0538" y="-183.73" font-family="Times,serif" font-size="14.00" fill="#000000">~</text>
<text text-anchor="middle" x="847.0538" y="-168.73" font-family="Times,serif" font-size="14.00" fill="#000000">Deterministic</text>
</g>
<!-- Smfc_b0&#45;&gt;Smfc_mu -->
<g id="edge14" class="edge">
<title>Smfc_b0&#45;&gt;Smfc_mu</title>
<path fill="none" stroke="#000000" d="M332.7495,-267.1118C360.1924,-254.3852 396.239,-239.8389 430.0538,-232.9066 469.4662,-224.8269 753.7409,-237.1841 792.0538,-224.9066 796.6925,-223.4202 801.2948,-221.407 805.7471,-219.0809"/>
<polygon fill="#000000" stroke="#000000" points="807.7365,-221.9735 814.6386,-213.9353 804.2303,-215.9149 807.7365,-221.9735"/>
</g>
<!-- Smfc_b1_dist -->
<g id="node3" class="node">
<title>Smfc_b1_dist</title>
<ellipse fill="none" stroke="#000000" cx="801.0538" cy="-390.3833" rx="65.1077" ry="37.4533"/>
<text text-anchor="middle" x="801.0538" y="-401.6833" font-family="Times,serif" font-size="14.00" fill="#000000">Smfc_b1_dist</text>
<text text-anchor="middle" x="801.0538" y="-386.6833" font-family="Times,serif" font-size="14.00" fill="#000000">~</text>
<text text-anchor="middle" x="801.0538" y="-371.6833" font-family="Times,serif" font-size="14.00" fill="#000000">Normal</text>
</g>
<!-- Smfc_b1 -->
<g id="node13" class="node">
<title>Smfc_b1</title>
<polygon fill="none" stroke="#000000" points="708.5538,-316.9066 617.5538,-316.9066 617.5538,-263.9066 708.5538,-263.9066 708.5538,-316.9066"/>
<text text-anchor="middle" x="663.0538" y="-301.7066" font-family="Times,serif" font-size="14.00" fill="#000000">Smfc_b1</text>
<text text-anchor="middle" x="663.0538" y="-286.7066" font-family="Times,serif" font-size="14.00" fill="#000000">~</text>
<text text-anchor="middle" x="663.0538" y="-271.7066" font-family="Times,serif" font-size="14.00" fill="#000000">Deterministic</text>
</g>
<!-- Smfc_b1_dist&#45;&gt;Smfc_b1 -->
<g id="edge4" class="edge">
<title>Smfc_b1_dist&#45;&gt;Smfc_b1</title>
<path fill="none" stroke="#000000" d="M760.3957,-360.9277C743.8611,-348.949 724.6985,-335.0662 707.7708,-322.8027"/>
<polygon fill="#000000" stroke="#000000" points="709.8133,-319.9604 699.6617,-316.9279 705.7064,-325.6291 709.8133,-319.9604"/>
</g>
<!-- Smfc_sigma12 -->
<g id="node4" class="node">
<title>Smfc_sigma12</title>
<ellipse fill="none" stroke="#000000" cx="1567.0538" cy="-390.3833" rx="70.0071" ry="37.4533"/>
<text text-anchor="middle" x="1567.0538" y="-401.6833" font-family="Times,serif" font-size="14.00" fill="#000000">Smfc_sigma12</text>
<text text-anchor="middle" x="1567.0538" y="-386.6833" font-family="Times,serif" font-size="14.00" fill="#000000">~</text>
<text text-anchor="middle" x="1567.0538" y="-371.6833" font-family="Times,serif" font-size="14.00" fill="#000000">HalfNormal</text>
</g>
<!-- Smfc_M12 -->
<g id="node19" class="node">
<title>Smfc_M12</title>
<polygon fill="none" stroke="#000000" points="1464.5538,-316.9066 1373.5538,-316.9066 1373.5538,-263.9066 1464.5538,-263.9066 1464.5538,-316.9066"/>
<text text-anchor="middle" x="1419.0538" y="-301.7066" font-family="Times,serif" font-size="14.00" fill="#000000">Smfc_M12</text>
<text text-anchor="middle" x="1419.0538" y="-286.7066" font-family="Times,serif" font-size="14.00" fill="#000000">~</text>
<text text-anchor="middle" x="1419.0538" y="-271.7066" font-family="Times,serif" font-size="14.00" fill="#000000">Deterministic</text>
</g>
<!-- Smfc_sigma12&#45;&gt;Smfc_M12 -->
<g id="edge11" class="edge">
<title>Smfc_sigma12&#45;&gt;Smfc_M12</title>
<path fill="none" stroke="#000000" d="M1523.4494,-360.9277C1505.7167,-348.949 1485.1655,-335.0662 1467.0111,-322.8027"/>
<polygon fill="#000000" stroke="#000000" points="1468.5601,-319.6253 1458.3144,-316.9279 1464.6417,-325.4259 1468.5601,-319.6253"/>
</g>
<!-- Smfc_b0_dist -->
<g id="node5" class="node">
<title>Smfc_b0_dist</title>
<ellipse fill="none" stroke="#000000" cx="65.0538" cy="-390.3833" rx="65.1077" ry="37.4533"/>
<text text-anchor="middle" x="65.0538" y="-401.6833" font-family="Times,serif" font-size="14.00" fill="#000000">Smfc_b0_dist</text>
<text text-anchor="middle" x="65.0538" y="-386.6833" font-family="Times,serif" font-size="14.00" fill="#000000">~</text>
<text text-anchor="middle" x="65.0538" y="-371.6833" font-family="Times,serif" font-size="14.00" fill="#000000">Normal</text>
</g>
<!-- Smfc_b0_dist&#45;&gt;Smfc_b0 -->
<g id="edge2" class="edge">
<title>Smfc_b0_dist&#45;&gt;Smfc_b0</title>
<path fill="none" stroke="#000000" d="M113.7804,-365.1062C122.1618,-360.9309 130.8231,-356.7232 139.0538,-352.9066 169.3846,-338.8424 203.7593,-324.2463 231.7413,-312.6998"/>
<polygon fill="#000000" stroke="#000000" points="233.4362,-315.7873 241.3551,-308.7487 230.7753,-309.3128 233.4362,-315.7873"/>
</g>
<!-- Smfc_nuY -->
<g id="node6" class="node">
<title>Smfc_nuY</title>
<ellipse fill="none" stroke="#000000" cx="968.0538" cy="-187.43" rx="57.9655" ry="37.4533"/>
<text text-anchor="middle" x="968.0538" y="-198.73" font-family="Times,serif" font-size="14.00" fill="#000000">Smfc_nuY</text>
<text text-anchor="middle" x="968.0538" y="-183.73" font-family="Times,serif" font-size="14.00" fill="#000000">~</text>
<text text-anchor="middle" x="968.0538" y="-168.73" font-family="Times,serif" font-size="14.00" fill="#000000">Exponential</text>
</g>
<!-- Smfc_nuY&#45;&gt;Smfc_y -->
<g id="edge20" class="edge">
<title>Smfc_nuY&#45;&gt;Smfc_y</title>
<path fill="none" stroke="#000000" d="M934.3486,-156.5233C919.2049,-142.637 901.2543,-126.1769 885.5807,-111.8046"/>
<polygon fill="#000000" stroke="#000000" points="887.8275,-109.1161 878.0916,-104.9373 883.0965,-114.2755 887.8275,-109.1161"/>
</g>
<!-- Smfc_sigma0 -->
<g id="node7" class="node">
<title>Smfc_sigma0</title>
<ellipse fill="none" stroke="#000000" cx="213.0538" cy="-390.3833" rx="65.1077" ry="37.4533"/>
<text text-anchor="middle" x="213.0538" y="-401.6833" font-family="Times,serif" font-size="14.00" fill="#000000">Smfc_sigma0</text>
<text text-anchor="middle" x="213.0538" y="-386.6833" font-family="Times,serif" font-size="14.00" fill="#000000">~</text>
<text text-anchor="middle" x="213.0538" y="-371.6833" font-family="Times,serif" font-size="14.00" fill="#000000">HalfNormal</text>
</g>
<!-- Smfc_sigma0&#45;&gt;Smfc_b0 -->
<g id="edge1" class="edge">
<title>Smfc_sigma0&#45;&gt;Smfc_b0</title>
<path fill="none" stroke="#000000" d="M238.7278,-355.6969C246.033,-345.8273 253.9901,-335.0769 261.3,-325.2009"/>
<polygon fill="#000000" stroke="#000000" points="264.1235,-327.2693 267.2597,-317.1493 258.4971,-323.1048 264.1235,-327.2693"/>
</g>
<!-- Smfc_M12_dist -->
<g id="node8" class="node">
<title>Smfc_M12_dist</title>
<ellipse fill="none" stroke="#000000" cx="1729.0538" cy="-390.3833" rx="74.4932" ry="37.4533"/>
<text text-anchor="middle" x="1729.0538" y="-401.6833" font-family="Times,serif" font-size="14.00" fill="#000000">Smfc_M12_dist</text>
<text text-anchor="middle" x="1729.0538" y="-386.6833" font-family="Times,serif" font-size="14.00" fill="#000000">~</text>
<text text-anchor="middle" x="1729.0538" y="-371.6833" font-family="Times,serif" font-size="14.00" fill="#000000">Normal</text>
</g>
<!-- Smfc_M12_dist&#45;&gt;Smfc_M12 -->
<g id="edge13" class="edge">
<title>Smfc_M12_dist&#45;&gt;Smfc_M12</title>
<path fill="none" stroke="#000000" d="M1675.0837,-364.5597C1665.5179,-360.4021 1655.5715,-356.3421 1646.0538,-352.9066 1588.7419,-332.2198 1521.2095,-314.4336 1474.7902,-303.1838"/>
<polygon fill="#000000" stroke="#000000" points="1475.4664,-299.7467 1464.9255,-300.8144 1473.8315,-306.5531 1475.4664,-299.7467"/>
</g>
<!-- Smfc_b2_dist -->
<g id="node9" class="node">
<title>Smfc_b2_dist</title>
<ellipse fill="none" stroke="#000000" cx="1248.0538" cy="-390.3833" rx="65.1077" ry="37.4533"/>
<text text-anchor="middle" x="1248.0538" y="-401.6833" font-family="Times,serif" font-size="14.00" fill="#000000">Smfc_b2_dist</text>
<text text-anchor="middle" x="1248.0538" y="-386.6833" font-family="Times,serif" font-size="14.00" fill="#000000">~</text>
<text text-anchor="middle" x="1248.0538" y="-371.6833" font-family="Times,serif" font-size="14.00" fill="#000000">Gumbel</text>
</g>
<!-- Smfc_b2 -->
<g id="node17" class="node">
<title>Smfc_b2</title>
<polygon fill="none" stroke="#000000" points="1068.5538,-316.9066 977.5538,-316.9066 977.5538,-263.9066 1068.5538,-263.9066 1068.5538,-316.9066"/>
<text text-anchor="middle" x="1023.0538" y="-301.7066" font-family="Times,serif" font-size="14.00" fill="#000000">Smfc_b2</text>
<text text-anchor="middle" x="1023.0538" y="-286.7066" font-family="Times,serif" font-size="14.00" fill="#000000">~</text>
<text text-anchor="middle" x="1023.0538" y="-271.7066" font-family="Times,serif" font-size="14.00" fill="#000000">Deterministic</text>
</g>
<!-- Smfc_b2_dist&#45;&gt;Smfc_b2 -->
<g id="edge8" class="edge">
<title>Smfc_b2_dist&#45;&gt;Smfc_b2</title>
<path fill="none" stroke="#000000" d="M1200.6438,-364.5209C1192.8282,-360.5 1184.7621,-356.4942 1177.0538,-352.9066 1144.7151,-337.8556 1107.6979,-322.7664 1078.0617,-311.1857"/>
<polygon fill="#000000" stroke="#000000" points="1079.3029,-307.9132 1068.7141,-307.5536 1076.7675,-314.4379 1079.3029,-307.9132"/>
</g>
<!-- Smfc_mu_b0 -->
<g id="node10" class="node">
<title>Smfc_mu_b0</title>
<ellipse fill="none" stroke="#000000" cx="360.0538" cy="-390.3833" rx="64.1938" ry="37.4533"/>
<text text-anchor="middle" x="360.0538" y="-401.6833" font-family="Times,serif" font-size="14.00" fill="#000000">Smfc_mu_b0</text>
<text text-anchor="middle" x="360.0538" y="-386.6833" font-family="Times,serif" font-size="14.00" fill="#000000">~</text>
<text text-anchor="middle" x="360.0538" y="-371.6833" font-family="Times,serif" font-size="14.00" fill="#000000">Normal</text>
</g>
<!-- Smfc_mu_b0&#45;&gt;Smfc_b0 -->
<g id="edge3" class="edge">
<title>Smfc_mu_b0&#45;&gt;Smfc_b0</title>
<path fill="none" stroke="#000000" d="M334.7268,-355.6969C327.5924,-345.926 319.8277,-335.2919 312.6761,-325.4975"/>
<polygon fill="#000000" stroke="#000000" points="315.3042,-323.1615 306.5805,-317.1493 309.6509,-327.2895 315.3042,-323.1615"/>
</g>
<!-- Smfc_mu_b1 -->
<g id="node11" class="node">
<title>Smfc_mu_b1</title>
<ellipse fill="none" stroke="#000000" cx="654.0538" cy="-390.3833" rx="64.1938" ry="37.4533"/>
<text text-anchor="middle" x="654.0538" y="-401.6833" font-family="Times,serif" font-size="14.00" fill="#000000">Smfc_mu_b1</text>
<text text-anchor="middle" x="654.0538" y="-386.6833" font-family="Times,serif" font-size="14.00" fill="#000000">~</text>
<text text-anchor="middle" x="654.0538" y="-371.6833" font-family="Times,serif" font-size="14.00" fill="#000000">Normal</text>
</g>
<!-- Smfc_mu_b1&#45;&gt;Smfc_b1 -->
<g id="edge5" class="edge">
<title>Smfc_mu_b1&#45;&gt;Smfc_b1</title>
<path fill="none" stroke="#000000" d="M657.4307,-352.8712C658.1812,-344.5341 658.9763,-335.7023 659.7248,-327.3867"/>
<polygon fill="#000000" stroke="#000000" points="663.2306,-327.4793 660.6413,-317.2057 656.2588,-326.8516 663.2306,-327.4793"/>
</g>
<!-- Smfc_sigma1 -->
<g id="node12" class="node">
<title>Smfc_sigma1</title>
<ellipse fill="none" stroke="#000000" cx="507.0538" cy="-390.3833" rx="65.1077" ry="37.4533"/>
<text text-anchor="middle" x="507.0538" y="-401.6833" font-family="Times,serif" font-size="14.00" fill="#000000">Smfc_sigma1</text>
<text text-anchor="middle" x="507.0538" y="-386.6833" font-family="Times,serif" font-size="14.00" fill="#000000">~</text>
<text text-anchor="middle" x="507.0538" y="-371.6833" font-family="Times,serif" font-size="14.00" fill="#000000">HalfNormal</text>
</g>
<!-- Smfc_sigma1&#45;&gt;Smfc_b1 -->
<g id="edge6" class="edge">
<title>Smfc_sigma1&#45;&gt;Smfc_b1</title>
<path fill="none" stroke="#000000" d="M550.9237,-362.2682C570.2352,-349.8919 593.0235,-335.2874 612.9956,-322.4878"/>
<polygon fill="#000000" stroke="#000000" points="615.1258,-325.2797 621.6567,-316.9371 611.3487,-319.3861 615.1258,-325.2797"/>
</g>
<!-- Smfc_b1&#45;&gt;Smfc_mu -->
<g id="edge15" class="edge">
<title>Smfc_b1&#45;&gt;Smfc_mu</title>
<path fill="none" stroke="#000000" d="M708.5902,-269.0587C733.6384,-256.8774 765.0278,-240.8864 792.0538,-224.9066 794.8885,-223.2306 797.7736,-221.4632 800.6629,-219.6457"/>
<polygon fill="#000000" stroke="#000000" points="802.7857,-222.4416 809.2968,-214.0836 798.9947,-216.557 802.7857,-222.4416"/>
</g>
<!-- Smfc_b2_beta -->
<g id="node14" class="node">
<title>Smfc_b2_beta</title>
<ellipse fill="none" stroke="#000000" cx="1098.0538" cy="-390.3833" rx="67.3507" ry="37.4533"/>
<text text-anchor="middle" x="1098.0538" y="-401.6833" font-family="Times,serif" font-size="14.00" fill="#000000">Smfc_b2_beta</text>
<text text-anchor="middle" x="1098.0538" y="-386.6833" font-family="Times,serif" font-size="14.00" fill="#000000">~</text>
<text text-anchor="middle" x="1098.0538" y="-371.6833" font-family="Times,serif" font-size="14.00" fill="#000000">HalfNormal</text>
</g>
<!-- Smfc_b2_beta&#45;&gt;Smfc_b2 -->
<g id="edge10" class="edge">
<title>Smfc_b2_beta&#45;&gt;Smfc_b2</title>
<path fill="none" stroke="#000000" d="M1072.0329,-355.6969C1064.629,-345.8273 1056.5644,-335.0769 1049.1556,-325.2009"/>
<polygon fill="#000000" stroke="#000000" points="1051.9162,-323.0483 1043.1155,-317.1493 1046.3166,-327.249 1051.9162,-323.0483"/>
</g>
<!-- Smfc_sigma2 -->
<g id="node15" class="node">
<title>Smfc_sigma2</title>
<ellipse fill="none" stroke="#000000" cx="1098.0538" cy="-501.3366" rx="65.1077" ry="37.4533"/>
<text text-anchor="middle" x="1098.0538" y="-512.6366" font-family="Times,serif" font-size="14.00" fill="#000000">Smfc_sigma2</text>
<text text-anchor="middle" x="1098.0538" y="-497.6366" font-family="Times,serif" font-size="14.00" fill="#000000">~</text>
<text text-anchor="middle" x="1098.0538" y="-482.6366" font-family="Times,serif" font-size="14.00" fill="#000000">HalfNormal</text>
</g>
<!-- Smfc_sigma2&#45;&gt;Smfc_b2_beta -->
<g id="edge7" class="edge">
<title>Smfc_sigma2&#45;&gt;Smfc_b2_beta</title>
<path fill="none" stroke="#000000" d="M1098.0538,-463.7729C1098.0538,-455.549 1098.0538,-446.7367 1098.0538,-438.1736"/>
<polygon fill="#000000" stroke="#000000" points="1101.5539,-437.9083 1098.0538,-427.9083 1094.5539,-437.9084 1101.5539,-437.9083"/>
</g>
<!-- Smfc_mu_b2 -->
<g id="node16" class="node">
<title>Smfc_mu_b2</title>
<ellipse fill="none" stroke="#000000" cx="948.0538" cy="-390.3833" rx="64.1938" ry="37.4533"/>
<text text-anchor="middle" x="948.0538" y="-401.6833" font-family="Times,serif" font-size="14.00" fill="#000000">Smfc_mu_b2</text>
<text text-anchor="middle" x="948.0538" y="-386.6833" font-family="Times,serif" font-size="14.00" fill="#000000">~</text>
<text text-anchor="middle" x="948.0538" y="-371.6833" font-family="Times,serif" font-size="14.00" fill="#000000">Normal</text>
</g>
<!-- Smfc_mu_b2&#45;&gt;Smfc_b2 -->
<g id="edge9" class="edge">
<title>Smfc_mu_b2&#45;&gt;Smfc_b2</title>
<path fill="none" stroke="#000000" d="M973.8646,-355.977C981.346,-346.0041 989.5171,-335.1118 997.0126,-325.1202"/>
<polygon fill="#000000" stroke="#000000" points="999.9187,-327.0788 1003.1198,-316.9791 994.3191,-322.8781 999.9187,-327.0788"/>
</g>
<!-- Smfc_b2&#45;&gt;Smfc_mu -->
<g id="edge16" class="edge">
<title>Smfc_b2&#45;&gt;Smfc_mu</title>
<path fill="none" stroke="#000000" d="M977.4587,-267.5013C954.2323,-255.4398 925.7545,-240.0408 901.0538,-224.9066 898.2807,-223.2075 895.4557,-221.4222 892.6248,-219.591"/>
<polygon fill="#000000" stroke="#000000" points="894.4335,-216.5911 884.1604,-213.9999 890.5753,-222.4319 894.4335,-216.5911"/>
</g>
<!-- Smfc_mu_M12 -->
<g id="node18" class="node">
<title>Smfc_mu_M12</title>
<ellipse fill="none" stroke="#000000" cx="1405.0538" cy="-390.3833" rx="73.5782" ry="37.4533"/>
<text text-anchor="middle" x="1405.0538" y="-401.6833" font-family="Times,serif" font-size="14.00" fill="#000000">Smfc_mu_M12</text>
<text text-anchor="middle" x="1405.0538" y="-386.6833" font-family="Times,serif" font-size="14.00" fill="#000000">~</text>
<text text-anchor="middle" x="1405.0538" y="-371.6833" font-family="Times,serif" font-size="14.00" fill="#000000">Normal</text>
</g>
<!-- Smfc_mu_M12&#45;&gt;Smfc_M12 -->
<g id="edge12" class="edge">
<title>Smfc_mu_M12&#45;&gt;Smfc_M12</title>
<path fill="none" stroke="#000000" d="M1410.3067,-352.8712C1411.4872,-344.4415 1412.7384,-335.506 1413.9142,-327.1097"/>
<polygon fill="#000000" stroke="#000000" points="1417.3804,-327.5945 1415.3011,-317.2057 1410.448,-326.6237 1417.3804,-327.5945"/>
</g>
<!-- Smfc_M12&#45;&gt;Smfc_mu -->
<g id="edge17" class="edge">
<title>Smfc_M12&#45;&gt;Smfc_mu</title>
<path fill="none" stroke="#000000" d="M1373.1843,-276.5421C1324.897,-262.65 1246.4106,-242.0537 1177.0538,-232.9066 1146.6377,-228.8952 930.1967,-234.4944 901.0538,-224.9066 896.5485,-223.4244 892.0826,-221.4356 887.7623,-219.1439"/>
<polygon fill="#000000" stroke="#000000" points="889.5285,-216.1222 879.1325,-214.0794 885.9855,-222.1594 889.5285,-216.1222"/>
</g>
<!-- Smfc_mu&#45;&gt;Smfc_y -->
<g id="edge19" class="edge">
<title>Smfc_mu&#45;&gt;Smfc_y</title>
<path fill="none" stroke="#000000" d="M847.0538,-160.8539C847.0538,-149.9351 847.0538,-136.944 847.0538,-124.4675"/>
<polygon fill="#000000" stroke="#000000" points="850.5539,-124.1649 847.0538,-114.165 843.5539,-124.165 850.5539,-124.1649"/>
</g>
</g>
</svg>
