<?xml version="1.0" encoding="UTF-8" standalone="no"?>
<!DOCTYPE svg PUBLIC "-//W3C//DTD SVG 1.1//EN"
 "http://www.w3.org/Graphics/SVG/1.1/DTD/svg11.dtd">
<!-- Generated by graphviz version 2.40.1 (20161225.0304)
 -->
<!-- Title: Asfc Pages: 1 -->
<svg width="1769pt" height="563pt"
 viewBox="0.00 0.00 1768.93 562.81" xmlns="http://www.w3.org/2000/svg" xmlns:xlink="http://www.w3.org/1999/xlink">
<g id="graph0" class="graph" transform="scale(1 1) rotate(0) translate(4 558.8133)">
<title>Asfc</title>
<polygon fill="#ffffff" stroke="transparent" points="-4,4 -4,-558.8133 1764.9325,-558.8133 1764.9325,4 -4,4"/>
<g id="clust1" class="cluster">
<title>cluster2</title>
<path fill="none" stroke="#000000" d="M20,-232.9066C20,-232.9066 279,-232.9066 279,-232.9066 285,-232.9066 291,-238.9066 291,-244.9066 291,-244.9066 291,-423.86 291,-423.86 291,-429.86 285,-435.86 279,-435.86 279,-435.86 20,-435.86 20,-435.86 14,-435.86 8,-429.86 8,-423.86 8,-423.86 8,-244.9066 8,-244.9066 8,-238.9066 14,-232.9066 20,-232.9066"/>
<text text-anchor="middle" x="279.5" y="-240.7066" font-family="Times,serif" font-size="14.00" fill="#000000">2</text>
</g>
<g id="clust2" class="cluster">
<title>cluster11</title>
<path fill="none" stroke="#000000" d="M449,-232.9066C449,-232.9066 713,-232.9066 713,-232.9066 719,-232.9066 725,-238.9066 725,-244.9066 725,-244.9066 725,-534.8133 725,-534.8133 725,-540.8133 719,-546.8133 713,-546.8133 713,-546.8133 449,-546.8133 449,-546.8133 443,-546.8133 437,-540.8133 437,-534.8133 437,-534.8133 437,-244.9066 437,-244.9066 437,-238.9066 443,-232.9066 449,-232.9066"/>
<text text-anchor="middle" x="710" y="-240.7066" font-family="Times,serif" font-size="14.00" fill="#000000">11</text>
</g>
<g id="clust3" class="cluster">
<title>cluster2 x 11</title>
<path fill="none" stroke="#000000" d="M882,-232.9066C882,-232.9066 1016,-232.9066 1016,-232.9066 1022,-232.9066 1028,-238.9066 1028,-244.9066 1028,-244.9066 1028,-423.86 1028,-423.86 1028,-429.86 1022,-435.86 1016,-435.86 1016,-435.86 882,-435.86 882,-435.86 876,-435.86 870,-429.86 870,-423.86 870,-423.86 870,-244.9066 870,-244.9066 870,-238.9066 876,-232.9066 882,-232.9066"/>
<text text-anchor="middle" x="1002.5" y="-240.7066" font-family="Times,serif" font-size="14.00" fill="#000000">2 x 11</text>
</g>
<g id="clust4" class="cluster">
<title>cluster230</title>
<path fill="none" stroke="#000000" d="M774,-8C774,-8 860,-8 860,-8 866,-8 872,-14 872,-20 872,-20 872,-209.93 872,-209.93 872,-215.93 866,-221.93 860,-221.93 860,-221.93 774,-221.93 774,-221.93 768,-221.93 762,-215.93 762,-209.93 762,-209.93 762,-20 762,-20 762,-14 768,-8 774,-8"/>
<text text-anchor="middle" x="853.5" y="-15.8" font-family="Times,serif" font-size="14.00" fill="#000000">230</text>
</g>
<!-- Asfc_sigma0 -->
<g id="node1" class="node">
<title>Asfc_sigma0</title>
<ellipse fill="none" stroke="#000000" cx="1414" cy="-390.3833" rx="62.8651" ry="37.4533"/>
<text text-anchor="middle" x="1414" y="-401.6833" font-family="Times,serif" font-size="14.00" fill="#000000">Asfc_sigma0</text>
<text text-anchor="middle" x="1414" y="-386.6833" font-family="Times,serif" font-size="14.00" fill="#000000">~</text>
<text text-anchor="middle" x="1414" y="-371.6833" font-family="Times,serif" font-size="14.00" fill="#000000">HalfNormal</text>
</g>
<!-- Asfc_b0 -->
<g id="node7" class="node">
<title>Asfc_b0</title>
<polygon fill="none" stroke="#000000" points="1530.5,-316.9066 1439.5,-316.9066 1439.5,-263.9066 1530.5,-263.9066 1530.5,-316.9066"/>
<text text-anchor="middle" x="1485" y="-301.7066" font-family="Times,serif" font-size="14.00" fill="#000000">Asfc_b0</text>
<text text-anchor="middle" x="1485" y="-286.7066" font-family="Times,serif" font-size="14.00" fill="#000000">~</text>
<text text-anchor="middle" x="1485" y="-271.7066" font-family="Times,serif" font-size="14.00" fill="#000000">Deterministic</text>
</g>
<!-- Asfc_sigma0&#45;&gt;Asfc_b0 -->
<g id="edge1" class="edge">
<title>Asfc_sigma0&#45;&gt;Asfc_b0</title>
<path fill="none" stroke="#000000" d="M1438.6331,-355.6969C1445.5721,-345.926 1453.1241,-335.2919 1460.0797,-325.4975"/>
<polygon fill="#000000" stroke="#000000" points="1463.0718,-327.329 1466.0083,-317.1493 1457.3645,-323.2759 1463.0718,-327.329"/>
</g>
<!-- Asfc_sigmaY -->
<g id="node2" class="node">
<title>Asfc_sigmaY</title>
<ellipse fill="none" stroke="#000000" cx="945" cy="-187.43" rx="65.1077" ry="37.4533"/>
<text text-anchor="middle" x="945" y="-198.73" font-family="Times,serif" font-size="14.00" fill="#000000">Asfc_sigmaY</text>
<text text-anchor="middle" x="945" y="-183.73" font-family="Times,serif" font-size="14.00" fill="#000000">~</text>
<text text-anchor="middle" x="945" y="-168.73" font-family="Times,serif" font-size="14.00" fill="#000000">Gamma</text>
</g>
<!-- Asfc_y -->
<g id="node21" class="node">
<title>Asfc_y</title>
<ellipse fill="#d3d3d3" stroke="#000000" cx="817" cy="-76.4767" rx="46.8387" ry="37.4533"/>
<text text-anchor="middle" x="817" y="-87.7767" font-family="Times,serif" font-size="14.00" fill="#000000">Asfc_y</text>
<text text-anchor="middle" x="817" y="-72.7767" font-family="Times,serif" font-size="14.00" fill="#000000">~</text>
<text text-anchor="middle" x="817" y="-57.7767" font-family="Times,serif" font-size="14.00" fill="#000000">StudentT</text>
</g>
<!-- Asfc_sigmaY&#45;&gt;Asfc_y -->
<g id="edge20" class="edge">
<title>Asfc_sigmaY&#45;&gt;Asfc_y</title>
<path fill="none" stroke="#000000" d="M908.6627,-155.932C892.5293,-141.9472 873.4919,-125.4451 856.9589,-111.1139"/>
<polygon fill="#000000" stroke="#000000" points="858.9164,-108.1788 849.0675,-104.2735 854.3314,-113.4683 858.9164,-108.1788"/>
</g>
<!-- Asfc_sigma12 -->
<g id="node3" class="node">
<title>Asfc_sigma12</title>
<ellipse fill="none" stroke="#000000" cx="1105" cy="-390.3833" rx="67.3507" ry="37.4533"/>
<text text-anchor="middle" x="1105" y="-401.6833" font-family="Times,serif" font-size="14.00" fill="#000000">Asfc_sigma12</text>
<text text-anchor="middle" x="1105" y="-386.6833" font-family="Times,serif" font-size="14.00" fill="#000000">~</text>
<text text-anchor="middle" x="1105" y="-371.6833" font-family="Times,serif" font-size="14.00" fill="#000000">HalfNormal</text>
</g>
<!-- Asfc_M12 -->
<g id="node19" class="node">
<title>Asfc_M12</title>
<polygon fill="none" stroke="#000000" points="1006.5,-316.9066 915.5,-316.9066 915.5,-263.9066 1006.5,-263.9066 1006.5,-316.9066"/>
<text text-anchor="middle" x="961" y="-301.7066" font-family="Times,serif" font-size="14.00" fill="#000000">Asfc_M12</text>
<text text-anchor="middle" x="961" y="-286.7066" font-family="Times,serif" font-size="14.00" fill="#000000">~</text>
<text text-anchor="middle" x="961" y="-271.7066" font-family="Times,serif" font-size="14.00" fill="#000000">Deterministic</text>
</g>
<!-- Asfc_sigma12&#45;&gt;Asfc_M12 -->
<g id="edge13" class="edge">
<title>Asfc_sigma12&#45;&gt;Asfc_M12</title>
<path fill="none" stroke="#000000" d="M1062.5741,-360.9277C1045.3206,-348.949 1025.3248,-335.0662 1007.6612,-322.8027"/>
<polygon fill="#000000" stroke="#000000" points="1009.4099,-319.756 999.1995,-316.9279 1005.4178,-325.506 1009.4099,-319.756"/>
</g>
<!-- Asfc_mu_b0 -->
<g id="node4" class="node">
<title>Asfc_mu_b0</title>
<ellipse fill="none" stroke="#000000" cx="1556" cy="-390.3833" rx="61.5366" ry="37.4533"/>
<text text-anchor="middle" x="1556" y="-401.6833" font-family="Times,serif" font-size="14.00" fill="#000000">Asfc_mu_b0</text>
<text text-anchor="middle" x="1556" y="-386.6833" font-family="Times,serif" font-size="14.00" fill="#000000">~</text>
<text text-anchor="middle" x="1556" y="-371.6833" font-family="Times,serif" font-size="14.00" fill="#000000">Normal</text>
</g>
<!-- Asfc_mu_b0&#45;&gt;Asfc_b0 -->
<g id="edge2" class="edge">
<title>Asfc_mu_b0&#45;&gt;Asfc_b0</title>
<path fill="none" stroke="#000000" d="M1531.5658,-355.977C1524.5542,-346.1038 1516.9027,-335.3296 1509.8655,-325.4202"/>
<polygon fill="#000000" stroke="#000000" points="1512.5146,-323.1057 1503.8708,-316.9791 1506.8074,-327.1588 1512.5146,-323.1057"/>
</g>
<!-- Asfc_b2_dist -->
<g id="node5" class="node">
<title>Asfc_b2_dist</title>
<ellipse fill="none" stroke="#000000" cx="797" cy="-390.3833" rx="62.8651" ry="37.4533"/>
<text text-anchor="middle" x="797" y="-401.6833" font-family="Times,serif" font-size="14.00" fill="#000000">Asfc_b2_dist</text>
<text text-anchor="middle" x="797" y="-386.6833" font-family="Times,serif" font-size="14.00" fill="#000000">~</text>
<text text-anchor="middle" x="797" y="-371.6833" font-family="Times,serif" font-size="14.00" fill="#000000">Gumbel</text>
</g>
<!-- Asfc_b2 -->
<g id="node14" class="node">
<title>Asfc_b2</title>
<polygon fill="none" stroke="#000000" points="708.5,-316.9066 617.5,-316.9066 617.5,-263.9066 708.5,-263.9066 708.5,-316.9066"/>
<text text-anchor="middle" x="663" y="-301.7066" font-family="Times,serif" font-size="14.00" fill="#000000">Asfc_b2</text>
<text text-anchor="middle" x="663" y="-286.7066" font-family="Times,serif" font-size="14.00" fill="#000000">~</text>
<text text-anchor="middle" x="663" y="-271.7066" font-family="Times,serif" font-size="14.00" fill="#000000">Deterministic</text>
</g>
<!-- Asfc_b2_dist&#45;&gt;Asfc_b2 -->
<g id="edge9" class="edge">
<title>Asfc_b2_dist&#45;&gt;Asfc_b2</title>
<path fill="none" stroke="#000000" d="M757.5203,-360.9277C741.611,-349.0579 723.1959,-335.3185 706.8696,-323.1375"/>
<polygon fill="#000000" stroke="#000000" points="708.6548,-320.1026 698.5468,-316.9279 704.4688,-325.7131 708.6548,-320.1026"/>
</g>
<!-- Asfc_M12_dist -->
<g id="node6" class="node">
<title>Asfc_M12_dist</title>
<ellipse fill="none" stroke="#000000" cx="1262" cy="-390.3833" rx="71.3357" ry="37.4533"/>
<text text-anchor="middle" x="1262" y="-401.6833" font-family="Times,serif" font-size="14.00" fill="#000000">Asfc_M12_dist</text>
<text text-anchor="middle" x="1262" y="-386.6833" font-family="Times,serif" font-size="14.00" fill="#000000">~</text>
<text text-anchor="middle" x="1262" y="-371.6833" font-family="Times,serif" font-size="14.00" fill="#000000">Normal</text>
</g>
<!-- Asfc_M12_dist&#45;&gt;Asfc_M12 -->
<g id="edge12" class="edge">
<title>Asfc_M12_dist&#45;&gt;Asfc_M12</title>
<path fill="none" stroke="#000000" d="M1209.7841,-364.7752C1200.3132,-360.5475 1190.4433,-356.4081 1181,-352.9066 1126.141,-332.5657 1061.5452,-314.9338 1016.5979,-303.6317"/>
<polygon fill="#000000" stroke="#000000" points="1017.2993,-300.1995 1006.7497,-301.1775 1015.6066,-306.9918 1017.2993,-300.1995"/>
</g>
<!-- Asfc_mu -->
<g id="node20" class="node">
<title>Asfc_mu</title>
<polygon fill="none" stroke="#000000" points="861.5,-213.93 770.5,-213.93 770.5,-160.93 861.5,-160.93 861.5,-213.93"/>
<text text-anchor="middle" x="816" y="-198.73" font-family="Times,serif" font-size="14.00" fill="#000000">Asfc_mu</text>
<text text-anchor="middle" x="816" y="-183.73" font-family="Times,serif" font-size="14.00" fill="#000000">~</text>
<text text-anchor="middle" x="816" y="-168.73" font-family="Times,serif" font-size="14.00" fill="#000000">Deterministic</text>
</g>
<!-- Asfc_b0&#45;&gt;Asfc_mu -->
<g id="edge14" class="edge">
<title>Asfc_b0&#45;&gt;Asfc_mu</title>
<path fill="none" stroke="#000000" d="M1439.4721,-283.4538C1357.9673,-271.2693 1181.649,-246.1027 1032,-232.9066 996.3165,-229.7601 904.9594,-236.3072 871,-224.9066 866.4473,-223.3783 861.9232,-221.3583 857.5384,-219.0467"/>
<polygon fill="#000000" stroke="#000000" points="859.1747,-215.9496 848.769,-213.9563 855.6604,-222.0036 859.1747,-215.9496"/>
</g>
<!-- Asfc_nuY -->
<g id="node8" class="node">
<title>Asfc_nuY</title>
<ellipse fill="none" stroke="#000000" cx="1086" cy="-187.43" rx="57.9655" ry="37.4533"/>
<text text-anchor="middle" x="1086" y="-198.73" font-family="Times,serif" font-size="14.00" fill="#000000">Asfc_nuY</text>
<text text-anchor="middle" x="1086" y="-183.73" font-family="Times,serif" font-size="14.00" fill="#000000">~</text>
<text text-anchor="middle" x="1086" y="-168.73" font-family="Times,serif" font-size="14.00" fill="#000000">Exponential</text>
</g>
<!-- Asfc_nuY&#45;&gt;Asfc_y -->
<g id="edge19" class="edge">
<title>Asfc_nuY&#45;&gt;Asfc_y</title>
<path fill="none" stroke="#000000" d="M1042.9184,-161.9981C1035.0727,-157.7516 1026.8766,-153.5603 1019,-149.9533 969.8419,-127.4422 911.6246,-106.8766 870.3479,-93.2649"/>
<polygon fill="#000000" stroke="#000000" points="871.3533,-89.9113 860.7607,-90.1279 869.1763,-96.5642 871.3533,-89.9113"/>
</g>
<!-- Asfc_b1_dist -->
<g id="node9" class="node">
<title>Asfc_b1_dist</title>
<ellipse fill="none" stroke="#000000" cx="364" cy="-390.3833" rx="62.8651" ry="37.4533"/>
<text text-anchor="middle" x="364" y="-401.6833" font-family="Times,serif" font-size="14.00" fill="#000000">Asfc_b1_dist</text>
<text text-anchor="middle" x="364" y="-386.6833" font-family="Times,serif" font-size="14.00" fill="#000000">~</text>
<text text-anchor="middle" x="364" y="-371.6833" font-family="Times,serif" font-size="14.00" fill="#000000">Normal</text>
</g>
<!-- Asfc_b1 -->
<g id="node11" class="node">
<title>Asfc_b1</title>
<polygon fill="none" stroke="#000000" points="273.5,-316.9066 182.5,-316.9066 182.5,-263.9066 273.5,-263.9066 273.5,-316.9066"/>
<text text-anchor="middle" x="228" y="-301.7066" font-family="Times,serif" font-size="14.00" fill="#000000">Asfc_b1</text>
<text text-anchor="middle" x="228" y="-286.7066" font-family="Times,serif" font-size="14.00" fill="#000000">~</text>
<text text-anchor="middle" x="228" y="-271.7066" font-family="Times,serif" font-size="14.00" fill="#000000">Deterministic</text>
</g>
<!-- Asfc_b1_dist&#45;&gt;Asfc_b1 -->
<g id="edge5" class="edge">
<title>Asfc_b1_dist&#45;&gt;Asfc_b1</title>
<path fill="none" stroke="#000000" d="M324.2976,-361.1971C308.1405,-349.3197 289.3892,-335.5352 272.7495,-323.303"/>
<polygon fill="#000000" stroke="#000000" points="274.3957,-320.1692 264.2655,-317.0662 270.2496,-325.8093 274.3957,-320.1692"/>
</g>
<!-- Asfc_b0_dist -->
<g id="node10" class="node">
<title>Asfc_b0_dist</title>
<ellipse fill="none" stroke="#000000" cx="1698" cy="-390.3833" rx="62.8651" ry="37.4533"/>
<text text-anchor="middle" x="1698" y="-401.6833" font-family="Times,serif" font-size="14.00" fill="#000000">Asfc_b0_dist</text>
<text text-anchor="middle" x="1698" y="-386.6833" font-family="Times,serif" font-size="14.00" fill="#000000">~</text>
<text text-anchor="middle" x="1698" y="-371.6833" font-family="Times,serif" font-size="14.00" fill="#000000">Normal</text>
</g>
<!-- Asfc_b0_dist&#45;&gt;Asfc_b0 -->
<g id="edge3" class="edge">
<title>Asfc_b0_dist&#45;&gt;Asfc_b0</title>
<path fill="none" stroke="#000000" d="M1651.2646,-365.1132C1643.2211,-360.9371 1634.9063,-356.7273 1627,-352.9066 1598.7049,-339.2334 1566.7063,-325.0416 1540.257,-313.6439"/>
<polygon fill="#000000" stroke="#000000" points="1541.3506,-310.3046 1530.7807,-309.5773 1538.5901,-316.7373 1541.3506,-310.3046"/>
</g>
<!-- Asfc_b1&#45;&gt;Asfc_mu -->
<g id="edge17" class="edge">
<title>Asfc_b1&#45;&gt;Asfc_mu</title>
<path fill="none" stroke="#000000" d="M273.5087,-275.4438C314.7286,-262.4203 377.345,-243.9466 433,-232.9066 548.1094,-210.073 685.1135,-197.1893 760.0855,-191.3337"/>
<polygon fill="#000000" stroke="#000000" points="760.5412,-194.8091 770.2439,-190.5538 760.0053,-187.8297 760.5412,-194.8091"/>
</g>
<!-- Asfc_sigma1 -->
<g id="node12" class="node">
<title>Asfc_sigma1</title>
<ellipse fill="none" stroke="#000000" cx="220" cy="-390.3833" rx="62.8651" ry="37.4533"/>
<text text-anchor="middle" x="220" y="-401.6833" font-family="Times,serif" font-size="14.00" fill="#000000">Asfc_sigma1</text>
<text text-anchor="middle" x="220" y="-386.6833" font-family="Times,serif" font-size="14.00" fill="#000000">~</text>
<text text-anchor="middle" x="220" y="-371.6833" font-family="Times,serif" font-size="14.00" fill="#000000">HalfNormal</text>
</g>
<!-- Asfc_sigma1&#45;&gt;Asfc_b1 -->
<g id="edge4" class="edge">
<title>Asfc_sigma1&#45;&gt;Asfc_b1</title>
<path fill="none" stroke="#000000" d="M223.0017,-352.8712C223.6688,-344.5341 224.3755,-335.7023 225.0409,-327.3867"/>
<polygon fill="#000000" stroke="#000000" points="228.5467,-327.4531 225.8556,-317.2057 221.569,-326.8947 228.5467,-327.4531"/>
</g>
<!-- Asfc_mu_b1 -->
<g id="node13" class="node">
<title>Asfc_mu_b1</title>
<ellipse fill="none" stroke="#000000" cx="78" cy="-390.3833" rx="61.5366" ry="37.4533"/>
<text text-anchor="middle" x="78" y="-401.6833" font-family="Times,serif" font-size="14.00" fill="#000000">Asfc_mu_b1</text>
<text text-anchor="middle" x="78" y="-386.6833" font-family="Times,serif" font-size="14.00" fill="#000000">~</text>
<text text-anchor="middle" x="78" y="-371.6833" font-family="Times,serif" font-size="14.00" fill="#000000">Normal</text>
</g>
<!-- Asfc_mu_b1&#45;&gt;Asfc_b1 -->
<g id="edge6" class="edge">
<title>Asfc_mu_b1&#45;&gt;Asfc_b1</title>
<path fill="none" stroke="#000000" d="M119.7834,-362.5342C138.3595,-350.1531 160.3424,-335.5011 179.6266,-322.6481"/>
<polygon fill="#000000" stroke="#000000" points="181.6106,-325.5319 187.9906,-317.0734 177.7283,-319.7071 181.6106,-325.5319"/>
</g>
<!-- Asfc_b2&#45;&gt;Asfc_mu -->
<g id="edge15" class="edge">
<title>Asfc_b2&#45;&gt;Asfc_mu</title>
<path fill="none" stroke="#000000" d="M702.4013,-263.8876C722.4008,-250.4269 746.8637,-233.9622 767.9593,-219.7638"/>
<polygon fill="#000000" stroke="#000000" points="770.1249,-222.5252 776.4666,-214.0379 766.2163,-216.718 770.1249,-222.5252"/>
</g>
<!-- Asfc_b2_beta -->
<g id="node15" class="node">
<title>Asfc_b2_beta</title>
<ellipse fill="none" stroke="#000000" cx="510" cy="-390.3833" rx="65.1077" ry="37.4533"/>
<text text-anchor="middle" x="510" y="-401.6833" font-family="Times,serif" font-size="14.00" fill="#000000">Asfc_b2_beta</text>
<text text-anchor="middle" x="510" y="-386.6833" font-family="Times,serif" font-size="14.00" fill="#000000">~</text>
<text text-anchor="middle" x="510" y="-371.6833" font-family="Times,serif" font-size="14.00" fill="#000000">HalfNormal</text>
</g>
<!-- Asfc_b2_beta&#45;&gt;Asfc_b2 -->
<g id="edge8" class="edge">
<title>Asfc_b2_beta&#45;&gt;Asfc_b2</title>
<path fill="none" stroke="#000000" d="M553.0262,-362.2682C571.9663,-349.8919 594.3164,-335.2874 613.9044,-322.4878"/>
<polygon fill="#000000" stroke="#000000" points="615.9422,-325.3372 622.3989,-316.9371 612.1131,-319.4773 615.9422,-325.3372"/>
</g>
<!-- Asfc_mu_b2 -->
<g id="node16" class="node">
<title>Asfc_mu_b2</title>
<ellipse fill="none" stroke="#000000" cx="655" cy="-390.3833" rx="61.5366" ry="37.4533"/>
<text text-anchor="middle" x="655" y="-401.6833" font-family="Times,serif" font-size="14.00" fill="#000000">Asfc_mu_b2</text>
<text text-anchor="middle" x="655" y="-386.6833" font-family="Times,serif" font-size="14.00" fill="#000000">~</text>
<text text-anchor="middle" x="655" y="-371.6833" font-family="Times,serif" font-size="14.00" fill="#000000">Normal</text>
</g>
<!-- Asfc_mu_b2&#45;&gt;Asfc_b2 -->
<g id="edge10" class="edge">
<title>Asfc_mu_b2&#45;&gt;Asfc_b2</title>
<path fill="none" stroke="#000000" d="M658.0017,-352.8712C658.6688,-344.5341 659.3755,-335.7023 660.0409,-327.3867"/>
<polygon fill="#000000" stroke="#000000" points="663.5467,-327.4531 660.8556,-317.2057 656.569,-326.8947 663.5467,-327.4531"/>
</g>
<!-- Asfc_sigma2 -->
<g id="node17" class="node">
<title>Asfc_sigma2</title>
<ellipse fill="none" stroke="#000000" cx="510" cy="-501.3366" rx="62.8651" ry="37.4533"/>
<text text-anchor="middle" x="510" y="-512.6366" font-family="Times,serif" font-size="14.00" fill="#000000">Asfc_sigma2</text>
<text text-anchor="middle" x="510" y="-497.6366" font-family="Times,serif" font-size="14.00" fill="#000000">~</text>
<text text-anchor="middle" x="510" y="-482.6366" font-family="Times,serif" font-size="14.00" fill="#000000">HalfNormal</text>
</g>
<!-- Asfc_sigma2&#45;&gt;Asfc_b2_beta -->
<g id="edge7" class="edge">
<title>Asfc_sigma2&#45;&gt;Asfc_b2_beta</title>
<path fill="none" stroke="#000000" d="M510,-463.7729C510,-455.549 510,-446.7367 510,-438.1736"/>
<polygon fill="#000000" stroke="#000000" points="513.5001,-437.9083 510,-427.9083 506.5001,-437.9084 513.5001,-437.9083"/>
</g>
<!-- Asfc_mu_M12 -->
<g id="node18" class="node">
<title>Asfc_mu_M12</title>
<ellipse fill="none" stroke="#000000" cx="949" cy="-390.3833" rx="70.922" ry="37.4533"/>
<text text-anchor="middle" x="949" y="-401.6833" font-family="Times,serif" font-size="14.00" fill="#000000">Asfc_mu_M12</text>
<text text-anchor="middle" x="949" y="-386.6833" font-family="Times,serif" font-size="14.00" fill="#000000">~</text>
<text text-anchor="middle" x="949" y="-371.6833" font-family="Times,serif" font-size="14.00" fill="#000000">Normal</text>
</g>
<!-- Asfc_mu_M12&#45;&gt;Asfc_M12 -->
<g id="edge11" class="edge">
<title>Asfc_mu_M12&#45;&gt;Asfc_M12</title>
<path fill="none" stroke="#000000" d="M953.5025,-352.8712C954.5032,-344.5341 955.5632,-335.7023 956.5614,-327.3867"/>
<polygon fill="#000000" stroke="#000000" points="960.0666,-327.5516 957.7834,-317.2057 953.1165,-326.7173 960.0666,-327.5516"/>
</g>
<!-- Asfc_M12&#45;&gt;Asfc_mu -->
<g id="edge16" class="edge">
<title>Asfc_M12&#45;&gt;Asfc_mu</title>
<path fill="none" stroke="#000000" d="M923.6589,-263.8876C904.7894,-250.4868 881.7273,-234.1085 861.7955,-219.9532"/>
<polygon fill="#000000" stroke="#000000" points="863.646,-216.9746 853.4663,-214.0379 859.5928,-222.6818 863.646,-216.9746"/>
</g>
<!-- Asfc_mu&#45;&gt;Asfc_y -->
<g id="edge18" class="edge">
<title>Asfc_mu&#45;&gt;Asfc_y</title>
<path fill="none" stroke="#000000" d="M816.2395,-160.8539C816.3379,-149.9351 816.455,-136.944 816.5675,-124.4675"/>
<polygon fill="#000000" stroke="#000000" points="820.07,-124.1961 816.6603,-114.165 813.0702,-124.133 820.07,-124.1961"/>
</g>
</g>
</svg>
