<?xml version="1.0" encoding="UTF-8" standalone="no"?>
<!DOCTYPE svg PUBLIC "-//W3C//DTD SVG 1.1//EN"
 "http://www.w3.org/Graphics/SVG/1.1/DTD/svg11.dtd">
<!-- Generated by graphviz version 2.40.1 (20161225.0304)
 -->
<!-- Title: Rsquared Pages: 1 -->
<svg width="2202pt" height="563pt"
 viewBox="0.00 0.00 2201.61 562.81" xmlns="http://www.w3.org/2000/svg" xmlns:xlink="http://www.w3.org/1999/xlink">
<g id="graph0" class="graph" transform="scale(1 1) rotate(0) translate(4 558.8133)">
<title>Rsquared</title>
<polygon fill="#ffffff" stroke="transparent" points="-4,4 -4,-558.8133 2197.6102,-558.8133 2197.6102,4 -4,4"/>
<g id="clust1" class="cluster">
<title>cluster2</title>
<path fill="none" stroke="#000000" d="M20,-232.9066C20,-232.9066 352,-232.9066 352,-232.9066 358,-232.9066 364,-238.9066 364,-244.9066 364,-244.9066 364,-423.86 364,-423.86 364,-429.86 358,-435.86 352,-435.86 352,-435.86 20,-435.86 20,-435.86 14,-435.86 8,-429.86 8,-423.86 8,-423.86 8,-244.9066 8,-244.9066 8,-238.9066 14,-232.9066 20,-232.9066"/>
<text text-anchor="middle" x="352.5" y="-240.7066" font-family="Times,serif" font-size="14.00" fill="#000000">2</text>
</g>
<g id="clust2" class="cluster">
<title>cluster11</title>
<path fill="none" stroke="#000000" d="M558,-232.9066C558,-232.9066 894,-232.9066 894,-232.9066 900,-232.9066 906,-238.9066 906,-244.9066 906,-244.9066 906,-534.8133 906,-534.8133 906,-540.8133 900,-546.8133 894,-546.8133 894,-546.8133 558,-546.8133 558,-546.8133 552,-546.8133 546,-540.8133 546,-534.8133 546,-534.8133 546,-244.9066 546,-244.9066 546,-238.9066 552,-232.9066 558,-232.9066"/>
<text text-anchor="middle" x="891" y="-240.7066" font-family="Times,serif" font-size="14.00" fill="#000000">11</text>
</g>
<g id="clust3" class="cluster">
<title>cluster2 x 11</title>
<path fill="none" stroke="#000000" d="M1099,-232.9066C1099,-232.9066 1267,-232.9066 1267,-232.9066 1273,-232.9066 1279,-238.9066 1279,-244.9066 1279,-244.9066 1279,-423.86 1279,-423.86 1279,-429.86 1273,-435.86 1267,-435.86 1267,-435.86 1099,-435.86 1099,-435.86 1093,-435.86 1087,-429.86 1087,-423.86 1087,-423.86 1087,-244.9066 1087,-244.9066 1087,-238.9066 1093,-232.9066 1099,-232.9066"/>
<text text-anchor="middle" x="1253.5" y="-240.7066" font-family="Times,serif" font-size="14.00" fill="#000000">2 x 11</text>
</g>
<g id="clust4" class="cluster">
<title>cluster230</title>
<path fill="none" stroke="#000000" d="M973,-8C973,-8 1079,-8 1079,-8 1085,-8 1091,-14 1091,-20 1091,-20 1091,-209.93 1091,-209.93 1091,-215.93 1085,-221.93 1079,-221.93 1079,-221.93 973,-221.93 973,-221.93 967,-221.93 961,-215.93 961,-209.93 961,-209.93 961,-20 961,-20 961,-14 967,-8 973,-8"/>
<text text-anchor="middle" x="1072.5" y="-15.8" font-family="Times,serif" font-size="14.00" fill="#000000">230</text>
</g>
<!-- Rsquared_mu_b0 -->
<g id="node1" class="node">
<title>Rsquared_mu_b0</title>
<ellipse fill="none" stroke="#000000" cx="1755" cy="-390.3833" rx="79.8063" ry="37.4533"/>
<text text-anchor="middle" x="1755" y="-401.6833" font-family="Times,serif" font-size="14.00" fill="#000000">Rsquared_mu_b0</text>
<text text-anchor="middle" x="1755" y="-386.6833" font-family="Times,serif" font-size="14.00" fill="#000000">~</text>
<text text-anchor="middle" x="1755" y="-371.6833" font-family="Times,serif" font-size="14.00" fill="#000000">Normal</text>
</g>
<!-- Rsquared_b0 -->
<g id="node3" class="node">
<title>Rsquared_b0</title>
<polygon fill="none" stroke="#000000" points="1889.5,-316.9066 1798.5,-316.9066 1798.5,-263.9066 1889.5,-263.9066 1889.5,-316.9066"/>
<text text-anchor="middle" x="1844" y="-301.7066" font-family="Times,serif" font-size="14.00" fill="#000000">Rsquared_b0</text>
<text text-anchor="middle" x="1844" y="-286.7066" font-family="Times,serif" font-size="14.00" fill="#000000">~</text>
<text text-anchor="middle" x="1844" y="-271.7066" font-family="Times,serif" font-size="14.00" fill="#000000">Deterministic</text>
</g>
<!-- Rsquared_mu_b0&#45;&gt;Rsquared_b0 -->
<g id="edge2" class="edge">
<title>Rsquared_mu_b0&#45;&gt;Rsquared_b0</title>
<path fill="none" stroke="#000000" d="M1785.8781,-355.6969C1794.752,-345.7286 1804.4256,-334.8618 1813.2894,-324.9049"/>
<polygon fill="#000000" stroke="#000000" points="1816.1586,-326.9457 1820.1935,-317.1493 1810.9301,-322.2913 1816.1586,-326.9457"/>
</g>
<!-- Rsquared_sigma0 -->
<g id="node2" class="node">
<title>Rsquared_sigma0</title>
<ellipse fill="none" stroke="#000000" cx="1934" cy="-390.3833" rx="80.7205" ry="37.4533"/>
<text text-anchor="middle" x="1934" y="-401.6833" font-family="Times,serif" font-size="14.00" fill="#000000">Rsquared_sigma0</text>
<text text-anchor="middle" x="1934" y="-386.6833" font-family="Times,serif" font-size="14.00" fill="#000000">~</text>
<text text-anchor="middle" x="1934" y="-371.6833" font-family="Times,serif" font-size="14.00" fill="#000000">HalfNormal</text>
</g>
<!-- Rsquared_sigma0&#45;&gt;Rsquared_b0 -->
<g id="edge1" class="edge">
<title>Rsquared_sigma0&#45;&gt;Rsquared_b0</title>
<path fill="none" stroke="#000000" d="M1902.7749,-355.6969C1893.7125,-345.6299 1883.8252,-334.6466 1874.7897,-324.6094"/>
<polygon fill="#000000" stroke="#000000" points="1877.3658,-322.2398 1868.074,-317.1493 1872.1633,-326.9232 1877.3658,-322.2398"/>
</g>
<!-- Rsquared_mu -->
<g id="node20" class="node">
<title>Rsquared_mu</title>
<polygon fill="none" stroke="#000000" points="1072,-213.93 980,-213.93 980,-160.93 1072,-160.93 1072,-213.93"/>
<text text-anchor="middle" x="1026" y="-198.73" font-family="Times,serif" font-size="14.00" fill="#000000">Rsquared_mu</text>
<text text-anchor="middle" x="1026" y="-183.73" font-family="Times,serif" font-size="14.00" fill="#000000">~</text>
<text text-anchor="middle" x="1026" y="-168.73" font-family="Times,serif" font-size="14.00" fill="#000000">Deterministic</text>
</g>
<!-- Rsquared_b0&#45;&gt;Rsquared_mu -->
<g id="edge15" class="edge">
<title>Rsquared_b0&#45;&gt;Rsquared_mu</title>
<path fill="none" stroke="#000000" d="M1798.2693,-284.7682C1702.7267,-273.1982 1474.89,-246.7048 1283,-232.9066 1240.1848,-229.8279 1131.1871,-236.9996 1090,-224.9066 1084.4598,-223.28 1078.8968,-221.0732 1073.4888,-218.5396"/>
<polygon fill="#000000" stroke="#000000" points="1075.067,-215.4156 1064.5656,-214.0116 1071.8994,-221.6579 1075.067,-215.4156"/>
</g>
<!-- Rsquared_b0_dist -->
<g id="node4" class="node">
<title>Rsquared_b0_dist</title>
<ellipse fill="none" stroke="#000000" cx="2113" cy="-390.3833" rx="80.7205" ry="37.4533"/>
<text text-anchor="middle" x="2113" y="-401.6833" font-family="Times,serif" font-size="14.00" fill="#000000">Rsquared_b0_dist</text>
<text text-anchor="middle" x="2113" y="-386.6833" font-family="Times,serif" font-size="14.00" fill="#000000">~</text>
<text text-anchor="middle" x="2113" y="-371.6833" font-family="Times,serif" font-size="14.00" fill="#000000">Normal</text>
</g>
<!-- Rsquared_b0_dist&#45;&gt;Rsquared_b0 -->
<g id="edge3" class="edge">
<title>Rsquared_b0_dist&#45;&gt;Rsquared_b0</title>
<path fill="none" stroke="#000000" d="M2053.8519,-364.8517C2043.9289,-360.7485 2033.7047,-356.6303 2024,-352.9066 1982.6422,-337.0377 1935.3003,-320.6692 1899.551,-308.6658"/>
<polygon fill="#000000" stroke="#000000" points="1900.3837,-305.2538 1889.7899,-305.4001 1898.1627,-311.8921 1900.3837,-305.2538"/>
</g>
<!-- Rsquared_b2_dist -->
<g id="node5" class="node">
<title>Rsquared_b2_dist</title>
<ellipse fill="none" stroke="#000000" cx="996" cy="-390.3833" rx="80.7205" ry="37.4533"/>
<text text-anchor="middle" x="996" y="-401.6833" font-family="Times,serif" font-size="14.00" fill="#000000">Rsquared_b2_dist</text>
<text text-anchor="middle" x="996" y="-386.6833" font-family="Times,serif" font-size="14.00" fill="#000000">~</text>
<text text-anchor="middle" x="996" y="-371.6833" font-family="Times,serif" font-size="14.00" fill="#000000">Gumbel</text>
</g>
<!-- Rsquared_b2 -->
<g id="node15" class="node">
<title>Rsquared_b2</title>
<polygon fill="none" stroke="#000000" points="878.5,-316.9066 787.5,-316.9066 787.5,-263.9066 878.5,-263.9066 878.5,-316.9066"/>
<text text-anchor="middle" x="833" y="-301.7066" font-family="Times,serif" font-size="14.00" fill="#000000">Rsquared_b2</text>
<text text-anchor="middle" x="833" y="-286.7066" font-family="Times,serif" font-size="14.00" fill="#000000">~</text>
<text text-anchor="middle" x="833" y="-271.7066" font-family="Times,serif" font-size="14.00" fill="#000000">Deterministic</text>
</g>
<!-- Rsquared_b2_dist&#45;&gt;Rsquared_b2 -->
<g id="edge9" class="edge">
<title>Rsquared_b2_dist&#45;&gt;Rsquared_b2</title>
<path fill="none" stroke="#000000" d="M947.0946,-360.387C927.4898,-348.3623 904.8724,-334.4898 884.9712,-322.2834"/>
<polygon fill="#000000" stroke="#000000" points="886.6875,-319.2302 876.3332,-316.9852 883.0276,-325.1972 886.6875,-319.2302"/>
</g>
<!-- Rsquared_M12_dist -->
<g id="node6" class="node">
<title>Rsquared_M12_dist</title>
<ellipse fill="none" stroke="#000000" cx="1379" cy="-390.3833" rx="89.6056" ry="37.4533"/>
<text text-anchor="middle" x="1379" y="-401.6833" font-family="Times,serif" font-size="14.00" fill="#000000">Rsquared_M12_dist</text>
<text text-anchor="middle" x="1379" y="-386.6833" font-family="Times,serif" font-size="14.00" fill="#000000">~</text>
<text text-anchor="middle" x="1379" y="-371.6833" font-family="Times,serif" font-size="14.00" fill="#000000">Normal</text>
</g>
<!-- Rsquared_M12 -->
<g id="node18" class="node">
<title>Rsquared_M12</title>
<polygon fill="none" stroke="#000000" points="1251.5,-316.9066 1150.5,-316.9066 1150.5,-263.9066 1251.5,-263.9066 1251.5,-316.9066"/>
<text text-anchor="middle" x="1201" y="-301.7066" font-family="Times,serif" font-size="14.00" fill="#000000">Rsquared_M12</text>
<text text-anchor="middle" x="1201" y="-286.7066" font-family="Times,serif" font-size="14.00" fill="#000000">~</text>
<text text-anchor="middle" x="1201" y="-271.7066" font-family="Times,serif" font-size="14.00" fill="#000000">Deterministic</text>
</g>
<!-- Rsquared_M12_dist&#45;&gt;Rsquared_M12 -->
<g id="edge11" class="edge">
<title>Rsquared_M12_dist&#45;&gt;Rsquared_M12</title>
<path fill="none" stroke="#000000" d="M1325.1111,-360.1157C1303.617,-348.0432 1278.8691,-334.1431 1257.1551,-321.9471"/>
<polygon fill="#000000" stroke="#000000" points="1258.8021,-318.8579 1248.3693,-317.0124 1255.3741,-324.9611 1258.8021,-318.8579"/>
</g>
<!-- Rsquared_sigma12 -->
<g id="node7" class="node">
<title>Rsquared_sigma12</title>
<ellipse fill="none" stroke="#000000" cx="1572" cy="-390.3833" rx="85.6199" ry="37.4533"/>
<text text-anchor="middle" x="1572" y="-401.6833" font-family="Times,serif" font-size="14.00" fill="#000000">Rsquared_sigma12</text>
<text text-anchor="middle" x="1572" y="-386.6833" font-family="Times,serif" font-size="14.00" fill="#000000">~</text>
<text text-anchor="middle" x="1572" y="-371.6833" font-family="Times,serif" font-size="14.00" fill="#000000">HalfNormal</text>
</g>
<!-- Rsquared_sigma12&#45;&gt;Rsquared_M12 -->
<g id="edge13" class="edge">
<title>Rsquared_sigma12&#45;&gt;Rsquared_M12</title>
<path fill="none" stroke="#000000" d="M1510.5567,-364.2843C1499.8087,-360.181 1488.6557,-356.2104 1478,-352.9066 1404.7056,-330.1822 1318.1356,-311.9859 1261.5303,-301.2124"/>
<polygon fill="#000000" stroke="#000000" points="1262.1431,-297.7664 1251.6677,-299.3528 1260.846,-304.6452 1262.1431,-297.7664"/>
</g>
<!-- Rsquared_b1_dist -->
<g id="node8" class="node">
<title>Rsquared_b1_dist</title>
<ellipse fill="none" stroke="#000000" cx="455" cy="-390.3833" rx="80.7205" ry="37.4533"/>
<text text-anchor="middle" x="455" y="-401.6833" font-family="Times,serif" font-size="14.00" fill="#000000">Rsquared_b1_dist</text>
<text text-anchor="middle" x="455" y="-386.6833" font-family="Times,serif" font-size="14.00" fill="#000000">~</text>
<text text-anchor="middle" x="455" y="-371.6833" font-family="Times,serif" font-size="14.00" fill="#000000">Normal</text>
</g>
<!-- Rsquared_b1 -->
<g id="node12" class="node">
<title>Rsquared_b1</title>
<polygon fill="none" stroke="#000000" points="338.5,-316.9066 247.5,-316.9066 247.5,-263.9066 338.5,-263.9066 338.5,-316.9066"/>
<text text-anchor="middle" x="293" y="-301.7066" font-family="Times,serif" font-size="14.00" fill="#000000">Rsquared_b1</text>
<text text-anchor="middle" x="293" y="-286.7066" font-family="Times,serif" font-size="14.00" fill="#000000">~</text>
<text text-anchor="middle" x="293" y="-271.7066" font-family="Times,serif" font-size="14.00" fill="#000000">Deterministic</text>
</g>
<!-- Rsquared_b1_dist&#45;&gt;Rsquared_b1 -->
<g id="edge6" class="edge">
<title>Rsquared_b1_dist&#45;&gt;Rsquared_b1</title>
<path fill="none" stroke="#000000" d="M406.3947,-360.387C386.9102,-348.3623 364.4314,-334.4898 344.6524,-322.2834"/>
<polygon fill="#000000" stroke="#000000" points="346.4154,-319.2586 336.0674,-316.9852 342.7391,-325.2156 346.4154,-319.2586"/>
</g>
<!-- Rsquared_sigmaY -->
<g id="node9" class="node">
<title>Rsquared_sigmaY</title>
<ellipse fill="none" stroke="#000000" cx="1182" cy="-187.43" rx="82.9636" ry="37.4533"/>
<text text-anchor="middle" x="1182" y="-198.73" font-family="Times,serif" font-size="14.00" fill="#000000">Rsquared_sigmaY</text>
<text text-anchor="middle" x="1182" y="-183.73" font-family="Times,serif" font-size="14.00" fill="#000000">~</text>
<text text-anchor="middle" x="1182" y="-168.73" font-family="Times,serif" font-size="14.00" fill="#000000">Gamma</text>
</g>
<!-- Rsquared_y -->
<g id="node21" class="node">
<title>Rsquared_y</title>
<ellipse fill="#d3d3d3" stroke="#000000" cx="1026" cy="-76.4767" rx="57.0522" ry="37.4533"/>
<text text-anchor="middle" x="1026" y="-87.7767" font-family="Times,serif" font-size="14.00" fill="#000000">Rsquared_y</text>
<text text-anchor="middle" x="1026" y="-72.7767" font-family="Times,serif" font-size="14.00" fill="#000000">~</text>
<text text-anchor="middle" x="1026" y="-57.7767" font-family="Times,serif" font-size="14.00" fill="#000000">StudentT</text>
</g>
<!-- Rsquared_sigmaY&#45;&gt;Rsquared_y -->
<g id="edge20" class="edge">
<title>Rsquared_sigmaY&#45;&gt;Rsquared_y</title>
<path fill="none" stroke="#000000" d="M1137.2967,-155.6352C1117.1971,-141.3396 1093.4662,-124.4613 1073.0918,-109.9702"/>
<polygon fill="#000000" stroke="#000000" points="1075.0575,-107.0733 1064.8798,-104.1295 1071.0003,-112.7777 1075.0575,-107.0733"/>
</g>
<!-- Rsquared_nuY -->
<g id="node10" class="node">
<title>Rsquared_nuY</title>
<ellipse fill="none" stroke="#000000" cx="1352" cy="-187.43" rx="69.0935" ry="37.4533"/>
<text text-anchor="middle" x="1352" y="-198.73" font-family="Times,serif" font-size="14.00" fill="#000000">Rsquared_nuY</text>
<text text-anchor="middle" x="1352" y="-183.73" font-family="Times,serif" font-size="14.00" fill="#000000">~</text>
<text text-anchor="middle" x="1352" y="-168.73" font-family="Times,serif" font-size="14.00" fill="#000000">Exponential</text>
</g>
<!-- Rsquared_nuY&#45;&gt;Rsquared_y -->
<g id="edge19" class="edge">
<title>Rsquared_nuY&#45;&gt;Rsquared_y</title>
<path fill="none" stroke="#000000" d="M1301.3269,-161.6457C1292.3322,-157.4838 1282.9715,-153.4121 1274,-149.9533 1212.7219,-126.3288 1140.5188,-105.7165 1089.8727,-92.3851"/>
<polygon fill="#000000" stroke="#000000" points="1090.6005,-88.9578 1080.0406,-89.8171 1088.8315,-95.7306 1090.6005,-88.9578"/>
</g>
<!-- Rsquared_mu_b1 -->
<g id="node11" class="node">
<title>Rsquared_mu_b1</title>
<ellipse fill="none" stroke="#000000" cx="276" cy="-390.3833" rx="79.8062" ry="37.4533"/>
<text text-anchor="middle" x="276" y="-401.6833" font-family="Times,serif" font-size="14.00" fill="#000000">Rsquared_mu_b1</text>
<text text-anchor="middle" x="276" y="-386.6833" font-family="Times,serif" font-size="14.00" fill="#000000">~</text>
<text text-anchor="middle" x="276" y="-371.6833" font-family="Times,serif" font-size="14.00" fill="#000000">Normal</text>
</g>
<!-- Rsquared_mu_b1&#45;&gt;Rsquared_b1 -->
<g id="edge4" class="edge">
<title>Rsquared_mu_b1&#45;&gt;Rsquared_b1</title>
<path fill="none" stroke="#000000" d="M282.3785,-352.8712C283.8119,-344.4415 285.3313,-335.506 286.759,-327.1097"/>
<polygon fill="#000000" stroke="#000000" points="290.2171,-327.651 288.4431,-317.2057 283.3162,-326.4775 290.2171,-327.651"/>
</g>
<!-- Rsquared_b1&#45;&gt;Rsquared_mu -->
<g id="edge16" class="edge">
<title>Rsquared_b1&#45;&gt;Rsquared_mu</title>
<path fill="none" stroke="#000000" d="M338.5314,-277.9659C388.1835,-264.8529 470.1715,-244.5215 542,-232.9066 695.6287,-208.0644 879.0497,-195.4154 969.6402,-190.2828"/>
<polygon fill="#000000" stroke="#000000" points="969.9038,-193.7736 979.6935,-189.7226 969.5143,-186.7845 969.9038,-193.7736"/>
</g>
<!-- Rsquared_sigma1 -->
<g id="node13" class="node">
<title>Rsquared_sigma1</title>
<ellipse fill="none" stroke="#000000" cx="97" cy="-390.3833" rx="80.7205" ry="37.4533"/>
<text text-anchor="middle" x="97" y="-401.6833" font-family="Times,serif" font-size="14.00" fill="#000000">Rsquared_sigma1</text>
<text text-anchor="middle" x="97" y="-386.6833" font-family="Times,serif" font-size="14.00" fill="#000000">~</text>
<text text-anchor="middle" x="97" y="-371.6833" font-family="Times,serif" font-size="14.00" fill="#000000">HalfNormal</text>
</g>
<!-- Rsquared_sigma1&#45;&gt;Rsquared_b1 -->
<g id="edge5" class="edge">
<title>Rsquared_sigma1&#45;&gt;Rsquared_b1</title>
<path fill="none" stroke="#000000" d="M151.3366,-362.667C178.4115,-348.8565 211.0754,-332.1951 238.212,-318.3532"/>
<polygon fill="#000000" stroke="#000000" points="239.8692,-321.437 247.1869,-313.7752 236.6884,-315.2013 239.8692,-321.437"/>
</g>
<!-- Rsquared_sigma2 -->
<g id="node14" class="node">
<title>Rsquared_sigma2</title>
<ellipse fill="none" stroke="#000000" cx="815" cy="-501.3366" rx="80.7205" ry="37.4533"/>
<text text-anchor="middle" x="815" y="-512.6366" font-family="Times,serif" font-size="14.00" fill="#000000">Rsquared_sigma2</text>
<text text-anchor="middle" x="815" y="-497.6366" font-family="Times,serif" font-size="14.00" fill="#000000">~</text>
<text text-anchor="middle" x="815" y="-482.6366" font-family="Times,serif" font-size="14.00" fill="#000000">HalfNormal</text>
</g>
<!-- Rsquared_b2_beta -->
<g id="node17" class="node">
<title>Rsquared_b2_beta</title>
<ellipse fill="none" stroke="#000000" cx="815" cy="-390.3833" rx="82.9636" ry="37.4533"/>
<text text-anchor="middle" x="815" y="-401.6833" font-family="Times,serif" font-size="14.00" fill="#000000">Rsquared_b2_beta</text>
<text text-anchor="middle" x="815" y="-386.6833" font-family="Times,serif" font-size="14.00" fill="#000000">~</text>
<text text-anchor="middle" x="815" y="-371.6833" font-family="Times,serif" font-size="14.00" fill="#000000">HalfNormal</text>
</g>
<!-- Rsquared_sigma2&#45;&gt;Rsquared_b2_beta -->
<g id="edge7" class="edge">
<title>Rsquared_sigma2&#45;&gt;Rsquared_b2_beta</title>
<path fill="none" stroke="#000000" d="M815,-463.7729C815,-455.549 815,-446.7367 815,-438.1736"/>
<polygon fill="#000000" stroke="#000000" points="818.5001,-437.9083 815,-427.9083 811.5001,-437.9084 818.5001,-437.9083"/>
</g>
<!-- Rsquared_b2&#45;&gt;Rsquared_mu -->
<g id="edge17" class="edge">
<title>Rsquared_b2&#45;&gt;Rsquared_mu</title>
<path fill="none" stroke="#000000" d="M878.7383,-266.0026C906.4177,-251.234 941.8865,-232.3094 971.0786,-216.7337"/>
<polygon fill="#000000" stroke="#000000" points="972.7461,-219.8111 979.9212,-212.0157 969.4508,-213.6352 972.7461,-219.8111"/>
</g>
<!-- Rsquared_mu_b2 -->
<g id="node16" class="node">
<title>Rsquared_mu_b2</title>
<ellipse fill="none" stroke="#000000" cx="634" cy="-390.3833" rx="79.8062" ry="37.4533"/>
<text text-anchor="middle" x="634" y="-401.6833" font-family="Times,serif" font-size="14.00" fill="#000000">Rsquared_mu_b2</text>
<text text-anchor="middle" x="634" y="-386.6833" font-family="Times,serif" font-size="14.00" fill="#000000">~</text>
<text text-anchor="middle" x="634" y="-371.6833" font-family="Times,serif" font-size="14.00" fill="#000000">Normal</text>
</g>
<!-- Rsquared_mu_b2&#45;&gt;Rsquared_b2 -->
<g id="edge8" class="edge">
<title>Rsquared_mu_b2&#45;&gt;Rsquared_b2</title>
<path fill="none" stroke="#000000" d="M688.6408,-362.932C716.4491,-348.9613 750.1697,-332.0202 778.025,-318.0258"/>
<polygon fill="#000000" stroke="#000000" points="779.8653,-321.0182 787.2298,-313.4014 776.7228,-314.7632 779.8653,-321.0182"/>
</g>
<!-- Rsquared_b2_beta&#45;&gt;Rsquared_b2 -->
<g id="edge10" class="edge">
<title>Rsquared_b2_beta&#45;&gt;Rsquared_b2</title>
<path fill="none" stroke="#000000" d="M821.7537,-352.8712C823.2715,-344.4415 824.8802,-335.506 826.3919,-327.1097"/>
<polygon fill="#000000" stroke="#000000" points="829.8476,-327.6677 828.175,-317.2057 822.9584,-326.4273 829.8476,-327.6677"/>
</g>
<!-- Rsquared_M12&#45;&gt;Rsquared_mu -->
<g id="edge14" class="edge">
<title>Rsquared_M12&#45;&gt;Rsquared_mu</title>
<path fill="none" stroke="#000000" d="M1155.9332,-263.8876C1132.7529,-250.2475 1104.3304,-233.5226 1079.9854,-219.197"/>
<polygon fill="#000000" stroke="#000000" points="1081.6116,-216.093 1071.2179,-214.0379 1078.0615,-222.126 1081.6116,-216.093"/>
</g>
<!-- Rsquared_mu_M12 -->
<g id="node19" class="node">
<title>Rsquared_mu_M12</title>
<ellipse fill="none" stroke="#000000" cx="1183" cy="-390.3833" rx="88.2768" ry="37.4533"/>
<text text-anchor="middle" x="1183" y="-401.6833" font-family="Times,serif" font-size="14.00" fill="#000000">Rsquared_mu_M12</text>
<text text-anchor="middle" x="1183" y="-386.6833" font-family="Times,serif" font-size="14.00" fill="#000000">~</text>
<text text-anchor="middle" x="1183" y="-371.6833" font-family="Times,serif" font-size="14.00" fill="#000000">Normal</text>
</g>
<!-- Rsquared_mu_M12&#45;&gt;Rsquared_M12 -->
<g id="edge12" class="edge">
<title>Rsquared_mu_M12&#45;&gt;Rsquared_M12</title>
<path fill="none" stroke="#000000" d="M1189.7537,-352.8712C1191.2715,-344.4415 1192.8802,-335.506 1194.3919,-327.1097"/>
<polygon fill="#000000" stroke="#000000" points="1197.8476,-327.6677 1196.175,-317.2057 1190.9584,-326.4273 1197.8476,-327.6677"/>
</g>
<!-- Rsquared_mu&#45;&gt;Rsquared_y -->
<g id="edge18" class="edge">
<title>Rsquared_mu&#45;&gt;Rsquared_y</title>
<path fill="none" stroke="#000000" d="M1026,-160.8539C1026,-149.9351 1026,-136.944 1026,-124.4675"/>
<polygon fill="#000000" stroke="#000000" points="1029.5001,-124.1649 1026,-114.165 1022.5001,-124.165 1029.5001,-124.1649"/>
</g>
</g>
</svg>
