<?xml version="1.0" encoding="UTF-8" standalone="no"?>
<!DOCTYPE svg PUBLIC "-//W3C//DTD SVG 1.1//EN"
 "http://www.w3.org/Graphics/SVG/1.1/DTD/svg11.dtd">
<!-- Generated by graphviz version 2.40.1 (20161225.0304)
 -->
<!-- Title: HAsfc9 Pages: 1 -->
<svg width="2033pt" height="563pt"
 viewBox="0.00 0.00 2032.68 562.81" xmlns="http://www.w3.org/2000/svg" xmlns:xlink="http://www.w3.org/1999/xlink">
<g id="graph0" class="graph" transform="scale(1 1) rotate(0) translate(4 558.8133)">
<title>HAsfc9</title>
<polygon fill="#ffffff" stroke="transparent" points="-4,4 -4,-558.8133 2028.6848,-558.8133 2028.6848,4 -4,4"/>
<g id="clust1" class="cluster">
<title>cluster2</title>
<path fill="none" stroke="#000000" d="M170.2462,-232.9066C170.2462,-232.9066 476.2462,-232.9066 476.2462,-232.9066 482.2462,-232.9066 488.2462,-238.9066 488.2462,-244.9066 488.2462,-244.9066 488.2462,-423.86 488.2462,-423.86 488.2462,-429.86 482.2462,-435.86 476.2462,-435.86 476.2462,-435.86 170.2462,-435.86 170.2462,-435.86 164.2462,-435.86 158.2462,-429.86 158.2462,-423.86 158.2462,-423.86 158.2462,-244.9066 158.2462,-244.9066 158.2462,-238.9066 164.2462,-232.9066 170.2462,-232.9066"/>
<text text-anchor="middle" x="476.7462" y="-240.7066" font-family="Times,serif" font-size="14.00" fill="#000000">2</text>
</g>
<g id="clust2" class="cluster">
<title>cluster11</title>
<path fill="none" stroke="#000000" d="M1001.2462,-232.9066C1001.2462,-232.9066 1311.2462,-232.9066 1311.2462,-232.9066 1317.2462,-232.9066 1323.2462,-238.9066 1323.2462,-244.9066 1323.2462,-244.9066 1323.2462,-534.8133 1323.2462,-534.8133 1323.2462,-540.8133 1317.2462,-546.8133 1311.2462,-546.8133 1311.2462,-546.8133 1001.2462,-546.8133 1001.2462,-546.8133 995.2462,-546.8133 989.2462,-540.8133 989.2462,-534.8133 989.2462,-534.8133 989.2462,-244.9066 989.2462,-244.9066 989.2462,-238.9066 995.2462,-232.9066 1001.2462,-232.9066"/>
<text text-anchor="middle" x="1308.2462" y="-240.7066" font-family="Times,serif" font-size="14.00" fill="#000000">11</text>
</g>
<g id="clust3" class="cluster">
<title>cluster2 x 11</title>
<path fill="none" stroke="#000000" d="M1503.2462,-232.9066C1503.2462,-232.9066 1659.2462,-232.9066 1659.2462,-232.9066 1665.2462,-232.9066 1671.2462,-238.9066 1671.2462,-244.9066 1671.2462,-244.9066 1671.2462,-423.86 1671.2462,-423.86 1671.2462,-429.86 1665.2462,-435.86 1659.2462,-435.86 1659.2462,-435.86 1503.2462,-435.86 1503.2462,-435.86 1497.2462,-435.86 1491.2462,-429.86 1491.2462,-423.86 1491.2462,-423.86 1491.2462,-244.9066 1491.2462,-244.9066 1491.2462,-238.9066 1497.2462,-232.9066 1503.2462,-232.9066"/>
<text text-anchor="middle" x="1645.7462" y="-240.7066" font-family="Times,serif" font-size="14.00" fill="#000000">2 x 11</text>
</g>
<g id="clust4" class="cluster">
<title>cluster230</title>
<path fill="none" stroke="#000000" d="M983.2462,-8C983.2462,-8 1077.2462,-8 1077.2462,-8 1083.2462,-8 1089.2462,-14 1089.2462,-20 1089.2462,-20 1089.2462,-209.93 1089.2462,-209.93 1089.2462,-215.93 1083.2462,-221.93 1077.2462,-221.93 1077.2462,-221.93 983.2462,-221.93 983.2462,-221.93 977.2462,-221.93 971.2462,-215.93 971.2462,-209.93 971.2462,-209.93 971.2462,-20 971.2462,-20 971.2462,-14 977.2462,-8 983.2462,-8"/>
<text text-anchor="middle" x="1070.7462" y="-15.8" font-family="Times,serif" font-size="14.00" fill="#000000">230</text>
</g>
<!-- HAsfc9_b1_dist -->
<g id="node1" class="node">
<title>HAsfc9_b1_dist</title>
<ellipse fill="none" stroke="#000000" cx="74.2462" cy="-390.3833" rx="74.4932" ry="37.4533"/>
<text text-anchor="middle" x="74.2462" y="-401.6833" font-family="Times,serif" font-size="14.00" fill="#000000">HAsfc9_b1_dist</text>
<text text-anchor="middle" x="74.2462" y="-386.6833" font-family="Times,serif" font-size="14.00" fill="#000000">~</text>
<text text-anchor="middle" x="74.2462" y="-371.6833" font-family="Times,serif" font-size="14.00" fill="#000000">Normal</text>
</g>
<!-- HAsfc9_b1 -->
<g id="node12" class="node">
<title>HAsfc9_b1</title>
<polygon fill="none" stroke="#000000" points="368.7462,-316.9066 277.7462,-316.9066 277.7462,-263.9066 368.7462,-263.9066 368.7462,-316.9066"/>
<text text-anchor="middle" x="323.2462" y="-301.7066" font-family="Times,serif" font-size="14.00" fill="#000000">HAsfc9_b1</text>
<text text-anchor="middle" x="323.2462" y="-286.7066" font-family="Times,serif" font-size="14.00" fill="#000000">~</text>
<text text-anchor="middle" x="323.2462" y="-271.7066" font-family="Times,serif" font-size="14.00" fill="#000000">Deterministic</text>
</g>
<!-- HAsfc9_b1_dist&#45;&gt;HAsfc9_b1 -->
<g id="edge4" class="edge">
<title>HAsfc9_b1_dist&#45;&gt;HAsfc9_b1</title>
<path fill="none" stroke="#000000" d="M128.1931,-364.3622C136.8519,-360.4028 145.7565,-356.4577 154.2462,-352.9066 191.8076,-337.1956 234.8588,-321.3049 268.109,-309.4782"/>
<polygon fill="#000000" stroke="#000000" points="269.3958,-312.7356 277.6543,-306.0987 267.0596,-306.1369 269.3958,-312.7356"/>
</g>
<!-- HAsfc9_sigma12 -->
<g id="node2" class="node">
<title>HAsfc9_sigma12</title>
<ellipse fill="none" stroke="#000000" cx="1760.2462" cy="-390.3833" rx="79.3924" ry="37.4533"/>
<text text-anchor="middle" x="1760.2462" y="-401.6833" font-family="Times,serif" font-size="14.00" fill="#000000">HAsfc9_sigma12</text>
<text text-anchor="middle" x="1760.2462" y="-386.6833" font-family="Times,serif" font-size="14.00" fill="#000000">~</text>
<text text-anchor="middle" x="1760.2462" y="-371.6833" font-family="Times,serif" font-size="14.00" fill="#000000">HalfNormal</text>
</g>
<!-- HAsfc9_M12 -->
<g id="node18" class="node">
<title>HAsfc9_M12</title>
<polygon fill="none" stroke="#000000" points="1645.2462,-316.9066 1553.2462,-316.9066 1553.2462,-263.9066 1645.2462,-263.9066 1645.2462,-316.9066"/>
<text text-anchor="middle" x="1599.2462" y="-301.7066" font-family="Times,serif" font-size="14.00" fill="#000000">HAsfc9_M12</text>
<text text-anchor="middle" x="1599.2462" y="-286.7066" font-family="Times,serif" font-size="14.00" fill="#000000">~</text>
<text text-anchor="middle" x="1599.2462" y="-271.7066" font-family="Times,serif" font-size="14.00" fill="#000000">Deterministic</text>
</g>
<!-- HAsfc9_sigma12&#45;&gt;HAsfc9_M12 -->
<g id="edge11" class="edge">
<title>HAsfc9_sigma12&#45;&gt;HAsfc9_M12</title>
<path fill="none" stroke="#000000" d="M1711.9409,-360.387C1692.5767,-348.3623 1670.2367,-334.4898 1650.5798,-322.2834"/>
<polygon fill="#000000" stroke="#000000" points="1652.3895,-319.2873 1642.0477,-316.9852 1648.6967,-325.234 1652.3895,-319.2873"/>
</g>
<!-- HAsfc9_nuY -->
<g id="node3" class="node">
<title>HAsfc9_nuY</title>
<ellipse fill="none" stroke="#000000" cx="1160.2462" cy="-187.43" rx="62.8651" ry="37.4533"/>
<text text-anchor="middle" x="1160.2462" y="-198.73" font-family="Times,serif" font-size="14.00" fill="#000000">HAsfc9_nuY</text>
<text text-anchor="middle" x="1160.2462" y="-183.73" font-family="Times,serif" font-size="14.00" fill="#000000">~</text>
<text text-anchor="middle" x="1160.2462" y="-168.73" font-family="Times,serif" font-size="14.00" fill="#000000">Exponential</text>
</g>
<!-- HAsfc9_y -->
<g id="node21" class="node">
<title>HAsfc9_y</title>
<ellipse fill="#d3d3d3" stroke="#000000" cx="1030.2462" cy="-76.4767" rx="50.8235" ry="37.4533"/>
<text text-anchor="middle" x="1030.2462" y="-87.7767" font-family="Times,serif" font-size="14.00" fill="#000000">HAsfc9_y</text>
<text text-anchor="middle" x="1030.2462" y="-72.7767" font-family="Times,serif" font-size="14.00" fill="#000000">~</text>
<text text-anchor="middle" x="1030.2462" y="-57.7767" font-family="Times,serif" font-size="14.00" fill="#000000">StudentT</text>
</g>
<!-- HAsfc9_nuY&#45;&gt;HAsfc9_y -->
<g id="edge18" class="edge">
<title>HAsfc9_nuY&#45;&gt;HAsfc9_y</title>
<path fill="none" stroke="#000000" d="M1124.034,-156.5233C1107.7639,-142.637 1088.4782,-126.1769 1071.6387,-111.8046"/>
<polygon fill="#000000" stroke="#000000" points="1073.471,-108.767 1063.5925,-104.9373 1068.9267,-114.0914 1073.471,-108.767"/>
</g>
<!-- HAsfc9_b2_dist -->
<g id="node4" class="node">
<title>HAsfc9_b2_dist</title>
<ellipse fill="none" stroke="#000000" cx="1407.2462" cy="-390.3833" rx="74.4932" ry="37.4533"/>
<text text-anchor="middle" x="1407.2462" y="-401.6833" font-family="Times,serif" font-size="14.00" fill="#000000">HAsfc9_b2_dist</text>
<text text-anchor="middle" x="1407.2462" y="-386.6833" font-family="Times,serif" font-size="14.00" fill="#000000">~</text>
<text text-anchor="middle" x="1407.2462" y="-371.6833" font-family="Times,serif" font-size="14.00" fill="#000000">Gumbel</text>
</g>
<!-- HAsfc9_b2 -->
<g id="node15" class="node">
<title>HAsfc9_b2</title>
<polygon fill="none" stroke="#000000" points="1202.7462,-316.9066 1111.7462,-316.9066 1111.7462,-263.9066 1202.7462,-263.9066 1202.7462,-316.9066"/>
<text text-anchor="middle" x="1157.2462" y="-301.7066" font-family="Times,serif" font-size="14.00" fill="#000000">HAsfc9_b2</text>
<text text-anchor="middle" x="1157.2462" y="-286.7066" font-family="Times,serif" font-size="14.00" fill="#000000">~</text>
<text text-anchor="middle" x="1157.2462" y="-271.7066" font-family="Times,serif" font-size="14.00" fill="#000000">Deterministic</text>
</g>
<!-- HAsfc9_b2_dist&#45;&gt;HAsfc9_b2 -->
<g id="edge9" class="edge">
<title>HAsfc9_b2_dist&#45;&gt;HAsfc9_b2</title>
<path fill="none" stroke="#000000" d="M1353.3053,-364.3479C1344.6458,-360.3903 1335.7393,-356.4495 1327.2462,-352.9066 1289.342,-337.0949 1245.865,-321.1489 1212.3676,-309.3213"/>
<polygon fill="#000000" stroke="#000000" points="1213.3493,-305.9565 1202.7544,-305.9432 1211.0285,-312.5606 1213.3493,-305.9565"/>
</g>
<!-- HAsfc9_M12_dist -->
<g id="node5" class="node">
<title>HAsfc9_M12_dist</title>
<ellipse fill="none" stroke="#000000" cx="1941.2462" cy="-390.3833" rx="83.3772" ry="37.4533"/>
<text text-anchor="middle" x="1941.2462" y="-401.6833" font-family="Times,serif" font-size="14.00" fill="#000000">HAsfc9_M12_dist</text>
<text text-anchor="middle" x="1941.2462" y="-386.6833" font-family="Times,serif" font-size="14.00" fill="#000000">~</text>
<text text-anchor="middle" x="1941.2462" y="-371.6833" font-family="Times,serif" font-size="14.00" fill="#000000">Normal</text>
</g>
<!-- HAsfc9_M12_dist&#45;&gt;HAsfc9_M12 -->
<g id="edge12" class="edge">
<title>HAsfc9_M12_dist&#45;&gt;HAsfc9_M12</title>
<path fill="none" stroke="#000000" d="M1880.6555,-364.5779C1869.9503,-360.4183 1858.8406,-356.3529 1848.2462,-352.9066 1783.0807,-331.7088 1706.375,-313.4293 1655.4963,-302.2088"/>
<polygon fill="#000000" stroke="#000000" points="1656.193,-298.7785 1645.676,-300.06 1654.6967,-305.6167 1656.193,-298.7785"/>
</g>
<!-- HAsfc9_b0_dist -->
<g id="node6" class="node">
<title>HAsfc9_b0_dist</title>
<ellipse fill="none" stroke="#000000" cx="572.2462" cy="-390.3833" rx="74.4932" ry="37.4533"/>
<text text-anchor="middle" x="572.2462" y="-401.6833" font-family="Times,serif" font-size="14.00" fill="#000000">HAsfc9_b0_dist</text>
<text text-anchor="middle" x="572.2462" y="-386.6833" font-family="Times,serif" font-size="14.00" fill="#000000">~</text>
<text text-anchor="middle" x="572.2462" y="-371.6833" font-family="Times,serif" font-size="14.00" fill="#000000">Normal</text>
</g>
<!-- HAsfc9_b0 -->
<g id="node8" class="node">
<title>HAsfc9_b0</title>
<polygon fill="none" stroke="#000000" points="866.7462,-316.9066 775.7462,-316.9066 775.7462,-263.9066 866.7462,-263.9066 866.7462,-316.9066"/>
<text text-anchor="middle" x="821.2462" y="-301.7066" font-family="Times,serif" font-size="14.00" fill="#000000">HAsfc9_b0</text>
<text text-anchor="middle" x="821.2462" y="-286.7066" font-family="Times,serif" font-size="14.00" fill="#000000">~</text>
<text text-anchor="middle" x="821.2462" y="-271.7066" font-family="Times,serif" font-size="14.00" fill="#000000">Deterministic</text>
</g>
<!-- HAsfc9_b0_dist&#45;&gt;HAsfc9_b0 -->
<g id="edge3" class="edge">
<title>HAsfc9_b0_dist&#45;&gt;HAsfc9_b0</title>
<path fill="none" stroke="#000000" d="M627.3928,-364.89C636.6485,-360.7822 646.1876,-356.6525 655.2462,-352.9066 691.7383,-337.8165 733.3236,-322.1618 765.7431,-310.2946"/>
<polygon fill="#000000" stroke="#000000" points="767.2989,-313.4527 775.4943,-306.7381 764.9004,-306.8765 767.2989,-313.4527"/>
</g>
<!-- HAsfc9_mu_b0 -->
<g id="node7" class="node">
<title>HAsfc9_mu_b0</title>
<ellipse fill="none" stroke="#000000" cx="738.2462" cy="-390.3833" rx="73.5782" ry="37.4533"/>
<text text-anchor="middle" x="738.2462" y="-401.6833" font-family="Times,serif" font-size="14.00" fill="#000000">HAsfc9_mu_b0</text>
<text text-anchor="middle" x="738.2462" y="-386.6833" font-family="Times,serif" font-size="14.00" fill="#000000">~</text>
<text text-anchor="middle" x="738.2462" y="-371.6833" font-family="Times,serif" font-size="14.00" fill="#000000">Normal</text>
</g>
<!-- HAsfc9_mu_b0&#45;&gt;HAsfc9_b0 -->
<g id="edge1" class="edge">
<title>HAsfc9_mu_b0&#45;&gt;HAsfc9_b0</title>
<path fill="none" stroke="#000000" d="M767.0426,-355.6969C775.3183,-345.7286 784.3398,-334.8618 792.6059,-324.9049"/>
<polygon fill="#000000" stroke="#000000" points="795.35,-327.079 799.0446,-317.1493 789.9641,-322.6077 795.35,-327.079"/>
</g>
<!-- HAsfc9_mu -->
<g id="node20" class="node">
<title>HAsfc9_mu</title>
<polygon fill="none" stroke="#000000" points="1075.7462,-213.93 984.7462,-213.93 984.7462,-160.93 1075.7462,-160.93 1075.7462,-213.93"/>
<text text-anchor="middle" x="1030.2462" y="-198.73" font-family="Times,serif" font-size="14.00" fill="#000000">HAsfc9_mu</text>
<text text-anchor="middle" x="1030.2462" y="-183.73" font-family="Times,serif" font-size="14.00" fill="#000000">~</text>
<text text-anchor="middle" x="1030.2462" y="-168.73" font-family="Times,serif" font-size="14.00" fill="#000000">Deterministic</text>
</g>
<!-- HAsfc9_b0&#45;&gt;HAsfc9_mu -->
<g id="edge15" class="edge">
<title>HAsfc9_b0&#45;&gt;HAsfc9_mu</title>
<path fill="none" stroke="#000000" d="M866.8539,-267.9352C898.8021,-252.194 941.6541,-231.0803 975.4579,-214.4248"/>
<polygon fill="#000000" stroke="#000000" points="977.3124,-217.4129 984.7358,-209.8535 974.2186,-211.1337 977.3124,-217.4129"/>
</g>
<!-- HAsfc9_sigma0 -->
<g id="node9" class="node">
<title>HAsfc9_sigma0</title>
<ellipse fill="none" stroke="#000000" cx="904.2462" cy="-390.3833" rx="74.4932" ry="37.4533"/>
<text text-anchor="middle" x="904.2462" y="-401.6833" font-family="Times,serif" font-size="14.00" fill="#000000">HAsfc9_sigma0</text>
<text text-anchor="middle" x="904.2462" y="-386.6833" font-family="Times,serif" font-size="14.00" fill="#000000">~</text>
<text text-anchor="middle" x="904.2462" y="-371.6833" font-family="Times,serif" font-size="14.00" fill="#000000">HalfNormal</text>
</g>
<!-- HAsfc9_sigma0&#45;&gt;HAsfc9_b0 -->
<g id="edge2" class="edge">
<title>HAsfc9_sigma0&#45;&gt;HAsfc9_b0</title>
<path fill="none" stroke="#000000" d="M875.4498,-355.6969C867.1742,-345.7286 858.1527,-334.8618 849.8865,-324.9049"/>
<polygon fill="#000000" stroke="#000000" points="852.5283,-322.6077 843.4478,-317.1493 847.1425,-327.079 852.5283,-322.6077"/>
</g>
<!-- HAsfc9_sigmaY -->
<g id="node10" class="node">
<title>HAsfc9_sigmaY</title>
<ellipse fill="none" stroke="#000000" cx="1317.2462" cy="-187.43" rx="76.2353" ry="37.4533"/>
<text text-anchor="middle" x="1317.2462" y="-198.73" font-family="Times,serif" font-size="14.00" fill="#000000">HAsfc9_sigmaY</text>
<text text-anchor="middle" x="1317.2462" y="-183.73" font-family="Times,serif" font-size="14.00" fill="#000000">~</text>
<text text-anchor="middle" x="1317.2462" y="-168.73" font-family="Times,serif" font-size="14.00" fill="#000000">Gamma</text>
</g>
<!-- HAsfc9_sigmaY&#45;&gt;HAsfc9_y -->
<g id="edge20" class="edge">
<title>HAsfc9_sigmaY&#45;&gt;HAsfc9_y</title>
<path fill="none" stroke="#000000" d="M1260.773,-161.906C1251.2941,-157.8018 1241.5244,-153.6814 1232.2462,-149.9533 1183.3596,-130.3102 1126.9574,-109.9858 1086.1975,-95.7058"/>
<polygon fill="#000000" stroke="#000000" points="1087.3029,-92.3846 1076.708,-92.3913 1084.9947,-98.9931 1087.3029,-92.3846"/>
</g>
<!-- HAsfc9_sigma1 -->
<g id="node11" class="node">
<title>HAsfc9_sigma1</title>
<ellipse fill="none" stroke="#000000" cx="406.2462" cy="-390.3833" rx="74.4932" ry="37.4533"/>
<text text-anchor="middle" x="406.2462" y="-401.6833" font-family="Times,serif" font-size="14.00" fill="#000000">HAsfc9_sigma1</text>
<text text-anchor="middle" x="406.2462" y="-386.6833" font-family="Times,serif" font-size="14.00" fill="#000000">~</text>
<text text-anchor="middle" x="406.2462" y="-371.6833" font-family="Times,serif" font-size="14.00" fill="#000000">HalfNormal</text>
</g>
<!-- HAsfc9_sigma1&#45;&gt;HAsfc9_b1 -->
<g id="edge5" class="edge">
<title>HAsfc9_sigma1&#45;&gt;HAsfc9_b1</title>
<path fill="none" stroke="#000000" d="M377.4498,-355.6969C369.1742,-345.7286 360.1527,-334.8618 351.8865,-324.9049"/>
<polygon fill="#000000" stroke="#000000" points="354.5283,-322.6077 345.4478,-317.1493 349.1425,-327.079 354.5283,-322.6077"/>
</g>
<!-- HAsfc9_b1&#45;&gt;HAsfc9_mu -->
<g id="edge17" class="edge">
<title>HAsfc9_b1&#45;&gt;HAsfc9_mu</title>
<path fill="none" stroke="#000000" d="M368.8184,-283.7689C493.2268,-265.6485 838.4088,-215.3717 974.2721,-195.5828"/>
<polygon fill="#000000" stroke="#000000" points="975.0657,-199.0042 984.4568,-194.0993 974.0567,-192.0773 975.0657,-199.0042"/>
</g>
<!-- HAsfc9_mu_b1 -->
<g id="node13" class="node">
<title>HAsfc9_mu_b1</title>
<ellipse fill="none" stroke="#000000" cx="240.2462" cy="-390.3833" rx="73.5782" ry="37.4533"/>
<text text-anchor="middle" x="240.2462" y="-401.6833" font-family="Times,serif" font-size="14.00" fill="#000000">HAsfc9_mu_b1</text>
<text text-anchor="middle" x="240.2462" y="-386.6833" font-family="Times,serif" font-size="14.00" fill="#000000">~</text>
<text text-anchor="middle" x="240.2462" y="-371.6833" font-family="Times,serif" font-size="14.00" fill="#000000">Normal</text>
</g>
<!-- HAsfc9_mu_b1&#45;&gt;HAsfc9_b1 -->
<g id="edge6" class="edge">
<title>HAsfc9_mu_b1&#45;&gt;HAsfc9_b1</title>
<path fill="none" stroke="#000000" d="M269.0426,-355.6969C277.3183,-345.7286 286.3398,-334.8618 294.6059,-324.9049"/>
<polygon fill="#000000" stroke="#000000" points="297.35,-327.079 301.0446,-317.1493 291.9641,-322.6077 297.35,-327.079"/>
</g>
<!-- HAsfc9_b2_beta -->
<g id="node14" class="node">
<title>HAsfc9_b2_beta</title>
<ellipse fill="none" stroke="#000000" cx="1073.2462" cy="-390.3833" rx="76.2353" ry="37.4533"/>
<text text-anchor="middle" x="1073.2462" y="-401.6833" font-family="Times,serif" font-size="14.00" fill="#000000">HAsfc9_b2_beta</text>
<text text-anchor="middle" x="1073.2462" y="-386.6833" font-family="Times,serif" font-size="14.00" fill="#000000">~</text>
<text text-anchor="middle" x="1073.2462" y="-371.6833" font-family="Times,serif" font-size="14.00" fill="#000000">HalfNormal</text>
</g>
<!-- HAsfc9_b2_beta&#45;&gt;HAsfc9_b2 -->
<g id="edge8" class="edge">
<title>HAsfc9_b2_beta&#45;&gt;HAsfc9_b2</title>
<path fill="none" stroke="#000000" d="M1102.3896,-355.6969C1110.7649,-345.7286 1119.8951,-334.8618 1128.2609,-324.9049"/>
<polygon fill="#000000" stroke="#000000" points="1131.024,-327.0571 1134.7772,-317.1493 1125.6646,-322.5541 1131.024,-327.0571"/>
</g>
<!-- HAsfc9_b2&#45;&gt;HAsfc9_mu -->
<g id="edge16" class="edge">
<title>HAsfc9_b2&#45;&gt;HAsfc9_mu</title>
<path fill="none" stroke="#000000" d="M1124.5406,-263.8876C1108.3718,-250.7773 1088.6883,-234.8172 1071.4959,-220.8769"/>
<polygon fill="#000000" stroke="#000000" points="1073.2543,-217.7966 1063.2824,-214.2171 1068.8455,-223.2339 1073.2543,-217.7966"/>
</g>
<!-- HAsfc9_mu_b2 -->
<g id="node16" class="node">
<title>HAsfc9_mu_b2</title>
<ellipse fill="none" stroke="#000000" cx="1241.2462" cy="-390.3833" rx="73.5782" ry="37.4533"/>
<text text-anchor="middle" x="1241.2462" y="-401.6833" font-family="Times,serif" font-size="14.00" fill="#000000">HAsfc9_mu_b2</text>
<text text-anchor="middle" x="1241.2462" y="-386.6833" font-family="Times,serif" font-size="14.00" fill="#000000">~</text>
<text text-anchor="middle" x="1241.2462" y="-371.6833" font-family="Times,serif" font-size="14.00" fill="#000000">Normal</text>
</g>
<!-- HAsfc9_mu_b2&#45;&gt;HAsfc9_b2 -->
<g id="edge10" class="edge">
<title>HAsfc9_mu_b2&#45;&gt;HAsfc9_b2</title>
<path fill="none" stroke="#000000" d="M1212.1028,-355.6969C1203.7275,-345.7286 1194.5973,-334.8618 1186.2315,-324.9049"/>
<polygon fill="#000000" stroke="#000000" points="1188.8278,-322.5541 1179.7153,-317.1493 1183.4684,-327.0571 1188.8278,-322.5541"/>
</g>
<!-- HAsfc9_sigma2 -->
<g id="node17" class="node">
<title>HAsfc9_sigma2</title>
<ellipse fill="none" stroke="#000000" cx="1073.2462" cy="-501.3366" rx="74.4932" ry="37.4533"/>
<text text-anchor="middle" x="1073.2462" y="-512.6366" font-family="Times,serif" font-size="14.00" fill="#000000">HAsfc9_sigma2</text>
<text text-anchor="middle" x="1073.2462" y="-497.6366" font-family="Times,serif" font-size="14.00" fill="#000000">~</text>
<text text-anchor="middle" x="1073.2462" y="-482.6366" font-family="Times,serif" font-size="14.00" fill="#000000">HalfNormal</text>
</g>
<!-- HAsfc9_sigma2&#45;&gt;HAsfc9_b2_beta -->
<g id="edge7" class="edge">
<title>HAsfc9_sigma2&#45;&gt;HAsfc9_b2_beta</title>
<path fill="none" stroke="#000000" d="M1073.2462,-463.7729C1073.2462,-455.549 1073.2462,-446.7367 1073.2462,-438.1736"/>
<polygon fill="#000000" stroke="#000000" points="1076.7463,-437.9083 1073.2462,-427.9083 1069.7463,-437.9084 1076.7463,-437.9083"/>
</g>
<!-- HAsfc9_M12&#45;&gt;HAsfc9_mu -->
<g id="edge14" class="edge">
<title>HAsfc9_M12&#45;&gt;HAsfc9_mu</title>
<path fill="none" stroke="#000000" d="M1552.975,-278.038C1499.1796,-264.2639 1407.5014,-242.6566 1327.2462,-232.9066 1274.4932,-226.4978 1138.9574,-240.7916 1088.2462,-224.9066 1083.3661,-223.378 1078.502,-221.3183 1073.7841,-218.9469"/>
<polygon fill="#000000" stroke="#000000" points="1075.3722,-215.8257 1064.9255,-214.0601 1071.991,-221.955 1075.3722,-215.8257"/>
</g>
<!-- HAsfc9_mu_M12 -->
<g id="node19" class="node">
<title>HAsfc9_mu_M12</title>
<ellipse fill="none" stroke="#000000" cx="1581.2462" cy="-390.3833" rx="82.0488" ry="37.4533"/>
<text text-anchor="middle" x="1581.2462" y="-401.6833" font-family="Times,serif" font-size="14.00" fill="#000000">HAsfc9_mu_M12</text>
<text text-anchor="middle" x="1581.2462" y="-386.6833" font-family="Times,serif" font-size="14.00" fill="#000000">~</text>
<text text-anchor="middle" x="1581.2462" y="-371.6833" font-family="Times,serif" font-size="14.00" fill="#000000">Normal</text>
</g>
<!-- HAsfc9_mu_M12&#45;&gt;HAsfc9_M12 -->
<g id="edge13" class="edge">
<title>HAsfc9_mu_M12&#45;&gt;HAsfc9_M12</title>
<path fill="none" stroke="#000000" d="M1588,-352.8712C1589.5177,-344.4415 1591.1264,-335.506 1592.6381,-327.1097"/>
<polygon fill="#000000" stroke="#000000" points="1596.0939,-327.6677 1594.4212,-317.2057 1589.2046,-326.4273 1596.0939,-327.6677"/>
</g>
<!-- HAsfc9_mu&#45;&gt;HAsfc9_y -->
<g id="edge19" class="edge">
<title>HAsfc9_mu&#45;&gt;HAsfc9_y</title>
<path fill="none" stroke="#000000" d="M1030.2462,-160.8539C1030.2462,-149.9351 1030.2462,-136.944 1030.2462,-124.4675"/>
<polygon fill="#000000" stroke="#000000" points="1033.7463,-124.1649 1030.2462,-114.165 1026.7463,-124.165 1033.7463,-124.1649"/>
</g>
</g>
</svg>
