<?xml version="1.0" encoding="UTF-8" standalone="no"?>
<!DOCTYPE svg PUBLIC "-//W3C//DTD SVG 1.1//EN"
 "http://www.w3.org/Graphics/SVG/1.1/DTD/svg11.dtd">
<!-- Generated by graphviz version 2.40.1 (20161225.0304)
 -->
<!-- Title: Rsquared Pages: 1 -->
<svg width="2202pt" height="563pt"
 viewBox="0.00 0.00 2201.61 562.81" xmlns="http://www.w3.org/2000/svg" xmlns:xlink="http://www.w3.org/1999/xlink">
<g id="graph0" class="graph" transform="scale(1 1) rotate(0) translate(4 558.8133)">
<title>Rsquared</title>
<polygon fill="#ffffff" stroke="transparent" points="-4,4 -4,-558.8133 2197.6102,-558.8133 2197.6102,4 -4,4"/>
<g id="clust1" class="cluster">
<title>cluster2</title>
<path fill="none" stroke="#000000" d="M20,-232.9066C20,-232.9066 352,-232.9066 352,-232.9066 358,-232.9066 364,-238.9066 364,-244.9066 364,-244.9066 364,-423.86 364,-423.86 364,-429.86 358,-435.86 352,-435.86 352,-435.86 20,-435.86 20,-435.86 14,-435.86 8,-429.86 8,-423.86 8,-423.86 8,-244.9066 8,-244.9066 8,-238.9066 14,-232.9066 20,-232.9066"/>
<text text-anchor="middle" x="352.5" y="-240.7066" font-family="Times,serif" font-size="14.00" fill="#000000">2</text>
</g>
<g id="clust2" class="cluster">
<title>cluster11</title>
<path fill="none" stroke="#000000" d="M557,-232.9066C557,-232.9066 893,-232.9066 893,-232.9066 899,-232.9066 905,-238.9066 905,-244.9066 905,-244.9066 905,-534.8133 905,-534.8133 905,-540.8133 899,-546.8133 893,-546.8133 893,-546.8133 557,-546.8133 557,-546.8133 551,-546.8133 545,-540.8133 545,-534.8133 545,-534.8133 545,-244.9066 545,-244.9066 545,-238.9066 551,-232.9066 557,-232.9066"/>
<text text-anchor="middle" x="890" y="-240.7066" font-family="Times,serif" font-size="14.00" fill="#000000">11</text>
</g>
<g id="clust3" class="cluster">
<title>cluster2 x 11</title>
<path fill="none" stroke="#000000" d="M1098,-232.9066C1098,-232.9066 1266,-232.9066 1266,-232.9066 1272,-232.9066 1278,-238.9066 1278,-244.9066 1278,-244.9066 1278,-423.86 1278,-423.86 1278,-429.86 1272,-435.86 1266,-435.86 1266,-435.86 1098,-435.86 1098,-435.86 1092,-435.86 1086,-429.86 1086,-423.86 1086,-423.86 1086,-244.9066 1086,-244.9066 1086,-238.9066 1092,-232.9066 1098,-232.9066"/>
<text text-anchor="middle" x="1252.5" y="-240.7066" font-family="Times,serif" font-size="14.00" fill="#000000">2 x 11</text>
</g>
<g id="clust4" class="cluster">
<title>cluster230</title>
<path fill="none" stroke="#000000" d="M972,-8C972,-8 1078,-8 1078,-8 1084,-8 1090,-14 1090,-20 1090,-20 1090,-209.93 1090,-209.93 1090,-215.93 1084,-221.93 1078,-221.93 1078,-221.93 972,-221.93 972,-221.93 966,-221.93 960,-215.93 960,-209.93 960,-209.93 960,-20 960,-20 960,-14 966,-8 972,-8"/>
<text text-anchor="middle" x="1071.5" y="-15.8" font-family="Times,serif" font-size="14.00" fill="#000000">230</text>
</g>
<!-- Rsquared_mu_b0 -->
<g id="node1" class="node">
<title>Rsquared_mu_b0</title>
<ellipse fill="none" stroke="#000000" cx="1755" cy="-390.3833" rx="79.8063" ry="37.4533"/>
<text text-anchor="middle" x="1755" y="-401.6833" font-family="Times,serif" font-size="14.00" fill="#000000">Rsquared_mu_b0</text>
<text text-anchor="middle" x="1755" y="-386.6833" font-family="Times,serif" font-size="14.00" fill="#000000">~</text>
<text text-anchor="middle" x="1755" y="-371.6833" font-family="Times,serif" font-size="14.00" fill="#000000">Normal</text>
</g>
<!-- Rsquared_b0 -->
<g id="node9" class="node">
<title>Rsquared_b0</title>
<polygon fill="none" stroke="#000000" points="1889.5,-316.9066 1798.5,-316.9066 1798.5,-263.9066 1889.5,-263.9066 1889.5,-316.9066"/>
<text text-anchor="middle" x="1844" y="-301.7066" font-family="Times,serif" font-size="14.00" fill="#000000">Rsquared_b0</text>
<text text-anchor="middle" x="1844" y="-286.7066" font-family="Times,serif" font-size="14.00" fill="#000000">~</text>
<text text-anchor="middle" x="1844" y="-271.7066" font-family="Times,serif" font-size="14.00" fill="#000000">Deterministic</text>
</g>
<!-- Rsquared_mu_b0&#45;&gt;Rsquared_b0 -->
<g id="edge3" class="edge">
<title>Rsquared_mu_b0&#45;&gt;Rsquared_b0</title>
<path fill="none" stroke="#000000" d="M1785.8781,-355.6969C1794.752,-345.7286 1804.4256,-334.8618 1813.2894,-324.9049"/>
<polygon fill="#000000" stroke="#000000" points="1816.1586,-326.9457 1820.1935,-317.1493 1810.9301,-322.2913 1816.1586,-326.9457"/>
</g>
<!-- Rsquared_sigmaY -->
<g id="node2" class="node">
<title>Rsquared_sigmaY</title>
<ellipse fill="none" stroke="#000000" cx="1181" cy="-187.43" rx="82.9636" ry="37.4533"/>
<text text-anchor="middle" x="1181" y="-198.73" font-family="Times,serif" font-size="14.00" fill="#000000">Rsquared_sigmaY</text>
<text text-anchor="middle" x="1181" y="-183.73" font-family="Times,serif" font-size="14.00" fill="#000000">~</text>
<text text-anchor="middle" x="1181" y="-168.73" font-family="Times,serif" font-size="14.00" fill="#000000">Gamma</text>
</g>
<!-- Rsquared_y -->
<g id="node21" class="node">
<title>Rsquared_y</title>
<ellipse fill="#d3d3d3" stroke="#000000" cx="1025" cy="-76.4767" rx="57.0522" ry="37.4533"/>
<text text-anchor="middle" x="1025" y="-87.7767" font-family="Times,serif" font-size="14.00" fill="#000000">Rsquared_y</text>
<text text-anchor="middle" x="1025" y="-72.7767" font-family="Times,serif" font-size="14.00" fill="#000000">~</text>
<text text-anchor="middle" x="1025" y="-57.7767" font-family="Times,serif" font-size="14.00" fill="#000000">StudentT</text>
</g>
<!-- Rsquared_sigmaY&#45;&gt;Rsquared_y -->
<g id="edge19" class="edge">
<title>Rsquared_sigmaY&#45;&gt;Rsquared_y</title>
<path fill="none" stroke="#000000" d="M1136.2967,-155.6352C1116.1971,-141.3396 1092.4662,-124.4613 1072.0918,-109.9702"/>
<polygon fill="#000000" stroke="#000000" points="1074.0575,-107.0733 1063.8798,-104.1295 1070.0003,-112.7777 1074.0575,-107.0733"/>
</g>
<!-- Rsquared_b2_dist -->
<g id="node3" class="node">
<title>Rsquared_b2_dist</title>
<ellipse fill="none" stroke="#000000" cx="995" cy="-390.3833" rx="80.7205" ry="37.4533"/>
<text text-anchor="middle" x="995" y="-401.6833" font-family="Times,serif" font-size="14.00" fill="#000000">Rsquared_b2_dist</text>
<text text-anchor="middle" x="995" y="-386.6833" font-family="Times,serif" font-size="14.00" fill="#000000">~</text>
<text text-anchor="middle" x="995" y="-371.6833" font-family="Times,serif" font-size="14.00" fill="#000000">Gumbel</text>
</g>
<!-- Rsquared_b2 -->
<g id="node16" class="node">
<title>Rsquared_b2</title>
<polygon fill="none" stroke="#000000" points="877.5,-316.9066 786.5,-316.9066 786.5,-263.9066 877.5,-263.9066 877.5,-316.9066"/>
<text text-anchor="middle" x="832" y="-301.7066" font-family="Times,serif" font-size="14.00" fill="#000000">Rsquared_b2</text>
<text text-anchor="middle" x="832" y="-286.7066" font-family="Times,serif" font-size="14.00" fill="#000000">~</text>
<text text-anchor="middle" x="832" y="-271.7066" font-family="Times,serif" font-size="14.00" fill="#000000">Deterministic</text>
</g>
<!-- Rsquared_b2_dist&#45;&gt;Rsquared_b2 -->
<g id="edge9" class="edge">
<title>Rsquared_b2_dist&#45;&gt;Rsquared_b2</title>
<path fill="none" stroke="#000000" d="M946.0946,-360.387C926.4898,-348.3623 903.8724,-334.4898 883.9712,-322.2834"/>
<polygon fill="#000000" stroke="#000000" points="885.6875,-319.2302 875.3332,-316.9852 882.0276,-325.1972 885.6875,-319.2302"/>
</g>
<!-- Rsquared_b0_dist -->
<g id="node4" class="node">
<title>Rsquared_b0_dist</title>
<ellipse fill="none" stroke="#000000" cx="1934" cy="-390.3833" rx="80.7205" ry="37.4533"/>
<text text-anchor="middle" x="1934" y="-401.6833" font-family="Times,serif" font-size="14.00" fill="#000000">Rsquared_b0_dist</text>
<text text-anchor="middle" x="1934" y="-386.6833" font-family="Times,serif" font-size="14.00" fill="#000000">~</text>
<text text-anchor="middle" x="1934" y="-371.6833" font-family="Times,serif" font-size="14.00" fill="#000000">Normal</text>
</g>
<!-- Rsquared_b0_dist&#45;&gt;Rsquared_b0 -->
<g id="edge2" class="edge">
<title>Rsquared_b0_dist&#45;&gt;Rsquared_b0</title>
<path fill="none" stroke="#000000" d="M1902.7749,-355.6969C1893.7125,-345.6299 1883.8252,-334.6466 1874.7897,-324.6094"/>
<polygon fill="#000000" stroke="#000000" points="1877.3658,-322.2398 1868.074,-317.1493 1872.1633,-326.9232 1877.3658,-322.2398"/>
</g>
<!-- Rsquared_b1_dist -->
<g id="node5" class="node">
<title>Rsquared_b1_dist</title>
<ellipse fill="none" stroke="#000000" cx="454" cy="-390.3833" rx="80.7205" ry="37.4533"/>
<text text-anchor="middle" x="454" y="-401.6833" font-family="Times,serif" font-size="14.00" fill="#000000">Rsquared_b1_dist</text>
<text text-anchor="middle" x="454" y="-386.6833" font-family="Times,serif" font-size="14.00" fill="#000000">~</text>
<text text-anchor="middle" x="454" y="-371.6833" font-family="Times,serif" font-size="14.00" fill="#000000">Normal</text>
</g>
<!-- Rsquared_b1 -->
<g id="node13" class="node">
<title>Rsquared_b1</title>
<polygon fill="none" stroke="#000000" points="337.5,-316.9066 246.5,-316.9066 246.5,-263.9066 337.5,-263.9066 337.5,-316.9066"/>
<text text-anchor="middle" x="292" y="-301.7066" font-family="Times,serif" font-size="14.00" fill="#000000">Rsquared_b1</text>
<text text-anchor="middle" x="292" y="-286.7066" font-family="Times,serif" font-size="14.00" fill="#000000">~</text>
<text text-anchor="middle" x="292" y="-271.7066" font-family="Times,serif" font-size="14.00" fill="#000000">Deterministic</text>
</g>
<!-- Rsquared_b1_dist&#45;&gt;Rsquared_b1 -->
<g id="edge6" class="edge">
<title>Rsquared_b1_dist&#45;&gt;Rsquared_b1</title>
<path fill="none" stroke="#000000" d="M405.3947,-360.387C385.9102,-348.3623 363.4314,-334.4898 343.6524,-322.2834"/>
<polygon fill="#000000" stroke="#000000" points="345.4154,-319.2586 335.0674,-316.9852 341.7391,-325.2156 345.4154,-319.2586"/>
</g>
<!-- Rsquared_nuY -->
<g id="node6" class="node">
<title>Rsquared_nuY</title>
<ellipse fill="none" stroke="#000000" cx="1351" cy="-187.43" rx="69.0935" ry="37.4533"/>
<text text-anchor="middle" x="1351" y="-198.73" font-family="Times,serif" font-size="14.00" fill="#000000">Rsquared_nuY</text>
<text text-anchor="middle" x="1351" y="-183.73" font-family="Times,serif" font-size="14.00" fill="#000000">~</text>
<text text-anchor="middle" x="1351" y="-168.73" font-family="Times,serif" font-size="14.00" fill="#000000">Exponential</text>
</g>
<!-- Rsquared_nuY&#45;&gt;Rsquared_y -->
<g id="edge20" class="edge">
<title>Rsquared_nuY&#45;&gt;Rsquared_y</title>
<path fill="none" stroke="#000000" d="M1300.3269,-161.6457C1291.3322,-157.4838 1281.9715,-153.4121 1273,-149.9533 1211.7219,-126.3288 1139.5188,-105.7165 1088.8727,-92.3851"/>
<polygon fill="#000000" stroke="#000000" points="1089.6005,-88.9578 1079.0406,-89.8171 1087.8315,-95.7306 1089.6005,-88.9578"/>
</g>
<!-- Rsquared_sigma12 -->
<g id="node7" class="node">
<title>Rsquared_sigma12</title>
<ellipse fill="none" stroke="#000000" cx="1374" cy="-390.3833" rx="85.6199" ry="37.4533"/>
<text text-anchor="middle" x="1374" y="-401.6833" font-family="Times,serif" font-size="14.00" fill="#000000">Rsquared_sigma12</text>
<text text-anchor="middle" x="1374" y="-386.6833" font-family="Times,serif" font-size="14.00" fill="#000000">~</text>
<text text-anchor="middle" x="1374" y="-371.6833" font-family="Times,serif" font-size="14.00" fill="#000000">HalfNormal</text>
</g>
<!-- Rsquared_M12 -->
<g id="node18" class="node">
<title>Rsquared_M12</title>
<polygon fill="none" stroke="#000000" points="1250.5,-316.9066 1149.5,-316.9066 1149.5,-263.9066 1250.5,-263.9066 1250.5,-316.9066"/>
<text text-anchor="middle" x="1200" y="-301.7066" font-family="Times,serif" font-size="14.00" fill="#000000">Rsquared_M12</text>
<text text-anchor="middle" x="1200" y="-286.7066" font-family="Times,serif" font-size="14.00" fill="#000000">~</text>
<text text-anchor="middle" x="1200" y="-271.7066" font-family="Times,serif" font-size="14.00" fill="#000000">Deterministic</text>
</g>
<!-- Rsquared_sigma12&#45;&gt;Rsquared_M12 -->
<g id="edge11" class="edge">
<title>Rsquared_sigma12&#45;&gt;Rsquared_M12</title>
<path fill="none" stroke="#000000" d="M1321.7943,-360.387C1300.7726,-348.3084 1276.5061,-334.3654 1255.1929,-322.1193"/>
<polygon fill="#000000" stroke="#000000" points="1256.6719,-318.9325 1246.2575,-316.9852 1253.1845,-325.002 1256.6719,-318.9325"/>
</g>
<!-- Rsquared_sigma0 -->
<g id="node8" class="node">
<title>Rsquared_sigma0</title>
<ellipse fill="none" stroke="#000000" cx="2113" cy="-390.3833" rx="80.7205" ry="37.4533"/>
<text text-anchor="middle" x="2113" y="-401.6833" font-family="Times,serif" font-size="14.00" fill="#000000">Rsquared_sigma0</text>
<text text-anchor="middle" x="2113" y="-386.6833" font-family="Times,serif" font-size="14.00" fill="#000000">~</text>
<text text-anchor="middle" x="2113" y="-371.6833" font-family="Times,serif" font-size="14.00" fill="#000000">HalfNormal</text>
</g>
<!-- Rsquared_sigma0&#45;&gt;Rsquared_b0 -->
<g id="edge1" class="edge">
<title>Rsquared_sigma0&#45;&gt;Rsquared_b0</title>
<path fill="none" stroke="#000000" d="M2053.8519,-364.8517C2043.9289,-360.7485 2033.7047,-356.6303 2024,-352.9066 1982.6422,-337.0377 1935.3003,-320.6692 1899.551,-308.6658"/>
<polygon fill="#000000" stroke="#000000" points="1900.3837,-305.2538 1889.7899,-305.4001 1898.1627,-311.8921 1900.3837,-305.2538"/>
</g>
<!-- Rsquared_mu -->
<g id="node20" class="node">
<title>Rsquared_mu</title>
<polygon fill="none" stroke="#000000" points="1071,-213.93 979,-213.93 979,-160.93 1071,-160.93 1071,-213.93"/>
<text text-anchor="middle" x="1025" y="-198.73" font-family="Times,serif" font-size="14.00" fill="#000000">Rsquared_mu</text>
<text text-anchor="middle" x="1025" y="-183.73" font-family="Times,serif" font-size="14.00" fill="#000000">~</text>
<text text-anchor="middle" x="1025" y="-168.73" font-family="Times,serif" font-size="14.00" fill="#000000">Deterministic</text>
</g>
<!-- Rsquared_b0&#45;&gt;Rsquared_mu -->
<g id="edge15" class="edge">
<title>Rsquared_b0&#45;&gt;Rsquared_mu</title>
<path fill="none" stroke="#000000" d="M1798.1874,-284.7693C1702.4738,-273.2015 1474.2298,-246.7118 1282,-232.9066 1239.1846,-229.8318 1130.1871,-236.9996 1089,-224.9066 1083.4598,-223.28 1077.8968,-221.0732 1072.4888,-218.5396"/>
<polygon fill="#000000" stroke="#000000" points="1074.067,-215.4156 1063.5656,-214.0116 1070.8994,-221.6579 1074.067,-215.4156"/>
</g>
<!-- Rsquared_M12_dist -->
<g id="node10" class="node">
<title>Rsquared_M12_dist</title>
<ellipse fill="none" stroke="#000000" cx="1567" cy="-390.3833" rx="89.6056" ry="37.4533"/>
<text text-anchor="middle" x="1567" y="-401.6833" font-family="Times,serif" font-size="14.00" fill="#000000">Rsquared_M12_dist</text>
<text text-anchor="middle" x="1567" y="-386.6833" font-family="Times,serif" font-size="14.00" fill="#000000">~</text>
<text text-anchor="middle" x="1567" y="-371.6833" font-family="Times,serif" font-size="14.00" fill="#000000">Normal</text>
</g>
<!-- Rsquared_M12_dist&#45;&gt;Rsquared_M12 -->
<g id="edge12" class="edge">
<title>Rsquared_M12_dist&#45;&gt;Rsquared_M12</title>
<path fill="none" stroke="#000000" d="M1502.3316,-364.2236C1491.2994,-360.1734 1479.887,-356.2359 1469,-352.9066 1398.4286,-331.3256 1315.4754,-313.1019 1260.5412,-301.9999"/>
<polygon fill="#000000" stroke="#000000" points="1261.1121,-298.5448 1250.6192,-300.0106 1259.736,-305.4082 1261.1121,-298.5448"/>
</g>
<!-- Rsquared_sigma1 -->
<g id="node11" class="node">
<title>Rsquared_sigma1</title>
<ellipse fill="none" stroke="#000000" cx="275" cy="-390.3833" rx="80.7205" ry="37.4533"/>
<text text-anchor="middle" x="275" y="-401.6833" font-family="Times,serif" font-size="14.00" fill="#000000">Rsquared_sigma1</text>
<text text-anchor="middle" x="275" y="-386.6833" font-family="Times,serif" font-size="14.00" fill="#000000">~</text>
<text text-anchor="middle" x="275" y="-371.6833" font-family="Times,serif" font-size="14.00" fill="#000000">HalfNormal</text>
</g>
<!-- Rsquared_sigma1&#45;&gt;Rsquared_b1 -->
<g id="edge4" class="edge">
<title>Rsquared_sigma1&#45;&gt;Rsquared_b1</title>
<path fill="none" stroke="#000000" d="M281.3785,-352.8712C282.8119,-344.4415 284.3313,-335.506 285.759,-327.1097"/>
<polygon fill="#000000" stroke="#000000" points="289.2171,-327.651 287.4431,-317.2057 282.3162,-326.4775 289.2171,-327.651"/>
</g>
<!-- Rsquared_mu_b1 -->
<g id="node12" class="node">
<title>Rsquared_mu_b1</title>
<ellipse fill="none" stroke="#000000" cx="96" cy="-390.3833" rx="79.8063" ry="37.4533"/>
<text text-anchor="middle" x="96" y="-401.6833" font-family="Times,serif" font-size="14.00" fill="#000000">Rsquared_mu_b1</text>
<text text-anchor="middle" x="96" y="-386.6833" font-family="Times,serif" font-size="14.00" fill="#000000">~</text>
<text text-anchor="middle" x="96" y="-371.6833" font-family="Times,serif" font-size="14.00" fill="#000000">Normal</text>
</g>
<!-- Rsquared_mu_b1&#45;&gt;Rsquared_b1 -->
<g id="edge5" class="edge">
<title>Rsquared_mu_b1&#45;&gt;Rsquared_b1</title>
<path fill="none" stroke="#000000" d="M150.3366,-362.667C177.4115,-348.8565 210.0754,-332.1951 237.212,-318.3532"/>
<polygon fill="#000000" stroke="#000000" points="238.8692,-321.437 246.1869,-313.7752 235.6884,-315.2013 238.8692,-321.437"/>
</g>
<!-- Rsquared_b1&#45;&gt;Rsquared_mu -->
<g id="edge17" class="edge">
<title>Rsquared_b1&#45;&gt;Rsquared_mu</title>
<path fill="none" stroke="#000000" d="M337.5314,-277.9659C387.1835,-264.8529 469.1715,-244.5215 541,-232.9066 694.6287,-208.0644 878.0497,-195.4154 968.6402,-190.2828"/>
<polygon fill="#000000" stroke="#000000" points="968.9038,-193.7736 978.6935,-189.7226 968.5143,-186.7845 968.9038,-193.7736"/>
</g>
<!-- Rsquared_sigma2 -->
<g id="node14" class="node">
<title>Rsquared_sigma2</title>
<ellipse fill="none" stroke="#000000" cx="814" cy="-501.3366" rx="80.7205" ry="37.4533"/>
<text text-anchor="middle" x="814" y="-512.6366" font-family="Times,serif" font-size="14.00" fill="#000000">Rsquared_sigma2</text>
<text text-anchor="middle" x="814" y="-497.6366" font-family="Times,serif" font-size="14.00" fill="#000000">~</text>
<text text-anchor="middle" x="814" y="-482.6366" font-family="Times,serif" font-size="14.00" fill="#000000">HalfNormal</text>
</g>
<!-- Rsquared_b2_beta -->
<g id="node17" class="node">
<title>Rsquared_b2_beta</title>
<ellipse fill="none" stroke="#000000" cx="814" cy="-390.3833" rx="82.9636" ry="37.4533"/>
<text text-anchor="middle" x="814" y="-401.6833" font-family="Times,serif" font-size="14.00" fill="#000000">Rsquared_b2_beta</text>
<text text-anchor="middle" x="814" y="-386.6833" font-family="Times,serif" font-size="14.00" fill="#000000">~</text>
<text text-anchor="middle" x="814" y="-371.6833" font-family="Times,serif" font-size="14.00" fill="#000000">HalfNormal</text>
</g>
<!-- Rsquared_sigma2&#45;&gt;Rsquared_b2_beta -->
<g id="edge7" class="edge">
<title>Rsquared_sigma2&#45;&gt;Rsquared_b2_beta</title>
<path fill="none" stroke="#000000" d="M814,-463.7729C814,-455.549 814,-446.7367 814,-438.1736"/>
<polygon fill="#000000" stroke="#000000" points="817.5001,-437.9083 814,-427.9083 810.5001,-437.9084 817.5001,-437.9083"/>
</g>
<!-- Rsquared_mu_b2 -->
<g id="node15" class="node">
<title>Rsquared_mu_b2</title>
<ellipse fill="none" stroke="#000000" cx="633" cy="-390.3833" rx="79.8062" ry="37.4533"/>
<text text-anchor="middle" x="633" y="-401.6833" font-family="Times,serif" font-size="14.00" fill="#000000">Rsquared_mu_b2</text>
<text text-anchor="middle" x="633" y="-386.6833" font-family="Times,serif" font-size="14.00" fill="#000000">~</text>
<text text-anchor="middle" x="633" y="-371.6833" font-family="Times,serif" font-size="14.00" fill="#000000">Normal</text>
</g>
<!-- Rsquared_mu_b2&#45;&gt;Rsquared_b2 -->
<g id="edge8" class="edge">
<title>Rsquared_mu_b2&#45;&gt;Rsquared_b2</title>
<path fill="none" stroke="#000000" d="M687.6408,-362.932C715.4491,-348.9613 749.1697,-332.0202 777.025,-318.0258"/>
<polygon fill="#000000" stroke="#000000" points="778.8653,-321.0182 786.2298,-313.4014 775.7228,-314.7632 778.8653,-321.0182"/>
</g>
<!-- Rsquared_b2&#45;&gt;Rsquared_mu -->
<g id="edge16" class="edge">
<title>Rsquared_b2&#45;&gt;Rsquared_mu</title>
<path fill="none" stroke="#000000" d="M877.7383,-266.0026C905.4177,-251.234 940.8865,-232.3094 970.0786,-216.7337"/>
<polygon fill="#000000" stroke="#000000" points="971.7461,-219.8111 978.9212,-212.0157 968.4508,-213.6352 971.7461,-219.8111"/>
</g>
<!-- Rsquared_b2_beta&#45;&gt;Rsquared_b2 -->
<g id="edge10" class="edge">
<title>Rsquared_b2_beta&#45;&gt;Rsquared_b2</title>
<path fill="none" stroke="#000000" d="M820.7537,-352.8712C822.2715,-344.4415 823.8802,-335.506 825.3919,-327.1097"/>
<polygon fill="#000000" stroke="#000000" points="828.8476,-327.6677 827.175,-317.2057 821.9584,-326.4273 828.8476,-327.6677"/>
</g>
<!-- Rsquared_M12&#45;&gt;Rsquared_mu -->
<g id="edge14" class="edge">
<title>Rsquared_M12&#45;&gt;Rsquared_mu</title>
<path fill="none" stroke="#000000" d="M1154.9332,-263.8876C1131.7529,-250.2475 1103.3304,-233.5226 1078.9854,-219.197"/>
<polygon fill="#000000" stroke="#000000" points="1080.6116,-216.093 1070.2179,-214.0379 1077.0615,-222.126 1080.6116,-216.093"/>
</g>
<!-- Rsquared_mu_M12 -->
<g id="node19" class="node">
<title>Rsquared_mu_M12</title>
<ellipse fill="none" stroke="#000000" cx="1182" cy="-390.3833" rx="88.2768" ry="37.4533"/>
<text text-anchor="middle" x="1182" y="-401.6833" font-family="Times,serif" font-size="14.00" fill="#000000">Rsquared_mu_M12</text>
<text text-anchor="middle" x="1182" y="-386.6833" font-family="Times,serif" font-size="14.00" fill="#000000">~</text>
<text text-anchor="middle" x="1182" y="-371.6833" font-family="Times,serif" font-size="14.00" fill="#000000">Normal</text>
</g>
<!-- Rsquared_mu_M12&#45;&gt;Rsquared_M12 -->
<g id="edge13" class="edge">
<title>Rsquared_mu_M12&#45;&gt;Rsquared_M12</title>
<path fill="none" stroke="#000000" d="M1188.7537,-352.8712C1190.2715,-344.4415 1191.8802,-335.506 1193.3919,-327.1097"/>
<polygon fill="#000000" stroke="#000000" points="1196.8476,-327.6677 1195.175,-317.2057 1189.9584,-326.4273 1196.8476,-327.6677"/>
</g>
<!-- Rsquared_mu&#45;&gt;Rsquared_y -->
<g id="edge18" class="edge">
<title>Rsquared_mu&#45;&gt;Rsquared_y</title>
<path fill="none" stroke="#000000" d="M1025,-160.8539C1025,-149.9351 1025,-136.944 1025,-124.4675"/>
<polygon fill="#000000" stroke="#000000" points="1028.5001,-124.1649 1025,-114.165 1021.5001,-124.165 1028.5001,-124.1649"/>
</g>
</g>
</svg>
