<?xml version="1.0" encoding="UTF-8" standalone="no"?>
<!DOCTYPE svg PUBLIC "-//W3C//DTD SVG 1.1//EN"
 "http://www.w3.org/Graphics/SVG/1.1/DTD/svg11.dtd">
<!-- Generated by graphviz version 2.40.1 (20161225.0304)
 -->
<!-- Title: Smfc Pages: 1 -->
<svg width="1827pt" height="563pt"
 viewBox="0.00 0.00 1827.35 562.81" xmlns="http://www.w3.org/2000/svg" xmlns:xlink="http://www.w3.org/1999/xlink">
<g id="graph0" class="graph" transform="scale(1 1) rotate(0) translate(4 558.8133)">
<title>Smfc</title>
<polygon fill="#ffffff" stroke="transparent" points="-4,4 -4,-558.8133 1823.3467,-558.8133 1823.3467,4 -4,4"/>
<g id="clust1" class="cluster">
<title>cluster2</title>
<path fill="none" stroke="#000000" d="M20,-232.9066C20,-232.9066 288,-232.9066 288,-232.9066 294,-232.9066 300,-238.9066 300,-244.9066 300,-244.9066 300,-423.86 300,-423.86 300,-429.86 294,-435.86 288,-435.86 288,-435.86 20,-435.86 20,-435.86 14,-435.86 8,-429.86 8,-423.86 8,-423.86 8,-244.9066 8,-244.9066 8,-238.9066 14,-232.9066 20,-232.9066"/>
<text text-anchor="middle" x="288.5" y="-240.7066" font-family="Times,serif" font-size="14.00" fill="#000000">2</text>
</g>
<g id="clust2" class="cluster">
<title>cluster11</title>
<path fill="none" stroke="#000000" d="M462,-232.9066C462,-232.9066 735,-232.9066 735,-232.9066 741,-232.9066 747,-238.9066 747,-244.9066 747,-244.9066 747,-534.8133 747,-534.8133 747,-540.8133 741,-546.8133 735,-546.8133 735,-546.8133 462,-546.8133 462,-546.8133 456,-546.8133 450,-540.8133 450,-534.8133 450,-534.8133 450,-244.9066 450,-244.9066 450,-238.9066 456,-232.9066 462,-232.9066"/>
<text text-anchor="middle" x="732" y="-240.7066" font-family="Times,serif" font-size="14.00" fill="#000000">11</text>
</g>
<g id="clust3" class="cluster">
<title>cluster2 x 11</title>
<path fill="none" stroke="#000000" d="M909,-232.9066C909,-232.9066 1049,-232.9066 1049,-232.9066 1055,-232.9066 1061,-238.9066 1061,-244.9066 1061,-244.9066 1061,-423.86 1061,-423.86 1061,-429.86 1055,-435.86 1049,-435.86 1049,-435.86 909,-435.86 909,-435.86 903,-435.86 897,-429.86 897,-423.86 897,-423.86 897,-244.9066 897,-244.9066 897,-238.9066 903,-232.9066 909,-232.9066"/>
<text text-anchor="middle" x="1035.5" y="-240.7066" font-family="Times,serif" font-size="14.00" fill="#000000">2 x 11</text>
</g>
<g id="clust4" class="cluster">
<title>cluster230</title>
<path fill="none" stroke="#000000" d="M799,-8C799,-8 885,-8 885,-8 891,-8 897,-14 897,-20 897,-20 897,-209.93 897,-209.93 897,-215.93 891,-221.93 885,-221.93 885,-221.93 799,-221.93 799,-221.93 793,-221.93 787,-215.93 787,-209.93 787,-209.93 787,-20 787,-20 787,-14 793,-8 799,-8"/>
<text text-anchor="middle" x="878.5" y="-15.8" font-family="Times,serif" font-size="14.00" fill="#000000">230</text>
</g>
<!-- Smfc_sigma0 -->
<g id="node1" class="node">
<title>Smfc_sigma0</title>
<ellipse fill="none" stroke="#000000" cx="1460" cy="-390.3833" rx="65.1077" ry="37.4533"/>
<text text-anchor="middle" x="1460" y="-401.6833" font-family="Times,serif" font-size="14.00" fill="#000000">Smfc_sigma0</text>
<text text-anchor="middle" x="1460" y="-386.6833" font-family="Times,serif" font-size="14.00" fill="#000000">~</text>
<text text-anchor="middle" x="1460" y="-371.6833" font-family="Times,serif" font-size="14.00" fill="#000000">HalfNormal</text>
</g>
<!-- Smfc_b0 -->
<g id="node2" class="node">
<title>Smfc_b0</title>
<polygon fill="none" stroke="#000000" points="1579.5,-316.9066 1488.5,-316.9066 1488.5,-263.9066 1579.5,-263.9066 1579.5,-316.9066"/>
<text text-anchor="middle" x="1534" y="-301.7066" font-family="Times,serif" font-size="14.00" fill="#000000">Smfc_b0</text>
<text text-anchor="middle" x="1534" y="-286.7066" font-family="Times,serif" font-size="14.00" fill="#000000">~</text>
<text text-anchor="middle" x="1534" y="-271.7066" font-family="Times,serif" font-size="14.00" fill="#000000">Deterministic</text>
</g>
<!-- Smfc_sigma0&#45;&gt;Smfc_b0 -->
<g id="edge2" class="edge">
<title>Smfc_sigma0&#45;&gt;Smfc_b0</title>
<path fill="none" stroke="#000000" d="M1485.6739,-355.6969C1492.9791,-345.8273 1500.9363,-335.0769 1508.2462,-325.2009"/>
<polygon fill="#000000" stroke="#000000" points="1511.0697,-327.2693 1514.2058,-317.1493 1505.4432,-323.1048 1511.0697,-327.2693"/>
</g>
<!-- Smfc_mu -->
<g id="node20" class="node">
<title>Smfc_mu</title>
<polygon fill="none" stroke="#000000" points="887.5,-213.93 796.5,-213.93 796.5,-160.93 887.5,-160.93 887.5,-213.93"/>
<text text-anchor="middle" x="842" y="-198.73" font-family="Times,serif" font-size="14.00" fill="#000000">Smfc_mu</text>
<text text-anchor="middle" x="842" y="-183.73" font-family="Times,serif" font-size="14.00" fill="#000000">~</text>
<text text-anchor="middle" x="842" y="-168.73" font-family="Times,serif" font-size="14.00" fill="#000000">Deterministic</text>
</g>
<!-- Smfc_b0&#45;&gt;Smfc_mu -->
<g id="edge16" class="edge">
<title>Smfc_b0&#45;&gt;Smfc_mu</title>
<path fill="none" stroke="#000000" d="M1488.1842,-283.6351C1404.3882,-271.508 1220.7139,-246.119 1065,-232.9066 1027.537,-229.7279 931.6053,-236.9831 896,-224.9066 891.5084,-223.3832 887.0519,-221.3666 882.7375,-219.0571"/>
<polygon fill="#000000" stroke="#000000" points="884.5065,-216.0371 874.1154,-213.9694 880.9491,-222.0658 884.5065,-216.0371"/>
</g>
<!-- Smfc_b2_dist -->
<g id="node3" class="node">
<title>Smfc_b2_dist</title>
<ellipse fill="none" stroke="#000000" cx="822" cy="-390.3833" rx="65.1077" ry="37.4533"/>
<text text-anchor="middle" x="822" y="-401.6833" font-family="Times,serif" font-size="14.00" fill="#000000">Smfc_b2_dist</text>
<text text-anchor="middle" x="822" y="-386.6833" font-family="Times,serif" font-size="14.00" fill="#000000">~</text>
<text text-anchor="middle" x="822" y="-371.6833" font-family="Times,serif" font-size="14.00" fill="#000000">Gumbel</text>
</g>
<!-- Smfc_b2 -->
<g id="node17" class="node">
<title>Smfc_b2</title>
<polygon fill="none" stroke="#000000" points="727.5,-316.9066 636.5,-316.9066 636.5,-263.9066 727.5,-263.9066 727.5,-316.9066"/>
<text text-anchor="middle" x="682" y="-301.7066" font-family="Times,serif" font-size="14.00" fill="#000000">Smfc_b2</text>
<text text-anchor="middle" x="682" y="-286.7066" font-family="Times,serif" font-size="14.00" fill="#000000">~</text>
<text text-anchor="middle" x="682" y="-271.7066" font-family="Times,serif" font-size="14.00" fill="#000000">Deterministic</text>
</g>
<!-- Smfc_b2_dist&#45;&gt;Smfc_b2 -->
<g id="edge8" class="edge">
<title>Smfc_b2_dist&#45;&gt;Smfc_b2</title>
<path fill="none" stroke="#000000" d="M781.1299,-361.1971C764.3449,-349.2107 744.8403,-335.2821 727.5948,-322.9667"/>
<polygon fill="#000000" stroke="#000000" points="729.5041,-320.0294 719.3321,-317.0662 725.436,-325.726 729.5041,-320.0294"/>
</g>
<!-- Smfc_b1_dist -->
<g id="node4" class="node">
<title>Smfc_b1_dist</title>
<ellipse fill="none" stroke="#000000" cx="375" cy="-390.3833" rx="65.1077" ry="37.4533"/>
<text text-anchor="middle" x="375" y="-401.6833" font-family="Times,serif" font-size="14.00" fill="#000000">Smfc_b1_dist</text>
<text text-anchor="middle" x="375" y="-386.6833" font-family="Times,serif" font-size="14.00" fill="#000000">~</text>
<text text-anchor="middle" x="375" y="-371.6833" font-family="Times,serif" font-size="14.00" fill="#000000">Normal</text>
</g>
<!-- Smfc_b1 -->
<g id="node13" class="node">
<title>Smfc_b1</title>
<polygon fill="none" stroke="#000000" points="282.5,-316.9066 191.5,-316.9066 191.5,-263.9066 282.5,-263.9066 282.5,-316.9066"/>
<text text-anchor="middle" x="237" y="-301.7066" font-family="Times,serif" font-size="14.00" fill="#000000">Smfc_b1</text>
<text text-anchor="middle" x="237" y="-286.7066" font-family="Times,serif" font-size="14.00" fill="#000000">~</text>
<text text-anchor="middle" x="237" y="-271.7066" font-family="Times,serif" font-size="14.00" fill="#000000">Deterministic</text>
</g>
<!-- Smfc_b1_dist&#45;&gt;Smfc_b1 -->
<g id="edge4" class="edge">
<title>Smfc_b1_dist&#45;&gt;Smfc_b1</title>
<path fill="none" stroke="#000000" d="M334.3418,-360.9277C317.8073,-348.949 298.6446,-335.0662 281.717,-322.8027"/>
<polygon fill="#000000" stroke="#000000" points="283.7594,-319.9604 273.6079,-316.9279 279.6526,-325.6291 283.7594,-319.9604"/>
</g>
<!-- Smfc_sigma12 -->
<g id="node5" class="node">
<title>Smfc_sigma12</title>
<ellipse fill="none" stroke="#000000" cx="1141" cy="-390.3833" rx="70.0071" ry="37.4533"/>
<text text-anchor="middle" x="1141" y="-401.6833" font-family="Times,serif" font-size="14.00" fill="#000000">Smfc_sigma12</text>
<text text-anchor="middle" x="1141" y="-386.6833" font-family="Times,serif" font-size="14.00" fill="#000000">~</text>
<text text-anchor="middle" x="1141" y="-371.6833" font-family="Times,serif" font-size="14.00" fill="#000000">HalfNormal</text>
</g>
<!-- Smfc_M12 -->
<g id="node18" class="node">
<title>Smfc_M12</title>
<polygon fill="none" stroke="#000000" points="1038.5,-316.9066 947.5,-316.9066 947.5,-263.9066 1038.5,-263.9066 1038.5,-316.9066"/>
<text text-anchor="middle" x="993" y="-301.7066" font-family="Times,serif" font-size="14.00" fill="#000000">Smfc_M12</text>
<text text-anchor="middle" x="993" y="-286.7066" font-family="Times,serif" font-size="14.00" fill="#000000">~</text>
<text text-anchor="middle" x="993" y="-271.7066" font-family="Times,serif" font-size="14.00" fill="#000000">Deterministic</text>
</g>
<!-- Smfc_sigma12&#45;&gt;Smfc_M12 -->
<g id="edge12" class="edge">
<title>Smfc_sigma12&#45;&gt;Smfc_M12</title>
<path fill="none" stroke="#000000" d="M1097.3956,-360.9277C1079.6629,-348.949 1059.1116,-335.0662 1040.9573,-322.8027"/>
<polygon fill="#000000" stroke="#000000" points="1042.5063,-319.6253 1032.2606,-316.9279 1038.5879,-325.4259 1042.5063,-319.6253"/>
</g>
<!-- Smfc_M12_dist -->
<g id="node6" class="node">
<title>Smfc_M12_dist</title>
<ellipse fill="none" stroke="#000000" cx="1303" cy="-390.3833" rx="74.4932" ry="37.4533"/>
<text text-anchor="middle" x="1303" y="-401.6833" font-family="Times,serif" font-size="14.00" fill="#000000">Smfc_M12_dist</text>
<text text-anchor="middle" x="1303" y="-386.6833" font-family="Times,serif" font-size="14.00" fill="#000000">~</text>
<text text-anchor="middle" x="1303" y="-371.6833" font-family="Times,serif" font-size="14.00" fill="#000000">Normal</text>
</g>
<!-- Smfc_M12_dist&#45;&gt;Smfc_M12 -->
<g id="edge13" class="edge">
<title>Smfc_M12_dist&#45;&gt;Smfc_M12</title>
<path fill="none" stroke="#000000" d="M1249.0299,-364.5597C1239.4641,-360.4021 1229.5177,-356.3421 1220,-352.9066 1162.6881,-332.2198 1095.1557,-314.4336 1048.7364,-303.1838"/>
<polygon fill="#000000" stroke="#000000" points="1049.4126,-299.7467 1038.8717,-300.8144 1047.7777,-306.5531 1049.4126,-299.7467"/>
</g>
<!-- Smfc_b0_dist -->
<g id="node7" class="node">
<title>Smfc_b0_dist</title>
<ellipse fill="none" stroke="#000000" cx="1608" cy="-390.3833" rx="65.1077" ry="37.4533"/>
<text text-anchor="middle" x="1608" y="-401.6833" font-family="Times,serif" font-size="14.00" fill="#000000">Smfc_b0_dist</text>
<text text-anchor="middle" x="1608" y="-386.6833" font-family="Times,serif" font-size="14.00" fill="#000000">~</text>
<text text-anchor="middle" x="1608" y="-371.6833" font-family="Times,serif" font-size="14.00" fill="#000000">Normal</text>
</g>
<!-- Smfc_b0_dist&#45;&gt;Smfc_b0 -->
<g id="edge1" class="edge">
<title>Smfc_b0_dist&#45;&gt;Smfc_b0</title>
<path fill="none" stroke="#000000" d="M1582.3261,-355.6969C1575.0209,-345.8273 1567.0637,-335.0769 1559.7538,-325.2009"/>
<polygon fill="#000000" stroke="#000000" points="1562.5568,-323.1048 1553.7942,-317.1493 1556.9303,-327.2693 1562.5568,-323.1048"/>
</g>
<!-- Smfc_nuY -->
<g id="node8" class="node">
<title>Smfc_nuY</title>
<ellipse fill="none" stroke="#000000" cx="963" cy="-187.43" rx="57.9655" ry="37.4533"/>
<text text-anchor="middle" x="963" y="-198.73" font-family="Times,serif" font-size="14.00" fill="#000000">Smfc_nuY</text>
<text text-anchor="middle" x="963" y="-183.73" font-family="Times,serif" font-size="14.00" fill="#000000">~</text>
<text text-anchor="middle" x="963" y="-168.73" font-family="Times,serif" font-size="14.00" fill="#000000">Exponential</text>
</g>
<!-- Smfc_y -->
<g id="node21" class="node">
<title>Smfc_y</title>
<ellipse fill="#d3d3d3" stroke="#000000" cx="842" cy="-76.4767" rx="46.8387" ry="37.4533"/>
<text text-anchor="middle" x="842" y="-87.7767" font-family="Times,serif" font-size="14.00" fill="#000000">Smfc_y</text>
<text text-anchor="middle" x="842" y="-72.7767" font-family="Times,serif" font-size="14.00" fill="#000000">~</text>
<text text-anchor="middle" x="842" y="-57.7767" font-family="Times,serif" font-size="14.00" fill="#000000">StudentT</text>
</g>
<!-- Smfc_nuY&#45;&gt;Smfc_y -->
<g id="edge19" class="edge">
<title>Smfc_nuY&#45;&gt;Smfc_y</title>
<path fill="none" stroke="#000000" d="M929.2948,-156.5233C914.1511,-142.637 896.2005,-126.1769 880.5269,-111.8046"/>
<polygon fill="#000000" stroke="#000000" points="882.7737,-109.1161 873.0377,-104.9373 878.0427,-114.2755 882.7737,-109.1161"/>
</g>
<!-- Smfc_sigmaY -->
<g id="node9" class="node">
<title>Smfc_sigmaY</title>
<ellipse fill="none" stroke="#000000" cx="1106" cy="-187.43" rx="67.3507" ry="37.4533"/>
<text text-anchor="middle" x="1106" y="-198.73" font-family="Times,serif" font-size="14.00" fill="#000000">Smfc_sigmaY</text>
<text text-anchor="middle" x="1106" y="-183.73" font-family="Times,serif" font-size="14.00" fill="#000000">~</text>
<text text-anchor="middle" x="1106" y="-168.73" font-family="Times,serif" font-size="14.00" fill="#000000">Gamma</text>
</g>
<!-- Smfc_sigmaY&#45;&gt;Smfc_y -->
<g id="edge20" class="edge">
<title>Smfc_sigmaY&#45;&gt;Smfc_y</title>
<path fill="none" stroke="#000000" d="M1056.0025,-162.0221C1047.3892,-157.8619 1038.4802,-153.6931 1030,-149.9533 984.8198,-130.0285 932.4186,-109.7769 894.4336,-95.5949"/>
<polygon fill="#000000" stroke="#000000" points="895.204,-92.1473 884.6112,-91.9428 892.7645,-98.7085 895.204,-92.1473"/>
</g>
<!-- Smfc_mu_b0 -->
<g id="node10" class="node">
<title>Smfc_mu_b0</title>
<ellipse fill="none" stroke="#000000" cx="1755" cy="-390.3833" rx="64.1938" ry="37.4533"/>
<text text-anchor="middle" x="1755" y="-401.6833" font-family="Times,serif" font-size="14.00" fill="#000000">Smfc_mu_b0</text>
<text text-anchor="middle" x="1755" y="-386.6833" font-family="Times,serif" font-size="14.00" fill="#000000">~</text>
<text text-anchor="middle" x="1755" y="-371.6833" font-family="Times,serif" font-size="14.00" fill="#000000">Normal</text>
</g>
<!-- Smfc_mu_b0&#45;&gt;Smfc_b0 -->
<g id="edge3" class="edge">
<title>Smfc_mu_b0&#45;&gt;Smfc_b0</title>
<path fill="none" stroke="#000000" d="M1706.953,-365.0745C1698.6824,-360.9029 1690.1319,-356.7046 1682,-352.9066 1651.708,-338.759 1617.3358,-324.1576 1589.3455,-312.629"/>
<polygon fill="#000000" stroke="#000000" points="1590.3085,-309.2411 1579.7283,-308.6852 1587.6526,-315.7177 1590.3085,-309.2411"/>
</g>
<!-- Smfc_mu_b1 -->
<g id="node11" class="node">
<title>Smfc_mu_b1</title>
<ellipse fill="none" stroke="#000000" cx="228" cy="-390.3833" rx="64.1938" ry="37.4533"/>
<text text-anchor="middle" x="228" y="-401.6833" font-family="Times,serif" font-size="14.00" fill="#000000">Smfc_mu_b1</text>
<text text-anchor="middle" x="228" y="-386.6833" font-family="Times,serif" font-size="14.00" fill="#000000">~</text>
<text text-anchor="middle" x="228" y="-371.6833" font-family="Times,serif" font-size="14.00" fill="#000000">Normal</text>
</g>
<!-- Smfc_mu_b1&#45;&gt;Smfc_b1 -->
<g id="edge5" class="edge">
<title>Smfc_mu_b1&#45;&gt;Smfc_b1</title>
<path fill="none" stroke="#000000" d="M231.3769,-352.8712C232.1274,-344.5341 232.9224,-335.7023 233.671,-327.3867"/>
<polygon fill="#000000" stroke="#000000" points="237.1767,-327.4793 234.5875,-317.2057 230.2049,-326.8516 237.1767,-327.4793"/>
</g>
<!-- Smfc_sigma1 -->
<g id="node12" class="node">
<title>Smfc_sigma1</title>
<ellipse fill="none" stroke="#000000" cx="81" cy="-390.3833" rx="65.1077" ry="37.4533"/>
<text text-anchor="middle" x="81" y="-401.6833" font-family="Times,serif" font-size="14.00" fill="#000000">Smfc_sigma1</text>
<text text-anchor="middle" x="81" y="-386.6833" font-family="Times,serif" font-size="14.00" fill="#000000">~</text>
<text text-anchor="middle" x="81" y="-371.6833" font-family="Times,serif" font-size="14.00" fill="#000000">HalfNormal</text>
</g>
<!-- Smfc_sigma1&#45;&gt;Smfc_b1 -->
<g id="edge6" class="edge">
<title>Smfc_sigma1&#45;&gt;Smfc_b1</title>
<path fill="none" stroke="#000000" d="M124.8698,-362.2682C144.1814,-349.8919 166.9697,-335.2874 186.9417,-322.4878"/>
<polygon fill="#000000" stroke="#000000" points="189.072,-325.2797 195.6028,-316.9371 185.2949,-319.3861 189.072,-325.2797"/>
</g>
<!-- Smfc_b1&#45;&gt;Smfc_mu -->
<g id="edge15" class="edge">
<title>Smfc_b1&#45;&gt;Smfc_mu</title>
<path fill="none" stroke="#000000" d="M282.5921,-275.6737C324.6123,-262.6211 388.919,-243.9678 446,-232.9066 565.8771,-209.6768 708.6328,-196.8647 785.7773,-191.1453"/>
<polygon fill="#000000" stroke="#000000" points="786.4986,-194.6022 796.218,-190.385 785.9902,-187.6206 786.4986,-194.6022"/>
</g>
<!-- Smfc_sigma2 -->
<g id="node14" class="node">
<title>Smfc_sigma2</title>
<ellipse fill="none" stroke="#000000" cx="672" cy="-501.3366" rx="65.1077" ry="37.4533"/>
<text text-anchor="middle" x="672" y="-512.6366" font-family="Times,serif" font-size="14.00" fill="#000000">Smfc_sigma2</text>
<text text-anchor="middle" x="672" y="-497.6366" font-family="Times,serif" font-size="14.00" fill="#000000">~</text>
<text text-anchor="middle" x="672" y="-482.6366" font-family="Times,serif" font-size="14.00" fill="#000000">HalfNormal</text>
</g>
<!-- Smfc_b2_beta -->
<g id="node16" class="node">
<title>Smfc_b2_beta</title>
<ellipse fill="none" stroke="#000000" cx="672" cy="-390.3833" rx="67.3507" ry="37.4533"/>
<text text-anchor="middle" x="672" y="-401.6833" font-family="Times,serif" font-size="14.00" fill="#000000">Smfc_b2_beta</text>
<text text-anchor="middle" x="672" y="-386.6833" font-family="Times,serif" font-size="14.00" fill="#000000">~</text>
<text text-anchor="middle" x="672" y="-371.6833" font-family="Times,serif" font-size="14.00" fill="#000000">HalfNormal</text>
</g>
<!-- Smfc_sigma2&#45;&gt;Smfc_b2_beta -->
<g id="edge7" class="edge">
<title>Smfc_sigma2&#45;&gt;Smfc_b2_beta</title>
<path fill="none" stroke="#000000" d="M672,-463.7729C672,-455.549 672,-446.7367 672,-438.1736"/>
<polygon fill="#000000" stroke="#000000" points="675.5001,-437.9083 672,-427.9083 668.5001,-437.9084 675.5001,-437.9083"/>
</g>
<!-- Smfc_mu_b2 -->
<g id="node15" class="node">
<title>Smfc_mu_b2</title>
<ellipse fill="none" stroke="#000000" cx="522" cy="-390.3833" rx="64.1938" ry="37.4533"/>
<text text-anchor="middle" x="522" y="-401.6833" font-family="Times,serif" font-size="14.00" fill="#000000">Smfc_mu_b2</text>
<text text-anchor="middle" x="522" y="-386.6833" font-family="Times,serif" font-size="14.00" fill="#000000">~</text>
<text text-anchor="middle" x="522" y="-371.6833" font-family="Times,serif" font-size="14.00" fill="#000000">Normal</text>
</g>
<!-- Smfc_mu_b2&#45;&gt;Smfc_b2 -->
<g id="edge9" class="edge">
<title>Smfc_mu_b2&#45;&gt;Smfc_b2</title>
<path fill="none" stroke="#000000" d="M566.1442,-362.7996C586.1354,-350.308 609.893,-335.463 630.6751,-322.4772"/>
<polygon fill="#000000" stroke="#000000" points="632.754,-325.3053 639.3799,-317.038 629.0446,-319.3689 632.754,-325.3053"/>
</g>
<!-- Smfc_b2_beta&#45;&gt;Smfc_b2 -->
<g id="edge10" class="edge">
<title>Smfc_b2_beta&#45;&gt;Smfc_b2</title>
<path fill="none" stroke="#000000" d="M675.7521,-352.8712C676.586,-344.5341 677.4694,-335.7023 678.3011,-327.3867"/>
<polygon fill="#000000" stroke="#000000" points="681.8067,-327.5045 679.3195,-317.2057 674.8415,-326.8077 681.8067,-327.5045"/>
</g>
<!-- Smfc_b2&#45;&gt;Smfc_mu -->
<g id="edge17" class="edge">
<title>Smfc_b2&#45;&gt;Smfc_mu</title>
<path fill="none" stroke="#000000" d="M723.204,-263.8876C744.2114,-250.3671 769.9281,-233.8157 792.0553,-219.5746"/>
<polygon fill="#000000" stroke="#000000" points="794.1432,-222.3931 800.6579,-214.0379 790.3547,-216.5069 794.1432,-222.3931"/>
</g>
<!-- Smfc_M12&#45;&gt;Smfc_mu -->
<g id="edge14" class="edge">
<title>Smfc_M12&#45;&gt;Smfc_mu</title>
<path fill="none" stroke="#000000" d="M953.2794,-263.7514C935.6932,-251.9071 914.7794,-237.7629 896,-224.9066 893.6165,-223.2749 891.1764,-221.5994 888.7142,-219.9049"/>
<polygon fill="#000000" stroke="#000000" points="890.5266,-216.9031 880.3078,-214.1055 886.5516,-222.6651 890.5266,-216.9031"/>
</g>
<!-- Smfc_mu_M12 -->
<g id="node19" class="node">
<title>Smfc_mu_M12</title>
<ellipse fill="none" stroke="#000000" cx="979" cy="-390.3833" rx="73.5782" ry="37.4533"/>
<text text-anchor="middle" x="979" y="-401.6833" font-family="Times,serif" font-size="14.00" fill="#000000">Smfc_mu_M12</text>
<text text-anchor="middle" x="979" y="-386.6833" font-family="Times,serif" font-size="14.00" fill="#000000">~</text>
<text text-anchor="middle" x="979" y="-371.6833" font-family="Times,serif" font-size="14.00" fill="#000000">Normal</text>
</g>
<!-- Smfc_mu_M12&#45;&gt;Smfc_M12 -->
<g id="edge11" class="edge">
<title>Smfc_mu_M12&#45;&gt;Smfc_M12</title>
<path fill="none" stroke="#000000" d="M984.2529,-352.8712C985.4334,-344.4415 986.6846,-335.506 987.8604,-327.1097"/>
<polygon fill="#000000" stroke="#000000" points="991.3265,-327.5945 989.2473,-317.2057 984.3942,-326.6237 991.3265,-327.5945"/>
</g>
<!-- Smfc_mu&#45;&gt;Smfc_y -->
<g id="edge18" class="edge">
<title>Smfc_mu&#45;&gt;Smfc_y</title>
<path fill="none" stroke="#000000" d="M842,-160.8539C842,-149.9351 842,-136.944 842,-124.4675"/>
<polygon fill="#000000" stroke="#000000" points="845.5001,-124.1649 842,-114.165 838.5001,-124.165 845.5001,-124.1649"/>
</g>
</g>
</svg>
