<?xml version="1.0" encoding="UTF-8" standalone="no"?>
<!DOCTYPE svg PUBLIC "-//W3C//DTD SVG 1.1//EN"
 "http://www.w3.org/Graphics/SVG/1.1/DTD/svg11.dtd">
<!-- Generated by graphviz version 2.40.1 (20161225.0304)
 -->
<!-- Title: HAsfc9 Pages: 1 -->
<svg width="2048pt" height="563pt"
 viewBox="0.00 0.00 2048.25 562.81" xmlns="http://www.w3.org/2000/svg" xmlns:xlink="http://www.w3.org/1999/xlink">
<g id="graph0" class="graph" transform="scale(1 1) rotate(0) translate(4 558.8133)">
<title>HAsfc9</title>
<polygon fill="#ffffff" stroke="transparent" points="-4,4 -4,-558.8133 2044.2462,-558.8133 2044.2462,4 -4,4"/>
<g id="clust1" class="cluster">
<title>cluster2</title>
<path fill="none" stroke="#000000" d="M20,-232.9066C20,-232.9066 326,-232.9066 326,-232.9066 332,-232.9066 338,-238.9066 338,-244.9066 338,-244.9066 338,-423.86 338,-423.86 338,-429.86 332,-435.86 326,-435.86 326,-435.86 20,-435.86 20,-435.86 14,-435.86 8,-429.86 8,-423.86 8,-423.86 8,-244.9066 8,-244.9066 8,-238.9066 14,-232.9066 20,-232.9066"/>
<text text-anchor="middle" x="326.5" y="-240.7066" font-family="Times,serif" font-size="14.00" fill="#000000">2</text>
</g>
<g id="clust2" class="cluster">
<title>cluster11</title>
<path fill="none" stroke="#000000" d="M518,-232.9066C518,-232.9066 828,-232.9066 828,-232.9066 834,-232.9066 840,-238.9066 840,-244.9066 840,-244.9066 840,-534.8133 840,-534.8133 840,-540.8133 834,-546.8133 828,-546.8133 828,-546.8133 518,-546.8133 518,-546.8133 512,-546.8133 506,-540.8133 506,-534.8133 506,-534.8133 506,-244.9066 506,-244.9066 506,-238.9066 512,-232.9066 518,-232.9066"/>
<text text-anchor="middle" x="825" y="-240.7066" font-family="Times,serif" font-size="14.00" fill="#000000">11</text>
</g>
<g id="clust3" class="cluster">
<title>cluster2 x 11</title>
<path fill="none" stroke="#000000" d="M1021,-232.9066C1021,-232.9066 1177,-232.9066 1177,-232.9066 1183,-232.9066 1189,-238.9066 1189,-244.9066 1189,-244.9066 1189,-423.86 1189,-423.86 1189,-429.86 1183,-435.86 1177,-435.86 1177,-435.86 1021,-435.86 1021,-435.86 1015,-435.86 1009,-429.86 1009,-423.86 1009,-423.86 1009,-244.9066 1009,-244.9066 1009,-238.9066 1015,-232.9066 1021,-232.9066"/>
<text text-anchor="middle" x="1163.5" y="-240.7066" font-family="Times,serif" font-size="14.00" fill="#000000">2 x 11</text>
</g>
<g id="clust4" class="cluster">
<title>cluster230</title>
<path fill="none" stroke="#000000" d="M904,-8C904,-8 998,-8 998,-8 1004,-8 1010,-14 1010,-20 1010,-20 1010,-209.93 1010,-209.93 1010,-215.93 1004,-221.93 998,-221.93 998,-221.93 904,-221.93 904,-221.93 898,-221.93 892,-215.93 892,-209.93 892,-209.93 892,-20 892,-20 892,-14 898,-8 904,-8"/>
<text text-anchor="middle" x="991.5" y="-15.8" font-family="Times,serif" font-size="14.00" fill="#000000">230</text>
</g>
<!-- HAsfc9_b0_dist -->
<g id="node1" class="node">
<title>HAsfc9_b0_dist</title>
<ellipse fill="none" stroke="#000000" cx="1634" cy="-390.3833" rx="74.4932" ry="37.4533"/>
<text text-anchor="middle" x="1634" y="-401.6833" font-family="Times,serif" font-size="14.00" fill="#000000">HAsfc9_b0_dist</text>
<text text-anchor="middle" x="1634" y="-386.6833" font-family="Times,serif" font-size="14.00" fill="#000000">~</text>
<text text-anchor="middle" x="1634" y="-371.6833" font-family="Times,serif" font-size="14.00" fill="#000000">Normal</text>
</g>
<!-- HAsfc9_b0 -->
<g id="node9" class="node">
<title>HAsfc9_b0</title>
<polygon fill="none" stroke="#000000" points="1762.5,-316.9066 1671.5,-316.9066 1671.5,-263.9066 1762.5,-263.9066 1762.5,-316.9066"/>
<text text-anchor="middle" x="1717" y="-301.7066" font-family="Times,serif" font-size="14.00" fill="#000000">HAsfc9_b0</text>
<text text-anchor="middle" x="1717" y="-286.7066" font-family="Times,serif" font-size="14.00" fill="#000000">~</text>
<text text-anchor="middle" x="1717" y="-271.7066" font-family="Times,serif" font-size="14.00" fill="#000000">Deterministic</text>
</g>
<!-- HAsfc9_b0_dist&#45;&gt;HAsfc9_b0 -->
<g id="edge1" class="edge">
<title>HAsfc9_b0_dist&#45;&gt;HAsfc9_b0</title>
<path fill="none" stroke="#000000" d="M1662.7964,-355.6969C1671.0721,-345.7286 1680.0936,-334.8618 1688.3597,-324.9049"/>
<polygon fill="#000000" stroke="#000000" points="1691.1038,-327.079 1694.7984,-317.1493 1685.7179,-322.6077 1691.1038,-327.079"/>
</g>
<!-- HAsfc9_mu_b0 -->
<g id="node2" class="node">
<title>HAsfc9_mu_b0</title>
<ellipse fill="none" stroke="#000000" cx="1800" cy="-390.3833" rx="73.5782" ry="37.4533"/>
<text text-anchor="middle" x="1800" y="-401.6833" font-family="Times,serif" font-size="14.00" fill="#000000">HAsfc9_mu_b0</text>
<text text-anchor="middle" x="1800" y="-386.6833" font-family="Times,serif" font-size="14.00" fill="#000000">~</text>
<text text-anchor="middle" x="1800" y="-371.6833" font-family="Times,serif" font-size="14.00" fill="#000000">Normal</text>
</g>
<!-- HAsfc9_mu_b0&#45;&gt;HAsfc9_b0 -->
<g id="edge2" class="edge">
<title>HAsfc9_mu_b0&#45;&gt;HAsfc9_b0</title>
<path fill="none" stroke="#000000" d="M1771.2036,-355.6969C1762.9279,-345.7286 1753.9064,-334.8618 1745.6403,-324.9049"/>
<polygon fill="#000000" stroke="#000000" points="1748.2821,-322.6077 1739.2016,-317.1493 1742.8962,-327.079 1748.2821,-322.6077"/>
</g>
<!-- HAsfc9_b2_dist -->
<g id="node3" class="node">
<title>HAsfc9_b2_dist</title>
<ellipse fill="none" stroke="#000000" cx="925" cy="-390.3833" rx="74.4932" ry="37.4533"/>
<text text-anchor="middle" x="925" y="-401.6833" font-family="Times,serif" font-size="14.00" fill="#000000">HAsfc9_b2_dist</text>
<text text-anchor="middle" x="925" y="-386.6833" font-family="Times,serif" font-size="14.00" fill="#000000">~</text>
<text text-anchor="middle" x="925" y="-371.6833" font-family="Times,serif" font-size="14.00" fill="#000000">Gumbel</text>
</g>
<!-- HAsfc9_b2 -->
<g id="node17" class="node">
<title>HAsfc9_b2</title>
<polygon fill="none" stroke="#000000" points="816.5,-316.9066 725.5,-316.9066 725.5,-263.9066 816.5,-263.9066 816.5,-316.9066"/>
<text text-anchor="middle" x="771" y="-301.7066" font-family="Times,serif" font-size="14.00" fill="#000000">HAsfc9_b2</text>
<text text-anchor="middle" x="771" y="-286.7066" font-family="Times,serif" font-size="14.00" fill="#000000">~</text>
<text text-anchor="middle" x="771" y="-271.7066" font-family="Times,serif" font-size="14.00" fill="#000000">Deterministic</text>
</g>
<!-- HAsfc9_b2_dist&#45;&gt;HAsfc9_b2 -->
<g id="edge8" class="edge">
<title>HAsfc9_b2_dist&#45;&gt;HAsfc9_b2</title>
<path fill="none" stroke="#000000" d="M879.2119,-360.6577C860.6822,-348.6282 839.2497,-334.7143 820.3716,-322.4586"/>
<polygon fill="#000000" stroke="#000000" points="822.1905,-319.4666 811.8972,-316.9571 818.3789,-325.3379 822.1905,-319.4666"/>
</g>
<!-- HAsfc9_nuY -->
<g id="node4" class="node">
<title>HAsfc9_nuY</title>
<ellipse fill="none" stroke="#000000" cx="1081" cy="-187.43" rx="62.8651" ry="37.4533"/>
<text text-anchor="middle" x="1081" y="-198.73" font-family="Times,serif" font-size="14.00" fill="#000000">HAsfc9_nuY</text>
<text text-anchor="middle" x="1081" y="-183.73" font-family="Times,serif" font-size="14.00" fill="#000000">~</text>
<text text-anchor="middle" x="1081" y="-168.73" font-family="Times,serif" font-size="14.00" fill="#000000">Exponential</text>
</g>
<!-- HAsfc9_y -->
<g id="node21" class="node">
<title>HAsfc9_y</title>
<ellipse fill="#d3d3d3" stroke="#000000" cx="951" cy="-76.4767" rx="50.8235" ry="37.4533"/>
<text text-anchor="middle" x="951" y="-87.7767" font-family="Times,serif" font-size="14.00" fill="#000000">HAsfc9_y</text>
<text text-anchor="middle" x="951" y="-72.7767" font-family="Times,serif" font-size="14.00" fill="#000000">~</text>
<text text-anchor="middle" x="951" y="-57.7767" font-family="Times,serif" font-size="14.00" fill="#000000">StudentT</text>
</g>
<!-- HAsfc9_nuY&#45;&gt;HAsfc9_y -->
<g id="edge18" class="edge">
<title>HAsfc9_nuY&#45;&gt;HAsfc9_y</title>
<path fill="none" stroke="#000000" d="M1044.7878,-156.5233C1028.5177,-142.637 1009.232,-126.1769 992.3925,-111.8046"/>
<polygon fill="#000000" stroke="#000000" points="994.2248,-108.767 984.3463,-104.9373 989.6805,-114.0914 994.2248,-108.767"/>
</g>
<!-- HAsfc9_b1_dist -->
<g id="node5" class="node">
<title>HAsfc9_b1_dist</title>
<ellipse fill="none" stroke="#000000" cx="422" cy="-390.3833" rx="74.4932" ry="37.4533"/>
<text text-anchor="middle" x="422" y="-401.6833" font-family="Times,serif" font-size="14.00" fill="#000000">HAsfc9_b1_dist</text>
<text text-anchor="middle" x="422" y="-386.6833" font-family="Times,serif" font-size="14.00" fill="#000000">~</text>
<text text-anchor="middle" x="422" y="-371.6833" font-family="Times,serif" font-size="14.00" fill="#000000">Normal</text>
</g>
<!-- HAsfc9_b1 -->
<g id="node12" class="node">
<title>HAsfc9_b1</title>
<polygon fill="none" stroke="#000000" points="315.5,-316.9066 224.5,-316.9066 224.5,-263.9066 315.5,-263.9066 315.5,-316.9066"/>
<text text-anchor="middle" x="270" y="-301.7066" font-family="Times,serif" font-size="14.00" fill="#000000">HAsfc9_b1</text>
<text text-anchor="middle" x="270" y="-286.7066" font-family="Times,serif" font-size="14.00" fill="#000000">~</text>
<text text-anchor="middle" x="270" y="-271.7066" font-family="Times,serif" font-size="14.00" fill="#000000">Deterministic</text>
</g>
<!-- HAsfc9_b1_dist&#45;&gt;HAsfc9_b1 -->
<g id="edge6" class="edge">
<title>HAsfc9_b1_dist&#45;&gt;HAsfc9_b1</title>
<path fill="none" stroke="#000000" d="M376.395,-360.387C358.2772,-348.4702 337.4002,-334.7385 318.9639,-322.6122"/>
<polygon fill="#000000" stroke="#000000" points="320.687,-319.5564 310.4089,-316.9852 316.8403,-325.4047 320.687,-319.5564"/>
</g>
<!-- HAsfc9_sigma0 -->
<g id="node6" class="node">
<title>HAsfc9_sigma0</title>
<ellipse fill="none" stroke="#000000" cx="1966" cy="-390.3833" rx="74.4932" ry="37.4533"/>
<text text-anchor="middle" x="1966" y="-401.6833" font-family="Times,serif" font-size="14.00" fill="#000000">HAsfc9_sigma0</text>
<text text-anchor="middle" x="1966" y="-386.6833" font-family="Times,serif" font-size="14.00" fill="#000000">~</text>
<text text-anchor="middle" x="1966" y="-371.6833" font-family="Times,serif" font-size="14.00" fill="#000000">HalfNormal</text>
</g>
<!-- HAsfc9_sigma0&#45;&gt;HAsfc9_b0 -->
<g id="edge3" class="edge">
<title>HAsfc9_sigma0&#45;&gt;HAsfc9_b0</title>
<path fill="none" stroke="#000000" d="M1910.8534,-364.89C1901.5978,-360.7822 1892.0586,-356.6525 1883,-352.9066 1846.5079,-337.8165 1804.9226,-322.1618 1772.5031,-310.2946"/>
<polygon fill="#000000" stroke="#000000" points="1773.3459,-306.8765 1762.7519,-306.7381 1770.9473,-313.4527 1773.3459,-306.8765"/>
</g>
<!-- HAsfc9_sigmaY -->
<g id="node7" class="node">
<title>HAsfc9_sigmaY</title>
<ellipse fill="none" stroke="#000000" cx="1238" cy="-187.43" rx="76.2353" ry="37.4533"/>
<text text-anchor="middle" x="1238" y="-198.73" font-family="Times,serif" font-size="14.00" fill="#000000">HAsfc9_sigmaY</text>
<text text-anchor="middle" x="1238" y="-183.73" font-family="Times,serif" font-size="14.00" fill="#000000">~</text>
<text text-anchor="middle" x="1238" y="-168.73" font-family="Times,serif" font-size="14.00" fill="#000000">Gamma</text>
</g>
<!-- HAsfc9_sigmaY&#45;&gt;HAsfc9_y -->
<g id="edge19" class="edge">
<title>HAsfc9_sigmaY&#45;&gt;HAsfc9_y</title>
<path fill="none" stroke="#000000" d="M1181.5268,-161.906C1172.0479,-157.8018 1162.2782,-153.6814 1153,-149.9533 1104.1134,-130.3102 1047.7111,-109.9858 1006.9513,-95.7058"/>
<polygon fill="#000000" stroke="#000000" points="1008.0567,-92.3846 997.4618,-92.3913 1005.7484,-98.9931 1008.0567,-92.3846"/>
</g>
<!-- HAsfc9_M12_dist -->
<g id="node8" class="node">
<title>HAsfc9_M12_dist</title>
<ellipse fill="none" stroke="#000000" cx="1282" cy="-390.3833" rx="83.3772" ry="37.4533"/>
<text text-anchor="middle" x="1282" y="-401.6833" font-family="Times,serif" font-size="14.00" fill="#000000">HAsfc9_M12_dist</text>
<text text-anchor="middle" x="1282" y="-386.6833" font-family="Times,serif" font-size="14.00" fill="#000000">~</text>
<text text-anchor="middle" x="1282" y="-371.6833" font-family="Times,serif" font-size="14.00" fill="#000000">Normal</text>
</g>
<!-- HAsfc9_M12 -->
<g id="node19" class="node">
<title>HAsfc9_M12</title>
<polygon fill="none" stroke="#000000" points="1163,-316.9066 1071,-316.9066 1071,-263.9066 1163,-263.9066 1163,-316.9066"/>
<text text-anchor="middle" x="1117" y="-301.7066" font-family="Times,serif" font-size="14.00" fill="#000000">HAsfc9_M12</text>
<text text-anchor="middle" x="1117" y="-286.7066" font-family="Times,serif" font-size="14.00" fill="#000000">~</text>
<text text-anchor="middle" x="1117" y="-271.7066" font-family="Times,serif" font-size="14.00" fill="#000000">Deterministic</text>
</g>
<!-- HAsfc9_M12_dist&#45;&gt;HAsfc9_M12 -->
<g id="edge11" class="edge">
<title>HAsfc9_M12_dist&#45;&gt;HAsfc9_M12</title>
<path fill="none" stroke="#000000" d="M1232.0468,-360.1157C1212.2996,-348.1505 1189.5896,-334.3901 1169.5913,-322.2727"/>
<polygon fill="#000000" stroke="#000000" points="1171.276,-319.2012 1160.9097,-317.0124 1167.6485,-325.1879 1171.276,-319.2012"/>
</g>
<!-- HAsfc9_mu -->
<g id="node20" class="node">
<title>HAsfc9_mu</title>
<polygon fill="none" stroke="#000000" points="996.5,-213.93 905.5,-213.93 905.5,-160.93 996.5,-160.93 996.5,-213.93"/>
<text text-anchor="middle" x="951" y="-198.73" font-family="Times,serif" font-size="14.00" fill="#000000">HAsfc9_mu</text>
<text text-anchor="middle" x="951" y="-183.73" font-family="Times,serif" font-size="14.00" fill="#000000">~</text>
<text text-anchor="middle" x="951" y="-168.73" font-family="Times,serif" font-size="14.00" fill="#000000">Deterministic</text>
</g>
<!-- HAsfc9_b0&#45;&gt;HAsfc9_mu -->
<g id="edge14" class="edge">
<title>HAsfc9_b0&#45;&gt;HAsfc9_mu</title>
<path fill="none" stroke="#000000" d="M1671.1844,-284.3516C1580.2109,-272.5565 1370.2561,-246.4706 1193,-232.9066 1152.1918,-229.7839 1047.9946,-237.3357 1009,-224.9066 1004.1276,-223.3536 999.2687,-221.2777 994.5539,-218.8961"/>
<polygon fill="#000000" stroke="#000000" points="996.1437,-215.7758 985.6993,-213.9968 992.7547,-221.9007 996.1437,-215.7758"/>
</g>
<!-- HAsfc9_sigma12 -->
<g id="node10" class="node">
<title>HAsfc9_sigma12</title>
<ellipse fill="none" stroke="#000000" cx="1463" cy="-390.3833" rx="79.3924" ry="37.4533"/>
<text text-anchor="middle" x="1463" y="-401.6833" font-family="Times,serif" font-size="14.00" fill="#000000">HAsfc9_sigma12</text>
<text text-anchor="middle" x="1463" y="-386.6833" font-family="Times,serif" font-size="14.00" fill="#000000">~</text>
<text text-anchor="middle" x="1463" y="-371.6833" font-family="Times,serif" font-size="14.00" fill="#000000">HalfNormal</text>
</g>
<!-- HAsfc9_sigma12&#45;&gt;HAsfc9_M12 -->
<g id="edge13" class="edge">
<title>HAsfc9_sigma12&#45;&gt;HAsfc9_M12</title>
<path fill="none" stroke="#000000" d="M1405.1019,-364.4333C1394.8475,-360.2897 1384.19,-356.2672 1374,-352.9066 1305.9932,-330.4789 1225.471,-312.1826 1172.9186,-301.307"/>
<polygon fill="#000000" stroke="#000000" points="1173.6164,-297.8773 1163.1172,-299.2975 1172.2105,-304.7347 1173.6164,-297.8773"/>
</g>
<!-- HAsfc9_sigma1 -->
<g id="node11" class="node">
<title>HAsfc9_sigma1</title>
<ellipse fill="none" stroke="#000000" cx="256" cy="-390.3833" rx="74.4932" ry="37.4533"/>
<text text-anchor="middle" x="256" y="-401.6833" font-family="Times,serif" font-size="14.00" fill="#000000">HAsfc9_sigma1</text>
<text text-anchor="middle" x="256" y="-386.6833" font-family="Times,serif" font-size="14.00" fill="#000000">~</text>
<text text-anchor="middle" x="256" y="-371.6833" font-family="Times,serif" font-size="14.00" fill="#000000">HalfNormal</text>
</g>
<!-- HAsfc9_sigma1&#45;&gt;HAsfc9_b1 -->
<g id="edge4" class="edge">
<title>HAsfc9_sigma1&#45;&gt;HAsfc9_b1</title>
<path fill="none" stroke="#000000" d="M261.2529,-352.8712C262.4334,-344.4415 263.6846,-335.506 264.8604,-327.1097"/>
<polygon fill="#000000" stroke="#000000" points="268.3265,-327.5945 266.2473,-317.2057 261.3942,-326.6237 268.3265,-327.5945"/>
</g>
<!-- HAsfc9_b1&#45;&gt;HAsfc9_mu -->
<g id="edge15" class="edge">
<title>HAsfc9_b1&#45;&gt;HAsfc9_mu</title>
<path fill="none" stroke="#000000" d="M315.8092,-277.0058C362.3136,-263.8876 436.5848,-244.2666 502,-232.9066 642.4271,-208.5201 810.0014,-195.8282 895.2333,-190.5246"/>
<polygon fill="#000000" stroke="#000000" points="895.6928,-194.0031 905.4605,-189.8992 895.2655,-187.0162 895.6928,-194.0031"/>
</g>
<!-- HAsfc9_mu_b1 -->
<g id="node13" class="node">
<title>HAsfc9_mu_b1</title>
<ellipse fill="none" stroke="#000000" cx="90" cy="-390.3833" rx="73.5782" ry="37.4533"/>
<text text-anchor="middle" x="90" y="-401.6833" font-family="Times,serif" font-size="14.00" fill="#000000">HAsfc9_mu_b1</text>
<text text-anchor="middle" x="90" y="-386.6833" font-family="Times,serif" font-size="14.00" fill="#000000">~</text>
<text text-anchor="middle" x="90" y="-371.6833" font-family="Times,serif" font-size="14.00" fill="#000000">Normal</text>
</g>
<!-- HAsfc9_mu_b1&#45;&gt;HAsfc9_b1 -->
<g id="edge5" class="edge">
<title>HAsfc9_mu_b1&#45;&gt;HAsfc9_b1</title>
<path fill="none" stroke="#000000" d="M140.14,-362.5342C163.5691,-349.5211 191.5145,-333.9995 215.469,-320.6946"/>
<polygon fill="#000000" stroke="#000000" points="217.394,-323.629 224.4366,-315.7137 213.9951,-317.5096 217.394,-323.629"/>
</g>
<!-- HAsfc9_sigma2 -->
<g id="node14" class="node">
<title>HAsfc9_sigma2</title>
<ellipse fill="none" stroke="#000000" cx="756" cy="-501.3366" rx="74.4932" ry="37.4533"/>
<text text-anchor="middle" x="756" y="-512.6366" font-family="Times,serif" font-size="14.00" fill="#000000">HAsfc9_sigma2</text>
<text text-anchor="middle" x="756" y="-497.6366" font-family="Times,serif" font-size="14.00" fill="#000000">~</text>
<text text-anchor="middle" x="756" y="-482.6366" font-family="Times,serif" font-size="14.00" fill="#000000">HalfNormal</text>
</g>
<!-- HAsfc9_b2_beta -->
<g id="node16" class="node">
<title>HAsfc9_b2_beta</title>
<ellipse fill="none" stroke="#000000" cx="756" cy="-390.3833" rx="76.2353" ry="37.4533"/>
<text text-anchor="middle" x="756" y="-401.6833" font-family="Times,serif" font-size="14.00" fill="#000000">HAsfc9_b2_beta</text>
<text text-anchor="middle" x="756" y="-386.6833" font-family="Times,serif" font-size="14.00" fill="#000000">~</text>
<text text-anchor="middle" x="756" y="-371.6833" font-family="Times,serif" font-size="14.00" fill="#000000">HalfNormal</text>
</g>
<!-- HAsfc9_sigma2&#45;&gt;HAsfc9_b2_beta -->
<g id="edge7" class="edge">
<title>HAsfc9_sigma2&#45;&gt;HAsfc9_b2_beta</title>
<path fill="none" stroke="#000000" d="M756,-463.7729C756,-455.549 756,-446.7367 756,-438.1736"/>
<polygon fill="#000000" stroke="#000000" points="759.5001,-437.9083 756,-427.9083 752.5001,-437.9084 759.5001,-437.9083"/>
</g>
<!-- HAsfc9_mu_b2 -->
<g id="node15" class="node">
<title>HAsfc9_mu_b2</title>
<ellipse fill="none" stroke="#000000" cx="588" cy="-390.3833" rx="73.5782" ry="37.4533"/>
<text text-anchor="middle" x="588" y="-401.6833" font-family="Times,serif" font-size="14.00" fill="#000000">HAsfc9_mu_b2</text>
<text text-anchor="middle" x="588" y="-386.6833" font-family="Times,serif" font-size="14.00" fill="#000000">~</text>
<text text-anchor="middle" x="588" y="-371.6833" font-family="Times,serif" font-size="14.00" fill="#000000">Normal</text>
</g>
<!-- HAsfc9_mu_b2&#45;&gt;HAsfc9_b2 -->
<g id="edge10" class="edge">
<title>HAsfc9_mu_b2&#45;&gt;HAsfc9_b2</title>
<path fill="none" stroke="#000000" d="M638.49,-362.7996C662.7054,-349.5702 691.7526,-333.7011 716.4718,-320.1965"/>
<polygon fill="#000000" stroke="#000000" points="718.2684,-323.2033 725.3661,-315.3374 714.9123,-317.0603 718.2684,-323.2033"/>
</g>
<!-- HAsfc9_b2_beta&#45;&gt;HAsfc9_b2 -->
<g id="edge9" class="edge">
<title>HAsfc9_b2_beta&#45;&gt;HAsfc9_b2</title>
<path fill="none" stroke="#000000" d="M761.6281,-352.8712C762.8929,-344.4415 764.2335,-335.506 765.4933,-327.1097"/>
<polygon fill="#000000" stroke="#000000" points="768.9566,-327.6144 766.9792,-317.2057 762.0341,-326.5757 768.9566,-327.6144"/>
</g>
<!-- HAsfc9_b2&#45;&gt;HAsfc9_mu -->
<g id="edge16" class="edge">
<title>HAsfc9_b2&#45;&gt;HAsfc9_mu</title>
<path fill="none" stroke="#000000" d="M816.8873,-264.1548C841.1125,-250.2958 871.0026,-233.1959 896.4122,-218.6592"/>
<polygon fill="#000000" stroke="#000000" points="898.2545,-221.6376 905.1965,-213.6338 894.7785,-215.5616 898.2545,-221.6376"/>
</g>
<!-- HAsfc9_mu_M12 -->
<g id="node18" class="node">
<title>HAsfc9_mu_M12</title>
<ellipse fill="none" stroke="#000000" cx="1099" cy="-390.3833" rx="82.0488" ry="37.4533"/>
<text text-anchor="middle" x="1099" y="-401.6833" font-family="Times,serif" font-size="14.00" fill="#000000">HAsfc9_mu_M12</text>
<text text-anchor="middle" x="1099" y="-386.6833" font-family="Times,serif" font-size="14.00" fill="#000000">~</text>
<text text-anchor="middle" x="1099" y="-371.6833" font-family="Times,serif" font-size="14.00" fill="#000000">Normal</text>
</g>
<!-- HAsfc9_mu_M12&#45;&gt;HAsfc9_M12 -->
<g id="edge12" class="edge">
<title>HAsfc9_mu_M12&#45;&gt;HAsfc9_M12</title>
<path fill="none" stroke="#000000" d="M1105.7537,-352.8712C1107.2715,-344.4415 1108.8802,-335.506 1110.3919,-327.1097"/>
<polygon fill="#000000" stroke="#000000" points="1113.8476,-327.6677 1112.175,-317.2057 1106.9584,-326.4273 1113.8476,-327.6677"/>
</g>
<!-- HAsfc9_M12&#45;&gt;HAsfc9_mu -->
<g id="edge17" class="edge">
<title>HAsfc9_M12&#45;&gt;HAsfc9_mu</title>
<path fill="none" stroke="#000000" d="M1072.4244,-263.7617C1052.8826,-251.9805 1029.7235,-237.8824 1009,-224.9066 1006.2057,-223.157 1003.3424,-221.3508 1000.4573,-219.5204"/>
<polygon fill="#000000" stroke="#000000" points="1002.0966,-216.4147 991.7832,-213.9889 998.3328,-222.3168 1002.0966,-216.4147"/>
</g>
<!-- HAsfc9_mu&#45;&gt;HAsfc9_y -->
<g id="edge20" class="edge">
<title>HAsfc9_mu&#45;&gt;HAsfc9_y</title>
<path fill="none" stroke="#000000" d="M951,-160.8539C951,-149.9351 951,-136.944 951,-124.4675"/>
<polygon fill="#000000" stroke="#000000" points="954.5001,-124.1649 951,-114.165 947.5001,-124.165 954.5001,-124.1649"/>
</g>
</g>
</svg>
