<?xml version="1.0" encoding="UTF-8" standalone="no"?>
<!DOCTYPE svg PUBLIC "-//W3C//DTD SVG 1.1//EN"
 "http://www.w3.org/Graphics/SVG/1.1/DTD/svg11.dtd">
<!-- Generated by graphviz version 2.40.1 (20161225.0304)
 -->
<!-- Title: Asfc Pages: 1 -->
<svg width="1752pt" height="563pt"
 viewBox="0.00 0.00 1752.35 562.81" xmlns="http://www.w3.org/2000/svg" xmlns:xlink="http://www.w3.org/1999/xlink">
<g id="graph0" class="graph" transform="scale(1 1) rotate(0) translate(4 558.8133)">
<title>Asfc</title>
<polygon fill="#ffffff" stroke="transparent" points="-4,4 -4,-558.8133 1748.3503,-558.8133 1748.3503,4 -4,4"/>
<g id="clust1" class="cluster">
<title>cluster2</title>
<path fill="none" stroke="#000000" d="M904.4178,-232.9066C904.4178,-232.9066 1163.4178,-232.9066 1163.4178,-232.9066 1169.4178,-232.9066 1175.4178,-238.9066 1175.4178,-244.9066 1175.4178,-244.9066 1175.4178,-423.86 1175.4178,-423.86 1175.4178,-429.86 1169.4178,-435.86 1163.4178,-435.86 1163.4178,-435.86 904.4178,-435.86 904.4178,-435.86 898.4178,-435.86 892.4178,-429.86 892.4178,-423.86 892.4178,-423.86 892.4178,-244.9066 892.4178,-244.9066 892.4178,-238.9066 898.4178,-232.9066 904.4178,-232.9066"/>
<text text-anchor="middle" x="1163.9178" y="-240.7066" font-family="Times,serif" font-size="14.00" fill="#000000">2</text>
</g>
<g id="clust2" class="cluster">
<title>cluster11</title>
<path fill="none" stroke="#000000" d="M1333.4178,-232.9066C1333.4178,-232.9066 1597.4178,-232.9066 1597.4178,-232.9066 1603.4178,-232.9066 1609.4178,-238.9066 1609.4178,-244.9066 1609.4178,-244.9066 1609.4178,-534.8133 1609.4178,-534.8133 1609.4178,-540.8133 1603.4178,-546.8133 1597.4178,-546.8133 1597.4178,-546.8133 1333.4178,-546.8133 1333.4178,-546.8133 1327.4178,-546.8133 1321.4178,-540.8133 1321.4178,-534.8133 1321.4178,-534.8133 1321.4178,-244.9066 1321.4178,-244.9066 1321.4178,-238.9066 1327.4178,-232.9066 1333.4178,-232.9066"/>
<text text-anchor="middle" x="1594.4178" y="-240.7066" font-family="Times,serif" font-size="14.00" fill="#000000">11</text>
</g>
<g id="clust3" class="cluster">
<title>cluster2 x 11</title>
<path fill="none" stroke="#000000" d="M164.4178,-232.9066C164.4178,-232.9066 298.4178,-232.9066 298.4178,-232.9066 304.4178,-232.9066 310.4178,-238.9066 310.4178,-244.9066 310.4178,-244.9066 310.4178,-423.86 310.4178,-423.86 310.4178,-429.86 304.4178,-435.86 298.4178,-435.86 298.4178,-435.86 164.4178,-435.86 164.4178,-435.86 158.4178,-435.86 152.4178,-429.86 152.4178,-423.86 152.4178,-423.86 152.4178,-244.9066 152.4178,-244.9066 152.4178,-238.9066 158.4178,-232.9066 164.4178,-232.9066"/>
<text text-anchor="middle" x="284.9178" y="-240.7066" font-family="Times,serif" font-size="14.00" fill="#000000">2 x 11</text>
</g>
<g id="clust4" class="cluster">
<title>cluster230</title>
<path fill="none" stroke="#000000" d="M885.4178,-8C885.4178,-8 971.4178,-8 971.4178,-8 977.4178,-8 983.4178,-14 983.4178,-20 983.4178,-20 983.4178,-209.93 983.4178,-209.93 983.4178,-215.93 977.4178,-221.93 971.4178,-221.93 971.4178,-221.93 885.4178,-221.93 885.4178,-221.93 879.4178,-221.93 873.4178,-215.93 873.4178,-209.93 873.4178,-209.93 873.4178,-20 873.4178,-20 873.4178,-14 879.4178,-8 885.4178,-8"/>
<text text-anchor="middle" x="964.9178" y="-15.8" font-family="Times,serif" font-size="14.00" fill="#000000">230</text>
</g>
<!-- Asfc_M12_dist -->
<g id="node1" class="node">
<title>Asfc_M12_dist</title>
<ellipse fill="none" stroke="#000000" cx="71.4178" cy="-390.3833" rx="71.3357" ry="37.4533"/>
<text text-anchor="middle" x="71.4178" y="-401.6833" font-family="Times,serif" font-size="14.00" fill="#000000">Asfc_M12_dist</text>
<text text-anchor="middle" x="71.4178" y="-386.6833" font-family="Times,serif" font-size="14.00" fill="#000000">~</text>
<text text-anchor="middle" x="71.4178" y="-371.6833" font-family="Times,serif" font-size="14.00" fill="#000000">Normal</text>
</g>
<!-- Asfc_M12 -->
<g id="node18" class="node">
<title>Asfc_M12</title>
<polygon fill="none" stroke="#000000" points="288.9178,-316.9066 197.9178,-316.9066 197.9178,-263.9066 288.9178,-263.9066 288.9178,-316.9066"/>
<text text-anchor="middle" x="243.4178" y="-301.7066" font-family="Times,serif" font-size="14.00" fill="#000000">Asfc_M12</text>
<text text-anchor="middle" x="243.4178" y="-286.7066" font-family="Times,serif" font-size="14.00" fill="#000000">~</text>
<text text-anchor="middle" x="243.4178" y="-271.7066" font-family="Times,serif" font-size="14.00" fill="#000000">Deterministic</text>
</g>
<!-- Asfc_M12_dist&#45;&gt;Asfc_M12 -->
<g id="edge11" class="edge">
<title>Asfc_M12_dist&#45;&gt;Asfc_M12</title>
<path fill="none" stroke="#000000" d="M119.3294,-362.5342C141.0043,-349.9355 166.7242,-334.9855 189.1124,-321.9722"/>
<polygon fill="#000000" stroke="#000000" points="190.9479,-324.9536 197.8346,-316.9023 187.4302,-318.9017 190.9479,-324.9536"/>
</g>
<!-- Asfc_b1_dist -->
<g id="node2" class="node">
<title>Asfc_b1_dist</title>
<ellipse fill="none" stroke="#000000" cx="1248.4178" cy="-390.3833" rx="62.8651" ry="37.4533"/>
<text text-anchor="middle" x="1248.4178" y="-401.6833" font-family="Times,serif" font-size="14.00" fill="#000000">Asfc_b1_dist</text>
<text text-anchor="middle" x="1248.4178" y="-386.6833" font-family="Times,serif" font-size="14.00" fill="#000000">~</text>
<text text-anchor="middle" x="1248.4178" y="-371.6833" font-family="Times,serif" font-size="14.00" fill="#000000">Normal</text>
</g>
<!-- Asfc_b1 -->
<g id="node12" class="node">
<title>Asfc_b1</title>
<polygon fill="none" stroke="#000000" points="1078.9178,-316.9066 987.9178,-316.9066 987.9178,-263.9066 1078.9178,-263.9066 1078.9178,-316.9066"/>
<text text-anchor="middle" x="1033.4178" y="-301.7066" font-family="Times,serif" font-size="14.00" fill="#000000">Asfc_b1</text>
<text text-anchor="middle" x="1033.4178" y="-286.7066" font-family="Times,serif" font-size="14.00" fill="#000000">~</text>
<text text-anchor="middle" x="1033.4178" y="-271.7066" font-family="Times,serif" font-size="14.00" fill="#000000">Deterministic</text>
</g>
<!-- Asfc_b1_dist&#45;&gt;Asfc_b1 -->
<g id="edge4" class="edge">
<title>Asfc_b1_dist&#45;&gt;Asfc_b1</title>
<path fill="none" stroke="#000000" d="M1202.3309,-364.5853C1194.7369,-360.5564 1186.9018,-356.5313 1179.4178,-352.9066 1149.7838,-338.5545 1116.0267,-323.992 1088.4418,-312.5385"/>
<polygon fill="#000000" stroke="#000000" points="1089.5378,-309.2045 1078.959,-308.6224 1086.8658,-315.6745 1089.5378,-309.2045"/>
</g>
<!-- Asfc_b0_dist -->
<g id="node3" class="node">
<title>Asfc_b0_dist</title>
<ellipse fill="none" stroke="#000000" cx="535.4178" cy="-390.3833" rx="62.8651" ry="37.4533"/>
<text text-anchor="middle" x="535.4178" y="-401.6833" font-family="Times,serif" font-size="14.00" fill="#000000">Asfc_b0_dist</text>
<text text-anchor="middle" x="535.4178" y="-386.6833" font-family="Times,serif" font-size="14.00" fill="#000000">~</text>
<text text-anchor="middle" x="535.4178" y="-371.6833" font-family="Times,serif" font-size="14.00" fill="#000000">Normal</text>
</g>
<!-- Asfc_b0 -->
<g id="node6" class="node">
<title>Asfc_b0</title>
<polygon fill="none" stroke="#000000" points="795.9178,-316.9066 704.9178,-316.9066 704.9178,-263.9066 795.9178,-263.9066 795.9178,-316.9066"/>
<text text-anchor="middle" x="750.4178" y="-301.7066" font-family="Times,serif" font-size="14.00" fill="#000000">Asfc_b0</text>
<text text-anchor="middle" x="750.4178" y="-286.7066" font-family="Times,serif" font-size="14.00" fill="#000000">~</text>
<text text-anchor="middle" x="750.4178" y="-271.7066" font-family="Times,serif" font-size="14.00" fill="#000000">Deterministic</text>
</g>
<!-- Asfc_b0_dist&#45;&gt;Asfc_b0 -->
<g id="edge3" class="edge">
<title>Asfc_b0_dist&#45;&gt;Asfc_b0</title>
<path fill="none" stroke="#000000" d="M582.4371,-365.3271C590.7128,-361.0843 599.2811,-356.7969 607.4178,-352.9066 636.1714,-339.1593 668.6931,-324.8496 695.4492,-313.397"/>
<polygon fill="#000000" stroke="#000000" points="696.8312,-316.6127 704.6571,-309.4708 694.0856,-310.1736 696.8312,-316.6127"/>
</g>
<!-- Asfc_sigmaY -->
<g id="node4" class="node">
<title>Asfc_sigmaY</title>
<ellipse fill="none" stroke="#000000" cx="1056.4178" cy="-187.43" rx="65.1077" ry="37.4533"/>
<text text-anchor="middle" x="1056.4178" y="-198.73" font-family="Times,serif" font-size="14.00" fill="#000000">Asfc_sigmaY</text>
<text text-anchor="middle" x="1056.4178" y="-183.73" font-family="Times,serif" font-size="14.00" fill="#000000">~</text>
<text text-anchor="middle" x="1056.4178" y="-168.73" font-family="Times,serif" font-size="14.00" fill="#000000">Gamma</text>
</g>
<!-- Asfc_y -->
<g id="node20" class="node">
<title>Asfc_y</title>
<ellipse fill="#d3d3d3" stroke="#000000" cx="928.4178" cy="-76.4767" rx="46.8387" ry="37.4533"/>
<text text-anchor="middle" x="928.4178" y="-87.7767" font-family="Times,serif" font-size="14.00" fill="#000000">Asfc_y</text>
<text text-anchor="middle" x="928.4178" y="-72.7767" font-family="Times,serif" font-size="14.00" fill="#000000">~</text>
<text text-anchor="middle" x="928.4178" y="-57.7767" font-family="Times,serif" font-size="14.00" fill="#000000">StudentT</text>
</g>
<!-- Asfc_sigmaY&#45;&gt;Asfc_y -->
<g id="edge19" class="edge">
<title>Asfc_sigmaY&#45;&gt;Asfc_y</title>
<path fill="none" stroke="#000000" d="M1020.0805,-155.932C1003.9471,-141.9472 984.9096,-125.4451 968.3766,-111.1139"/>
<polygon fill="#000000" stroke="#000000" points="970.3342,-108.1788 960.4853,-104.2735 965.7491,-113.4683 970.3342,-108.1788"/>
</g>
<!-- Asfc_b2_dist -->
<g id="node5" class="node">
<title>Asfc_b2_dist</title>
<ellipse fill="none" stroke="#000000" cx="1681.4178" cy="-390.3833" rx="62.8651" ry="37.4533"/>
<text text-anchor="middle" x="1681.4178" y="-401.6833" font-family="Times,serif" font-size="14.00" fill="#000000">Asfc_b2_dist</text>
<text text-anchor="middle" x="1681.4178" y="-386.6833" font-family="Times,serif" font-size="14.00" fill="#000000">~</text>
<text text-anchor="middle" x="1681.4178" y="-371.6833" font-family="Times,serif" font-size="14.00" fill="#000000">Gumbel</text>
</g>
<!-- Asfc_b2 -->
<g id="node15" class="node">
<title>Asfc_b2</title>
<polygon fill="none" stroke="#000000" points="1511.9178,-316.9066 1420.9178,-316.9066 1420.9178,-263.9066 1511.9178,-263.9066 1511.9178,-316.9066"/>
<text text-anchor="middle" x="1466.4178" y="-301.7066" font-family="Times,serif" font-size="14.00" fill="#000000">Asfc_b2</text>
<text text-anchor="middle" x="1466.4178" y="-286.7066" font-family="Times,serif" font-size="14.00" fill="#000000">~</text>
<text text-anchor="middle" x="1466.4178" y="-271.7066" font-family="Times,serif" font-size="14.00" fill="#000000">Deterministic</text>
</g>
<!-- Asfc_b2_dist&#45;&gt;Asfc_b2 -->
<g id="edge10" class="edge">
<title>Asfc_b2_dist&#45;&gt;Asfc_b2</title>
<path fill="none" stroke="#000000" d="M1635.6621,-364.3407C1628.2893,-360.384 1620.6904,-356.4454 1613.4178,-352.9066 1583.5273,-338.3622 1549.3997,-323.7356 1521.5562,-312.2924"/>
<polygon fill="#000000" stroke="#000000" points="1522.5679,-308.925 1511.987,-308.383 1519.9205,-315.4051 1522.5679,-308.925"/>
</g>
<!-- Asfc_mu -->
<g id="node21" class="node">
<title>Asfc_mu</title>
<polygon fill="none" stroke="#000000" points="972.9178,-213.93 881.9178,-213.93 881.9178,-160.93 972.9178,-160.93 972.9178,-213.93"/>
<text text-anchor="middle" x="927.4178" y="-198.73" font-family="Times,serif" font-size="14.00" fill="#000000">Asfc_mu</text>
<text text-anchor="middle" x="927.4178" y="-183.73" font-family="Times,serif" font-size="14.00" fill="#000000">~</text>
<text text-anchor="middle" x="927.4178" y="-168.73" font-family="Times,serif" font-size="14.00" fill="#000000">Deterministic</text>
</g>
<!-- Asfc_b0&#45;&gt;Asfc_mu -->
<g id="edge14" class="edge">
<title>Asfc_b0&#45;&gt;Asfc_mu</title>
<path fill="none" stroke="#000000" d="M795.9997,-263.8876C819.4448,-250.2475 848.1922,-233.5226 872.8154,-219.197"/>
<polygon fill="#000000" stroke="#000000" points="874.7995,-222.092 881.6831,-214.0379 871.2794,-216.0415 874.7995,-222.092"/>
</g>
<!-- Asfc_sigma0 -->
<g id="node7" class="node">
<title>Asfc_sigma0</title>
<ellipse fill="none" stroke="#000000" cx="679.4178" cy="-390.3833" rx="62.8651" ry="37.4533"/>
<text text-anchor="middle" x="679.4178" y="-401.6833" font-family="Times,serif" font-size="14.00" fill="#000000">Asfc_sigma0</text>
<text text-anchor="middle" x="679.4178" y="-386.6833" font-family="Times,serif" font-size="14.00" fill="#000000">~</text>
<text text-anchor="middle" x="679.4178" y="-371.6833" font-family="Times,serif" font-size="14.00" fill="#000000">HalfNormal</text>
</g>
<!-- Asfc_sigma0&#45;&gt;Asfc_b0 -->
<g id="edge2" class="edge">
<title>Asfc_sigma0&#45;&gt;Asfc_b0</title>
<path fill="none" stroke="#000000" d="M704.0509,-355.6969C710.9898,-345.926 718.5418,-335.2919 725.4975,-325.4975"/>
<polygon fill="#000000" stroke="#000000" points="728.4895,-327.329 731.4261,-317.1493 722.7823,-323.2759 728.4895,-327.329"/>
</g>
<!-- Asfc_nuY -->
<g id="node8" class="node">
<title>Asfc_nuY</title>
<ellipse fill="none" stroke="#000000" cx="1197.4178" cy="-187.43" rx="57.9655" ry="37.4533"/>
<text text-anchor="middle" x="1197.4178" y="-198.73" font-family="Times,serif" font-size="14.00" fill="#000000">Asfc_nuY</text>
<text text-anchor="middle" x="1197.4178" y="-183.73" font-family="Times,serif" font-size="14.00" fill="#000000">~</text>
<text text-anchor="middle" x="1197.4178" y="-168.73" font-family="Times,serif" font-size="14.00" fill="#000000">Exponential</text>
</g>
<!-- Asfc_nuY&#45;&gt;Asfc_y -->
<g id="edge18" class="edge">
<title>Asfc_nuY&#45;&gt;Asfc_y</title>
<path fill="none" stroke="#000000" d="M1154.3361,-161.9981C1146.4905,-157.7516 1138.2944,-153.5603 1130.4178,-149.9533 1081.2597,-127.4422 1023.0424,-106.8766 981.7657,-93.2649"/>
<polygon fill="#000000" stroke="#000000" points="982.7711,-89.9113 972.1784,-90.1279 980.5941,-96.5642 982.7711,-89.9113"/>
</g>
<!-- Asfc_mu_b0 -->
<g id="node9" class="node">
<title>Asfc_mu_b0</title>
<ellipse fill="none" stroke="#000000" cx="821.4178" cy="-390.3833" rx="61.5366" ry="37.4533"/>
<text text-anchor="middle" x="821.4178" y="-401.6833" font-family="Times,serif" font-size="14.00" fill="#000000">Asfc_mu_b0</text>
<text text-anchor="middle" x="821.4178" y="-386.6833" font-family="Times,serif" font-size="14.00" fill="#000000">~</text>
<text text-anchor="middle" x="821.4178" y="-371.6833" font-family="Times,serif" font-size="14.00" fill="#000000">Normal</text>
</g>
<!-- Asfc_mu_b0&#45;&gt;Asfc_b0 -->
<g id="edge1" class="edge">
<title>Asfc_mu_b0&#45;&gt;Asfc_b0</title>
<path fill="none" stroke="#000000" d="M796.9836,-355.977C789.972,-346.1038 782.3205,-335.3296 775.2832,-325.4202"/>
<polygon fill="#000000" stroke="#000000" points="777.9324,-323.1057 769.2886,-316.9791 772.2252,-327.1588 777.9324,-323.1057"/>
</g>
<!-- Asfc_sigma12 -->
<g id="node10" class="node">
<title>Asfc_sigma12</title>
<ellipse fill="none" stroke="#000000" cx="387.4178" cy="-390.3833" rx="67.3507" ry="37.4533"/>
<text text-anchor="middle" x="387.4178" y="-401.6833" font-family="Times,serif" font-size="14.00" fill="#000000">Asfc_sigma12</text>
<text text-anchor="middle" x="387.4178" y="-386.6833" font-family="Times,serif" font-size="14.00" fill="#000000">~</text>
<text text-anchor="middle" x="387.4178" y="-371.6833" font-family="Times,serif" font-size="14.00" fill="#000000">HalfNormal</text>
</g>
<!-- Asfc_sigma12&#45;&gt;Asfc_M12 -->
<g id="edge13" class="edge">
<title>Asfc_sigma12&#45;&gt;Asfc_M12</title>
<path fill="none" stroke="#000000" d="M344.9919,-360.9277C327.7384,-348.949 307.7426,-335.0662 290.079,-322.8027"/>
<polygon fill="#000000" stroke="#000000" points="291.8277,-319.756 281.6173,-316.9279 287.8355,-325.506 291.8277,-319.756"/>
</g>
<!-- Asfc_sigma1 -->
<g id="node11" class="node">
<title>Asfc_sigma1</title>
<ellipse fill="none" stroke="#000000" cx="1104.4178" cy="-390.3833" rx="62.8651" ry="37.4533"/>
<text text-anchor="middle" x="1104.4178" y="-401.6833" font-family="Times,serif" font-size="14.00" fill="#000000">Asfc_sigma1</text>
<text text-anchor="middle" x="1104.4178" y="-386.6833" font-family="Times,serif" font-size="14.00" fill="#000000">~</text>
<text text-anchor="middle" x="1104.4178" y="-371.6833" font-family="Times,serif" font-size="14.00" fill="#000000">HalfNormal</text>
</g>
<!-- Asfc_sigma1&#45;&gt;Asfc_b1 -->
<g id="edge5" class="edge">
<title>Asfc_sigma1&#45;&gt;Asfc_b1</title>
<path fill="none" stroke="#000000" d="M1079.7847,-355.6969C1072.8457,-345.926 1065.2937,-335.2919 1058.3381,-325.4975"/>
<polygon fill="#000000" stroke="#000000" points="1061.0533,-323.2759 1052.4095,-317.1493 1055.346,-327.329 1061.0533,-323.2759"/>
</g>
<!-- Asfc_b1&#45;&gt;Asfc_mu -->
<g id="edge16" class="edge">
<title>Asfc_b1&#45;&gt;Asfc_mu</title>
<path fill="none" stroke="#000000" d="M1006.1202,-263.8876C992.7476,-250.8965 976.4947,-235.1071 962.2385,-221.2576"/>
<polygon fill="#000000" stroke="#000000" points="964.6028,-218.6747 954.9913,-214.2171 959.7251,-223.6956 964.6028,-218.6747"/>
</g>
<!-- Asfc_mu_b1 -->
<g id="node13" class="node">
<title>Asfc_mu_b1</title>
<ellipse fill="none" stroke="#000000" cx="962.4178" cy="-390.3833" rx="61.5366" ry="37.4533"/>
<text text-anchor="middle" x="962.4178" y="-401.6833" font-family="Times,serif" font-size="14.00" fill="#000000">Asfc_mu_b1</text>
<text text-anchor="middle" x="962.4178" y="-386.6833" font-family="Times,serif" font-size="14.00" fill="#000000">~</text>
<text text-anchor="middle" x="962.4178" y="-371.6833" font-family="Times,serif" font-size="14.00" fill="#000000">Normal</text>
</g>
<!-- Asfc_mu_b1&#45;&gt;Asfc_b1 -->
<g id="edge6" class="edge">
<title>Asfc_mu_b1&#45;&gt;Asfc_b1</title>
<path fill="none" stroke="#000000" d="M986.852,-355.977C993.8636,-346.1038 1001.5151,-335.3296 1008.5523,-325.4202"/>
<polygon fill="#000000" stroke="#000000" points="1011.6104,-327.1588 1014.5469,-316.9791 1005.9032,-323.1057 1011.6104,-327.1588"/>
</g>
<!-- Asfc_b2_beta -->
<g id="node14" class="node">
<title>Asfc_b2_beta</title>
<ellipse fill="none" stroke="#000000" cx="1394.4178" cy="-390.3833" rx="65.1077" ry="37.4533"/>
<text text-anchor="middle" x="1394.4178" y="-401.6833" font-family="Times,serif" font-size="14.00" fill="#000000">Asfc_b2_beta</text>
<text text-anchor="middle" x="1394.4178" y="-386.6833" font-family="Times,serif" font-size="14.00" fill="#000000">~</text>
<text text-anchor="middle" x="1394.4178" y="-371.6833" font-family="Times,serif" font-size="14.00" fill="#000000">HalfNormal</text>
</g>
<!-- Asfc_b2_beta&#45;&gt;Asfc_b2 -->
<g id="edge8" class="edge">
<title>Asfc_b2_beta&#45;&gt;Asfc_b2</title>
<path fill="none" stroke="#000000" d="M1419.3978,-355.6969C1426.4345,-345.926 1434.0929,-335.2919 1441.1465,-325.4975"/>
<polygon fill="#000000" stroke="#000000" points="1444.1548,-327.3094 1447.1586,-317.1493 1438.4745,-323.2186 1444.1548,-327.3094"/>
</g>
<!-- Asfc_b2&#45;&gt;Asfc_mu -->
<g id="edge15" class="edge">
<title>Asfc_b2&#45;&gt;Asfc_mu</title>
<path fill="none" stroke="#000000" d="M1420.5492,-278.896C1364.1882,-265.2922 1265.4456,-243.2064 1179.4178,-232.9066 1135.9146,-227.6982 1024.0163,-238.6623 982.4178,-224.9066 977.8582,-223.3989 973.3295,-221.3929 968.9417,-219.0902"/>
<polygon fill="#000000" stroke="#000000" points="970.5764,-215.9924 960.1685,-214.0113 967.0694,-222.0505 970.5764,-215.9924"/>
</g>
<!-- Asfc_mu_b2 -->
<g id="node16" class="node">
<title>Asfc_mu_b2</title>
<ellipse fill="none" stroke="#000000" cx="1539.4178" cy="-390.3833" rx="61.5366" ry="37.4533"/>
<text text-anchor="middle" x="1539.4178" y="-401.6833" font-family="Times,serif" font-size="14.00" fill="#000000">Asfc_mu_b2</text>
<text text-anchor="middle" x="1539.4178" y="-386.6833" font-family="Times,serif" font-size="14.00" fill="#000000">~</text>
<text text-anchor="middle" x="1539.4178" y="-371.6833" font-family="Times,serif" font-size="14.00" fill="#000000">Normal</text>
</g>
<!-- Asfc_mu_b2&#45;&gt;Asfc_b2 -->
<g id="edge9" class="edge">
<title>Asfc_mu_b2&#45;&gt;Asfc_b2</title>
<path fill="none" stroke="#000000" d="M1514.2953,-355.977C1507.0134,-346.0041 1499.0602,-335.1118 1491.7646,-325.1202"/>
<polygon fill="#000000" stroke="#000000" points="1494.5439,-322.9913 1485.8202,-316.9791 1488.8906,-327.1193 1494.5439,-322.9913"/>
</g>
<!-- Asfc_sigma2 -->
<g id="node17" class="node">
<title>Asfc_sigma2</title>
<ellipse fill="none" stroke="#000000" cx="1394.4178" cy="-501.3366" rx="62.8651" ry="37.4533"/>
<text text-anchor="middle" x="1394.4178" y="-512.6366" font-family="Times,serif" font-size="14.00" fill="#000000">Asfc_sigma2</text>
<text text-anchor="middle" x="1394.4178" y="-497.6366" font-family="Times,serif" font-size="14.00" fill="#000000">~</text>
<text text-anchor="middle" x="1394.4178" y="-482.6366" font-family="Times,serif" font-size="14.00" fill="#000000">HalfNormal</text>
</g>
<!-- Asfc_sigma2&#45;&gt;Asfc_b2_beta -->
<g id="edge7" class="edge">
<title>Asfc_sigma2&#45;&gt;Asfc_b2_beta</title>
<path fill="none" stroke="#000000" d="M1394.4178,-463.7729C1394.4178,-455.549 1394.4178,-446.7367 1394.4178,-438.1736"/>
<polygon fill="#000000" stroke="#000000" points="1397.9179,-437.9083 1394.4178,-427.9083 1390.9179,-437.9084 1397.9179,-437.9083"/>
</g>
<!-- Asfc_M12&#45;&gt;Asfc_mu -->
<g id="edge17" class="edge">
<title>Asfc_M12&#45;&gt;Asfc_mu</title>
<path fill="none" stroke="#000000" d="M289.0925,-283.5303C410.3004,-265.2823 739.8136,-215.6739 871.7262,-195.8144"/>
<polygon fill="#000000" stroke="#000000" points="872.259,-199.2737 881.6265,-194.3239 871.2169,-192.3517 872.259,-199.2737"/>
</g>
<!-- Asfc_mu_M12 -->
<g id="node19" class="node">
<title>Asfc_mu_M12</title>
<ellipse fill="none" stroke="#000000" cx="231.4178" cy="-390.3833" rx="70.922" ry="37.4533"/>
<text text-anchor="middle" x="231.4178" y="-401.6833" font-family="Times,serif" font-size="14.00" fill="#000000">Asfc_mu_M12</text>
<text text-anchor="middle" x="231.4178" y="-386.6833" font-family="Times,serif" font-size="14.00" fill="#000000">~</text>
<text text-anchor="middle" x="231.4178" y="-371.6833" font-family="Times,serif" font-size="14.00" fill="#000000">Normal</text>
</g>
<!-- Asfc_mu_M12&#45;&gt;Asfc_M12 -->
<g id="edge12" class="edge">
<title>Asfc_mu_M12&#45;&gt;Asfc_M12</title>
<path fill="none" stroke="#000000" d="M235.9203,-352.8712C236.921,-344.5341 237.981,-335.7023 238.9791,-327.3867"/>
<polygon fill="#000000" stroke="#000000" points="242.4844,-327.5516 240.2011,-317.2057 235.5343,-326.7173 242.4844,-327.5516"/>
</g>
<!-- Asfc_mu&#45;&gt;Asfc_y -->
<g id="edge20" class="edge">
<title>Asfc_mu&#45;&gt;Asfc_y</title>
<path fill="none" stroke="#000000" d="M927.6573,-160.8539C927.7557,-149.9351 927.8728,-136.944 927.9853,-124.4675"/>
<polygon fill="#000000" stroke="#000000" points="931.4877,-124.1961 928.0781,-114.165 924.488,-124.133 931.4877,-124.1961"/>
</g>
</g>
</svg>
