<?xml version="1.0" encoding="UTF-8" standalone="no"?>
<!DOCTYPE svg PUBLIC "-//W3C//DTD SVG 1.1//EN"
 "http://www.w3.org/Graphics/SVG/1.1/DTD/svg11.dtd">
<!-- Generated by graphviz version 2.40.1 (20161225.0304)
 -->
<!-- Title: HAsfc81 Pages: 1 -->
<svg width="2163pt" height="563pt"
 viewBox="0.00 0.00 2162.78 562.81" xmlns="http://www.w3.org/2000/svg" xmlns:xlink="http://www.w3.org/1999/xlink">
<g id="graph0" class="graph" transform="scale(1 1) rotate(0) translate(4 558.8133)">
<title>HAsfc81</title>
<polygon fill="#ffffff" stroke="transparent" points="-4,4 -4,-558.8133 2158.7817,-558.8133 2158.7817,4 -4,4"/>
<g id="clust1" class="cluster">
<title>cluster2</title>
<path fill="none" stroke="#000000" d="M20,-232.9066C20,-232.9066 344,-232.9066 344,-232.9066 350,-232.9066 356,-238.9066 356,-244.9066 356,-244.9066 356,-423.86 356,-423.86 356,-429.86 350,-435.86 344,-435.86 344,-435.86 20,-435.86 20,-435.86 14,-435.86 8,-429.86 8,-423.86 8,-423.86 8,-244.9066 8,-244.9066 8,-238.9066 14,-232.9066 20,-232.9066"/>
<text text-anchor="middle" x="344.5" y="-240.7066" font-family="Times,serif" font-size="14.00" fill="#000000">2</text>
</g>
<g id="clust2" class="cluster">
<title>cluster11</title>
<path fill="none" stroke="#000000" d="M547,-232.9066C547,-232.9066 875,-232.9066 875,-232.9066 881,-232.9066 887,-238.9066 887,-244.9066 887,-244.9066 887,-534.8133 887,-534.8133 887,-540.8133 881,-546.8133 875,-546.8133 875,-546.8133 547,-546.8133 547,-546.8133 541,-546.8133 535,-540.8133 535,-534.8133 535,-534.8133 535,-244.9066 535,-244.9066 535,-238.9066 541,-232.9066 547,-232.9066"/>
<text text-anchor="middle" x="872" y="-240.7066" font-family="Times,serif" font-size="14.00" fill="#000000">11</text>
</g>
<g id="clust3" class="cluster">
<title>cluster2 x 11</title>
<path fill="none" stroke="#000000" d="M1077,-232.9066C1077,-232.9066 1243,-232.9066 1243,-232.9066 1249,-232.9066 1255,-238.9066 1255,-244.9066 1255,-244.9066 1255,-423.86 1255,-423.86 1255,-429.86 1249,-435.86 1243,-435.86 1243,-435.86 1077,-435.86 1077,-435.86 1071,-435.86 1065,-429.86 1065,-423.86 1065,-423.86 1065,-244.9066 1065,-244.9066 1065,-238.9066 1071,-232.9066 1077,-232.9066"/>
<text text-anchor="middle" x="1229.5" y="-240.7066" font-family="Times,serif" font-size="14.00" fill="#000000">2 x 11</text>
</g>
<g id="clust4" class="cluster">
<title>cluster230</title>
<path fill="none" stroke="#000000" d="M954,-8C954,-8 1058,-8 1058,-8 1064,-8 1070,-14 1070,-20 1070,-20 1070,-209.93 1070,-209.93 1070,-215.93 1064,-221.93 1058,-221.93 1058,-221.93 954,-221.93 954,-221.93 948,-221.93 942,-215.93 942,-209.93 942,-209.93 942,-20 942,-20 942,-14 948,-8 954,-8"/>
<text text-anchor="middle" x="1051.5" y="-15.8" font-family="Times,serif" font-size="14.00" fill="#000000">230</text>
</g>
<!-- HAsfc81_b0 -->
<g id="node1" class="node">
<title>HAsfc81_b0</title>
<polygon fill="none" stroke="#000000" points="1859.5,-316.9066 1768.5,-316.9066 1768.5,-263.9066 1859.5,-263.9066 1859.5,-316.9066"/>
<text text-anchor="middle" x="1814" y="-301.7066" font-family="Times,serif" font-size="14.00" fill="#000000">HAsfc81_b0</text>
<text text-anchor="middle" x="1814" y="-286.7066" font-family="Times,serif" font-size="14.00" fill="#000000">~</text>
<text text-anchor="middle" x="1814" y="-271.7066" font-family="Times,serif" font-size="14.00" fill="#000000">Deterministic</text>
</g>
<!-- HAsfc81_mu -->
<g id="node20" class="node">
<title>HAsfc81_mu</title>
<polygon fill="none" stroke="#000000" points="1051.5,-213.93 960.5,-213.93 960.5,-160.93 1051.5,-160.93 1051.5,-213.93"/>
<text text-anchor="middle" x="1006" y="-198.73" font-family="Times,serif" font-size="14.00" fill="#000000">HAsfc81_mu</text>
<text text-anchor="middle" x="1006" y="-183.73" font-family="Times,serif" font-size="14.00" fill="#000000">~</text>
<text text-anchor="middle" x="1006" y="-168.73" font-family="Times,serif" font-size="14.00" fill="#000000">Deterministic</text>
</g>
<!-- HAsfc81_b0&#45;&gt;HAsfc81_mu -->
<g id="edge15" class="edge">
<title>HAsfc81_b0&#45;&gt;HAsfc81_mu</title>
<path fill="none" stroke="#000000" d="M1768.3985,-284.7272C1673.6686,-273.1402 1448.6056,-246.7073 1259,-232.9066 1216.8519,-229.8388 1109.5028,-236.9649 1069,-224.9066 1063.6637,-223.3179 1058.3113,-221.1777 1053.1042,-218.7208"/>
<polygon fill="#000000" stroke="#000000" points="1054.4178,-215.4609 1043.9232,-214.0072 1051.2207,-221.6882 1054.4178,-215.4609"/>
</g>
<!-- HAsfc81_sigma12 -->
<g id="node2" class="node">
<title>HAsfc81_sigma12</title>
<ellipse fill="none" stroke="#000000" cx="1349" cy="-390.3833" rx="84.2917" ry="37.4533"/>
<text text-anchor="middle" x="1349" y="-401.6833" font-family="Times,serif" font-size="14.00" fill="#000000">HAsfc81_sigma12</text>
<text text-anchor="middle" x="1349" y="-386.6833" font-family="Times,serif" font-size="14.00" fill="#000000">~</text>
<text text-anchor="middle" x="1349" y="-371.6833" font-family="Times,serif" font-size="14.00" fill="#000000">HalfNormal</text>
</g>
<!-- HAsfc81_M12 -->
<g id="node18" class="node">
<title>HAsfc81_M12</title>
<polygon fill="none" stroke="#000000" points="1228,-316.9066 1130,-316.9066 1130,-263.9066 1228,-263.9066 1228,-316.9066"/>
<text text-anchor="middle" x="1179" y="-301.7066" font-family="Times,serif" font-size="14.00" fill="#000000">HAsfc81_M12</text>
<text text-anchor="middle" x="1179" y="-286.7066" font-family="Times,serif" font-size="14.00" fill="#000000">~</text>
<text text-anchor="middle" x="1179" y="-271.7066" font-family="Times,serif" font-size="14.00" fill="#000000">Deterministic</text>
</g>
<!-- HAsfc81_sigma12&#45;&gt;HAsfc81_M12 -->
<g id="edge11" class="edge">
<title>HAsfc81_sigma12&#45;&gt;HAsfc81_M12</title>
<path fill="none" stroke="#000000" d="M1297.9944,-360.387C1277.456,-348.3084 1253.7473,-334.3654 1232.9241,-322.1193"/>
<polygon fill="#000000" stroke="#000000" points="1234.5883,-319.0376 1224.1941,-316.9852 1231.0397,-325.0716 1234.5883,-319.0376"/>
</g>
<!-- HAsfc81_sigmaY -->
<g id="node3" class="node">
<title>HAsfc81_sigmaY</title>
<ellipse fill="none" stroke="#000000" cx="853" cy="-187.43" rx="81.135" ry="37.4533"/>
<text text-anchor="middle" x="853" y="-198.73" font-family="Times,serif" font-size="14.00" fill="#000000">HAsfc81_sigmaY</text>
<text text-anchor="middle" x="853" y="-183.73" font-family="Times,serif" font-size="14.00" fill="#000000">~</text>
<text text-anchor="middle" x="853" y="-168.73" font-family="Times,serif" font-size="14.00" fill="#000000">Gamma</text>
</g>
<!-- HAsfc81_y -->
<g id="node21" class="node">
<title>HAsfc81_y</title>
<ellipse fill="#d3d3d3" stroke="#000000" cx="1006" cy="-76.4767" rx="55.7232" ry="37.4533"/>
<text text-anchor="middle" x="1006" y="-87.7767" font-family="Times,serif" font-size="14.00" fill="#000000">HAsfc81_y</text>
<text text-anchor="middle" x="1006" y="-72.7767" font-family="Times,serif" font-size="14.00" fill="#000000">~</text>
<text text-anchor="middle" x="1006" y="-57.7767" font-family="Times,serif" font-size="14.00" fill="#000000">StudentT</text>
</g>
<!-- HAsfc81_sigmaY&#45;&gt;HAsfc81_y -->
<g id="edge18" class="edge">
<title>HAsfc81_sigmaY&#45;&gt;HAsfc81_y</title>
<path fill="none" stroke="#000000" d="M896.8437,-155.6352C916.469,-141.4032 939.6244,-124.6113 959.5472,-110.1636"/>
<polygon fill="#000000" stroke="#000000" points="961.8272,-112.8336 967.8679,-104.1295 957.7177,-107.1668 961.8272,-112.8336"/>
</g>
<!-- HAsfc81_b0_dist -->
<g id="node4" class="node">
<title>HAsfc81_b0_dist</title>
<ellipse fill="none" stroke="#000000" cx="1726" cy="-390.3833" rx="79.3924" ry="37.4533"/>
<text text-anchor="middle" x="1726" y="-401.6833" font-family="Times,serif" font-size="14.00" fill="#000000">HAsfc81_b0_dist</text>
<text text-anchor="middle" x="1726" y="-386.6833" font-family="Times,serif" font-size="14.00" fill="#000000">~</text>
<text text-anchor="middle" x="1726" y="-371.6833" font-family="Times,serif" font-size="14.00" fill="#000000">Normal</text>
</g>
<!-- HAsfc81_b0_dist&#45;&gt;HAsfc81_b0 -->
<g id="edge3" class="edge">
<title>HAsfc81_b0_dist&#45;&gt;HAsfc81_b0</title>
<path fill="none" stroke="#000000" d="M1756.5312,-355.6969C1765.3053,-345.7286 1774.8703,-334.8618 1783.6344,-324.9049"/>
<polygon fill="#000000" stroke="#000000" points="1786.481,-326.9682 1790.461,-317.1493 1781.2266,-322.3432 1786.481,-326.9682"/>
</g>
<!-- HAsfc81_nuY -->
<g id="node5" class="node">
<title>HAsfc81_nuY</title>
<ellipse fill="none" stroke="#000000" cx="1145" cy="-187.43" rx="67.3507" ry="37.4533"/>
<text text-anchor="middle" x="1145" y="-198.73" font-family="Times,serif" font-size="14.00" fill="#000000">HAsfc81_nuY</text>
<text text-anchor="middle" x="1145" y="-183.73" font-family="Times,serif" font-size="14.00" fill="#000000">~</text>
<text text-anchor="middle" x="1145" y="-168.73" font-family="Times,serif" font-size="14.00" fill="#000000">Exponential</text>
</g>
<!-- HAsfc81_nuY&#45;&gt;HAsfc81_y -->
<g id="edge20" class="edge">
<title>HAsfc81_nuY&#45;&gt;HAsfc81_y</title>
<path fill="none" stroke="#000000" d="M1106.2808,-156.5233C1088.8655,-142.622 1068.2188,-126.1413 1050.1997,-111.758"/>
<polygon fill="#000000" stroke="#000000" points="1052.1256,-108.817 1042.1266,-105.3138 1047.7586,-114.2878 1052.1256,-108.817"/>
</g>
<!-- HAsfc81_sigma0 -->
<g id="node6" class="node">
<title>HAsfc81_sigma0</title>
<ellipse fill="none" stroke="#000000" cx="1902" cy="-390.3833" rx="79.3924" ry="37.4533"/>
<text text-anchor="middle" x="1902" y="-401.6833" font-family="Times,serif" font-size="14.00" fill="#000000">HAsfc81_sigma0</text>
<text text-anchor="middle" x="1902" y="-386.6833" font-family="Times,serif" font-size="14.00" fill="#000000">~</text>
<text text-anchor="middle" x="1902" y="-371.6833" font-family="Times,serif" font-size="14.00" fill="#000000">HalfNormal</text>
</g>
<!-- HAsfc81_sigma0&#45;&gt;HAsfc81_b0 -->
<g id="edge1" class="edge">
<title>HAsfc81_sigma0&#45;&gt;HAsfc81_b0</title>
<path fill="none" stroke="#000000" d="M1871.4688,-355.6969C1862.6947,-345.7286 1853.1297,-334.8618 1844.3656,-324.9049"/>
<polygon fill="#000000" stroke="#000000" points="1846.7734,-322.3432 1837.539,-317.1493 1841.519,-326.9682 1846.7734,-322.3432"/>
</g>
<!-- HAsfc81_mu_b0 -->
<g id="node7" class="node">
<title>HAsfc81_mu_b0</title>
<ellipse fill="none" stroke="#000000" cx="2077" cy="-390.3833" rx="77.5641" ry="37.4533"/>
<text text-anchor="middle" x="2077" y="-401.6833" font-family="Times,serif" font-size="14.00" fill="#000000">HAsfc81_mu_b0</text>
<text text-anchor="middle" x="2077" y="-386.6833" font-family="Times,serif" font-size="14.00" fill="#000000">~</text>
<text text-anchor="middle" x="2077" y="-371.6833" font-family="Times,serif" font-size="14.00" fill="#000000">Normal</text>
</g>
<!-- HAsfc81_mu_b0&#45;&gt;HAsfc81_b0 -->
<g id="edge2" class="edge">
<title>HAsfc81_mu_b0&#45;&gt;HAsfc81_b0</title>
<path fill="none" stroke="#000000" d="M2019.659,-365.0526C2009.8114,-360.8836 1999.6448,-356.6918 1990,-352.9066 1949.8568,-337.1523 1903.9218,-320.8987 1869.0474,-308.9166"/>
<polygon fill="#000000" stroke="#000000" points="1870.113,-305.582 1859.5184,-305.6542 1867.8456,-312.2046 1870.113,-305.582"/>
</g>
<!-- HAsfc81_b2_dist -->
<g id="node8" class="node">
<title>HAsfc81_b2_dist</title>
<ellipse fill="none" stroke="#000000" cx="976" cy="-390.3833" rx="79.3924" ry="37.4533"/>
<text text-anchor="middle" x="976" y="-401.6833" font-family="Times,serif" font-size="14.00" fill="#000000">HAsfc81_b2_dist</text>
<text text-anchor="middle" x="976" y="-386.6833" font-family="Times,serif" font-size="14.00" fill="#000000">~</text>
<text text-anchor="middle" x="976" y="-371.6833" font-family="Times,serif" font-size="14.00" fill="#000000">Gumbel</text>
</g>
<!-- HAsfc81_b2 -->
<g id="node15" class="node">
<title>HAsfc81_b2</title>
<polygon fill="none" stroke="#000000" points="862.5,-316.9066 771.5,-316.9066 771.5,-263.9066 862.5,-263.9066 862.5,-316.9066"/>
<text text-anchor="middle" x="817" y="-301.7066" font-family="Times,serif" font-size="14.00" fill="#000000">HAsfc81_b2</text>
<text text-anchor="middle" x="817" y="-286.7066" font-family="Times,serif" font-size="14.00" fill="#000000">~</text>
<text text-anchor="middle" x="817" y="-271.7066" font-family="Times,serif" font-size="14.00" fill="#000000">Deterministic</text>
</g>
<!-- HAsfc81_b2_dist&#45;&gt;HAsfc81_b2 -->
<g id="edge9" class="edge">
<title>HAsfc81_b2_dist&#45;&gt;HAsfc81_b2</title>
<path fill="none" stroke="#000000" d="M928.2948,-360.387C909.2568,-348.4163 887.3064,-334.6142 867.9572,-322.4477"/>
<polygon fill="#000000" stroke="#000000" points="869.5985,-319.3453 859.2698,-316.9852 865.8723,-325.2712 869.5985,-319.3453"/>
</g>
<!-- HAsfc81_M12_dist -->
<g id="node9" class="node">
<title>HAsfc81_M12_dist</title>
<ellipse fill="none" stroke="#000000" cx="1540" cy="-390.3833" rx="88.2768" ry="37.4533"/>
<text text-anchor="middle" x="1540" y="-401.6833" font-family="Times,serif" font-size="14.00" fill="#000000">HAsfc81_M12_dist</text>
<text text-anchor="middle" x="1540" y="-386.6833" font-family="Times,serif" font-size="14.00" fill="#000000">~</text>
<text text-anchor="middle" x="1540" y="-371.6833" font-family="Times,serif" font-size="14.00" fill="#000000">Normal</text>
</g>
<!-- HAsfc81_M12_dist&#45;&gt;HAsfc81_M12 -->
<g id="edge12" class="edge">
<title>HAsfc81_M12_dist&#45;&gt;HAsfc81_M12</title>
<path fill="none" stroke="#000000" d="M1475.8464,-364.4652C1464.6519,-360.3413 1453.0527,-356.317 1442,-352.9066 1373.1177,-331.6528 1292.2137,-313.4035 1238.512,-302.2047"/>
<polygon fill="#000000" stroke="#000000" points="1238.9802,-298.7275 1228.4784,-300.1284 1237.5616,-305.5823 1238.9802,-298.7275"/>
</g>
<!-- HAsfc81_b1_dist -->
<g id="node10" class="node">
<title>HAsfc81_b1_dist</title>
<ellipse fill="none" stroke="#000000" cx="445" cy="-390.3833" rx="79.3924" ry="37.4533"/>
<text text-anchor="middle" x="445" y="-401.6833" font-family="Times,serif" font-size="14.00" fill="#000000">HAsfc81_b1_dist</text>
<text text-anchor="middle" x="445" y="-386.6833" font-family="Times,serif" font-size="14.00" fill="#000000">~</text>
<text text-anchor="middle" x="445" y="-371.6833" font-family="Times,serif" font-size="14.00" fill="#000000">Normal</text>
</g>
<!-- HAsfc81_b1 -->
<g id="node13" class="node">
<title>HAsfc81_b1</title>
<polygon fill="none" stroke="#000000" points="330.5,-316.9066 239.5,-316.9066 239.5,-263.9066 330.5,-263.9066 330.5,-316.9066"/>
<text text-anchor="middle" x="285" y="-301.7066" font-family="Times,serif" font-size="14.00" fill="#000000">HAsfc81_b1</text>
<text text-anchor="middle" x="285" y="-286.7066" font-family="Times,serif" font-size="14.00" fill="#000000">~</text>
<text text-anchor="middle" x="285" y="-271.7066" font-family="Times,serif" font-size="14.00" fill="#000000">Deterministic</text>
</g>
<!-- HAsfc81_b1_dist&#45;&gt;HAsfc81_b1 -->
<g id="edge6" class="edge">
<title>HAsfc81_b1_dist&#45;&gt;HAsfc81_b1</title>
<path fill="none" stroke="#000000" d="M396.9947,-360.387C377.8371,-348.4163 355.7486,-334.6142 336.2777,-322.4477"/>
<polygon fill="#000000" stroke="#000000" points="337.8709,-319.3162 327.5357,-316.9852 334.1615,-325.2526 337.8709,-319.3162"/>
</g>
<!-- HAsfc81_sigma1 -->
<g id="node11" class="node">
<title>HAsfc81_sigma1</title>
<ellipse fill="none" stroke="#000000" cx="269" cy="-390.3833" rx="79.3924" ry="37.4533"/>
<text text-anchor="middle" x="269" y="-401.6833" font-family="Times,serif" font-size="14.00" fill="#000000">HAsfc81_sigma1</text>
<text text-anchor="middle" x="269" y="-386.6833" font-family="Times,serif" font-size="14.00" fill="#000000">~</text>
<text text-anchor="middle" x="269" y="-371.6833" font-family="Times,serif" font-size="14.00" fill="#000000">HalfNormal</text>
</g>
<!-- HAsfc81_sigma1&#45;&gt;HAsfc81_b1 -->
<g id="edge4" class="edge">
<title>HAsfc81_sigma1&#45;&gt;HAsfc81_b1</title>
<path fill="none" stroke="#000000" d="M275.0033,-352.8712C276.3524,-344.4415 277.7824,-335.506 279.1261,-327.1097"/>
<polygon fill="#000000" stroke="#000000" points="282.5868,-327.6332 280.7111,-317.2057 275.6748,-326.527 282.5868,-327.6332"/>
</g>
<!-- HAsfc81_mu_b1 -->
<g id="node12" class="node">
<title>HAsfc81_mu_b1</title>
<ellipse fill="none" stroke="#000000" cx="94" cy="-390.3833" rx="77.5641" ry="37.4533"/>
<text text-anchor="middle" x="94" y="-401.6833" font-family="Times,serif" font-size="14.00" fill="#000000">HAsfc81_mu_b1</text>
<text text-anchor="middle" x="94" y="-386.6833" font-family="Times,serif" font-size="14.00" fill="#000000">~</text>
<text text-anchor="middle" x="94" y="-371.6833" font-family="Times,serif" font-size="14.00" fill="#000000">Normal</text>
</g>
<!-- HAsfc81_mu_b1&#45;&gt;HAsfc81_b1 -->
<g id="edge5" class="edge">
<title>HAsfc81_mu_b1&#45;&gt;HAsfc81_b1</title>
<path fill="none" stroke="#000000" d="M146.6972,-362.7996C172.6747,-349.202 203.9798,-332.8157 230.2318,-319.0744"/>
<polygon fill="#000000" stroke="#000000" points="232.0531,-322.0716 239.2896,-314.3332 228.8068,-315.8698 232.0531,-322.0716"/>
</g>
<!-- HAsfc81_b1&#45;&gt;HAsfc81_mu -->
<g id="edge17" class="edge">
<title>HAsfc81_b1&#45;&gt;HAsfc81_mu</title>
<path fill="none" stroke="#000000" d="M330.7226,-276.67C379.7284,-262.6688 460.0625,-241.7854 531,-232.9066 576.4319,-227.2202 898.9718,-237.4731 943,-224.9066 948.5662,-223.3179 954.1433,-221.1107 959.5517,-218.5549"/>
<polygon fill="#000000" stroke="#000000" points="961.1703,-221.6583 968.4625,-213.9723 957.9689,-215.4332 961.1703,-221.6583"/>
</g>
<!-- HAsfc81_mu_b2 -->
<g id="node14" class="node">
<title>HAsfc81_mu_b2</title>
<ellipse fill="none" stroke="#000000" cx="801" cy="-390.3833" rx="77.5641" ry="37.4533"/>
<text text-anchor="middle" x="801" y="-401.6833" font-family="Times,serif" font-size="14.00" fill="#000000">HAsfc81_mu_b2</text>
<text text-anchor="middle" x="801" y="-386.6833" font-family="Times,serif" font-size="14.00" fill="#000000">~</text>
<text text-anchor="middle" x="801" y="-371.6833" font-family="Times,serif" font-size="14.00" fill="#000000">Normal</text>
</g>
<!-- HAsfc81_mu_b2&#45;&gt;HAsfc81_b2 -->
<g id="edge8" class="edge">
<title>HAsfc81_mu_b2&#45;&gt;HAsfc81_b2</title>
<path fill="none" stroke="#000000" d="M807.0033,-352.8712C808.3524,-344.4415 809.7824,-335.506 811.1261,-327.1097"/>
<polygon fill="#000000" stroke="#000000" points="814.5868,-327.6332 812.7111,-317.2057 807.6748,-326.527 814.5868,-327.6332"/>
</g>
<!-- HAsfc81_b2&#45;&gt;HAsfc81_mu -->
<g id="edge16" class="edge">
<title>HAsfc81_b2&#45;&gt;HAsfc81_mu</title>
<path fill="none" stroke="#000000" d="M862.5303,-267.5328C886.6278,-255.2272 916.6127,-239.5979 943,-224.9066 946.4053,-223.0107 949.8974,-221.0321 953.4069,-219.0177"/>
<polygon fill="#000000" stroke="#000000" points="955.2301,-222.0064 962.1266,-213.9634 951.7197,-215.9502 955.2301,-222.0064"/>
</g>
<!-- HAsfc81_b2_beta -->
<g id="node16" class="node">
<title>HAsfc81_b2_beta</title>
<ellipse fill="none" stroke="#000000" cx="624" cy="-390.3833" rx="81.135" ry="37.4533"/>
<text text-anchor="middle" x="624" y="-401.6833" font-family="Times,serif" font-size="14.00" fill="#000000">HAsfc81_b2_beta</text>
<text text-anchor="middle" x="624" y="-386.6833" font-family="Times,serif" font-size="14.00" fill="#000000">~</text>
<text text-anchor="middle" x="624" y="-371.6833" font-family="Times,serif" font-size="14.00" fill="#000000">HalfNormal</text>
</g>
<!-- HAsfc81_b2_beta&#45;&gt;HAsfc81_b2 -->
<g id="edge10" class="edge">
<title>HAsfc81_b2_beta&#45;&gt;HAsfc81_b2</title>
<path fill="none" stroke="#000000" d="M678.2749,-362.2682C704.505,-348.6806 735.9197,-332.4073 762.2164,-318.7853"/>
<polygon fill="#000000" stroke="#000000" points="764.018,-321.7938 771.2875,-314.0863 760.7982,-315.5783 764.018,-321.7938"/>
</g>
<!-- HAsfc81_sigma2 -->
<g id="node17" class="node">
<title>HAsfc81_sigma2</title>
<ellipse fill="none" stroke="#000000" cx="624" cy="-501.3366" rx="79.3924" ry="37.4533"/>
<text text-anchor="middle" x="624" y="-512.6366" font-family="Times,serif" font-size="14.00" fill="#000000">HAsfc81_sigma2</text>
<text text-anchor="middle" x="624" y="-497.6366" font-family="Times,serif" font-size="14.00" fill="#000000">~</text>
<text text-anchor="middle" x="624" y="-482.6366" font-family="Times,serif" font-size="14.00" fill="#000000">HalfNormal</text>
</g>
<!-- HAsfc81_sigma2&#45;&gt;HAsfc81_b2_beta -->
<g id="edge7" class="edge">
<title>HAsfc81_sigma2&#45;&gt;HAsfc81_b2_beta</title>
<path fill="none" stroke="#000000" d="M624,-463.7729C624,-455.549 624,-446.7367 624,-438.1736"/>
<polygon fill="#000000" stroke="#000000" points="627.5001,-437.9083 624,-427.9083 620.5001,-437.9084 627.5001,-437.9083"/>
</g>
<!-- HAsfc81_M12&#45;&gt;HAsfc81_mu -->
<g id="edge14" class="edge">
<title>HAsfc81_M12&#45;&gt;HAsfc81_mu</title>
<path fill="none" stroke="#000000" d="M1134.4482,-263.8876C1111.5329,-250.2475 1083.4352,-233.5226 1059.3684,-219.197"/>
<polygon fill="#000000" stroke="#000000" points="1061.0843,-216.1453 1050.7012,-214.0379 1057.5039,-222.1604 1061.0843,-216.1453"/>
</g>
<!-- HAsfc81_mu_M12 -->
<g id="node19" class="node">
<title>HAsfc81_mu_M12</title>
<ellipse fill="none" stroke="#000000" cx="1160" cy="-390.3833" rx="86.9483" ry="37.4533"/>
<text text-anchor="middle" x="1160" y="-401.6833" font-family="Times,serif" font-size="14.00" fill="#000000">HAsfc81_mu_M12</text>
<text text-anchor="middle" x="1160" y="-386.6833" font-family="Times,serif" font-size="14.00" fill="#000000">~</text>
<text text-anchor="middle" x="1160" y="-371.6833" font-family="Times,serif" font-size="14.00" fill="#000000">Normal</text>
</g>
<!-- HAsfc81_mu_M12&#45;&gt;HAsfc81_M12 -->
<g id="edge13" class="edge">
<title>HAsfc81_mu_M12&#45;&gt;HAsfc81_M12</title>
<path fill="none" stroke="#000000" d="M1167.129,-352.8712C1168.731,-344.4415 1170.4291,-335.506 1172.0248,-327.1097"/>
<polygon fill="#000000" stroke="#000000" points="1175.4783,-327.6834 1173.907,-317.2057 1168.6014,-326.3764 1175.4783,-327.6834"/>
</g>
<!-- HAsfc81_mu&#45;&gt;HAsfc81_y -->
<g id="edge19" class="edge">
<title>HAsfc81_mu&#45;&gt;HAsfc81_y</title>
<path fill="none" stroke="#000000" d="M1006,-160.8539C1006,-149.9351 1006,-136.944 1006,-124.4675"/>
<polygon fill="#000000" stroke="#000000" points="1009.5001,-124.1649 1006,-114.165 1002.5001,-124.165 1009.5001,-124.1649"/>
</g>
</g>
</svg>
