<?xml version="1.0" encoding="UTF-8" standalone="no"?>
<!DOCTYPE svg PUBLIC "-//W3C//DTD SVG 1.1//EN"
 "http://www.w3.org/Graphics/SVG/1.1/DTD/svg11.dtd">
<!-- Generated by graphviz version 2.40.1 (20161225.0304)
 -->
<!-- Title: Rsquared Pages: 1 -->
<svg width="2186pt" height="563pt"
 viewBox="0.00 0.00 2186.17 562.81" xmlns="http://www.w3.org/2000/svg" xmlns:xlink="http://www.w3.org/1999/xlink">
<g id="graph0" class="graph" transform="scale(1 1) rotate(0) translate(4 558.8133)">
<title>Rsquared</title>
<polygon fill="#ffffff" stroke="transparent" points="-4,4 -4,-558.8133 2182.1701,-558.8133 2182.1701,4 -4,4"/>
<g id="clust1" class="cluster">
<title>cluster2</title>
<path fill="none" stroke="#000000" d="M1121.5599,-232.9066C1121.5599,-232.9066 1453.5599,-232.9066 1453.5599,-232.9066 1459.5599,-232.9066 1465.5599,-238.9066 1465.5599,-244.9066 1465.5599,-244.9066 1465.5599,-423.86 1465.5599,-423.86 1465.5599,-429.86 1459.5599,-435.86 1453.5599,-435.86 1453.5599,-435.86 1121.5599,-435.86 1121.5599,-435.86 1115.5599,-435.86 1109.5599,-429.86 1109.5599,-423.86 1109.5599,-423.86 1109.5599,-244.9066 1109.5599,-244.9066 1109.5599,-238.9066 1115.5599,-232.9066 1121.5599,-232.9066"/>
<text text-anchor="middle" x="1454.0599" y="-240.7066" font-family="Times,serif" font-size="14.00" fill="#000000">2</text>
</g>
<g id="clust2" class="cluster">
<title>cluster11</title>
<path fill="none" stroke="#000000" d="M1658.5599,-232.9066C1658.5599,-232.9066 1994.5599,-232.9066 1994.5599,-232.9066 2000.5599,-232.9066 2006.5599,-238.9066 2006.5599,-244.9066 2006.5599,-244.9066 2006.5599,-534.8133 2006.5599,-534.8133 2006.5599,-540.8133 2000.5599,-546.8133 1994.5599,-546.8133 1994.5599,-546.8133 1658.5599,-546.8133 1658.5599,-546.8133 1652.5599,-546.8133 1646.5599,-540.8133 1646.5599,-534.8133 1646.5599,-534.8133 1646.5599,-244.9066 1646.5599,-244.9066 1646.5599,-238.9066 1652.5599,-232.9066 1658.5599,-232.9066"/>
<text text-anchor="middle" x="1991.5599" y="-240.7066" font-family="Times,serif" font-size="14.00" fill="#000000">11</text>
</g>
<g id="clust3" class="cluster">
<title>cluster2 x 11</title>
<path fill="none" stroke="#000000" d="M193.5599,-232.9066C193.5599,-232.9066 361.5599,-232.9066 361.5599,-232.9066 367.5599,-232.9066 373.5599,-238.9066 373.5599,-244.9066 373.5599,-244.9066 373.5599,-423.86 373.5599,-423.86 373.5599,-429.86 367.5599,-435.86 361.5599,-435.86 361.5599,-435.86 193.5599,-435.86 193.5599,-435.86 187.5599,-435.86 181.5599,-429.86 181.5599,-423.86 181.5599,-423.86 181.5599,-244.9066 181.5599,-244.9066 181.5599,-238.9066 187.5599,-232.9066 193.5599,-232.9066"/>
<text text-anchor="middle" x="348.0599" y="-240.7066" font-family="Times,serif" font-size="14.00" fill="#000000">2 x 11</text>
</g>
<g id="clust4" class="cluster">
<title>cluster230</title>
<path fill="none" stroke="#000000" d="M1099.5599,-8C1099.5599,-8 1205.5599,-8 1205.5599,-8 1211.5599,-8 1217.5599,-14 1217.5599,-20 1217.5599,-20 1217.5599,-209.93 1217.5599,-209.93 1217.5599,-215.93 1211.5599,-221.93 1205.5599,-221.93 1205.5599,-221.93 1099.5599,-221.93 1099.5599,-221.93 1093.5599,-221.93 1087.5599,-215.93 1087.5599,-209.93 1087.5599,-209.93 1087.5599,-20 1087.5599,-20 1087.5599,-14 1093.5599,-8 1099.5599,-8"/>
<text text-anchor="middle" x="1199.0599" y="-15.8" font-family="Times,serif" font-size="14.00" fill="#000000">230</text>
</g>
<!-- Rsquared_sigma12 -->
<g id="node1" class="node">
<title>Rsquared_sigma12</title>
<ellipse fill="none" stroke="#000000" cx="85.5599" cy="-390.3833" rx="85.6199" ry="37.4533"/>
<text text-anchor="middle" x="85.5599" y="-401.6833" font-family="Times,serif" font-size="14.00" fill="#000000">Rsquared_sigma12</text>
<text text-anchor="middle" x="85.5599" y="-386.6833" font-family="Times,serif" font-size="14.00" fill="#000000">~</text>
<text text-anchor="middle" x="85.5599" y="-371.6833" font-family="Times,serif" font-size="14.00" fill="#000000">HalfNormal</text>
</g>
<!-- Rsquared_M12 -->
<g id="node18" class="node">
<title>Rsquared_M12</title>
<polygon fill="none" stroke="#000000" points="346.0599,-316.9066 245.0599,-316.9066 245.0599,-263.9066 346.0599,-263.9066 346.0599,-316.9066"/>
<text text-anchor="middle" x="295.5599" y="-301.7066" font-family="Times,serif" font-size="14.00" fill="#000000">Rsquared_M12</text>
<text text-anchor="middle" x="295.5599" y="-286.7066" font-family="Times,serif" font-size="14.00" fill="#000000">~</text>
<text text-anchor="middle" x="295.5599" y="-271.7066" font-family="Times,serif" font-size="14.00" fill="#000000">Deterministic</text>
</g>
<!-- Rsquared_sigma12&#45;&gt;Rsquared_M12 -->
<g id="edge13" class="edge">
<title>Rsquared_sigma12&#45;&gt;Rsquared_M12</title>
<path fill="none" stroke="#000000" d="M143.4992,-362.7996C172.2008,-349.1354 206.8175,-332.6551 235.7673,-318.8727"/>
<polygon fill="#000000" stroke="#000000" points="237.4282,-321.9584 244.9527,-314.4997 234.4192,-315.6381 237.4282,-321.9584"/>
</g>
<!-- Rsquared_b2_dist -->
<g id="node2" class="node">
<title>Rsquared_b2_dist</title>
<ellipse fill="none" stroke="#000000" cx="2097.5599" cy="-390.3833" rx="80.7205" ry="37.4533"/>
<text text-anchor="middle" x="2097.5599" y="-401.6833" font-family="Times,serif" font-size="14.00" fill="#000000">Rsquared_b2_dist</text>
<text text-anchor="middle" x="2097.5599" y="-386.6833" font-family="Times,serif" font-size="14.00" fill="#000000">~</text>
<text text-anchor="middle" x="2097.5599" y="-371.6833" font-family="Times,serif" font-size="14.00" fill="#000000">Gumbel</text>
</g>
<!-- Rsquared_b2 -->
<g id="node17" class="node">
<title>Rsquared_b2</title>
<polygon fill="none" stroke="#000000" points="1873.0599,-316.9066 1782.0599,-316.9066 1782.0599,-263.9066 1873.0599,-263.9066 1873.0599,-316.9066"/>
<text text-anchor="middle" x="1827.5599" y="-301.7066" font-family="Times,serif" font-size="14.00" fill="#000000">Rsquared_b2</text>
<text text-anchor="middle" x="1827.5599" y="-286.7066" font-family="Times,serif" font-size="14.00" fill="#000000">~</text>
<text text-anchor="middle" x="1827.5599" y="-271.7066" font-family="Times,serif" font-size="14.00" fill="#000000">Deterministic</text>
</g>
<!-- Rsquared_b2_dist&#45;&gt;Rsquared_b2 -->
<g id="edge9" class="edge">
<title>Rsquared_b2_dist&#45;&gt;Rsquared_b2</title>
<path fill="none" stroke="#000000" d="M2038.8481,-364.359C2029.4375,-360.4 2019.7671,-356.4558 2010.5599,-352.9066 1968.3251,-336.626 1919.8186,-320.1585 1883.3609,-308.2167"/>
<polygon fill="#000000" stroke="#000000" points="1884.0051,-304.7454 1873.4127,-304.9724 1881.8348,-311.4005 1884.0051,-304.7454"/>
</g>
<!-- Rsquared_b0_dist -->
<g id="node3" class="node">
<title>Rsquared_b0_dist</title>
<ellipse fill="none" stroke="#000000" cx="661.5599" cy="-390.3833" rx="80.7205" ry="37.4533"/>
<text text-anchor="middle" x="661.5599" y="-401.6833" font-family="Times,serif" font-size="14.00" fill="#000000">Rsquared_b0_dist</text>
<text text-anchor="middle" x="661.5599" y="-386.6833" font-family="Times,serif" font-size="14.00" fill="#000000">~</text>
<text text-anchor="middle" x="661.5599" y="-371.6833" font-family="Times,serif" font-size="14.00" fill="#000000">Normal</text>
</g>
<!-- Rsquared_b0 -->
<g id="node9" class="node">
<title>Rsquared_b0</title>
<polygon fill="none" stroke="#000000" points="975.0599,-316.9066 884.0599,-316.9066 884.0599,-263.9066 975.0599,-263.9066 975.0599,-316.9066"/>
<text text-anchor="middle" x="929.5599" y="-301.7066" font-family="Times,serif" font-size="14.00" fill="#000000">Rsquared_b0</text>
<text text-anchor="middle" x="929.5599" y="-286.7066" font-family="Times,serif" font-size="14.00" fill="#000000">~</text>
<text text-anchor="middle" x="929.5599" y="-271.7066" font-family="Times,serif" font-size="14.00" fill="#000000">Deterministic</text>
</g>
<!-- Rsquared_b0_dist&#45;&gt;Rsquared_b0 -->
<g id="edge3" class="edge">
<title>Rsquared_b0_dist&#45;&gt;Rsquared_b0</title>
<path fill="none" stroke="#000000" d="M721.3992,-364.9088C731.4304,-360.7987 741.7616,-356.6634 751.5599,-352.9066 792.3721,-337.2589 839.0058,-320.9408 874.3005,-308.9037"/>
<polygon fill="#000000" stroke="#000000" points="875.5994,-312.1589 883.9405,-305.6262 873.3461,-305.5315 875.5994,-312.1589"/>
</g>
<!-- Rsquared_M12_dist -->
<g id="node4" class="node">
<title>Rsquared_M12_dist</title>
<ellipse fill="none" stroke="#000000" cx="473.5599" cy="-390.3833" rx="89.6056" ry="37.4533"/>
<text text-anchor="middle" x="473.5599" y="-401.6833" font-family="Times,serif" font-size="14.00" fill="#000000">Rsquared_M12_dist</text>
<text text-anchor="middle" x="473.5599" y="-386.6833" font-family="Times,serif" font-size="14.00" fill="#000000">~</text>
<text text-anchor="middle" x="473.5599" y="-371.6833" font-family="Times,serif" font-size="14.00" fill="#000000">Normal</text>
</g>
<!-- Rsquared_M12_dist&#45;&gt;Rsquared_M12 -->
<g id="edge11" class="edge">
<title>Rsquared_M12_dist&#45;&gt;Rsquared_M12</title>
<path fill="none" stroke="#000000" d="M419.671,-360.1157C398.1769,-348.0432 373.429,-334.1431 351.7151,-321.9471"/>
<polygon fill="#000000" stroke="#000000" points="353.3621,-318.8579 342.9292,-317.0124 349.9341,-324.9611 353.3621,-318.8579"/>
</g>
<!-- Rsquared_mu_b0 -->
<g id="node5" class="node">
<title>Rsquared_mu_b0</title>
<ellipse fill="none" stroke="#000000" cx="840.5599" cy="-390.3833" rx="79.8062" ry="37.4533"/>
<text text-anchor="middle" x="840.5599" y="-401.6833" font-family="Times,serif" font-size="14.00" fill="#000000">Rsquared_mu_b0</text>
<text text-anchor="middle" x="840.5599" y="-386.6833" font-family="Times,serif" font-size="14.00" fill="#000000">~</text>
<text text-anchor="middle" x="840.5599" y="-371.6833" font-family="Times,serif" font-size="14.00" fill="#000000">Normal</text>
</g>
<!-- Rsquared_mu_b0&#45;&gt;Rsquared_b0 -->
<g id="edge1" class="edge">
<title>Rsquared_mu_b0&#45;&gt;Rsquared_b0</title>
<path fill="none" stroke="#000000" d="M871.438,-355.6969C880.3119,-345.7286 889.9855,-334.8618 898.8493,-324.9049"/>
<polygon fill="#000000" stroke="#000000" points="901.7185,-326.9457 905.7534,-317.1493 896.49,-322.2913 901.7185,-326.9457"/>
</g>
<!-- Rsquared_sigma0 -->
<g id="node6" class="node">
<title>Rsquared_sigma0</title>
<ellipse fill="none" stroke="#000000" cx="1019.5599" cy="-390.3833" rx="80.7205" ry="37.4533"/>
<text text-anchor="middle" x="1019.5599" y="-401.6833" font-family="Times,serif" font-size="14.00" fill="#000000">Rsquared_sigma0</text>
<text text-anchor="middle" x="1019.5599" y="-386.6833" font-family="Times,serif" font-size="14.00" fill="#000000">~</text>
<text text-anchor="middle" x="1019.5599" y="-371.6833" font-family="Times,serif" font-size="14.00" fill="#000000">HalfNormal</text>
</g>
<!-- Rsquared_sigma0&#45;&gt;Rsquared_b0 -->
<g id="edge2" class="edge">
<title>Rsquared_sigma0&#45;&gt;Rsquared_b0</title>
<path fill="none" stroke="#000000" d="M988.3349,-355.6969C979.2725,-345.6299 969.3852,-334.6466 960.3496,-324.6094"/>
<polygon fill="#000000" stroke="#000000" points="962.9257,-322.2398 953.6339,-317.1493 957.7232,-326.9232 962.9257,-322.2398"/>
</g>
<!-- Rsquared_nuY -->
<g id="node7" class="node">
<title>Rsquared_nuY</title>
<ellipse fill="none" stroke="#000000" cx="1294.5599" cy="-187.43" rx="69.0935" ry="37.4533"/>
<text text-anchor="middle" x="1294.5599" y="-198.73" font-family="Times,serif" font-size="14.00" fill="#000000">Rsquared_nuY</text>
<text text-anchor="middle" x="1294.5599" y="-183.73" font-family="Times,serif" font-size="14.00" fill="#000000">~</text>
<text text-anchor="middle" x="1294.5599" y="-168.73" font-family="Times,serif" font-size="14.00" fill="#000000">Exponential</text>
</g>
<!-- Rsquared_y -->
<g id="node20" class="node">
<title>Rsquared_y</title>
<ellipse fill="#d3d3d3" stroke="#000000" cx="1152.5599" cy="-76.4767" rx="57.0522" ry="37.4533"/>
<text text-anchor="middle" x="1152.5599" y="-87.7767" font-family="Times,serif" font-size="14.00" fill="#000000">Rsquared_y</text>
<text text-anchor="middle" x="1152.5599" y="-72.7767" font-family="Times,serif" font-size="14.00" fill="#000000">~</text>
<text text-anchor="middle" x="1152.5599" y="-57.7767" font-family="Times,serif" font-size="14.00" fill="#000000">StudentT</text>
</g>
<!-- Rsquared_nuY&#45;&gt;Rsquared_y -->
<g id="edge18" class="edge">
<title>Rsquared_nuY&#45;&gt;Rsquared_y</title>
<path fill="none" stroke="#000000" d="M1255.005,-156.5233C1237.2138,-142.622 1216.1215,-126.1413 1197.7136,-111.758"/>
<polygon fill="#000000" stroke="#000000" points="1199.501,-108.7129 1189.4663,-105.3138 1195.1911,-114.2288 1199.501,-108.7129"/>
</g>
<!-- Rsquared_b1_dist -->
<g id="node8" class="node">
<title>Rsquared_b1_dist</title>
<ellipse fill="none" stroke="#000000" cx="1556.5599" cy="-390.3833" rx="80.7205" ry="37.4533"/>
<text text-anchor="middle" x="1556.5599" y="-401.6833" font-family="Times,serif" font-size="14.00" fill="#000000">Rsquared_b1_dist</text>
<text text-anchor="middle" x="1556.5599" y="-386.6833" font-family="Times,serif" font-size="14.00" fill="#000000">~</text>
<text text-anchor="middle" x="1556.5599" y="-371.6833" font-family="Times,serif" font-size="14.00" fill="#000000">Normal</text>
</g>
<!-- Rsquared_b1 -->
<g id="node12" class="node">
<title>Rsquared_b1</title>
<polygon fill="none" stroke="#000000" points="1333.0599,-316.9066 1242.0599,-316.9066 1242.0599,-263.9066 1333.0599,-263.9066 1333.0599,-316.9066"/>
<text text-anchor="middle" x="1287.5599" y="-301.7066" font-family="Times,serif" font-size="14.00" fill="#000000">Rsquared_b1</text>
<text text-anchor="middle" x="1287.5599" y="-286.7066" font-family="Times,serif" font-size="14.00" fill="#000000">~</text>
<text text-anchor="middle" x="1287.5599" y="-271.7066" font-family="Times,serif" font-size="14.00" fill="#000000">Deterministic</text>
</g>
<!-- Rsquared_b1_dist&#45;&gt;Rsquared_b1 -->
<g id="edge4" class="edge">
<title>Rsquared_b1_dist&#45;&gt;Rsquared_b1</title>
<path fill="none" stroke="#000000" d="M1497.8429,-364.3726C1488.4329,-360.4118 1478.7641,-356.4636 1469.5599,-352.9066 1427.5454,-336.6703 1379.3044,-320.2005 1343.0489,-308.2465"/>
<polygon fill="#000000" stroke="#000000" points="1343.7488,-304.7925 1333.156,-304.9986 1341.5653,-311.4433 1343.7488,-304.7925"/>
</g>
<!-- Rsquared_mu -->
<g id="node21" class="node">
<title>Rsquared_mu</title>
<polygon fill="none" stroke="#000000" points="1198.5599,-213.93 1106.5599,-213.93 1106.5599,-160.93 1198.5599,-160.93 1198.5599,-213.93"/>
<text text-anchor="middle" x="1152.5599" y="-198.73" font-family="Times,serif" font-size="14.00" fill="#000000">Rsquared_mu</text>
<text text-anchor="middle" x="1152.5599" y="-183.73" font-family="Times,serif" font-size="14.00" fill="#000000">~</text>
<text text-anchor="middle" x="1152.5599" y="-168.73" font-family="Times,serif" font-size="14.00" fill="#000000">Deterministic</text>
</g>
<!-- Rsquared_b0&#45;&gt;Rsquared_mu -->
<g id="edge16" class="edge">
<title>Rsquared_b0&#45;&gt;Rsquared_mu</title>
<path fill="none" stroke="#000000" d="M975.2254,-269.3193C1010.4664,-253.0458 1059.3774,-230.4597 1096.9079,-213.1289"/>
<polygon fill="#000000" stroke="#000000" points="1098.5777,-216.213 1106.1891,-208.843 1095.643,-209.8579 1098.5777,-216.213"/>
</g>
<!-- Rsquared_sigmaY -->
<g id="node10" class="node">
<title>Rsquared_sigmaY</title>
<ellipse fill="none" stroke="#000000" cx="1464.5599" cy="-187.43" rx="82.9636" ry="37.4533"/>
<text text-anchor="middle" x="1464.5599" y="-198.73" font-family="Times,serif" font-size="14.00" fill="#000000">Rsquared_sigmaY</text>
<text text-anchor="middle" x="1464.5599" y="-183.73" font-family="Times,serif" font-size="14.00" fill="#000000">~</text>
<text text-anchor="middle" x="1464.5599" y="-168.73" font-family="Times,serif" font-size="14.00" fill="#000000">Gamma</text>
</g>
<!-- Rsquared_sigmaY&#45;&gt;Rsquared_y -->
<g id="edge19" class="edge">
<title>Rsquared_sigmaY&#45;&gt;Rsquared_y</title>
<path fill="none" stroke="#000000" d="M1403.4109,-161.8793C1393.1544,-157.7784 1382.5876,-153.6659 1372.5599,-149.9533 1319.5467,-130.3262 1258.5191,-110.1297 1214.2083,-95.8905"/>
<polygon fill="#000000" stroke="#000000" points="1215.0432,-92.4828 1204.4522,-92.7647 1212.9074,-99.149 1215.0432,-92.4828"/>
</g>
<!-- Rsquared_mu_b1 -->
<g id="node11" class="node">
<title>Rsquared_mu_b1</title>
<ellipse fill="none" stroke="#000000" cx="1377.5599" cy="-390.3833" rx="79.8063" ry="37.4533"/>
<text text-anchor="middle" x="1377.5599" y="-401.6833" font-family="Times,serif" font-size="14.00" fill="#000000">Rsquared_mu_b1</text>
<text text-anchor="middle" x="1377.5599" y="-386.6833" font-family="Times,serif" font-size="14.00" fill="#000000">~</text>
<text text-anchor="middle" x="1377.5599" y="-371.6833" font-family="Times,serif" font-size="14.00" fill="#000000">Normal</text>
</g>
<!-- Rsquared_mu_b1&#45;&gt;Rsquared_b1 -->
<g id="edge5" class="edge">
<title>Rsquared_mu_b1&#45;&gt;Rsquared_b1</title>
<path fill="none" stroke="#000000" d="M1346.3349,-355.6969C1337.2725,-345.6299 1327.3852,-334.6466 1318.3496,-324.6094"/>
<polygon fill="#000000" stroke="#000000" points="1320.9257,-322.2398 1311.6339,-317.1493 1315.7232,-326.9232 1320.9257,-322.2398"/>
</g>
<!-- Rsquared_b1&#45;&gt;Rsquared_mu -->
<g id="edge17" class="edge">
<title>Rsquared_b1&#45;&gt;Rsquared_mu</title>
<path fill="none" stroke="#000000" d="M1252.7941,-263.8876C1235.4505,-250.6581 1214.3027,-234.5268 1195.9103,-220.4972"/>
<polygon fill="#000000" stroke="#000000" points="1197.7508,-217.4992 1187.6772,-214.2171 1193.5054,-223.0648 1197.7508,-217.4992"/>
</g>
<!-- Rsquared_sigma1 -->
<g id="node13" class="node">
<title>Rsquared_sigma1</title>
<ellipse fill="none" stroke="#000000" cx="1198.5599" cy="-390.3833" rx="80.7205" ry="37.4533"/>
<text text-anchor="middle" x="1198.5599" y="-401.6833" font-family="Times,serif" font-size="14.00" fill="#000000">Rsquared_sigma1</text>
<text text-anchor="middle" x="1198.5599" y="-386.6833" font-family="Times,serif" font-size="14.00" fill="#000000">~</text>
<text text-anchor="middle" x="1198.5599" y="-371.6833" font-family="Times,serif" font-size="14.00" fill="#000000">HalfNormal</text>
</g>
<!-- Rsquared_sigma1&#45;&gt;Rsquared_b1 -->
<g id="edge6" class="edge">
<title>Rsquared_sigma1&#45;&gt;Rsquared_b1</title>
<path fill="none" stroke="#000000" d="M1229.438,-355.6969C1238.3119,-345.7286 1247.9855,-334.8618 1256.8493,-324.9049"/>
<polygon fill="#000000" stroke="#000000" points="1259.7185,-326.9457 1263.7534,-317.1493 1254.49,-322.2913 1259.7185,-326.9457"/>
</g>
<!-- Rsquared_mu_b2 -->
<g id="node14" class="node">
<title>Rsquared_mu_b2</title>
<ellipse fill="none" stroke="#000000" cx="1918.5599" cy="-390.3833" rx="79.8063" ry="37.4533"/>
<text text-anchor="middle" x="1918.5599" y="-401.6833" font-family="Times,serif" font-size="14.00" fill="#000000">Rsquared_mu_b2</text>
<text text-anchor="middle" x="1918.5599" y="-386.6833" font-family="Times,serif" font-size="14.00" fill="#000000">~</text>
<text text-anchor="middle" x="1918.5599" y="-371.6833" font-family="Times,serif" font-size="14.00" fill="#000000">Normal</text>
</g>
<!-- Rsquared_mu_b2&#45;&gt;Rsquared_b2 -->
<g id="edge10" class="edge">
<title>Rsquared_mu_b2&#45;&gt;Rsquared_b2</title>
<path fill="none" stroke="#000000" d="M1886.9879,-355.6969C1877.8248,-345.6299 1867.8277,-334.6466 1858.6917,-324.6094"/>
<polygon fill="#000000" stroke="#000000" points="1861.2211,-322.1886 1851.9014,-317.1493 1856.0443,-326.9005 1861.2211,-322.1886"/>
</g>
<!-- Rsquared_sigma2 -->
<g id="node15" class="node">
<title>Rsquared_sigma2</title>
<ellipse fill="none" stroke="#000000" cx="1737.5599" cy="-501.3366" rx="80.7205" ry="37.4533"/>
<text text-anchor="middle" x="1737.5599" y="-512.6366" font-family="Times,serif" font-size="14.00" fill="#000000">Rsquared_sigma2</text>
<text text-anchor="middle" x="1737.5599" y="-497.6366" font-family="Times,serif" font-size="14.00" fill="#000000">~</text>
<text text-anchor="middle" x="1737.5599" y="-482.6366" font-family="Times,serif" font-size="14.00" fill="#000000">HalfNormal</text>
</g>
<!-- Rsquared_b2_beta -->
<g id="node16" class="node">
<title>Rsquared_b2_beta</title>
<ellipse fill="none" stroke="#000000" cx="1737.5599" cy="-390.3833" rx="82.9636" ry="37.4533"/>
<text text-anchor="middle" x="1737.5599" y="-401.6833" font-family="Times,serif" font-size="14.00" fill="#000000">Rsquared_b2_beta</text>
<text text-anchor="middle" x="1737.5599" y="-386.6833" font-family="Times,serif" font-size="14.00" fill="#000000">~</text>
<text text-anchor="middle" x="1737.5599" y="-371.6833" font-family="Times,serif" font-size="14.00" fill="#000000">HalfNormal</text>
</g>
<!-- Rsquared_sigma2&#45;&gt;Rsquared_b2_beta -->
<g id="edge7" class="edge">
<title>Rsquared_sigma2&#45;&gt;Rsquared_b2_beta</title>
<path fill="none" stroke="#000000" d="M1737.5599,-463.7729C1737.5599,-455.549 1737.5599,-446.7367 1737.5599,-438.1736"/>
<polygon fill="#000000" stroke="#000000" points="1741.06,-437.9083 1737.5599,-427.9083 1734.06,-437.9084 1741.06,-437.9083"/>
</g>
<!-- Rsquared_b2_beta&#45;&gt;Rsquared_b2 -->
<g id="edge8" class="edge">
<title>Rsquared_b2_beta&#45;&gt;Rsquared_b2</title>
<path fill="none" stroke="#000000" d="M1769.0376,-355.4163C1777.9971,-345.4636 1787.7449,-334.6352 1796.6692,-324.7217"/>
<polygon fill="#000000" stroke="#000000" points="1799.5296,-326.7755 1803.6189,-317.0016 1794.327,-322.0921 1799.5296,-326.7755"/>
</g>
<!-- Rsquared_b2&#45;&gt;Rsquared_mu -->
<g id="edge14" class="edge">
<title>Rsquared_b2&#45;&gt;Rsquared_mu</title>
<path fill="none" stroke="#000000" d="M1782.025,-281.1779C1714.2495,-267.8781 1582.6665,-243.7335 1469.5599,-232.9066 1441.5627,-230.2267 1243.5845,-232.6975 1216.5599,-224.9066 1211.0118,-223.3072 1205.4436,-221.1181 1200.0326,-218.5951"/>
<polygon fill="#000000" stroke="#000000" points="1201.609,-215.4703 1191.106,-214.0789 1198.4489,-221.7164 1201.609,-215.4703"/>
</g>
<!-- Rsquared_M12&#45;&gt;Rsquared_mu -->
<g id="edge15" class="edge">
<title>Rsquared_M12&#45;&gt;Rsquared_mu</title>
<path fill="none" stroke="#000000" d="M346.2858,-284.3114C496.5497,-266.2558 938.6555,-213.1326 1096.0916,-194.2152"/>
<polygon fill="#000000" stroke="#000000" points="1096.975,-197.6343 1106.486,-192.9662 1096.1398,-190.6843 1096.975,-197.6343"/>
</g>
<!-- Rsquared_mu_M12 -->
<g id="node19" class="node">
<title>Rsquared_mu_M12</title>
<ellipse fill="none" stroke="#000000" cx="277.5599" cy="-390.3833" rx="88.2768" ry="37.4533"/>
<text text-anchor="middle" x="277.5599" y="-401.6833" font-family="Times,serif" font-size="14.00" fill="#000000">Rsquared_mu_M12</text>
<text text-anchor="middle" x="277.5599" y="-386.6833" font-family="Times,serif" font-size="14.00" fill="#000000">~</text>
<text text-anchor="middle" x="277.5599" y="-371.6833" font-family="Times,serif" font-size="14.00" fill="#000000">Normal</text>
</g>
<!-- Rsquared_mu_M12&#45;&gt;Rsquared_M12 -->
<g id="edge12" class="edge">
<title>Rsquared_mu_M12&#45;&gt;Rsquared_M12</title>
<path fill="none" stroke="#000000" d="M284.3137,-352.8712C285.8314,-344.4415 287.4401,-335.506 288.9518,-327.1097"/>
<polygon fill="#000000" stroke="#000000" points="292.4076,-327.6677 290.735,-317.2057 285.5183,-326.4273 292.4076,-327.6677"/>
</g>
<!-- Rsquared_mu&#45;&gt;Rsquared_y -->
<g id="edge20" class="edge">
<title>Rsquared_mu&#45;&gt;Rsquared_y</title>
<path fill="none" stroke="#000000" d="M1152.5599,-160.8539C1152.5599,-149.9351 1152.5599,-136.944 1152.5599,-124.4675"/>
<polygon fill="#000000" stroke="#000000" points="1156.06,-124.1649 1152.5599,-114.165 1149.06,-124.165 1156.06,-124.1649"/>
</g>
</g>
</svg>
