<?xml version="1.0" encoding="UTF-8" standalone="no"?>
<!DOCTYPE svg PUBLIC "-//W3C//DTD SVG 1.1//EN"
 "http://www.w3.org/Graphics/SVG/1.1/DTD/svg11.dtd">
<!-- Generated by graphviz version 2.40.1 (20161225.0304)
 -->
<!-- Title: epLsar Pages: 1 -->
<svg width="1942pt" height="563pt"
 viewBox="0.00 0.00 1941.96 562.81" xmlns="http://www.w3.org/2000/svg" xmlns:xlink="http://www.w3.org/1999/xlink">
<g id="graph0" class="graph" transform="scale(1 1) rotate(0) translate(4 558.8133)">
<title>epLsar</title>
<polygon fill="#ffffff" stroke="transparent" points="-4,4 -4,-558.8133 1937.9569,-558.8133 1937.9569,4 -4,4"/>
<g id="clust1" class="cluster">
<title>cluster2</title>
<path fill="none" stroke="#000000" d="M478.2965,-232.9066C478.2965,-232.9066 768.2965,-232.9066 768.2965,-232.9066 774.2965,-232.9066 780.2965,-238.9066 780.2965,-244.9066 780.2965,-244.9066 780.2965,-423.86 780.2965,-423.86 780.2965,-429.86 774.2965,-435.86 768.2965,-435.86 768.2965,-435.86 478.2965,-435.86 478.2965,-435.86 472.2965,-435.86 466.2965,-429.86 466.2965,-423.86 466.2965,-423.86 466.2965,-244.9066 466.2965,-244.9066 466.2965,-238.9066 472.2965,-232.9066 478.2965,-232.9066"/>
<text text-anchor="middle" x="768.7965" y="-240.7066" font-family="Times,serif" font-size="14.00" fill="#000000">2</text>
</g>
<g id="clust2" class="cluster">
<title>cluster11</title>
<path fill="none" stroke="#000000" d="M954.2965,-232.9066C954.2965,-232.9066 1248.2965,-232.9066 1248.2965,-232.9066 1254.2965,-232.9066 1260.2965,-238.9066 1260.2965,-244.9066 1260.2965,-244.9066 1260.2965,-534.8133 1260.2965,-534.8133 1260.2965,-540.8133 1254.2965,-546.8133 1248.2965,-546.8133 1248.2965,-546.8133 954.2965,-546.8133 954.2965,-546.8133 948.2965,-546.8133 942.2965,-540.8133 942.2965,-534.8133 942.2965,-534.8133 942.2965,-244.9066 942.2965,-244.9066 942.2965,-238.9066 948.2965,-232.9066 954.2965,-232.9066"/>
<text text-anchor="middle" x="1245.2965" y="-240.7066" font-family="Times,serif" font-size="14.00" fill="#000000">11</text>
</g>
<g id="clust3" class="cluster">
<title>cluster2 x 11</title>
<path fill="none" stroke="#000000" d="M1434.2965,-232.9066C1434.2965,-232.9066 1582.2965,-232.9066 1582.2965,-232.9066 1588.2965,-232.9066 1594.2965,-238.9066 1594.2965,-244.9066 1594.2965,-244.9066 1594.2965,-423.86 1594.2965,-423.86 1594.2965,-429.86 1588.2965,-435.86 1582.2965,-435.86 1582.2965,-435.86 1434.2965,-435.86 1434.2965,-435.86 1428.2965,-435.86 1422.2965,-429.86 1422.2965,-423.86 1422.2965,-423.86 1422.2965,-244.9066 1422.2965,-244.9066 1422.2965,-238.9066 1428.2965,-232.9066 1434.2965,-232.9066"/>
<text text-anchor="middle" x="1568.7965" y="-240.7066" font-family="Times,serif" font-size="14.00" fill="#000000">2 x 11</text>
</g>
<g id="clust4" class="cluster">
<title>cluster230</title>
<path fill="none" stroke="#000000" d="M869.2965,-8C869.2965,-8 955.2965,-8 955.2965,-8 961.2965,-8 967.2965,-14 967.2965,-20 967.2965,-20 967.2965,-209.93 967.2965,-209.93 967.2965,-215.93 961.2965,-221.93 955.2965,-221.93 955.2965,-221.93 869.2965,-221.93 869.2965,-221.93 863.2965,-221.93 857.2965,-215.93 857.2965,-209.93 857.2965,-209.93 857.2965,-20 857.2965,-20 857.2965,-14 863.2965,-8 869.2965,-8"/>
<text text-anchor="middle" x="948.7965" y="-15.8" font-family="Times,serif" font-size="14.00" fill="#000000">230</text>
</g>
<!-- epLsar_nuY -->
<g id="node1" class="node">
<title>epLsar_nuY</title>
<ellipse fill="none" stroke="#000000" cx="790.2965" cy="-187.43" rx="58.8803" ry="37.4533"/>
<text text-anchor="middle" x="790.2965" y="-198.73" font-family="Times,serif" font-size="14.00" fill="#000000">epLsar_nuY</text>
<text text-anchor="middle" x="790.2965" y="-183.73" font-family="Times,serif" font-size="14.00" fill="#000000">~</text>
<text text-anchor="middle" x="790.2965" y="-168.73" font-family="Times,serif" font-size="14.00" fill="#000000">Exponential</text>
</g>
<!-- epLsar_y -->
<g id="node21" class="node">
<title>epLsar_y</title>
<ellipse fill="#d3d3d3" stroke="#000000" cx="912.2965" cy="-76.4767" rx="47.2526" ry="37.4533"/>
<text text-anchor="middle" x="912.2965" y="-87.7767" font-family="Times,serif" font-size="14.00" fill="#000000">epLsar_y</text>
<text text-anchor="middle" x="912.2965" y="-72.7767" font-family="Times,serif" font-size="14.00" fill="#000000">~</text>
<text text-anchor="middle" x="912.2965" y="-57.7767" font-family="Times,serif" font-size="14.00" fill="#000000">StudentT</text>
</g>
<!-- epLsar_nuY&#45;&gt;epLsar_y -->
<g id="edge18" class="edge">
<title>epLsar_nuY&#45;&gt;epLsar_y</title>
<path fill="none" stroke="#000000" d="M824.2803,-156.5233C839.5491,-142.637 857.648,-126.1769 873.4512,-111.8046"/>
<polygon fill="#000000" stroke="#000000" points="875.959,-114.2549 881.0022,-104.9373 871.2493,-109.0762 875.959,-114.2549"/>
</g>
<!-- epLsar_M12_dist -->
<g id="node2" class="node">
<title>epLsar_M12_dist</title>
<ellipse fill="none" stroke="#000000" cx="1684.2965" cy="-390.3833" rx="79.8063" ry="37.4533"/>
<text text-anchor="middle" x="1684.2965" y="-401.6833" font-family="Times,serif" font-size="14.00" fill="#000000">epLsar_M12_dist</text>
<text text-anchor="middle" x="1684.2965" y="-386.6833" font-family="Times,serif" font-size="14.00" fill="#000000">~</text>
<text text-anchor="middle" x="1684.2965" y="-371.6833" font-family="Times,serif" font-size="14.00" fill="#000000">Normal</text>
</g>
<!-- epLsar_M12 -->
<g id="node19" class="node">
<title>epLsar_M12</title>
<polygon fill="none" stroke="#000000" points="1569.7965,-316.9066 1478.7965,-316.9066 1478.7965,-263.9066 1569.7965,-263.9066 1569.7965,-316.9066"/>
<text text-anchor="middle" x="1524.2965" y="-301.7066" font-family="Times,serif" font-size="14.00" fill="#000000">epLsar_M12</text>
<text text-anchor="middle" x="1524.2965" y="-286.7066" font-family="Times,serif" font-size="14.00" fill="#000000">~</text>
<text text-anchor="middle" x="1524.2965" y="-271.7066" font-family="Times,serif" font-size="14.00" fill="#000000">Deterministic</text>
</g>
<!-- epLsar_M12_dist&#45;&gt;epLsar_M12 -->
<g id="edge11" class="edge">
<title>epLsar_M12_dist&#45;&gt;epLsar_M12</title>
<path fill="none" stroke="#000000" d="M1636.2912,-360.387C1617.1335,-348.4163 1595.0451,-334.6142 1575.5741,-322.4477"/>
<polygon fill="#000000" stroke="#000000" points="1577.1674,-319.3162 1566.8321,-316.9852 1573.458,-325.2526 1577.1674,-319.3162"/>
</g>
<!-- epLsar_mu_b0 -->
<g id="node3" class="node">
<title>epLsar_mu_b0</title>
<ellipse fill="none" stroke="#000000" cx="69.2965" cy="-390.3833" rx="69.0935" ry="37.4533"/>
<text text-anchor="middle" x="69.2965" y="-401.6833" font-family="Times,serif" font-size="14.00" fill="#000000">epLsar_mu_b0</text>
<text text-anchor="middle" x="69.2965" y="-386.6833" font-family="Times,serif" font-size="14.00" fill="#000000">~</text>
<text text-anchor="middle" x="69.2965" y="-371.6833" font-family="Times,serif" font-size="14.00" fill="#000000">Normal</text>
</g>
<!-- epLsar_b0 -->
<g id="node6" class="node">
<title>epLsar_b0</title>
<polygon fill="none" stroke="#000000" points="352.7965,-316.9066 261.7965,-316.9066 261.7965,-263.9066 352.7965,-263.9066 352.7965,-316.9066"/>
<text text-anchor="middle" x="307.2965" y="-301.7066" font-family="Times,serif" font-size="14.00" fill="#000000">epLsar_b0</text>
<text text-anchor="middle" x="307.2965" y="-286.7066" font-family="Times,serif" font-size="14.00" fill="#000000">~</text>
<text text-anchor="middle" x="307.2965" y="-271.7066" font-family="Times,serif" font-size="14.00" fill="#000000">Deterministic</text>
</g>
<!-- epLsar_mu_b0&#45;&gt;epLsar_b0 -->
<g id="edge1" class="edge">
<title>epLsar_mu_b0&#45;&gt;epLsar_b0</title>
<path fill="none" stroke="#000000" d="M120.6497,-365.0338C129.485,-360.8669 138.6166,-356.6807 147.2965,-352.9066 181.8709,-337.8733 221.3169,-322.4459 252.3912,-310.6798"/>
<polygon fill="#000000" stroke="#000000" points="253.6295,-313.9535 261.7515,-307.1503 251.1597,-307.4037 253.6295,-313.9535"/>
</g>
<!-- epLsar_sigma12 -->
<g id="node4" class="node">
<title>epLsar_sigma12</title>
<ellipse fill="none" stroke="#000000" cx="1858.2965" cy="-390.3833" rx="75.8212" ry="37.4533"/>
<text text-anchor="middle" x="1858.2965" y="-401.6833" font-family="Times,serif" font-size="14.00" fill="#000000">epLsar_sigma12</text>
<text text-anchor="middle" x="1858.2965" y="-386.6833" font-family="Times,serif" font-size="14.00" fill="#000000">~</text>
<text text-anchor="middle" x="1858.2965" y="-371.6833" font-family="Times,serif" font-size="14.00" fill="#000000">HalfNormal</text>
</g>
<!-- epLsar_sigma12&#45;&gt;epLsar_M12 -->
<g id="edge13" class="edge">
<title>epLsar_sigma12&#45;&gt;epLsar_M12</title>
<path fill="none" stroke="#000000" d="M1803.0524,-364.4163C1793.2531,-360.2746 1783.0592,-356.2571 1773.2965,-352.9066 1708.0853,-330.527 1630.7678,-312.3733 1579.784,-301.5097"/>
<polygon fill="#000000" stroke="#000000" points="1580.4569,-298.0747 1569.9497,-299.4351 1579.0119,-304.924 1580.4569,-298.0747"/>
</g>
<!-- epLsar_b1_dist -->
<g id="node5" class="node">
<title>epLsar_b1_dist</title>
<ellipse fill="none" stroke="#000000" cx="861.2965" cy="-390.3833" rx="70.922" ry="37.4533"/>
<text text-anchor="middle" x="861.2965" y="-401.6833" font-family="Times,serif" font-size="14.00" fill="#000000">epLsar_b1_dist</text>
<text text-anchor="middle" x="861.2965" y="-386.6833" font-family="Times,serif" font-size="14.00" fill="#000000">~</text>
<text text-anchor="middle" x="861.2965" y="-371.6833" font-family="Times,serif" font-size="14.00" fill="#000000">Normal</text>
</g>
<!-- epLsar_b1 -->
<g id="node12" class="node">
<title>epLsar_b1</title>
<polygon fill="none" stroke="#000000" points="759.7965,-316.9066 668.7965,-316.9066 668.7965,-263.9066 759.7965,-263.9066 759.7965,-316.9066"/>
<text text-anchor="middle" x="714.2965" y="-301.7066" font-family="Times,serif" font-size="14.00" fill="#000000">epLsar_b1</text>
<text text-anchor="middle" x="714.2965" y="-286.7066" font-family="Times,serif" font-size="14.00" fill="#000000">~</text>
<text text-anchor="middle" x="714.2965" y="-271.7066" font-family="Times,serif" font-size="14.00" fill="#000000">Deterministic</text>
</g>
<!-- epLsar_b1_dist&#45;&gt;epLsar_b1 -->
<g id="edge5" class="edge">
<title>epLsar_b1_dist&#45;&gt;epLsar_b1</title>
<path fill="none" stroke="#000000" d="M817.5896,-360.6577C800.1343,-348.7861 779.9803,-335.0791 762.1345,-322.9419"/>
<polygon fill="#000000" stroke="#000000" points="763.8183,-319.8543 753.5811,-317.1247 759.8816,-325.6425 763.8183,-319.8543"/>
</g>
<!-- epLsar_mu -->
<g id="node20" class="node">
<title>epLsar_mu</title>
<polygon fill="none" stroke="#000000" points="957.7965,-213.93 866.7965,-213.93 866.7965,-160.93 957.7965,-160.93 957.7965,-213.93"/>
<text text-anchor="middle" x="912.2965" y="-198.73" font-family="Times,serif" font-size="14.00" fill="#000000">epLsar_mu</text>
<text text-anchor="middle" x="912.2965" y="-183.73" font-family="Times,serif" font-size="14.00" fill="#000000">~</text>
<text text-anchor="middle" x="912.2965" y="-168.73" font-family="Times,serif" font-size="14.00" fill="#000000">Deterministic</text>
</g>
<!-- epLsar_b0&#45;&gt;epLsar_mu -->
<g id="edge14" class="edge">
<title>epLsar_b0&#45;&gt;epLsar_mu</title>
<path fill="none" stroke="#000000" d="M352.9327,-268.8589C383.2075,-255.7323 424.2299,-240.1374 462.2965,-232.9066 505.5323,-224.6939 816.4318,-238.4764 858.2965,-224.9066 862.8728,-223.4233 867.4062,-221.4123 871.7868,-219.0875"/>
<polygon fill="#000000" stroke="#000000" points="873.685,-222.0316 880.5286,-213.9436 870.135,-215.9985 873.685,-222.0316"/>
</g>
<!-- epLsar_sigmaY -->
<g id="node7" class="node">
<title>epLsar_sigmaY</title>
<ellipse fill="none" stroke="#000000" cx="1048.2965" cy="-187.43" rx="72.6644" ry="37.4533"/>
<text text-anchor="middle" x="1048.2965" y="-198.73" font-family="Times,serif" font-size="14.00" fill="#000000">epLsar_sigmaY</text>
<text text-anchor="middle" x="1048.2965" y="-183.73" font-family="Times,serif" font-size="14.00" fill="#000000">~</text>
<text text-anchor="middle" x="1048.2965" y="-168.73" font-family="Times,serif" font-size="14.00" fill="#000000">Gamma</text>
</g>
<!-- epLsar_sigmaY&#45;&gt;epLsar_y -->
<g id="edge20" class="edge">
<title>epLsar_sigmaY&#45;&gt;epLsar_y</title>
<path fill="none" stroke="#000000" d="M1009.3243,-155.6352C991.763,-141.3081 971.0219,-124.3868 953.2334,-109.8744"/>
<polygon fill="#000000" stroke="#000000" points="955.2512,-107.0035 945.2901,-103.394 950.8261,-112.4275 955.2512,-107.0035"/>
</g>
<!-- epLsar_b2_dist -->
<g id="node8" class="node">
<title>epLsar_b2_dist</title>
<ellipse fill="none" stroke="#000000" cx="1341.2965" cy="-390.3833" rx="70.922" ry="37.4533"/>
<text text-anchor="middle" x="1341.2965" y="-401.6833" font-family="Times,serif" font-size="14.00" fill="#000000">epLsar_b2_dist</text>
<text text-anchor="middle" x="1341.2965" y="-386.6833" font-family="Times,serif" font-size="14.00" fill="#000000">~</text>
<text text-anchor="middle" x="1341.2965" y="-371.6833" font-family="Times,serif" font-size="14.00" fill="#000000">Gumbel</text>
</g>
<!-- epLsar_b2 -->
<g id="node17" class="node">
<title>epLsar_b2</title>
<polygon fill="none" stroke="#000000" points="1144.7965,-316.9066 1053.7965,-316.9066 1053.7965,-263.9066 1144.7965,-263.9066 1144.7965,-316.9066"/>
<text text-anchor="middle" x="1099.2965" y="-301.7066" font-family="Times,serif" font-size="14.00" fill="#000000">epLsar_b2</text>
<text text-anchor="middle" x="1099.2965" y="-286.7066" font-family="Times,serif" font-size="14.00" fill="#000000">~</text>
<text text-anchor="middle" x="1099.2965" y="-271.7066" font-family="Times,serif" font-size="14.00" fill="#000000">Deterministic</text>
</g>
<!-- epLsar_b2_dist&#45;&gt;epLsar_b2 -->
<g id="edge10" class="edge">
<title>epLsar_b2_dist&#45;&gt;epLsar_b2</title>
<path fill="none" stroke="#000000" d="M1289.8219,-364.5327C1281.3531,-360.5103 1272.6228,-356.501 1264.2965,-352.9066 1228.2326,-337.3382 1186.8974,-321.6845 1154.6209,-309.9372"/>
<polygon fill="#000000" stroke="#000000" points="1155.505,-306.535 1144.9108,-306.4214 1153.1218,-313.1168 1155.505,-306.535"/>
</g>
<!-- epLsar_sigma0 -->
<g id="node9" class="node">
<title>epLsar_sigma0</title>
<ellipse fill="none" stroke="#000000" cx="227.2965" cy="-390.3833" rx="70.922" ry="37.4533"/>
<text text-anchor="middle" x="227.2965" y="-401.6833" font-family="Times,serif" font-size="14.00" fill="#000000">epLsar_sigma0</text>
<text text-anchor="middle" x="227.2965" y="-386.6833" font-family="Times,serif" font-size="14.00" fill="#000000">~</text>
<text text-anchor="middle" x="227.2965" y="-371.6833" font-family="Times,serif" font-size="14.00" fill="#000000">HalfNormal</text>
</g>
<!-- epLsar_sigma0&#45;&gt;epLsar_b0 -->
<g id="edge3" class="edge">
<title>epLsar_sigma0&#45;&gt;epLsar_b0</title>
<path fill="none" stroke="#000000" d="M255.0521,-355.6969C262.9496,-345.8273 271.5519,-335.0769 279.4545,-325.2009"/>
<polygon fill="#000000" stroke="#000000" points="282.3823,-327.144 285.8974,-317.1493 276.9167,-322.7705 282.3823,-327.144"/>
</g>
<!-- epLsar_b0_dist -->
<g id="node10" class="node">
<title>epLsar_b0_dist</title>
<ellipse fill="none" stroke="#000000" cx="386.2965" cy="-390.3833" rx="70.922" ry="37.4533"/>
<text text-anchor="middle" x="386.2965" y="-401.6833" font-family="Times,serif" font-size="14.00" fill="#000000">epLsar_b0_dist</text>
<text text-anchor="middle" x="386.2965" y="-386.6833" font-family="Times,serif" font-size="14.00" fill="#000000">~</text>
<text text-anchor="middle" x="386.2965" y="-371.6833" font-family="Times,serif" font-size="14.00" fill="#000000">Normal</text>
</g>
<!-- epLsar_b0_dist&#45;&gt;epLsar_b0 -->
<g id="edge2" class="edge">
<title>epLsar_b0_dist&#45;&gt;epLsar_b0</title>
<path fill="none" stroke="#000000" d="M358.8878,-355.6969C351.089,-345.8273 342.5942,-335.0769 334.7904,-325.2009"/>
<polygon fill="#000000" stroke="#000000" points="337.3741,-322.8254 328.4281,-317.1493 331.8818,-327.1654 337.3741,-322.8254"/>
</g>
<!-- epLsar_mu_b1 -->
<g id="node11" class="node">
<title>epLsar_mu_b1</title>
<ellipse fill="none" stroke="#000000" cx="703.2965" cy="-390.3833" rx="69.0935" ry="37.4533"/>
<text text-anchor="middle" x="703.2965" y="-401.6833" font-family="Times,serif" font-size="14.00" fill="#000000">epLsar_mu_b1</text>
<text text-anchor="middle" x="703.2965" y="-386.6833" font-family="Times,serif" font-size="14.00" fill="#000000">~</text>
<text text-anchor="middle" x="703.2965" y="-371.6833" font-family="Times,serif" font-size="14.00" fill="#000000">Normal</text>
</g>
<!-- epLsar_mu_b1&#45;&gt;epLsar_b1 -->
<g id="edge6" class="edge">
<title>epLsar_mu_b1&#45;&gt;epLsar_b1</title>
<path fill="none" stroke="#000000" d="M707.4238,-352.8712C708.3411,-344.5341 709.3128,-335.7023 710.2277,-327.3867"/>
<polygon fill="#000000" stroke="#000000" points="713.7331,-327.5286 711.3479,-317.2057 706.7751,-326.7629 713.7331,-327.5286"/>
</g>
<!-- epLsar_b1&#45;&gt;epLsar_mu -->
<g id="edge16" class="edge">
<title>epLsar_b1&#45;&gt;epLsar_mu</title>
<path fill="none" stroke="#000000" d="M760.086,-272.074C788.9117,-259.9292 826.5386,-242.955 858.2965,-224.9066 861.3147,-223.1913 864.3782,-221.3545 867.4335,-219.4492"/>
<polygon fill="#000000" stroke="#000000" points="869.4685,-222.3016 875.9782,-213.9425 865.6765,-216.4176 869.4685,-222.3016"/>
</g>
<!-- epLsar_sigma1 -->
<g id="node13" class="node">
<title>epLsar_sigma1</title>
<ellipse fill="none" stroke="#000000" cx="545.2965" cy="-390.3833" rx="70.922" ry="37.4533"/>
<text text-anchor="middle" x="545.2965" y="-401.6833" font-family="Times,serif" font-size="14.00" fill="#000000">epLsar_sigma1</text>
<text text-anchor="middle" x="545.2965" y="-386.6833" font-family="Times,serif" font-size="14.00" fill="#000000">~</text>
<text text-anchor="middle" x="545.2965" y="-371.6833" font-family="Times,serif" font-size="14.00" fill="#000000">HalfNormal</text>
</g>
<!-- epLsar_sigma1&#45;&gt;epLsar_b1 -->
<g id="edge4" class="edge">
<title>epLsar_sigma1&#45;&gt;epLsar_b1</title>
<path fill="none" stroke="#000000" d="M592.8221,-362.2682C613.9306,-349.7809 638.8734,-335.0252 660.6481,-322.1438"/>
<polygon fill="#000000" stroke="#000000" points="662.6248,-325.0411 669.4495,-316.9371 659.0607,-319.0163 662.6248,-325.0411"/>
</g>
<!-- epLsar_b2_beta -->
<g id="node14" class="node">
<title>epLsar_b2_beta</title>
<ellipse fill="none" stroke="#000000" cx="1179.2965" cy="-390.3833" rx="72.6644" ry="37.4533"/>
<text text-anchor="middle" x="1179.2965" y="-401.6833" font-family="Times,serif" font-size="14.00" fill="#000000">epLsar_b2_beta</text>
<text text-anchor="middle" x="1179.2965" y="-386.6833" font-family="Times,serif" font-size="14.00" fill="#000000">~</text>
<text text-anchor="middle" x="1179.2965" y="-371.6833" font-family="Times,serif" font-size="14.00" fill="#000000">HalfNormal</text>
</g>
<!-- epLsar_b2_beta&#45;&gt;epLsar_b2 -->
<g id="edge8" class="edge">
<title>epLsar_b2_beta&#45;&gt;epLsar_b2</title>
<path fill="none" stroke="#000000" d="M1151.5409,-355.6969C1143.6433,-345.8273 1135.0411,-335.0769 1127.1384,-325.2009"/>
<polygon fill="#000000" stroke="#000000" points="1129.6762,-322.7705 1120.6956,-317.1493 1124.2106,-327.144 1129.6762,-322.7705"/>
</g>
<!-- epLsar_sigma2 -->
<g id="node15" class="node">
<title>epLsar_sigma2</title>
<ellipse fill="none" stroke="#000000" cx="1179.2965" cy="-501.3366" rx="70.922" ry="37.4533"/>
<text text-anchor="middle" x="1179.2965" y="-512.6366" font-family="Times,serif" font-size="14.00" fill="#000000">epLsar_sigma2</text>
<text text-anchor="middle" x="1179.2965" y="-497.6366" font-family="Times,serif" font-size="14.00" fill="#000000">~</text>
<text text-anchor="middle" x="1179.2965" y="-482.6366" font-family="Times,serif" font-size="14.00" fill="#000000">HalfNormal</text>
</g>
<!-- epLsar_sigma2&#45;&gt;epLsar_b2_beta -->
<g id="edge7" class="edge">
<title>epLsar_sigma2&#45;&gt;epLsar_b2_beta</title>
<path fill="none" stroke="#000000" d="M1179.2965,-463.7729C1179.2965,-455.549 1179.2965,-446.7367 1179.2965,-438.1736"/>
<polygon fill="#000000" stroke="#000000" points="1182.7966,-437.9083 1179.2965,-427.9083 1175.7966,-437.9084 1182.7966,-437.9083"/>
</g>
<!-- epLsar_mu_b2 -->
<g id="node16" class="node">
<title>epLsar_mu_b2</title>
<ellipse fill="none" stroke="#000000" cx="1019.2965" cy="-390.3833" rx="69.0935" ry="37.4533"/>
<text text-anchor="middle" x="1019.2965" y="-401.6833" font-family="Times,serif" font-size="14.00" fill="#000000">epLsar_mu_b2</text>
<text text-anchor="middle" x="1019.2965" y="-386.6833" font-family="Times,serif" font-size="14.00" fill="#000000">~</text>
<text text-anchor="middle" x="1019.2965" y="-371.6833" font-family="Times,serif" font-size="14.00" fill="#000000">Normal</text>
</g>
<!-- epLsar_mu_b2&#45;&gt;epLsar_b2 -->
<g id="edge9" class="edge">
<title>epLsar_mu_b2&#45;&gt;epLsar_b2</title>
<path fill="none" stroke="#000000" d="M1046.8279,-355.977C1054.8879,-345.9044 1063.6984,-334.8939 1071.7588,-324.8207"/>
<polygon fill="#000000" stroke="#000000" points="1074.5185,-326.9738 1078.0335,-316.9791 1069.0529,-322.6003 1074.5185,-326.9738"/>
</g>
<!-- epLsar_b2&#45;&gt;epLsar_mu -->
<g id="edge15" class="edge">
<title>epLsar_b2&#45;&gt;epLsar_mu</title>
<path fill="none" stroke="#000000" d="M1053.7818,-270.0507C1027.6763,-257.8699 994.5751,-241.5575 966.2965,-224.9066 963.4447,-223.2275 960.5462,-221.4479 957.6479,-219.6121"/>
<polygon fill="#000000" stroke="#000000" points="959.291,-216.5053 949.0014,-213.9804 955.4706,-222.3709 959.291,-216.5053"/>
</g>
<!-- epLsar_mu_M12 -->
<g id="node18" class="node">
<title>epLsar_mu_M12</title>
<ellipse fill="none" stroke="#000000" cx="1508.2965" cy="-390.3833" rx="78.4777" ry="37.4533"/>
<text text-anchor="middle" x="1508.2965" y="-401.6833" font-family="Times,serif" font-size="14.00" fill="#000000">epLsar_mu_M12</text>
<text text-anchor="middle" x="1508.2965" y="-386.6833" font-family="Times,serif" font-size="14.00" fill="#000000">~</text>
<text text-anchor="middle" x="1508.2965" y="-371.6833" font-family="Times,serif" font-size="14.00" fill="#000000">Normal</text>
</g>
<!-- epLsar_mu_M12&#45;&gt;epLsar_M12 -->
<g id="edge12" class="edge">
<title>epLsar_mu_M12&#45;&gt;epLsar_M12</title>
<path fill="none" stroke="#000000" d="M1514.2998,-352.8712C1515.6489,-344.4415 1517.0789,-335.506 1518.4226,-327.1097"/>
<polygon fill="#000000" stroke="#000000" points="1521.8833,-327.6332 1520.0076,-317.2057 1514.9712,-326.527 1521.8833,-327.6332"/>
</g>
<!-- epLsar_M12&#45;&gt;epLsar_mu -->
<g id="edge17" class="edge">
<title>epLsar_M12&#45;&gt;epLsar_mu</title>
<path fill="none" stroke="#000000" d="M1478.7287,-277.553C1427.1749,-263.6635 1340.4648,-242.2645 1264.2965,-232.9066 1231.4206,-228.8676 997.7715,-235.2244 966.2965,-224.9066 961.7895,-223.4292 957.3226,-221.4437 953.0016,-219.154"/>
<polygon fill="#000000" stroke="#000000" points="954.7675,-216.1322 944.3709,-214.0922 951.2262,-222.1703 954.7675,-216.1322"/>
</g>
<!-- epLsar_mu&#45;&gt;epLsar_y -->
<g id="edge19" class="edge">
<title>epLsar_mu&#45;&gt;epLsar_y</title>
<path fill="none" stroke="#000000" d="M912.2965,-160.8539C912.2965,-149.9351 912.2965,-136.944 912.2965,-124.4675"/>
<polygon fill="#000000" stroke="#000000" points="915.7966,-124.1649 912.2965,-114.165 908.7966,-124.165 915.7966,-124.1649"/>
</g>
</g>
</svg>
