<?xml version="1.0" encoding="UTF-8" standalone="no"?>
<!DOCTYPE svg PUBLIC "-//W3C//DTD SVG 1.1//EN"
 "http://www.w3.org/Graphics/SVG/1.1/DTD/svg11.dtd">
<!-- Generated by graphviz version 2.40.1 (20161225.0304)
 -->
<!-- Title: HAsfc9 Pages: 1 -->
<svg width="1981pt" height="452pt"
 viewBox="0.00 0.00 1981.49 451.86" xmlns="http://www.w3.org/2000/svg" xmlns:xlink="http://www.w3.org/1999/xlink">
<g id="graph0" class="graph" transform="scale(1 1) rotate(0) translate(4 447.86)">
<title>HAsfc9</title>
<polygon fill="#ffffff" stroke="transparent" points="-4,4 -4,-447.86 1977.4924,-447.86 1977.4924,4 -4,4"/>
<g id="clust1" class="cluster">
<title>cluster2</title>
<path fill="none" stroke="#000000" d="M501.2462,-232.9066C501.2462,-232.9066 807.2462,-232.9066 807.2462,-232.9066 813.2462,-232.9066 819.2462,-238.9066 819.2462,-244.9066 819.2462,-244.9066 819.2462,-423.86 819.2462,-423.86 819.2462,-429.86 813.2462,-435.86 807.2462,-435.86 807.2462,-435.86 501.2462,-435.86 501.2462,-435.86 495.2462,-435.86 489.2462,-429.86 489.2462,-423.86 489.2462,-423.86 489.2462,-244.9066 489.2462,-244.9066 489.2462,-238.9066 495.2462,-232.9066 501.2462,-232.9066"/>
<text text-anchor="middle" x="807.7462" y="-240.7066" font-family="Times,serif" font-size="14.00" fill="#000000">2</text>
</g>
<g id="clust2" class="cluster">
<title>cluster11</title>
<path fill="none" stroke="#000000" d="M999.2462,-232.9066C999.2462,-232.9066 1305.2462,-232.9066 1305.2462,-232.9066 1311.2462,-232.9066 1317.2462,-238.9066 1317.2462,-244.9066 1317.2462,-244.9066 1317.2462,-423.86 1317.2462,-423.86 1317.2462,-429.86 1311.2462,-435.86 1305.2462,-435.86 1305.2462,-435.86 999.2462,-435.86 999.2462,-435.86 993.2462,-435.86 987.2462,-429.86 987.2462,-423.86 987.2462,-423.86 987.2462,-244.9066 987.2462,-244.9066 987.2462,-238.9066 993.2462,-232.9066 999.2462,-232.9066"/>
<text text-anchor="middle" x="1302.2462" y="-240.7066" font-family="Times,serif" font-size="14.00" fill="#000000">11</text>
</g>
<g id="clust3" class="cluster">
<title>cluster115</title>
<path fill="none" stroke="#000000" d="M1497.2462,-232.9066C1497.2462,-232.9066 1803.2462,-232.9066 1803.2462,-232.9066 1809.2462,-232.9066 1815.2462,-238.9066 1815.2462,-244.9066 1815.2462,-244.9066 1815.2462,-423.86 1815.2462,-423.86 1815.2462,-429.86 1809.2462,-435.86 1803.2462,-435.86 1803.2462,-435.86 1497.2462,-435.86 1497.2462,-435.86 1491.2462,-435.86 1485.2462,-429.86 1485.2462,-423.86 1485.2462,-423.86 1485.2462,-244.9066 1485.2462,-244.9066 1485.2462,-238.9066 1491.2462,-232.9066 1497.2462,-232.9066"/>
<text text-anchor="middle" x="1796.7462" y="-240.7066" font-family="Times,serif" font-size="14.00" fill="#000000">115</text>
</g>
<g id="clust4" class="cluster">
<title>cluster230</title>
<path fill="none" stroke="#000000" d="M911.2462,-8C911.2462,-8 1005.2462,-8 1005.2462,-8 1011.2462,-8 1017.2462,-14 1017.2462,-20 1017.2462,-20 1017.2462,-209.93 1017.2462,-209.93 1017.2462,-215.93 1011.2462,-221.93 1005.2462,-221.93 1005.2462,-221.93 911.2462,-221.93 911.2462,-221.93 905.2462,-221.93 899.2462,-215.93 899.2462,-209.93 899.2462,-209.93 899.2462,-20 899.2462,-20 899.2462,-14 905.2462,-8 911.2462,-8"/>
<text text-anchor="middle" x="998.7462" y="-15.8" font-family="Times,serif" font-size="14.00" fill="#000000">230</text>
</g>
<!-- HAsfc9_sigmaY -->
<g id="node1" class="node">
<title>HAsfc9_sigmaY</title>
<ellipse fill="none" stroke="#000000" cx="815.2462" cy="-187.43" rx="76.2353" ry="37.4533"/>
<text text-anchor="middle" x="815.2462" y="-198.73" font-family="Times,serif" font-size="14.00" fill="#000000">HAsfc9_sigmaY</text>
<text text-anchor="middle" x="815.2462" y="-183.73" font-family="Times,serif" font-size="14.00" fill="#000000">~</text>
<text text-anchor="middle" x="815.2462" y="-168.73" font-family="Times,serif" font-size="14.00" fill="#000000">Gamma</text>
</g>
<!-- HAsfc9_y -->
<g id="node19" class="node">
<title>HAsfc9_y</title>
<ellipse fill="#d3d3d3" stroke="#000000" cx="958.2462" cy="-76.4767" rx="50.8235" ry="37.4533"/>
<text text-anchor="middle" x="958.2462" y="-87.7767" font-family="Times,serif" font-size="14.00" fill="#000000">HAsfc9_y</text>
<text text-anchor="middle" x="958.2462" y="-72.7767" font-family="Times,serif" font-size="14.00" fill="#000000">~</text>
<text text-anchor="middle" x="958.2462" y="-57.7767" font-family="Times,serif" font-size="14.00" fill="#000000">StudentT</text>
</g>
<!-- HAsfc9_sigmaY&#45;&gt;HAsfc9_y -->
<g id="edge18" class="edge">
<title>HAsfc9_sigmaY&#45;&gt;HAsfc9_y</title>
<path fill="none" stroke="#000000" d="M856.2243,-155.6352C874.6288,-141.3552 896.355,-124.4979 915.0179,-110.0174"/>
<polygon fill="#000000" stroke="#000000" points="917.3262,-112.6564 923.0813,-103.761 913.035,-107.1259 917.3262,-112.6564"/>
</g>
<!-- HAsfc9_b0_dist -->
<g id="node2" class="node">
<title>HAsfc9_b0_dist</title>
<ellipse fill="none" stroke="#000000" cx="74.2462" cy="-390.3833" rx="74.4932" ry="37.4533"/>
<text text-anchor="middle" x="74.2462" y="-401.6833" font-family="Times,serif" font-size="14.00" fill="#000000">HAsfc9_b0_dist</text>
<text text-anchor="middle" x="74.2462" y="-386.6833" font-family="Times,serif" font-size="14.00" fill="#000000">~</text>
<text text-anchor="middle" x="74.2462" y="-371.6833" font-family="Times,serif" font-size="14.00" fill="#000000">Normal</text>
</g>
<!-- HAsfc9_b0 -->
<g id="node7" class="node">
<title>HAsfc9_b0</title>
<polygon fill="none" stroke="#000000" points="368.7462,-316.9066 277.7462,-316.9066 277.7462,-263.9066 368.7462,-263.9066 368.7462,-316.9066"/>
<text text-anchor="middle" x="323.2462" y="-301.7066" font-family="Times,serif" font-size="14.00" fill="#000000">HAsfc9_b0</text>
<text text-anchor="middle" x="323.2462" y="-286.7066" font-family="Times,serif" font-size="14.00" fill="#000000">~</text>
<text text-anchor="middle" x="323.2462" y="-271.7066" font-family="Times,serif" font-size="14.00" fill="#000000">Deterministic</text>
</g>
<!-- HAsfc9_b0_dist&#45;&gt;HAsfc9_b0 -->
<g id="edge1" class="edge">
<title>HAsfc9_b0_dist&#45;&gt;HAsfc9_b0</title>
<path fill="none" stroke="#000000" d="M129.3928,-364.89C138.6485,-360.7822 148.1876,-356.6525 157.2462,-352.9066 193.7383,-337.8165 235.3236,-322.1618 267.7431,-310.2946"/>
<polygon fill="#000000" stroke="#000000" points="269.2989,-313.4527 277.4943,-306.7381 266.9004,-306.8765 269.2989,-313.4527"/>
</g>
<!-- HAsfc9_b3_dist -->
<g id="node3" class="node">
<title>HAsfc9_b3_dist</title>
<ellipse fill="none" stroke="#000000" cx="1899.2462" cy="-390.3833" rx="74.4932" ry="37.4533"/>
<text text-anchor="middle" x="1899.2462" y="-401.6833" font-family="Times,serif" font-size="14.00" fill="#000000">HAsfc9_b3_dist</text>
<text text-anchor="middle" x="1899.2462" y="-386.6833" font-family="Times,serif" font-size="14.00" fill="#000000">~</text>
<text text-anchor="middle" x="1899.2462" y="-371.6833" font-family="Times,serif" font-size="14.00" fill="#000000">Normal</text>
</g>
<!-- HAsfc9_b3 -->
<g id="node18" class="node">
<title>HAsfc9_b3</title>
<polygon fill="none" stroke="#000000" points="1695.7462,-316.9066 1604.7462,-316.9066 1604.7462,-263.9066 1695.7462,-263.9066 1695.7462,-316.9066"/>
<text text-anchor="middle" x="1650.2462" y="-301.7066" font-family="Times,serif" font-size="14.00" fill="#000000">HAsfc9_b3</text>
<text text-anchor="middle" x="1650.2462" y="-286.7066" font-family="Times,serif" font-size="14.00" fill="#000000">~</text>
<text text-anchor="middle" x="1650.2462" y="-271.7066" font-family="Times,serif" font-size="14.00" fill="#000000">Deterministic</text>
</g>
<!-- HAsfc9_b3_dist&#45;&gt;HAsfc9_b3 -->
<g id="edge11" class="edge">
<title>HAsfc9_b3_dist&#45;&gt;HAsfc9_b3</title>
<path fill="none" stroke="#000000" d="M1845.2993,-364.3622C1836.6406,-360.4028 1827.7359,-356.4577 1819.2462,-352.9066 1781.6848,-337.1956 1738.6336,-321.3049 1705.3835,-309.4782"/>
<polygon fill="#000000" stroke="#000000" points="1706.4329,-306.1369 1695.8381,-306.0987 1704.0966,-312.7356 1706.4329,-306.1369"/>
</g>
<!-- HAsfc9_sigma0 -->
<g id="node4" class="node">
<title>HAsfc9_sigma0</title>
<ellipse fill="none" stroke="#000000" cx="240.2462" cy="-390.3833" rx="74.4932" ry="37.4533"/>
<text text-anchor="middle" x="240.2462" y="-401.6833" font-family="Times,serif" font-size="14.00" fill="#000000">HAsfc9_sigma0</text>
<text text-anchor="middle" x="240.2462" y="-386.6833" font-family="Times,serif" font-size="14.00" fill="#000000">~</text>
<text text-anchor="middle" x="240.2462" y="-371.6833" font-family="Times,serif" font-size="14.00" fill="#000000">HalfNormal</text>
</g>
<!-- HAsfc9_sigma0&#45;&gt;HAsfc9_b0 -->
<g id="edge2" class="edge">
<title>HAsfc9_sigma0&#45;&gt;HAsfc9_b0</title>
<path fill="none" stroke="#000000" d="M269.0426,-355.6969C277.3183,-345.7286 286.3398,-334.8618 294.6059,-324.9049"/>
<polygon fill="#000000" stroke="#000000" points="297.35,-327.079 301.0446,-317.1493 291.9641,-322.6077 297.35,-327.079"/>
</g>
<!-- HAsfc9_b1_dist -->
<g id="node5" class="node">
<title>HAsfc9_b1_dist</title>
<ellipse fill="none" stroke="#000000" cx="903.2462" cy="-390.3833" rx="74.4932" ry="37.4533"/>
<text text-anchor="middle" x="903.2462" y="-401.6833" font-family="Times,serif" font-size="14.00" fill="#000000">HAsfc9_b1_dist</text>
<text text-anchor="middle" x="903.2462" y="-386.6833" font-family="Times,serif" font-size="14.00" fill="#000000">~</text>
<text text-anchor="middle" x="903.2462" y="-371.6833" font-family="Times,serif" font-size="14.00" fill="#000000">Normal</text>
</g>
<!-- HAsfc9_b1 -->
<g id="node10" class="node">
<title>HAsfc9_b1</title>
<polygon fill="none" stroke="#000000" points="796.7462,-316.9066 705.7462,-316.9066 705.7462,-263.9066 796.7462,-263.9066 796.7462,-316.9066"/>
<text text-anchor="middle" x="751.2462" y="-301.7066" font-family="Times,serif" font-size="14.00" fill="#000000">HAsfc9_b1</text>
<text text-anchor="middle" x="751.2462" y="-286.7066" font-family="Times,serif" font-size="14.00" fill="#000000">~</text>
<text text-anchor="middle" x="751.2462" y="-271.7066" font-family="Times,serif" font-size="14.00" fill="#000000">Deterministic</text>
</g>
<!-- HAsfc9_b1_dist&#45;&gt;HAsfc9_b1 -->
<g id="edge4" class="edge">
<title>HAsfc9_b1_dist&#45;&gt;HAsfc9_b1</title>
<path fill="none" stroke="#000000" d="M857.6412,-360.387C839.5234,-348.4702 818.6464,-334.7385 800.2101,-322.6122"/>
<polygon fill="#000000" stroke="#000000" points="801.9332,-319.5564 791.6551,-316.9852 798.0865,-325.4047 801.9332,-319.5564"/>
</g>
<!-- HAsfc9_b2_dist -->
<g id="node6" class="node">
<title>HAsfc9_b2_dist</title>
<ellipse fill="none" stroke="#000000" cx="1401.2462" cy="-390.3833" rx="74.4932" ry="37.4533"/>
<text text-anchor="middle" x="1401.2462" y="-401.6833" font-family="Times,serif" font-size="14.00" fill="#000000">HAsfc9_b2_dist</text>
<text text-anchor="middle" x="1401.2462" y="-386.6833" font-family="Times,serif" font-size="14.00" fill="#000000">~</text>
<text text-anchor="middle" x="1401.2462" y="-371.6833" font-family="Times,serif" font-size="14.00" fill="#000000">Normal</text>
</g>
<!-- HAsfc9_b2 -->
<g id="node14" class="node">
<title>HAsfc9_b2</title>
<polygon fill="none" stroke="#000000" points="1197.7462,-316.9066 1106.7462,-316.9066 1106.7462,-263.9066 1197.7462,-263.9066 1197.7462,-316.9066"/>
<text text-anchor="middle" x="1152.2462" y="-301.7066" font-family="Times,serif" font-size="14.00" fill="#000000">HAsfc9_b2</text>
<text text-anchor="middle" x="1152.2462" y="-286.7066" font-family="Times,serif" font-size="14.00" fill="#000000">~</text>
<text text-anchor="middle" x="1152.2462" y="-271.7066" font-family="Times,serif" font-size="14.00" fill="#000000">Deterministic</text>
</g>
<!-- HAsfc9_b2_dist&#45;&gt;HAsfc9_b2 -->
<g id="edge8" class="edge">
<title>HAsfc9_b2_dist&#45;&gt;HAsfc9_b2</title>
<path fill="none" stroke="#000000" d="M1347.2993,-364.3622C1338.6406,-360.4028 1329.7359,-356.4577 1321.2462,-352.9066 1283.6848,-337.1956 1240.6336,-321.3049 1207.3835,-309.4782"/>
<polygon fill="#000000" stroke="#000000" points="1208.4329,-306.1369 1197.8381,-306.0987 1206.0966,-312.7356 1208.4329,-306.1369"/>
</g>
<!-- HAsfc9_mu -->
<g id="node20" class="node">
<title>HAsfc9_mu</title>
<polygon fill="none" stroke="#000000" points="1003.7462,-213.93 912.7462,-213.93 912.7462,-160.93 1003.7462,-160.93 1003.7462,-213.93"/>
<text text-anchor="middle" x="958.2462" y="-198.73" font-family="Times,serif" font-size="14.00" fill="#000000">HAsfc9_mu</text>
<text text-anchor="middle" x="958.2462" y="-183.73" font-family="Times,serif" font-size="14.00" fill="#000000">~</text>
<text text-anchor="middle" x="958.2462" y="-168.73" font-family="Times,serif" font-size="14.00" fill="#000000">Deterministic</text>
</g>
<!-- HAsfc9_b0&#45;&gt;HAsfc9_mu -->
<g id="edge13" class="edge">
<title>HAsfc9_b0&#45;&gt;HAsfc9_mu</title>
<path fill="none" stroke="#000000" d="M368.9475,-269.723C400.8182,-256.4191 444.728,-240.2869 485.2462,-232.9066 530.6194,-224.6421 856.1386,-238.3803 900.2462,-224.9066 905.2069,-223.3913 910.1474,-221.3177 914.933,-218.9179"/>
<polygon fill="#000000" stroke="#000000" points="916.8469,-221.8592 923.9094,-213.9616 913.4633,-215.7313 916.8469,-221.8592"/>
</g>
<!-- HAsfc9_nuY -->
<g id="node8" class="node">
<title>HAsfc9_nuY</title>
<ellipse fill="none" stroke="#000000" cx="1088.2462" cy="-187.43" rx="62.8651" ry="37.4533"/>
<text text-anchor="middle" x="1088.2462" y="-198.73" font-family="Times,serif" font-size="14.00" fill="#000000">HAsfc9_nuY</text>
<text text-anchor="middle" x="1088.2462" y="-183.73" font-family="Times,serif" font-size="14.00" fill="#000000">~</text>
<text text-anchor="middle" x="1088.2462" y="-168.73" font-family="Times,serif" font-size="14.00" fill="#000000">Exponential</text>
</g>
<!-- HAsfc9_nuY&#45;&gt;HAsfc9_y -->
<g id="edge17" class="edge">
<title>HAsfc9_nuY&#45;&gt;HAsfc9_y</title>
<path fill="none" stroke="#000000" d="M1052.034,-156.5233C1035.7639,-142.637 1016.4782,-126.1769 999.6387,-111.8046"/>
<polygon fill="#000000" stroke="#000000" points="1001.471,-108.767 991.5925,-104.9373 996.9267,-114.0914 1001.471,-108.767"/>
</g>
<!-- HAsfc9_mu_b0 -->
<g id="node9" class="node">
<title>HAsfc9_mu_b0</title>
<ellipse fill="none" stroke="#000000" cx="406.2462" cy="-390.3833" rx="73.5782" ry="37.4533"/>
<text text-anchor="middle" x="406.2462" y="-401.6833" font-family="Times,serif" font-size="14.00" fill="#000000">HAsfc9_mu_b0</text>
<text text-anchor="middle" x="406.2462" y="-386.6833" font-family="Times,serif" font-size="14.00" fill="#000000">~</text>
<text text-anchor="middle" x="406.2462" y="-371.6833" font-family="Times,serif" font-size="14.00" fill="#000000">Normal</text>
</g>
<!-- HAsfc9_mu_b0&#45;&gt;HAsfc9_b0 -->
<g id="edge3" class="edge">
<title>HAsfc9_mu_b0&#45;&gt;HAsfc9_b0</title>
<path fill="none" stroke="#000000" d="M377.4498,-355.6969C369.1742,-345.7286 360.1527,-334.8618 351.8865,-324.9049"/>
<polygon fill="#000000" stroke="#000000" points="354.5283,-322.6077 345.4478,-317.1493 349.1425,-327.079 354.5283,-322.6077"/>
</g>
<!-- HAsfc9_b1&#45;&gt;HAsfc9_mu -->
<g id="edge15" class="edge">
<title>HAsfc9_b1&#45;&gt;HAsfc9_mu</title>
<path fill="none" stroke="#000000" d="M796.7978,-272.5969C826.7661,-260.3449 866.5339,-243.0584 900.2462,-224.9066 903.4987,-223.1554 906.8085,-221.2828 910.1146,-219.3434"/>
<polygon fill="#000000" stroke="#000000" points="912.0633,-222.2555 918.8159,-214.0914 908.446,-216.2625 912.0633,-222.2555"/>
</g>
<!-- HAsfc9_sigma1 -->
<g id="node11" class="node">
<title>HAsfc9_sigma1</title>
<ellipse fill="none" stroke="#000000" cx="737.2462" cy="-390.3833" rx="74.4932" ry="37.4533"/>
<text text-anchor="middle" x="737.2462" y="-401.6833" font-family="Times,serif" font-size="14.00" fill="#000000">HAsfc9_sigma1</text>
<text text-anchor="middle" x="737.2462" y="-386.6833" font-family="Times,serif" font-size="14.00" fill="#000000">~</text>
<text text-anchor="middle" x="737.2462" y="-371.6833" font-family="Times,serif" font-size="14.00" fill="#000000">HalfNormal</text>
</g>
<!-- HAsfc9_sigma1&#45;&gt;HAsfc9_b1 -->
<g id="edge5" class="edge">
<title>HAsfc9_sigma1&#45;&gt;HAsfc9_b1</title>
<path fill="none" stroke="#000000" d="M742.4991,-352.8712C743.6796,-344.4415 744.9308,-335.506 746.1066,-327.1097"/>
<polygon fill="#000000" stroke="#000000" points="749.5728,-327.5945 747.4935,-317.2057 742.6404,-326.6237 749.5728,-327.5945"/>
</g>
<!-- HAsfc9_mu_b1 -->
<g id="node12" class="node">
<title>HAsfc9_mu_b1</title>
<ellipse fill="none" stroke="#000000" cx="571.2462" cy="-390.3833" rx="73.5782" ry="37.4533"/>
<text text-anchor="middle" x="571.2462" y="-401.6833" font-family="Times,serif" font-size="14.00" fill="#000000">HAsfc9_mu_b1</text>
<text text-anchor="middle" x="571.2462" y="-386.6833" font-family="Times,serif" font-size="14.00" fill="#000000">~</text>
<text text-anchor="middle" x="571.2462" y="-371.6833" font-family="Times,serif" font-size="14.00" fill="#000000">Normal</text>
</g>
<!-- HAsfc9_mu_b1&#45;&gt;HAsfc9_b1 -->
<g id="edge6" class="edge">
<title>HAsfc9_mu_b1&#45;&gt;HAsfc9_b1</title>
<path fill="none" stroke="#000000" d="M621.3862,-362.5342C644.8153,-349.5211 672.7607,-333.9995 696.7152,-320.6946"/>
<polygon fill="#000000" stroke="#000000" points="698.6403,-323.629 705.6829,-315.7137 695.2413,-317.5096 698.6403,-323.629"/>
</g>
<!-- HAsfc9_mu_b2 -->
<g id="node13" class="node">
<title>HAsfc9_mu_b2</title>
<ellipse fill="none" stroke="#000000" cx="1235.2462" cy="-390.3833" rx="73.5782" ry="37.4533"/>
<text text-anchor="middle" x="1235.2462" y="-401.6833" font-family="Times,serif" font-size="14.00" fill="#000000">HAsfc9_mu_b2</text>
<text text-anchor="middle" x="1235.2462" y="-386.6833" font-family="Times,serif" font-size="14.00" fill="#000000">~</text>
<text text-anchor="middle" x="1235.2462" y="-371.6833" font-family="Times,serif" font-size="14.00" fill="#000000">Normal</text>
</g>
<!-- HAsfc9_mu_b2&#45;&gt;HAsfc9_b2 -->
<g id="edge7" class="edge">
<title>HAsfc9_mu_b2&#45;&gt;HAsfc9_b2</title>
<path fill="none" stroke="#000000" d="M1206.4498,-355.6969C1198.1742,-345.7286 1189.1527,-334.8618 1180.8865,-324.9049"/>
<polygon fill="#000000" stroke="#000000" points="1183.5283,-322.6077 1174.4478,-317.1493 1178.1425,-327.079 1183.5283,-322.6077"/>
</g>
<!-- HAsfc9_b2&#45;&gt;HAsfc9_mu -->
<g id="edge14" class="edge">
<title>HAsfc9_b2&#45;&gt;HAsfc9_mu</title>
<path fill="none" stroke="#000000" d="M1106.5002,-270.1095C1079.7674,-257.8219 1045.616,-241.3831 1016.2462,-224.9066 1013.1732,-223.1827 1010.0414,-221.3606 1006.9046,-219.4857"/>
<polygon fill="#000000" stroke="#000000" points="1008.454,-216.3306 998.0967,-214.0993 1004.8019,-222.3024 1008.454,-216.3306"/>
</g>
<!-- HAsfc9_sigma2 -->
<g id="node15" class="node">
<title>HAsfc9_sigma2</title>
<ellipse fill="none" stroke="#000000" cx="1069.2462" cy="-390.3833" rx="74.4932" ry="37.4533"/>
<text text-anchor="middle" x="1069.2462" y="-401.6833" font-family="Times,serif" font-size="14.00" fill="#000000">HAsfc9_sigma2</text>
<text text-anchor="middle" x="1069.2462" y="-386.6833" font-family="Times,serif" font-size="14.00" fill="#000000">~</text>
<text text-anchor="middle" x="1069.2462" y="-371.6833" font-family="Times,serif" font-size="14.00" fill="#000000">HalfNormal</text>
</g>
<!-- HAsfc9_sigma2&#45;&gt;HAsfc9_b2 -->
<g id="edge9" class="edge">
<title>HAsfc9_sigma2&#45;&gt;HAsfc9_b2</title>
<path fill="none" stroke="#000000" d="M1098.0426,-355.6969C1106.3183,-345.7286 1115.3398,-334.8618 1123.6059,-324.9049"/>
<polygon fill="#000000" stroke="#000000" points="1126.35,-327.079 1130.0446,-317.1493 1120.9641,-322.6077 1126.35,-327.079"/>
</g>
<!-- HAsfc9_mu_b3 -->
<g id="node16" class="node">
<title>HAsfc9_mu_b3</title>
<ellipse fill="none" stroke="#000000" cx="1733.2462" cy="-390.3833" rx="73.5782" ry="37.4533"/>
<text text-anchor="middle" x="1733.2462" y="-401.6833" font-family="Times,serif" font-size="14.00" fill="#000000">HAsfc9_mu_b3</text>
<text text-anchor="middle" x="1733.2462" y="-386.6833" font-family="Times,serif" font-size="14.00" fill="#000000">~</text>
<text text-anchor="middle" x="1733.2462" y="-371.6833" font-family="Times,serif" font-size="14.00" fill="#000000">Normal</text>
</g>
<!-- HAsfc9_mu_b3&#45;&gt;HAsfc9_b3 -->
<g id="edge10" class="edge">
<title>HAsfc9_mu_b3&#45;&gt;HAsfc9_b3</title>
<path fill="none" stroke="#000000" d="M1704.4498,-355.6969C1696.1742,-345.7286 1687.1527,-334.8618 1678.8865,-324.9049"/>
<polygon fill="#000000" stroke="#000000" points="1681.5283,-322.6077 1672.4478,-317.1493 1676.1425,-327.079 1681.5283,-322.6077"/>
</g>
<!-- HAsfc9_sigma3 -->
<g id="node17" class="node">
<title>HAsfc9_sigma3</title>
<ellipse fill="none" stroke="#000000" cx="1567.2462" cy="-390.3833" rx="74.4932" ry="37.4533"/>
<text text-anchor="middle" x="1567.2462" y="-401.6833" font-family="Times,serif" font-size="14.00" fill="#000000">HAsfc9_sigma3</text>
<text text-anchor="middle" x="1567.2462" y="-386.6833" font-family="Times,serif" font-size="14.00" fill="#000000">~</text>
<text text-anchor="middle" x="1567.2462" y="-371.6833" font-family="Times,serif" font-size="14.00" fill="#000000">HalfNormal</text>
</g>
<!-- HAsfc9_sigma3&#45;&gt;HAsfc9_b3 -->
<g id="edge12" class="edge">
<title>HAsfc9_sigma3&#45;&gt;HAsfc9_b3</title>
<path fill="none" stroke="#000000" d="M1596.0426,-355.6969C1604.3183,-345.7286 1613.3398,-334.8618 1621.6059,-324.9049"/>
<polygon fill="#000000" stroke="#000000" points="1624.35,-327.079 1628.0446,-317.1493 1618.9641,-322.6077 1624.35,-327.079"/>
</g>
<!-- HAsfc9_b3&#45;&gt;HAsfc9_mu -->
<g id="edge16" class="edge">
<title>HAsfc9_b3&#45;&gt;HAsfc9_mu</title>
<path fill="none" stroke="#000000" d="M1604.4982,-280.2176C1541.2171,-266.6275 1423.2245,-243.0999 1321.2462,-232.9066 1287.5138,-229.5349 1048.6332,-234.9231 1016.2462,-224.9066 1011.3606,-223.3957 1006.4929,-221.3477 1001.7726,-218.9837"/>
<polygon fill="#000000" stroke="#000000" points="1003.3595,-215.862 992.9112,-214.106 999.984,-221.9944 1003.3595,-215.862"/>
</g>
<!-- HAsfc9_mu&#45;&gt;HAsfc9_y -->
<g id="edge19" class="edge">
<title>HAsfc9_mu&#45;&gt;HAsfc9_y</title>
<path fill="none" stroke="#000000" d="M958.2462,-160.8539C958.2462,-149.9351 958.2462,-136.944 958.2462,-124.4675"/>
<polygon fill="#000000" stroke="#000000" points="961.7463,-124.1649 958.2462,-114.165 954.7463,-124.165 961.7463,-124.1649"/>
</g>
</g>
</svg>
