<?xml version="1.0" encoding="UTF-8" standalone="no"?>
<!DOCTYPE svg PUBLIC "-//W3C//DTD SVG 1.1//EN"
 "http://www.w3.org/Graphics/SVG/1.1/DTD/svg11.dtd">
<!-- Generated by graphviz version 2.40.1 (20161225.0304)
 -->
<!-- Title: Smfc Pages: 1 -->
<svg width="1774pt" height="452pt"
 viewBox="0.00 0.00 1774.35 451.86" xmlns="http://www.w3.org/2000/svg" xmlns:xlink="http://www.w3.org/1999/xlink">
<g id="graph0" class="graph" transform="scale(1 1) rotate(0) translate(4 447.86)">
<title>Smfc</title>
<polygon fill="#ffffff" stroke="transparent" points="-4,4 -4,-447.86 1770.3467,-447.86 1770.3467,4 -4,4"/>
<g id="clust1" class="cluster">
<title>cluster2</title>
<path fill="none" stroke="#000000" d="M20,-232.9066C20,-232.9066 288,-232.9066 288,-232.9066 294,-232.9066 300,-238.9066 300,-244.9066 300,-244.9066 300,-423.86 300,-423.86 300,-429.86 294,-435.86 288,-435.86 288,-435.86 20,-435.86 20,-435.86 14,-435.86 8,-429.86 8,-423.86 8,-423.86 8,-244.9066 8,-244.9066 8,-238.9066 14,-232.9066 20,-232.9066"/>
<text text-anchor="middle" x="288.5" y="-240.7066" font-family="Times,serif" font-size="14.00" fill="#000000">2</text>
</g>
<g id="clust2" class="cluster">
<title>cluster11</title>
<path fill="none" stroke="#000000" d="M462,-232.9066C462,-232.9066 730,-232.9066 730,-232.9066 736,-232.9066 742,-238.9066 742,-244.9066 742,-244.9066 742,-423.86 742,-423.86 742,-429.86 736,-435.86 730,-435.86 730,-435.86 462,-435.86 462,-435.86 456,-435.86 450,-429.86 450,-423.86 450,-423.86 450,-244.9066 450,-244.9066 450,-238.9066 456,-232.9066 462,-232.9066"/>
<text text-anchor="middle" x="727" y="-240.7066" font-family="Times,serif" font-size="14.00" fill="#000000">11</text>
</g>
<g id="clust3" class="cluster">
<title>cluster115</title>
<path fill="none" stroke="#000000" d="M904,-232.9066C904,-232.9066 1172,-232.9066 1172,-232.9066 1178,-232.9066 1184,-238.9066 1184,-244.9066 1184,-244.9066 1184,-423.86 1184,-423.86 1184,-429.86 1178,-435.86 1172,-435.86 1172,-435.86 904,-435.86 904,-435.86 898,-435.86 892,-429.86 892,-423.86 892,-423.86 892,-244.9066 892,-244.9066 892,-238.9066 898,-232.9066 904,-232.9066"/>
<text text-anchor="middle" x="1165.5" y="-240.7066" font-family="Times,serif" font-size="14.00" fill="#000000">115</text>
</g>
<g id="clust4" class="cluster">
<title>cluster230</title>
<path fill="none" stroke="#000000" d="M821,-8C821,-8 907,-8 907,-8 913,-8 919,-14 919,-20 919,-20 919,-209.93 919,-209.93 919,-215.93 913,-221.93 907,-221.93 907,-221.93 821,-221.93 821,-221.93 815,-221.93 809,-215.93 809,-209.93 809,-209.93 809,-20 809,-20 809,-14 815,-8 821,-8"/>
<text text-anchor="middle" x="900.5" y="-15.8" font-family="Times,serif" font-size="14.00" fill="#000000">230</text>
</g>
<!-- Smfc_b0_dist -->
<g id="node1" class="node">
<title>Smfc_b0_dist</title>
<ellipse fill="none" stroke="#000000" cx="1407" cy="-390.3833" rx="65.1077" ry="37.4533"/>
<text text-anchor="middle" x="1407" y="-401.6833" font-family="Times,serif" font-size="14.00" fill="#000000">Smfc_b0_dist</text>
<text text-anchor="middle" x="1407" y="-386.6833" font-family="Times,serif" font-size="14.00" fill="#000000">~</text>
<text text-anchor="middle" x="1407" y="-371.6833" font-family="Times,serif" font-size="14.00" fill="#000000">Normal</text>
</g>
<!-- Smfc_b0 -->
<g id="node7" class="node">
<title>Smfc_b0</title>
<polygon fill="none" stroke="#000000" points="1526.5,-316.9066 1435.5,-316.9066 1435.5,-263.9066 1526.5,-263.9066 1526.5,-316.9066"/>
<text text-anchor="middle" x="1481" y="-301.7066" font-family="Times,serif" font-size="14.00" fill="#000000">Smfc_b0</text>
<text text-anchor="middle" x="1481" y="-286.7066" font-family="Times,serif" font-size="14.00" fill="#000000">~</text>
<text text-anchor="middle" x="1481" y="-271.7066" font-family="Times,serif" font-size="14.00" fill="#000000">Deterministic</text>
</g>
<!-- Smfc_b0_dist&#45;&gt;Smfc_b0 -->
<g id="edge1" class="edge">
<title>Smfc_b0_dist&#45;&gt;Smfc_b0</title>
<path fill="none" stroke="#000000" d="M1432.6739,-355.6969C1439.9791,-345.8273 1447.9363,-335.0769 1455.2462,-325.2009"/>
<polygon fill="#000000" stroke="#000000" points="1458.0697,-327.2693 1461.2058,-317.1493 1452.4432,-323.1048 1458.0697,-327.2693"/>
</g>
<!-- Smfc_sigma0 -->
<g id="node2" class="node">
<title>Smfc_sigma0</title>
<ellipse fill="none" stroke="#000000" cx="1555" cy="-390.3833" rx="65.1077" ry="37.4533"/>
<text text-anchor="middle" x="1555" y="-401.6833" font-family="Times,serif" font-size="14.00" fill="#000000">Smfc_sigma0</text>
<text text-anchor="middle" x="1555" y="-386.6833" font-family="Times,serif" font-size="14.00" fill="#000000">~</text>
<text text-anchor="middle" x="1555" y="-371.6833" font-family="Times,serif" font-size="14.00" fill="#000000">HalfNormal</text>
</g>
<!-- Smfc_sigma0&#45;&gt;Smfc_b0 -->
<g id="edge2" class="edge">
<title>Smfc_sigma0&#45;&gt;Smfc_b0</title>
<path fill="none" stroke="#000000" d="M1529.3261,-355.6969C1522.0209,-345.8273 1514.0637,-335.0769 1506.7538,-325.2009"/>
<polygon fill="#000000" stroke="#000000" points="1509.5568,-323.1048 1500.7942,-317.1493 1503.9303,-327.2693 1509.5568,-323.1048"/>
</g>
<!-- Smfc_mu_b0 -->
<g id="node3" class="node">
<title>Smfc_mu_b0</title>
<ellipse fill="none" stroke="#000000" cx="1702" cy="-390.3833" rx="64.1938" ry="37.4533"/>
<text text-anchor="middle" x="1702" y="-401.6833" font-family="Times,serif" font-size="14.00" fill="#000000">Smfc_mu_b0</text>
<text text-anchor="middle" x="1702" y="-386.6833" font-family="Times,serif" font-size="14.00" fill="#000000">~</text>
<text text-anchor="middle" x="1702" y="-371.6833" font-family="Times,serif" font-size="14.00" fill="#000000">Normal</text>
</g>
<!-- Smfc_mu_b0&#45;&gt;Smfc_b0 -->
<g id="edge3" class="edge">
<title>Smfc_mu_b0&#45;&gt;Smfc_b0</title>
<path fill="none" stroke="#000000" d="M1653.953,-365.0745C1645.6824,-360.9029 1637.1319,-356.7046 1629,-352.9066 1598.708,-338.759 1564.3358,-324.1576 1536.3455,-312.629"/>
<polygon fill="#000000" stroke="#000000" points="1537.3085,-309.2411 1526.7283,-308.6852 1534.6526,-315.7177 1537.3085,-309.2411"/>
</g>
<!-- Smfc_b1_dist -->
<g id="node4" class="node">
<title>Smfc_b1_dist</title>
<ellipse fill="none" stroke="#000000" cx="375" cy="-390.3833" rx="65.1077" ry="37.4533"/>
<text text-anchor="middle" x="375" y="-401.6833" font-family="Times,serif" font-size="14.00" fill="#000000">Smfc_b1_dist</text>
<text text-anchor="middle" x="375" y="-386.6833" font-family="Times,serif" font-size="14.00" fill="#000000">~</text>
<text text-anchor="middle" x="375" y="-371.6833" font-family="Times,serif" font-size="14.00" fill="#000000">Normal</text>
</g>
<!-- Smfc_b1 -->
<g id="node10" class="node">
<title>Smfc_b1</title>
<polygon fill="none" stroke="#000000" points="282.5,-316.9066 191.5,-316.9066 191.5,-263.9066 282.5,-263.9066 282.5,-316.9066"/>
<text text-anchor="middle" x="237" y="-301.7066" font-family="Times,serif" font-size="14.00" fill="#000000">Smfc_b1</text>
<text text-anchor="middle" x="237" y="-286.7066" font-family="Times,serif" font-size="14.00" fill="#000000">~</text>
<text text-anchor="middle" x="237" y="-271.7066" font-family="Times,serif" font-size="14.00" fill="#000000">Deterministic</text>
</g>
<!-- Smfc_b1_dist&#45;&gt;Smfc_b1 -->
<g id="edge4" class="edge">
<title>Smfc_b1_dist&#45;&gt;Smfc_b1</title>
<path fill="none" stroke="#000000" d="M334.3418,-360.9277C317.8073,-348.949 298.6446,-335.0662 281.717,-322.8027"/>
<polygon fill="#000000" stroke="#000000" points="283.7594,-319.9604 273.6079,-316.9279 279.6526,-325.6291 283.7594,-319.9604"/>
</g>
<!-- Smfc_sigmaY -->
<g id="node5" class="node">
<title>Smfc_sigmaY</title>
<ellipse fill="none" stroke="#000000" cx="994" cy="-187.43" rx="67.3507" ry="37.4533"/>
<text text-anchor="middle" x="994" y="-198.73" font-family="Times,serif" font-size="14.00" fill="#000000">Smfc_sigmaY</text>
<text text-anchor="middle" x="994" y="-183.73" font-family="Times,serif" font-size="14.00" fill="#000000">~</text>
<text text-anchor="middle" x="994" y="-168.73" font-family="Times,serif" font-size="14.00" fill="#000000">Gamma</text>
</g>
<!-- Smfc_y -->
<g id="node20" class="node">
<title>Smfc_y</title>
<ellipse fill="#d3d3d3" stroke="#000000" cx="864" cy="-76.4767" rx="46.8387" ry="37.4533"/>
<text text-anchor="middle" x="864" y="-87.7767" font-family="Times,serif" font-size="14.00" fill="#000000">Smfc_y</text>
<text text-anchor="middle" x="864" y="-72.7767" font-family="Times,serif" font-size="14.00" fill="#000000">~</text>
<text text-anchor="middle" x="864" y="-57.7767" font-family="Times,serif" font-size="14.00" fill="#000000">StudentT</text>
</g>
<!-- Smfc_sigmaY&#45;&gt;Smfc_y -->
<g id="edge17" class="edge">
<title>Smfc_sigmaY&#45;&gt;Smfc_y</title>
<path fill="none" stroke="#000000" d="M957.0949,-155.932C940.5805,-141.8371 921.0699,-125.1851 904.187,-110.7758"/>
<polygon fill="#000000" stroke="#000000" points="906.0133,-107.733 896.1348,-103.9033 901.469,-113.0574 906.0133,-107.733"/>
</g>
<!-- Smfc_nuY -->
<g id="node6" class="node">
<title>Smfc_nuY</title>
<ellipse fill="none" stroke="#000000" cx="1137" cy="-187.43" rx="57.9655" ry="37.4533"/>
<text text-anchor="middle" x="1137" y="-198.73" font-family="Times,serif" font-size="14.00" fill="#000000">Smfc_nuY</text>
<text text-anchor="middle" x="1137" y="-183.73" font-family="Times,serif" font-size="14.00" fill="#000000">~</text>
<text text-anchor="middle" x="1137" y="-168.73" font-family="Times,serif" font-size="14.00" fill="#000000">Exponential</text>
</g>
<!-- Smfc_nuY&#45;&gt;Smfc_y -->
<g id="edge19" class="edge">
<title>Smfc_nuY&#45;&gt;Smfc_y</title>
<path fill="none" stroke="#000000" d="M1093.9371,-161.9569C1086.0895,-157.7149 1077.8878,-153.5356 1070,-149.9533 1019.5898,-127.0592 959.7751,-106.408 917.6227,-92.8719"/>
<polygon fill="#000000" stroke="#000000" points="918.4298,-89.4558 907.8393,-89.7561 916.3056,-96.1257 918.4298,-89.4558"/>
</g>
<!-- Smfc_mu -->
<g id="node19" class="node">
<title>Smfc_mu</title>
<polygon fill="none" stroke="#000000" points="908.5,-213.93 817.5,-213.93 817.5,-160.93 908.5,-160.93 908.5,-213.93"/>
<text text-anchor="middle" x="863" y="-198.73" font-family="Times,serif" font-size="14.00" fill="#000000">Smfc_mu</text>
<text text-anchor="middle" x="863" y="-183.73" font-family="Times,serif" font-size="14.00" fill="#000000">~</text>
<text text-anchor="middle" x="863" y="-168.73" font-family="Times,serif" font-size="14.00" fill="#000000">Deterministic</text>
</g>
<!-- Smfc_b0&#45;&gt;Smfc_mu -->
<g id="edge13" class="edge">
<title>Smfc_b0&#45;&gt;Smfc_mu</title>
<path fill="none" stroke="#000000" d="M1435.4334,-279.0473C1378.1168,-265.3199 1276.4775,-242.8311 1188,-232.9066 1158.1739,-229.5611 946.5469,-234.1731 918,-224.9066 913.4322,-223.4239 908.8979,-221.4348 904.5066,-219.1428"/>
<polygon fill="#000000" stroke="#000000" points="906.1396,-216.0443 895.7288,-214.0781 902.6412,-222.1074 906.1396,-216.0443"/>
</g>
<!-- Smfc_b2_dist -->
<g id="node8" class="node">
<title>Smfc_b2_dist</title>
<ellipse fill="none" stroke="#000000" cx="817" cy="-390.3833" rx="65.1077" ry="37.4533"/>
<text text-anchor="middle" x="817" y="-401.6833" font-family="Times,serif" font-size="14.00" fill="#000000">Smfc_b2_dist</text>
<text text-anchor="middle" x="817" y="-386.6833" font-family="Times,serif" font-size="14.00" fill="#000000">~</text>
<text text-anchor="middle" x="817" y="-371.6833" font-family="Times,serif" font-size="14.00" fill="#000000">Normal</text>
</g>
<!-- Smfc_b2 -->
<g id="node13" class="node">
<title>Smfc_b2</title>
<polygon fill="none" stroke="#000000" points="724.5,-316.9066 633.5,-316.9066 633.5,-263.9066 724.5,-263.9066 724.5,-316.9066"/>
<text text-anchor="middle" x="679" y="-301.7066" font-family="Times,serif" font-size="14.00" fill="#000000">Smfc_b2</text>
<text text-anchor="middle" x="679" y="-286.7066" font-family="Times,serif" font-size="14.00" fill="#000000">~</text>
<text text-anchor="middle" x="679" y="-271.7066" font-family="Times,serif" font-size="14.00" fill="#000000">Deterministic</text>
</g>
<!-- Smfc_b2_dist&#45;&gt;Smfc_b2 -->
<g id="edge7" class="edge">
<title>Smfc_b2_dist&#45;&gt;Smfc_b2</title>
<path fill="none" stroke="#000000" d="M776.3418,-360.9277C759.8073,-348.949 740.6446,-335.0662 723.717,-322.8027"/>
<polygon fill="#000000" stroke="#000000" points="725.7594,-319.9604 715.6079,-316.9279 721.6526,-325.6291 725.7594,-319.9604"/>
</g>
<!-- Smfc_b3_dist -->
<g id="node9" class="node">
<title>Smfc_b3_dist</title>
<ellipse fill="none" stroke="#000000" cx="1259" cy="-390.3833" rx="65.1077" ry="37.4533"/>
<text text-anchor="middle" x="1259" y="-401.6833" font-family="Times,serif" font-size="14.00" fill="#000000">Smfc_b3_dist</text>
<text text-anchor="middle" x="1259" y="-386.6833" font-family="Times,serif" font-size="14.00" fill="#000000">~</text>
<text text-anchor="middle" x="1259" y="-371.6833" font-family="Times,serif" font-size="14.00" fill="#000000">Normal</text>
</g>
<!-- Smfc_b3 -->
<g id="node16" class="node">
<title>Smfc_b3</title>
<polygon fill="none" stroke="#000000" points="1083.5,-316.9066 992.5,-316.9066 992.5,-263.9066 1083.5,-263.9066 1083.5,-316.9066"/>
<text text-anchor="middle" x="1038" y="-301.7066" font-family="Times,serif" font-size="14.00" fill="#000000">Smfc_b3</text>
<text text-anchor="middle" x="1038" y="-286.7066" font-family="Times,serif" font-size="14.00" fill="#000000">~</text>
<text text-anchor="middle" x="1038" y="-271.7066" font-family="Times,serif" font-size="14.00" fill="#000000">Deterministic</text>
</g>
<!-- Smfc_b3_dist&#45;&gt;Smfc_b3 -->
<g id="edge10" class="edge">
<title>Smfc_b3_dist&#45;&gt;Smfc_b3</title>
<path fill="none" stroke="#000000" d="M1211.561,-364.5829C1203.7489,-360.5543 1195.6916,-356.5299 1188,-352.9066 1157.0447,-338.3248 1121.7509,-323.5307 1093.1782,-311.9988"/>
<polygon fill="#000000" stroke="#000000" points="1094.346,-308.6961 1083.7619,-308.218 1091.7377,-315.1921 1094.346,-308.6961"/>
</g>
<!-- Smfc_b1&#45;&gt;Smfc_mu -->
<g id="edge16" class="edge">
<title>Smfc_b1&#45;&gt;Smfc_mu</title>
<path fill="none" stroke="#000000" d="M282.5774,-275.5969C324.5874,-262.4918 388.8877,-243.8048 446,-232.9066 573.8502,-208.5104 726.4335,-196.0127 806.8999,-190.6907"/>
<polygon fill="#000000" stroke="#000000" points="807.5408,-194.1566 817.2934,-190.0168 807.0878,-187.1712 807.5408,-194.1566"/>
</g>
<!-- Smfc_mu_b1 -->
<g id="node11" class="node">
<title>Smfc_mu_b1</title>
<ellipse fill="none" stroke="#000000" cx="228" cy="-390.3833" rx="64.1938" ry="37.4533"/>
<text text-anchor="middle" x="228" y="-401.6833" font-family="Times,serif" font-size="14.00" fill="#000000">Smfc_mu_b1</text>
<text text-anchor="middle" x="228" y="-386.6833" font-family="Times,serif" font-size="14.00" fill="#000000">~</text>
<text text-anchor="middle" x="228" y="-371.6833" font-family="Times,serif" font-size="14.00" fill="#000000">Normal</text>
</g>
<!-- Smfc_mu_b1&#45;&gt;Smfc_b1 -->
<g id="edge5" class="edge">
<title>Smfc_mu_b1&#45;&gt;Smfc_b1</title>
<path fill="none" stroke="#000000" d="M231.3769,-352.8712C232.1274,-344.5341 232.9224,-335.7023 233.671,-327.3867"/>
<polygon fill="#000000" stroke="#000000" points="237.1767,-327.4793 234.5875,-317.2057 230.2049,-326.8516 237.1767,-327.4793"/>
</g>
<!-- Smfc_sigma1 -->
<g id="node12" class="node">
<title>Smfc_sigma1</title>
<ellipse fill="none" stroke="#000000" cx="81" cy="-390.3833" rx="65.1077" ry="37.4533"/>
<text text-anchor="middle" x="81" y="-401.6833" font-family="Times,serif" font-size="14.00" fill="#000000">Smfc_sigma1</text>
<text text-anchor="middle" x="81" y="-386.6833" font-family="Times,serif" font-size="14.00" fill="#000000">~</text>
<text text-anchor="middle" x="81" y="-371.6833" font-family="Times,serif" font-size="14.00" fill="#000000">HalfNormal</text>
</g>
<!-- Smfc_sigma1&#45;&gt;Smfc_b1 -->
<g id="edge6" class="edge">
<title>Smfc_sigma1&#45;&gt;Smfc_b1</title>
<path fill="none" stroke="#000000" d="M124.8698,-362.2682C144.1814,-349.8919 166.9697,-335.2874 186.9417,-322.4878"/>
<polygon fill="#000000" stroke="#000000" points="189.072,-325.2797 195.6028,-316.9371 185.2949,-319.3861 189.072,-325.2797"/>
</g>
<!-- Smfc_b2&#45;&gt;Smfc_mu -->
<g id="edge14" class="edge">
<title>Smfc_b2&#45;&gt;Smfc_mu</title>
<path fill="none" stroke="#000000" d="M724.9563,-264.6869C750.2992,-250.5036 781.9226,-232.8054 808.5055,-217.9282"/>
<polygon fill="#000000" stroke="#000000" points="810.2939,-220.9381 817.3109,-213.0001 806.8753,-214.8297 810.2939,-220.9381"/>
</g>
<!-- Smfc_mu_b2 -->
<g id="node14" class="node">
<title>Smfc_mu_b2</title>
<ellipse fill="none" stroke="#000000" cx="670" cy="-390.3833" rx="64.1938" ry="37.4533"/>
<text text-anchor="middle" x="670" y="-401.6833" font-family="Times,serif" font-size="14.00" fill="#000000">Smfc_mu_b2</text>
<text text-anchor="middle" x="670" y="-386.6833" font-family="Times,serif" font-size="14.00" fill="#000000">~</text>
<text text-anchor="middle" x="670" y="-371.6833" font-family="Times,serif" font-size="14.00" fill="#000000">Normal</text>
</g>
<!-- Smfc_mu_b2&#45;&gt;Smfc_b2 -->
<g id="edge8" class="edge">
<title>Smfc_mu_b2&#45;&gt;Smfc_b2</title>
<path fill="none" stroke="#000000" d="M673.3769,-352.8712C674.1274,-344.5341 674.9224,-335.7023 675.671,-327.3867"/>
<polygon fill="#000000" stroke="#000000" points="679.1767,-327.4793 676.5875,-317.2057 672.2049,-326.8516 679.1767,-327.4793"/>
</g>
<!-- Smfc_sigma2 -->
<g id="node15" class="node">
<title>Smfc_sigma2</title>
<ellipse fill="none" stroke="#000000" cx="523" cy="-390.3833" rx="65.1077" ry="37.4533"/>
<text text-anchor="middle" x="523" y="-401.6833" font-family="Times,serif" font-size="14.00" fill="#000000">Smfc_sigma2</text>
<text text-anchor="middle" x="523" y="-386.6833" font-family="Times,serif" font-size="14.00" fill="#000000">~</text>
<text text-anchor="middle" x="523" y="-371.6833" font-family="Times,serif" font-size="14.00" fill="#000000">HalfNormal</text>
</g>
<!-- Smfc_sigma2&#45;&gt;Smfc_b2 -->
<g id="edge9" class="edge">
<title>Smfc_sigma2&#45;&gt;Smfc_b2</title>
<path fill="none" stroke="#000000" d="M566.8698,-362.2682C586.1814,-349.8919 608.9697,-335.2874 628.9417,-322.4878"/>
<polygon fill="#000000" stroke="#000000" points="631.072,-325.2797 637.6028,-316.9371 627.2949,-319.3861 631.072,-325.2797"/>
</g>
<!-- Smfc_b3&#45;&gt;Smfc_mu -->
<g id="edge15" class="edge">
<title>Smfc_b3&#45;&gt;Smfc_mu</title>
<path fill="none" stroke="#000000" d="M992.3846,-266.8691C969.7193,-254.8321 942.0955,-239.6427 918,-224.9066 915.1907,-223.1885 912.3252,-221.3885 909.4509,-219.546"/>
<polygon fill="#000000" stroke="#000000" points="911.1358,-216.4663 900.8487,-213.9311 907.3096,-222.328 911.1358,-216.4663"/>
</g>
<!-- Smfc_mu_b3 -->
<g id="node17" class="node">
<title>Smfc_mu_b3</title>
<ellipse fill="none" stroke="#000000" cx="1112" cy="-390.3833" rx="64.1938" ry="37.4533"/>
<text text-anchor="middle" x="1112" y="-401.6833" font-family="Times,serif" font-size="14.00" fill="#000000">Smfc_mu_b3</text>
<text text-anchor="middle" x="1112" y="-386.6833" font-family="Times,serif" font-size="14.00" fill="#000000">~</text>
<text text-anchor="middle" x="1112" y="-371.6833" font-family="Times,serif" font-size="14.00" fill="#000000">Normal</text>
</g>
<!-- Smfc_mu_b3&#45;&gt;Smfc_b3 -->
<g id="edge11" class="edge">
<title>Smfc_mu_b3&#45;&gt;Smfc_b3</title>
<path fill="none" stroke="#000000" d="M1086.3261,-355.6969C1079.0209,-345.8273 1071.0637,-335.0769 1063.7538,-325.2009"/>
<polygon fill="#000000" stroke="#000000" points="1066.5568,-323.1048 1057.7942,-317.1493 1060.9303,-327.2693 1066.5568,-323.1048"/>
</g>
<!-- Smfc_sigma3 -->
<g id="node18" class="node">
<title>Smfc_sigma3</title>
<ellipse fill="none" stroke="#000000" cx="965" cy="-390.3833" rx="65.1077" ry="37.4533"/>
<text text-anchor="middle" x="965" y="-401.6833" font-family="Times,serif" font-size="14.00" fill="#000000">Smfc_sigma3</text>
<text text-anchor="middle" x="965" y="-386.6833" font-family="Times,serif" font-size="14.00" fill="#000000">~</text>
<text text-anchor="middle" x="965" y="-371.6833" font-family="Times,serif" font-size="14.00" fill="#000000">HalfNormal</text>
</g>
<!-- Smfc_sigma3&#45;&gt;Smfc_b3 -->
<g id="edge12" class="edge">
<title>Smfc_sigma3&#45;&gt;Smfc_b3</title>
<path fill="none" stroke="#000000" d="M990.327,-355.6969C997.4614,-345.926 1005.2261,-335.2919 1012.3777,-325.4975"/>
<polygon fill="#000000" stroke="#000000" points="1015.4029,-327.2895 1018.4733,-317.1493 1009.7496,-323.1615 1015.4029,-327.2895"/>
</g>
<!-- Smfc_mu&#45;&gt;Smfc_y -->
<g id="edge18" class="edge">
<title>Smfc_mu&#45;&gt;Smfc_y</title>
<path fill="none" stroke="#000000" d="M863.2395,-160.8539C863.3379,-149.9351 863.455,-136.944 863.5675,-124.4675"/>
<polygon fill="#000000" stroke="#000000" points="867.07,-124.1961 863.6603,-114.165 860.0702,-124.133 867.07,-124.1961"/>
</g>
</g>
</svg>
