<?xml version="1.0" encoding="UTF-8" standalone="no"?>
<!DOCTYPE svg PUBLIC "-//W3C//DTD SVG 1.1//EN"
 "http://www.w3.org/Graphics/SVG/1.1/DTD/svg11.dtd">
<!-- Generated by graphviz version 2.40.1 (20161225.0304)
 -->
<!-- Title: Smfc Pages: 1 -->
<svg width="1758pt" height="452pt"
 viewBox="0.00 0.00 1758.11 451.86" xmlns="http://www.w3.org/2000/svg" xmlns:xlink="http://www.w3.org/1999/xlink">
<g id="graph0" class="graph" transform="scale(1 1) rotate(0) translate(4 447.86)">
<title>Smfc</title>
<polygon fill="#ffffff" stroke="transparent" points="-4,4 -4,-447.86 1754.1076,-447.86 1754.1076,4 -4,4"/>
<g id="clust1" class="cluster">
<title>cluster2</title>
<path fill="none" stroke="#000000" d="M152.0538,-232.9066C152.0538,-232.9066 420.0538,-232.9066 420.0538,-232.9066 426.0538,-232.9066 432.0538,-238.9066 432.0538,-244.9066 432.0538,-244.9066 432.0538,-423.86 432.0538,-423.86 432.0538,-429.86 426.0538,-435.86 420.0538,-435.86 420.0538,-435.86 152.0538,-435.86 152.0538,-435.86 146.0538,-435.86 140.0538,-429.86 140.0538,-423.86 140.0538,-423.86 140.0538,-244.9066 140.0538,-244.9066 140.0538,-238.9066 146.0538,-232.9066 152.0538,-232.9066"/>
<text text-anchor="middle" x="420.5538" y="-240.7066" font-family="Times,serif" font-size="14.00" fill="#000000">2</text>
</g>
<g id="clust2" class="cluster">
<title>cluster11</title>
<path fill="none" stroke="#000000" d="M888.0538,-232.9066C888.0538,-232.9066 1156.0538,-232.9066 1156.0538,-232.9066 1162.0538,-232.9066 1168.0538,-238.9066 1168.0538,-244.9066 1168.0538,-244.9066 1168.0538,-423.86 1168.0538,-423.86 1168.0538,-429.86 1162.0538,-435.86 1156.0538,-435.86 1156.0538,-435.86 888.0538,-435.86 888.0538,-435.86 882.0538,-435.86 876.0538,-429.86 876.0538,-423.86 876.0538,-423.86 876.0538,-244.9066 876.0538,-244.9066 876.0538,-238.9066 882.0538,-232.9066 888.0538,-232.9066"/>
<text text-anchor="middle" x="1153.0538" y="-240.7066" font-family="Times,serif" font-size="14.00" fill="#000000">11</text>
</g>
<g id="clust3" class="cluster">
<title>cluster115</title>
<path fill="none" stroke="#000000" d="M1330.0538,-232.9066C1330.0538,-232.9066 1598.0538,-232.9066 1598.0538,-232.9066 1604.0538,-232.9066 1610.0538,-238.9066 1610.0538,-244.9066 1610.0538,-244.9066 1610.0538,-423.86 1610.0538,-423.86 1610.0538,-429.86 1604.0538,-435.86 1598.0538,-435.86 1598.0538,-435.86 1330.0538,-435.86 1330.0538,-435.86 1324.0538,-435.86 1318.0538,-429.86 1318.0538,-423.86 1318.0538,-423.86 1318.0538,-244.9066 1318.0538,-244.9066 1318.0538,-238.9066 1324.0538,-232.9066 1330.0538,-232.9066"/>
<text text-anchor="middle" x="1591.5538" y="-240.7066" font-family="Times,serif" font-size="14.00" fill="#000000">115</text>
</g>
<g id="clust4" class="cluster">
<title>cluster230</title>
<path fill="none" stroke="#000000" d="M867.0538,-8C867.0538,-8 953.0538,-8 953.0538,-8 959.0538,-8 965.0538,-14 965.0538,-20 965.0538,-20 965.0538,-209.93 965.0538,-209.93 965.0538,-215.93 959.0538,-221.93 953.0538,-221.93 953.0538,-221.93 867.0538,-221.93 867.0538,-221.93 861.0538,-221.93 855.0538,-215.93 855.0538,-209.93 855.0538,-209.93 855.0538,-20 855.0538,-20 855.0538,-14 861.0538,-8 867.0538,-8"/>
<text text-anchor="middle" x="946.5538" y="-15.8" font-family="Times,serif" font-size="14.00" fill="#000000">230</text>
</g>
<!-- Smfc_b1_dist -->
<g id="node1" class="node">
<title>Smfc_b1_dist</title>
<ellipse fill="none" stroke="#000000" cx="65.0538" cy="-390.3833" rx="65.1077" ry="37.4533"/>
<text text-anchor="middle" x="65.0538" y="-401.6833" font-family="Times,serif" font-size="14.00" fill="#000000">Smfc_b1_dist</text>
<text text-anchor="middle" x="65.0538" y="-386.6833" font-family="Times,serif" font-size="14.00" fill="#000000">~</text>
<text text-anchor="middle" x="65.0538" y="-371.6833" font-family="Times,serif" font-size="14.00" fill="#000000">Normal</text>
</g>
<!-- Smfc_b1 -->
<g id="node11" class="node">
<title>Smfc_b1</title>
<polygon fill="none" stroke="#000000" points="331.5538,-316.9066 240.5538,-316.9066 240.5538,-263.9066 331.5538,-263.9066 331.5538,-316.9066"/>
<text text-anchor="middle" x="286.0538" y="-301.7066" font-family="Times,serif" font-size="14.00" fill="#000000">Smfc_b1</text>
<text text-anchor="middle" x="286.0538" y="-286.7066" font-family="Times,serif" font-size="14.00" fill="#000000">~</text>
<text text-anchor="middle" x="286.0538" y="-271.7066" font-family="Times,serif" font-size="14.00" fill="#000000">Deterministic</text>
</g>
<!-- Smfc_b1_dist&#45;&gt;Smfc_b1 -->
<g id="edge5" class="edge">
<title>Smfc_b1_dist&#45;&gt;Smfc_b1</title>
<path fill="none" stroke="#000000" d="M112.4929,-364.5829C120.3049,-360.5543 128.3622,-356.5299 136.0538,-352.9066 167.0091,-338.3248 202.3029,-323.5307 230.8757,-311.9988"/>
<polygon fill="#000000" stroke="#000000" points="232.3161,-315.1921 240.2919,-308.218 229.7078,-308.6961 232.3161,-315.1921"/>
</g>
<!-- Smfc_b2_dist -->
<g id="node2" class="node">
<title>Smfc_b2_dist</title>
<ellipse fill="none" stroke="#000000" cx="1243.0538" cy="-390.3833" rx="65.1077" ry="37.4533"/>
<text text-anchor="middle" x="1243.0538" y="-401.6833" font-family="Times,serif" font-size="14.00" fill="#000000">Smfc_b2_dist</text>
<text text-anchor="middle" x="1243.0538" y="-386.6833" font-family="Times,serif" font-size="14.00" fill="#000000">~</text>
<text text-anchor="middle" x="1243.0538" y="-371.6833" font-family="Times,serif" font-size="14.00" fill="#000000">Normal</text>
</g>
<!-- Smfc_b2 -->
<g id="node13" class="node">
<title>Smfc_b2</title>
<polygon fill="none" stroke="#000000" points="1066.5538,-316.9066 975.5538,-316.9066 975.5538,-263.9066 1066.5538,-263.9066 1066.5538,-316.9066"/>
<text text-anchor="middle" x="1021.0538" y="-301.7066" font-family="Times,serif" font-size="14.00" fill="#000000">Smfc_b2</text>
<text text-anchor="middle" x="1021.0538" y="-286.7066" font-family="Times,serif" font-size="14.00" fill="#000000">~</text>
<text text-anchor="middle" x="1021.0538" y="-271.7066" font-family="Times,serif" font-size="14.00" fill="#000000">Deterministic</text>
</g>
<!-- Smfc_b2_dist&#45;&gt;Smfc_b2 -->
<g id="edge7" class="edge">
<title>Smfc_b2_dist&#45;&gt;Smfc_b2</title>
<path fill="none" stroke="#000000" d="M1195.6222,-364.5671C1187.8092,-360.5405 1179.7497,-356.5208 1172.0538,-352.9066 1140.79,-338.2244 1105.1137,-323.3724 1076.2915,-311.8325"/>
<polygon fill="#000000" stroke="#000000" points="1077.3814,-308.4992 1066.796,-308.0509 1074.7914,-315.0025 1077.3814,-308.4992"/>
</g>
<!-- Smfc_b0 -->
<g id="node3" class="node">
<title>Smfc_b0</title>
<polygon fill="none" stroke="#000000" points="772.5538,-316.9066 681.5538,-316.9066 681.5538,-263.9066 772.5538,-263.9066 772.5538,-316.9066"/>
<text text-anchor="middle" x="727.0538" y="-301.7066" font-family="Times,serif" font-size="14.00" fill="#000000">Smfc_b0</text>
<text text-anchor="middle" x="727.0538" y="-286.7066" font-family="Times,serif" font-size="14.00" fill="#000000">~</text>
<text text-anchor="middle" x="727.0538" y="-271.7066" font-family="Times,serif" font-size="14.00" fill="#000000">Deterministic</text>
</g>
<!-- Smfc_mu -->
<g id="node20" class="node">
<title>Smfc_mu</title>
<polygon fill="none" stroke="#000000" points="955.5538,-213.93 864.5538,-213.93 864.5538,-160.93 955.5538,-160.93 955.5538,-213.93"/>
<text text-anchor="middle" x="910.0538" y="-198.73" font-family="Times,serif" font-size="14.00" fill="#000000">Smfc_mu</text>
<text text-anchor="middle" x="910.0538" y="-183.73" font-family="Times,serif" font-size="14.00" fill="#000000">~</text>
<text text-anchor="middle" x="910.0538" y="-168.73" font-family="Times,serif" font-size="14.00" fill="#000000">Deterministic</text>
</g>
<!-- Smfc_b0&#45;&gt;Smfc_mu -->
<g id="edge16" class="edge">
<title>Smfc_b0&#45;&gt;Smfc_mu</title>
<path fill="none" stroke="#000000" d="M772.7604,-264.6869C797.8704,-250.5571 829.1798,-232.9389 855.5559,-218.0967"/>
<polygon fill="#000000" stroke="#000000" points="857.2972,-221.133 864.2957,-213.1787 853.8643,-215.0326 857.2972,-221.133"/>
</g>
<!-- Smfc_b0_dist -->
<g id="node4" class="node">
<title>Smfc_b0_dist</title>
<ellipse fill="none" stroke="#000000" cx="507.0538" cy="-390.3833" rx="65.1077" ry="37.4533"/>
<text text-anchor="middle" x="507.0538" y="-401.6833" font-family="Times,serif" font-size="14.00" fill="#000000">Smfc_b0_dist</text>
<text text-anchor="middle" x="507.0538" y="-386.6833" font-family="Times,serif" font-size="14.00" fill="#000000">~</text>
<text text-anchor="middle" x="507.0538" y="-371.6833" font-family="Times,serif" font-size="14.00" fill="#000000">Normal</text>
</g>
<!-- Smfc_b0_dist&#45;&gt;Smfc_b0 -->
<g id="edge2" class="edge">
<title>Smfc_b0_dist&#45;&gt;Smfc_b0</title>
<path fill="none" stroke="#000000" d="M555.7964,-365.1406C564.176,-360.9613 572.8325,-356.7433 581.0538,-352.9066 610.7795,-339.0345 644.4091,-324.5573 671.8938,-313.0337"/>
<polygon fill="#000000" stroke="#000000" points="673.4645,-316.1707 681.3427,-309.0866 670.7664,-309.7116 673.4645,-316.1707"/>
</g>
<!-- Smfc_nuY -->
<g id="node5" class="node">
<title>Smfc_nuY</title>
<ellipse fill="none" stroke="#000000" cx="1031.0538" cy="-187.43" rx="57.9655" ry="37.4533"/>
<text text-anchor="middle" x="1031.0538" y="-198.73" font-family="Times,serif" font-size="14.00" fill="#000000">Smfc_nuY</text>
<text text-anchor="middle" x="1031.0538" y="-183.73" font-family="Times,serif" font-size="14.00" fill="#000000">~</text>
<text text-anchor="middle" x="1031.0538" y="-168.73" font-family="Times,serif" font-size="14.00" fill="#000000">Exponential</text>
</g>
<!-- Smfc_y -->
<g id="node19" class="node">
<title>Smfc_y</title>
<ellipse fill="#d3d3d3" stroke="#000000" cx="910.0538" cy="-76.4767" rx="46.8387" ry="37.4533"/>
<text text-anchor="middle" x="910.0538" y="-87.7767" font-family="Times,serif" font-size="14.00" fill="#000000">Smfc_y</text>
<text text-anchor="middle" x="910.0538" y="-72.7767" font-family="Times,serif" font-size="14.00" fill="#000000">~</text>
<text text-anchor="middle" x="910.0538" y="-57.7767" font-family="Times,serif" font-size="14.00" fill="#000000">StudentT</text>
</g>
<!-- Smfc_nuY&#45;&gt;Smfc_y -->
<g id="edge18" class="edge">
<title>Smfc_nuY&#45;&gt;Smfc_y</title>
<path fill="none" stroke="#000000" d="M997.3486,-156.5233C982.2049,-142.637 964.2543,-126.1769 948.5807,-111.8046"/>
<polygon fill="#000000" stroke="#000000" points="950.8275,-109.1161 941.0916,-104.9373 946.0965,-114.2755 950.8275,-109.1161"/>
</g>
<!-- Smfc_mu_b0 -->
<g id="node6" class="node">
<title>Smfc_mu_b0</title>
<ellipse fill="none" stroke="#000000" cx="654.0538" cy="-390.3833" rx="64.1938" ry="37.4533"/>
<text text-anchor="middle" x="654.0538" y="-401.6833" font-family="Times,serif" font-size="14.00" fill="#000000">Smfc_mu_b0</text>
<text text-anchor="middle" x="654.0538" y="-386.6833" font-family="Times,serif" font-size="14.00" fill="#000000">~</text>
<text text-anchor="middle" x="654.0538" y="-371.6833" font-family="Times,serif" font-size="14.00" fill="#000000">Normal</text>
</g>
<!-- Smfc_mu_b0&#45;&gt;Smfc_b0 -->
<g id="edge1" class="edge">
<title>Smfc_mu_b0&#45;&gt;Smfc_b0</title>
<path fill="none" stroke="#000000" d="M679.3808,-355.6969C686.5152,-345.926 694.28,-335.2919 701.4315,-325.4975"/>
<polygon fill="#000000" stroke="#000000" points="704.4568,-327.2895 707.5271,-317.1493 698.8034,-323.1615 704.4568,-327.2895"/>
</g>
<!-- Smfc_b3_dist -->
<g id="node7" class="node">
<title>Smfc_b3_dist</title>
<ellipse fill="none" stroke="#000000" cx="1685.0538" cy="-390.3833" rx="65.1077" ry="37.4533"/>
<text text-anchor="middle" x="1685.0538" y="-401.6833" font-family="Times,serif" font-size="14.00" fill="#000000">Smfc_b3_dist</text>
<text text-anchor="middle" x="1685.0538" y="-386.6833" font-family="Times,serif" font-size="14.00" fill="#000000">~</text>
<text text-anchor="middle" x="1685.0538" y="-371.6833" font-family="Times,serif" font-size="14.00" fill="#000000">Normal</text>
</g>
<!-- Smfc_b3 -->
<g id="node16" class="node">
<title>Smfc_b3</title>
<polygon fill="none" stroke="#000000" points="1508.5538,-316.9066 1417.5538,-316.9066 1417.5538,-263.9066 1508.5538,-263.9066 1508.5538,-316.9066"/>
<text text-anchor="middle" x="1463.0538" y="-301.7066" font-family="Times,serif" font-size="14.00" fill="#000000">Smfc_b3</text>
<text text-anchor="middle" x="1463.0538" y="-286.7066" font-family="Times,serif" font-size="14.00" fill="#000000">~</text>
<text text-anchor="middle" x="1463.0538" y="-271.7066" font-family="Times,serif" font-size="14.00" fill="#000000">Deterministic</text>
</g>
<!-- Smfc_b3_dist&#45;&gt;Smfc_b3 -->
<g id="edge10" class="edge">
<title>Smfc_b3_dist&#45;&gt;Smfc_b3</title>
<path fill="none" stroke="#000000" d="M1637.6222,-364.5671C1629.8092,-360.5405 1621.7497,-356.5208 1614.0538,-352.9066 1582.79,-338.2244 1547.1137,-323.3724 1518.2915,-311.8325"/>
<polygon fill="#000000" stroke="#000000" points="1519.3814,-308.4992 1508.796,-308.0509 1516.7914,-315.0025 1519.3814,-308.4992"/>
</g>
<!-- Smfc_sigmaY -->
<g id="node8" class="node">
<title>Smfc_sigmaY</title>
<ellipse fill="none" stroke="#000000" cx="1174.0538" cy="-187.43" rx="67.3507" ry="37.4533"/>
<text text-anchor="middle" x="1174.0538" y="-198.73" font-family="Times,serif" font-size="14.00" fill="#000000">Smfc_sigmaY</text>
<text text-anchor="middle" x="1174.0538" y="-183.73" font-family="Times,serif" font-size="14.00" fill="#000000">~</text>
<text text-anchor="middle" x="1174.0538" y="-168.73" font-family="Times,serif" font-size="14.00" fill="#000000">Gamma</text>
</g>
<!-- Smfc_sigmaY&#45;&gt;Smfc_y -->
<g id="edge17" class="edge">
<title>Smfc_sigmaY&#45;&gt;Smfc_y</title>
<path fill="none" stroke="#000000" d="M1124.0563,-162.0221C1115.443,-157.8619 1106.534,-153.6931 1098.0538,-149.9533 1052.8736,-130.0285 1000.4724,-109.7769 962.4874,-95.5949"/>
<polygon fill="#000000" stroke="#000000" points="963.2578,-92.1473 952.665,-91.9428 960.8183,-98.7085 963.2578,-92.1473"/>
</g>
<!-- Smfc_sigma0 -->
<g id="node9" class="node">
<title>Smfc_sigma0</title>
<ellipse fill="none" stroke="#000000" cx="801.0538" cy="-390.3833" rx="65.1077" ry="37.4533"/>
<text text-anchor="middle" x="801.0538" y="-401.6833" font-family="Times,serif" font-size="14.00" fill="#000000">Smfc_sigma0</text>
<text text-anchor="middle" x="801.0538" y="-386.6833" font-family="Times,serif" font-size="14.00" fill="#000000">~</text>
<text text-anchor="middle" x="801.0538" y="-371.6833" font-family="Times,serif" font-size="14.00" fill="#000000">HalfNormal</text>
</g>
<!-- Smfc_sigma0&#45;&gt;Smfc_b0 -->
<g id="edge3" class="edge">
<title>Smfc_sigma0&#45;&gt;Smfc_b0</title>
<path fill="none" stroke="#000000" d="M775.3799,-355.6969C768.0747,-345.8273 760.1176,-335.0769 752.8076,-325.2009"/>
<polygon fill="#000000" stroke="#000000" points="755.6106,-323.1048 746.848,-317.1493 749.9841,-327.2693 755.6106,-323.1048"/>
</g>
<!-- Smfc_mu_b1 -->
<g id="node10" class="node">
<title>Smfc_mu_b1</title>
<ellipse fill="none" stroke="#000000" cx="360.0538" cy="-390.3833" rx="64.1938" ry="37.4533"/>
<text text-anchor="middle" x="360.0538" y="-401.6833" font-family="Times,serif" font-size="14.00" fill="#000000">Smfc_mu_b1</text>
<text text-anchor="middle" x="360.0538" y="-386.6833" font-family="Times,serif" font-size="14.00" fill="#000000">~</text>
<text text-anchor="middle" x="360.0538" y="-371.6833" font-family="Times,serif" font-size="14.00" fill="#000000">Normal</text>
</g>
<!-- Smfc_mu_b1&#45;&gt;Smfc_b1 -->
<g id="edge4" class="edge">
<title>Smfc_mu_b1&#45;&gt;Smfc_b1</title>
<path fill="none" stroke="#000000" d="M334.3799,-355.6969C327.0747,-345.8273 319.1176,-335.0769 311.8076,-325.2009"/>
<polygon fill="#000000" stroke="#000000" points="314.6106,-323.1048 305.848,-317.1493 308.9841,-327.2693 314.6106,-323.1048"/>
</g>
<!-- Smfc_b1&#45;&gt;Smfc_mu -->
<g id="edge14" class="edge">
<title>Smfc_b1&#45;&gt;Smfc_mu</title>
<path fill="none" stroke="#000000" d="M331.6852,-282.8762C443.8641,-264.3637 732.8114,-216.6797 854.6061,-196.5803"/>
<polygon fill="#000000" stroke="#000000" points="855.1773,-200.0335 864.474,-194.9519 854.0375,-193.1269 855.1773,-200.0335"/>
</g>
<!-- Smfc_sigma1 -->
<g id="node12" class="node">
<title>Smfc_sigma1</title>
<ellipse fill="none" stroke="#000000" cx="213.0538" cy="-390.3833" rx="65.1077" ry="37.4533"/>
<text text-anchor="middle" x="213.0538" y="-401.6833" font-family="Times,serif" font-size="14.00" fill="#000000">Smfc_sigma1</text>
<text text-anchor="middle" x="213.0538" y="-386.6833" font-family="Times,serif" font-size="14.00" fill="#000000">~</text>
<text text-anchor="middle" x="213.0538" y="-371.6833" font-family="Times,serif" font-size="14.00" fill="#000000">HalfNormal</text>
</g>
<!-- Smfc_sigma1&#45;&gt;Smfc_b1 -->
<g id="edge6" class="edge">
<title>Smfc_sigma1&#45;&gt;Smfc_b1</title>
<path fill="none" stroke="#000000" d="M238.3808,-355.6969C245.5152,-345.926 253.28,-335.2919 260.4315,-325.4975"/>
<polygon fill="#000000" stroke="#000000" points="263.4568,-327.2895 266.5271,-317.1493 257.8034,-323.1615 263.4568,-327.2895"/>
</g>
<!-- Smfc_b2&#45;&gt;Smfc_mu -->
<g id="edge13" class="edge">
<title>Smfc_b2&#45;&gt;Smfc_mu</title>
<path fill="none" stroke="#000000" d="M992.4686,-263.8876C978.4653,-250.8965 961.4457,-235.1071 946.5171,-221.2576"/>
<polygon fill="#000000" stroke="#000000" points="948.6395,-218.4524 938.928,-214.2171 943.8787,-223.5841 948.6395,-218.4524"/>
</g>
<!-- Smfc_sigma2 -->
<g id="node14" class="node">
<title>Smfc_sigma2</title>
<ellipse fill="none" stroke="#000000" cx="1095.0538" cy="-390.3833" rx="65.1077" ry="37.4533"/>
<text text-anchor="middle" x="1095.0538" y="-401.6833" font-family="Times,serif" font-size="14.00" fill="#000000">Smfc_sigma2</text>
<text text-anchor="middle" x="1095.0538" y="-386.6833" font-family="Times,serif" font-size="14.00" fill="#000000">~</text>
<text text-anchor="middle" x="1095.0538" y="-371.6833" font-family="Times,serif" font-size="14.00" fill="#000000">HalfNormal</text>
</g>
<!-- Smfc_sigma2&#45;&gt;Smfc_b2 -->
<g id="edge8" class="edge">
<title>Smfc_sigma2&#45;&gt;Smfc_b2</title>
<path fill="none" stroke="#000000" d="M1069.3799,-355.6969C1062.0747,-345.8273 1054.1176,-335.0769 1046.8076,-325.2009"/>
<polygon fill="#000000" stroke="#000000" points="1049.6106,-323.1048 1040.848,-317.1493 1043.9841,-327.2693 1049.6106,-323.1048"/>
</g>
<!-- Smfc_mu_b2 -->
<g id="node15" class="node">
<title>Smfc_mu_b2</title>
<ellipse fill="none" stroke="#000000" cx="948.0538" cy="-390.3833" rx="64.1938" ry="37.4533"/>
<text text-anchor="middle" x="948.0538" y="-401.6833" font-family="Times,serif" font-size="14.00" fill="#000000">Smfc_mu_b2</text>
<text text-anchor="middle" x="948.0538" y="-386.6833" font-family="Times,serif" font-size="14.00" fill="#000000">~</text>
<text text-anchor="middle" x="948.0538" y="-371.6833" font-family="Times,serif" font-size="14.00" fill="#000000">Normal</text>
</g>
<!-- Smfc_mu_b2&#45;&gt;Smfc_b2 -->
<g id="edge9" class="edge">
<title>Smfc_mu_b2&#45;&gt;Smfc_b2</title>
<path fill="none" stroke="#000000" d="M973.3808,-355.6969C980.5152,-345.926 988.28,-335.2919 995.4315,-325.4975"/>
<polygon fill="#000000" stroke="#000000" points="998.4568,-327.2895 1001.5271,-317.1493 992.8034,-323.1615 998.4568,-327.2895"/>
</g>
<!-- Smfc_b3&#45;&gt;Smfc_mu -->
<g id="edge15" class="edge">
<title>Smfc_b3&#45;&gt;Smfc_mu</title>
<path fill="none" stroke="#000000" d="M1417.54,-279.1111C1360.5603,-265.5046 1259.7709,-243.1955 1172.0538,-232.9066 1126.1124,-227.5179 1007.9245,-239.5701 964.0538,-224.9066 959.5555,-223.4031 955.0945,-221.4 950.7772,-219.099"/>
<polygon fill="#000000" stroke="#000000" points="952.5448,-216.0782 942.1513,-214.0226 948.9944,-222.111 952.5448,-216.0782"/>
</g>
<!-- Smfc_sigma3 -->
<g id="node17" class="node">
<title>Smfc_sigma3</title>
<ellipse fill="none" stroke="#000000" cx="1537.0538" cy="-390.3833" rx="65.1077" ry="37.4533"/>
<text text-anchor="middle" x="1537.0538" y="-401.6833" font-family="Times,serif" font-size="14.00" fill="#000000">Smfc_sigma3</text>
<text text-anchor="middle" x="1537.0538" y="-386.6833" font-family="Times,serif" font-size="14.00" fill="#000000">~</text>
<text text-anchor="middle" x="1537.0538" y="-371.6833" font-family="Times,serif" font-size="14.00" fill="#000000">HalfNormal</text>
</g>
<!-- Smfc_sigma3&#45;&gt;Smfc_b3 -->
<g id="edge11" class="edge">
<title>Smfc_sigma3&#45;&gt;Smfc_b3</title>
<path fill="none" stroke="#000000" d="M1511.3799,-355.6969C1504.0747,-345.8273 1496.1176,-335.0769 1488.8076,-325.2009"/>
<polygon fill="#000000" stroke="#000000" points="1491.6106,-323.1048 1482.848,-317.1493 1485.9841,-327.2693 1491.6106,-323.1048"/>
</g>
<!-- Smfc_mu_b3 -->
<g id="node18" class="node">
<title>Smfc_mu_b3</title>
<ellipse fill="none" stroke="#000000" cx="1390.0538" cy="-390.3833" rx="64.1938" ry="37.4533"/>
<text text-anchor="middle" x="1390.0538" y="-401.6833" font-family="Times,serif" font-size="14.00" fill="#000000">Smfc_mu_b3</text>
<text text-anchor="middle" x="1390.0538" y="-386.6833" font-family="Times,serif" font-size="14.00" fill="#000000">~</text>
<text text-anchor="middle" x="1390.0538" y="-371.6833" font-family="Times,serif" font-size="14.00" fill="#000000">Normal</text>
</g>
<!-- Smfc_mu_b3&#45;&gt;Smfc_b3 -->
<g id="edge12" class="edge">
<title>Smfc_mu_b3&#45;&gt;Smfc_b3</title>
<path fill="none" stroke="#000000" d="M1415.3808,-355.6969C1422.5152,-345.926 1430.28,-335.2919 1437.4315,-325.4975"/>
<polygon fill="#000000" stroke="#000000" points="1440.4568,-327.2895 1443.5271,-317.1493 1434.8034,-323.1615 1440.4568,-327.2895"/>
</g>
<!-- Smfc_mu&#45;&gt;Smfc_y -->
<g id="edge19" class="edge">
<title>Smfc_mu&#45;&gt;Smfc_y</title>
<path fill="none" stroke="#000000" d="M910.0538,-160.8539C910.0538,-149.9351 910.0538,-136.944 910.0538,-124.4675"/>
<polygon fill="#000000" stroke="#000000" points="913.5539,-124.1649 910.0538,-114.165 906.5539,-124.165 913.5539,-124.1649"/>
</g>
</g>
</svg>
