<?xml version="1.0" encoding="UTF-8" standalone="no"?>
<!DOCTYPE svg PUBLIC "-//W3C//DTD SVG 1.1//EN"
 "http://www.w3.org/Graphics/SVG/1.1/DTD/svg11.dtd">
<!-- Generated by graphviz version 2.40.1 (20161225.0304)
 -->
<!-- Title: Asfc Pages: 1 -->
<svg width="1718pt" height="452pt"
 viewBox="0.00 0.00 1717.93 451.86" xmlns="http://www.w3.org/2000/svg" xmlns:xlink="http://www.w3.org/1999/xlink">
<g id="graph0" class="graph" transform="scale(1 1) rotate(0) translate(4 447.86)">
<title>Asfc</title>
<polygon fill="#ffffff" stroke="transparent" points="-4,4 -4,-447.86 1713.9325,-447.86 1713.9325,4 -4,4"/>
<g id="clust1" class="cluster">
<title>cluster2</title>
<path fill="none" stroke="#000000" d="M20,-232.9066C20,-232.9066 279,-232.9066 279,-232.9066 285,-232.9066 291,-238.9066 291,-244.9066 291,-244.9066 291,-423.86 291,-423.86 291,-429.86 285,-435.86 279,-435.86 279,-435.86 20,-435.86 20,-435.86 14,-435.86 8,-429.86 8,-423.86 8,-423.86 8,-244.9066 8,-244.9066 8,-238.9066 14,-232.9066 20,-232.9066"/>
<text text-anchor="middle" x="279.5" y="-240.7066" font-family="Times,serif" font-size="14.00" fill="#000000">2</text>
</g>
<g id="clust2" class="cluster">
<title>cluster11</title>
<path fill="none" stroke="#000000" d="M447,-232.9066C447,-232.9066 706,-232.9066 706,-232.9066 712,-232.9066 718,-238.9066 718,-244.9066 718,-244.9066 718,-423.86 718,-423.86 718,-429.86 712,-435.86 706,-435.86 706,-435.86 447,-435.86 447,-435.86 441,-435.86 435,-429.86 435,-423.86 435,-423.86 435,-244.9066 435,-244.9066 435,-238.9066 441,-232.9066 447,-232.9066"/>
<text text-anchor="middle" x="703" y="-240.7066" font-family="Times,serif" font-size="14.00" fill="#000000">11</text>
</g>
<g id="clust3" class="cluster">
<title>cluster115</title>
<path fill="none" stroke="#000000" d="M875,-232.9066C875,-232.9066 1134,-232.9066 1134,-232.9066 1140,-232.9066 1146,-238.9066 1146,-244.9066 1146,-244.9066 1146,-423.86 1146,-423.86 1146,-429.86 1140,-435.86 1134,-435.86 1134,-435.86 875,-435.86 875,-435.86 869,-435.86 863,-429.86 863,-423.86 863,-423.86 863,-244.9066 863,-244.9066 863,-238.9066 869,-232.9066 875,-232.9066"/>
<text text-anchor="middle" x="1127.5" y="-240.7066" font-family="Times,serif" font-size="14.00" fill="#000000">115</text>
</g>
<g id="clust4" class="cluster">
<title>cluster230</title>
<path fill="none" stroke="#000000" d="M790,-8C790,-8 876,-8 876,-8 882,-8 888,-14 888,-20 888,-20 888,-209.93 888,-209.93 888,-215.93 882,-221.93 876,-221.93 876,-221.93 790,-221.93 790,-221.93 784,-221.93 778,-215.93 778,-209.93 778,-209.93 778,-20 778,-20 778,-14 784,-8 790,-8"/>
<text text-anchor="middle" x="869.5" y="-15.8" font-family="Times,serif" font-size="14.00" fill="#000000">230</text>
</g>
<!-- Asfc_mu_b0 -->
<g id="node1" class="node">
<title>Asfc_mu_b0</title>
<ellipse fill="none" stroke="#000000" cx="1361" cy="-390.3833" rx="61.5366" ry="37.4533"/>
<text text-anchor="middle" x="1361" y="-401.6833" font-family="Times,serif" font-size="14.00" fill="#000000">Asfc_mu_b0</text>
<text text-anchor="middle" x="1361" y="-386.6833" font-family="Times,serif" font-size="14.00" fill="#000000">~</text>
<text text-anchor="middle" x="1361" y="-371.6833" font-family="Times,serif" font-size="14.00" fill="#000000">Normal</text>
</g>
<!-- Asfc_b0 -->
<g id="node4" class="node">
<title>Asfc_b0</title>
<polygon fill="none" stroke="#000000" points="1477.5,-316.9066 1386.5,-316.9066 1386.5,-263.9066 1477.5,-263.9066 1477.5,-316.9066"/>
<text text-anchor="middle" x="1432" y="-301.7066" font-family="Times,serif" font-size="14.00" fill="#000000">Asfc_b0</text>
<text text-anchor="middle" x="1432" y="-286.7066" font-family="Times,serif" font-size="14.00" fill="#000000">~</text>
<text text-anchor="middle" x="1432" y="-271.7066" font-family="Times,serif" font-size="14.00" fill="#000000">Deterministic</text>
</g>
<!-- Asfc_mu_b0&#45;&gt;Asfc_b0 -->
<g id="edge1" class="edge">
<title>Asfc_mu_b0&#45;&gt;Asfc_b0</title>
<path fill="none" stroke="#000000" d="M1385.4342,-355.977C1392.4458,-346.1038 1400.0973,-335.3296 1407.1345,-325.4202"/>
<polygon fill="#000000" stroke="#000000" points="1410.1926,-327.1588 1413.1292,-316.9791 1404.4854,-323.1057 1410.1926,-327.1588"/>
</g>
<!-- Asfc_sigma0 -->
<g id="node2" class="node">
<title>Asfc_sigma0</title>
<ellipse fill="none" stroke="#000000" cx="1503" cy="-390.3833" rx="62.8651" ry="37.4533"/>
<text text-anchor="middle" x="1503" y="-401.6833" font-family="Times,serif" font-size="14.00" fill="#000000">Asfc_sigma0</text>
<text text-anchor="middle" x="1503" y="-386.6833" font-family="Times,serif" font-size="14.00" fill="#000000">~</text>
<text text-anchor="middle" x="1503" y="-371.6833" font-family="Times,serif" font-size="14.00" fill="#000000">HalfNormal</text>
</g>
<!-- Asfc_sigma0&#45;&gt;Asfc_b0 -->
<g id="edge2" class="edge">
<title>Asfc_sigma0&#45;&gt;Asfc_b0</title>
<path fill="none" stroke="#000000" d="M1478.3669,-355.6969C1471.4279,-345.926 1463.8759,-335.2919 1456.9203,-325.4975"/>
<polygon fill="#000000" stroke="#000000" points="1459.6355,-323.2759 1450.9917,-317.1493 1453.9282,-327.329 1459.6355,-323.2759"/>
</g>
<!-- Asfc_nuY -->
<g id="node3" class="node">
<title>Asfc_nuY</title>
<ellipse fill="none" stroke="#000000" cx="954" cy="-187.43" rx="57.9655" ry="37.4533"/>
<text text-anchor="middle" x="954" y="-198.73" font-family="Times,serif" font-size="14.00" fill="#000000">Asfc_nuY</text>
<text text-anchor="middle" x="954" y="-183.73" font-family="Times,serif" font-size="14.00" fill="#000000">~</text>
<text text-anchor="middle" x="954" y="-168.73" font-family="Times,serif" font-size="14.00" fill="#000000">Exponential</text>
</g>
<!-- Asfc_y -->
<g id="node20" class="node">
<title>Asfc_y</title>
<ellipse fill="#d3d3d3" stroke="#000000" cx="833" cy="-76.4767" rx="46.8387" ry="37.4533"/>
<text text-anchor="middle" x="833" y="-87.7767" font-family="Times,serif" font-size="14.00" fill="#000000">Asfc_y</text>
<text text-anchor="middle" x="833" y="-72.7767" font-family="Times,serif" font-size="14.00" fill="#000000">~</text>
<text text-anchor="middle" x="833" y="-57.7767" font-family="Times,serif" font-size="14.00" fill="#000000">StudentT</text>
</g>
<!-- Asfc_nuY&#45;&gt;Asfc_y -->
<g id="edge19" class="edge">
<title>Asfc_nuY&#45;&gt;Asfc_y</title>
<path fill="none" stroke="#000000" d="M920.2948,-156.5233C905.1511,-142.637 887.2005,-126.1769 871.5269,-111.8046"/>
<polygon fill="#000000" stroke="#000000" points="873.7737,-109.1161 864.0377,-104.9373 869.0427,-114.2755 873.7737,-109.1161"/>
</g>
<!-- Asfc_mu -->
<g id="node19" class="node">
<title>Asfc_mu</title>
<polygon fill="none" stroke="#000000" points="878.5,-213.93 787.5,-213.93 787.5,-160.93 878.5,-160.93 878.5,-213.93"/>
<text text-anchor="middle" x="833" y="-198.73" font-family="Times,serif" font-size="14.00" fill="#000000">Asfc_mu</text>
<text text-anchor="middle" x="833" y="-183.73" font-family="Times,serif" font-size="14.00" fill="#000000">~</text>
<text text-anchor="middle" x="833" y="-168.73" font-family="Times,serif" font-size="14.00" fill="#000000">Deterministic</text>
</g>
<!-- Asfc_b0&#45;&gt;Asfc_mu -->
<g id="edge16" class="edge">
<title>Asfc_b0&#45;&gt;Asfc_mu</title>
<path fill="none" stroke="#000000" d="M1386.4733,-278.6213C1331.0442,-264.8555 1234.373,-242.7189 1150,-232.9066 1120.96,-229.5294 914.7649,-234.063 887,-224.9066 882.4957,-223.4212 878.0306,-221.4302 873.7107,-219.1371"/>
<polygon fill="#000000" stroke="#000000" points="875.4771,-216.1156 865.0815,-214.0708 871.933,-222.1521 875.4771,-216.1156"/>
</g>
<!-- Asfc_sigmaY -->
<g id="node5" class="node">
<title>Asfc_sigmaY</title>
<ellipse fill="none" stroke="#000000" cx="1095" cy="-187.43" rx="65.1077" ry="37.4533"/>
<text text-anchor="middle" x="1095" y="-198.73" font-family="Times,serif" font-size="14.00" fill="#000000">Asfc_sigmaY</text>
<text text-anchor="middle" x="1095" y="-183.73" font-family="Times,serif" font-size="14.00" fill="#000000">~</text>
<text text-anchor="middle" x="1095" y="-168.73" font-family="Times,serif" font-size="14.00" fill="#000000">Gamma</text>
</g>
<!-- Asfc_sigmaY&#45;&gt;Asfc_y -->
<g id="edge17" class="edge">
<title>Asfc_sigmaY&#45;&gt;Asfc_y</title>
<path fill="none" stroke="#000000" d="M1046.7593,-162.1606C1038.2444,-157.9414 1029.4129,-153.7172 1021,-149.9533 975.9267,-129.7879 923.5147,-109.5606 885.4984,-95.449"/>
<polygon fill="#000000" stroke="#000000" points="886.2604,-91.9993 875.6671,-91.8168 883.8345,-98.5655 886.2604,-91.9993"/>
</g>
<!-- Asfc_b2_dist -->
<g id="node6" class="node">
<title>Asfc_b2_dist</title>
<ellipse fill="none" stroke="#000000" cx="791" cy="-390.3833" rx="62.8651" ry="37.4533"/>
<text text-anchor="middle" x="791" y="-401.6833" font-family="Times,serif" font-size="14.00" fill="#000000">Asfc_b2_dist</text>
<text text-anchor="middle" x="791" y="-386.6833" font-family="Times,serif" font-size="14.00" fill="#000000">~</text>
<text text-anchor="middle" x="791" y="-371.6833" font-family="Times,serif" font-size="14.00" fill="#000000">Normal</text>
</g>
<!-- Asfc_b2 -->
<g id="node15" class="node">
<title>Asfc_b2</title>
<polygon fill="none" stroke="#000000" points="700.5,-316.9066 609.5,-316.9066 609.5,-263.9066 700.5,-263.9066 700.5,-316.9066"/>
<text text-anchor="middle" x="655" y="-301.7066" font-family="Times,serif" font-size="14.00" fill="#000000">Asfc_b2</text>
<text text-anchor="middle" x="655" y="-286.7066" font-family="Times,serif" font-size="14.00" fill="#000000">~</text>
<text text-anchor="middle" x="655" y="-271.7066" font-family="Times,serif" font-size="14.00" fill="#000000">Deterministic</text>
</g>
<!-- Asfc_b2_dist&#45;&gt;Asfc_b2 -->
<g id="edge9" class="edge">
<title>Asfc_b2_dist&#45;&gt;Asfc_b2</title>
<path fill="none" stroke="#000000" d="M751.2976,-361.1971C735.1405,-349.3197 716.3892,-335.5352 699.7495,-323.303"/>
<polygon fill="#000000" stroke="#000000" points="701.3957,-320.1692 691.2655,-317.0662 697.2496,-325.8093 701.3957,-320.1692"/>
</g>
<!-- Asfc_b1_dist -->
<g id="node7" class="node">
<title>Asfc_b1_dist</title>
<ellipse fill="none" stroke="#000000" cx="363" cy="-390.3833" rx="62.8651" ry="37.4533"/>
<text text-anchor="middle" x="363" y="-401.6833" font-family="Times,serif" font-size="14.00" fill="#000000">Asfc_b1_dist</text>
<text text-anchor="middle" x="363" y="-386.6833" font-family="Times,serif" font-size="14.00" fill="#000000">~</text>
<text text-anchor="middle" x="363" y="-371.6833" font-family="Times,serif" font-size="14.00" fill="#000000">Normal</text>
</g>
<!-- Asfc_b1 -->
<g id="node12" class="node">
<title>Asfc_b1</title>
<polygon fill="none" stroke="#000000" points="274.5,-316.9066 183.5,-316.9066 183.5,-263.9066 274.5,-263.9066 274.5,-316.9066"/>
<text text-anchor="middle" x="229" y="-301.7066" font-family="Times,serif" font-size="14.00" fill="#000000">Asfc_b1</text>
<text text-anchor="middle" x="229" y="-286.7066" font-family="Times,serif" font-size="14.00" fill="#000000">~</text>
<text text-anchor="middle" x="229" y="-271.7066" font-family="Times,serif" font-size="14.00" fill="#000000">Deterministic</text>
</g>
<!-- Asfc_b1_dist&#45;&gt;Asfc_b1 -->
<g id="edge4" class="edge">
<title>Asfc_b1_dist&#45;&gt;Asfc_b1</title>
<path fill="none" stroke="#000000" d="M323.5203,-360.9277C307.611,-349.0579 289.1959,-335.3185 272.8696,-323.1375"/>
<polygon fill="#000000" stroke="#000000" points="274.6548,-320.1026 264.5468,-316.9279 270.4688,-325.7131 274.6548,-320.1026"/>
</g>
<!-- Asfc_b0_dist -->
<g id="node8" class="node">
<title>Asfc_b0_dist</title>
<ellipse fill="none" stroke="#000000" cx="1647" cy="-390.3833" rx="62.8651" ry="37.4533"/>
<text text-anchor="middle" x="1647" y="-401.6833" font-family="Times,serif" font-size="14.00" fill="#000000">Asfc_b0_dist</text>
<text text-anchor="middle" x="1647" y="-386.6833" font-family="Times,serif" font-size="14.00" fill="#000000">~</text>
<text text-anchor="middle" x="1647" y="-371.6833" font-family="Times,serif" font-size="14.00" fill="#000000">Normal</text>
</g>
<!-- Asfc_b0_dist&#45;&gt;Asfc_b0 -->
<g id="edge3" class="edge">
<title>Asfc_b0_dist&#45;&gt;Asfc_b0</title>
<path fill="none" stroke="#000000" d="M1599.9807,-365.3271C1591.705,-361.0843 1583.1367,-356.7969 1575,-352.9066 1546.2464,-339.1593 1513.7247,-324.8496 1486.9685,-313.397"/>
<polygon fill="#000000" stroke="#000000" points="1488.3322,-310.1736 1477.7607,-309.4708 1485.5866,-316.6127 1488.3322,-310.1736"/>
</g>
<!-- Asfc_b3_dist -->
<g id="node9" class="node">
<title>Asfc_b3_dist</title>
<ellipse fill="none" stroke="#000000" cx="1219" cy="-390.3833" rx="62.8651" ry="37.4533"/>
<text text-anchor="middle" x="1219" y="-401.6833" font-family="Times,serif" font-size="14.00" fill="#000000">Asfc_b3_dist</text>
<text text-anchor="middle" x="1219" y="-386.6833" font-family="Times,serif" font-size="14.00" fill="#000000">~</text>
<text text-anchor="middle" x="1219" y="-371.6833" font-family="Times,serif" font-size="14.00" fill="#000000">Normal</text>
</g>
<!-- Asfc_b3 -->
<g id="node16" class="node">
<title>Asfc_b3</title>
<polygon fill="none" stroke="#000000" points="1049.5,-316.9066 958.5,-316.9066 958.5,-263.9066 1049.5,-263.9066 1049.5,-316.9066"/>
<text text-anchor="middle" x="1004" y="-301.7066" font-family="Times,serif" font-size="14.00" fill="#000000">Asfc_b3</text>
<text text-anchor="middle" x="1004" y="-286.7066" font-family="Times,serif" font-size="14.00" fill="#000000">~</text>
<text text-anchor="middle" x="1004" y="-271.7066" font-family="Times,serif" font-size="14.00" fill="#000000">Deterministic</text>
</g>
<!-- Asfc_b3_dist&#45;&gt;Asfc_b3 -->
<g id="edge10" class="edge">
<title>Asfc_b3_dist&#45;&gt;Asfc_b3</title>
<path fill="none" stroke="#000000" d="M1172.9131,-364.5853C1165.3191,-360.5564 1157.484,-356.5313 1150,-352.9066 1120.366,-338.5545 1086.6089,-323.992 1059.024,-312.5385"/>
<polygon fill="#000000" stroke="#000000" points="1060.12,-309.2045 1049.5412,-308.6224 1057.4481,-315.6745 1060.12,-309.2045"/>
</g>
<!-- Asfc_mu_b1 -->
<g id="node10" class="node">
<title>Asfc_mu_b1</title>
<ellipse fill="none" stroke="#000000" cx="221" cy="-390.3833" rx="61.5366" ry="37.4533"/>
<text text-anchor="middle" x="221" y="-401.6833" font-family="Times,serif" font-size="14.00" fill="#000000">Asfc_mu_b1</text>
<text text-anchor="middle" x="221" y="-386.6833" font-family="Times,serif" font-size="14.00" fill="#000000">~</text>
<text text-anchor="middle" x="221" y="-371.6833" font-family="Times,serif" font-size="14.00" fill="#000000">Normal</text>
</g>
<!-- Asfc_mu_b1&#45;&gt;Asfc_b1 -->
<g id="edge5" class="edge">
<title>Asfc_mu_b1&#45;&gt;Asfc_b1</title>
<path fill="none" stroke="#000000" d="M224.0017,-352.8712C224.6688,-344.5341 225.3755,-335.7023 226.0409,-327.3867"/>
<polygon fill="#000000" stroke="#000000" points="229.5467,-327.4531 226.8556,-317.2057 222.569,-326.8947 229.5467,-327.4531"/>
</g>
<!-- Asfc_sigma1 -->
<g id="node11" class="node">
<title>Asfc_sigma1</title>
<ellipse fill="none" stroke="#000000" cx="79" cy="-390.3833" rx="62.8651" ry="37.4533"/>
<text text-anchor="middle" x="79" y="-401.6833" font-family="Times,serif" font-size="14.00" fill="#000000">Asfc_sigma1</text>
<text text-anchor="middle" x="79" y="-386.6833" font-family="Times,serif" font-size="14.00" fill="#000000">~</text>
<text text-anchor="middle" x="79" y="-371.6833" font-family="Times,serif" font-size="14.00" fill="#000000">HalfNormal</text>
</g>
<!-- Asfc_sigma1&#45;&gt;Asfc_b1 -->
<g id="edge6" class="edge">
<title>Asfc_sigma1&#45;&gt;Asfc_b1</title>
<path fill="none" stroke="#000000" d="M121.1825,-362.2682C139.7513,-349.8919 161.6632,-335.2874 180.8671,-322.4878"/>
<polygon fill="#000000" stroke="#000000" points="182.8151,-325.3956 189.195,-316.9371 178.9328,-319.5708 182.8151,-325.3956"/>
</g>
<!-- Asfc_b1&#45;&gt;Asfc_mu -->
<g id="edge13" class="edge">
<title>Asfc_b1&#45;&gt;Asfc_mu</title>
<path fill="none" stroke="#000000" d="M274.6057,-275.0932C315.2076,-262.0226 376.4482,-243.6802 431,-232.9066 553.3282,-208.7478 699.3178,-196.226 777.3233,-190.8194"/>
<polygon fill="#000000" stroke="#000000" points="777.6711,-194.3039 787.4107,-190.1338 777.1964,-187.3201 777.6711,-194.3039"/>
</g>
<!-- Asfc_sigma2 -->
<g id="node13" class="node">
<title>Asfc_sigma2</title>
<ellipse fill="none" stroke="#000000" cx="647" cy="-390.3833" rx="62.8651" ry="37.4533"/>
<text text-anchor="middle" x="647" y="-401.6833" font-family="Times,serif" font-size="14.00" fill="#000000">Asfc_sigma2</text>
<text text-anchor="middle" x="647" y="-386.6833" font-family="Times,serif" font-size="14.00" fill="#000000">~</text>
<text text-anchor="middle" x="647" y="-371.6833" font-family="Times,serif" font-size="14.00" fill="#000000">HalfNormal</text>
</g>
<!-- Asfc_sigma2&#45;&gt;Asfc_b2 -->
<g id="edge7" class="edge">
<title>Asfc_sigma2&#45;&gt;Asfc_b2</title>
<path fill="none" stroke="#000000" d="M650.0017,-352.8712C650.6688,-344.5341 651.3755,-335.7023 652.0409,-327.3867"/>
<polygon fill="#000000" stroke="#000000" points="655.5467,-327.4531 652.8556,-317.2057 648.569,-326.8947 655.5467,-327.4531"/>
</g>
<!-- Asfc_mu_b2 -->
<g id="node14" class="node">
<title>Asfc_mu_b2</title>
<ellipse fill="none" stroke="#000000" cx="505" cy="-390.3833" rx="61.5366" ry="37.4533"/>
<text text-anchor="middle" x="505" y="-401.6833" font-family="Times,serif" font-size="14.00" fill="#000000">Asfc_mu_b2</text>
<text text-anchor="middle" x="505" y="-386.6833" font-family="Times,serif" font-size="14.00" fill="#000000">~</text>
<text text-anchor="middle" x="505" y="-371.6833" font-family="Times,serif" font-size="14.00" fill="#000000">Normal</text>
</g>
<!-- Asfc_mu_b2&#45;&gt;Asfc_b2 -->
<g id="edge8" class="edge">
<title>Asfc_mu_b2&#45;&gt;Asfc_b2</title>
<path fill="none" stroke="#000000" d="M546.7834,-362.5342C565.3595,-350.1531 587.3424,-335.5011 606.6266,-322.6481"/>
<polygon fill="#000000" stroke="#000000" points="608.6106,-325.5319 614.9906,-317.0734 604.7283,-319.7071 608.6106,-325.5319"/>
</g>
<!-- Asfc_b2&#45;&gt;Asfc_mu -->
<g id="edge15" class="edge">
<title>Asfc_b2&#45;&gt;Asfc_mu</title>
<path fill="none" stroke="#000000" d="M700.8394,-263.8876C724.5087,-250.1944 753.5519,-233.3924 778.378,-219.0299"/>
<polygon fill="#000000" stroke="#000000" points="780.4127,-221.8964 787.3159,-213.8592 776.9074,-215.8372 780.4127,-221.8964"/>
</g>
<!-- Asfc_b3&#45;&gt;Asfc_mu -->
<g id="edge14" class="edge">
<title>Asfc_b3&#45;&gt;Asfc_mu</title>
<path fill="none" stroke="#000000" d="M958.406,-266.2111C936.521,-254.2621 910.0974,-239.3402 887,-224.9066 884.375,-223.2663 881.7,-221.5528 879.0151,-219.8001"/>
<polygon fill="#000000" stroke="#000000" points="880.721,-216.7313 870.4554,-214.1103 876.8459,-222.5609 880.721,-216.7313"/>
</g>
<!-- Asfc_sigma3 -->
<g id="node17" class="node">
<title>Asfc_sigma3</title>
<ellipse fill="none" stroke="#000000" cx="1075" cy="-390.3833" rx="62.8651" ry="37.4533"/>
<text text-anchor="middle" x="1075" y="-401.6833" font-family="Times,serif" font-size="14.00" fill="#000000">Asfc_sigma3</text>
<text text-anchor="middle" x="1075" y="-386.6833" font-family="Times,serif" font-size="14.00" fill="#000000">~</text>
<text text-anchor="middle" x="1075" y="-371.6833" font-family="Times,serif" font-size="14.00" fill="#000000">HalfNormal</text>
</g>
<!-- Asfc_sigma3&#45;&gt;Asfc_b3 -->
<g id="edge11" class="edge">
<title>Asfc_sigma3&#45;&gt;Asfc_b3</title>
<path fill="none" stroke="#000000" d="M1050.3669,-355.6969C1043.4279,-345.926 1035.8759,-335.2919 1028.9203,-325.4975"/>
<polygon fill="#000000" stroke="#000000" points="1031.6355,-323.2759 1022.9917,-317.1493 1025.9282,-327.329 1031.6355,-323.2759"/>
</g>
<!-- Asfc_mu_b3 -->
<g id="node18" class="node">
<title>Asfc_mu_b3</title>
<ellipse fill="none" stroke="#000000" cx="933" cy="-390.3833" rx="61.5366" ry="37.4533"/>
<text text-anchor="middle" x="933" y="-401.6833" font-family="Times,serif" font-size="14.00" fill="#000000">Asfc_mu_b3</text>
<text text-anchor="middle" x="933" y="-386.6833" font-family="Times,serif" font-size="14.00" fill="#000000">~</text>
<text text-anchor="middle" x="933" y="-371.6833" font-family="Times,serif" font-size="14.00" fill="#000000">Normal</text>
</g>
<!-- Asfc_mu_b3&#45;&gt;Asfc_b3 -->
<g id="edge12" class="edge">
<title>Asfc_mu_b3&#45;&gt;Asfc_b3</title>
<path fill="none" stroke="#000000" d="M957.4342,-355.977C964.4458,-346.1038 972.0973,-335.3296 979.1345,-325.4202"/>
<polygon fill="#000000" stroke="#000000" points="982.1926,-327.1588 985.1292,-316.9791 976.4854,-323.1057 982.1926,-327.1588"/>
</g>
<!-- Asfc_mu&#45;&gt;Asfc_y -->
<g id="edge18" class="edge">
<title>Asfc_mu&#45;&gt;Asfc_y</title>
<path fill="none" stroke="#000000" d="M833,-160.8539C833,-149.9351 833,-136.944 833,-124.4675"/>
<polygon fill="#000000" stroke="#000000" points="836.5001,-124.1649 833,-114.165 829.5001,-124.165 836.5001,-124.1649"/>
</g>
</g>
</svg>
