<?xml version="1.0" encoding="UTF-8" standalone="no"?>
<!DOCTYPE svg PUBLIC "-//W3C//DTD SVG 1.1//EN"
 "http://www.w3.org/Graphics/SVG/1.1/DTD/svg11.dtd">
<!-- Generated by graphviz version 2.40.1 (20161225.0304)
 -->
<!-- Title: HAsfc9 Pages: 1 -->
<svg width="1982pt" height="452pt"
 viewBox="0.00 0.00 1982.49 451.86" xmlns="http://www.w3.org/2000/svg" xmlns:xlink="http://www.w3.org/1999/xlink">
<g id="graph0" class="graph" transform="scale(1 1) rotate(0) translate(4 447.86)">
<title>HAsfc9</title>
<polygon fill="#ffffff" stroke="transparent" points="-4,4 -4,-447.86 1978.4924,-447.86 1978.4924,4 -4,4"/>
<g id="clust1" class="cluster">
<title>cluster2</title>
<path fill="none" stroke="#000000" d="M1000.2462,-232.9066C1000.2462,-232.9066 1306.2462,-232.9066 1306.2462,-232.9066 1312.2462,-232.9066 1318.2462,-238.9066 1318.2462,-244.9066 1318.2462,-244.9066 1318.2462,-423.86 1318.2462,-423.86 1318.2462,-429.86 1312.2462,-435.86 1306.2462,-435.86 1306.2462,-435.86 1000.2462,-435.86 1000.2462,-435.86 994.2462,-435.86 988.2462,-429.86 988.2462,-423.86 988.2462,-423.86 988.2462,-244.9066 988.2462,-244.9066 988.2462,-238.9066 994.2462,-232.9066 1000.2462,-232.9066"/>
<text text-anchor="middle" x="1306.7462" y="-240.7066" font-family="Times,serif" font-size="14.00" fill="#000000">2</text>
</g>
<g id="clust2" class="cluster">
<title>cluster11</title>
<path fill="none" stroke="#000000" d="M1498.2462,-232.9066C1498.2462,-232.9066 1804.2462,-232.9066 1804.2462,-232.9066 1810.2462,-232.9066 1816.2462,-238.9066 1816.2462,-244.9066 1816.2462,-244.9066 1816.2462,-423.86 1816.2462,-423.86 1816.2462,-429.86 1810.2462,-435.86 1804.2462,-435.86 1804.2462,-435.86 1498.2462,-435.86 1498.2462,-435.86 1492.2462,-435.86 1486.2462,-429.86 1486.2462,-423.86 1486.2462,-423.86 1486.2462,-244.9066 1486.2462,-244.9066 1486.2462,-238.9066 1492.2462,-232.9066 1498.2462,-232.9066"/>
<text text-anchor="middle" x="1801.2462" y="-240.7066" font-family="Times,serif" font-size="14.00" fill="#000000">11</text>
</g>
<g id="clust3" class="cluster">
<title>cluster115</title>
<path fill="none" stroke="#000000" d="M170.2462,-232.9066C170.2462,-232.9066 476.2462,-232.9066 476.2462,-232.9066 482.2462,-232.9066 488.2462,-238.9066 488.2462,-244.9066 488.2462,-244.9066 488.2462,-423.86 488.2462,-423.86 488.2462,-429.86 482.2462,-435.86 476.2462,-435.86 476.2462,-435.86 170.2462,-435.86 170.2462,-435.86 164.2462,-435.86 158.2462,-429.86 158.2462,-423.86 158.2462,-423.86 158.2462,-244.9066 158.2462,-244.9066 158.2462,-238.9066 164.2462,-232.9066 170.2462,-232.9066"/>
<text text-anchor="middle" x="469.7462" y="-240.7066" font-family="Times,serif" font-size="14.00" fill="#000000">115</text>
</g>
<g id="clust4" class="cluster">
<title>cluster230</title>
<path fill="none" stroke="#000000" d="M981.2462,-8C981.2462,-8 1075.2462,-8 1075.2462,-8 1081.2462,-8 1087.2462,-14 1087.2462,-20 1087.2462,-20 1087.2462,-209.93 1087.2462,-209.93 1087.2462,-215.93 1081.2462,-221.93 1075.2462,-221.93 1075.2462,-221.93 981.2462,-221.93 981.2462,-221.93 975.2462,-221.93 969.2462,-215.93 969.2462,-209.93 969.2462,-209.93 969.2462,-20 969.2462,-20 969.2462,-14 975.2462,-8 981.2462,-8"/>
<text text-anchor="middle" x="1068.7462" y="-15.8" font-family="Times,serif" font-size="14.00" fill="#000000">230</text>
</g>
<!-- HAsfc9_b3_dist -->
<g id="node1" class="node">
<title>HAsfc9_b3_dist</title>
<ellipse fill="none" stroke="#000000" cx="74.2462" cy="-390.3833" rx="74.4932" ry="37.4533"/>
<text text-anchor="middle" x="74.2462" y="-401.6833" font-family="Times,serif" font-size="14.00" fill="#000000">HAsfc9_b3_dist</text>
<text text-anchor="middle" x="74.2462" y="-386.6833" font-family="Times,serif" font-size="14.00" fill="#000000">~</text>
<text text-anchor="middle" x="74.2462" y="-371.6833" font-family="Times,serif" font-size="14.00" fill="#000000">Normal</text>
</g>
<!-- HAsfc9_b3 -->
<g id="node18" class="node">
<title>HAsfc9_b3</title>
<polygon fill="none" stroke="#000000" points="368.7462,-316.9066 277.7462,-316.9066 277.7462,-263.9066 368.7462,-263.9066 368.7462,-316.9066"/>
<text text-anchor="middle" x="323.2462" y="-301.7066" font-family="Times,serif" font-size="14.00" fill="#000000">HAsfc9_b3</text>
<text text-anchor="middle" x="323.2462" y="-286.7066" font-family="Times,serif" font-size="14.00" fill="#000000">~</text>
<text text-anchor="middle" x="323.2462" y="-271.7066" font-family="Times,serif" font-size="14.00" fill="#000000">Deterministic</text>
</g>
<!-- HAsfc9_b3_dist&#45;&gt;HAsfc9_b3 -->
<g id="edge10" class="edge">
<title>HAsfc9_b3_dist&#45;&gt;HAsfc9_b3</title>
<path fill="none" stroke="#000000" d="M128.1931,-364.3622C136.8519,-360.4028 145.7565,-356.4577 154.2462,-352.9066 191.8076,-337.1956 234.8588,-321.3049 268.109,-309.4782"/>
<polygon fill="#000000" stroke="#000000" points="269.3958,-312.7356 277.6543,-306.0987 267.0596,-306.1369 269.3958,-312.7356"/>
</g>
<!-- HAsfc9_b2_dist -->
<g id="node2" class="node">
<title>HAsfc9_b2_dist</title>
<ellipse fill="none" stroke="#000000" cx="1900.2462" cy="-390.3833" rx="74.4932" ry="37.4533"/>
<text text-anchor="middle" x="1900.2462" y="-401.6833" font-family="Times,serif" font-size="14.00" fill="#000000">HAsfc9_b2_dist</text>
<text text-anchor="middle" x="1900.2462" y="-386.6833" font-family="Times,serif" font-size="14.00" fill="#000000">~</text>
<text text-anchor="middle" x="1900.2462" y="-371.6833" font-family="Times,serif" font-size="14.00" fill="#000000">Normal</text>
</g>
<!-- HAsfc9_b2 -->
<g id="node14" class="node">
<title>HAsfc9_b2</title>
<polygon fill="none" stroke="#000000" points="1696.7462,-316.9066 1605.7462,-316.9066 1605.7462,-263.9066 1696.7462,-263.9066 1696.7462,-316.9066"/>
<text text-anchor="middle" x="1651.2462" y="-301.7066" font-family="Times,serif" font-size="14.00" fill="#000000">HAsfc9_b2</text>
<text text-anchor="middle" x="1651.2462" y="-286.7066" font-family="Times,serif" font-size="14.00" fill="#000000">~</text>
<text text-anchor="middle" x="1651.2462" y="-271.7066" font-family="Times,serif" font-size="14.00" fill="#000000">Deterministic</text>
</g>
<!-- HAsfc9_b2_dist&#45;&gt;HAsfc9_b2 -->
<g id="edge8" class="edge">
<title>HAsfc9_b2_dist&#45;&gt;HAsfc9_b2</title>
<path fill="none" stroke="#000000" d="M1846.2993,-364.3622C1837.6406,-360.4028 1828.7359,-356.4577 1820.2462,-352.9066 1782.6848,-337.1956 1739.6336,-321.3049 1706.3835,-309.4782"/>
<polygon fill="#000000" stroke="#000000" points="1707.4329,-306.1369 1696.8381,-306.0987 1705.0966,-312.7356 1707.4329,-306.1369"/>
</g>
<!-- HAsfc9_b0_dist -->
<g id="node3" class="node">
<title>HAsfc9_b0_dist</title>
<ellipse fill="none" stroke="#000000" cx="572.2462" cy="-390.3833" rx="74.4932" ry="37.4533"/>
<text text-anchor="middle" x="572.2462" y="-401.6833" font-family="Times,serif" font-size="14.00" fill="#000000">HAsfc9_b0_dist</text>
<text text-anchor="middle" x="572.2462" y="-386.6833" font-family="Times,serif" font-size="14.00" fill="#000000">~</text>
<text text-anchor="middle" x="572.2462" y="-371.6833" font-family="Times,serif" font-size="14.00" fill="#000000">Normal</text>
</g>
<!-- HAsfc9_b0 -->
<g id="node6" class="node">
<title>HAsfc9_b0</title>
<polygon fill="none" stroke="#000000" points="866.7462,-316.9066 775.7462,-316.9066 775.7462,-263.9066 866.7462,-263.9066 866.7462,-316.9066"/>
<text text-anchor="middle" x="821.2462" y="-301.7066" font-family="Times,serif" font-size="14.00" fill="#000000">HAsfc9_b0</text>
<text text-anchor="middle" x="821.2462" y="-286.7066" font-family="Times,serif" font-size="14.00" fill="#000000">~</text>
<text text-anchor="middle" x="821.2462" y="-271.7066" font-family="Times,serif" font-size="14.00" fill="#000000">Deterministic</text>
</g>
<!-- HAsfc9_b0_dist&#45;&gt;HAsfc9_b0 -->
<g id="edge1" class="edge">
<title>HAsfc9_b0_dist&#45;&gt;HAsfc9_b0</title>
<path fill="none" stroke="#000000" d="M627.3928,-364.89C636.6485,-360.7822 646.1876,-356.6525 655.2462,-352.9066 691.7383,-337.8165 733.3236,-322.1618 765.7431,-310.2946"/>
<polygon fill="#000000" stroke="#000000" points="767.2989,-313.4527 775.4943,-306.7381 764.9004,-306.8765 767.2989,-313.4527"/>
</g>
<!-- HAsfc9_nuY -->
<g id="node4" class="node">
<title>HAsfc9_nuY</title>
<ellipse fill="none" stroke="#000000" cx="1158.2462" cy="-187.43" rx="62.8651" ry="37.4533"/>
<text text-anchor="middle" x="1158.2462" y="-198.73" font-family="Times,serif" font-size="14.00" fill="#000000">HAsfc9_nuY</text>
<text text-anchor="middle" x="1158.2462" y="-183.73" font-family="Times,serif" font-size="14.00" fill="#000000">~</text>
<text text-anchor="middle" x="1158.2462" y="-168.73" font-family="Times,serif" font-size="14.00" fill="#000000">Exponential</text>
</g>
<!-- HAsfc9_y -->
<g id="node20" class="node">
<title>HAsfc9_y</title>
<ellipse fill="#d3d3d3" stroke="#000000" cx="1028.2462" cy="-76.4767" rx="50.8235" ry="37.4533"/>
<text text-anchor="middle" x="1028.2462" y="-87.7767" font-family="Times,serif" font-size="14.00" fill="#000000">HAsfc9_y</text>
<text text-anchor="middle" x="1028.2462" y="-72.7767" font-family="Times,serif" font-size="14.00" fill="#000000">~</text>
<text text-anchor="middle" x="1028.2462" y="-57.7767" font-family="Times,serif" font-size="14.00" fill="#000000">StudentT</text>
</g>
<!-- HAsfc9_nuY&#45;&gt;HAsfc9_y -->
<g id="edge17" class="edge">
<title>HAsfc9_nuY&#45;&gt;HAsfc9_y</title>
<path fill="none" stroke="#000000" d="M1122.034,-156.5233C1105.7639,-142.637 1086.4782,-126.1769 1069.6387,-111.8046"/>
<polygon fill="#000000" stroke="#000000" points="1071.471,-108.767 1061.5925,-104.9373 1066.9267,-114.0914 1071.471,-108.767"/>
</g>
<!-- HAsfc9_mu_b0 -->
<g id="node5" class="node">
<title>HAsfc9_mu_b0</title>
<ellipse fill="none" stroke="#000000" cx="738.2462" cy="-390.3833" rx="73.5782" ry="37.4533"/>
<text text-anchor="middle" x="738.2462" y="-401.6833" font-family="Times,serif" font-size="14.00" fill="#000000">HAsfc9_mu_b0</text>
<text text-anchor="middle" x="738.2462" y="-386.6833" font-family="Times,serif" font-size="14.00" fill="#000000">~</text>
<text text-anchor="middle" x="738.2462" y="-371.6833" font-family="Times,serif" font-size="14.00" fill="#000000">Normal</text>
</g>
<!-- HAsfc9_mu_b0&#45;&gt;HAsfc9_b0 -->
<g id="edge2" class="edge">
<title>HAsfc9_mu_b0&#45;&gt;HAsfc9_b0</title>
<path fill="none" stroke="#000000" d="M767.0426,-355.6969C775.3183,-345.7286 784.3398,-334.8618 792.6059,-324.9049"/>
<polygon fill="#000000" stroke="#000000" points="795.35,-327.079 799.0446,-317.1493 789.9641,-322.6077 795.35,-327.079"/>
</g>
<!-- HAsfc9_mu -->
<g id="node19" class="node">
<title>HAsfc9_mu</title>
<polygon fill="none" stroke="#000000" points="1073.7462,-213.93 982.7462,-213.93 982.7462,-160.93 1073.7462,-160.93 1073.7462,-213.93"/>
<text text-anchor="middle" x="1028.2462" y="-198.73" font-family="Times,serif" font-size="14.00" fill="#000000">HAsfc9_mu</text>
<text text-anchor="middle" x="1028.2462" y="-183.73" font-family="Times,serif" font-size="14.00" fill="#000000">~</text>
<text text-anchor="middle" x="1028.2462" y="-168.73" font-family="Times,serif" font-size="14.00" fill="#000000">Deterministic</text>
</g>
<!-- HAsfc9_b0&#45;&gt;HAsfc9_mu -->
<g id="edge14" class="edge">
<title>HAsfc9_b0&#45;&gt;HAsfc9_mu</title>
<path fill="none" stroke="#000000" d="M866.9295,-267.6805C898.3812,-252.0342 940.3206,-231.1705 973.5532,-214.6382"/>
<polygon fill="#000000" stroke="#000000" points="975.2852,-217.6858 982.6796,-210.0981 972.1674,-211.4185 975.2852,-217.6858"/>
</g>
<!-- HAsfc9_b1_dist -->
<g id="node7" class="node">
<title>HAsfc9_b1_dist</title>
<ellipse fill="none" stroke="#000000" cx="1402.2462" cy="-390.3833" rx="74.4932" ry="37.4533"/>
<text text-anchor="middle" x="1402.2462" y="-401.6833" font-family="Times,serif" font-size="14.00" fill="#000000">HAsfc9_b1_dist</text>
<text text-anchor="middle" x="1402.2462" y="-386.6833" font-family="Times,serif" font-size="14.00" fill="#000000">~</text>
<text text-anchor="middle" x="1402.2462" y="-371.6833" font-family="Times,serif" font-size="14.00" fill="#000000">Normal</text>
</g>
<!-- HAsfc9_b1 -->
<g id="node10" class="node">
<title>HAsfc9_b1</title>
<polygon fill="none" stroke="#000000" points="1198.7462,-316.9066 1107.7462,-316.9066 1107.7462,-263.9066 1198.7462,-263.9066 1198.7462,-316.9066"/>
<text text-anchor="middle" x="1153.2462" y="-301.7066" font-family="Times,serif" font-size="14.00" fill="#000000">HAsfc9_b1</text>
<text text-anchor="middle" x="1153.2462" y="-286.7066" font-family="Times,serif" font-size="14.00" fill="#000000">~</text>
<text text-anchor="middle" x="1153.2462" y="-271.7066" font-family="Times,serif" font-size="14.00" fill="#000000">Deterministic</text>
</g>
<!-- HAsfc9_b1_dist&#45;&gt;HAsfc9_b1 -->
<g id="edge4" class="edge">
<title>HAsfc9_b1_dist&#45;&gt;HAsfc9_b1</title>
<path fill="none" stroke="#000000" d="M1348.2993,-364.3622C1339.6406,-360.4028 1330.7359,-356.4577 1322.2462,-352.9066 1284.6848,-337.1956 1241.6336,-321.3049 1208.3835,-309.4782"/>
<polygon fill="#000000" stroke="#000000" points="1209.4329,-306.1369 1198.8381,-306.0987 1207.0966,-312.7356 1209.4329,-306.1369"/>
</g>
<!-- HAsfc9_sigmaY -->
<g id="node8" class="node">
<title>HAsfc9_sigmaY</title>
<ellipse fill="none" stroke="#000000" cx="1315.2462" cy="-187.43" rx="76.2353" ry="37.4533"/>
<text text-anchor="middle" x="1315.2462" y="-198.73" font-family="Times,serif" font-size="14.00" fill="#000000">HAsfc9_sigmaY</text>
<text text-anchor="middle" x="1315.2462" y="-183.73" font-family="Times,serif" font-size="14.00" fill="#000000">~</text>
<text text-anchor="middle" x="1315.2462" y="-168.73" font-family="Times,serif" font-size="14.00" fill="#000000">Gamma</text>
</g>
<!-- HAsfc9_sigmaY&#45;&gt;HAsfc9_y -->
<g id="edge19" class="edge">
<title>HAsfc9_sigmaY&#45;&gt;HAsfc9_y</title>
<path fill="none" stroke="#000000" d="M1258.773,-161.906C1249.2941,-157.8018 1239.5244,-153.6814 1230.2462,-149.9533 1181.3596,-130.3102 1124.9574,-109.9858 1084.1975,-95.7058"/>
<polygon fill="#000000" stroke="#000000" points="1085.3029,-92.3846 1074.708,-92.3913 1082.9947,-98.9931 1085.3029,-92.3846"/>
</g>
<!-- HAsfc9_sigma0 -->
<g id="node9" class="node">
<title>HAsfc9_sigma0</title>
<ellipse fill="none" stroke="#000000" cx="904.2462" cy="-390.3833" rx="74.4932" ry="37.4533"/>
<text text-anchor="middle" x="904.2462" y="-401.6833" font-family="Times,serif" font-size="14.00" fill="#000000">HAsfc9_sigma0</text>
<text text-anchor="middle" x="904.2462" y="-386.6833" font-family="Times,serif" font-size="14.00" fill="#000000">~</text>
<text text-anchor="middle" x="904.2462" y="-371.6833" font-family="Times,serif" font-size="14.00" fill="#000000">HalfNormal</text>
</g>
<!-- HAsfc9_sigma0&#45;&gt;HAsfc9_b0 -->
<g id="edge3" class="edge">
<title>HAsfc9_sigma0&#45;&gt;HAsfc9_b0</title>
<path fill="none" stroke="#000000" d="M875.4498,-355.6969C867.1742,-345.7286 858.1527,-334.8618 849.8865,-324.9049"/>
<polygon fill="#000000" stroke="#000000" points="852.5283,-322.6077 843.4478,-317.1493 847.1425,-327.079 852.5283,-322.6077"/>
</g>
<!-- HAsfc9_b1&#45;&gt;HAsfc9_mu -->
<g id="edge15" class="edge">
<title>HAsfc9_b1&#45;&gt;HAsfc9_mu</title>
<path fill="none" stroke="#000000" d="M1121.0556,-263.8876C1105.1414,-250.7773 1085.768,-234.8172 1068.8463,-220.8769"/>
<polygon fill="#000000" stroke="#000000" points="1070.7059,-217.8741 1060.7622,-214.2171 1066.255,-223.2769 1070.7059,-217.8741"/>
</g>
<!-- HAsfc9_mu_b1 -->
<g id="node11" class="node">
<title>HAsfc9_mu_b1</title>
<ellipse fill="none" stroke="#000000" cx="1236.2462" cy="-390.3833" rx="73.5782" ry="37.4533"/>
<text text-anchor="middle" x="1236.2462" y="-401.6833" font-family="Times,serif" font-size="14.00" fill="#000000">HAsfc9_mu_b1</text>
<text text-anchor="middle" x="1236.2462" y="-386.6833" font-family="Times,serif" font-size="14.00" fill="#000000">~</text>
<text text-anchor="middle" x="1236.2462" y="-371.6833" font-family="Times,serif" font-size="14.00" fill="#000000">Normal</text>
</g>
<!-- HAsfc9_mu_b1&#45;&gt;HAsfc9_b1 -->
<g id="edge5" class="edge">
<title>HAsfc9_mu_b1&#45;&gt;HAsfc9_b1</title>
<path fill="none" stroke="#000000" d="M1207.4498,-355.6969C1199.1742,-345.7286 1190.1527,-334.8618 1181.8865,-324.9049"/>
<polygon fill="#000000" stroke="#000000" points="1184.5283,-322.6077 1175.4478,-317.1493 1179.1425,-327.079 1184.5283,-322.6077"/>
</g>
<!-- HAsfc9_sigma1 -->
<g id="node12" class="node">
<title>HAsfc9_sigma1</title>
<ellipse fill="none" stroke="#000000" cx="1070.2462" cy="-390.3833" rx="74.4932" ry="37.4533"/>
<text text-anchor="middle" x="1070.2462" y="-401.6833" font-family="Times,serif" font-size="14.00" fill="#000000">HAsfc9_sigma1</text>
<text text-anchor="middle" x="1070.2462" y="-386.6833" font-family="Times,serif" font-size="14.00" fill="#000000">~</text>
<text text-anchor="middle" x="1070.2462" y="-371.6833" font-family="Times,serif" font-size="14.00" fill="#000000">HalfNormal</text>
</g>
<!-- HAsfc9_sigma1&#45;&gt;HAsfc9_b1 -->
<g id="edge6" class="edge">
<title>HAsfc9_sigma1&#45;&gt;HAsfc9_b1</title>
<path fill="none" stroke="#000000" d="M1099.0426,-355.6969C1107.3183,-345.7286 1116.3398,-334.8618 1124.6059,-324.9049"/>
<polygon fill="#000000" stroke="#000000" points="1127.35,-327.079 1131.0446,-317.1493 1121.9641,-322.6077 1127.35,-327.079"/>
</g>
<!-- HAsfc9_mu_b2 -->
<g id="node13" class="node">
<title>HAsfc9_mu_b2</title>
<ellipse fill="none" stroke="#000000" cx="1734.2462" cy="-390.3833" rx="73.5782" ry="37.4533"/>
<text text-anchor="middle" x="1734.2462" y="-401.6833" font-family="Times,serif" font-size="14.00" fill="#000000">HAsfc9_mu_b2</text>
<text text-anchor="middle" x="1734.2462" y="-386.6833" font-family="Times,serif" font-size="14.00" fill="#000000">~</text>
<text text-anchor="middle" x="1734.2462" y="-371.6833" font-family="Times,serif" font-size="14.00" fill="#000000">Normal</text>
</g>
<!-- HAsfc9_mu_b2&#45;&gt;HAsfc9_b2 -->
<g id="edge7" class="edge">
<title>HAsfc9_mu_b2&#45;&gt;HAsfc9_b2</title>
<path fill="none" stroke="#000000" d="M1705.4498,-355.6969C1697.1742,-345.7286 1688.1527,-334.8618 1679.8865,-324.9049"/>
<polygon fill="#000000" stroke="#000000" points="1682.5283,-322.6077 1673.4478,-317.1493 1677.1425,-327.079 1682.5283,-322.6077"/>
</g>
<!-- HAsfc9_b2&#45;&gt;HAsfc9_mu -->
<g id="edge13" class="edge">
<title>HAsfc9_b2&#45;&gt;HAsfc9_mu</title>
<path fill="none" stroke="#000000" d="M1605.4868,-280.3299C1542.1925,-266.8694 1424.1847,-243.4905 1322.2462,-232.9066 1296.1492,-230.1971 1111.2822,-232.7548 1086.2462,-224.9066 1081.3665,-223.377 1076.5026,-221.3165 1071.7848,-218.9447"/>
<polygon fill="#000000" stroke="#000000" points="1073.3729,-215.8236 1062.9264,-214.0574 1069.9914,-221.9527 1073.3729,-215.8236"/>
</g>
<!-- HAsfc9_sigma2 -->
<g id="node15" class="node">
<title>HAsfc9_sigma2</title>
<ellipse fill="none" stroke="#000000" cx="1568.2462" cy="-390.3833" rx="74.4932" ry="37.4533"/>
<text text-anchor="middle" x="1568.2462" y="-401.6833" font-family="Times,serif" font-size="14.00" fill="#000000">HAsfc9_sigma2</text>
<text text-anchor="middle" x="1568.2462" y="-386.6833" font-family="Times,serif" font-size="14.00" fill="#000000">~</text>
<text text-anchor="middle" x="1568.2462" y="-371.6833" font-family="Times,serif" font-size="14.00" fill="#000000">HalfNormal</text>
</g>
<!-- HAsfc9_sigma2&#45;&gt;HAsfc9_b2 -->
<g id="edge9" class="edge">
<title>HAsfc9_sigma2&#45;&gt;HAsfc9_b2</title>
<path fill="none" stroke="#000000" d="M1597.0426,-355.6969C1605.3183,-345.7286 1614.3398,-334.8618 1622.6059,-324.9049"/>
<polygon fill="#000000" stroke="#000000" points="1625.35,-327.079 1629.0446,-317.1493 1619.9641,-322.6077 1625.35,-327.079"/>
</g>
<!-- HAsfc9_mu_b3 -->
<g id="node16" class="node">
<title>HAsfc9_mu_b3</title>
<ellipse fill="none" stroke="#000000" cx="406.2462" cy="-390.3833" rx="73.5782" ry="37.4533"/>
<text text-anchor="middle" x="406.2462" y="-401.6833" font-family="Times,serif" font-size="14.00" fill="#000000">HAsfc9_mu_b3</text>
<text text-anchor="middle" x="406.2462" y="-386.6833" font-family="Times,serif" font-size="14.00" fill="#000000">~</text>
<text text-anchor="middle" x="406.2462" y="-371.6833" font-family="Times,serif" font-size="14.00" fill="#000000">Normal</text>
</g>
<!-- HAsfc9_mu_b3&#45;&gt;HAsfc9_b3 -->
<g id="edge11" class="edge">
<title>HAsfc9_mu_b3&#45;&gt;HAsfc9_b3</title>
<path fill="none" stroke="#000000" d="M377.4498,-355.6969C369.1742,-345.7286 360.1527,-334.8618 351.8865,-324.9049"/>
<polygon fill="#000000" stroke="#000000" points="354.5283,-322.6077 345.4478,-317.1493 349.1425,-327.079 354.5283,-322.6077"/>
</g>
<!-- HAsfc9_sigma3 -->
<g id="node17" class="node">
<title>HAsfc9_sigma3</title>
<ellipse fill="none" stroke="#000000" cx="240.2462" cy="-390.3833" rx="74.4932" ry="37.4533"/>
<text text-anchor="middle" x="240.2462" y="-401.6833" font-family="Times,serif" font-size="14.00" fill="#000000">HAsfc9_sigma3</text>
<text text-anchor="middle" x="240.2462" y="-386.6833" font-family="Times,serif" font-size="14.00" fill="#000000">~</text>
<text text-anchor="middle" x="240.2462" y="-371.6833" font-family="Times,serif" font-size="14.00" fill="#000000">HalfNormal</text>
</g>
<!-- HAsfc9_sigma3&#45;&gt;HAsfc9_b3 -->
<g id="edge12" class="edge">
<title>HAsfc9_sigma3&#45;&gt;HAsfc9_b3</title>
<path fill="none" stroke="#000000" d="M269.0426,-355.6969C277.3183,-345.7286 286.3398,-334.8618 294.6059,-324.9049"/>
<polygon fill="#000000" stroke="#000000" points="297.35,-327.079 301.0446,-317.1493 291.9641,-322.6077 297.35,-327.079"/>
</g>
<!-- HAsfc9_b3&#45;&gt;HAsfc9_mu -->
<g id="edge16" class="edge">
<title>HAsfc9_b3&#45;&gt;HAsfc9_mu</title>
<path fill="none" stroke="#000000" d="M368.96,-283.7294C493.2641,-265.5728 837.1519,-215.3424 972.4907,-195.574"/>
<polygon fill="#000000" stroke="#000000" points="973.2469,-199.0007 982.6361,-194.0921 972.2352,-192.0742 973.2469,-199.0007"/>
</g>
<!-- HAsfc9_mu&#45;&gt;HAsfc9_y -->
<g id="edge18" class="edge">
<title>HAsfc9_mu&#45;&gt;HAsfc9_y</title>
<path fill="none" stroke="#000000" d="M1028.2462,-160.8539C1028.2462,-149.9351 1028.2462,-136.944 1028.2462,-124.4675"/>
<polygon fill="#000000" stroke="#000000" points="1031.7463,-124.1649 1028.2462,-114.165 1024.7463,-124.165 1031.7463,-124.1649"/>
</g>
</g>
</svg>
